G04 #@! TF.GenerationSoftware,KiCad,Pcbnew,5.1.1-8be2ce7~80~ubuntu18.10.1*
G04 #@! TF.CreationDate,2019-06-22T16:49:51+02:00*
G04 #@! TF.ProjectId,Spartan6,53706172-7461-46e3-962e-6b696361645f,rev?*
G04 #@! TF.SameCoordinates,Original*
G04 #@! TF.FileFunction,Soldermask,Top*
G04 #@! TF.FilePolarity,Negative*
%FSLAX46Y46*%
G04 Gerber Fmt 4.6, Leading zero omitted, Abs format (unit mm)*
G04 Created by KiCad (PCBNEW 5.1.1-8be2ce7~80~ubuntu18.10.1) date 2019-06-22 16:49:51*
%MOMM*%
%LPD*%
G04 APERTURE LIST*
%ADD10C,0.100000*%
G04 APERTURE END LIST*
D10*
G36*
X89240638Y-92102916D02*
G01*
X89261257Y-92109171D01*
X89280253Y-92119324D01*
X89296908Y-92132992D01*
X89310576Y-92149647D01*
X89320729Y-92168643D01*
X89326984Y-92189262D01*
X89329700Y-92216840D01*
X89329700Y-92725560D01*
X89326984Y-92753138D01*
X89320729Y-92773757D01*
X89310576Y-92792753D01*
X89296908Y-92809408D01*
X89280253Y-92823076D01*
X89261257Y-92833229D01*
X89240638Y-92839484D01*
X89213060Y-92842200D01*
X88754340Y-92842200D01*
X88726762Y-92839484D01*
X88706143Y-92833229D01*
X88687147Y-92823076D01*
X88670492Y-92809408D01*
X88656824Y-92792753D01*
X88646671Y-92773757D01*
X88640416Y-92753138D01*
X88637700Y-92725560D01*
X88637700Y-92216840D01*
X88640416Y-92189262D01*
X88646671Y-92168643D01*
X88656824Y-92149647D01*
X88670492Y-92132992D01*
X88687147Y-92119324D01*
X88706143Y-92109171D01*
X88726762Y-92102916D01*
X88754340Y-92100200D01*
X89213060Y-92100200D01*
X89240638Y-92102916D01*
X89240638Y-92102916D01*
G37*
G36*
X88270638Y-92102916D02*
G01*
X88291257Y-92109171D01*
X88310253Y-92119324D01*
X88326908Y-92132992D01*
X88340576Y-92149647D01*
X88350729Y-92168643D01*
X88356984Y-92189262D01*
X88359700Y-92216840D01*
X88359700Y-92725560D01*
X88356984Y-92753138D01*
X88350729Y-92773757D01*
X88340576Y-92792753D01*
X88326908Y-92809408D01*
X88310253Y-92823076D01*
X88291257Y-92833229D01*
X88270638Y-92839484D01*
X88243060Y-92842200D01*
X87784340Y-92842200D01*
X87756762Y-92839484D01*
X87736143Y-92833229D01*
X87717147Y-92823076D01*
X87700492Y-92809408D01*
X87686824Y-92792753D01*
X87676671Y-92773757D01*
X87670416Y-92753138D01*
X87667700Y-92725560D01*
X87667700Y-92216840D01*
X87670416Y-92189262D01*
X87676671Y-92168643D01*
X87686824Y-92149647D01*
X87700492Y-92132992D01*
X87717147Y-92119324D01*
X87736143Y-92109171D01*
X87756762Y-92102916D01*
X87784340Y-92100200D01*
X88243060Y-92100200D01*
X88270638Y-92102916D01*
X88270638Y-92102916D01*
G37*
G36*
X85286138Y-92087716D02*
G01*
X85306757Y-92093971D01*
X85325753Y-92104124D01*
X85342408Y-92117792D01*
X85356076Y-92134447D01*
X85366229Y-92153443D01*
X85372484Y-92174062D01*
X85375200Y-92201640D01*
X85375200Y-92710360D01*
X85372484Y-92737938D01*
X85366229Y-92758557D01*
X85356076Y-92777553D01*
X85342408Y-92794208D01*
X85325753Y-92807876D01*
X85306757Y-92818029D01*
X85286138Y-92824284D01*
X85258560Y-92827000D01*
X84799840Y-92827000D01*
X84772262Y-92824284D01*
X84751643Y-92818029D01*
X84732647Y-92807876D01*
X84715992Y-92794208D01*
X84702324Y-92777553D01*
X84692171Y-92758557D01*
X84685916Y-92737938D01*
X84683200Y-92710360D01*
X84683200Y-92201640D01*
X84685916Y-92174062D01*
X84692171Y-92153443D01*
X84702324Y-92134447D01*
X84715992Y-92117792D01*
X84732647Y-92104124D01*
X84751643Y-92093971D01*
X84772262Y-92087716D01*
X84799840Y-92085000D01*
X85258560Y-92085000D01*
X85286138Y-92087716D01*
X85286138Y-92087716D01*
G37*
G36*
X86256138Y-92087716D02*
G01*
X86276757Y-92093971D01*
X86295753Y-92104124D01*
X86312408Y-92117792D01*
X86326076Y-92134447D01*
X86336229Y-92153443D01*
X86342484Y-92174062D01*
X86345200Y-92201640D01*
X86345200Y-92710360D01*
X86342484Y-92737938D01*
X86336229Y-92758557D01*
X86326076Y-92777553D01*
X86312408Y-92794208D01*
X86295753Y-92807876D01*
X86276757Y-92818029D01*
X86256138Y-92824284D01*
X86228560Y-92827000D01*
X85769840Y-92827000D01*
X85742262Y-92824284D01*
X85721643Y-92818029D01*
X85702647Y-92807876D01*
X85685992Y-92794208D01*
X85672324Y-92777553D01*
X85662171Y-92758557D01*
X85655916Y-92737938D01*
X85653200Y-92710360D01*
X85653200Y-92201640D01*
X85655916Y-92174062D01*
X85662171Y-92153443D01*
X85672324Y-92134447D01*
X85685992Y-92117792D01*
X85702647Y-92104124D01*
X85721643Y-92093971D01*
X85742262Y-92087716D01*
X85769840Y-92085000D01*
X86228560Y-92085000D01*
X86256138Y-92087716D01*
X86256138Y-92087716D01*
G37*
G36*
X43183362Y-88822968D02*
G01*
X43492924Y-88951193D01*
X43492925Y-88951194D01*
X43771524Y-89137347D01*
X44008453Y-89374276D01*
X44086489Y-89491066D01*
X44194607Y-89652876D01*
X44322832Y-89962438D01*
X44388200Y-90291065D01*
X44388200Y-90626135D01*
X44322832Y-90954762D01*
X44194607Y-91264324D01*
X44194606Y-91264325D01*
X44008453Y-91542924D01*
X43771524Y-91779853D01*
X43585370Y-91904237D01*
X43492924Y-91966007D01*
X43183362Y-92094232D01*
X42854735Y-92159600D01*
X42519665Y-92159600D01*
X42191038Y-92094232D01*
X41881476Y-91966007D01*
X41789030Y-91904237D01*
X41602876Y-91779853D01*
X41365947Y-91542924D01*
X41179794Y-91264325D01*
X41179793Y-91264324D01*
X41051568Y-90954762D01*
X40986200Y-90626135D01*
X40986200Y-90291065D01*
X41051568Y-89962438D01*
X41179793Y-89652876D01*
X41287911Y-89491066D01*
X41365947Y-89374276D01*
X41602876Y-89137347D01*
X41881475Y-88951194D01*
X41881476Y-88951193D01*
X42191038Y-88822968D01*
X42519665Y-88757600D01*
X42854735Y-88757600D01*
X43183362Y-88822968D01*
X43183362Y-88822968D01*
G37*
G36*
X89243138Y-90754216D02*
G01*
X89263757Y-90760471D01*
X89282753Y-90770624D01*
X89299408Y-90784292D01*
X89313076Y-90800947D01*
X89323229Y-90819943D01*
X89329484Y-90840562D01*
X89332200Y-90868140D01*
X89332200Y-91376860D01*
X89329484Y-91404438D01*
X89323229Y-91425057D01*
X89313076Y-91444053D01*
X89299408Y-91460708D01*
X89282753Y-91474376D01*
X89263757Y-91484529D01*
X89243138Y-91490784D01*
X89215560Y-91493500D01*
X88756840Y-91493500D01*
X88729262Y-91490784D01*
X88708643Y-91484529D01*
X88689647Y-91474376D01*
X88672992Y-91460708D01*
X88659324Y-91444053D01*
X88649171Y-91425057D01*
X88642916Y-91404438D01*
X88640200Y-91376860D01*
X88640200Y-90868140D01*
X88642916Y-90840562D01*
X88649171Y-90819943D01*
X88659324Y-90800947D01*
X88672992Y-90784292D01*
X88689647Y-90770624D01*
X88708643Y-90760471D01*
X88729262Y-90754216D01*
X88756840Y-90751500D01*
X89215560Y-90751500D01*
X89243138Y-90754216D01*
X89243138Y-90754216D01*
G37*
G36*
X88273138Y-90754216D02*
G01*
X88293757Y-90760471D01*
X88312753Y-90770624D01*
X88329408Y-90784292D01*
X88343076Y-90800947D01*
X88353229Y-90819943D01*
X88359484Y-90840562D01*
X88362200Y-90868140D01*
X88362200Y-91376860D01*
X88359484Y-91404438D01*
X88353229Y-91425057D01*
X88343076Y-91444053D01*
X88329408Y-91460708D01*
X88312753Y-91474376D01*
X88293757Y-91484529D01*
X88273138Y-91490784D01*
X88245560Y-91493500D01*
X87786840Y-91493500D01*
X87759262Y-91490784D01*
X87738643Y-91484529D01*
X87719647Y-91474376D01*
X87702992Y-91460708D01*
X87689324Y-91444053D01*
X87679171Y-91425057D01*
X87672916Y-91404438D01*
X87670200Y-91376860D01*
X87670200Y-90868140D01*
X87672916Y-90840562D01*
X87679171Y-90819943D01*
X87689324Y-90800947D01*
X87702992Y-90784292D01*
X87719647Y-90770624D01*
X87738643Y-90760471D01*
X87759262Y-90754216D01*
X87786840Y-90751500D01*
X88245560Y-90751500D01*
X88273138Y-90754216D01*
X88273138Y-90754216D01*
G37*
G36*
X86248538Y-90749116D02*
G01*
X86269157Y-90755371D01*
X86288153Y-90765524D01*
X86304808Y-90779192D01*
X86318476Y-90795847D01*
X86328629Y-90814843D01*
X86334884Y-90835462D01*
X86337600Y-90863040D01*
X86337600Y-91371760D01*
X86334884Y-91399338D01*
X86328629Y-91419957D01*
X86318476Y-91438953D01*
X86304808Y-91455608D01*
X86288153Y-91469276D01*
X86269157Y-91479429D01*
X86248538Y-91485684D01*
X86220960Y-91488400D01*
X85762240Y-91488400D01*
X85734662Y-91485684D01*
X85714043Y-91479429D01*
X85695047Y-91469276D01*
X85678392Y-91455608D01*
X85664724Y-91438953D01*
X85654571Y-91419957D01*
X85648316Y-91399338D01*
X85645600Y-91371760D01*
X85645600Y-90863040D01*
X85648316Y-90835462D01*
X85654571Y-90814843D01*
X85664724Y-90795847D01*
X85678392Y-90779192D01*
X85695047Y-90765524D01*
X85714043Y-90755371D01*
X85734662Y-90749116D01*
X85762240Y-90746400D01*
X86220960Y-90746400D01*
X86248538Y-90749116D01*
X86248538Y-90749116D01*
G37*
G36*
X85278538Y-90749116D02*
G01*
X85299157Y-90755371D01*
X85318153Y-90765524D01*
X85334808Y-90779192D01*
X85348476Y-90795847D01*
X85358629Y-90814843D01*
X85364884Y-90835462D01*
X85367600Y-90863040D01*
X85367600Y-91371760D01*
X85364884Y-91399338D01*
X85358629Y-91419957D01*
X85348476Y-91438953D01*
X85334808Y-91455608D01*
X85318153Y-91469276D01*
X85299157Y-91479429D01*
X85278538Y-91485684D01*
X85250960Y-91488400D01*
X84792240Y-91488400D01*
X84764662Y-91485684D01*
X84744043Y-91479429D01*
X84725047Y-91469276D01*
X84708392Y-91455608D01*
X84694724Y-91438953D01*
X84684571Y-91419957D01*
X84678316Y-91399338D01*
X84675600Y-91371760D01*
X84675600Y-90863040D01*
X84678316Y-90835462D01*
X84684571Y-90814843D01*
X84694724Y-90795847D01*
X84708392Y-90779192D01*
X84725047Y-90765524D01*
X84744043Y-90755371D01*
X84764662Y-90749116D01*
X84792240Y-90746400D01*
X85250960Y-90746400D01*
X85278538Y-90749116D01*
X85278538Y-90749116D01*
G37*
G36*
X36433362Y-88022968D02*
G01*
X36742924Y-88151193D01*
X36742925Y-88151194D01*
X37021524Y-88337347D01*
X37258453Y-88574276D01*
X37380946Y-88757600D01*
X37444607Y-88852876D01*
X37572832Y-89162438D01*
X37638200Y-89491065D01*
X37638200Y-89826135D01*
X37572832Y-90154762D01*
X37444607Y-90464324D01*
X37444606Y-90464325D01*
X37258453Y-90742924D01*
X37021524Y-90979853D01*
X36835370Y-91104237D01*
X36742924Y-91166007D01*
X36433362Y-91294232D01*
X36104735Y-91359600D01*
X35769665Y-91359600D01*
X35441038Y-91294232D01*
X35131476Y-91166007D01*
X35039030Y-91104237D01*
X34852876Y-90979853D01*
X34615947Y-90742924D01*
X34429794Y-90464325D01*
X34429793Y-90464324D01*
X34301568Y-90154762D01*
X34236200Y-89826135D01*
X34236200Y-89491065D01*
X34301568Y-89162438D01*
X34429793Y-88852876D01*
X34493454Y-88757600D01*
X34615947Y-88574276D01*
X34852876Y-88337347D01*
X35131475Y-88151194D01*
X35131476Y-88151193D01*
X35441038Y-88022968D01*
X35769665Y-87957600D01*
X36104735Y-87957600D01*
X36433362Y-88022968D01*
X36433362Y-88022968D01*
G37*
G36*
X49933362Y-88022968D02*
G01*
X50242924Y-88151193D01*
X50242925Y-88151194D01*
X50521524Y-88337347D01*
X50758453Y-88574276D01*
X50880946Y-88757600D01*
X50944607Y-88852876D01*
X51072832Y-89162438D01*
X51138200Y-89491065D01*
X51138200Y-89826135D01*
X51072832Y-90154762D01*
X50944607Y-90464324D01*
X50944606Y-90464325D01*
X50758453Y-90742924D01*
X50521524Y-90979853D01*
X50335370Y-91104237D01*
X50242924Y-91166007D01*
X49933362Y-91294232D01*
X49604735Y-91359600D01*
X49269665Y-91359600D01*
X48941038Y-91294232D01*
X48631476Y-91166007D01*
X48539030Y-91104237D01*
X48352876Y-90979853D01*
X48115947Y-90742924D01*
X47929794Y-90464325D01*
X47929793Y-90464324D01*
X47801568Y-90154762D01*
X47736200Y-89826135D01*
X47736200Y-89491065D01*
X47801568Y-89162438D01*
X47929793Y-88852876D01*
X47993454Y-88757600D01*
X48115947Y-88574276D01*
X48352876Y-88337347D01*
X48631475Y-88151194D01*
X48631476Y-88151193D01*
X48941038Y-88022968D01*
X49269665Y-87957600D01*
X49604735Y-87957600D01*
X49933362Y-88022968D01*
X49933362Y-88022968D01*
G37*
G36*
X86125100Y-88926100D02*
G01*
X85023100Y-88926100D01*
X85023100Y-86074100D01*
X86125100Y-86074100D01*
X86125100Y-88926100D01*
X86125100Y-88926100D01*
G37*
G36*
X90125100Y-88926100D02*
G01*
X89023100Y-88926100D01*
X89023100Y-86074100D01*
X90125100Y-86074100D01*
X90125100Y-88926100D01*
X90125100Y-88926100D01*
G37*
G36*
X64236628Y-86509703D02*
G01*
X64391500Y-86573853D01*
X64530881Y-86666985D01*
X64649415Y-86785519D01*
X64742547Y-86924900D01*
X64806697Y-87079772D01*
X64839400Y-87244184D01*
X64839400Y-87411816D01*
X64806697Y-87576228D01*
X64742547Y-87731100D01*
X64649415Y-87870481D01*
X64530881Y-87989015D01*
X64391500Y-88082147D01*
X64236628Y-88146297D01*
X64072216Y-88179000D01*
X63904584Y-88179000D01*
X63740172Y-88146297D01*
X63585300Y-88082147D01*
X63445919Y-87989015D01*
X63327385Y-87870481D01*
X63234253Y-87731100D01*
X63170103Y-87576228D01*
X63137400Y-87411816D01*
X63137400Y-87244184D01*
X63170103Y-87079772D01*
X63234253Y-86924900D01*
X63327385Y-86785519D01*
X63445919Y-86666985D01*
X63585300Y-86573853D01*
X63740172Y-86509703D01*
X63904584Y-86477000D01*
X64072216Y-86477000D01*
X64236628Y-86509703D01*
X64236628Y-86509703D01*
G37*
G36*
X67006628Y-86509703D02*
G01*
X67161500Y-86573853D01*
X67300881Y-86666985D01*
X67419415Y-86785519D01*
X67512547Y-86924900D01*
X67576697Y-87079772D01*
X67609400Y-87244184D01*
X67609400Y-87411816D01*
X67576697Y-87576228D01*
X67512547Y-87731100D01*
X67419415Y-87870481D01*
X67300881Y-87989015D01*
X67161500Y-88082147D01*
X67006628Y-88146297D01*
X66842216Y-88179000D01*
X66674584Y-88179000D01*
X66510172Y-88146297D01*
X66355300Y-88082147D01*
X66215919Y-87989015D01*
X66097385Y-87870481D01*
X66004253Y-87731100D01*
X65940103Y-87576228D01*
X65907400Y-87411816D01*
X65907400Y-87244184D01*
X65940103Y-87079772D01*
X66004253Y-86924900D01*
X66097385Y-86785519D01*
X66215919Y-86666985D01*
X66355300Y-86573853D01*
X66510172Y-86509703D01*
X66674584Y-86477000D01*
X66842216Y-86477000D01*
X67006628Y-86509703D01*
X67006628Y-86509703D01*
G37*
G36*
X69776628Y-86509703D02*
G01*
X69931500Y-86573853D01*
X70070881Y-86666985D01*
X70189415Y-86785519D01*
X70282547Y-86924900D01*
X70346697Y-87079772D01*
X70379400Y-87244184D01*
X70379400Y-87411816D01*
X70346697Y-87576228D01*
X70282547Y-87731100D01*
X70189415Y-87870481D01*
X70070881Y-87989015D01*
X69931500Y-88082147D01*
X69776628Y-88146297D01*
X69612216Y-88179000D01*
X69444584Y-88179000D01*
X69280172Y-88146297D01*
X69125300Y-88082147D01*
X68985919Y-87989015D01*
X68867385Y-87870481D01*
X68774253Y-87731100D01*
X68710103Y-87576228D01*
X68677400Y-87411816D01*
X68677400Y-87244184D01*
X68710103Y-87079772D01*
X68774253Y-86924900D01*
X68867385Y-86785519D01*
X68985919Y-86666985D01*
X69125300Y-86573853D01*
X69280172Y-86509703D01*
X69444584Y-86477000D01*
X69612216Y-86477000D01*
X69776628Y-86509703D01*
X69776628Y-86509703D01*
G37*
G36*
X72546628Y-86509703D02*
G01*
X72701500Y-86573853D01*
X72840881Y-86666985D01*
X72959415Y-86785519D01*
X73052547Y-86924900D01*
X73116697Y-87079772D01*
X73149400Y-87244184D01*
X73149400Y-87411816D01*
X73116697Y-87576228D01*
X73052547Y-87731100D01*
X72959415Y-87870481D01*
X72840881Y-87989015D01*
X72701500Y-88082147D01*
X72546628Y-88146297D01*
X72382216Y-88179000D01*
X72214584Y-88179000D01*
X72050172Y-88146297D01*
X71895300Y-88082147D01*
X71755919Y-87989015D01*
X71637385Y-87870481D01*
X71544253Y-87731100D01*
X71480103Y-87576228D01*
X71447400Y-87411816D01*
X71447400Y-87244184D01*
X71480103Y-87079772D01*
X71544253Y-86924900D01*
X71637385Y-86785519D01*
X71755919Y-86666985D01*
X71895300Y-86573853D01*
X72050172Y-86509703D01*
X72214584Y-86477000D01*
X72382216Y-86477000D01*
X72546628Y-86509703D01*
X72546628Y-86509703D01*
G37*
G36*
X56241654Y-83935818D02*
G01*
X56601570Y-84084900D01*
X56614913Y-84090427D01*
X56950836Y-84314884D01*
X57236516Y-84600564D01*
X57327165Y-84736229D01*
X57460974Y-84936489D01*
X57615582Y-85309746D01*
X57694400Y-85705993D01*
X57694400Y-86110007D01*
X57615582Y-86506254D01*
X57499906Y-86785520D01*
X57460973Y-86879513D01*
X57236516Y-87215436D01*
X56950836Y-87501116D01*
X56614913Y-87725573D01*
X56614912Y-87725574D01*
X56614911Y-87725574D01*
X56241654Y-87880182D01*
X55845407Y-87959000D01*
X55441393Y-87959000D01*
X55045146Y-87880182D01*
X54671889Y-87725574D01*
X54671888Y-87725574D01*
X54671887Y-87725573D01*
X54335964Y-87501116D01*
X54050284Y-87215436D01*
X53825827Y-86879513D01*
X53786894Y-86785520D01*
X53671218Y-86506254D01*
X53592400Y-86110007D01*
X53592400Y-85705993D01*
X53671218Y-85309746D01*
X53825826Y-84936489D01*
X53959636Y-84736229D01*
X54050284Y-84600564D01*
X54335964Y-84314884D01*
X54671887Y-84090427D01*
X54685230Y-84084900D01*
X55045146Y-83935818D01*
X55441393Y-83857000D01*
X55845407Y-83857000D01*
X56241654Y-83935818D01*
X56241654Y-83935818D01*
G37*
G36*
X81241654Y-83935818D02*
G01*
X81601570Y-84084900D01*
X81614913Y-84090427D01*
X81950836Y-84314884D01*
X82236516Y-84600564D01*
X82327165Y-84736229D01*
X82460974Y-84936489D01*
X82615582Y-85309746D01*
X82694400Y-85705993D01*
X82694400Y-86110007D01*
X82615582Y-86506254D01*
X82499906Y-86785520D01*
X82460973Y-86879513D01*
X82236516Y-87215436D01*
X81950836Y-87501116D01*
X81614913Y-87725573D01*
X81614912Y-87725574D01*
X81614911Y-87725574D01*
X81241654Y-87880182D01*
X80845407Y-87959000D01*
X80441393Y-87959000D01*
X80045146Y-87880182D01*
X79671889Y-87725574D01*
X79671888Y-87725574D01*
X79671887Y-87725573D01*
X79335964Y-87501116D01*
X79050284Y-87215436D01*
X78825827Y-86879513D01*
X78786894Y-86785520D01*
X78671218Y-86506254D01*
X78592400Y-86110007D01*
X78592400Y-85705993D01*
X78671218Y-85309746D01*
X78825826Y-84936489D01*
X78959636Y-84736229D01*
X79050284Y-84600564D01*
X79335964Y-84314884D01*
X79671887Y-84090427D01*
X79685230Y-84084900D01*
X80045146Y-83935818D01*
X80441393Y-83857000D01*
X80845407Y-83857000D01*
X81241654Y-83935818D01*
X81241654Y-83935818D01*
G37*
G36*
X41624342Y-85876842D02*
G01*
X41772301Y-85938129D01*
X41905455Y-86027099D01*
X42018701Y-86140345D01*
X42107671Y-86273499D01*
X42168958Y-86421458D01*
X42200200Y-86578525D01*
X42200200Y-86738675D01*
X42168958Y-86895742D01*
X42107671Y-87043701D01*
X42018701Y-87176855D01*
X41905455Y-87290101D01*
X41772301Y-87379071D01*
X41624342Y-87440358D01*
X41467275Y-87471600D01*
X41307125Y-87471600D01*
X41150058Y-87440358D01*
X41002099Y-87379071D01*
X40868945Y-87290101D01*
X40755699Y-87176855D01*
X40666729Y-87043701D01*
X40605442Y-86895742D01*
X40574200Y-86738675D01*
X40574200Y-86578525D01*
X40605442Y-86421458D01*
X40666729Y-86273499D01*
X40755699Y-86140345D01*
X40868945Y-86027099D01*
X41002099Y-85938129D01*
X41150058Y-85876842D01*
X41307125Y-85845600D01*
X41467275Y-85845600D01*
X41624342Y-85876842D01*
X41624342Y-85876842D01*
G37*
G36*
X39524342Y-85876842D02*
G01*
X39672301Y-85938129D01*
X39805455Y-86027099D01*
X39918701Y-86140345D01*
X40007671Y-86273499D01*
X40068958Y-86421458D01*
X40100200Y-86578525D01*
X40100200Y-86738675D01*
X40068958Y-86895742D01*
X40007671Y-87043701D01*
X39918701Y-87176855D01*
X39805455Y-87290101D01*
X39672301Y-87379071D01*
X39524342Y-87440358D01*
X39367275Y-87471600D01*
X39207125Y-87471600D01*
X39050058Y-87440358D01*
X38902099Y-87379071D01*
X38768945Y-87290101D01*
X38655699Y-87176855D01*
X38566729Y-87043701D01*
X38505442Y-86895742D01*
X38474200Y-86738675D01*
X38474200Y-86578525D01*
X38505442Y-86421458D01*
X38566729Y-86273499D01*
X38655699Y-86140345D01*
X38768945Y-86027099D01*
X38902099Y-85938129D01*
X39050058Y-85876842D01*
X39207125Y-85845600D01*
X39367275Y-85845600D01*
X39524342Y-85876842D01*
X39524342Y-85876842D01*
G37*
G36*
X44224342Y-85876842D02*
G01*
X44372301Y-85938129D01*
X44505455Y-86027099D01*
X44618701Y-86140345D01*
X44707671Y-86273499D01*
X44768958Y-86421458D01*
X44800200Y-86578525D01*
X44800200Y-86738675D01*
X44768958Y-86895742D01*
X44707671Y-87043701D01*
X44618701Y-87176855D01*
X44505455Y-87290101D01*
X44372301Y-87379071D01*
X44224342Y-87440358D01*
X44067275Y-87471600D01*
X43907125Y-87471600D01*
X43750058Y-87440358D01*
X43602099Y-87379071D01*
X43468945Y-87290101D01*
X43355699Y-87176855D01*
X43266729Y-87043701D01*
X43205442Y-86895742D01*
X43174200Y-86738675D01*
X43174200Y-86578525D01*
X43205442Y-86421458D01*
X43266729Y-86273499D01*
X43355699Y-86140345D01*
X43468945Y-86027099D01*
X43602099Y-85938129D01*
X43750058Y-85876842D01*
X43907125Y-85845600D01*
X44067275Y-85845600D01*
X44224342Y-85876842D01*
X44224342Y-85876842D01*
G37*
G36*
X46324342Y-85876842D02*
G01*
X46472301Y-85938129D01*
X46605455Y-86027099D01*
X46718701Y-86140345D01*
X46807671Y-86273499D01*
X46868958Y-86421458D01*
X46900200Y-86578525D01*
X46900200Y-86738675D01*
X46868958Y-86895742D01*
X46807671Y-87043701D01*
X46718701Y-87176855D01*
X46605455Y-87290101D01*
X46472301Y-87379071D01*
X46324342Y-87440358D01*
X46167275Y-87471600D01*
X46007125Y-87471600D01*
X45850058Y-87440358D01*
X45702099Y-87379071D01*
X45568945Y-87290101D01*
X45455699Y-87176855D01*
X45366729Y-87043701D01*
X45305442Y-86895742D01*
X45274200Y-86738675D01*
X45274200Y-86578525D01*
X45305442Y-86421458D01*
X45366729Y-86273499D01*
X45455699Y-86140345D01*
X45568945Y-86027099D01*
X45702099Y-85938129D01*
X45850058Y-85876842D01*
X46007125Y-85845600D01*
X46167275Y-85845600D01*
X46324342Y-85876842D01*
X46324342Y-85876842D01*
G37*
G36*
X63454400Y-85339000D02*
G01*
X61752400Y-85339000D01*
X61752400Y-83637000D01*
X63454400Y-83637000D01*
X63454400Y-85339000D01*
X63454400Y-85339000D01*
G37*
G36*
X68391628Y-83669703D02*
G01*
X68546500Y-83733853D01*
X68685881Y-83826985D01*
X68804415Y-83945519D01*
X68897547Y-84084900D01*
X68961697Y-84239772D01*
X68994400Y-84404184D01*
X68994400Y-84571816D01*
X68961697Y-84736228D01*
X68897547Y-84891100D01*
X68804415Y-85030481D01*
X68685881Y-85149015D01*
X68546500Y-85242147D01*
X68391628Y-85306297D01*
X68227216Y-85339000D01*
X68059584Y-85339000D01*
X67895172Y-85306297D01*
X67740300Y-85242147D01*
X67600919Y-85149015D01*
X67482385Y-85030481D01*
X67389253Y-84891100D01*
X67325103Y-84736228D01*
X67292400Y-84571816D01*
X67292400Y-84404184D01*
X67325103Y-84239772D01*
X67389253Y-84084900D01*
X67482385Y-83945519D01*
X67600919Y-83826985D01*
X67740300Y-83733853D01*
X67895172Y-83669703D01*
X68059584Y-83637000D01*
X68227216Y-83637000D01*
X68391628Y-83669703D01*
X68391628Y-83669703D01*
G37*
G36*
X71161628Y-83669703D02*
G01*
X71316500Y-83733853D01*
X71455881Y-83826985D01*
X71574415Y-83945519D01*
X71667547Y-84084900D01*
X71731697Y-84239772D01*
X71764400Y-84404184D01*
X71764400Y-84571816D01*
X71731697Y-84736228D01*
X71667547Y-84891100D01*
X71574415Y-85030481D01*
X71455881Y-85149015D01*
X71316500Y-85242147D01*
X71161628Y-85306297D01*
X70997216Y-85339000D01*
X70829584Y-85339000D01*
X70665172Y-85306297D01*
X70510300Y-85242147D01*
X70370919Y-85149015D01*
X70252385Y-85030481D01*
X70159253Y-84891100D01*
X70095103Y-84736228D01*
X70062400Y-84571816D01*
X70062400Y-84404184D01*
X70095103Y-84239772D01*
X70159253Y-84084900D01*
X70252385Y-83945519D01*
X70370919Y-83826985D01*
X70510300Y-83733853D01*
X70665172Y-83669703D01*
X70829584Y-83637000D01*
X70997216Y-83637000D01*
X71161628Y-83669703D01*
X71161628Y-83669703D01*
G37*
G36*
X65621628Y-83669703D02*
G01*
X65776500Y-83733853D01*
X65915881Y-83826985D01*
X66034415Y-83945519D01*
X66127547Y-84084900D01*
X66191697Y-84239772D01*
X66224400Y-84404184D01*
X66224400Y-84571816D01*
X66191697Y-84736228D01*
X66127547Y-84891100D01*
X66034415Y-85030481D01*
X65915881Y-85149015D01*
X65776500Y-85242147D01*
X65621628Y-85306297D01*
X65457216Y-85339000D01*
X65289584Y-85339000D01*
X65125172Y-85306297D01*
X64970300Y-85242147D01*
X64830919Y-85149015D01*
X64712385Y-85030481D01*
X64619253Y-84891100D01*
X64555103Y-84736228D01*
X64522400Y-84571816D01*
X64522400Y-84404184D01*
X64555103Y-84239772D01*
X64619253Y-84084900D01*
X64712385Y-83945519D01*
X64830919Y-83826985D01*
X64970300Y-83733853D01*
X65125172Y-83669703D01*
X65289584Y-83637000D01*
X65457216Y-83637000D01*
X65621628Y-83669703D01*
X65621628Y-83669703D01*
G37*
G36*
X73931628Y-83669703D02*
G01*
X74086500Y-83733853D01*
X74225881Y-83826985D01*
X74344415Y-83945519D01*
X74437547Y-84084900D01*
X74501697Y-84239772D01*
X74534400Y-84404184D01*
X74534400Y-84571816D01*
X74501697Y-84736228D01*
X74437547Y-84891100D01*
X74344415Y-85030481D01*
X74225881Y-85149015D01*
X74086500Y-85242147D01*
X73931628Y-85306297D01*
X73767216Y-85339000D01*
X73599584Y-85339000D01*
X73435172Y-85306297D01*
X73280300Y-85242147D01*
X73140919Y-85149015D01*
X73022385Y-85030481D01*
X72929253Y-84891100D01*
X72865103Y-84736228D01*
X72832400Y-84571816D01*
X72832400Y-84404184D01*
X72865103Y-84239772D01*
X72929253Y-84084900D01*
X73022385Y-83945519D01*
X73140919Y-83826985D01*
X73280300Y-83733853D01*
X73435172Y-83669703D01*
X73599584Y-83637000D01*
X73767216Y-83637000D01*
X73931628Y-83669703D01*
X73931628Y-83669703D01*
G37*
G36*
X46324342Y-83376842D02*
G01*
X46472301Y-83438129D01*
X46605455Y-83527099D01*
X46718701Y-83640345D01*
X46807671Y-83773499D01*
X46868958Y-83921458D01*
X46900200Y-84078525D01*
X46900200Y-84238675D01*
X46868958Y-84395742D01*
X46807671Y-84543701D01*
X46718701Y-84676855D01*
X46605455Y-84790101D01*
X46472301Y-84879071D01*
X46324342Y-84940358D01*
X46167275Y-84971600D01*
X46007125Y-84971600D01*
X45850058Y-84940358D01*
X45702099Y-84879071D01*
X45568945Y-84790101D01*
X45455699Y-84676855D01*
X45366729Y-84543701D01*
X45305442Y-84395742D01*
X45274200Y-84238675D01*
X45274200Y-84078525D01*
X45305442Y-83921458D01*
X45366729Y-83773499D01*
X45455699Y-83640345D01*
X45568945Y-83527099D01*
X45702099Y-83438129D01*
X45850058Y-83376842D01*
X46007125Y-83345600D01*
X46167275Y-83345600D01*
X46324342Y-83376842D01*
X46324342Y-83376842D01*
G37*
G36*
X39524342Y-83376842D02*
G01*
X39672301Y-83438129D01*
X39805455Y-83527099D01*
X39918701Y-83640345D01*
X40007671Y-83773499D01*
X40068958Y-83921458D01*
X40100200Y-84078525D01*
X40100200Y-84238675D01*
X40068958Y-84395742D01*
X40007671Y-84543701D01*
X39918701Y-84676855D01*
X39805455Y-84790101D01*
X39672301Y-84879071D01*
X39524342Y-84940358D01*
X39367275Y-84971600D01*
X39207125Y-84971600D01*
X39050058Y-84940358D01*
X38902099Y-84879071D01*
X38768945Y-84790101D01*
X38655699Y-84676855D01*
X38566729Y-84543701D01*
X38505442Y-84395742D01*
X38474200Y-84238675D01*
X38474200Y-84078525D01*
X38505442Y-83921458D01*
X38566729Y-83773499D01*
X38655699Y-83640345D01*
X38768945Y-83527099D01*
X38902099Y-83438129D01*
X39050058Y-83376842D01*
X39207125Y-83345600D01*
X39367275Y-83345600D01*
X39524342Y-83376842D01*
X39524342Y-83376842D01*
G37*
G36*
X90125100Y-83166100D02*
G01*
X89023100Y-83166100D01*
X89023100Y-80314100D01*
X90125100Y-80314100D01*
X90125100Y-83166100D01*
X90125100Y-83166100D01*
G37*
G36*
X86125100Y-83166100D02*
G01*
X85023100Y-83166100D01*
X85023100Y-80314100D01*
X86125100Y-80314100D01*
X86125100Y-83166100D01*
X86125100Y-83166100D01*
G37*
G36*
X83543138Y-81160116D02*
G01*
X83563757Y-81166371D01*
X83582753Y-81176524D01*
X83599408Y-81190192D01*
X83613076Y-81206847D01*
X83623229Y-81225843D01*
X83629484Y-81246462D01*
X83632200Y-81274040D01*
X83632200Y-81732760D01*
X83629484Y-81760338D01*
X83623229Y-81780957D01*
X83613076Y-81799953D01*
X83599408Y-81816608D01*
X83582753Y-81830276D01*
X83563757Y-81840429D01*
X83543138Y-81846684D01*
X83515560Y-81849400D01*
X83006840Y-81849400D01*
X82979262Y-81846684D01*
X82958643Y-81840429D01*
X82939647Y-81830276D01*
X82922992Y-81816608D01*
X82909324Y-81799953D01*
X82899171Y-81780957D01*
X82892916Y-81760338D01*
X82890200Y-81732760D01*
X82890200Y-81274040D01*
X82892916Y-81246462D01*
X82899171Y-81225843D01*
X82909324Y-81206847D01*
X82922992Y-81190192D01*
X82939647Y-81176524D01*
X82958643Y-81166371D01*
X82979262Y-81160116D01*
X83006840Y-81157400D01*
X83515560Y-81157400D01*
X83543138Y-81160116D01*
X83543138Y-81160116D01*
G37*
G36*
X83543138Y-80190116D02*
G01*
X83563757Y-80196371D01*
X83582753Y-80206524D01*
X83599408Y-80220192D01*
X83613076Y-80236847D01*
X83623229Y-80255843D01*
X83629484Y-80276462D01*
X83632200Y-80304040D01*
X83632200Y-80762760D01*
X83629484Y-80790338D01*
X83623229Y-80810957D01*
X83613076Y-80829953D01*
X83599408Y-80846608D01*
X83582753Y-80860276D01*
X83563757Y-80870429D01*
X83543138Y-80876684D01*
X83515560Y-80879400D01*
X83006840Y-80879400D01*
X82979262Y-80876684D01*
X82958643Y-80870429D01*
X82939647Y-80860276D01*
X82922992Y-80846608D01*
X82909324Y-80829953D01*
X82899171Y-80810957D01*
X82892916Y-80790338D01*
X82890200Y-80762760D01*
X82890200Y-80304040D01*
X82892916Y-80276462D01*
X82899171Y-80255843D01*
X82909324Y-80236847D01*
X82922992Y-80220192D01*
X82939647Y-80206524D01*
X82958643Y-80196371D01*
X82979262Y-80190116D01*
X83006840Y-80187400D01*
X83515560Y-80187400D01*
X83543138Y-80190116D01*
X83543138Y-80190116D01*
G37*
G36*
X36877600Y-80015700D02*
G01*
X36350600Y-80015700D01*
X36350600Y-79013700D01*
X36877600Y-79013700D01*
X36877600Y-80015700D01*
X36877600Y-80015700D01*
G37*
G36*
X35277600Y-80015700D02*
G01*
X34750600Y-80015700D01*
X34750600Y-79013700D01*
X35277600Y-79013700D01*
X35277600Y-80015700D01*
X35277600Y-80015700D01*
G37*
G36*
X34477600Y-80015700D02*
G01*
X33950600Y-80015700D01*
X33950600Y-79013700D01*
X34477600Y-79013700D01*
X34477600Y-80015700D01*
X34477600Y-80015700D01*
G37*
G36*
X36077600Y-80015700D02*
G01*
X35550600Y-80015700D01*
X35550600Y-79013700D01*
X36077600Y-79013700D01*
X36077600Y-80015700D01*
X36077600Y-80015700D01*
G37*
G36*
X41876938Y-79105316D02*
G01*
X41897557Y-79111571D01*
X41916553Y-79121724D01*
X41933208Y-79135392D01*
X41946876Y-79152047D01*
X41957029Y-79171043D01*
X41963284Y-79191662D01*
X41966000Y-79219240D01*
X41966000Y-79677960D01*
X41963284Y-79705538D01*
X41957029Y-79726157D01*
X41946876Y-79745153D01*
X41933208Y-79761808D01*
X41916553Y-79775476D01*
X41897557Y-79785629D01*
X41876938Y-79791884D01*
X41849360Y-79794600D01*
X41340640Y-79794600D01*
X41313062Y-79791884D01*
X41292443Y-79785629D01*
X41273447Y-79775476D01*
X41256792Y-79761808D01*
X41243124Y-79745153D01*
X41232971Y-79726157D01*
X41226716Y-79705538D01*
X41224000Y-79677960D01*
X41224000Y-79219240D01*
X41226716Y-79191662D01*
X41232971Y-79171043D01*
X41243124Y-79152047D01*
X41256792Y-79135392D01*
X41273447Y-79121724D01*
X41292443Y-79111571D01*
X41313062Y-79105316D01*
X41340640Y-79102600D01*
X41849360Y-79102600D01*
X41876938Y-79105316D01*
X41876938Y-79105316D01*
G37*
G36*
X55379638Y-79100216D02*
G01*
X55400257Y-79106471D01*
X55419253Y-79116624D01*
X55435908Y-79130292D01*
X55449576Y-79146947D01*
X55459729Y-79165943D01*
X55465984Y-79186562D01*
X55468700Y-79214140D01*
X55468700Y-79672860D01*
X55465984Y-79700438D01*
X55459729Y-79721057D01*
X55449576Y-79740053D01*
X55435908Y-79756708D01*
X55419253Y-79770376D01*
X55400257Y-79780529D01*
X55379638Y-79786784D01*
X55352060Y-79789500D01*
X54843340Y-79789500D01*
X54815762Y-79786784D01*
X54795143Y-79780529D01*
X54776147Y-79770376D01*
X54759492Y-79756708D01*
X54745824Y-79740053D01*
X54735671Y-79721057D01*
X54729416Y-79700438D01*
X54726700Y-79672860D01*
X54726700Y-79214140D01*
X54729416Y-79186562D01*
X54735671Y-79165943D01*
X54745824Y-79146947D01*
X54759492Y-79130292D01*
X54776147Y-79116624D01*
X54795143Y-79106471D01*
X54815762Y-79100216D01*
X54843340Y-79097500D01*
X55352060Y-79097500D01*
X55379638Y-79100216D01*
X55379638Y-79100216D01*
G37*
G36*
X57878938Y-79095116D02*
G01*
X57899557Y-79101371D01*
X57918553Y-79111524D01*
X57935208Y-79125192D01*
X57948876Y-79141847D01*
X57959029Y-79160843D01*
X57965284Y-79181462D01*
X57968000Y-79209040D01*
X57968000Y-79667760D01*
X57965284Y-79695338D01*
X57959029Y-79715957D01*
X57948876Y-79734953D01*
X57935208Y-79751608D01*
X57918553Y-79765276D01*
X57899557Y-79775429D01*
X57878938Y-79781684D01*
X57851360Y-79784400D01*
X57342640Y-79784400D01*
X57315062Y-79781684D01*
X57294443Y-79775429D01*
X57275447Y-79765276D01*
X57258792Y-79751608D01*
X57245124Y-79734953D01*
X57234971Y-79715957D01*
X57228716Y-79695338D01*
X57226000Y-79667760D01*
X57226000Y-79209040D01*
X57228716Y-79181462D01*
X57234971Y-79160843D01*
X57245124Y-79141847D01*
X57258792Y-79125192D01*
X57275447Y-79111524D01*
X57294443Y-79101371D01*
X57315062Y-79095116D01*
X57342640Y-79092400D01*
X57851360Y-79092400D01*
X57878938Y-79095116D01*
X57878938Y-79095116D01*
G37*
G36*
X53870838Y-79084916D02*
G01*
X53891457Y-79091171D01*
X53910453Y-79101324D01*
X53927108Y-79114992D01*
X53940776Y-79131647D01*
X53950929Y-79150643D01*
X53957184Y-79171262D01*
X53959900Y-79198840D01*
X53959900Y-79657560D01*
X53957184Y-79685138D01*
X53950929Y-79705757D01*
X53940776Y-79724753D01*
X53927108Y-79741408D01*
X53910453Y-79755076D01*
X53891457Y-79765229D01*
X53870838Y-79771484D01*
X53843260Y-79774200D01*
X53334540Y-79774200D01*
X53306962Y-79771484D01*
X53286343Y-79765229D01*
X53267347Y-79755076D01*
X53250692Y-79741408D01*
X53237024Y-79724753D01*
X53226871Y-79705757D01*
X53220616Y-79685138D01*
X53217900Y-79657560D01*
X53217900Y-79198840D01*
X53220616Y-79171262D01*
X53226871Y-79150643D01*
X53237024Y-79131647D01*
X53250692Y-79114992D01*
X53267347Y-79101324D01*
X53286343Y-79091171D01*
X53306962Y-79084916D01*
X53334540Y-79082200D01*
X53843260Y-79082200D01*
X53870838Y-79084916D01*
X53870838Y-79084916D01*
G37*
G36*
X48364138Y-79079916D02*
G01*
X48384757Y-79086171D01*
X48403753Y-79096324D01*
X48420408Y-79109992D01*
X48434076Y-79126647D01*
X48444229Y-79145643D01*
X48450484Y-79166262D01*
X48453200Y-79193840D01*
X48453200Y-79652560D01*
X48450484Y-79680138D01*
X48444229Y-79700757D01*
X48434076Y-79719753D01*
X48420408Y-79736408D01*
X48403753Y-79750076D01*
X48384757Y-79760229D01*
X48364138Y-79766484D01*
X48336560Y-79769200D01*
X47827840Y-79769200D01*
X47800262Y-79766484D01*
X47779643Y-79760229D01*
X47760647Y-79750076D01*
X47743992Y-79736408D01*
X47730324Y-79719753D01*
X47720171Y-79700757D01*
X47713916Y-79680138D01*
X47711200Y-79652560D01*
X47711200Y-79193840D01*
X47713916Y-79166262D01*
X47720171Y-79145643D01*
X47730324Y-79126647D01*
X47743992Y-79109992D01*
X47760647Y-79096324D01*
X47779643Y-79086171D01*
X47800262Y-79079916D01*
X47827840Y-79077200D01*
X48336560Y-79077200D01*
X48364138Y-79079916D01*
X48364138Y-79079916D01*
G37*
G36*
X49375038Y-79079916D02*
G01*
X49395657Y-79086171D01*
X49414653Y-79096324D01*
X49431308Y-79109992D01*
X49444976Y-79126647D01*
X49455129Y-79145643D01*
X49461384Y-79166262D01*
X49464100Y-79193840D01*
X49464100Y-79652560D01*
X49461384Y-79680138D01*
X49455129Y-79700757D01*
X49444976Y-79719753D01*
X49431308Y-79736408D01*
X49414653Y-79750076D01*
X49395657Y-79760229D01*
X49375038Y-79766484D01*
X49347460Y-79769200D01*
X48838740Y-79769200D01*
X48811162Y-79766484D01*
X48790543Y-79760229D01*
X48771547Y-79750076D01*
X48754892Y-79736408D01*
X48741224Y-79719753D01*
X48731071Y-79700757D01*
X48724816Y-79680138D01*
X48722100Y-79652560D01*
X48722100Y-79193840D01*
X48724816Y-79166262D01*
X48731071Y-79145643D01*
X48741224Y-79126647D01*
X48754892Y-79109992D01*
X48771547Y-79096324D01*
X48790543Y-79086171D01*
X48811162Y-79079916D01*
X48838740Y-79077200D01*
X49347460Y-79077200D01*
X49375038Y-79079916D01*
X49375038Y-79079916D01*
G37*
G36*
X41876938Y-78135316D02*
G01*
X41897557Y-78141571D01*
X41916553Y-78151724D01*
X41933208Y-78165392D01*
X41946876Y-78182047D01*
X41957029Y-78201043D01*
X41963284Y-78221662D01*
X41966000Y-78249240D01*
X41966000Y-78707960D01*
X41963284Y-78735538D01*
X41957029Y-78756157D01*
X41946876Y-78775153D01*
X41933208Y-78791808D01*
X41916553Y-78805476D01*
X41897557Y-78815629D01*
X41876938Y-78821884D01*
X41849360Y-78824600D01*
X41340640Y-78824600D01*
X41313062Y-78821884D01*
X41292443Y-78815629D01*
X41273447Y-78805476D01*
X41256792Y-78791808D01*
X41243124Y-78775153D01*
X41232971Y-78756157D01*
X41226716Y-78735538D01*
X41224000Y-78707960D01*
X41224000Y-78249240D01*
X41226716Y-78221662D01*
X41232971Y-78201043D01*
X41243124Y-78182047D01*
X41256792Y-78165392D01*
X41273447Y-78151724D01*
X41292443Y-78141571D01*
X41313062Y-78135316D01*
X41340640Y-78132600D01*
X41849360Y-78132600D01*
X41876938Y-78135316D01*
X41876938Y-78135316D01*
G37*
G36*
X55379638Y-78130216D02*
G01*
X55400257Y-78136471D01*
X55419253Y-78146624D01*
X55435908Y-78160292D01*
X55449576Y-78176947D01*
X55459729Y-78195943D01*
X55465984Y-78216562D01*
X55468700Y-78244140D01*
X55468700Y-78702860D01*
X55465984Y-78730438D01*
X55459729Y-78751057D01*
X55449576Y-78770053D01*
X55435908Y-78786708D01*
X55419253Y-78800376D01*
X55400257Y-78810529D01*
X55379638Y-78816784D01*
X55352060Y-78819500D01*
X54843340Y-78819500D01*
X54815762Y-78816784D01*
X54795143Y-78810529D01*
X54776147Y-78800376D01*
X54759492Y-78786708D01*
X54745824Y-78770053D01*
X54735671Y-78751057D01*
X54729416Y-78730438D01*
X54726700Y-78702860D01*
X54726700Y-78244140D01*
X54729416Y-78216562D01*
X54735671Y-78195943D01*
X54745824Y-78176947D01*
X54759492Y-78160292D01*
X54776147Y-78146624D01*
X54795143Y-78136471D01*
X54815762Y-78130216D01*
X54843340Y-78127500D01*
X55352060Y-78127500D01*
X55379638Y-78130216D01*
X55379638Y-78130216D01*
G37*
G36*
X57878938Y-78125116D02*
G01*
X57899557Y-78131371D01*
X57918553Y-78141524D01*
X57935208Y-78155192D01*
X57948876Y-78171847D01*
X57959029Y-78190843D01*
X57965284Y-78211462D01*
X57968000Y-78239040D01*
X57968000Y-78697760D01*
X57965284Y-78725338D01*
X57959029Y-78745957D01*
X57948876Y-78764953D01*
X57935208Y-78781608D01*
X57918553Y-78795276D01*
X57899557Y-78805429D01*
X57878938Y-78811684D01*
X57851360Y-78814400D01*
X57342640Y-78814400D01*
X57315062Y-78811684D01*
X57294443Y-78805429D01*
X57275447Y-78795276D01*
X57258792Y-78781608D01*
X57245124Y-78764953D01*
X57234971Y-78745957D01*
X57228716Y-78725338D01*
X57226000Y-78697760D01*
X57226000Y-78239040D01*
X57228716Y-78211462D01*
X57234971Y-78190843D01*
X57245124Y-78171847D01*
X57258792Y-78155192D01*
X57275447Y-78141524D01*
X57294443Y-78131371D01*
X57315062Y-78125116D01*
X57342640Y-78122400D01*
X57851360Y-78122400D01*
X57878938Y-78125116D01*
X57878938Y-78125116D01*
G37*
G36*
X53870838Y-78114916D02*
G01*
X53891457Y-78121171D01*
X53910453Y-78131324D01*
X53927108Y-78144992D01*
X53940776Y-78161647D01*
X53950929Y-78180643D01*
X53957184Y-78201262D01*
X53959900Y-78228840D01*
X53959900Y-78687560D01*
X53957184Y-78715138D01*
X53950929Y-78735757D01*
X53940776Y-78754753D01*
X53927108Y-78771408D01*
X53910453Y-78785076D01*
X53891457Y-78795229D01*
X53870838Y-78801484D01*
X53843260Y-78804200D01*
X53334540Y-78804200D01*
X53306962Y-78801484D01*
X53286343Y-78795229D01*
X53267347Y-78785076D01*
X53250692Y-78771408D01*
X53237024Y-78754753D01*
X53226871Y-78735757D01*
X53220616Y-78715138D01*
X53217900Y-78687560D01*
X53217900Y-78228840D01*
X53220616Y-78201262D01*
X53226871Y-78180643D01*
X53237024Y-78161647D01*
X53250692Y-78144992D01*
X53267347Y-78131324D01*
X53286343Y-78121171D01*
X53306962Y-78114916D01*
X53334540Y-78112200D01*
X53843260Y-78112200D01*
X53870838Y-78114916D01*
X53870838Y-78114916D01*
G37*
G36*
X49375038Y-78109916D02*
G01*
X49395657Y-78116171D01*
X49414653Y-78126324D01*
X49431308Y-78139992D01*
X49444976Y-78156647D01*
X49455129Y-78175643D01*
X49461384Y-78196262D01*
X49464100Y-78223840D01*
X49464100Y-78682560D01*
X49461384Y-78710138D01*
X49455129Y-78730757D01*
X49444976Y-78749753D01*
X49431308Y-78766408D01*
X49414653Y-78780076D01*
X49395657Y-78790229D01*
X49375038Y-78796484D01*
X49347460Y-78799200D01*
X48838740Y-78799200D01*
X48811162Y-78796484D01*
X48790543Y-78790229D01*
X48771547Y-78780076D01*
X48754892Y-78766408D01*
X48741224Y-78749753D01*
X48731071Y-78730757D01*
X48724816Y-78710138D01*
X48722100Y-78682560D01*
X48722100Y-78223840D01*
X48724816Y-78196262D01*
X48731071Y-78175643D01*
X48741224Y-78156647D01*
X48754892Y-78139992D01*
X48771547Y-78126324D01*
X48790543Y-78116171D01*
X48811162Y-78109916D01*
X48838740Y-78107200D01*
X49347460Y-78107200D01*
X49375038Y-78109916D01*
X49375038Y-78109916D01*
G37*
G36*
X48364138Y-78109916D02*
G01*
X48384757Y-78116171D01*
X48403753Y-78126324D01*
X48420408Y-78139992D01*
X48434076Y-78156647D01*
X48444229Y-78175643D01*
X48450484Y-78196262D01*
X48453200Y-78223840D01*
X48453200Y-78682560D01*
X48450484Y-78710138D01*
X48444229Y-78730757D01*
X48434076Y-78749753D01*
X48420408Y-78766408D01*
X48403753Y-78780076D01*
X48384757Y-78790229D01*
X48364138Y-78796484D01*
X48336560Y-78799200D01*
X47827840Y-78799200D01*
X47800262Y-78796484D01*
X47779643Y-78790229D01*
X47760647Y-78780076D01*
X47743992Y-78766408D01*
X47730324Y-78749753D01*
X47720171Y-78730757D01*
X47713916Y-78710138D01*
X47711200Y-78682560D01*
X47711200Y-78223840D01*
X47713916Y-78196262D01*
X47720171Y-78175643D01*
X47730324Y-78156647D01*
X47743992Y-78139992D01*
X47760647Y-78126324D01*
X47779643Y-78116171D01*
X47800262Y-78109916D01*
X47827840Y-78107200D01*
X48336560Y-78107200D01*
X48364138Y-78109916D01*
X48364138Y-78109916D01*
G37*
G36*
X77795600Y-77128801D02*
G01*
X77798002Y-77153187D01*
X77805115Y-77176636D01*
X77816666Y-77198247D01*
X77832211Y-77217189D01*
X77851153Y-77232734D01*
X77872764Y-77244285D01*
X77896213Y-77251398D01*
X77920599Y-77253800D01*
X78195600Y-77253800D01*
X78195600Y-78555800D01*
X76693600Y-78555800D01*
X76693600Y-77280799D01*
X76691198Y-77256413D01*
X76684085Y-77232964D01*
X76672534Y-77211353D01*
X76656989Y-77192411D01*
X76638047Y-77176866D01*
X76616436Y-77165315D01*
X76592987Y-77158202D01*
X76568601Y-77155800D01*
X76093600Y-77155800D01*
X76093600Y-76353800D01*
X77795600Y-76353800D01*
X77795600Y-77128801D01*
X77795600Y-77128801D01*
G37*
G36*
X88195600Y-78555800D02*
G01*
X85893600Y-78555800D01*
X85893600Y-77253800D01*
X88195600Y-77253800D01*
X88195600Y-78555800D01*
X88195600Y-78555800D01*
G37*
G36*
X36877600Y-78315700D02*
G01*
X36350600Y-78315700D01*
X36350600Y-77313700D01*
X36877600Y-77313700D01*
X36877600Y-78315700D01*
X36877600Y-78315700D01*
G37*
G36*
X34477600Y-78315700D02*
G01*
X33950600Y-78315700D01*
X33950600Y-77313700D01*
X34477600Y-77313700D01*
X34477600Y-78315700D01*
X34477600Y-78315700D01*
G37*
G36*
X36077600Y-78315700D02*
G01*
X35550600Y-78315700D01*
X35550600Y-77313700D01*
X36077600Y-77313700D01*
X36077600Y-78315700D01*
X36077600Y-78315700D01*
G37*
G36*
X35277600Y-78315700D02*
G01*
X34750600Y-78315700D01*
X34750600Y-77313700D01*
X35277600Y-77313700D01*
X35277600Y-78315700D01*
X35277600Y-78315700D01*
G37*
G36*
X57795200Y-77218900D02*
G01*
X39893200Y-77218900D01*
X39893200Y-75516900D01*
X57795200Y-75516900D01*
X57795200Y-77218900D01*
X57795200Y-77218900D01*
G37*
G36*
X77795600Y-76055800D02*
G01*
X76093600Y-76055800D01*
X76093600Y-75253800D01*
X77795600Y-75253800D01*
X77795600Y-76055800D01*
X77795600Y-76055800D01*
G37*
G36*
X77795600Y-74955800D02*
G01*
X76093600Y-74955800D01*
X76093600Y-74153800D01*
X77795600Y-74153800D01*
X77795600Y-74955800D01*
X77795600Y-74955800D01*
G37*
G36*
X75150938Y-74210616D02*
G01*
X75171557Y-74216871D01*
X75190553Y-74227024D01*
X75207208Y-74240692D01*
X75220876Y-74257347D01*
X75231029Y-74276343D01*
X75237284Y-74296962D01*
X75240000Y-74324540D01*
X75240000Y-74783260D01*
X75237284Y-74810838D01*
X75231029Y-74831457D01*
X75220876Y-74850453D01*
X75207208Y-74867108D01*
X75190553Y-74880776D01*
X75171557Y-74890929D01*
X75150938Y-74897184D01*
X75123360Y-74899900D01*
X74614640Y-74899900D01*
X74587062Y-74897184D01*
X74566443Y-74890929D01*
X74547447Y-74880776D01*
X74530792Y-74867108D01*
X74517124Y-74850453D01*
X74506971Y-74831457D01*
X74500716Y-74810838D01*
X74498000Y-74783260D01*
X74498000Y-74324540D01*
X74500716Y-74296962D01*
X74506971Y-74276343D01*
X74517124Y-74257347D01*
X74530792Y-74240692D01*
X74547447Y-74227024D01*
X74566443Y-74216871D01*
X74587062Y-74210616D01*
X74614640Y-74207900D01*
X75123360Y-74207900D01*
X75150938Y-74210616D01*
X75150938Y-74210616D01*
G37*
G36*
X38595200Y-74218900D02*
G01*
X36893200Y-74218900D01*
X36893200Y-56316900D01*
X38595200Y-56316900D01*
X38595200Y-74218900D01*
X38595200Y-74218900D01*
G37*
G36*
X60795200Y-74218900D02*
G01*
X59093200Y-74218900D01*
X59093200Y-56316900D01*
X60795200Y-56316900D01*
X60795200Y-74218900D01*
X60795200Y-74218900D01*
G37*
G36*
X75150938Y-73240616D02*
G01*
X75171557Y-73246871D01*
X75190553Y-73257024D01*
X75207208Y-73270692D01*
X75220876Y-73287347D01*
X75231029Y-73306343D01*
X75237284Y-73326962D01*
X75240000Y-73354540D01*
X75240000Y-73813260D01*
X75237284Y-73840838D01*
X75231029Y-73861457D01*
X75220876Y-73880453D01*
X75207208Y-73897108D01*
X75190553Y-73910776D01*
X75171557Y-73920929D01*
X75150938Y-73927184D01*
X75123360Y-73929900D01*
X74614640Y-73929900D01*
X74587062Y-73927184D01*
X74566443Y-73920929D01*
X74547447Y-73910776D01*
X74530792Y-73897108D01*
X74517124Y-73880453D01*
X74506971Y-73861457D01*
X74500716Y-73840838D01*
X74498000Y-73813260D01*
X74498000Y-73354540D01*
X74500716Y-73326962D01*
X74506971Y-73306343D01*
X74517124Y-73287347D01*
X74530792Y-73270692D01*
X74547447Y-73257024D01*
X74566443Y-73246871D01*
X74587062Y-73240616D01*
X74614640Y-73237900D01*
X75123360Y-73237900D01*
X75150938Y-73240616D01*
X75150938Y-73240616D01*
G37*
G36*
X77795600Y-73855800D02*
G01*
X76093600Y-73855800D01*
X76093600Y-73053800D01*
X77795600Y-73053800D01*
X77795600Y-73855800D01*
X77795600Y-73855800D01*
G37*
G36*
X77795600Y-72755800D02*
G01*
X76093600Y-72755800D01*
X76093600Y-71953800D01*
X77795600Y-71953800D01*
X77795600Y-72755800D01*
X77795600Y-72755800D01*
G37*
G36*
X62149238Y-71142916D02*
G01*
X62169857Y-71149171D01*
X62188853Y-71159324D01*
X62205508Y-71172992D01*
X62219176Y-71189647D01*
X62229329Y-71208643D01*
X62235584Y-71229262D01*
X62238300Y-71256840D01*
X62238300Y-71765560D01*
X62235584Y-71793138D01*
X62229329Y-71813757D01*
X62219176Y-71832753D01*
X62205508Y-71849408D01*
X62188853Y-71863076D01*
X62169857Y-71873229D01*
X62149238Y-71879484D01*
X62121660Y-71882200D01*
X61662940Y-71882200D01*
X61635362Y-71879484D01*
X61614743Y-71873229D01*
X61595747Y-71863076D01*
X61579092Y-71849408D01*
X61565424Y-71832753D01*
X61555271Y-71813757D01*
X61549016Y-71793138D01*
X61546300Y-71765560D01*
X61546300Y-71256840D01*
X61549016Y-71229262D01*
X61555271Y-71208643D01*
X61565424Y-71189647D01*
X61579092Y-71172992D01*
X61595747Y-71159324D01*
X61614743Y-71149171D01*
X61635362Y-71142916D01*
X61662940Y-71140200D01*
X62121660Y-71140200D01*
X62149238Y-71142916D01*
X62149238Y-71142916D01*
G37*
G36*
X63119238Y-71142916D02*
G01*
X63139857Y-71149171D01*
X63158853Y-71159324D01*
X63175508Y-71172992D01*
X63189176Y-71189647D01*
X63199329Y-71208643D01*
X63205584Y-71229262D01*
X63208300Y-71256840D01*
X63208300Y-71765560D01*
X63205584Y-71793138D01*
X63199329Y-71813757D01*
X63189176Y-71832753D01*
X63175508Y-71849408D01*
X63158853Y-71863076D01*
X63139857Y-71873229D01*
X63119238Y-71879484D01*
X63091660Y-71882200D01*
X62632940Y-71882200D01*
X62605362Y-71879484D01*
X62584743Y-71873229D01*
X62565747Y-71863076D01*
X62549092Y-71849408D01*
X62535424Y-71832753D01*
X62525271Y-71813757D01*
X62519016Y-71793138D01*
X62516300Y-71765560D01*
X62516300Y-71256840D01*
X62519016Y-71229262D01*
X62525271Y-71208643D01*
X62535424Y-71189647D01*
X62549092Y-71172992D01*
X62565747Y-71159324D01*
X62584743Y-71149171D01*
X62605362Y-71142916D01*
X62632940Y-71140200D01*
X63091660Y-71140200D01*
X63119238Y-71142916D01*
X63119238Y-71142916D01*
G37*
G36*
X77795600Y-71655800D02*
G01*
X76093600Y-71655800D01*
X76093600Y-70853800D01*
X77795600Y-70853800D01*
X77795600Y-71655800D01*
X77795600Y-71655800D01*
G37*
G36*
X77795600Y-70555800D02*
G01*
X76093600Y-70555800D01*
X76093600Y-69753800D01*
X77795600Y-69753800D01*
X77795600Y-70555800D01*
X77795600Y-70555800D01*
G37*
G36*
X35499338Y-69146516D02*
G01*
X35519957Y-69152771D01*
X35538953Y-69162924D01*
X35555608Y-69176592D01*
X35569276Y-69193247D01*
X35579429Y-69212243D01*
X35585684Y-69232862D01*
X35588400Y-69260440D01*
X35588400Y-69769160D01*
X35585684Y-69796738D01*
X35579429Y-69817357D01*
X35569276Y-69836353D01*
X35555608Y-69853008D01*
X35538953Y-69866676D01*
X35519957Y-69876829D01*
X35499338Y-69883084D01*
X35471760Y-69885800D01*
X35013040Y-69885800D01*
X34985462Y-69883084D01*
X34964843Y-69876829D01*
X34945847Y-69866676D01*
X34929192Y-69853008D01*
X34915524Y-69836353D01*
X34905371Y-69817357D01*
X34899116Y-69796738D01*
X34896400Y-69769160D01*
X34896400Y-69260440D01*
X34899116Y-69232862D01*
X34905371Y-69212243D01*
X34915524Y-69193247D01*
X34929192Y-69176592D01*
X34945847Y-69162924D01*
X34964843Y-69152771D01*
X34985462Y-69146516D01*
X35013040Y-69143800D01*
X35471760Y-69143800D01*
X35499338Y-69146516D01*
X35499338Y-69146516D01*
G37*
G36*
X34529338Y-69146516D02*
G01*
X34549957Y-69152771D01*
X34568953Y-69162924D01*
X34585608Y-69176592D01*
X34599276Y-69193247D01*
X34609429Y-69212243D01*
X34615684Y-69232862D01*
X34618400Y-69260440D01*
X34618400Y-69769160D01*
X34615684Y-69796738D01*
X34609429Y-69817357D01*
X34599276Y-69836353D01*
X34585608Y-69853008D01*
X34568953Y-69866676D01*
X34549957Y-69876829D01*
X34529338Y-69883084D01*
X34501760Y-69885800D01*
X34043040Y-69885800D01*
X34015462Y-69883084D01*
X33994843Y-69876829D01*
X33975847Y-69866676D01*
X33959192Y-69853008D01*
X33945524Y-69836353D01*
X33935371Y-69817357D01*
X33929116Y-69796738D01*
X33926400Y-69769160D01*
X33926400Y-69260440D01*
X33929116Y-69232862D01*
X33935371Y-69212243D01*
X33945524Y-69193247D01*
X33959192Y-69176592D01*
X33975847Y-69162924D01*
X33994843Y-69152771D01*
X34015462Y-69146516D01*
X34043040Y-69143800D01*
X34501760Y-69143800D01*
X34529338Y-69146516D01*
X34529338Y-69146516D01*
G37*
G36*
X77795600Y-69455800D02*
G01*
X76093600Y-69455800D01*
X76093600Y-68653800D01*
X77795600Y-68653800D01*
X77795600Y-69455800D01*
X77795600Y-69455800D01*
G37*
G36*
X63114138Y-68623216D02*
G01*
X63134757Y-68629471D01*
X63153753Y-68639624D01*
X63170408Y-68653292D01*
X63184076Y-68669947D01*
X63194229Y-68688943D01*
X63200484Y-68709562D01*
X63203200Y-68737140D01*
X63203200Y-69245860D01*
X63200484Y-69273438D01*
X63194229Y-69294057D01*
X63184076Y-69313053D01*
X63170408Y-69329708D01*
X63153753Y-69343376D01*
X63134757Y-69353529D01*
X63114138Y-69359784D01*
X63086560Y-69362500D01*
X62627840Y-69362500D01*
X62600262Y-69359784D01*
X62579643Y-69353529D01*
X62560647Y-69343376D01*
X62543992Y-69329708D01*
X62530324Y-69313053D01*
X62520171Y-69294057D01*
X62513916Y-69273438D01*
X62511200Y-69245860D01*
X62511200Y-68737140D01*
X62513916Y-68709562D01*
X62520171Y-68688943D01*
X62530324Y-68669947D01*
X62543992Y-68653292D01*
X62560647Y-68639624D01*
X62579643Y-68629471D01*
X62600262Y-68623216D01*
X62627840Y-68620500D01*
X63086560Y-68620500D01*
X63114138Y-68623216D01*
X63114138Y-68623216D01*
G37*
G36*
X62144138Y-68623216D02*
G01*
X62164757Y-68629471D01*
X62183753Y-68639624D01*
X62200408Y-68653292D01*
X62214076Y-68669947D01*
X62224229Y-68688943D01*
X62230484Y-68709562D01*
X62233200Y-68737140D01*
X62233200Y-69245860D01*
X62230484Y-69273438D01*
X62224229Y-69294057D01*
X62214076Y-69313053D01*
X62200408Y-69329708D01*
X62183753Y-69343376D01*
X62164757Y-69353529D01*
X62144138Y-69359784D01*
X62116560Y-69362500D01*
X61657840Y-69362500D01*
X61630262Y-69359784D01*
X61609643Y-69353529D01*
X61590647Y-69343376D01*
X61573992Y-69329708D01*
X61560324Y-69313053D01*
X61550171Y-69294057D01*
X61543916Y-69273438D01*
X61541200Y-69245860D01*
X61541200Y-68737140D01*
X61543916Y-68709562D01*
X61550171Y-68688943D01*
X61560324Y-68669947D01*
X61573992Y-68653292D01*
X61590647Y-68639624D01*
X61609643Y-68629471D01*
X61630262Y-68623216D01*
X61657840Y-68620500D01*
X62116560Y-68620500D01*
X62144138Y-68623216D01*
X62144138Y-68623216D01*
G37*
G36*
X77795600Y-68355800D02*
G01*
X76093600Y-68355800D01*
X76093600Y-67553800D01*
X77795600Y-67553800D01*
X77795600Y-68355800D01*
X77795600Y-68355800D01*
G37*
G36*
X64575500Y-67821500D02*
G01*
X63373500Y-67821500D01*
X63373500Y-66419500D01*
X64575500Y-66419500D01*
X64575500Y-67821500D01*
X64575500Y-67821500D01*
G37*
G36*
X62925500Y-67821500D02*
G01*
X61723500Y-67821500D01*
X61723500Y-66419500D01*
X62925500Y-66419500D01*
X62925500Y-67821500D01*
X62925500Y-67821500D01*
G37*
G36*
X34539438Y-65646316D02*
G01*
X34560057Y-65652571D01*
X34579053Y-65662724D01*
X34595708Y-65676392D01*
X34609376Y-65693047D01*
X34619529Y-65712043D01*
X34625784Y-65732662D01*
X34628500Y-65760240D01*
X34628500Y-66268960D01*
X34625784Y-66296538D01*
X34619529Y-66317157D01*
X34609376Y-66336153D01*
X34595708Y-66352808D01*
X34579053Y-66366476D01*
X34560057Y-66376629D01*
X34539438Y-66382884D01*
X34511860Y-66385600D01*
X34053140Y-66385600D01*
X34025562Y-66382884D01*
X34004943Y-66376629D01*
X33985947Y-66366476D01*
X33969292Y-66352808D01*
X33955624Y-66336153D01*
X33945471Y-66317157D01*
X33939216Y-66296538D01*
X33936500Y-66268960D01*
X33936500Y-65760240D01*
X33939216Y-65732662D01*
X33945471Y-65712043D01*
X33955624Y-65693047D01*
X33969292Y-65676392D01*
X33985947Y-65662724D01*
X34004943Y-65652571D01*
X34025562Y-65646316D01*
X34053140Y-65643600D01*
X34511860Y-65643600D01*
X34539438Y-65646316D01*
X34539438Y-65646316D01*
G37*
G36*
X35509438Y-65646316D02*
G01*
X35530057Y-65652571D01*
X35549053Y-65662724D01*
X35565708Y-65676392D01*
X35579376Y-65693047D01*
X35589529Y-65712043D01*
X35595784Y-65732662D01*
X35598500Y-65760240D01*
X35598500Y-66268960D01*
X35595784Y-66296538D01*
X35589529Y-66317157D01*
X35579376Y-66336153D01*
X35565708Y-66352808D01*
X35549053Y-66366476D01*
X35530057Y-66376629D01*
X35509438Y-66382884D01*
X35481860Y-66385600D01*
X35023140Y-66385600D01*
X34995562Y-66382884D01*
X34974943Y-66376629D01*
X34955947Y-66366476D01*
X34939292Y-66352808D01*
X34925624Y-66336153D01*
X34915471Y-66317157D01*
X34909216Y-66296538D01*
X34906500Y-66268960D01*
X34906500Y-65760240D01*
X34909216Y-65732662D01*
X34915471Y-65712043D01*
X34925624Y-65693047D01*
X34939292Y-65676392D01*
X34955947Y-65662724D01*
X34974943Y-65652571D01*
X34995562Y-65646316D01*
X35023140Y-65643600D01*
X35481860Y-65643600D01*
X35509438Y-65646316D01*
X35509438Y-65646316D01*
G37*
G36*
X62925500Y-65721500D02*
G01*
X61723500Y-65721500D01*
X61723500Y-64319500D01*
X62925500Y-64319500D01*
X62925500Y-65721500D01*
X62925500Y-65721500D01*
G37*
G36*
X64575500Y-65721500D02*
G01*
X63373500Y-65721500D01*
X63373500Y-64319500D01*
X64575500Y-64319500D01*
X64575500Y-65721500D01*
X64575500Y-65721500D01*
G37*
G36*
X78195600Y-64155800D02*
G01*
X76693600Y-64155800D01*
X76693600Y-62453800D01*
X78195600Y-62453800D01*
X78195600Y-64155800D01*
X78195600Y-64155800D01*
G37*
G36*
X62144138Y-62725316D02*
G01*
X62164757Y-62731571D01*
X62183753Y-62741724D01*
X62200408Y-62755392D01*
X62214076Y-62772047D01*
X62224229Y-62791043D01*
X62230484Y-62811662D01*
X62233200Y-62839240D01*
X62233200Y-63347960D01*
X62230484Y-63375538D01*
X62224229Y-63396157D01*
X62214076Y-63415153D01*
X62200408Y-63431808D01*
X62183753Y-63445476D01*
X62164757Y-63455629D01*
X62144138Y-63461884D01*
X62116560Y-63464600D01*
X61657840Y-63464600D01*
X61630262Y-63461884D01*
X61609643Y-63455629D01*
X61590647Y-63445476D01*
X61573992Y-63431808D01*
X61560324Y-63415153D01*
X61550171Y-63396157D01*
X61543916Y-63375538D01*
X61541200Y-63347960D01*
X61541200Y-62839240D01*
X61543916Y-62811662D01*
X61550171Y-62791043D01*
X61560324Y-62772047D01*
X61573992Y-62755392D01*
X61590647Y-62741724D01*
X61609643Y-62731571D01*
X61630262Y-62725316D01*
X61657840Y-62722600D01*
X62116560Y-62722600D01*
X62144138Y-62725316D01*
X62144138Y-62725316D01*
G37*
G36*
X63114138Y-62725316D02*
G01*
X63134757Y-62731571D01*
X63153753Y-62741724D01*
X63170408Y-62755392D01*
X63184076Y-62772047D01*
X63194229Y-62791043D01*
X63200484Y-62811662D01*
X63203200Y-62839240D01*
X63203200Y-63347960D01*
X63200484Y-63375538D01*
X63194229Y-63396157D01*
X63184076Y-63415153D01*
X63170408Y-63431808D01*
X63153753Y-63445476D01*
X63134757Y-63455629D01*
X63114138Y-63461884D01*
X63086560Y-63464600D01*
X62627840Y-63464600D01*
X62600262Y-63461884D01*
X62579643Y-63455629D01*
X62560647Y-63445476D01*
X62543992Y-63431808D01*
X62530324Y-63415153D01*
X62520171Y-63396157D01*
X62513916Y-63375538D01*
X62511200Y-63347960D01*
X62511200Y-62839240D01*
X62513916Y-62811662D01*
X62520171Y-62791043D01*
X62530324Y-62772047D01*
X62543992Y-62755392D01*
X62560647Y-62741724D01*
X62579643Y-62731571D01*
X62600262Y-62725316D01*
X62627840Y-62722600D01*
X63086560Y-62722600D01*
X63114138Y-62725316D01*
X63114138Y-62725316D01*
G37*
G36*
X34534338Y-62649116D02*
G01*
X34554957Y-62655371D01*
X34573953Y-62665524D01*
X34590608Y-62679192D01*
X34604276Y-62695847D01*
X34614429Y-62714843D01*
X34620684Y-62735462D01*
X34623400Y-62763040D01*
X34623400Y-63271760D01*
X34620684Y-63299338D01*
X34614429Y-63319957D01*
X34604276Y-63338953D01*
X34590608Y-63355608D01*
X34573953Y-63369276D01*
X34554957Y-63379429D01*
X34534338Y-63385684D01*
X34506760Y-63388400D01*
X34048040Y-63388400D01*
X34020462Y-63385684D01*
X33999843Y-63379429D01*
X33980847Y-63369276D01*
X33964192Y-63355608D01*
X33950524Y-63338953D01*
X33940371Y-63319957D01*
X33934116Y-63299338D01*
X33931400Y-63271760D01*
X33931400Y-62763040D01*
X33934116Y-62735462D01*
X33940371Y-62714843D01*
X33950524Y-62695847D01*
X33964192Y-62679192D01*
X33980847Y-62665524D01*
X33999843Y-62655371D01*
X34020462Y-62649116D01*
X34048040Y-62646400D01*
X34506760Y-62646400D01*
X34534338Y-62649116D01*
X34534338Y-62649116D01*
G37*
G36*
X35504338Y-62649116D02*
G01*
X35524957Y-62655371D01*
X35543953Y-62665524D01*
X35560608Y-62679192D01*
X35574276Y-62695847D01*
X35584429Y-62714843D01*
X35590684Y-62735462D01*
X35593400Y-62763040D01*
X35593400Y-63271760D01*
X35590684Y-63299338D01*
X35584429Y-63319957D01*
X35574276Y-63338953D01*
X35560608Y-63355608D01*
X35543953Y-63369276D01*
X35524957Y-63379429D01*
X35504338Y-63385684D01*
X35476760Y-63388400D01*
X35018040Y-63388400D01*
X34990462Y-63385684D01*
X34969843Y-63379429D01*
X34950847Y-63369276D01*
X34934192Y-63355608D01*
X34920524Y-63338953D01*
X34910371Y-63319957D01*
X34904116Y-63299338D01*
X34901400Y-63271760D01*
X34901400Y-62763040D01*
X34904116Y-62735462D01*
X34910371Y-62714843D01*
X34920524Y-62695847D01*
X34934192Y-62679192D01*
X34950847Y-62665524D01*
X34969843Y-62655371D01*
X34990462Y-62649116D01*
X35018040Y-62646400D01*
X35476760Y-62646400D01*
X35504338Y-62649116D01*
X35504338Y-62649116D01*
G37*
G36*
X88195600Y-63055800D02*
G01*
X85893600Y-63055800D01*
X85893600Y-61753800D01*
X88195600Y-61753800D01*
X88195600Y-63055800D01*
X88195600Y-63055800D01*
G37*
G36*
X62139138Y-60642516D02*
G01*
X62159757Y-60648771D01*
X62178753Y-60658924D01*
X62195408Y-60672592D01*
X62209076Y-60689247D01*
X62219229Y-60708243D01*
X62225484Y-60728862D01*
X62228200Y-60756440D01*
X62228200Y-61265160D01*
X62225484Y-61292738D01*
X62219229Y-61313357D01*
X62209076Y-61332353D01*
X62195408Y-61349008D01*
X62178753Y-61362676D01*
X62159757Y-61372829D01*
X62139138Y-61379084D01*
X62111560Y-61381800D01*
X61652840Y-61381800D01*
X61625262Y-61379084D01*
X61604643Y-61372829D01*
X61585647Y-61362676D01*
X61568992Y-61349008D01*
X61555324Y-61332353D01*
X61545171Y-61313357D01*
X61538916Y-61292738D01*
X61536200Y-61265160D01*
X61536200Y-60756440D01*
X61538916Y-60728862D01*
X61545171Y-60708243D01*
X61555324Y-60689247D01*
X61568992Y-60672592D01*
X61585647Y-60658924D01*
X61604643Y-60648771D01*
X61625262Y-60642516D01*
X61652840Y-60639800D01*
X62111560Y-60639800D01*
X62139138Y-60642516D01*
X62139138Y-60642516D01*
G37*
G36*
X63109138Y-60642516D02*
G01*
X63129757Y-60648771D01*
X63148753Y-60658924D01*
X63165408Y-60672592D01*
X63179076Y-60689247D01*
X63189229Y-60708243D01*
X63195484Y-60728862D01*
X63198200Y-60756440D01*
X63198200Y-61265160D01*
X63195484Y-61292738D01*
X63189229Y-61313357D01*
X63179076Y-61332353D01*
X63165408Y-61349008D01*
X63148753Y-61362676D01*
X63129757Y-61372829D01*
X63109138Y-61379084D01*
X63081560Y-61381800D01*
X62622840Y-61381800D01*
X62595262Y-61379084D01*
X62574643Y-61372829D01*
X62555647Y-61362676D01*
X62538992Y-61349008D01*
X62525324Y-61332353D01*
X62515171Y-61313357D01*
X62508916Y-61292738D01*
X62506200Y-61265160D01*
X62506200Y-60756440D01*
X62508916Y-60728862D01*
X62515171Y-60708243D01*
X62525324Y-60689247D01*
X62538992Y-60672592D01*
X62555647Y-60658924D01*
X62574643Y-60648771D01*
X62595262Y-60642516D01*
X62622840Y-60639800D01*
X63081560Y-60639800D01*
X63109138Y-60642516D01*
X63109138Y-60642516D01*
G37*
G36*
X89318500Y-60596100D02*
G01*
X87516500Y-60596100D01*
X87516500Y-58494100D01*
X89318500Y-58494100D01*
X89318500Y-60596100D01*
X89318500Y-60596100D01*
G37*
G36*
X83868500Y-60596100D02*
G01*
X82066500Y-60596100D01*
X82066500Y-58494100D01*
X83868500Y-58494100D01*
X83868500Y-60596100D01*
X83868500Y-60596100D01*
G37*
G36*
X66411500Y-58542700D02*
G01*
X65729500Y-58542700D01*
X65729500Y-56830700D01*
X66411500Y-56830700D01*
X66411500Y-58542700D01*
X66411500Y-58542700D01*
G37*
G36*
X67681500Y-58542700D02*
G01*
X66999500Y-58542700D01*
X66999500Y-56830700D01*
X67681500Y-56830700D01*
X67681500Y-58542700D01*
X67681500Y-58542700D01*
G37*
G36*
X65141500Y-58542700D02*
G01*
X64459500Y-58542700D01*
X64459500Y-56830700D01*
X65141500Y-56830700D01*
X65141500Y-58542700D01*
X65141500Y-58542700D01*
G37*
G36*
X68951500Y-58542700D02*
G01*
X68269500Y-58542700D01*
X68269500Y-56830700D01*
X68951500Y-56830700D01*
X68951500Y-58542700D01*
X68951500Y-58542700D01*
G37*
G36*
X85728221Y-56765274D02*
G01*
X85828495Y-56806809D01*
X85828496Y-56806810D01*
X85918742Y-56867110D01*
X85995490Y-56943858D01*
X85995491Y-56943860D01*
X86055791Y-57034105D01*
X86097326Y-57134379D01*
X86118500Y-57240830D01*
X86118500Y-57349370D01*
X86097326Y-57455821D01*
X86055791Y-57556095D01*
X86055790Y-57556096D01*
X85995490Y-57646342D01*
X85918742Y-57723090D01*
X85873312Y-57753445D01*
X85828495Y-57783391D01*
X85728221Y-57824926D01*
X85621770Y-57846100D01*
X85513230Y-57846100D01*
X85406779Y-57824926D01*
X85306505Y-57783391D01*
X85261688Y-57753445D01*
X85216258Y-57723090D01*
X85139510Y-57646342D01*
X85079210Y-57556096D01*
X85079209Y-57556095D01*
X85037674Y-57455821D01*
X85016500Y-57349370D01*
X85016500Y-57240830D01*
X85037674Y-57134379D01*
X85079209Y-57034105D01*
X85139509Y-56943860D01*
X85139510Y-56943858D01*
X85216258Y-56867110D01*
X85306504Y-56806810D01*
X85306505Y-56806809D01*
X85406779Y-56765274D01*
X85513230Y-56744100D01*
X85621770Y-56744100D01*
X85728221Y-56765274D01*
X85728221Y-56765274D01*
G37*
G36*
X83918500Y-56996100D02*
G01*
X81816500Y-56996100D01*
X81816500Y-53194100D01*
X83918500Y-53194100D01*
X83918500Y-56996100D01*
X83918500Y-56996100D01*
G37*
G36*
X57795200Y-55018900D02*
G01*
X39893200Y-55018900D01*
X39893200Y-53316900D01*
X57795200Y-53316900D01*
X57795200Y-55018900D01*
X57795200Y-55018900D01*
G37*
G36*
X33394010Y-53897925D02*
G01*
X33479026Y-53923714D01*
X33557375Y-53965593D01*
X33626049Y-54021951D01*
X33682407Y-54090625D01*
X33724286Y-54168974D01*
X33750075Y-54253990D01*
X33758782Y-54342400D01*
X33750075Y-54430810D01*
X33724286Y-54515826D01*
X33682407Y-54594175D01*
X33626049Y-54662849D01*
X33557375Y-54719207D01*
X33479026Y-54761086D01*
X33394010Y-54786875D01*
X33327758Y-54793400D01*
X32783442Y-54793400D01*
X32717190Y-54786875D01*
X32632174Y-54761086D01*
X32553825Y-54719207D01*
X32485151Y-54662849D01*
X32428793Y-54594175D01*
X32386914Y-54515826D01*
X32361125Y-54430810D01*
X32352418Y-54342400D01*
X32361125Y-54253990D01*
X32386914Y-54168974D01*
X32428793Y-54090625D01*
X32485151Y-54021951D01*
X32553825Y-53965593D01*
X32632174Y-53923714D01*
X32717190Y-53897925D01*
X32783442Y-53891400D01*
X33327758Y-53891400D01*
X33394010Y-53897925D01*
X33394010Y-53897925D01*
G37*
G36*
X33394010Y-52647925D02*
G01*
X33479026Y-52673714D01*
X33557375Y-52715593D01*
X33626049Y-52771951D01*
X33682407Y-52840625D01*
X33724286Y-52918974D01*
X33750075Y-53003990D01*
X33758782Y-53092400D01*
X33750075Y-53180810D01*
X33724286Y-53265826D01*
X33682407Y-53344175D01*
X33626049Y-53412849D01*
X33557375Y-53469207D01*
X33479026Y-53511086D01*
X33394010Y-53536875D01*
X33327758Y-53543400D01*
X32783442Y-53543400D01*
X32717190Y-53536875D01*
X32632174Y-53511086D01*
X32553825Y-53469207D01*
X32485151Y-53412849D01*
X32428793Y-53344175D01*
X32386914Y-53265826D01*
X32361125Y-53180810D01*
X32352418Y-53092400D01*
X32361125Y-53003990D01*
X32386914Y-52918974D01*
X32428793Y-52840625D01*
X32485151Y-52771951D01*
X32553825Y-52715593D01*
X32632174Y-52673714D01*
X32717190Y-52647925D01*
X32783442Y-52641400D01*
X33327758Y-52641400D01*
X33394010Y-52647925D01*
X33394010Y-52647925D01*
G37*
G36*
X85728221Y-52365274D02*
G01*
X85828495Y-52406809D01*
X85828496Y-52406810D01*
X85918742Y-52467110D01*
X85995490Y-52543858D01*
X85995491Y-52543860D01*
X86055791Y-52634105D01*
X86097326Y-52734379D01*
X86118500Y-52840830D01*
X86118500Y-52949370D01*
X86097326Y-53055821D01*
X86055791Y-53156095D01*
X86055790Y-53156096D01*
X85995490Y-53246342D01*
X85918742Y-53323090D01*
X85887187Y-53344174D01*
X85828495Y-53383391D01*
X85728221Y-53424926D01*
X85621770Y-53446100D01*
X85513230Y-53446100D01*
X85406779Y-53424926D01*
X85306505Y-53383391D01*
X85247813Y-53344174D01*
X85216258Y-53323090D01*
X85139510Y-53246342D01*
X85079210Y-53156096D01*
X85079209Y-53156095D01*
X85037674Y-53055821D01*
X85016500Y-52949370D01*
X85016500Y-52840830D01*
X85037674Y-52734379D01*
X85079209Y-52634105D01*
X85139509Y-52543860D01*
X85139510Y-52543858D01*
X85216258Y-52467110D01*
X85306504Y-52406810D01*
X85306505Y-52406809D01*
X85406779Y-52365274D01*
X85513230Y-52344100D01*
X85621770Y-52344100D01*
X85728221Y-52365274D01*
X85728221Y-52365274D01*
G37*
G36*
X63464438Y-52442816D02*
G01*
X63485057Y-52449071D01*
X63504053Y-52459224D01*
X63520708Y-52472892D01*
X63534376Y-52489547D01*
X63544529Y-52508543D01*
X63550784Y-52529162D01*
X63553500Y-52556740D01*
X63553500Y-53015460D01*
X63550784Y-53043038D01*
X63544529Y-53063657D01*
X63534376Y-53082653D01*
X63520708Y-53099308D01*
X63504053Y-53112976D01*
X63485057Y-53123129D01*
X63464438Y-53129384D01*
X63436860Y-53132100D01*
X62928140Y-53132100D01*
X62900562Y-53129384D01*
X62879943Y-53123129D01*
X62860947Y-53112976D01*
X62844292Y-53099308D01*
X62830624Y-53082653D01*
X62820471Y-53063657D01*
X62814216Y-53043038D01*
X62811500Y-53015460D01*
X62811500Y-52556740D01*
X62814216Y-52529162D01*
X62820471Y-52508543D01*
X62830624Y-52489547D01*
X62844292Y-52472892D01*
X62860947Y-52459224D01*
X62879943Y-52449071D01*
X62900562Y-52442816D01*
X62928140Y-52440100D01*
X63436860Y-52440100D01*
X63464438Y-52442816D01*
X63464438Y-52442816D01*
G37*
G36*
X33394010Y-51397925D02*
G01*
X33479026Y-51423714D01*
X33557375Y-51465593D01*
X33626049Y-51521951D01*
X33682407Y-51590625D01*
X33724286Y-51668974D01*
X33750075Y-51753990D01*
X33758782Y-51842400D01*
X33750075Y-51930810D01*
X33724286Y-52015826D01*
X33682407Y-52094175D01*
X33626049Y-52162849D01*
X33557375Y-52219207D01*
X33479026Y-52261086D01*
X33394010Y-52286875D01*
X33327758Y-52293400D01*
X32783442Y-52293400D01*
X32717190Y-52286875D01*
X32632174Y-52261086D01*
X32553825Y-52219207D01*
X32485151Y-52162849D01*
X32428793Y-52094175D01*
X32386914Y-52015826D01*
X32361125Y-51930810D01*
X32352418Y-51842400D01*
X32361125Y-51753990D01*
X32386914Y-51668974D01*
X32428793Y-51590625D01*
X32485151Y-51521951D01*
X32553825Y-51465593D01*
X32632174Y-51423714D01*
X32717190Y-51397925D01*
X32783442Y-51391400D01*
X33327758Y-51391400D01*
X33394010Y-51397925D01*
X33394010Y-51397925D01*
G37*
G36*
X63464438Y-51472816D02*
G01*
X63485057Y-51479071D01*
X63504053Y-51489224D01*
X63520708Y-51502892D01*
X63534376Y-51519547D01*
X63544529Y-51538543D01*
X63550784Y-51559162D01*
X63553500Y-51586740D01*
X63553500Y-52045460D01*
X63550784Y-52073038D01*
X63544529Y-52093657D01*
X63534376Y-52112653D01*
X63520708Y-52129308D01*
X63504053Y-52142976D01*
X63485057Y-52153129D01*
X63464438Y-52159384D01*
X63436860Y-52162100D01*
X62928140Y-52162100D01*
X62900562Y-52159384D01*
X62879943Y-52153129D01*
X62860947Y-52142976D01*
X62844292Y-52129308D01*
X62830624Y-52112653D01*
X62820471Y-52093657D01*
X62814216Y-52073038D01*
X62811500Y-52045460D01*
X62811500Y-51586740D01*
X62814216Y-51559162D01*
X62820471Y-51538543D01*
X62830624Y-51519547D01*
X62844292Y-51502892D01*
X62860947Y-51489224D01*
X62879943Y-51479071D01*
X62900562Y-51472816D01*
X62928140Y-51470100D01*
X63436860Y-51470100D01*
X63464438Y-51472816D01*
X63464438Y-51472816D01*
G37*
G36*
X42892938Y-51134816D02*
G01*
X42913557Y-51141071D01*
X42932553Y-51151224D01*
X42949208Y-51164892D01*
X42962876Y-51181547D01*
X42973029Y-51200543D01*
X42979284Y-51221162D01*
X42982000Y-51248740D01*
X42982000Y-51707460D01*
X42979284Y-51735038D01*
X42973029Y-51755657D01*
X42962876Y-51774653D01*
X42949208Y-51791308D01*
X42932553Y-51804976D01*
X42913557Y-51815129D01*
X42892938Y-51821384D01*
X42865360Y-51824100D01*
X42356640Y-51824100D01*
X42329062Y-51821384D01*
X42308443Y-51815129D01*
X42289447Y-51804976D01*
X42272792Y-51791308D01*
X42259124Y-51774653D01*
X42248971Y-51755657D01*
X42242716Y-51735038D01*
X42240000Y-51707460D01*
X42240000Y-51248740D01*
X42242716Y-51221162D01*
X42248971Y-51200543D01*
X42259124Y-51181547D01*
X42272792Y-51164892D01*
X42289447Y-51151224D01*
X42308443Y-51141071D01*
X42329062Y-51134816D01*
X42356640Y-51132100D01*
X42865360Y-51132100D01*
X42892938Y-51134816D01*
X42892938Y-51134816D01*
G37*
G36*
X48770538Y-51129716D02*
G01*
X48791157Y-51135971D01*
X48810153Y-51146124D01*
X48826808Y-51159792D01*
X48840476Y-51176447D01*
X48850629Y-51195443D01*
X48856884Y-51216062D01*
X48859600Y-51243640D01*
X48859600Y-51702360D01*
X48856884Y-51729938D01*
X48850629Y-51750557D01*
X48840476Y-51769553D01*
X48826808Y-51786208D01*
X48810153Y-51799876D01*
X48791157Y-51810029D01*
X48770538Y-51816284D01*
X48742960Y-51819000D01*
X48234240Y-51819000D01*
X48206662Y-51816284D01*
X48186043Y-51810029D01*
X48167047Y-51799876D01*
X48150392Y-51786208D01*
X48136724Y-51769553D01*
X48126571Y-51750557D01*
X48120316Y-51729938D01*
X48117600Y-51702360D01*
X48117600Y-51243640D01*
X48120316Y-51216062D01*
X48126571Y-51195443D01*
X48136724Y-51176447D01*
X48150392Y-51159792D01*
X48167047Y-51146124D01*
X48186043Y-51135971D01*
X48206662Y-51129716D01*
X48234240Y-51127000D01*
X48742960Y-51127000D01*
X48770538Y-51129716D01*
X48770538Y-51129716D01*
G37*
G36*
X56370238Y-51124616D02*
G01*
X56390857Y-51130871D01*
X56409853Y-51141024D01*
X56426508Y-51154692D01*
X56440176Y-51171347D01*
X56450329Y-51190343D01*
X56456584Y-51210962D01*
X56459300Y-51238540D01*
X56459300Y-51697260D01*
X56456584Y-51724838D01*
X56450329Y-51745457D01*
X56440176Y-51764453D01*
X56426508Y-51781108D01*
X56409853Y-51794776D01*
X56390857Y-51804929D01*
X56370238Y-51811184D01*
X56342660Y-51813900D01*
X55833940Y-51813900D01*
X55806362Y-51811184D01*
X55785743Y-51804929D01*
X55766747Y-51794776D01*
X55750092Y-51781108D01*
X55736424Y-51764453D01*
X55726271Y-51745457D01*
X55720016Y-51724838D01*
X55717300Y-51697260D01*
X55717300Y-51238540D01*
X55720016Y-51210962D01*
X55726271Y-51190343D01*
X55736424Y-51171347D01*
X55750092Y-51154692D01*
X55766747Y-51141024D01*
X55785743Y-51130871D01*
X55806362Y-51124616D01*
X55833940Y-51121900D01*
X56342660Y-51121900D01*
X56370238Y-51124616D01*
X56370238Y-51124616D01*
G37*
G36*
X49877938Y-51124616D02*
G01*
X49898557Y-51130871D01*
X49917553Y-51141024D01*
X49934208Y-51154692D01*
X49947876Y-51171347D01*
X49958029Y-51190343D01*
X49964284Y-51210962D01*
X49967000Y-51238540D01*
X49967000Y-51697260D01*
X49964284Y-51724838D01*
X49958029Y-51745457D01*
X49947876Y-51764453D01*
X49934208Y-51781108D01*
X49917553Y-51794776D01*
X49898557Y-51804929D01*
X49877938Y-51811184D01*
X49850360Y-51813900D01*
X49341640Y-51813900D01*
X49314062Y-51811184D01*
X49293443Y-51804929D01*
X49274447Y-51794776D01*
X49257792Y-51781108D01*
X49244124Y-51764453D01*
X49233971Y-51745457D01*
X49227716Y-51724838D01*
X49225000Y-51697260D01*
X49225000Y-51238540D01*
X49227716Y-51210962D01*
X49233971Y-51190343D01*
X49244124Y-51171347D01*
X49257792Y-51154692D01*
X49274447Y-51141024D01*
X49293443Y-51130871D01*
X49314062Y-51124616D01*
X49341640Y-51121900D01*
X49850360Y-51121900D01*
X49877938Y-51124616D01*
X49877938Y-51124616D01*
G37*
G36*
X51371538Y-51119516D02*
G01*
X51392157Y-51125771D01*
X51411153Y-51135924D01*
X51427808Y-51149592D01*
X51441476Y-51166247D01*
X51451629Y-51185243D01*
X51457884Y-51205862D01*
X51460600Y-51233440D01*
X51460600Y-51692160D01*
X51457884Y-51719738D01*
X51451629Y-51740357D01*
X51441476Y-51759353D01*
X51427808Y-51776008D01*
X51411153Y-51789676D01*
X51392157Y-51799829D01*
X51371538Y-51806084D01*
X51343960Y-51808800D01*
X50835240Y-51808800D01*
X50807662Y-51806084D01*
X50787043Y-51799829D01*
X50768047Y-51789676D01*
X50751392Y-51776008D01*
X50737724Y-51759353D01*
X50727571Y-51740357D01*
X50721316Y-51719738D01*
X50718600Y-51692160D01*
X50718600Y-51233440D01*
X50721316Y-51205862D01*
X50727571Y-51185243D01*
X50737724Y-51166247D01*
X50751392Y-51149592D01*
X50768047Y-51135924D01*
X50787043Y-51125771D01*
X50807662Y-51119516D01*
X50835240Y-51116800D01*
X51343960Y-51116800D01*
X51371538Y-51119516D01*
X51371538Y-51119516D01*
G37*
G36*
X83868500Y-51696100D02*
G01*
X82066500Y-51696100D01*
X82066500Y-49594100D01*
X83868500Y-49594100D01*
X83868500Y-51696100D01*
X83868500Y-51696100D01*
G37*
G36*
X89318500Y-51696100D02*
G01*
X87516500Y-51696100D01*
X87516500Y-49594100D01*
X89318500Y-49594100D01*
X89318500Y-51696100D01*
X89318500Y-51696100D01*
G37*
G36*
X65141500Y-51332700D02*
G01*
X64459500Y-51332700D01*
X64459500Y-49620700D01*
X65141500Y-49620700D01*
X65141500Y-51332700D01*
X65141500Y-51332700D01*
G37*
G36*
X66411500Y-51332700D02*
G01*
X65729500Y-51332700D01*
X65729500Y-49620700D01*
X66411500Y-49620700D01*
X66411500Y-51332700D01*
X66411500Y-51332700D01*
G37*
G36*
X67681500Y-51332700D02*
G01*
X66999500Y-51332700D01*
X66999500Y-49620700D01*
X67681500Y-49620700D01*
X67681500Y-51332700D01*
X67681500Y-51332700D01*
G37*
G36*
X68951500Y-51332700D02*
G01*
X68269500Y-51332700D01*
X68269500Y-49620700D01*
X68951500Y-49620700D01*
X68951500Y-51332700D01*
X68951500Y-51332700D01*
G37*
G36*
X33394010Y-50147925D02*
G01*
X33479026Y-50173714D01*
X33557375Y-50215593D01*
X33626049Y-50271951D01*
X33682407Y-50340625D01*
X33724286Y-50418974D01*
X33750075Y-50503990D01*
X33758782Y-50592400D01*
X33750075Y-50680810D01*
X33724286Y-50765826D01*
X33682407Y-50844175D01*
X33626049Y-50912849D01*
X33557375Y-50969207D01*
X33479026Y-51011086D01*
X33394010Y-51036875D01*
X33327758Y-51043400D01*
X32783442Y-51043400D01*
X32717190Y-51036875D01*
X32632174Y-51011086D01*
X32553825Y-50969207D01*
X32485151Y-50912849D01*
X32428793Y-50844175D01*
X32386914Y-50765826D01*
X32361125Y-50680810D01*
X32352418Y-50592400D01*
X32361125Y-50503990D01*
X32386914Y-50418974D01*
X32428793Y-50340625D01*
X32485151Y-50271951D01*
X32553825Y-50215593D01*
X32632174Y-50173714D01*
X32717190Y-50147925D01*
X32783442Y-50141400D01*
X33327758Y-50141400D01*
X33394010Y-50147925D01*
X33394010Y-50147925D01*
G37*
G36*
X42892938Y-50164816D02*
G01*
X42913557Y-50171071D01*
X42932553Y-50181224D01*
X42949208Y-50194892D01*
X42962876Y-50211547D01*
X42973029Y-50230543D01*
X42979284Y-50251162D01*
X42982000Y-50278740D01*
X42982000Y-50737460D01*
X42979284Y-50765038D01*
X42973029Y-50785657D01*
X42962876Y-50804653D01*
X42949208Y-50821308D01*
X42932553Y-50834976D01*
X42913557Y-50845129D01*
X42892938Y-50851384D01*
X42865360Y-50854100D01*
X42356640Y-50854100D01*
X42329062Y-50851384D01*
X42308443Y-50845129D01*
X42289447Y-50834976D01*
X42272792Y-50821308D01*
X42259124Y-50804653D01*
X42248971Y-50785657D01*
X42242716Y-50765038D01*
X42240000Y-50737460D01*
X42240000Y-50278740D01*
X42242716Y-50251162D01*
X42248971Y-50230543D01*
X42259124Y-50211547D01*
X42272792Y-50194892D01*
X42289447Y-50181224D01*
X42308443Y-50171071D01*
X42329062Y-50164816D01*
X42356640Y-50162100D01*
X42865360Y-50162100D01*
X42892938Y-50164816D01*
X42892938Y-50164816D01*
G37*
G36*
X48770538Y-50159716D02*
G01*
X48791157Y-50165971D01*
X48810153Y-50176124D01*
X48826808Y-50189792D01*
X48840476Y-50206447D01*
X48850629Y-50225443D01*
X48856884Y-50246062D01*
X48859600Y-50273640D01*
X48859600Y-50732360D01*
X48856884Y-50759938D01*
X48850629Y-50780557D01*
X48840476Y-50799553D01*
X48826808Y-50816208D01*
X48810153Y-50829876D01*
X48791157Y-50840029D01*
X48770538Y-50846284D01*
X48742960Y-50849000D01*
X48234240Y-50849000D01*
X48206662Y-50846284D01*
X48186043Y-50840029D01*
X48167047Y-50829876D01*
X48150392Y-50816208D01*
X48136724Y-50799553D01*
X48126571Y-50780557D01*
X48120316Y-50759938D01*
X48117600Y-50732360D01*
X48117600Y-50273640D01*
X48120316Y-50246062D01*
X48126571Y-50225443D01*
X48136724Y-50206447D01*
X48150392Y-50189792D01*
X48167047Y-50176124D01*
X48186043Y-50165971D01*
X48206662Y-50159716D01*
X48234240Y-50157000D01*
X48742960Y-50157000D01*
X48770538Y-50159716D01*
X48770538Y-50159716D01*
G37*
G36*
X56370238Y-50154616D02*
G01*
X56390857Y-50160871D01*
X56409853Y-50171024D01*
X56426508Y-50184692D01*
X56440176Y-50201347D01*
X56450329Y-50220343D01*
X56456584Y-50240962D01*
X56459300Y-50268540D01*
X56459300Y-50727260D01*
X56456584Y-50754838D01*
X56450329Y-50775457D01*
X56440176Y-50794453D01*
X56426508Y-50811108D01*
X56409853Y-50824776D01*
X56390857Y-50834929D01*
X56370238Y-50841184D01*
X56342660Y-50843900D01*
X55833940Y-50843900D01*
X55806362Y-50841184D01*
X55785743Y-50834929D01*
X55766747Y-50824776D01*
X55750092Y-50811108D01*
X55736424Y-50794453D01*
X55726271Y-50775457D01*
X55720016Y-50754838D01*
X55717300Y-50727260D01*
X55717300Y-50268540D01*
X55720016Y-50240962D01*
X55726271Y-50220343D01*
X55736424Y-50201347D01*
X55750092Y-50184692D01*
X55766747Y-50171024D01*
X55785743Y-50160871D01*
X55806362Y-50154616D01*
X55833940Y-50151900D01*
X56342660Y-50151900D01*
X56370238Y-50154616D01*
X56370238Y-50154616D01*
G37*
G36*
X49877938Y-50154616D02*
G01*
X49898557Y-50160871D01*
X49917553Y-50171024D01*
X49934208Y-50184692D01*
X49947876Y-50201347D01*
X49958029Y-50220343D01*
X49964284Y-50240962D01*
X49967000Y-50268540D01*
X49967000Y-50727260D01*
X49964284Y-50754838D01*
X49958029Y-50775457D01*
X49947876Y-50794453D01*
X49934208Y-50811108D01*
X49917553Y-50824776D01*
X49898557Y-50834929D01*
X49877938Y-50841184D01*
X49850360Y-50843900D01*
X49341640Y-50843900D01*
X49314062Y-50841184D01*
X49293443Y-50834929D01*
X49274447Y-50824776D01*
X49257792Y-50811108D01*
X49244124Y-50794453D01*
X49233971Y-50775457D01*
X49227716Y-50754838D01*
X49225000Y-50727260D01*
X49225000Y-50268540D01*
X49227716Y-50240962D01*
X49233971Y-50220343D01*
X49244124Y-50201347D01*
X49257792Y-50184692D01*
X49274447Y-50171024D01*
X49293443Y-50160871D01*
X49314062Y-50154616D01*
X49341640Y-50151900D01*
X49850360Y-50151900D01*
X49877938Y-50154616D01*
X49877938Y-50154616D01*
G37*
G36*
X51371538Y-50149516D02*
G01*
X51392157Y-50155771D01*
X51411153Y-50165924D01*
X51427808Y-50179592D01*
X51441476Y-50196247D01*
X51451629Y-50215243D01*
X51457884Y-50235862D01*
X51460600Y-50263440D01*
X51460600Y-50722160D01*
X51457884Y-50749738D01*
X51451629Y-50770357D01*
X51441476Y-50789353D01*
X51427808Y-50806008D01*
X51411153Y-50819676D01*
X51392157Y-50829829D01*
X51371538Y-50836084D01*
X51343960Y-50838800D01*
X50835240Y-50838800D01*
X50807662Y-50836084D01*
X50787043Y-50829829D01*
X50768047Y-50819676D01*
X50751392Y-50806008D01*
X50737724Y-50789353D01*
X50727571Y-50770357D01*
X50721316Y-50749738D01*
X50718600Y-50722160D01*
X50718600Y-50263440D01*
X50721316Y-50235862D01*
X50727571Y-50215243D01*
X50737724Y-50196247D01*
X50751392Y-50179592D01*
X50768047Y-50165924D01*
X50787043Y-50155771D01*
X50807662Y-50149516D01*
X50835240Y-50146800D01*
X51343960Y-50146800D01*
X51371538Y-50149516D01*
X51371538Y-50149516D01*
G37*
G36*
X33394010Y-48897925D02*
G01*
X33479026Y-48923714D01*
X33557375Y-48965593D01*
X33626049Y-49021951D01*
X33682407Y-49090625D01*
X33724286Y-49168974D01*
X33750075Y-49253990D01*
X33758782Y-49342400D01*
X33750075Y-49430810D01*
X33724286Y-49515826D01*
X33682407Y-49594175D01*
X33626049Y-49662849D01*
X33557375Y-49719207D01*
X33479026Y-49761086D01*
X33394010Y-49786875D01*
X33327758Y-49793400D01*
X32783442Y-49793400D01*
X32717190Y-49786875D01*
X32632174Y-49761086D01*
X32553825Y-49719207D01*
X32485151Y-49662849D01*
X32428793Y-49594175D01*
X32386914Y-49515826D01*
X32361125Y-49430810D01*
X32352418Y-49342400D01*
X32361125Y-49253990D01*
X32386914Y-49168974D01*
X32428793Y-49090625D01*
X32485151Y-49021951D01*
X32553825Y-48965593D01*
X32632174Y-48923714D01*
X32717190Y-48897925D01*
X32783442Y-48891400D01*
X33327758Y-48891400D01*
X33394010Y-48897925D01*
X33394010Y-48897925D01*
G37*
G36*
X33625283Y-47645125D02*
G01*
X33655743Y-47654366D01*
X33683823Y-47669374D01*
X33708431Y-47689569D01*
X33728626Y-47714177D01*
X33743634Y-47742257D01*
X33752875Y-47772717D01*
X33756600Y-47810540D01*
X33756600Y-48374260D01*
X33752875Y-48412083D01*
X33743634Y-48442543D01*
X33728626Y-48470623D01*
X33708431Y-48495231D01*
X33683823Y-48515426D01*
X33655743Y-48530434D01*
X33625283Y-48539675D01*
X33587460Y-48543400D01*
X32523740Y-48543400D01*
X32485917Y-48539675D01*
X32455457Y-48530434D01*
X32427377Y-48515426D01*
X32402769Y-48495231D01*
X32382574Y-48470623D01*
X32367566Y-48442543D01*
X32358325Y-48412083D01*
X32354600Y-48374260D01*
X32354600Y-47810540D01*
X32358325Y-47772717D01*
X32367566Y-47742257D01*
X32382574Y-47714177D01*
X32402769Y-47689569D01*
X32427377Y-47669374D01*
X32455457Y-47654366D01*
X32485917Y-47645125D01*
X32523740Y-47641400D01*
X33587460Y-47641400D01*
X33625283Y-47645125D01*
X33625283Y-47645125D01*
G37*
G36*
X51703238Y-47106616D02*
G01*
X51723857Y-47112871D01*
X51742853Y-47123024D01*
X51759508Y-47136692D01*
X51773176Y-47153347D01*
X51783329Y-47172343D01*
X51789584Y-47192962D01*
X51792300Y-47220540D01*
X51792300Y-47679260D01*
X51789584Y-47706838D01*
X51783329Y-47727457D01*
X51773176Y-47746453D01*
X51759508Y-47763108D01*
X51742853Y-47776776D01*
X51723857Y-47786929D01*
X51703238Y-47793184D01*
X51675660Y-47795900D01*
X51166940Y-47795900D01*
X51139362Y-47793184D01*
X51118743Y-47786929D01*
X51099747Y-47776776D01*
X51083092Y-47763108D01*
X51069424Y-47746453D01*
X51059271Y-47727457D01*
X51053016Y-47706838D01*
X51050300Y-47679260D01*
X51050300Y-47220540D01*
X51053016Y-47192962D01*
X51059271Y-47172343D01*
X51069424Y-47153347D01*
X51083092Y-47136692D01*
X51099747Y-47123024D01*
X51118743Y-47112871D01*
X51139362Y-47106616D01*
X51166940Y-47103900D01*
X51675660Y-47103900D01*
X51703238Y-47106616D01*
X51703238Y-47106616D01*
G37*
G36*
X52780238Y-47106616D02*
G01*
X52800857Y-47112871D01*
X52819853Y-47123024D01*
X52836508Y-47136692D01*
X52850176Y-47153347D01*
X52860329Y-47172343D01*
X52866584Y-47192962D01*
X52869300Y-47220540D01*
X52869300Y-47679260D01*
X52866584Y-47706838D01*
X52860329Y-47727457D01*
X52850176Y-47746453D01*
X52836508Y-47763108D01*
X52819853Y-47776776D01*
X52800857Y-47786929D01*
X52780238Y-47793184D01*
X52752660Y-47795900D01*
X52243940Y-47795900D01*
X52216362Y-47793184D01*
X52195743Y-47786929D01*
X52176747Y-47776776D01*
X52160092Y-47763108D01*
X52146424Y-47746453D01*
X52136271Y-47727457D01*
X52130016Y-47706838D01*
X52127300Y-47679260D01*
X52127300Y-47220540D01*
X52130016Y-47192962D01*
X52136271Y-47172343D01*
X52146424Y-47153347D01*
X52160092Y-47136692D01*
X52176747Y-47123024D01*
X52195743Y-47112871D01*
X52216362Y-47106616D01*
X52243940Y-47103900D01*
X52752660Y-47103900D01*
X52780238Y-47106616D01*
X52780238Y-47106616D01*
G37*
G36*
X49549338Y-47101516D02*
G01*
X49569957Y-47107771D01*
X49588953Y-47117924D01*
X49605608Y-47131592D01*
X49619276Y-47148247D01*
X49629429Y-47167243D01*
X49635684Y-47187862D01*
X49638400Y-47215440D01*
X49638400Y-47674160D01*
X49635684Y-47701738D01*
X49629429Y-47722357D01*
X49619276Y-47741353D01*
X49605608Y-47758008D01*
X49588953Y-47771676D01*
X49569957Y-47781829D01*
X49549338Y-47788084D01*
X49521760Y-47790800D01*
X49013040Y-47790800D01*
X48985462Y-47788084D01*
X48964843Y-47781829D01*
X48945847Y-47771676D01*
X48929192Y-47758008D01*
X48915524Y-47741353D01*
X48905371Y-47722357D01*
X48899116Y-47701738D01*
X48896400Y-47674160D01*
X48896400Y-47215440D01*
X48899116Y-47187862D01*
X48905371Y-47167243D01*
X48915524Y-47148247D01*
X48929192Y-47131592D01*
X48945847Y-47117924D01*
X48964843Y-47107771D01*
X48985462Y-47101516D01*
X49013040Y-47098800D01*
X49521760Y-47098800D01*
X49549338Y-47101516D01*
X49549338Y-47101516D01*
G37*
G36*
X50626338Y-47101516D02*
G01*
X50646957Y-47107771D01*
X50665953Y-47117924D01*
X50682608Y-47131592D01*
X50696276Y-47148247D01*
X50706429Y-47167243D01*
X50712684Y-47187862D01*
X50715400Y-47215440D01*
X50715400Y-47674160D01*
X50712684Y-47701738D01*
X50706429Y-47722357D01*
X50696276Y-47741353D01*
X50682608Y-47758008D01*
X50665953Y-47771676D01*
X50646957Y-47781829D01*
X50626338Y-47788084D01*
X50598760Y-47790800D01*
X50090040Y-47790800D01*
X50062462Y-47788084D01*
X50041843Y-47781829D01*
X50022847Y-47771676D01*
X50006192Y-47758008D01*
X49992524Y-47741353D01*
X49982371Y-47722357D01*
X49976116Y-47701738D01*
X49973400Y-47674160D01*
X49973400Y-47215440D01*
X49976116Y-47187862D01*
X49982371Y-47167243D01*
X49992524Y-47148247D01*
X50006192Y-47131592D01*
X50022847Y-47117924D01*
X50041843Y-47107771D01*
X50062462Y-47101516D01*
X50090040Y-47098800D01*
X50598760Y-47098800D01*
X50626338Y-47101516D01*
X50626338Y-47101516D01*
G37*
G36*
X45205938Y-47101516D02*
G01*
X45226557Y-47107771D01*
X45245553Y-47117924D01*
X45262208Y-47131592D01*
X45275876Y-47148247D01*
X45286029Y-47167243D01*
X45292284Y-47187862D01*
X45295000Y-47215440D01*
X45295000Y-47674160D01*
X45292284Y-47701738D01*
X45286029Y-47722357D01*
X45275876Y-47741353D01*
X45262208Y-47758008D01*
X45245553Y-47771676D01*
X45226557Y-47781829D01*
X45205938Y-47788084D01*
X45178360Y-47790800D01*
X44669640Y-47790800D01*
X44642062Y-47788084D01*
X44621443Y-47781829D01*
X44602447Y-47771676D01*
X44585792Y-47758008D01*
X44572124Y-47741353D01*
X44561971Y-47722357D01*
X44555716Y-47701738D01*
X44553000Y-47674160D01*
X44553000Y-47215440D01*
X44555716Y-47187862D01*
X44561971Y-47167243D01*
X44572124Y-47148247D01*
X44585792Y-47131592D01*
X44602447Y-47117924D01*
X44621443Y-47107771D01*
X44642062Y-47101516D01*
X44669640Y-47098800D01*
X45178360Y-47098800D01*
X45205938Y-47101516D01*
X45205938Y-47101516D01*
G37*
G36*
X46293038Y-47101516D02*
G01*
X46313657Y-47107771D01*
X46332653Y-47117924D01*
X46349308Y-47131592D01*
X46362976Y-47148247D01*
X46373129Y-47167243D01*
X46379384Y-47187862D01*
X46382100Y-47215440D01*
X46382100Y-47674160D01*
X46379384Y-47701738D01*
X46373129Y-47722357D01*
X46362976Y-47741353D01*
X46349308Y-47758008D01*
X46332653Y-47771676D01*
X46313657Y-47781829D01*
X46293038Y-47788084D01*
X46265460Y-47790800D01*
X45756740Y-47790800D01*
X45729162Y-47788084D01*
X45708543Y-47781829D01*
X45689547Y-47771676D01*
X45672892Y-47758008D01*
X45659224Y-47741353D01*
X45649071Y-47722357D01*
X45642816Y-47701738D01*
X45640100Y-47674160D01*
X45640100Y-47215440D01*
X45642816Y-47187862D01*
X45649071Y-47167243D01*
X45659224Y-47148247D01*
X45672892Y-47131592D01*
X45689547Y-47117924D01*
X45708543Y-47107771D01*
X45729162Y-47101516D01*
X45756740Y-47098800D01*
X46265460Y-47098800D01*
X46293038Y-47101516D01*
X46293038Y-47101516D01*
G37*
G36*
X47380138Y-47101516D02*
G01*
X47400757Y-47107771D01*
X47419753Y-47117924D01*
X47436408Y-47131592D01*
X47450076Y-47148247D01*
X47460229Y-47167243D01*
X47466484Y-47187862D01*
X47469200Y-47215440D01*
X47469200Y-47674160D01*
X47466484Y-47701738D01*
X47460229Y-47722357D01*
X47450076Y-47741353D01*
X47436408Y-47758008D01*
X47419753Y-47771676D01*
X47400757Y-47781829D01*
X47380138Y-47788084D01*
X47352560Y-47790800D01*
X46843840Y-47790800D01*
X46816262Y-47788084D01*
X46795643Y-47781829D01*
X46776647Y-47771676D01*
X46759992Y-47758008D01*
X46746324Y-47741353D01*
X46736171Y-47722357D01*
X46729916Y-47701738D01*
X46727200Y-47674160D01*
X46727200Y-47215440D01*
X46729916Y-47187862D01*
X46736171Y-47167243D01*
X46746324Y-47148247D01*
X46759992Y-47131592D01*
X46776647Y-47117924D01*
X46795643Y-47107771D01*
X46816262Y-47101516D01*
X46843840Y-47098800D01*
X47352560Y-47098800D01*
X47380138Y-47101516D01*
X47380138Y-47101516D01*
G37*
G36*
X48467338Y-47101516D02*
G01*
X48487957Y-47107771D01*
X48506953Y-47117924D01*
X48523608Y-47131592D01*
X48537276Y-47148247D01*
X48547429Y-47167243D01*
X48553684Y-47187862D01*
X48556400Y-47215440D01*
X48556400Y-47674160D01*
X48553684Y-47701738D01*
X48547429Y-47722357D01*
X48537276Y-47741353D01*
X48523608Y-47758008D01*
X48506953Y-47771676D01*
X48487957Y-47781829D01*
X48467338Y-47788084D01*
X48439760Y-47790800D01*
X47931040Y-47790800D01*
X47903462Y-47788084D01*
X47882843Y-47781829D01*
X47863847Y-47771676D01*
X47847192Y-47758008D01*
X47833524Y-47741353D01*
X47823371Y-47722357D01*
X47817116Y-47701738D01*
X47814400Y-47674160D01*
X47814400Y-47215440D01*
X47817116Y-47187862D01*
X47823371Y-47167243D01*
X47833524Y-47148247D01*
X47847192Y-47131592D01*
X47863847Y-47117924D01*
X47882843Y-47107771D01*
X47903462Y-47101516D01*
X47931040Y-47098800D01*
X48439760Y-47098800D01*
X48467338Y-47101516D01*
X48467338Y-47101516D01*
G37*
G36*
X44118838Y-47096416D02*
G01*
X44139457Y-47102671D01*
X44158453Y-47112824D01*
X44175108Y-47126492D01*
X44188776Y-47143147D01*
X44198929Y-47162143D01*
X44205184Y-47182762D01*
X44207900Y-47210340D01*
X44207900Y-47669060D01*
X44205184Y-47696638D01*
X44198929Y-47717257D01*
X44188776Y-47736253D01*
X44175108Y-47752908D01*
X44158453Y-47766576D01*
X44139457Y-47776729D01*
X44118838Y-47782984D01*
X44091260Y-47785700D01*
X43582540Y-47785700D01*
X43554962Y-47782984D01*
X43534343Y-47776729D01*
X43515347Y-47766576D01*
X43498692Y-47752908D01*
X43485024Y-47736253D01*
X43474871Y-47717257D01*
X43468616Y-47696638D01*
X43465900Y-47669060D01*
X43465900Y-47210340D01*
X43468616Y-47182762D01*
X43474871Y-47162143D01*
X43485024Y-47143147D01*
X43498692Y-47126492D01*
X43515347Y-47112824D01*
X43534343Y-47102671D01*
X43554962Y-47096416D01*
X43582540Y-47093700D01*
X44091260Y-47093700D01*
X44118838Y-47096416D01*
X44118838Y-47096416D01*
G37*
G36*
X86209428Y-44164898D02*
G01*
X86383974Y-44217847D01*
X86383977Y-44217849D01*
X86383978Y-44217849D01*
X86464412Y-44260842D01*
X86544850Y-44303836D01*
X86685849Y-44419551D01*
X86801567Y-44560553D01*
X86887552Y-44721421D01*
X86940502Y-44895971D01*
X86953900Y-45032010D01*
X86953900Y-46872990D01*
X86940502Y-47009029D01*
X86887552Y-47183579D01*
X86801567Y-47344447D01*
X86685849Y-47485449D01*
X86544847Y-47601167D01*
X86383979Y-47687152D01*
X86209429Y-47740102D01*
X86027900Y-47757980D01*
X85846372Y-47740102D01*
X85671822Y-47687152D01*
X85510954Y-47601167D01*
X85369952Y-47485449D01*
X85254234Y-47344447D01*
X85168249Y-47183579D01*
X85115299Y-47009029D01*
X85101900Y-46872989D01*
X85101900Y-45032011D01*
X85115298Y-44895972D01*
X85168247Y-44721426D01*
X85254236Y-44560550D01*
X85369951Y-44419551D01*
X85510953Y-44303833D01*
X85671821Y-44217848D01*
X85846371Y-44164898D01*
X86027900Y-44147020D01*
X86209428Y-44164898D01*
X86209428Y-44164898D01*
G37*
G36*
X76014528Y-44164898D02*
G01*
X76189074Y-44217847D01*
X76189077Y-44217849D01*
X76189078Y-44217849D01*
X76269512Y-44260842D01*
X76349950Y-44303836D01*
X76490949Y-44419551D01*
X76606667Y-44560553D01*
X76692652Y-44721421D01*
X76745602Y-44895971D01*
X76759000Y-45032010D01*
X76759000Y-46872990D01*
X76745602Y-47009029D01*
X76692652Y-47183579D01*
X76606667Y-47344447D01*
X76490949Y-47485449D01*
X76349947Y-47601167D01*
X76189079Y-47687152D01*
X76014529Y-47740102D01*
X75833000Y-47757980D01*
X75651472Y-47740102D01*
X75476922Y-47687152D01*
X75316054Y-47601167D01*
X75175052Y-47485449D01*
X75059334Y-47344447D01*
X74973349Y-47183579D01*
X74920399Y-47009029D01*
X74907000Y-46872989D01*
X74907000Y-45032011D01*
X74920398Y-44895972D01*
X74973347Y-44721426D01*
X75059336Y-44560550D01*
X75175051Y-44419551D01*
X75316053Y-44303833D01*
X75476921Y-44217848D01*
X75651471Y-44164898D01*
X75833000Y-44147020D01*
X76014528Y-44164898D01*
X76014528Y-44164898D01*
G37*
G36*
X66014528Y-44164898D02*
G01*
X66189074Y-44217847D01*
X66189077Y-44217849D01*
X66189078Y-44217849D01*
X66269512Y-44260842D01*
X66349950Y-44303836D01*
X66490949Y-44419551D01*
X66606667Y-44560553D01*
X66692652Y-44721421D01*
X66745602Y-44895971D01*
X66759000Y-45032010D01*
X66759000Y-46872990D01*
X66745602Y-47009029D01*
X66692652Y-47183579D01*
X66606667Y-47344447D01*
X66490949Y-47485449D01*
X66349947Y-47601167D01*
X66189079Y-47687152D01*
X66014529Y-47740102D01*
X65833000Y-47757980D01*
X65651472Y-47740102D01*
X65476922Y-47687152D01*
X65316054Y-47601167D01*
X65175052Y-47485449D01*
X65059334Y-47344447D01*
X64973349Y-47183579D01*
X64920399Y-47009029D01*
X64907000Y-46872989D01*
X64907000Y-45032011D01*
X64920398Y-44895972D01*
X64973347Y-44721426D01*
X65059336Y-44560550D01*
X65175051Y-44419551D01*
X65316053Y-44303833D01*
X65476921Y-44217848D01*
X65651471Y-44164898D01*
X65833000Y-44147020D01*
X66014528Y-44164898D01*
X66014528Y-44164898D01*
G37*
G36*
X73514528Y-44164898D02*
G01*
X73689074Y-44217847D01*
X73689077Y-44217849D01*
X73689078Y-44217849D01*
X73769512Y-44260842D01*
X73849950Y-44303836D01*
X73990949Y-44419551D01*
X74106667Y-44560553D01*
X74192652Y-44721421D01*
X74245602Y-44895971D01*
X74259000Y-45032010D01*
X74259000Y-46872990D01*
X74245602Y-47009029D01*
X74192652Y-47183579D01*
X74106667Y-47344447D01*
X73990949Y-47485449D01*
X73849947Y-47601167D01*
X73689079Y-47687152D01*
X73514529Y-47740102D01*
X73333000Y-47757980D01*
X73151472Y-47740102D01*
X72976922Y-47687152D01*
X72816054Y-47601167D01*
X72675052Y-47485449D01*
X72559334Y-47344447D01*
X72473349Y-47183579D01*
X72420399Y-47009029D01*
X72407000Y-46872989D01*
X72407000Y-45032011D01*
X72420398Y-44895972D01*
X72473347Y-44721426D01*
X72559336Y-44560550D01*
X72675051Y-44419551D01*
X72816053Y-44303833D01*
X72976921Y-44217848D01*
X73151471Y-44164898D01*
X73333000Y-44147020D01*
X73514528Y-44164898D01*
X73514528Y-44164898D01*
G37*
G36*
X81209428Y-44164898D02*
G01*
X81383974Y-44217847D01*
X81383977Y-44217849D01*
X81383978Y-44217849D01*
X81464412Y-44260842D01*
X81544850Y-44303836D01*
X81685849Y-44419551D01*
X81801567Y-44560553D01*
X81887552Y-44721421D01*
X81940502Y-44895971D01*
X81953900Y-45032010D01*
X81953900Y-46872990D01*
X81940502Y-47009029D01*
X81887552Y-47183579D01*
X81801567Y-47344447D01*
X81685849Y-47485449D01*
X81544847Y-47601167D01*
X81383979Y-47687152D01*
X81209429Y-47740102D01*
X81027900Y-47757980D01*
X80846372Y-47740102D01*
X80671822Y-47687152D01*
X80510954Y-47601167D01*
X80369952Y-47485449D01*
X80254234Y-47344447D01*
X80168249Y-47183579D01*
X80115299Y-47009029D01*
X80101900Y-46872989D01*
X80101900Y-45032011D01*
X80115298Y-44895972D01*
X80168247Y-44721426D01*
X80254236Y-44560550D01*
X80369951Y-44419551D01*
X80510953Y-44303833D01*
X80671821Y-44217848D01*
X80846371Y-44164898D01*
X81027900Y-44147020D01*
X81209428Y-44164898D01*
X81209428Y-44164898D01*
G37*
G36*
X68514528Y-44164898D02*
G01*
X68689074Y-44217847D01*
X68689077Y-44217849D01*
X68689078Y-44217849D01*
X68769512Y-44260842D01*
X68849950Y-44303836D01*
X68990949Y-44419551D01*
X69106667Y-44560553D01*
X69192652Y-44721421D01*
X69245602Y-44895971D01*
X69259000Y-45032010D01*
X69259000Y-46872990D01*
X69245602Y-47009029D01*
X69192652Y-47183579D01*
X69106667Y-47344447D01*
X68990949Y-47485449D01*
X68849947Y-47601167D01*
X68689079Y-47687152D01*
X68514529Y-47740102D01*
X68333000Y-47757980D01*
X68151472Y-47740102D01*
X67976922Y-47687152D01*
X67816054Y-47601167D01*
X67675052Y-47485449D01*
X67559334Y-47344447D01*
X67473349Y-47183579D01*
X67420399Y-47009029D01*
X67407000Y-46872989D01*
X67407000Y-45032011D01*
X67420398Y-44895972D01*
X67473347Y-44721426D01*
X67559336Y-44560550D01*
X67675051Y-44419551D01*
X67816053Y-44303833D01*
X67976921Y-44217848D01*
X68151471Y-44164898D01*
X68333000Y-44147020D01*
X68514528Y-44164898D01*
X68514528Y-44164898D01*
G37*
G36*
X88709428Y-44164898D02*
G01*
X88883974Y-44217847D01*
X88883977Y-44217849D01*
X88883978Y-44217849D01*
X88964412Y-44260842D01*
X89044850Y-44303836D01*
X89185849Y-44419551D01*
X89301567Y-44560553D01*
X89387552Y-44721421D01*
X89440502Y-44895971D01*
X89453900Y-45032010D01*
X89453900Y-46872990D01*
X89440502Y-47009029D01*
X89387552Y-47183579D01*
X89301567Y-47344447D01*
X89185849Y-47485449D01*
X89044847Y-47601167D01*
X88883979Y-47687152D01*
X88709429Y-47740102D01*
X88527900Y-47757980D01*
X88346372Y-47740102D01*
X88171822Y-47687152D01*
X88010954Y-47601167D01*
X87869952Y-47485449D01*
X87754234Y-47344447D01*
X87668249Y-47183579D01*
X87615299Y-47009029D01*
X87601900Y-46872989D01*
X87601900Y-45032011D01*
X87615298Y-44895972D01*
X87668247Y-44721426D01*
X87754236Y-44560550D01*
X87869951Y-44419551D01*
X88010953Y-44303833D01*
X88171821Y-44217848D01*
X88346371Y-44164898D01*
X88527900Y-44147020D01*
X88709428Y-44164898D01*
X88709428Y-44164898D01*
G37*
G36*
X78709428Y-44164898D02*
G01*
X78883974Y-44217847D01*
X78883977Y-44217849D01*
X78883978Y-44217849D01*
X78964412Y-44260842D01*
X79044850Y-44303836D01*
X79185849Y-44419551D01*
X79301567Y-44560553D01*
X79387552Y-44721421D01*
X79440502Y-44895971D01*
X79453900Y-45032010D01*
X79453900Y-46872990D01*
X79440502Y-47009029D01*
X79387552Y-47183579D01*
X79301567Y-47344447D01*
X79185849Y-47485449D01*
X79044847Y-47601167D01*
X78883979Y-47687152D01*
X78709429Y-47740102D01*
X78527900Y-47757980D01*
X78346372Y-47740102D01*
X78171822Y-47687152D01*
X78010954Y-47601167D01*
X77869952Y-47485449D01*
X77754234Y-47344447D01*
X77668249Y-47183579D01*
X77615299Y-47009029D01*
X77601900Y-46872989D01*
X77601900Y-45032011D01*
X77615298Y-44895972D01*
X77668247Y-44721426D01*
X77754236Y-44560550D01*
X77869951Y-44419551D01*
X78010953Y-44303833D01*
X78171821Y-44217848D01*
X78346371Y-44164898D01*
X78527900Y-44147020D01*
X78709428Y-44164898D01*
X78709428Y-44164898D01*
G37*
G36*
X51703238Y-46136616D02*
G01*
X51723857Y-46142871D01*
X51742853Y-46153024D01*
X51759508Y-46166692D01*
X51773176Y-46183347D01*
X51783329Y-46202343D01*
X51789584Y-46222962D01*
X51792300Y-46250540D01*
X51792300Y-46709260D01*
X51789584Y-46736838D01*
X51783329Y-46757457D01*
X51773176Y-46776453D01*
X51759508Y-46793108D01*
X51742853Y-46806776D01*
X51723857Y-46816929D01*
X51703238Y-46823184D01*
X51675660Y-46825900D01*
X51166940Y-46825900D01*
X51139362Y-46823184D01*
X51118743Y-46816929D01*
X51099747Y-46806776D01*
X51083092Y-46793108D01*
X51069424Y-46776453D01*
X51059271Y-46757457D01*
X51053016Y-46736838D01*
X51050300Y-46709260D01*
X51050300Y-46250540D01*
X51053016Y-46222962D01*
X51059271Y-46202343D01*
X51069424Y-46183347D01*
X51083092Y-46166692D01*
X51099747Y-46153024D01*
X51118743Y-46142871D01*
X51139362Y-46136616D01*
X51166940Y-46133900D01*
X51675660Y-46133900D01*
X51703238Y-46136616D01*
X51703238Y-46136616D01*
G37*
G36*
X52780238Y-46136616D02*
G01*
X52800857Y-46142871D01*
X52819853Y-46153024D01*
X52836508Y-46166692D01*
X52850176Y-46183347D01*
X52860329Y-46202343D01*
X52866584Y-46222962D01*
X52869300Y-46250540D01*
X52869300Y-46709260D01*
X52866584Y-46736838D01*
X52860329Y-46757457D01*
X52850176Y-46776453D01*
X52836508Y-46793108D01*
X52819853Y-46806776D01*
X52800857Y-46816929D01*
X52780238Y-46823184D01*
X52752660Y-46825900D01*
X52243940Y-46825900D01*
X52216362Y-46823184D01*
X52195743Y-46816929D01*
X52176747Y-46806776D01*
X52160092Y-46793108D01*
X52146424Y-46776453D01*
X52136271Y-46757457D01*
X52130016Y-46736838D01*
X52127300Y-46709260D01*
X52127300Y-46250540D01*
X52130016Y-46222962D01*
X52136271Y-46202343D01*
X52146424Y-46183347D01*
X52160092Y-46166692D01*
X52176747Y-46153024D01*
X52195743Y-46142871D01*
X52216362Y-46136616D01*
X52243940Y-46133900D01*
X52752660Y-46133900D01*
X52780238Y-46136616D01*
X52780238Y-46136616D01*
G37*
G36*
X45205938Y-46131516D02*
G01*
X45226557Y-46137771D01*
X45245553Y-46147924D01*
X45262208Y-46161592D01*
X45275876Y-46178247D01*
X45286029Y-46197243D01*
X45292284Y-46217862D01*
X45295000Y-46245440D01*
X45295000Y-46704160D01*
X45292284Y-46731738D01*
X45286029Y-46752357D01*
X45275876Y-46771353D01*
X45262208Y-46788008D01*
X45245553Y-46801676D01*
X45226557Y-46811829D01*
X45205938Y-46818084D01*
X45178360Y-46820800D01*
X44669640Y-46820800D01*
X44642062Y-46818084D01*
X44621443Y-46811829D01*
X44602447Y-46801676D01*
X44585792Y-46788008D01*
X44572124Y-46771353D01*
X44561971Y-46752357D01*
X44555716Y-46731738D01*
X44553000Y-46704160D01*
X44553000Y-46245440D01*
X44555716Y-46217862D01*
X44561971Y-46197243D01*
X44572124Y-46178247D01*
X44585792Y-46161592D01*
X44602447Y-46147924D01*
X44621443Y-46137771D01*
X44642062Y-46131516D01*
X44669640Y-46128800D01*
X45178360Y-46128800D01*
X45205938Y-46131516D01*
X45205938Y-46131516D01*
G37*
G36*
X50626338Y-46131516D02*
G01*
X50646957Y-46137771D01*
X50665953Y-46147924D01*
X50682608Y-46161592D01*
X50696276Y-46178247D01*
X50706429Y-46197243D01*
X50712684Y-46217862D01*
X50715400Y-46245440D01*
X50715400Y-46704160D01*
X50712684Y-46731738D01*
X50706429Y-46752357D01*
X50696276Y-46771353D01*
X50682608Y-46788008D01*
X50665953Y-46801676D01*
X50646957Y-46811829D01*
X50626338Y-46818084D01*
X50598760Y-46820800D01*
X50090040Y-46820800D01*
X50062462Y-46818084D01*
X50041843Y-46811829D01*
X50022847Y-46801676D01*
X50006192Y-46788008D01*
X49992524Y-46771353D01*
X49982371Y-46752357D01*
X49976116Y-46731738D01*
X49973400Y-46704160D01*
X49973400Y-46245440D01*
X49976116Y-46217862D01*
X49982371Y-46197243D01*
X49992524Y-46178247D01*
X50006192Y-46161592D01*
X50022847Y-46147924D01*
X50041843Y-46137771D01*
X50062462Y-46131516D01*
X50090040Y-46128800D01*
X50598760Y-46128800D01*
X50626338Y-46131516D01*
X50626338Y-46131516D01*
G37*
G36*
X49549338Y-46131516D02*
G01*
X49569957Y-46137771D01*
X49588953Y-46147924D01*
X49605608Y-46161592D01*
X49619276Y-46178247D01*
X49629429Y-46197243D01*
X49635684Y-46217862D01*
X49638400Y-46245440D01*
X49638400Y-46704160D01*
X49635684Y-46731738D01*
X49629429Y-46752357D01*
X49619276Y-46771353D01*
X49605608Y-46788008D01*
X49588953Y-46801676D01*
X49569957Y-46811829D01*
X49549338Y-46818084D01*
X49521760Y-46820800D01*
X49013040Y-46820800D01*
X48985462Y-46818084D01*
X48964843Y-46811829D01*
X48945847Y-46801676D01*
X48929192Y-46788008D01*
X48915524Y-46771353D01*
X48905371Y-46752357D01*
X48899116Y-46731738D01*
X48896400Y-46704160D01*
X48896400Y-46245440D01*
X48899116Y-46217862D01*
X48905371Y-46197243D01*
X48915524Y-46178247D01*
X48929192Y-46161592D01*
X48945847Y-46147924D01*
X48964843Y-46137771D01*
X48985462Y-46131516D01*
X49013040Y-46128800D01*
X49521760Y-46128800D01*
X49549338Y-46131516D01*
X49549338Y-46131516D01*
G37*
G36*
X46293038Y-46131516D02*
G01*
X46313657Y-46137771D01*
X46332653Y-46147924D01*
X46349308Y-46161592D01*
X46362976Y-46178247D01*
X46373129Y-46197243D01*
X46379384Y-46217862D01*
X46382100Y-46245440D01*
X46382100Y-46704160D01*
X46379384Y-46731738D01*
X46373129Y-46752357D01*
X46362976Y-46771353D01*
X46349308Y-46788008D01*
X46332653Y-46801676D01*
X46313657Y-46811829D01*
X46293038Y-46818084D01*
X46265460Y-46820800D01*
X45756740Y-46820800D01*
X45729162Y-46818084D01*
X45708543Y-46811829D01*
X45689547Y-46801676D01*
X45672892Y-46788008D01*
X45659224Y-46771353D01*
X45649071Y-46752357D01*
X45642816Y-46731738D01*
X45640100Y-46704160D01*
X45640100Y-46245440D01*
X45642816Y-46217862D01*
X45649071Y-46197243D01*
X45659224Y-46178247D01*
X45672892Y-46161592D01*
X45689547Y-46147924D01*
X45708543Y-46137771D01*
X45729162Y-46131516D01*
X45756740Y-46128800D01*
X46265460Y-46128800D01*
X46293038Y-46131516D01*
X46293038Y-46131516D01*
G37*
G36*
X48467338Y-46131516D02*
G01*
X48487957Y-46137771D01*
X48506953Y-46147924D01*
X48523608Y-46161592D01*
X48537276Y-46178247D01*
X48547429Y-46197243D01*
X48553684Y-46217862D01*
X48556400Y-46245440D01*
X48556400Y-46704160D01*
X48553684Y-46731738D01*
X48547429Y-46752357D01*
X48537276Y-46771353D01*
X48523608Y-46788008D01*
X48506953Y-46801676D01*
X48487957Y-46811829D01*
X48467338Y-46818084D01*
X48439760Y-46820800D01*
X47931040Y-46820800D01*
X47903462Y-46818084D01*
X47882843Y-46811829D01*
X47863847Y-46801676D01*
X47847192Y-46788008D01*
X47833524Y-46771353D01*
X47823371Y-46752357D01*
X47817116Y-46731738D01*
X47814400Y-46704160D01*
X47814400Y-46245440D01*
X47817116Y-46217862D01*
X47823371Y-46197243D01*
X47833524Y-46178247D01*
X47847192Y-46161592D01*
X47863847Y-46147924D01*
X47882843Y-46137771D01*
X47903462Y-46131516D01*
X47931040Y-46128800D01*
X48439760Y-46128800D01*
X48467338Y-46131516D01*
X48467338Y-46131516D01*
G37*
G36*
X47380138Y-46131516D02*
G01*
X47400757Y-46137771D01*
X47419753Y-46147924D01*
X47436408Y-46161592D01*
X47450076Y-46178247D01*
X47460229Y-46197243D01*
X47466484Y-46217862D01*
X47469200Y-46245440D01*
X47469200Y-46704160D01*
X47466484Y-46731738D01*
X47460229Y-46752357D01*
X47450076Y-46771353D01*
X47436408Y-46788008D01*
X47419753Y-46801676D01*
X47400757Y-46811829D01*
X47380138Y-46818084D01*
X47352560Y-46820800D01*
X46843840Y-46820800D01*
X46816262Y-46818084D01*
X46795643Y-46811829D01*
X46776647Y-46801676D01*
X46759992Y-46788008D01*
X46746324Y-46771353D01*
X46736171Y-46752357D01*
X46729916Y-46731738D01*
X46727200Y-46704160D01*
X46727200Y-46245440D01*
X46729916Y-46217862D01*
X46736171Y-46197243D01*
X46746324Y-46178247D01*
X46759992Y-46161592D01*
X46776647Y-46147924D01*
X46795643Y-46137771D01*
X46816262Y-46131516D01*
X46843840Y-46128800D01*
X47352560Y-46128800D01*
X47380138Y-46131516D01*
X47380138Y-46131516D01*
G37*
G36*
X44118838Y-46126416D02*
G01*
X44139457Y-46132671D01*
X44158453Y-46142824D01*
X44175108Y-46156492D01*
X44188776Y-46173147D01*
X44198929Y-46192143D01*
X44205184Y-46212762D01*
X44207900Y-46240340D01*
X44207900Y-46699060D01*
X44205184Y-46726638D01*
X44198929Y-46747257D01*
X44188776Y-46766253D01*
X44175108Y-46782908D01*
X44158453Y-46796576D01*
X44139457Y-46806729D01*
X44118838Y-46812984D01*
X44091260Y-46815700D01*
X43582540Y-46815700D01*
X43554962Y-46812984D01*
X43534343Y-46806729D01*
X43515347Y-46796576D01*
X43498692Y-46782908D01*
X43485024Y-46766253D01*
X43474871Y-46747257D01*
X43468616Y-46726638D01*
X43465900Y-46699060D01*
X43465900Y-46240340D01*
X43468616Y-46212762D01*
X43474871Y-46192143D01*
X43485024Y-46173147D01*
X43498692Y-46156492D01*
X43515347Y-46142824D01*
X43534343Y-46132671D01*
X43554962Y-46126416D01*
X43582540Y-46123700D01*
X44091260Y-46123700D01*
X44118838Y-46126416D01*
X44118838Y-46126416D01*
G37*
G36*
X71022890Y-45281517D02*
G01*
X71141364Y-45330591D01*
X71247988Y-45401835D01*
X71338665Y-45492512D01*
X71409910Y-45599138D01*
X71458983Y-45717610D01*
X71484000Y-45843381D01*
X71484000Y-45971619D01*
X71458983Y-46097390D01*
X71412013Y-46210786D01*
X71409909Y-46215864D01*
X71338665Y-46322488D01*
X71247988Y-46413165D01*
X71141364Y-46484409D01*
X71141363Y-46484410D01*
X71141362Y-46484410D01*
X71022890Y-46533483D01*
X70897119Y-46558500D01*
X70768881Y-46558500D01*
X70643110Y-46533483D01*
X70524638Y-46484410D01*
X70524637Y-46484410D01*
X70524636Y-46484409D01*
X70418012Y-46413165D01*
X70327335Y-46322488D01*
X70256091Y-46215864D01*
X70253988Y-46210786D01*
X70207017Y-46097390D01*
X70182000Y-45971619D01*
X70182000Y-45843381D01*
X70207017Y-45717610D01*
X70256090Y-45599138D01*
X70327335Y-45492512D01*
X70418012Y-45401835D01*
X70524636Y-45330591D01*
X70643110Y-45281517D01*
X70768881Y-45256500D01*
X70897119Y-45256500D01*
X71022890Y-45281517D01*
X71022890Y-45281517D01*
G37*
G36*
X83717790Y-45281517D02*
G01*
X83836264Y-45330591D01*
X83942888Y-45401835D01*
X84033565Y-45492512D01*
X84104810Y-45599138D01*
X84153883Y-45717610D01*
X84178900Y-45843381D01*
X84178900Y-45971619D01*
X84153883Y-46097390D01*
X84106913Y-46210786D01*
X84104809Y-46215864D01*
X84033565Y-46322488D01*
X83942888Y-46413165D01*
X83836264Y-46484409D01*
X83836263Y-46484410D01*
X83836262Y-46484410D01*
X83717790Y-46533483D01*
X83592019Y-46558500D01*
X83463781Y-46558500D01*
X83338010Y-46533483D01*
X83219538Y-46484410D01*
X83219537Y-46484410D01*
X83219536Y-46484409D01*
X83112912Y-46413165D01*
X83022235Y-46322488D01*
X82950991Y-46215864D01*
X82948888Y-46210786D01*
X82901917Y-46097390D01*
X82876900Y-45971619D01*
X82876900Y-45843381D01*
X82901917Y-45717610D01*
X82950990Y-45599138D01*
X83022235Y-45492512D01*
X83112912Y-45401835D01*
X83219536Y-45330591D01*
X83338010Y-45281517D01*
X83463781Y-45256500D01*
X83592019Y-45256500D01*
X83717790Y-45281517D01*
X83717790Y-45281517D01*
G37*
G36*
X51230428Y-42572503D02*
G01*
X51385300Y-42636653D01*
X51524681Y-42729785D01*
X51643215Y-42848319D01*
X51736347Y-42987700D01*
X51800497Y-43142572D01*
X51833200Y-43306984D01*
X51833200Y-43474616D01*
X51800497Y-43639028D01*
X51736347Y-43793900D01*
X51643215Y-43933281D01*
X51524681Y-44051815D01*
X51385300Y-44144947D01*
X51230428Y-44209097D01*
X51066016Y-44241800D01*
X50898384Y-44241800D01*
X50733972Y-44209097D01*
X50579100Y-44144947D01*
X50439719Y-44051815D01*
X50321185Y-43933281D01*
X50228053Y-43793900D01*
X50163903Y-43639028D01*
X50131200Y-43474616D01*
X50131200Y-43306984D01*
X50163903Y-43142572D01*
X50228053Y-42987700D01*
X50321185Y-42848319D01*
X50439719Y-42729785D01*
X50579100Y-42636653D01*
X50733972Y-42572503D01*
X50898384Y-42539800D01*
X51066016Y-42539800D01*
X51230428Y-42572503D01*
X51230428Y-42572503D01*
G37*
G36*
X44963200Y-44241800D02*
G01*
X43261200Y-44241800D01*
X43261200Y-42539800D01*
X44963200Y-42539800D01*
X44963200Y-44241800D01*
X44963200Y-44241800D01*
G37*
G36*
X46650428Y-42572503D02*
G01*
X46805300Y-42636653D01*
X46944681Y-42729785D01*
X47063215Y-42848319D01*
X47156347Y-42987700D01*
X47220497Y-43142572D01*
X47253200Y-43306984D01*
X47253200Y-43474616D01*
X47220497Y-43639028D01*
X47156347Y-43793900D01*
X47063215Y-43933281D01*
X46944681Y-44051815D01*
X46805300Y-44144947D01*
X46650428Y-44209097D01*
X46486016Y-44241800D01*
X46318384Y-44241800D01*
X46153972Y-44209097D01*
X45999100Y-44144947D01*
X45859719Y-44051815D01*
X45741185Y-43933281D01*
X45648053Y-43793900D01*
X45583903Y-43639028D01*
X45551200Y-43474616D01*
X45551200Y-43306984D01*
X45583903Y-43142572D01*
X45648053Y-42987700D01*
X45741185Y-42848319D01*
X45859719Y-42729785D01*
X45999100Y-42636653D01*
X46153972Y-42572503D01*
X46318384Y-42539800D01*
X46486016Y-42539800D01*
X46650428Y-42572503D01*
X46650428Y-42572503D01*
G37*
G36*
X48940428Y-42572503D02*
G01*
X49095300Y-42636653D01*
X49234681Y-42729785D01*
X49353215Y-42848319D01*
X49446347Y-42987700D01*
X49510497Y-43142572D01*
X49543200Y-43306984D01*
X49543200Y-43474616D01*
X49510497Y-43639028D01*
X49446347Y-43793900D01*
X49353215Y-43933281D01*
X49234681Y-44051815D01*
X49095300Y-44144947D01*
X48940428Y-44209097D01*
X48776016Y-44241800D01*
X48608384Y-44241800D01*
X48443972Y-44209097D01*
X48289100Y-44144947D01*
X48149719Y-44051815D01*
X48031185Y-43933281D01*
X47938053Y-43793900D01*
X47873903Y-43639028D01*
X47841200Y-43474616D01*
X47841200Y-43306984D01*
X47873903Y-43142572D01*
X47938053Y-42987700D01*
X48031185Y-42848319D01*
X48149719Y-42729785D01*
X48289100Y-42636653D01*
X48443972Y-42572503D01*
X48608384Y-42539800D01*
X48776016Y-42539800D01*
X48940428Y-42572503D01*
X48940428Y-42572503D01*
G37*
G36*
X53520428Y-42572503D02*
G01*
X53675300Y-42636653D01*
X53814681Y-42729785D01*
X53933215Y-42848319D01*
X54026347Y-42987700D01*
X54090497Y-43142572D01*
X54123200Y-43306984D01*
X54123200Y-43474616D01*
X54090497Y-43639028D01*
X54026347Y-43793900D01*
X53933215Y-43933281D01*
X53814681Y-44051815D01*
X53675300Y-44144947D01*
X53520428Y-44209097D01*
X53356016Y-44241800D01*
X53188384Y-44241800D01*
X53023972Y-44209097D01*
X52869100Y-44144947D01*
X52729719Y-44051815D01*
X52611185Y-43933281D01*
X52518053Y-43793900D01*
X52453903Y-43639028D01*
X52421200Y-43474616D01*
X52421200Y-43306984D01*
X52453903Y-43142572D01*
X52518053Y-42987700D01*
X52611185Y-42848319D01*
X52729719Y-42729785D01*
X52869100Y-42636653D01*
X53023972Y-42572503D01*
X53188384Y-42539800D01*
X53356016Y-42539800D01*
X53520428Y-42572503D01*
X53520428Y-42572503D01*
G37*
G36*
X36525454Y-39368618D02*
G01*
X36898711Y-39523226D01*
X36898713Y-39523227D01*
X37081707Y-39645500D01*
X37234636Y-39747684D01*
X37520316Y-40033364D01*
X37744774Y-40369289D01*
X37899382Y-40742546D01*
X37978200Y-41138793D01*
X37978200Y-41542807D01*
X37899382Y-41939054D01*
X37765696Y-42261800D01*
X37744773Y-42312313D01*
X37520316Y-42648236D01*
X37234636Y-42933916D01*
X36898713Y-43158373D01*
X36898712Y-43158374D01*
X36898711Y-43158374D01*
X36525454Y-43312982D01*
X36129207Y-43391800D01*
X35725193Y-43391800D01*
X35328946Y-43312982D01*
X34955689Y-43158374D01*
X34955688Y-43158374D01*
X34955687Y-43158373D01*
X34619764Y-42933916D01*
X34334084Y-42648236D01*
X34109627Y-42312313D01*
X34088704Y-42261800D01*
X33955018Y-41939054D01*
X33876200Y-41542807D01*
X33876200Y-41138793D01*
X33955018Y-40742546D01*
X34109626Y-40369289D01*
X34334084Y-40033364D01*
X34619764Y-39747684D01*
X34772693Y-39645500D01*
X34955687Y-39523227D01*
X34955689Y-39523226D01*
X35328946Y-39368618D01*
X35725193Y-39289800D01*
X36129207Y-39289800D01*
X36525454Y-39368618D01*
X36525454Y-39368618D01*
G37*
G36*
X61525454Y-39368618D02*
G01*
X61898711Y-39523226D01*
X61898713Y-39523227D01*
X62081707Y-39645500D01*
X62234636Y-39747684D01*
X62520316Y-40033364D01*
X62744774Y-40369289D01*
X62899382Y-40742546D01*
X62978200Y-41138793D01*
X62978200Y-41542807D01*
X62899382Y-41939054D01*
X62765696Y-42261800D01*
X62744773Y-42312313D01*
X62520316Y-42648236D01*
X62234636Y-42933916D01*
X61898713Y-43158373D01*
X61898712Y-43158374D01*
X61898711Y-43158374D01*
X61525454Y-43312982D01*
X61129207Y-43391800D01*
X60725193Y-43391800D01*
X60328946Y-43312982D01*
X59955689Y-43158374D01*
X59955688Y-43158374D01*
X59955687Y-43158373D01*
X59619764Y-42933916D01*
X59334084Y-42648236D01*
X59109627Y-42312313D01*
X59088704Y-42261800D01*
X58955018Y-41939054D01*
X58876200Y-41542807D01*
X58876200Y-41138793D01*
X58955018Y-40742546D01*
X59109626Y-40369289D01*
X59334084Y-40033364D01*
X59619764Y-39747684D01*
X59772693Y-39645500D01*
X59955687Y-39523227D01*
X59955689Y-39523226D01*
X60328946Y-39368618D01*
X60725193Y-39289800D01*
X61129207Y-39289800D01*
X61525454Y-39368618D01*
X61525454Y-39368618D01*
G37*
G36*
X52375428Y-40592503D02*
G01*
X52530300Y-40656653D01*
X52669681Y-40749785D01*
X52788215Y-40868319D01*
X52881347Y-41007700D01*
X52945497Y-41162572D01*
X52978200Y-41326984D01*
X52978200Y-41494616D01*
X52945497Y-41659028D01*
X52881347Y-41813900D01*
X52788215Y-41953281D01*
X52669681Y-42071815D01*
X52530300Y-42164947D01*
X52375428Y-42229097D01*
X52211016Y-42261800D01*
X52043384Y-42261800D01*
X51878972Y-42229097D01*
X51724100Y-42164947D01*
X51584719Y-42071815D01*
X51466185Y-41953281D01*
X51373053Y-41813900D01*
X51308903Y-41659028D01*
X51276200Y-41494616D01*
X51276200Y-41326984D01*
X51308903Y-41162572D01*
X51373053Y-41007700D01*
X51466185Y-40868319D01*
X51584719Y-40749785D01*
X51724100Y-40656653D01*
X51878972Y-40592503D01*
X52043384Y-40559800D01*
X52211016Y-40559800D01*
X52375428Y-40592503D01*
X52375428Y-40592503D01*
G37*
G36*
X50085428Y-40592503D02*
G01*
X50240300Y-40656653D01*
X50379681Y-40749785D01*
X50498215Y-40868319D01*
X50591347Y-41007700D01*
X50655497Y-41162572D01*
X50688200Y-41326984D01*
X50688200Y-41494616D01*
X50655497Y-41659028D01*
X50591347Y-41813900D01*
X50498215Y-41953281D01*
X50379681Y-42071815D01*
X50240300Y-42164947D01*
X50085428Y-42229097D01*
X49921016Y-42261800D01*
X49753384Y-42261800D01*
X49588972Y-42229097D01*
X49434100Y-42164947D01*
X49294719Y-42071815D01*
X49176185Y-41953281D01*
X49083053Y-41813900D01*
X49018903Y-41659028D01*
X48986200Y-41494616D01*
X48986200Y-41326984D01*
X49018903Y-41162572D01*
X49083053Y-41007700D01*
X49176185Y-40868319D01*
X49294719Y-40749785D01*
X49434100Y-40656653D01*
X49588972Y-40592503D01*
X49753384Y-40559800D01*
X49921016Y-40559800D01*
X50085428Y-40592503D01*
X50085428Y-40592503D01*
G37*
G36*
X47795428Y-40592503D02*
G01*
X47950300Y-40656653D01*
X48089681Y-40749785D01*
X48208215Y-40868319D01*
X48301347Y-41007700D01*
X48365497Y-41162572D01*
X48398200Y-41326984D01*
X48398200Y-41494616D01*
X48365497Y-41659028D01*
X48301347Y-41813900D01*
X48208215Y-41953281D01*
X48089681Y-42071815D01*
X47950300Y-42164947D01*
X47795428Y-42229097D01*
X47631016Y-42261800D01*
X47463384Y-42261800D01*
X47298972Y-42229097D01*
X47144100Y-42164947D01*
X47004719Y-42071815D01*
X46886185Y-41953281D01*
X46793053Y-41813900D01*
X46728903Y-41659028D01*
X46696200Y-41494616D01*
X46696200Y-41326984D01*
X46728903Y-41162572D01*
X46793053Y-41007700D01*
X46886185Y-40868319D01*
X47004719Y-40749785D01*
X47144100Y-40656653D01*
X47298972Y-40592503D01*
X47463384Y-40559800D01*
X47631016Y-40559800D01*
X47795428Y-40592503D01*
X47795428Y-40592503D01*
G37*
G36*
X45505428Y-40592503D02*
G01*
X45660300Y-40656653D01*
X45799681Y-40749785D01*
X45918215Y-40868319D01*
X46011347Y-41007700D01*
X46075497Y-41162572D01*
X46108200Y-41326984D01*
X46108200Y-41494616D01*
X46075497Y-41659028D01*
X46011347Y-41813900D01*
X45918215Y-41953281D01*
X45799681Y-42071815D01*
X45660300Y-42164947D01*
X45505428Y-42229097D01*
X45341016Y-42261800D01*
X45173384Y-42261800D01*
X45008972Y-42229097D01*
X44854100Y-42164947D01*
X44714719Y-42071815D01*
X44596185Y-41953281D01*
X44503053Y-41813900D01*
X44438903Y-41659028D01*
X44406200Y-41494616D01*
X44406200Y-41326984D01*
X44438903Y-41162572D01*
X44503053Y-41007700D01*
X44596185Y-40868319D01*
X44714719Y-40749785D01*
X44854100Y-40656653D01*
X45008972Y-40592503D01*
X45173384Y-40559800D01*
X45341016Y-40559800D01*
X45505428Y-40592503D01*
X45505428Y-40592503D01*
G37*
G36*
X43215428Y-40592503D02*
G01*
X43370300Y-40656653D01*
X43509681Y-40749785D01*
X43628215Y-40868319D01*
X43721347Y-41007700D01*
X43785497Y-41162572D01*
X43818200Y-41326984D01*
X43818200Y-41494616D01*
X43785497Y-41659028D01*
X43721347Y-41813900D01*
X43628215Y-41953281D01*
X43509681Y-42071815D01*
X43370300Y-42164947D01*
X43215428Y-42229097D01*
X43051016Y-42261800D01*
X42883384Y-42261800D01*
X42718972Y-42229097D01*
X42564100Y-42164947D01*
X42424719Y-42071815D01*
X42306185Y-41953281D01*
X42213053Y-41813900D01*
X42148903Y-41659028D01*
X42116200Y-41494616D01*
X42116200Y-41326984D01*
X42148903Y-41162572D01*
X42213053Y-41007700D01*
X42306185Y-40868319D01*
X42424719Y-40749785D01*
X42564100Y-40656653D01*
X42718972Y-40592503D01*
X42883384Y-40559800D01*
X43051016Y-40559800D01*
X43215428Y-40592503D01*
X43215428Y-40592503D01*
G37*
G36*
X85328900Y-42247500D02*
G01*
X81726900Y-42247500D01*
X81726900Y-39645500D01*
X85328900Y-39645500D01*
X85328900Y-42247500D01*
X85328900Y-42247500D01*
G37*
G36*
X72634000Y-42247500D02*
G01*
X69032000Y-42247500D01*
X69032000Y-39645500D01*
X72634000Y-39645500D01*
X72634000Y-42247500D01*
X72634000Y-42247500D01*
G37*
G36*
X66022890Y-40281517D02*
G01*
X66141364Y-40330591D01*
X66247988Y-40401835D01*
X66338665Y-40492512D01*
X66409910Y-40599138D01*
X66458983Y-40717610D01*
X66484000Y-40843381D01*
X66484000Y-40971619D01*
X66458983Y-41097390D01*
X66431984Y-41162572D01*
X66409909Y-41215864D01*
X66338665Y-41322488D01*
X66247988Y-41413165D01*
X66141364Y-41484409D01*
X66141363Y-41484410D01*
X66141362Y-41484410D01*
X66022890Y-41533483D01*
X65897119Y-41558500D01*
X65768881Y-41558500D01*
X65643110Y-41533483D01*
X65524638Y-41484410D01*
X65524637Y-41484410D01*
X65524636Y-41484409D01*
X65418012Y-41413165D01*
X65327335Y-41322488D01*
X65256091Y-41215864D01*
X65234017Y-41162572D01*
X65207017Y-41097390D01*
X65182000Y-40971619D01*
X65182000Y-40843381D01*
X65207017Y-40717610D01*
X65256090Y-40599138D01*
X65327335Y-40492512D01*
X65418012Y-40401835D01*
X65524636Y-40330591D01*
X65643110Y-40281517D01*
X65768881Y-40256500D01*
X65897119Y-40256500D01*
X66022890Y-40281517D01*
X66022890Y-40281517D01*
G37*
G36*
X76022890Y-40281517D02*
G01*
X76141364Y-40330591D01*
X76247988Y-40401835D01*
X76338665Y-40492512D01*
X76409910Y-40599138D01*
X76458983Y-40717610D01*
X76484000Y-40843381D01*
X76484000Y-40971619D01*
X76458983Y-41097390D01*
X76431984Y-41162572D01*
X76409909Y-41215864D01*
X76338665Y-41322488D01*
X76247988Y-41413165D01*
X76141364Y-41484409D01*
X76141363Y-41484410D01*
X76141362Y-41484410D01*
X76022890Y-41533483D01*
X75897119Y-41558500D01*
X75768881Y-41558500D01*
X75643110Y-41533483D01*
X75524638Y-41484410D01*
X75524637Y-41484410D01*
X75524636Y-41484409D01*
X75418012Y-41413165D01*
X75327335Y-41322488D01*
X75256091Y-41215864D01*
X75234017Y-41162572D01*
X75207017Y-41097390D01*
X75182000Y-40971619D01*
X75182000Y-40843381D01*
X75207017Y-40717610D01*
X75256090Y-40599138D01*
X75327335Y-40492512D01*
X75418012Y-40401835D01*
X75524636Y-40330591D01*
X75643110Y-40281517D01*
X75768881Y-40256500D01*
X75897119Y-40256500D01*
X76022890Y-40281517D01*
X76022890Y-40281517D01*
G37*
G36*
X78717790Y-40281517D02*
G01*
X78836264Y-40330591D01*
X78942888Y-40401835D01*
X79033565Y-40492512D01*
X79104810Y-40599138D01*
X79153883Y-40717610D01*
X79178900Y-40843381D01*
X79178900Y-40971619D01*
X79153883Y-41097390D01*
X79126884Y-41162572D01*
X79104809Y-41215864D01*
X79033565Y-41322488D01*
X78942888Y-41413165D01*
X78836264Y-41484409D01*
X78836263Y-41484410D01*
X78836262Y-41484410D01*
X78717790Y-41533483D01*
X78592019Y-41558500D01*
X78463781Y-41558500D01*
X78338010Y-41533483D01*
X78219538Y-41484410D01*
X78219537Y-41484410D01*
X78219536Y-41484409D01*
X78112912Y-41413165D01*
X78022235Y-41322488D01*
X77950991Y-41215864D01*
X77928917Y-41162572D01*
X77901917Y-41097390D01*
X77876900Y-40971619D01*
X77876900Y-40843381D01*
X77901917Y-40717610D01*
X77950990Y-40599138D01*
X78022235Y-40492512D01*
X78112912Y-40401835D01*
X78219536Y-40330591D01*
X78338010Y-40281517D01*
X78463781Y-40256500D01*
X78592019Y-40256500D01*
X78717790Y-40281517D01*
X78717790Y-40281517D01*
G37*
G36*
X88717790Y-40281517D02*
G01*
X88836264Y-40330591D01*
X88942888Y-40401835D01*
X89033565Y-40492512D01*
X89104810Y-40599138D01*
X89153883Y-40717610D01*
X89178900Y-40843381D01*
X89178900Y-40971619D01*
X89153883Y-41097390D01*
X89126884Y-41162572D01*
X89104809Y-41215864D01*
X89033565Y-41322488D01*
X88942888Y-41413165D01*
X88836264Y-41484409D01*
X88836263Y-41484410D01*
X88836262Y-41484410D01*
X88717790Y-41533483D01*
X88592019Y-41558500D01*
X88463781Y-41558500D01*
X88338010Y-41533483D01*
X88219538Y-41484410D01*
X88219537Y-41484410D01*
X88219536Y-41484409D01*
X88112912Y-41413165D01*
X88022235Y-41322488D01*
X87950991Y-41215864D01*
X87928917Y-41162572D01*
X87901917Y-41097390D01*
X87876900Y-40971619D01*
X87876900Y-40843381D01*
X87901917Y-40717610D01*
X87950990Y-40599138D01*
X88022235Y-40492512D01*
X88112912Y-40401835D01*
X88219536Y-40330591D01*
X88338010Y-40281517D01*
X88463781Y-40256500D01*
X88592019Y-40256500D01*
X88717790Y-40281517D01*
X88717790Y-40281517D01*
G37*
G36*
X44360428Y-38612503D02*
G01*
X44515300Y-38676653D01*
X44654681Y-38769785D01*
X44773215Y-38888319D01*
X44866347Y-39027700D01*
X44930497Y-39182572D01*
X44963200Y-39346984D01*
X44963200Y-39514616D01*
X44930497Y-39679028D01*
X44866347Y-39833900D01*
X44773215Y-39973281D01*
X44654681Y-40091815D01*
X44515300Y-40184947D01*
X44360428Y-40249097D01*
X44196016Y-40281800D01*
X44028384Y-40281800D01*
X43863972Y-40249097D01*
X43709100Y-40184947D01*
X43569719Y-40091815D01*
X43451185Y-39973281D01*
X43358053Y-39833900D01*
X43293903Y-39679028D01*
X43261200Y-39514616D01*
X43261200Y-39346984D01*
X43293903Y-39182572D01*
X43358053Y-39027700D01*
X43451185Y-38888319D01*
X43569719Y-38769785D01*
X43709100Y-38676653D01*
X43863972Y-38612503D01*
X44028384Y-38579800D01*
X44196016Y-38579800D01*
X44360428Y-38612503D01*
X44360428Y-38612503D01*
G37*
G36*
X53520428Y-38612503D02*
G01*
X53675300Y-38676653D01*
X53814681Y-38769785D01*
X53933215Y-38888319D01*
X54026347Y-39027700D01*
X54090497Y-39182572D01*
X54123200Y-39346984D01*
X54123200Y-39514616D01*
X54090497Y-39679028D01*
X54026347Y-39833900D01*
X53933215Y-39973281D01*
X53814681Y-40091815D01*
X53675300Y-40184947D01*
X53520428Y-40249097D01*
X53356016Y-40281800D01*
X53188384Y-40281800D01*
X53023972Y-40249097D01*
X52869100Y-40184947D01*
X52729719Y-40091815D01*
X52611185Y-39973281D01*
X52518053Y-39833900D01*
X52453903Y-39679028D01*
X52421200Y-39514616D01*
X52421200Y-39346984D01*
X52453903Y-39182572D01*
X52518053Y-39027700D01*
X52611185Y-38888319D01*
X52729719Y-38769785D01*
X52869100Y-38676653D01*
X53023972Y-38612503D01*
X53188384Y-38579800D01*
X53356016Y-38579800D01*
X53520428Y-38612503D01*
X53520428Y-38612503D01*
G37*
G36*
X51230428Y-38612503D02*
G01*
X51385300Y-38676653D01*
X51524681Y-38769785D01*
X51643215Y-38888319D01*
X51736347Y-39027700D01*
X51800497Y-39182572D01*
X51833200Y-39346984D01*
X51833200Y-39514616D01*
X51800497Y-39679028D01*
X51736347Y-39833900D01*
X51643215Y-39973281D01*
X51524681Y-40091815D01*
X51385300Y-40184947D01*
X51230428Y-40249097D01*
X51066016Y-40281800D01*
X50898384Y-40281800D01*
X50733972Y-40249097D01*
X50579100Y-40184947D01*
X50439719Y-40091815D01*
X50321185Y-39973281D01*
X50228053Y-39833900D01*
X50163903Y-39679028D01*
X50131200Y-39514616D01*
X50131200Y-39346984D01*
X50163903Y-39182572D01*
X50228053Y-39027700D01*
X50321185Y-38888319D01*
X50439719Y-38769785D01*
X50579100Y-38676653D01*
X50733972Y-38612503D01*
X50898384Y-38579800D01*
X51066016Y-38579800D01*
X51230428Y-38612503D01*
X51230428Y-38612503D01*
G37*
G36*
X48940428Y-38612503D02*
G01*
X49095300Y-38676653D01*
X49234681Y-38769785D01*
X49353215Y-38888319D01*
X49446347Y-39027700D01*
X49510497Y-39182572D01*
X49543200Y-39346984D01*
X49543200Y-39514616D01*
X49510497Y-39679028D01*
X49446347Y-39833900D01*
X49353215Y-39973281D01*
X49234681Y-40091815D01*
X49095300Y-40184947D01*
X48940428Y-40249097D01*
X48776016Y-40281800D01*
X48608384Y-40281800D01*
X48443972Y-40249097D01*
X48289100Y-40184947D01*
X48149719Y-40091815D01*
X48031185Y-39973281D01*
X47938053Y-39833900D01*
X47873903Y-39679028D01*
X47841200Y-39514616D01*
X47841200Y-39346984D01*
X47873903Y-39182572D01*
X47938053Y-39027700D01*
X48031185Y-38888319D01*
X48149719Y-38769785D01*
X48289100Y-38676653D01*
X48443972Y-38612503D01*
X48608384Y-38579800D01*
X48776016Y-38579800D01*
X48940428Y-38612503D01*
X48940428Y-38612503D01*
G37*
G36*
X46650428Y-38612503D02*
G01*
X46805300Y-38676653D01*
X46944681Y-38769785D01*
X47063215Y-38888319D01*
X47156347Y-39027700D01*
X47220497Y-39182572D01*
X47253200Y-39346984D01*
X47253200Y-39514616D01*
X47220497Y-39679028D01*
X47156347Y-39833900D01*
X47063215Y-39973281D01*
X46944681Y-40091815D01*
X46805300Y-40184947D01*
X46650428Y-40249097D01*
X46486016Y-40281800D01*
X46318384Y-40281800D01*
X46153972Y-40249097D01*
X45999100Y-40184947D01*
X45859719Y-40091815D01*
X45741185Y-39973281D01*
X45648053Y-39833900D01*
X45583903Y-39679028D01*
X45551200Y-39514616D01*
X45551200Y-39346984D01*
X45583903Y-39182572D01*
X45648053Y-39027700D01*
X45741185Y-38888319D01*
X45859719Y-38769785D01*
X45999100Y-38676653D01*
X46153972Y-38612503D01*
X46318384Y-38579800D01*
X46486016Y-38579800D01*
X46650428Y-38612503D01*
X46650428Y-38612503D01*
G37*
G36*
X78717790Y-37781517D02*
G01*
X78836264Y-37830591D01*
X78942888Y-37901835D01*
X79033565Y-37992512D01*
X79104809Y-38099136D01*
X79153883Y-38217610D01*
X79178900Y-38343382D01*
X79178900Y-38471618D01*
X79153883Y-38597390D01*
X79104809Y-38715864D01*
X79033565Y-38822488D01*
X78942888Y-38913165D01*
X78836264Y-38984409D01*
X78836263Y-38984410D01*
X78836262Y-38984410D01*
X78717790Y-39033483D01*
X78592019Y-39058500D01*
X78463781Y-39058500D01*
X78338010Y-39033483D01*
X78219538Y-38984410D01*
X78219537Y-38984410D01*
X78219536Y-38984409D01*
X78112912Y-38913165D01*
X78022235Y-38822488D01*
X77950991Y-38715864D01*
X77901917Y-38597390D01*
X77876900Y-38471618D01*
X77876900Y-38343382D01*
X77901917Y-38217610D01*
X77950991Y-38099136D01*
X78022235Y-37992512D01*
X78112912Y-37901835D01*
X78219536Y-37830591D01*
X78338010Y-37781517D01*
X78463781Y-37756500D01*
X78592019Y-37756500D01*
X78717790Y-37781517D01*
X78717790Y-37781517D01*
G37*
G36*
X76022890Y-37781517D02*
G01*
X76141364Y-37830591D01*
X76247988Y-37901835D01*
X76338665Y-37992512D01*
X76409909Y-38099136D01*
X76458983Y-38217610D01*
X76484000Y-38343382D01*
X76484000Y-38471618D01*
X76458983Y-38597390D01*
X76409909Y-38715864D01*
X76338665Y-38822488D01*
X76247988Y-38913165D01*
X76141364Y-38984409D01*
X76141363Y-38984410D01*
X76141362Y-38984410D01*
X76022890Y-39033483D01*
X75897119Y-39058500D01*
X75768881Y-39058500D01*
X75643110Y-39033483D01*
X75524638Y-38984410D01*
X75524637Y-38984410D01*
X75524636Y-38984409D01*
X75418012Y-38913165D01*
X75327335Y-38822488D01*
X75256091Y-38715864D01*
X75207017Y-38597390D01*
X75182000Y-38471618D01*
X75182000Y-38343382D01*
X75207017Y-38217610D01*
X75256091Y-38099136D01*
X75327335Y-37992512D01*
X75418012Y-37901835D01*
X75524636Y-37830591D01*
X75643110Y-37781517D01*
X75768881Y-37756500D01*
X75897119Y-37756500D01*
X76022890Y-37781517D01*
X76022890Y-37781517D01*
G37*
G36*
X66022890Y-37781517D02*
G01*
X66141364Y-37830591D01*
X66247988Y-37901835D01*
X66338665Y-37992512D01*
X66409909Y-38099136D01*
X66458983Y-38217610D01*
X66484000Y-38343382D01*
X66484000Y-38471618D01*
X66458983Y-38597390D01*
X66409909Y-38715864D01*
X66338665Y-38822488D01*
X66247988Y-38913165D01*
X66141364Y-38984409D01*
X66141363Y-38984410D01*
X66141362Y-38984410D01*
X66022890Y-39033483D01*
X65897119Y-39058500D01*
X65768881Y-39058500D01*
X65643110Y-39033483D01*
X65524638Y-38984410D01*
X65524637Y-38984410D01*
X65524636Y-38984409D01*
X65418012Y-38913165D01*
X65327335Y-38822488D01*
X65256091Y-38715864D01*
X65207017Y-38597390D01*
X65182000Y-38471618D01*
X65182000Y-38343382D01*
X65207017Y-38217610D01*
X65256091Y-38099136D01*
X65327335Y-37992512D01*
X65418012Y-37901835D01*
X65524636Y-37830591D01*
X65643110Y-37781517D01*
X65768881Y-37756500D01*
X65897119Y-37756500D01*
X66022890Y-37781517D01*
X66022890Y-37781517D01*
G37*
G36*
X88717790Y-37781517D02*
G01*
X88836264Y-37830591D01*
X88942888Y-37901835D01*
X89033565Y-37992512D01*
X89104809Y-38099136D01*
X89153883Y-38217610D01*
X89178900Y-38343382D01*
X89178900Y-38471618D01*
X89153883Y-38597390D01*
X89104809Y-38715864D01*
X89033565Y-38822488D01*
X88942888Y-38913165D01*
X88836264Y-38984409D01*
X88836263Y-38984410D01*
X88836262Y-38984410D01*
X88717790Y-39033483D01*
X88592019Y-39058500D01*
X88463781Y-39058500D01*
X88338010Y-39033483D01*
X88219538Y-38984410D01*
X88219537Y-38984410D01*
X88219536Y-38984409D01*
X88112912Y-38913165D01*
X88022235Y-38822488D01*
X87950991Y-38715864D01*
X87901917Y-38597390D01*
X87876900Y-38471618D01*
X87876900Y-38343382D01*
X87901917Y-38217610D01*
X87950991Y-38099136D01*
X88022235Y-37992512D01*
X88112912Y-37901835D01*
X88219536Y-37830591D01*
X88338010Y-37781517D01*
X88463781Y-37756500D01*
X88592019Y-37756500D01*
X88717790Y-37781517D01*
X88717790Y-37781517D01*
G37*
M02*
