G04 #@! TF.GenerationSoftware,KiCad,Pcbnew,5.1.1-8be2ce7~80~ubuntu18.10.1*
G04 #@! TF.CreationDate,2019-06-22T16:49:51+02:00*
G04 #@! TF.ProjectId,Spartan6,53706172-7461-46e3-962e-6b696361645f,rev?*
G04 #@! TF.SameCoordinates,Original*
G04 #@! TF.FileFunction,Legend,Top*
G04 #@! TF.FilePolarity,Positive*
%FSLAX46Y46*%
G04 Gerber Fmt 4.6, Leading zero omitted, Abs format (unit mm)*
G04 Created by KiCad (PCBNEW 5.1.1-8be2ce7~80~ubuntu18.10.1) date 2019-06-22 16:49:51*
%MOMM*%
%LPD*%
G04 APERTURE LIST*
%ADD10C,0.150000*%
%ADD11C,0.100000*%
%ADD12C,0.010000*%
%ADD13C,0.120000*%
%ADD14C,0.200000*%
%ADD15C,0.127000*%
%ADD16C,0.254000*%
%ADD17C,0.050000*%
G04 APERTURE END LIST*
D10*
X63340551Y-73765160D02*
X64007218Y-73765160D01*
X63340551Y-74765160D01*
X64007218Y-74765160D01*
X64292932Y-74765160D02*
X64816741Y-74098494D01*
X64292932Y-74098494D02*
X64816741Y-74765160D01*
X65197694Y-73765160D02*
X65197694Y-74574684D01*
X65245313Y-74669922D01*
X65292932Y-74717541D01*
X65388170Y-74765160D01*
X65578646Y-74765160D01*
X65673884Y-74717541D01*
X65721503Y-74669922D01*
X65769122Y-74574684D01*
X65769122Y-73765160D01*
X66245313Y-74098494D02*
X66245313Y-74765160D01*
X66245313Y-74193732D02*
X66292932Y-74146113D01*
X66388170Y-74098494D01*
X66531027Y-74098494D01*
X66626265Y-74146113D01*
X66673884Y-74241351D01*
X66673884Y-74765160D01*
X67292932Y-74765160D02*
X67197694Y-74717541D01*
X67150075Y-74669922D01*
X67102456Y-74574684D01*
X67102456Y-74288970D01*
X67150075Y-74193732D01*
X67197694Y-74146113D01*
X67292932Y-74098494D01*
X67435789Y-74098494D01*
X67531027Y-74146113D01*
X67578646Y-74193732D01*
X67626265Y-74288970D01*
X67626265Y-74574684D01*
X67578646Y-74669922D01*
X67531027Y-74717541D01*
X67435789Y-74765160D01*
X67292932Y-74765160D01*
X69150075Y-74241351D02*
X69292932Y-74288970D01*
X69340551Y-74336589D01*
X69388170Y-74431827D01*
X69388170Y-74574684D01*
X69340551Y-74669922D01*
X69292932Y-74717541D01*
X69197694Y-74765160D01*
X68816741Y-74765160D01*
X68816741Y-73765160D01*
X69150075Y-73765160D01*
X69245313Y-73812780D01*
X69292932Y-73860399D01*
X69340551Y-73955637D01*
X69340551Y-74050875D01*
X69292932Y-74146113D01*
X69245313Y-74193732D01*
X69150075Y-74241351D01*
X68816741Y-74241351D01*
X70245313Y-74765160D02*
X70245313Y-74241351D01*
X70197694Y-74146113D01*
X70102456Y-74098494D01*
X69911980Y-74098494D01*
X69816741Y-74146113D01*
X70245313Y-74717541D02*
X70150075Y-74765160D01*
X69911980Y-74765160D01*
X69816741Y-74717541D01*
X69769122Y-74622303D01*
X69769122Y-74527065D01*
X69816741Y-74431827D01*
X69911980Y-74384208D01*
X70150075Y-74384208D01*
X70245313Y-74336589D01*
X70673884Y-74717541D02*
X70769122Y-74765160D01*
X70959599Y-74765160D01*
X71054837Y-74717541D01*
X71102456Y-74622303D01*
X71102456Y-74574684D01*
X71054837Y-74479446D01*
X70959599Y-74431827D01*
X70816741Y-74431827D01*
X70721503Y-74384208D01*
X70673884Y-74288970D01*
X70673884Y-74241351D01*
X70721503Y-74146113D01*
X70816741Y-74098494D01*
X70959599Y-74098494D01*
X71054837Y-74146113D01*
X71531027Y-74765160D02*
X71531027Y-74098494D01*
X71531027Y-73765160D02*
X71483408Y-73812780D01*
X71531027Y-73860399D01*
X71578646Y-73812780D01*
X71531027Y-73765160D01*
X71531027Y-73860399D01*
X72435789Y-74717541D02*
X72340551Y-74765160D01*
X72150075Y-74765160D01*
X72054837Y-74717541D01*
X72007218Y-74669922D01*
X71959599Y-74574684D01*
X71959599Y-74288970D01*
X72007218Y-74193732D01*
X72054837Y-74146113D01*
X72150075Y-74098494D01*
X72340551Y-74098494D01*
X72435789Y-74146113D01*
X77843522Y-49509371D02*
X78176856Y-49509371D01*
X78319713Y-50033180D02*
X77843522Y-50033180D01*
X77843522Y-49033180D01*
X78319713Y-49033180D01*
X78700665Y-49747466D02*
X79176856Y-49747466D01*
X78605427Y-50033180D02*
X78938760Y-49033180D01*
X79272094Y-50033180D01*
X80176856Y-50033180D02*
X79843522Y-49556990D01*
X79605427Y-50033180D02*
X79605427Y-49033180D01*
X79986380Y-49033180D01*
X80081618Y-49080800D01*
X80129237Y-49128419D01*
X80176856Y-49223657D01*
X80176856Y-49366514D01*
X80129237Y-49461752D01*
X80081618Y-49509371D01*
X79986380Y-49556990D01*
X79605427Y-49556990D01*
D11*
X87348998Y-93893770D02*
X87348998Y-93393770D01*
X87539474Y-93393770D01*
X87587093Y-93417580D01*
X87610902Y-93441389D01*
X87634712Y-93489008D01*
X87634712Y-93560437D01*
X87610902Y-93608056D01*
X87587093Y-93631865D01*
X87539474Y-93655675D01*
X87348998Y-93655675D01*
X87944236Y-93393770D02*
X88039474Y-93393770D01*
X88087093Y-93417580D01*
X88134712Y-93465199D01*
X88158521Y-93560437D01*
X88158521Y-93727103D01*
X88134712Y-93822341D01*
X88087093Y-93869960D01*
X88039474Y-93893770D01*
X87944236Y-93893770D01*
X87896617Y-93869960D01*
X87848998Y-93822341D01*
X87825188Y-93727103D01*
X87825188Y-93560437D01*
X87848998Y-93465199D01*
X87896617Y-93417580D01*
X87944236Y-93393770D01*
X88325188Y-93393770D02*
X88444236Y-93893770D01*
X88539474Y-93536627D01*
X88634712Y-93893770D01*
X88753760Y-93393770D01*
X88944236Y-93631865D02*
X89110902Y-93631865D01*
X89182331Y-93893770D02*
X88944236Y-93893770D01*
X88944236Y-93393770D01*
X89182331Y-93393770D01*
X89682331Y-93893770D02*
X89515664Y-93655675D01*
X89396617Y-93893770D02*
X89396617Y-93393770D01*
X89587093Y-93393770D01*
X89634712Y-93417580D01*
X89658521Y-93441389D01*
X89682331Y-93489008D01*
X89682331Y-93560437D01*
X89658521Y-93608056D01*
X89634712Y-93631865D01*
X89587093Y-93655675D01*
X89396617Y-93655675D01*
X84959736Y-93763613D02*
X85197831Y-93763613D01*
X84912117Y-93906470D02*
X85078783Y-93406470D01*
X85245450Y-93906470D01*
X85697831Y-93858851D02*
X85674021Y-93882660D01*
X85602593Y-93906470D01*
X85554974Y-93906470D01*
X85483545Y-93882660D01*
X85435926Y-93835041D01*
X85412117Y-93787422D01*
X85388307Y-93692184D01*
X85388307Y-93620756D01*
X85412117Y-93525518D01*
X85435926Y-93477899D01*
X85483545Y-93430280D01*
X85554974Y-93406470D01*
X85602593Y-93406470D01*
X85674021Y-93430280D01*
X85697831Y-93454089D01*
X85840688Y-93406470D02*
X86126402Y-93406470D01*
X85983545Y-93906470D02*
X85983545Y-93406470D01*
D10*
X81562439Y-79718160D02*
X81229105Y-79241970D01*
X80991010Y-79718160D02*
X80991010Y-78718160D01*
X81371962Y-78718160D01*
X81467200Y-78765780D01*
X81514820Y-78813399D01*
X81562439Y-78908637D01*
X81562439Y-79051494D01*
X81514820Y-79146732D01*
X81467200Y-79194351D01*
X81371962Y-79241970D01*
X80991010Y-79241970D01*
X81991010Y-79194351D02*
X82324343Y-79194351D01*
X82467200Y-79718160D02*
X81991010Y-79718160D01*
X81991010Y-78718160D01*
X82467200Y-78718160D01*
X82848153Y-79670541D02*
X82991010Y-79718160D01*
X83229105Y-79718160D01*
X83324343Y-79670541D01*
X83371962Y-79622922D01*
X83419581Y-79527684D01*
X83419581Y-79432446D01*
X83371962Y-79337208D01*
X83324343Y-79289589D01*
X83229105Y-79241970D01*
X83038629Y-79194351D01*
X82943391Y-79146732D01*
X82895772Y-79099113D01*
X82848153Y-79003875D01*
X82848153Y-78908637D01*
X82895772Y-78813399D01*
X82943391Y-78765780D01*
X83038629Y-78718160D01*
X83276724Y-78718160D01*
X83419581Y-78765780D01*
X83848153Y-79194351D02*
X84181486Y-79194351D01*
X84324343Y-79718160D02*
X83848153Y-79718160D01*
X83848153Y-78718160D01*
X84324343Y-78718160D01*
X84610058Y-78718160D02*
X85181486Y-78718160D01*
X84895772Y-79718160D02*
X84895772Y-78718160D01*
X74570934Y-72128568D02*
X75570934Y-72128568D01*
X75094743Y-71652378D02*
X75189981Y-71604759D01*
X75237600Y-71509520D01*
X75094743Y-72128568D02*
X75189981Y-72080949D01*
X75237600Y-71985711D01*
X75237600Y-71795235D01*
X75189981Y-71699997D01*
X75094743Y-71652378D01*
X74570934Y-71652378D01*
X75189981Y-71128568D02*
X75237600Y-70985711D01*
X75237600Y-70747616D01*
X75189981Y-70652378D01*
X75142362Y-70604759D01*
X75047124Y-70557140D01*
X74951886Y-70557140D01*
X74856648Y-70604759D01*
X74809029Y-70652378D01*
X74761410Y-70747616D01*
X74713791Y-70938092D01*
X74666172Y-71033330D01*
X74618553Y-71080949D01*
X74523315Y-71128568D01*
X74428077Y-71128568D01*
X74332839Y-71080949D01*
X74285220Y-71033330D01*
X74237600Y-70938092D01*
X74237600Y-70699997D01*
X74285220Y-70557140D01*
X75237600Y-70128568D02*
X74237600Y-70128568D01*
X74237600Y-69890473D01*
X74285220Y-69747616D01*
X74380458Y-69652378D01*
X74475696Y-69604759D01*
X74666172Y-69557140D01*
X74809029Y-69557140D01*
X74999505Y-69604759D01*
X75094743Y-69652378D01*
X75189981Y-69747616D01*
X75237600Y-69890473D01*
X75237600Y-70128568D01*
X75142362Y-67795235D02*
X75189981Y-67842854D01*
X75237600Y-67985711D01*
X75237600Y-68080949D01*
X75189981Y-68223806D01*
X75094743Y-68319044D01*
X74999505Y-68366663D01*
X74809029Y-68414282D01*
X74666172Y-68414282D01*
X74475696Y-68366663D01*
X74380458Y-68319044D01*
X74285220Y-68223806D01*
X74237600Y-68080949D01*
X74237600Y-67985711D01*
X74285220Y-67842854D01*
X74332839Y-67795235D01*
X74951886Y-67414282D02*
X74951886Y-66938092D01*
X75237600Y-67509520D02*
X74237600Y-67176187D01*
X75237600Y-66842854D01*
X75237600Y-65938092D02*
X74761410Y-66271425D01*
X75237600Y-66509520D02*
X74237600Y-66509520D01*
X74237600Y-66128568D01*
X74285220Y-66033330D01*
X74332839Y-65985711D01*
X74428077Y-65938092D01*
X74570934Y-65938092D01*
X74666172Y-65985711D01*
X74713791Y-66033330D01*
X74761410Y-66128568D01*
X74761410Y-66509520D01*
X75237600Y-65509520D02*
X74237600Y-65509520D01*
X74237600Y-65271425D01*
X74285220Y-65128568D01*
X74380458Y-65033330D01*
X74475696Y-64985711D01*
X74666172Y-64938092D01*
X74809029Y-64938092D01*
X74999505Y-64985711D01*
X75094743Y-65033330D01*
X75189981Y-65128568D01*
X75237600Y-65271425D01*
X75237600Y-65509520D01*
X38693221Y-81511400D02*
X38693221Y-80511400D01*
X39264650Y-81511400D02*
X38836079Y-80939972D01*
X39264650Y-80511400D02*
X38693221Y-81082829D01*
X39693221Y-80987591D02*
X40026555Y-80987591D01*
X40169412Y-81511400D02*
X39693221Y-81511400D01*
X39693221Y-80511400D01*
X40169412Y-80511400D01*
X40788460Y-81035210D02*
X40788460Y-81511400D01*
X40455126Y-80511400D02*
X40788460Y-81035210D01*
X41121793Y-80511400D01*
X41788460Y-80987591D02*
X41931317Y-81035210D01*
X41978936Y-81082829D01*
X42026555Y-81178067D01*
X42026555Y-81320924D01*
X41978936Y-81416162D01*
X41931317Y-81463781D01*
X41836079Y-81511400D01*
X41455126Y-81511400D01*
X41455126Y-80511400D01*
X41788460Y-80511400D01*
X41883698Y-80559020D01*
X41931317Y-80606639D01*
X41978936Y-80701877D01*
X41978936Y-80797115D01*
X41931317Y-80892353D01*
X41883698Y-80939972D01*
X41788460Y-80987591D01*
X41455126Y-80987591D01*
X42645602Y-80511400D02*
X42836079Y-80511400D01*
X42931317Y-80559020D01*
X43026555Y-80654258D01*
X43074174Y-80844734D01*
X43074174Y-81178067D01*
X43026555Y-81368543D01*
X42931317Y-81463781D01*
X42836079Y-81511400D01*
X42645602Y-81511400D01*
X42550364Y-81463781D01*
X42455126Y-81368543D01*
X42407507Y-81178067D01*
X42407507Y-80844734D01*
X42455126Y-80654258D01*
X42550364Y-80559020D01*
X42645602Y-80511400D01*
X43455126Y-81225686D02*
X43931317Y-81225686D01*
X43359888Y-81511400D02*
X43693221Y-80511400D01*
X44026555Y-81511400D01*
X44931317Y-81511400D02*
X44597983Y-81035210D01*
X44359888Y-81511400D02*
X44359888Y-80511400D01*
X44740840Y-80511400D01*
X44836079Y-80559020D01*
X44883698Y-80606639D01*
X44931317Y-80701877D01*
X44931317Y-80844734D01*
X44883698Y-80939972D01*
X44836079Y-80987591D01*
X44740840Y-81035210D01*
X44359888Y-81035210D01*
X45359888Y-81511400D02*
X45359888Y-80511400D01*
X45597983Y-80511400D01*
X45740840Y-80559020D01*
X45836079Y-80654258D01*
X45883698Y-80749496D01*
X45931317Y-80939972D01*
X45931317Y-81082829D01*
X45883698Y-81273305D01*
X45836079Y-81368543D01*
X45740840Y-81463781D01*
X45597983Y-81511400D01*
X45359888Y-81511400D01*
X76476196Y-55461160D02*
X76476196Y-54461160D01*
X76857148Y-54461160D01*
X76952386Y-54508780D01*
X77000005Y-54556399D01*
X77047624Y-54651637D01*
X77047624Y-54794494D01*
X77000005Y-54889732D01*
X76952386Y-54937351D01*
X76857148Y-54984970D01*
X76476196Y-54984970D01*
X77666672Y-54461160D02*
X77857148Y-54461160D01*
X77952386Y-54508780D01*
X78047624Y-54604018D01*
X78095243Y-54794494D01*
X78095243Y-55127827D01*
X78047624Y-55318303D01*
X77952386Y-55413541D01*
X77857148Y-55461160D01*
X77666672Y-55461160D01*
X77571434Y-55413541D01*
X77476196Y-55318303D01*
X77428577Y-55127827D01*
X77428577Y-54794494D01*
X77476196Y-54604018D01*
X77571434Y-54508780D01*
X77666672Y-54461160D01*
X78428577Y-54461160D02*
X78666672Y-55461160D01*
X78857148Y-54746875D01*
X79047624Y-55461160D01*
X79285720Y-54461160D01*
X79666672Y-54937351D02*
X80000005Y-54937351D01*
X80142862Y-55461160D02*
X79666672Y-55461160D01*
X79666672Y-54461160D01*
X80142862Y-54461160D01*
X81142862Y-55461160D02*
X80809529Y-54984970D01*
X80571434Y-55461160D02*
X80571434Y-54461160D01*
X80952386Y-54461160D01*
X81047624Y-54508780D01*
X81095243Y-54556399D01*
X81142862Y-54651637D01*
X81142862Y-54794494D01*
X81095243Y-54889732D01*
X81047624Y-54937351D01*
X80952386Y-54984970D01*
X80571434Y-54984970D01*
X65281538Y-80773020D02*
X65281538Y-81487306D01*
X65233919Y-81630163D01*
X65138680Y-81725401D01*
X64995823Y-81773020D01*
X64900585Y-81773020D01*
X65948204Y-80773020D02*
X66138680Y-80773020D01*
X66233919Y-80820640D01*
X66329157Y-80915878D01*
X66376776Y-81106354D01*
X66376776Y-81439687D01*
X66329157Y-81630163D01*
X66233919Y-81725401D01*
X66138680Y-81773020D01*
X65948204Y-81773020D01*
X65852966Y-81725401D01*
X65757728Y-81630163D01*
X65710109Y-81439687D01*
X65710109Y-81106354D01*
X65757728Y-80915878D01*
X65852966Y-80820640D01*
X65948204Y-80773020D01*
X66995823Y-81296830D02*
X66995823Y-81773020D01*
X66662490Y-80773020D02*
X66995823Y-81296830D01*
X67329157Y-80773020D01*
X67614871Y-81725401D02*
X67757728Y-81773020D01*
X67995823Y-81773020D01*
X68091061Y-81725401D01*
X68138680Y-81677782D01*
X68186300Y-81582544D01*
X68186300Y-81487306D01*
X68138680Y-81392068D01*
X68091061Y-81344449D01*
X67995823Y-81296830D01*
X67805347Y-81249211D01*
X67710109Y-81201592D01*
X67662490Y-81153973D01*
X67614871Y-81058735D01*
X67614871Y-80963497D01*
X67662490Y-80868259D01*
X67710109Y-80820640D01*
X67805347Y-80773020D01*
X68043442Y-80773020D01*
X68186300Y-80820640D01*
X68472014Y-80773020D02*
X69043442Y-80773020D01*
X68757728Y-81773020D02*
X68757728Y-80773020D01*
X69376776Y-81773020D02*
X69376776Y-80773020D01*
X70424395Y-81677782D02*
X70376776Y-81725401D01*
X70233919Y-81773020D01*
X70138680Y-81773020D01*
X69995823Y-81725401D01*
X69900585Y-81630163D01*
X69852966Y-81534925D01*
X69805347Y-81344449D01*
X69805347Y-81201592D01*
X69852966Y-81011116D01*
X69900585Y-80915878D01*
X69995823Y-80820640D01*
X70138680Y-80773020D01*
X70233919Y-80773020D01*
X70376776Y-80820640D01*
X70424395Y-80868259D01*
X70852966Y-81773020D02*
X70852966Y-80773020D01*
X71424395Y-81773020D02*
X70995823Y-81201592D01*
X71424395Y-80773020D02*
X70852966Y-81344449D01*
X70452550Y-49772866D02*
X70928740Y-49772866D01*
X70357312Y-50058580D02*
X70690645Y-49058580D01*
X71023979Y-50058580D01*
X71357312Y-49058580D02*
X71357312Y-49868104D01*
X71404931Y-49963342D01*
X71452550Y-50010961D01*
X71547788Y-50058580D01*
X71738264Y-50058580D01*
X71833502Y-50010961D01*
X71881121Y-49963342D01*
X71928740Y-49868104D01*
X71928740Y-49058580D01*
X72404931Y-50058580D02*
X72404931Y-49058580D01*
X72643026Y-49058580D01*
X72785883Y-49106200D01*
X72881121Y-49201438D01*
X72928740Y-49296676D01*
X72976360Y-49487152D01*
X72976360Y-49630009D01*
X72928740Y-49820485D01*
X72881121Y-49915723D01*
X72785883Y-50010961D01*
X72643026Y-50058580D01*
X72404931Y-50058580D01*
X73404931Y-50058580D02*
X73404931Y-49058580D01*
X74071598Y-49058580D02*
X74262074Y-49058580D01*
X74357312Y-49106200D01*
X74452550Y-49201438D01*
X74500169Y-49391914D01*
X74500169Y-49725247D01*
X74452550Y-49915723D01*
X74357312Y-50010961D01*
X74262074Y-50058580D01*
X74071598Y-50058580D01*
X73976360Y-50010961D01*
X73881121Y-49915723D01*
X73833502Y-49725247D01*
X73833502Y-49391914D01*
X73881121Y-49201438D01*
X73976360Y-49106200D01*
X74071598Y-49058580D01*
X36232293Y-49820580D02*
X36232293Y-50534866D01*
X36184674Y-50677723D01*
X36089436Y-50772961D01*
X35946579Y-50820580D01*
X35851340Y-50820580D01*
X36565626Y-49820580D02*
X37137055Y-49820580D01*
X36851340Y-50820580D02*
X36851340Y-49820580D01*
X37422769Y-50534866D02*
X37898960Y-50534866D01*
X37327531Y-50820580D02*
X37660864Y-49820580D01*
X37994198Y-50820580D01*
X38851340Y-49868200D02*
X38756102Y-49820580D01*
X38613245Y-49820580D01*
X38470388Y-49868200D01*
X38375150Y-49963438D01*
X38327531Y-50058676D01*
X38279912Y-50249152D01*
X38279912Y-50392009D01*
X38327531Y-50582485D01*
X38375150Y-50677723D01*
X38470388Y-50772961D01*
X38613245Y-50820580D01*
X38708483Y-50820580D01*
X38851340Y-50772961D01*
X38898960Y-50725342D01*
X38898960Y-50392009D01*
X38708483Y-50392009D01*
X78595695Y-71689980D02*
X78929028Y-72689980D01*
X79262361Y-71689980D01*
X80119504Y-71737600D02*
X80024266Y-71689980D01*
X79881409Y-71689980D01*
X79738552Y-71737600D01*
X79643314Y-71832838D01*
X79595695Y-71928076D01*
X79548076Y-72118552D01*
X79548076Y-72261409D01*
X79595695Y-72451885D01*
X79643314Y-72547123D01*
X79738552Y-72642361D01*
X79881409Y-72689980D01*
X79976647Y-72689980D01*
X80119504Y-72642361D01*
X80167123Y-72594742D01*
X80167123Y-72261409D01*
X79976647Y-72261409D01*
X80548076Y-72404266D02*
X81024266Y-72404266D01*
X80452838Y-72689980D02*
X80786171Y-71689980D01*
X81119504Y-72689980D01*
D12*
G36*
X67110053Y-75280521D02*
G01*
X67471821Y-75280525D01*
X67817405Y-75280535D01*
X68147181Y-75280550D01*
X68461524Y-75280571D01*
X68760808Y-75280601D01*
X69045409Y-75280640D01*
X69315701Y-75280690D01*
X69572061Y-75280751D01*
X69814862Y-75280824D01*
X70044479Y-75280912D01*
X70261288Y-75281015D01*
X70465664Y-75281133D01*
X70657981Y-75281270D01*
X70838615Y-75281424D01*
X71007941Y-75281599D01*
X71166333Y-75281794D01*
X71314167Y-75282011D01*
X71451817Y-75282252D01*
X71579659Y-75282517D01*
X71698068Y-75282807D01*
X71807418Y-75283124D01*
X71908085Y-75283470D01*
X72000443Y-75283844D01*
X72084868Y-75284248D01*
X72161734Y-75284683D01*
X72231417Y-75285152D01*
X72294292Y-75285653D01*
X72350733Y-75286190D01*
X72401116Y-75286763D01*
X72445815Y-75287373D01*
X72485206Y-75288021D01*
X72519664Y-75288709D01*
X72549562Y-75289437D01*
X72575278Y-75290208D01*
X72597185Y-75291021D01*
X72615658Y-75291879D01*
X72631074Y-75292782D01*
X72643805Y-75293731D01*
X72654228Y-75294729D01*
X72662718Y-75295775D01*
X72669649Y-75296871D01*
X72675397Y-75298018D01*
X72679560Y-75299016D01*
X72813673Y-75343329D01*
X72938940Y-75404611D01*
X73054652Y-75482010D01*
X73160097Y-75574673D01*
X73254567Y-75681749D01*
X73337349Y-75802385D01*
X73407736Y-75935728D01*
X73465015Y-76080927D01*
X73508478Y-76237129D01*
X73523513Y-76311760D01*
X73525712Y-76324956D01*
X73527692Y-76339354D01*
X73529464Y-76356030D01*
X73531041Y-76376059D01*
X73532433Y-76400515D01*
X73533652Y-76430475D01*
X73534709Y-76467012D01*
X73535615Y-76511203D01*
X73536383Y-76564122D01*
X73537023Y-76626844D01*
X73537547Y-76700445D01*
X73537966Y-76786000D01*
X73538292Y-76884583D01*
X73538536Y-76997271D01*
X73538710Y-77125138D01*
X73538824Y-77269259D01*
X73538891Y-77430709D01*
X73538921Y-77610564D01*
X73538927Y-77764640D01*
X73538917Y-77959627D01*
X73538880Y-78135370D01*
X73538804Y-78292944D01*
X73538677Y-78433422D01*
X73538489Y-78557882D01*
X73538229Y-78667397D01*
X73537883Y-78763042D01*
X73537442Y-78845894D01*
X73536894Y-78917027D01*
X73536227Y-78977516D01*
X73535430Y-79028437D01*
X73534491Y-79070864D01*
X73533400Y-79105873D01*
X73532144Y-79134538D01*
X73530713Y-79157936D01*
X73529094Y-79177140D01*
X73527277Y-79193227D01*
X73525251Y-79207271D01*
X73523513Y-79217520D01*
X73486593Y-79378932D01*
X73435420Y-79529659D01*
X73370151Y-79669348D01*
X73290946Y-79797643D01*
X73229665Y-79877645D01*
X73132175Y-79981321D01*
X73025501Y-80069074D01*
X72908765Y-80141474D01*
X72781091Y-80199092D01*
X72688027Y-80229990D01*
X72683491Y-80231173D01*
X72678003Y-80232305D01*
X72671188Y-80233386D01*
X72662671Y-80234418D01*
X72652077Y-80235403D01*
X72639032Y-80236341D01*
X72623161Y-80237234D01*
X72604090Y-80238083D01*
X72581443Y-80238890D01*
X72554846Y-80239655D01*
X72523924Y-80240380D01*
X72488303Y-80241066D01*
X72447607Y-80241715D01*
X72401463Y-80242327D01*
X72349495Y-80242905D01*
X72291329Y-80243449D01*
X72226590Y-80243960D01*
X72154903Y-80244440D01*
X72075894Y-80244890D01*
X71989187Y-80245312D01*
X71894409Y-80245707D01*
X71791185Y-80246075D01*
X71679139Y-80246418D01*
X71557897Y-80246738D01*
X71427085Y-80247036D01*
X71286327Y-80247313D01*
X71135249Y-80247570D01*
X70973477Y-80247808D01*
X70800635Y-80248029D01*
X70616349Y-80248235D01*
X70420244Y-80248426D01*
X70211945Y-80248603D01*
X69991079Y-80248769D01*
X69757269Y-80248923D01*
X69510142Y-80249068D01*
X69249322Y-80249205D01*
X68974436Y-80249335D01*
X68685107Y-80249459D01*
X68380962Y-80249579D01*
X68061626Y-80249695D01*
X67726724Y-80249810D01*
X67375882Y-80249924D01*
X67008724Y-80250039D01*
X66761360Y-80250114D01*
X66371431Y-80250226D01*
X65998104Y-80250320D01*
X65641052Y-80250396D01*
X65299943Y-80250453D01*
X64974448Y-80250490D01*
X64664238Y-80250507D01*
X64368981Y-80250503D01*
X64088349Y-80250478D01*
X63822012Y-80250431D01*
X63569639Y-80250361D01*
X63330901Y-80250267D01*
X63105469Y-80250150D01*
X62893011Y-80250008D01*
X62693199Y-80249841D01*
X62505702Y-80249648D01*
X62330191Y-80249429D01*
X62166336Y-80249182D01*
X62013806Y-80248908D01*
X61872273Y-80248606D01*
X61741406Y-80248275D01*
X61620876Y-80247914D01*
X61510352Y-80247523D01*
X61409505Y-80247101D01*
X61318005Y-80246647D01*
X61235521Y-80246162D01*
X61161726Y-80245644D01*
X61096287Y-80245093D01*
X61038876Y-80244507D01*
X60989163Y-80243887D01*
X60946817Y-80243232D01*
X60911510Y-80242541D01*
X60882910Y-80241814D01*
X60860689Y-80241050D01*
X60844516Y-80240248D01*
X60834062Y-80239408D01*
X60830460Y-80238897D01*
X60698016Y-80203682D01*
X60572560Y-80150716D01*
X60455078Y-80080992D01*
X60346554Y-79995502D01*
X60247973Y-79895239D01*
X60160321Y-79781194D01*
X60084582Y-79654362D01*
X60021742Y-79515733D01*
X59975996Y-79378010D01*
X59968849Y-79352664D01*
X59962395Y-79329791D01*
X59956598Y-79308288D01*
X59951424Y-79287051D01*
X59946836Y-79264979D01*
X59942799Y-79240966D01*
X59939280Y-79213911D01*
X59936241Y-79182709D01*
X59933649Y-79146259D01*
X59931467Y-79103455D01*
X59929661Y-79053196D01*
X59928196Y-78994378D01*
X59927035Y-78925898D01*
X59926145Y-78846652D01*
X59925490Y-78755537D01*
X59925035Y-78651451D01*
X59924744Y-78533289D01*
X59924582Y-78399949D01*
X59924514Y-78250327D01*
X59924506Y-78083321D01*
X59924521Y-77897826D01*
X59924524Y-77811283D01*
X59990963Y-77811283D01*
X59991076Y-77961367D01*
X59991328Y-78109507D01*
X59991719Y-78254219D01*
X59992249Y-78394019D01*
X59992919Y-78527422D01*
X59993727Y-78652945D01*
X59994675Y-78769102D01*
X59995762Y-78874411D01*
X59996988Y-78967386D01*
X59998354Y-79046543D01*
X59999858Y-79110399D01*
X60001502Y-79157468D01*
X60003285Y-79186268D01*
X60004000Y-79192120D01*
X60037319Y-79345562D01*
X60084947Y-79488260D01*
X60147134Y-79620795D01*
X60224130Y-79743748D01*
X60263100Y-79795385D01*
X60360598Y-79904389D01*
X60464570Y-79994681D01*
X60575440Y-80066523D01*
X60693629Y-80120180D01*
X60819558Y-80155917D01*
X60847564Y-80161263D01*
X60858815Y-80161757D01*
X60886597Y-80162238D01*
X60930509Y-80162705D01*
X60990148Y-80163158D01*
X61065112Y-80163597D01*
X61154999Y-80164021D01*
X61259408Y-80164430D01*
X61377936Y-80164823D01*
X61510181Y-80165199D01*
X61655741Y-80165559D01*
X61814214Y-80165901D01*
X61985198Y-80166226D01*
X62168292Y-80166532D01*
X62363092Y-80166820D01*
X62569198Y-80167088D01*
X62786207Y-80167336D01*
X63013717Y-80167564D01*
X63251325Y-80167772D01*
X63498631Y-80167958D01*
X63755232Y-80168122D01*
X64020725Y-80168264D01*
X64294710Y-80168384D01*
X64576784Y-80168480D01*
X64866544Y-80168553D01*
X65163589Y-80168601D01*
X65467518Y-80168625D01*
X65777927Y-80168623D01*
X66094415Y-80168596D01*
X66416579Y-80168543D01*
X66744019Y-80168463D01*
X66761360Y-80168458D01*
X67139797Y-80168348D01*
X67501674Y-80168238D01*
X67847363Y-80168126D01*
X68177239Y-80168013D01*
X68491672Y-80167896D01*
X68791038Y-80167775D01*
X69075708Y-80167647D01*
X69346056Y-80167513D01*
X69602454Y-80167370D01*
X69845276Y-80167218D01*
X70074895Y-80167055D01*
X70291683Y-80166881D01*
X70496014Y-80166693D01*
X70688260Y-80166491D01*
X70868796Y-80166274D01*
X71037993Y-80166040D01*
X71196224Y-80165788D01*
X71343863Y-80165517D01*
X71481283Y-80165225D01*
X71608856Y-80164913D01*
X71726956Y-80164577D01*
X71835956Y-80164218D01*
X71936228Y-80163833D01*
X72028146Y-80163423D01*
X72112083Y-80162984D01*
X72188411Y-80162517D01*
X72257504Y-80162021D01*
X72319734Y-80161493D01*
X72375475Y-80160932D01*
X72425100Y-80160338D01*
X72468981Y-80159710D01*
X72507492Y-80159045D01*
X72541005Y-80158344D01*
X72569894Y-80157604D01*
X72594532Y-80156824D01*
X72615291Y-80156004D01*
X72632545Y-80155142D01*
X72646666Y-80154236D01*
X72658028Y-80153287D01*
X72667004Y-80152291D01*
X72673966Y-80151249D01*
X72679288Y-80150159D01*
X72682305Y-80149346D01*
X72793173Y-80110752D01*
X72891130Y-80064900D01*
X72979697Y-80009440D01*
X73062397Y-79942024D01*
X73142748Y-79860304D01*
X73179618Y-79817589D01*
X73256797Y-79716816D01*
X73319587Y-79615950D01*
X73370186Y-79510802D01*
X73410789Y-79397178D01*
X73423954Y-79351279D01*
X73430552Y-79327060D01*
X73436506Y-79305025D01*
X73441849Y-79284067D01*
X73446614Y-79263077D01*
X73450835Y-79240947D01*
X73454544Y-79216569D01*
X73457774Y-79188835D01*
X73460558Y-79156637D01*
X73462929Y-79118866D01*
X73464921Y-79074415D01*
X73466565Y-79022175D01*
X73467896Y-78961038D01*
X73468946Y-78889897D01*
X73469748Y-78807643D01*
X73470336Y-78713168D01*
X73470741Y-78605363D01*
X73470997Y-78483122D01*
X73471138Y-78345335D01*
X73471196Y-78190894D01*
X73471204Y-78018692D01*
X73471195Y-77827620D01*
X73471193Y-77764640D01*
X73471201Y-77567518D01*
X73471202Y-77389607D01*
X73471163Y-77229801D01*
X73471052Y-77086990D01*
X73470834Y-76960067D01*
X73470479Y-76847923D01*
X73469951Y-76749451D01*
X73469219Y-76663541D01*
X73468249Y-76589087D01*
X73467008Y-76524980D01*
X73465464Y-76470111D01*
X73463583Y-76423374D01*
X73461332Y-76383658D01*
X73458679Y-76349858D01*
X73455590Y-76320864D01*
X73452033Y-76295568D01*
X73447974Y-76272862D01*
X73443380Y-76251638D01*
X73438219Y-76230788D01*
X73432457Y-76209204D01*
X73426062Y-76185778D01*
X73423954Y-76178000D01*
X73386548Y-76060092D01*
X73339976Y-75952241D01*
X73282040Y-75850253D01*
X73210544Y-75749937D01*
X73179618Y-75711690D01*
X73084823Y-75609197D01*
X72986237Y-75525504D01*
X72881638Y-75459180D01*
X72768804Y-75408791D01*
X72658393Y-75375887D01*
X72645853Y-75374914D01*
X72616908Y-75373971D01*
X72572087Y-75373059D01*
X72511918Y-75372177D01*
X72436930Y-75371327D01*
X72347651Y-75370508D01*
X72244611Y-75369719D01*
X72128337Y-75368961D01*
X71999358Y-75368235D01*
X71858203Y-75367539D01*
X71705400Y-75366874D01*
X71541477Y-75366240D01*
X71366964Y-75365636D01*
X71182389Y-75365064D01*
X70988281Y-75364522D01*
X70785167Y-75364012D01*
X70573577Y-75363532D01*
X70354039Y-75363083D01*
X70127081Y-75362665D01*
X69893233Y-75362278D01*
X69653022Y-75361922D01*
X69406978Y-75361596D01*
X69155628Y-75361302D01*
X68899502Y-75361038D01*
X68639128Y-75360806D01*
X68375035Y-75360604D01*
X68107750Y-75360433D01*
X67837803Y-75360293D01*
X67565722Y-75360183D01*
X67292036Y-75360105D01*
X67017273Y-75360058D01*
X66741962Y-75360041D01*
X66466631Y-75360055D01*
X66191809Y-75360100D01*
X65918025Y-75360176D01*
X65645807Y-75360283D01*
X65375683Y-75360421D01*
X65108182Y-75360590D01*
X64843833Y-75360789D01*
X64583164Y-75361020D01*
X64326704Y-75361281D01*
X64074982Y-75361573D01*
X63828525Y-75361896D01*
X63587862Y-75362250D01*
X63353523Y-75362635D01*
X63126035Y-75363051D01*
X62905927Y-75363498D01*
X62693728Y-75363975D01*
X62489966Y-75364483D01*
X62295170Y-75365023D01*
X62109868Y-75365593D01*
X61934589Y-75366194D01*
X61769862Y-75366826D01*
X61616214Y-75367488D01*
X61474175Y-75368182D01*
X61344273Y-75368906D01*
X61227036Y-75369662D01*
X61122994Y-75370448D01*
X61032674Y-75371265D01*
X60956606Y-75372113D01*
X60895317Y-75372992D01*
X60849337Y-75373902D01*
X60819194Y-75374842D01*
X60805416Y-75375814D01*
X60805060Y-75375887D01*
X60682914Y-75413161D01*
X60571004Y-75465081D01*
X60467108Y-75533080D01*
X60369002Y-75618591D01*
X60283835Y-75711690D01*
X60198424Y-75825445D01*
X60128681Y-75943747D01*
X60073410Y-76069266D01*
X60031420Y-76204667D01*
X60004000Y-76337160D01*
X60002164Y-76358615D01*
X60000467Y-76398906D01*
X59998910Y-76456548D01*
X59997491Y-76530057D01*
X59996212Y-76617948D01*
X59995072Y-76718737D01*
X59994072Y-76830940D01*
X59993210Y-76953074D01*
X59992487Y-77083652D01*
X59991904Y-77221193D01*
X59991460Y-77364210D01*
X59991155Y-77511220D01*
X59990990Y-77660739D01*
X59990963Y-77811283D01*
X59924524Y-77811283D01*
X59924527Y-77764640D01*
X59924537Y-77569652D01*
X59924574Y-77393909D01*
X59924650Y-77236335D01*
X59924776Y-77095857D01*
X59924964Y-76971397D01*
X59925225Y-76861882D01*
X59925570Y-76766237D01*
X59926012Y-76683385D01*
X59926560Y-76612252D01*
X59927227Y-76551763D01*
X59928024Y-76500842D01*
X59928963Y-76458415D01*
X59930054Y-76423406D01*
X59931310Y-76394741D01*
X59932741Y-76371343D01*
X59934359Y-76352139D01*
X59936176Y-76336052D01*
X59938203Y-76322008D01*
X59939940Y-76311760D01*
X59976868Y-76150824D01*
X60027937Y-76000503D01*
X60092436Y-75861650D01*
X60169655Y-75735115D01*
X60258885Y-75621752D01*
X60359415Y-75522412D01*
X60470534Y-75437949D01*
X60591533Y-75369213D01*
X60721701Y-75317059D01*
X60783894Y-75299016D01*
X60788940Y-75297825D01*
X60794858Y-75296686D01*
X60802020Y-75295598D01*
X60810803Y-75294561D01*
X60821582Y-75293571D01*
X60834731Y-75292630D01*
X60850625Y-75291734D01*
X60869640Y-75290884D01*
X60892150Y-75290078D01*
X60918530Y-75289314D01*
X60949156Y-75288593D01*
X60984402Y-75287911D01*
X61024644Y-75287269D01*
X61070256Y-75286666D01*
X61121613Y-75286099D01*
X61179091Y-75285568D01*
X61243064Y-75285072D01*
X61313907Y-75284609D01*
X61391996Y-75284179D01*
X61477705Y-75283780D01*
X61571410Y-75283411D01*
X61673484Y-75283070D01*
X61784305Y-75282758D01*
X61904245Y-75282471D01*
X62033681Y-75282211D01*
X62172987Y-75281974D01*
X62322538Y-75281760D01*
X62482710Y-75281569D01*
X62653877Y-75281398D01*
X62836415Y-75281246D01*
X63030698Y-75281113D01*
X63237101Y-75280997D01*
X63455999Y-75280897D01*
X63687768Y-75280811D01*
X63932782Y-75280740D01*
X64191416Y-75280681D01*
X64464045Y-75280633D01*
X64751045Y-75280596D01*
X65052790Y-75280567D01*
X65369656Y-75280547D01*
X65702016Y-75280533D01*
X66050247Y-75280524D01*
X66414723Y-75280520D01*
X66731727Y-75280520D01*
X67110053Y-75280521D01*
X67110053Y-75280521D01*
G37*
X67110053Y-75280521D02*
X67471821Y-75280525D01*
X67817405Y-75280535D01*
X68147181Y-75280550D01*
X68461524Y-75280571D01*
X68760808Y-75280601D01*
X69045409Y-75280640D01*
X69315701Y-75280690D01*
X69572061Y-75280751D01*
X69814862Y-75280824D01*
X70044479Y-75280912D01*
X70261288Y-75281015D01*
X70465664Y-75281133D01*
X70657981Y-75281270D01*
X70838615Y-75281424D01*
X71007941Y-75281599D01*
X71166333Y-75281794D01*
X71314167Y-75282011D01*
X71451817Y-75282252D01*
X71579659Y-75282517D01*
X71698068Y-75282807D01*
X71807418Y-75283124D01*
X71908085Y-75283470D01*
X72000443Y-75283844D01*
X72084868Y-75284248D01*
X72161734Y-75284683D01*
X72231417Y-75285152D01*
X72294292Y-75285653D01*
X72350733Y-75286190D01*
X72401116Y-75286763D01*
X72445815Y-75287373D01*
X72485206Y-75288021D01*
X72519664Y-75288709D01*
X72549562Y-75289437D01*
X72575278Y-75290208D01*
X72597185Y-75291021D01*
X72615658Y-75291879D01*
X72631074Y-75292782D01*
X72643805Y-75293731D01*
X72654228Y-75294729D01*
X72662718Y-75295775D01*
X72669649Y-75296871D01*
X72675397Y-75298018D01*
X72679560Y-75299016D01*
X72813673Y-75343329D01*
X72938940Y-75404611D01*
X73054652Y-75482010D01*
X73160097Y-75574673D01*
X73254567Y-75681749D01*
X73337349Y-75802385D01*
X73407736Y-75935728D01*
X73465015Y-76080927D01*
X73508478Y-76237129D01*
X73523513Y-76311760D01*
X73525712Y-76324956D01*
X73527692Y-76339354D01*
X73529464Y-76356030D01*
X73531041Y-76376059D01*
X73532433Y-76400515D01*
X73533652Y-76430475D01*
X73534709Y-76467012D01*
X73535615Y-76511203D01*
X73536383Y-76564122D01*
X73537023Y-76626844D01*
X73537547Y-76700445D01*
X73537966Y-76786000D01*
X73538292Y-76884583D01*
X73538536Y-76997271D01*
X73538710Y-77125138D01*
X73538824Y-77269259D01*
X73538891Y-77430709D01*
X73538921Y-77610564D01*
X73538927Y-77764640D01*
X73538917Y-77959627D01*
X73538880Y-78135370D01*
X73538804Y-78292944D01*
X73538677Y-78433422D01*
X73538489Y-78557882D01*
X73538229Y-78667397D01*
X73537883Y-78763042D01*
X73537442Y-78845894D01*
X73536894Y-78917027D01*
X73536227Y-78977516D01*
X73535430Y-79028437D01*
X73534491Y-79070864D01*
X73533400Y-79105873D01*
X73532144Y-79134538D01*
X73530713Y-79157936D01*
X73529094Y-79177140D01*
X73527277Y-79193227D01*
X73525251Y-79207271D01*
X73523513Y-79217520D01*
X73486593Y-79378932D01*
X73435420Y-79529659D01*
X73370151Y-79669348D01*
X73290946Y-79797643D01*
X73229665Y-79877645D01*
X73132175Y-79981321D01*
X73025501Y-80069074D01*
X72908765Y-80141474D01*
X72781091Y-80199092D01*
X72688027Y-80229990D01*
X72683491Y-80231173D01*
X72678003Y-80232305D01*
X72671188Y-80233386D01*
X72662671Y-80234418D01*
X72652077Y-80235403D01*
X72639032Y-80236341D01*
X72623161Y-80237234D01*
X72604090Y-80238083D01*
X72581443Y-80238890D01*
X72554846Y-80239655D01*
X72523924Y-80240380D01*
X72488303Y-80241066D01*
X72447607Y-80241715D01*
X72401463Y-80242327D01*
X72349495Y-80242905D01*
X72291329Y-80243449D01*
X72226590Y-80243960D01*
X72154903Y-80244440D01*
X72075894Y-80244890D01*
X71989187Y-80245312D01*
X71894409Y-80245707D01*
X71791185Y-80246075D01*
X71679139Y-80246418D01*
X71557897Y-80246738D01*
X71427085Y-80247036D01*
X71286327Y-80247313D01*
X71135249Y-80247570D01*
X70973477Y-80247808D01*
X70800635Y-80248029D01*
X70616349Y-80248235D01*
X70420244Y-80248426D01*
X70211945Y-80248603D01*
X69991079Y-80248769D01*
X69757269Y-80248923D01*
X69510142Y-80249068D01*
X69249322Y-80249205D01*
X68974436Y-80249335D01*
X68685107Y-80249459D01*
X68380962Y-80249579D01*
X68061626Y-80249695D01*
X67726724Y-80249810D01*
X67375882Y-80249924D01*
X67008724Y-80250039D01*
X66761360Y-80250114D01*
X66371431Y-80250226D01*
X65998104Y-80250320D01*
X65641052Y-80250396D01*
X65299943Y-80250453D01*
X64974448Y-80250490D01*
X64664238Y-80250507D01*
X64368981Y-80250503D01*
X64088349Y-80250478D01*
X63822012Y-80250431D01*
X63569639Y-80250361D01*
X63330901Y-80250267D01*
X63105469Y-80250150D01*
X62893011Y-80250008D01*
X62693199Y-80249841D01*
X62505702Y-80249648D01*
X62330191Y-80249429D01*
X62166336Y-80249182D01*
X62013806Y-80248908D01*
X61872273Y-80248606D01*
X61741406Y-80248275D01*
X61620876Y-80247914D01*
X61510352Y-80247523D01*
X61409505Y-80247101D01*
X61318005Y-80246647D01*
X61235521Y-80246162D01*
X61161726Y-80245644D01*
X61096287Y-80245093D01*
X61038876Y-80244507D01*
X60989163Y-80243887D01*
X60946817Y-80243232D01*
X60911510Y-80242541D01*
X60882910Y-80241814D01*
X60860689Y-80241050D01*
X60844516Y-80240248D01*
X60834062Y-80239408D01*
X60830460Y-80238897D01*
X60698016Y-80203682D01*
X60572560Y-80150716D01*
X60455078Y-80080992D01*
X60346554Y-79995502D01*
X60247973Y-79895239D01*
X60160321Y-79781194D01*
X60084582Y-79654362D01*
X60021742Y-79515733D01*
X59975996Y-79378010D01*
X59968849Y-79352664D01*
X59962395Y-79329791D01*
X59956598Y-79308288D01*
X59951424Y-79287051D01*
X59946836Y-79264979D01*
X59942799Y-79240966D01*
X59939280Y-79213911D01*
X59936241Y-79182709D01*
X59933649Y-79146259D01*
X59931467Y-79103455D01*
X59929661Y-79053196D01*
X59928196Y-78994378D01*
X59927035Y-78925898D01*
X59926145Y-78846652D01*
X59925490Y-78755537D01*
X59925035Y-78651451D01*
X59924744Y-78533289D01*
X59924582Y-78399949D01*
X59924514Y-78250327D01*
X59924506Y-78083321D01*
X59924521Y-77897826D01*
X59924524Y-77811283D01*
X59990963Y-77811283D01*
X59991076Y-77961367D01*
X59991328Y-78109507D01*
X59991719Y-78254219D01*
X59992249Y-78394019D01*
X59992919Y-78527422D01*
X59993727Y-78652945D01*
X59994675Y-78769102D01*
X59995762Y-78874411D01*
X59996988Y-78967386D01*
X59998354Y-79046543D01*
X59999858Y-79110399D01*
X60001502Y-79157468D01*
X60003285Y-79186268D01*
X60004000Y-79192120D01*
X60037319Y-79345562D01*
X60084947Y-79488260D01*
X60147134Y-79620795D01*
X60224130Y-79743748D01*
X60263100Y-79795385D01*
X60360598Y-79904389D01*
X60464570Y-79994681D01*
X60575440Y-80066523D01*
X60693629Y-80120180D01*
X60819558Y-80155917D01*
X60847564Y-80161263D01*
X60858815Y-80161757D01*
X60886597Y-80162238D01*
X60930509Y-80162705D01*
X60990148Y-80163158D01*
X61065112Y-80163597D01*
X61154999Y-80164021D01*
X61259408Y-80164430D01*
X61377936Y-80164823D01*
X61510181Y-80165199D01*
X61655741Y-80165559D01*
X61814214Y-80165901D01*
X61985198Y-80166226D01*
X62168292Y-80166532D01*
X62363092Y-80166820D01*
X62569198Y-80167088D01*
X62786207Y-80167336D01*
X63013717Y-80167564D01*
X63251325Y-80167772D01*
X63498631Y-80167958D01*
X63755232Y-80168122D01*
X64020725Y-80168264D01*
X64294710Y-80168384D01*
X64576784Y-80168480D01*
X64866544Y-80168553D01*
X65163589Y-80168601D01*
X65467518Y-80168625D01*
X65777927Y-80168623D01*
X66094415Y-80168596D01*
X66416579Y-80168543D01*
X66744019Y-80168463D01*
X66761360Y-80168458D01*
X67139797Y-80168348D01*
X67501674Y-80168238D01*
X67847363Y-80168126D01*
X68177239Y-80168013D01*
X68491672Y-80167896D01*
X68791038Y-80167775D01*
X69075708Y-80167647D01*
X69346056Y-80167513D01*
X69602454Y-80167370D01*
X69845276Y-80167218D01*
X70074895Y-80167055D01*
X70291683Y-80166881D01*
X70496014Y-80166693D01*
X70688260Y-80166491D01*
X70868796Y-80166274D01*
X71037993Y-80166040D01*
X71196224Y-80165788D01*
X71343863Y-80165517D01*
X71481283Y-80165225D01*
X71608856Y-80164913D01*
X71726956Y-80164577D01*
X71835956Y-80164218D01*
X71936228Y-80163833D01*
X72028146Y-80163423D01*
X72112083Y-80162984D01*
X72188411Y-80162517D01*
X72257504Y-80162021D01*
X72319734Y-80161493D01*
X72375475Y-80160932D01*
X72425100Y-80160338D01*
X72468981Y-80159710D01*
X72507492Y-80159045D01*
X72541005Y-80158344D01*
X72569894Y-80157604D01*
X72594532Y-80156824D01*
X72615291Y-80156004D01*
X72632545Y-80155142D01*
X72646666Y-80154236D01*
X72658028Y-80153287D01*
X72667004Y-80152291D01*
X72673966Y-80151249D01*
X72679288Y-80150159D01*
X72682305Y-80149346D01*
X72793173Y-80110752D01*
X72891130Y-80064900D01*
X72979697Y-80009440D01*
X73062397Y-79942024D01*
X73142748Y-79860304D01*
X73179618Y-79817589D01*
X73256797Y-79716816D01*
X73319587Y-79615950D01*
X73370186Y-79510802D01*
X73410789Y-79397178D01*
X73423954Y-79351279D01*
X73430552Y-79327060D01*
X73436506Y-79305025D01*
X73441849Y-79284067D01*
X73446614Y-79263077D01*
X73450835Y-79240947D01*
X73454544Y-79216569D01*
X73457774Y-79188835D01*
X73460558Y-79156637D01*
X73462929Y-79118866D01*
X73464921Y-79074415D01*
X73466565Y-79022175D01*
X73467896Y-78961038D01*
X73468946Y-78889897D01*
X73469748Y-78807643D01*
X73470336Y-78713168D01*
X73470741Y-78605363D01*
X73470997Y-78483122D01*
X73471138Y-78345335D01*
X73471196Y-78190894D01*
X73471204Y-78018692D01*
X73471195Y-77827620D01*
X73471193Y-77764640D01*
X73471201Y-77567518D01*
X73471202Y-77389607D01*
X73471163Y-77229801D01*
X73471052Y-77086990D01*
X73470834Y-76960067D01*
X73470479Y-76847923D01*
X73469951Y-76749451D01*
X73469219Y-76663541D01*
X73468249Y-76589087D01*
X73467008Y-76524980D01*
X73465464Y-76470111D01*
X73463583Y-76423374D01*
X73461332Y-76383658D01*
X73458679Y-76349858D01*
X73455590Y-76320864D01*
X73452033Y-76295568D01*
X73447974Y-76272862D01*
X73443380Y-76251638D01*
X73438219Y-76230788D01*
X73432457Y-76209204D01*
X73426062Y-76185778D01*
X73423954Y-76178000D01*
X73386548Y-76060092D01*
X73339976Y-75952241D01*
X73282040Y-75850253D01*
X73210544Y-75749937D01*
X73179618Y-75711690D01*
X73084823Y-75609197D01*
X72986237Y-75525504D01*
X72881638Y-75459180D01*
X72768804Y-75408791D01*
X72658393Y-75375887D01*
X72645853Y-75374914D01*
X72616908Y-75373971D01*
X72572087Y-75373059D01*
X72511918Y-75372177D01*
X72436930Y-75371327D01*
X72347651Y-75370508D01*
X72244611Y-75369719D01*
X72128337Y-75368961D01*
X71999358Y-75368235D01*
X71858203Y-75367539D01*
X71705400Y-75366874D01*
X71541477Y-75366240D01*
X71366964Y-75365636D01*
X71182389Y-75365064D01*
X70988281Y-75364522D01*
X70785167Y-75364012D01*
X70573577Y-75363532D01*
X70354039Y-75363083D01*
X70127081Y-75362665D01*
X69893233Y-75362278D01*
X69653022Y-75361922D01*
X69406978Y-75361596D01*
X69155628Y-75361302D01*
X68899502Y-75361038D01*
X68639128Y-75360806D01*
X68375035Y-75360604D01*
X68107750Y-75360433D01*
X67837803Y-75360293D01*
X67565722Y-75360183D01*
X67292036Y-75360105D01*
X67017273Y-75360058D01*
X66741962Y-75360041D01*
X66466631Y-75360055D01*
X66191809Y-75360100D01*
X65918025Y-75360176D01*
X65645807Y-75360283D01*
X65375683Y-75360421D01*
X65108182Y-75360590D01*
X64843833Y-75360789D01*
X64583164Y-75361020D01*
X64326704Y-75361281D01*
X64074982Y-75361573D01*
X63828525Y-75361896D01*
X63587862Y-75362250D01*
X63353523Y-75362635D01*
X63126035Y-75363051D01*
X62905927Y-75363498D01*
X62693728Y-75363975D01*
X62489966Y-75364483D01*
X62295170Y-75365023D01*
X62109868Y-75365593D01*
X61934589Y-75366194D01*
X61769862Y-75366826D01*
X61616214Y-75367488D01*
X61474175Y-75368182D01*
X61344273Y-75368906D01*
X61227036Y-75369662D01*
X61122994Y-75370448D01*
X61032674Y-75371265D01*
X60956606Y-75372113D01*
X60895317Y-75372992D01*
X60849337Y-75373902D01*
X60819194Y-75374842D01*
X60805416Y-75375814D01*
X60805060Y-75375887D01*
X60682914Y-75413161D01*
X60571004Y-75465081D01*
X60467108Y-75533080D01*
X60369002Y-75618591D01*
X60283835Y-75711690D01*
X60198424Y-75825445D01*
X60128681Y-75943747D01*
X60073410Y-76069266D01*
X60031420Y-76204667D01*
X60004000Y-76337160D01*
X60002164Y-76358615D01*
X60000467Y-76398906D01*
X59998910Y-76456548D01*
X59997491Y-76530057D01*
X59996212Y-76617948D01*
X59995072Y-76718737D01*
X59994072Y-76830940D01*
X59993210Y-76953074D01*
X59992487Y-77083652D01*
X59991904Y-77221193D01*
X59991460Y-77364210D01*
X59991155Y-77511220D01*
X59990990Y-77660739D01*
X59990963Y-77811283D01*
X59924524Y-77811283D01*
X59924527Y-77764640D01*
X59924537Y-77569652D01*
X59924574Y-77393909D01*
X59924650Y-77236335D01*
X59924776Y-77095857D01*
X59924964Y-76971397D01*
X59925225Y-76861882D01*
X59925570Y-76766237D01*
X59926012Y-76683385D01*
X59926560Y-76612252D01*
X59927227Y-76551763D01*
X59928024Y-76500842D01*
X59928963Y-76458415D01*
X59930054Y-76423406D01*
X59931310Y-76394741D01*
X59932741Y-76371343D01*
X59934359Y-76352139D01*
X59936176Y-76336052D01*
X59938203Y-76322008D01*
X59939940Y-76311760D01*
X59976868Y-76150824D01*
X60027937Y-76000503D01*
X60092436Y-75861650D01*
X60169655Y-75735115D01*
X60258885Y-75621752D01*
X60359415Y-75522412D01*
X60470534Y-75437949D01*
X60591533Y-75369213D01*
X60721701Y-75317059D01*
X60783894Y-75299016D01*
X60788940Y-75297825D01*
X60794858Y-75296686D01*
X60802020Y-75295598D01*
X60810803Y-75294561D01*
X60821582Y-75293571D01*
X60834731Y-75292630D01*
X60850625Y-75291734D01*
X60869640Y-75290884D01*
X60892150Y-75290078D01*
X60918530Y-75289314D01*
X60949156Y-75288593D01*
X60984402Y-75287911D01*
X61024644Y-75287269D01*
X61070256Y-75286666D01*
X61121613Y-75286099D01*
X61179091Y-75285568D01*
X61243064Y-75285072D01*
X61313907Y-75284609D01*
X61391996Y-75284179D01*
X61477705Y-75283780D01*
X61571410Y-75283411D01*
X61673484Y-75283070D01*
X61784305Y-75282758D01*
X61904245Y-75282471D01*
X62033681Y-75282211D01*
X62172987Y-75281974D01*
X62322538Y-75281760D01*
X62482710Y-75281569D01*
X62653877Y-75281398D01*
X62836415Y-75281246D01*
X63030698Y-75281113D01*
X63237101Y-75280997D01*
X63455999Y-75280897D01*
X63687768Y-75280811D01*
X63932782Y-75280740D01*
X64191416Y-75280681D01*
X64464045Y-75280633D01*
X64751045Y-75280596D01*
X65052790Y-75280567D01*
X65369656Y-75280547D01*
X65702016Y-75280533D01*
X66050247Y-75280524D01*
X66414723Y-75280520D01*
X66731727Y-75280520D01*
X67110053Y-75280521D01*
G36*
X62080063Y-75825159D02*
G01*
X62157399Y-75828731D01*
X62225783Y-75835181D01*
X62256007Y-75839657D01*
X62421300Y-75878125D01*
X62581190Y-75934992D01*
X62734597Y-76009503D01*
X62880439Y-76100907D01*
X63017633Y-76208450D01*
X63145099Y-76331380D01*
X63261755Y-76468945D01*
X63357725Y-76606400D01*
X63396869Y-76669376D01*
X63426060Y-76719736D01*
X63446525Y-76760126D01*
X63459486Y-76793197D01*
X63466169Y-76821598D01*
X63467827Y-76844671D01*
X63467827Y-76890880D01*
X62692631Y-76890880D01*
X62371501Y-77321400D01*
X62312304Y-77400863D01*
X62256549Y-77475903D01*
X62205252Y-77545138D01*
X62159429Y-77607188D01*
X62120096Y-77660673D01*
X62088270Y-77704210D01*
X62064965Y-77736420D01*
X62051198Y-77755922D01*
X62047745Y-77761373D01*
X62052623Y-77770613D01*
X62067599Y-77793814D01*
X62091693Y-77829565D01*
X62123927Y-77876457D01*
X62163322Y-77933081D01*
X62208897Y-77998027D01*
X62259676Y-78069886D01*
X62314677Y-78147248D01*
X62355661Y-78204612D01*
X62666202Y-78638400D01*
X63465852Y-78638400D01*
X63470635Y-78660347D01*
X63470451Y-78678717D01*
X63462741Y-78704689D01*
X63446672Y-78740011D01*
X63421410Y-78786434D01*
X63386124Y-78845706D01*
X63369840Y-78872080D01*
X63263366Y-79026507D01*
X63145594Y-79166192D01*
X63017399Y-79290516D01*
X62879659Y-79398859D01*
X62733249Y-79490602D01*
X62579046Y-79565126D01*
X62417925Y-79621812D01*
X62256007Y-79659142D01*
X62201409Y-79666135D01*
X62134856Y-79670823D01*
X62060979Y-79673213D01*
X61984408Y-79673314D01*
X61909775Y-79671135D01*
X61841710Y-79666686D01*
X61784844Y-79659974D01*
X61774493Y-79658230D01*
X61619720Y-79622084D01*
X61472046Y-79570133D01*
X61327170Y-79500734D01*
X61258027Y-79461145D01*
X61112662Y-79362825D01*
X60978054Y-79249731D01*
X60854841Y-79122889D01*
X60743663Y-78983327D01*
X60645158Y-78832074D01*
X60559965Y-78670155D01*
X60488723Y-78498600D01*
X60432070Y-78318436D01*
X60390646Y-78130690D01*
X60377148Y-78044040D01*
X60366556Y-77939196D01*
X60361002Y-77822407D01*
X60360485Y-77701127D01*
X60365007Y-77582811D01*
X60374567Y-77474912D01*
X60377148Y-77454760D01*
X60411283Y-77265143D01*
X60460626Y-77083078D01*
X60524379Y-76909481D01*
X60601745Y-76745265D01*
X60691928Y-76591347D01*
X60794129Y-76448641D01*
X60907552Y-76318063D01*
X61031399Y-76200528D01*
X61164874Y-76096950D01*
X61307179Y-76008246D01*
X61457518Y-75935329D01*
X61615092Y-75879116D01*
X61779105Y-75840521D01*
X61784047Y-75839657D01*
X61845765Y-75831715D01*
X61919102Y-75826651D01*
X61998916Y-75824466D01*
X62080063Y-75825159D01*
X62080063Y-75825159D01*
G37*
X62080063Y-75825159D02*
X62157399Y-75828731D01*
X62225783Y-75835181D01*
X62256007Y-75839657D01*
X62421300Y-75878125D01*
X62581190Y-75934992D01*
X62734597Y-76009503D01*
X62880439Y-76100907D01*
X63017633Y-76208450D01*
X63145099Y-76331380D01*
X63261755Y-76468945D01*
X63357725Y-76606400D01*
X63396869Y-76669376D01*
X63426060Y-76719736D01*
X63446525Y-76760126D01*
X63459486Y-76793197D01*
X63466169Y-76821598D01*
X63467827Y-76844671D01*
X63467827Y-76890880D01*
X62692631Y-76890880D01*
X62371501Y-77321400D01*
X62312304Y-77400863D01*
X62256549Y-77475903D01*
X62205252Y-77545138D01*
X62159429Y-77607188D01*
X62120096Y-77660673D01*
X62088270Y-77704210D01*
X62064965Y-77736420D01*
X62051198Y-77755922D01*
X62047745Y-77761373D01*
X62052623Y-77770613D01*
X62067599Y-77793814D01*
X62091693Y-77829565D01*
X62123927Y-77876457D01*
X62163322Y-77933081D01*
X62208897Y-77998027D01*
X62259676Y-78069886D01*
X62314677Y-78147248D01*
X62355661Y-78204612D01*
X62666202Y-78638400D01*
X63465852Y-78638400D01*
X63470635Y-78660347D01*
X63470451Y-78678717D01*
X63462741Y-78704689D01*
X63446672Y-78740011D01*
X63421410Y-78786434D01*
X63386124Y-78845706D01*
X63369840Y-78872080D01*
X63263366Y-79026507D01*
X63145594Y-79166192D01*
X63017399Y-79290516D01*
X62879659Y-79398859D01*
X62733249Y-79490602D01*
X62579046Y-79565126D01*
X62417925Y-79621812D01*
X62256007Y-79659142D01*
X62201409Y-79666135D01*
X62134856Y-79670823D01*
X62060979Y-79673213D01*
X61984408Y-79673314D01*
X61909775Y-79671135D01*
X61841710Y-79666686D01*
X61784844Y-79659974D01*
X61774493Y-79658230D01*
X61619720Y-79622084D01*
X61472046Y-79570133D01*
X61327170Y-79500734D01*
X61258027Y-79461145D01*
X61112662Y-79362825D01*
X60978054Y-79249731D01*
X60854841Y-79122889D01*
X60743663Y-78983327D01*
X60645158Y-78832074D01*
X60559965Y-78670155D01*
X60488723Y-78498600D01*
X60432070Y-78318436D01*
X60390646Y-78130690D01*
X60377148Y-78044040D01*
X60366556Y-77939196D01*
X60361002Y-77822407D01*
X60360485Y-77701127D01*
X60365007Y-77582811D01*
X60374567Y-77474912D01*
X60377148Y-77454760D01*
X60411283Y-77265143D01*
X60460626Y-77083078D01*
X60524379Y-76909481D01*
X60601745Y-76745265D01*
X60691928Y-76591347D01*
X60794129Y-76448641D01*
X60907552Y-76318063D01*
X61031399Y-76200528D01*
X61164874Y-76096950D01*
X61307179Y-76008246D01*
X61457518Y-75935329D01*
X61615092Y-75879116D01*
X61779105Y-75840521D01*
X61784047Y-75839657D01*
X61845765Y-75831715D01*
X61919102Y-75826651D01*
X61998916Y-75824466D01*
X62080063Y-75825159D01*
G36*
X71418027Y-77401911D02*
G01*
X71461593Y-77405918D01*
X71507584Y-77412203D01*
X71552453Y-77420046D01*
X71592657Y-77428724D01*
X71624649Y-77437517D01*
X71644885Y-77445703D01*
X71649178Y-77448958D01*
X71650568Y-77460486D01*
X71651744Y-77490180D01*
X71652682Y-77535886D01*
X71653363Y-77595451D01*
X71653765Y-77666721D01*
X71653868Y-77747544D01*
X71653650Y-77835766D01*
X71653411Y-77882509D01*
X71650860Y-78308200D01*
X71626430Y-78371674D01*
X71593992Y-78435853D01*
X71551231Y-78490211D01*
X71501995Y-78530083D01*
X71490263Y-78536661D01*
X71430687Y-78559280D01*
X71360389Y-78572680D01*
X71283882Y-78576517D01*
X71205679Y-78570446D01*
X71159793Y-78561898D01*
X71115003Y-78551162D01*
X71084344Y-78542366D01*
X71065251Y-78534049D01*
X71055161Y-78524751D01*
X71051509Y-78513013D01*
X71051539Y-78500253D01*
X71054283Y-78475463D01*
X71059734Y-78438829D01*
X71066711Y-78398298D01*
X71080071Y-78325836D01*
X71132632Y-78346190D01*
X71172899Y-78357859D01*
X71220014Y-78365437D01*
X71269475Y-78368843D01*
X71316782Y-78367994D01*
X71357434Y-78362810D01*
X71386928Y-78353207D01*
X71390885Y-78350886D01*
X71423704Y-78318405D01*
X71444809Y-78273860D01*
X71451862Y-78224830D01*
X71451893Y-78182101D01*
X71416962Y-78196890D01*
X71381716Y-78206335D01*
X71336343Y-78210923D01*
X71287149Y-78210706D01*
X71240440Y-78205732D01*
X71202523Y-78196051D01*
X71200306Y-78195177D01*
X71138892Y-78160539D01*
X71089488Y-78111691D01*
X71052216Y-78048891D01*
X71027195Y-77972398D01*
X71014548Y-77882469D01*
X71013880Y-77820248D01*
X71219060Y-77820248D01*
X71223076Y-77887994D01*
X71235617Y-77939775D01*
X71257420Y-77977672D01*
X71282856Y-77999929D01*
X71319309Y-78014276D01*
X71362698Y-78017974D01*
X71405426Y-78010805D01*
X71422532Y-78003918D01*
X71451893Y-77989196D01*
X71451893Y-77796823D01*
X71451841Y-77729934D01*
X71451506Y-77680582D01*
X71450622Y-77645984D01*
X71448920Y-77623359D01*
X71446135Y-77609922D01*
X71441999Y-77602891D01*
X71436246Y-77599484D01*
X71432843Y-77598323D01*
X71385898Y-77591682D01*
X71336925Y-77598769D01*
X71298916Y-77615467D01*
X71262678Y-77647824D01*
X71237687Y-77692528D01*
X71223351Y-77751100D01*
X71219060Y-77820248D01*
X71013880Y-77820248D01*
X71013615Y-77795654D01*
X71020915Y-77711525D01*
X71036400Y-77641540D01*
X71061406Y-77581263D01*
X71092861Y-77532037D01*
X71144487Y-77476667D01*
X71205322Y-77436586D01*
X71276183Y-77411467D01*
X71357889Y-77400982D01*
X71418027Y-77401911D01*
X71418027Y-77401911D01*
G37*
X71418027Y-77401911D02*
X71461593Y-77405918D01*
X71507584Y-77412203D01*
X71552453Y-77420046D01*
X71592657Y-77428724D01*
X71624649Y-77437517D01*
X71644885Y-77445703D01*
X71649178Y-77448958D01*
X71650568Y-77460486D01*
X71651744Y-77490180D01*
X71652682Y-77535886D01*
X71653363Y-77595451D01*
X71653765Y-77666721D01*
X71653868Y-77747544D01*
X71653650Y-77835766D01*
X71653411Y-77882509D01*
X71650860Y-78308200D01*
X71626430Y-78371674D01*
X71593992Y-78435853D01*
X71551231Y-78490211D01*
X71501995Y-78530083D01*
X71490263Y-78536661D01*
X71430687Y-78559280D01*
X71360389Y-78572680D01*
X71283882Y-78576517D01*
X71205679Y-78570446D01*
X71159793Y-78561898D01*
X71115003Y-78551162D01*
X71084344Y-78542366D01*
X71065251Y-78534049D01*
X71055161Y-78524751D01*
X71051509Y-78513013D01*
X71051539Y-78500253D01*
X71054283Y-78475463D01*
X71059734Y-78438829D01*
X71066711Y-78398298D01*
X71080071Y-78325836D01*
X71132632Y-78346190D01*
X71172899Y-78357859D01*
X71220014Y-78365437D01*
X71269475Y-78368843D01*
X71316782Y-78367994D01*
X71357434Y-78362810D01*
X71386928Y-78353207D01*
X71390885Y-78350886D01*
X71423704Y-78318405D01*
X71444809Y-78273860D01*
X71451862Y-78224830D01*
X71451893Y-78182101D01*
X71416962Y-78196890D01*
X71381716Y-78206335D01*
X71336343Y-78210923D01*
X71287149Y-78210706D01*
X71240440Y-78205732D01*
X71202523Y-78196051D01*
X71200306Y-78195177D01*
X71138892Y-78160539D01*
X71089488Y-78111691D01*
X71052216Y-78048891D01*
X71027195Y-77972398D01*
X71014548Y-77882469D01*
X71013880Y-77820248D01*
X71219060Y-77820248D01*
X71223076Y-77887994D01*
X71235617Y-77939775D01*
X71257420Y-77977672D01*
X71282856Y-77999929D01*
X71319309Y-78014276D01*
X71362698Y-78017974D01*
X71405426Y-78010805D01*
X71422532Y-78003918D01*
X71451893Y-77989196D01*
X71451893Y-77796823D01*
X71451841Y-77729934D01*
X71451506Y-77680582D01*
X71450622Y-77645984D01*
X71448920Y-77623359D01*
X71446135Y-77609922D01*
X71441999Y-77602891D01*
X71436246Y-77599484D01*
X71432843Y-77598323D01*
X71385898Y-77591682D01*
X71336925Y-77598769D01*
X71298916Y-77615467D01*
X71262678Y-77647824D01*
X71237687Y-77692528D01*
X71223351Y-77751100D01*
X71219060Y-77820248D01*
X71013880Y-77820248D01*
X71013615Y-77795654D01*
X71020915Y-77711525D01*
X71036400Y-77641540D01*
X71061406Y-77581263D01*
X71092861Y-77532037D01*
X71144487Y-77476667D01*
X71205322Y-77436586D01*
X71276183Y-77411467D01*
X71357889Y-77400982D01*
X71418027Y-77401911D01*
G36*
X64462749Y-77401518D02*
G01*
X64487257Y-77406062D01*
X64512458Y-77413642D01*
X64525772Y-77418361D01*
X64565684Y-77435527D01*
X64595688Y-77455763D01*
X64622752Y-77483775D01*
X64622874Y-77483922D01*
X64640363Y-77505813D01*
X64654550Y-77526841D01*
X64665805Y-77549391D01*
X64674499Y-77575843D01*
X64681002Y-77608579D01*
X64685685Y-77649983D01*
X64688919Y-77702437D01*
X64691074Y-77768322D01*
X64692520Y-77850020D01*
X64693513Y-77938133D01*
X64696577Y-78248786D01*
X64617719Y-78265645D01*
X64562771Y-78275252D01*
X64501657Y-78282403D01*
X64439095Y-78286852D01*
X64379805Y-78288349D01*
X64328506Y-78286648D01*
X64295155Y-78282587D01*
X64226594Y-78262823D01*
X64172089Y-78231962D01*
X64131243Y-78189499D01*
X64103658Y-78134926D01*
X64088940Y-78067739D01*
X64086079Y-78015695D01*
X64088864Y-77981447D01*
X64283799Y-77981447D01*
X64284182Y-78024849D01*
X64284873Y-78028867D01*
X64295194Y-78058610D01*
X64314841Y-78079529D01*
X64345779Y-78092635D01*
X64389972Y-78098941D01*
X64422761Y-78099882D01*
X64501396Y-78099920D01*
X64498961Y-78005940D01*
X64496527Y-77911960D01*
X64426565Y-77909006D01*
X64369635Y-77911598D01*
X64326729Y-77924650D01*
X64298049Y-77947990D01*
X64283799Y-77981447D01*
X64088864Y-77981447D01*
X64092160Y-77940939D01*
X64111178Y-77879027D01*
X64143721Y-77828899D01*
X64190376Y-77789493D01*
X64220839Y-77772683D01*
X64242887Y-77763262D01*
X64265151Y-77756826D01*
X64291605Y-77752818D01*
X64326226Y-77750683D01*
X64372988Y-77749865D01*
X64384338Y-77749809D01*
X64430690Y-77749545D01*
X64462744Y-77748777D01*
X64483138Y-77746973D01*
X64494508Y-77743597D01*
X64499491Y-77738115D01*
X64500722Y-77729993D01*
X64500755Y-77726213D01*
X64493992Y-77683836D01*
X64476150Y-77645155D01*
X64450929Y-77617983D01*
X64448837Y-77616622D01*
X64423797Y-77607472D01*
X64387014Y-77601845D01*
X64343439Y-77599862D01*
X64298024Y-77601646D01*
X64255720Y-77607317D01*
X64238028Y-77611441D01*
X64207606Y-77619423D01*
X64188124Y-77620886D01*
X64176452Y-77612748D01*
X64169455Y-77591928D01*
X64164003Y-77555344D01*
X64161637Y-77536278D01*
X64156939Y-77496296D01*
X64153646Y-77464161D01*
X64152268Y-77445037D01*
X64152345Y-77442298D01*
X64162150Y-77432698D01*
X64186679Y-77423555D01*
X64223721Y-77415321D01*
X64271067Y-77408446D01*
X64326507Y-77403383D01*
X64349418Y-77402019D01*
X64398226Y-77399903D01*
X64434538Y-77399601D01*
X64462749Y-77401518D01*
X64462749Y-77401518D01*
G37*
X64462749Y-77401518D02*
X64487257Y-77406062D01*
X64512458Y-77413642D01*
X64525772Y-77418361D01*
X64565684Y-77435527D01*
X64595688Y-77455763D01*
X64622752Y-77483775D01*
X64622874Y-77483922D01*
X64640363Y-77505813D01*
X64654550Y-77526841D01*
X64665805Y-77549391D01*
X64674499Y-77575843D01*
X64681002Y-77608579D01*
X64685685Y-77649983D01*
X64688919Y-77702437D01*
X64691074Y-77768322D01*
X64692520Y-77850020D01*
X64693513Y-77938133D01*
X64696577Y-78248786D01*
X64617719Y-78265645D01*
X64562771Y-78275252D01*
X64501657Y-78282403D01*
X64439095Y-78286852D01*
X64379805Y-78288349D01*
X64328506Y-78286648D01*
X64295155Y-78282587D01*
X64226594Y-78262823D01*
X64172089Y-78231962D01*
X64131243Y-78189499D01*
X64103658Y-78134926D01*
X64088940Y-78067739D01*
X64086079Y-78015695D01*
X64088864Y-77981447D01*
X64283799Y-77981447D01*
X64284182Y-78024849D01*
X64284873Y-78028867D01*
X64295194Y-78058610D01*
X64314841Y-78079529D01*
X64345779Y-78092635D01*
X64389972Y-78098941D01*
X64422761Y-78099882D01*
X64501396Y-78099920D01*
X64498961Y-78005940D01*
X64496527Y-77911960D01*
X64426565Y-77909006D01*
X64369635Y-77911598D01*
X64326729Y-77924650D01*
X64298049Y-77947990D01*
X64283799Y-77981447D01*
X64088864Y-77981447D01*
X64092160Y-77940939D01*
X64111178Y-77879027D01*
X64143721Y-77828899D01*
X64190376Y-77789493D01*
X64220839Y-77772683D01*
X64242887Y-77763262D01*
X64265151Y-77756826D01*
X64291605Y-77752818D01*
X64326226Y-77750683D01*
X64372988Y-77749865D01*
X64384338Y-77749809D01*
X64430690Y-77749545D01*
X64462744Y-77748777D01*
X64483138Y-77746973D01*
X64494508Y-77743597D01*
X64499491Y-77738115D01*
X64500722Y-77729993D01*
X64500755Y-77726213D01*
X64493992Y-77683836D01*
X64476150Y-77645155D01*
X64450929Y-77617983D01*
X64448837Y-77616622D01*
X64423797Y-77607472D01*
X64387014Y-77601845D01*
X64343439Y-77599862D01*
X64298024Y-77601646D01*
X64255720Y-77607317D01*
X64238028Y-77611441D01*
X64207606Y-77619423D01*
X64188124Y-77620886D01*
X64176452Y-77612748D01*
X64169455Y-77591928D01*
X64164003Y-77555344D01*
X64161637Y-77536278D01*
X64156939Y-77496296D01*
X64153646Y-77464161D01*
X64152268Y-77445037D01*
X64152345Y-77442298D01*
X64162150Y-77432698D01*
X64186679Y-77423555D01*
X64223721Y-77415321D01*
X64271067Y-77408446D01*
X64326507Y-77403383D01*
X64349418Y-77402019D01*
X64398226Y-77399903D01*
X64434538Y-77399601D01*
X64462749Y-77401518D01*
G36*
X65236710Y-77401616D02*
G01*
X65280525Y-77405859D01*
X65322359Y-77412919D01*
X65358976Y-77421910D01*
X65387144Y-77431948D01*
X65403627Y-77442147D01*
X65406562Y-77448095D01*
X65404376Y-77460274D01*
X65398646Y-77487141D01*
X65390426Y-77523824D01*
X65386453Y-77541120D01*
X65374072Y-77588951D01*
X65363611Y-77616960D01*
X65354939Y-77625494D01*
X65354835Y-77625478D01*
X65340869Y-77622670D01*
X65315903Y-77617314D01*
X65288160Y-77611197D01*
X65223717Y-77604126D01*
X65168966Y-77613572D01*
X65124261Y-77639223D01*
X65089956Y-77680764D01*
X65066404Y-77737882D01*
X65053960Y-77810262D01*
X65053261Y-77819497D01*
X65053993Y-77893341D01*
X65065919Y-77958552D01*
X65088132Y-78012440D01*
X65119724Y-78052318D01*
X65135985Y-78064499D01*
X65174456Y-78079783D01*
X65223622Y-78086276D01*
X65278804Y-78083697D01*
X65321455Y-78075607D01*
X65352123Y-78068659D01*
X65375930Y-78064859D01*
X65388464Y-78064877D01*
X65389188Y-78065344D01*
X65392683Y-78077294D01*
X65397995Y-78104454D01*
X65404221Y-78141978D01*
X65407215Y-78161878D01*
X65420436Y-78252669D01*
X65377581Y-78268915D01*
X65341096Y-78278615D01*
X65293784Y-78285379D01*
X65240918Y-78289039D01*
X65187769Y-78289429D01*
X65139606Y-78286380D01*
X65101701Y-78279726D01*
X65095549Y-78277859D01*
X65022611Y-78244597D01*
X64962464Y-78198155D01*
X64915042Y-78138419D01*
X64880278Y-78065273D01*
X64858106Y-77978603D01*
X64848459Y-77878295D01*
X64847994Y-77849530D01*
X64854806Y-77748174D01*
X64875285Y-77657763D01*
X64909148Y-77578992D01*
X64956110Y-77512557D01*
X65003128Y-77468598D01*
X65049735Y-77436326D01*
X65094168Y-77415157D01*
X65141524Y-77403627D01*
X65196902Y-77400275D01*
X65236710Y-77401616D01*
X65236710Y-77401616D01*
G37*
X65236710Y-77401616D02*
X65280525Y-77405859D01*
X65322359Y-77412919D01*
X65358976Y-77421910D01*
X65387144Y-77431948D01*
X65403627Y-77442147D01*
X65406562Y-77448095D01*
X65404376Y-77460274D01*
X65398646Y-77487141D01*
X65390426Y-77523824D01*
X65386453Y-77541120D01*
X65374072Y-77588951D01*
X65363611Y-77616960D01*
X65354939Y-77625494D01*
X65354835Y-77625478D01*
X65340869Y-77622670D01*
X65315903Y-77617314D01*
X65288160Y-77611197D01*
X65223717Y-77604126D01*
X65168966Y-77613572D01*
X65124261Y-77639223D01*
X65089956Y-77680764D01*
X65066404Y-77737882D01*
X65053960Y-77810262D01*
X65053261Y-77819497D01*
X65053993Y-77893341D01*
X65065919Y-77958552D01*
X65088132Y-78012440D01*
X65119724Y-78052318D01*
X65135985Y-78064499D01*
X65174456Y-78079783D01*
X65223622Y-78086276D01*
X65278804Y-78083697D01*
X65321455Y-78075607D01*
X65352123Y-78068659D01*
X65375930Y-78064859D01*
X65388464Y-78064877D01*
X65389188Y-78065344D01*
X65392683Y-78077294D01*
X65397995Y-78104454D01*
X65404221Y-78141978D01*
X65407215Y-78161878D01*
X65420436Y-78252669D01*
X65377581Y-78268915D01*
X65341096Y-78278615D01*
X65293784Y-78285379D01*
X65240918Y-78289039D01*
X65187769Y-78289429D01*
X65139606Y-78286380D01*
X65101701Y-78279726D01*
X65095549Y-78277859D01*
X65022611Y-78244597D01*
X64962464Y-78198155D01*
X64915042Y-78138419D01*
X64880278Y-78065273D01*
X64858106Y-77978603D01*
X64848459Y-77878295D01*
X64847994Y-77849530D01*
X64854806Y-77748174D01*
X64875285Y-77657763D01*
X64909148Y-77578992D01*
X64956110Y-77512557D01*
X65003128Y-77468598D01*
X65049735Y-77436326D01*
X65094168Y-77415157D01*
X65141524Y-77403627D01*
X65196902Y-77400275D01*
X65236710Y-77401616D01*
G36*
X66646946Y-77404329D02*
G01*
X66677000Y-77406176D01*
X66700055Y-77410607D01*
X66721077Y-77418729D01*
X66745033Y-77431649D01*
X66754765Y-77437353D01*
X66808423Y-77475761D01*
X66850291Y-77521725D01*
X66881419Y-77577568D01*
X66902860Y-77645610D01*
X66915665Y-77728172D01*
X66920290Y-77802740D01*
X66924271Y-77927200D01*
X66693743Y-77927200D01*
X66624993Y-77927297D01*
X66571394Y-77927675D01*
X66531166Y-77928460D01*
X66502528Y-77929779D01*
X66483698Y-77931759D01*
X66472897Y-77934527D01*
X66468341Y-77938210D01*
X66468252Y-77942936D01*
X66468354Y-77943270D01*
X66472910Y-77962119D01*
X66473494Y-77967891D01*
X66478505Y-77980430D01*
X66491000Y-78001212D01*
X66495725Y-78008145D01*
X66535345Y-78049035D01*
X66586270Y-78075097D01*
X66648151Y-78086242D01*
X66720638Y-78082385D01*
X66761360Y-78074662D01*
X66795549Y-78066894D01*
X66824162Y-78060572D01*
X66842505Y-78056726D01*
X66845649Y-78056152D01*
X66852892Y-78060900D01*
X66859449Y-78079371D01*
X66866084Y-78114184D01*
X66869670Y-78138547D01*
X66874583Y-78178873D01*
X66877398Y-78212212D01*
X66877683Y-78232958D01*
X66877175Y-78236007D01*
X66864765Y-78249402D01*
X66838467Y-78261484D01*
X66801308Y-78271913D01*
X66756313Y-78280352D01*
X66706510Y-78286462D01*
X66654924Y-78289905D01*
X66604582Y-78290343D01*
X66558509Y-78287437D01*
X66519732Y-78280850D01*
X66507565Y-78277320D01*
X66436792Y-78244322D01*
X66377023Y-78197083D01*
X66329373Y-78136625D01*
X66306275Y-78092657D01*
X66284742Y-78038132D01*
X66270795Y-77986505D01*
X66263123Y-77930721D01*
X66260414Y-77863727D01*
X66260356Y-77845626D01*
X66266543Y-77754480D01*
X66464704Y-77754480D01*
X66729709Y-77754480D01*
X66725011Y-77719740D01*
X66710523Y-77668584D01*
X66683565Y-77630284D01*
X66645744Y-77606407D01*
X66600494Y-77598507D01*
X66553755Y-77607595D01*
X66515240Y-77633811D01*
X66486552Y-77675580D01*
X66470186Y-77726540D01*
X66464704Y-77754480D01*
X66266543Y-77754480D01*
X66267341Y-77742739D01*
X66287757Y-77651766D01*
X66321439Y-77573050D01*
X66368220Y-77506939D01*
X66427936Y-77453779D01*
X66456560Y-77435554D01*
X66482328Y-77421461D01*
X66504004Y-77412317D01*
X66526568Y-77407061D01*
X66555000Y-77404634D01*
X66594280Y-77403973D01*
X66604928Y-77403960D01*
X66646946Y-77404329D01*
X66646946Y-77404329D01*
G37*
X66646946Y-77404329D02*
X66677000Y-77406176D01*
X66700055Y-77410607D01*
X66721077Y-77418729D01*
X66745033Y-77431649D01*
X66754765Y-77437353D01*
X66808423Y-77475761D01*
X66850291Y-77521725D01*
X66881419Y-77577568D01*
X66902860Y-77645610D01*
X66915665Y-77728172D01*
X66920290Y-77802740D01*
X66924271Y-77927200D01*
X66693743Y-77927200D01*
X66624993Y-77927297D01*
X66571394Y-77927675D01*
X66531166Y-77928460D01*
X66502528Y-77929779D01*
X66483698Y-77931759D01*
X66472897Y-77934527D01*
X66468341Y-77938210D01*
X66468252Y-77942936D01*
X66468354Y-77943270D01*
X66472910Y-77962119D01*
X66473494Y-77967891D01*
X66478505Y-77980430D01*
X66491000Y-78001212D01*
X66495725Y-78008145D01*
X66535345Y-78049035D01*
X66586270Y-78075097D01*
X66648151Y-78086242D01*
X66720638Y-78082385D01*
X66761360Y-78074662D01*
X66795549Y-78066894D01*
X66824162Y-78060572D01*
X66842505Y-78056726D01*
X66845649Y-78056152D01*
X66852892Y-78060900D01*
X66859449Y-78079371D01*
X66866084Y-78114184D01*
X66869670Y-78138547D01*
X66874583Y-78178873D01*
X66877398Y-78212212D01*
X66877683Y-78232958D01*
X66877175Y-78236007D01*
X66864765Y-78249402D01*
X66838467Y-78261484D01*
X66801308Y-78271913D01*
X66756313Y-78280352D01*
X66706510Y-78286462D01*
X66654924Y-78289905D01*
X66604582Y-78290343D01*
X66558509Y-78287437D01*
X66519732Y-78280850D01*
X66507565Y-78277320D01*
X66436792Y-78244322D01*
X66377023Y-78197083D01*
X66329373Y-78136625D01*
X66306275Y-78092657D01*
X66284742Y-78038132D01*
X66270795Y-77986505D01*
X66263123Y-77930721D01*
X66260414Y-77863727D01*
X66260356Y-77845626D01*
X66266543Y-77754480D01*
X66464704Y-77754480D01*
X66729709Y-77754480D01*
X66725011Y-77719740D01*
X66710523Y-77668584D01*
X66683565Y-77630284D01*
X66645744Y-77606407D01*
X66600494Y-77598507D01*
X66553755Y-77607595D01*
X66515240Y-77633811D01*
X66486552Y-77675580D01*
X66470186Y-77726540D01*
X66464704Y-77754480D01*
X66266543Y-77754480D01*
X66267341Y-77742739D01*
X66287757Y-77651766D01*
X66321439Y-77573050D01*
X66368220Y-77506939D01*
X66427936Y-77453779D01*
X66456560Y-77435554D01*
X66482328Y-77421461D01*
X66504004Y-77412317D01*
X66526568Y-77407061D01*
X66555000Y-77404634D01*
X66594280Y-77403973D01*
X66604928Y-77403960D01*
X66646946Y-77404329D01*
G36*
X69576767Y-77404672D02*
G01*
X69646240Y-77425393D01*
X69705871Y-77462641D01*
X69755640Y-77516399D01*
X69795525Y-77586652D01*
X69812719Y-77630774D01*
X69821180Y-77663387D01*
X69827196Y-77705991D01*
X69831235Y-77762582D01*
X69832835Y-77802740D01*
X69836804Y-77927200D01*
X69607182Y-77927200D01*
X69528339Y-77927570D01*
X69466227Y-77928689D01*
X69420654Y-77930564D01*
X69391429Y-77933204D01*
X69378361Y-77936618D01*
X69377560Y-77937864D01*
X69382915Y-77960179D01*
X69396359Y-77988958D01*
X69413965Y-78016354D01*
X69421206Y-78025071D01*
X69465854Y-78060839D01*
X69520577Y-78081402D01*
X69585823Y-78086846D01*
X69662043Y-78077262D01*
X69673894Y-78074662D01*
X69708082Y-78066894D01*
X69736695Y-78060572D01*
X69755038Y-78056726D01*
X69758183Y-78056152D01*
X69765426Y-78060900D01*
X69771983Y-78079371D01*
X69778617Y-78114184D01*
X69782203Y-78138547D01*
X69787116Y-78178873D01*
X69789931Y-78212212D01*
X69790216Y-78232958D01*
X69789708Y-78236007D01*
X69777352Y-78249268D01*
X69751117Y-78261281D01*
X69714040Y-78271700D01*
X69669159Y-78280178D01*
X69619511Y-78286370D01*
X69568133Y-78289931D01*
X69518062Y-78290516D01*
X69472337Y-78287778D01*
X69433994Y-78281373D01*
X69421842Y-78277855D01*
X69348547Y-78244199D01*
X69287889Y-78197043D01*
X69239929Y-78136493D01*
X69204731Y-78062657D01*
X69182357Y-77975643D01*
X69172867Y-77875557D01*
X69172525Y-77845727D01*
X69178953Y-77754480D01*
X69377238Y-77754480D01*
X69642242Y-77754480D01*
X69637545Y-77719740D01*
X69623076Y-77668564D01*
X69596123Y-77630305D01*
X69558181Y-77606414D01*
X69512364Y-77598339D01*
X69466071Y-77607280D01*
X69427762Y-77633407D01*
X69399140Y-77675037D01*
X69382643Y-77726540D01*
X69377238Y-77754480D01*
X69178953Y-77754480D01*
X69179793Y-77742561D01*
X69200420Y-77651425D01*
X69234246Y-77572653D01*
X69281111Y-77506579D01*
X69340853Y-77453539D01*
X69369094Y-77435603D01*
X69402013Y-77418530D01*
X69431958Y-77408216D01*
X69466248Y-77402658D01*
X69497474Y-77400491D01*
X69576767Y-77404672D01*
X69576767Y-77404672D01*
G37*
X69576767Y-77404672D02*
X69646240Y-77425393D01*
X69705871Y-77462641D01*
X69755640Y-77516399D01*
X69795525Y-77586652D01*
X69812719Y-77630774D01*
X69821180Y-77663387D01*
X69827196Y-77705991D01*
X69831235Y-77762582D01*
X69832835Y-77802740D01*
X69836804Y-77927200D01*
X69607182Y-77927200D01*
X69528339Y-77927570D01*
X69466227Y-77928689D01*
X69420654Y-77930564D01*
X69391429Y-77933204D01*
X69378361Y-77936618D01*
X69377560Y-77937864D01*
X69382915Y-77960179D01*
X69396359Y-77988958D01*
X69413965Y-78016354D01*
X69421206Y-78025071D01*
X69465854Y-78060839D01*
X69520577Y-78081402D01*
X69585823Y-78086846D01*
X69662043Y-78077262D01*
X69673894Y-78074662D01*
X69708082Y-78066894D01*
X69736695Y-78060572D01*
X69755038Y-78056726D01*
X69758183Y-78056152D01*
X69765426Y-78060900D01*
X69771983Y-78079371D01*
X69778617Y-78114184D01*
X69782203Y-78138547D01*
X69787116Y-78178873D01*
X69789931Y-78212212D01*
X69790216Y-78232958D01*
X69789708Y-78236007D01*
X69777352Y-78249268D01*
X69751117Y-78261281D01*
X69714040Y-78271700D01*
X69669159Y-78280178D01*
X69619511Y-78286370D01*
X69568133Y-78289931D01*
X69518062Y-78290516D01*
X69472337Y-78287778D01*
X69433994Y-78281373D01*
X69421842Y-78277855D01*
X69348547Y-78244199D01*
X69287889Y-78197043D01*
X69239929Y-78136493D01*
X69204731Y-78062657D01*
X69182357Y-77975643D01*
X69172867Y-77875557D01*
X69172525Y-77845727D01*
X69178953Y-77754480D01*
X69377238Y-77754480D01*
X69642242Y-77754480D01*
X69637545Y-77719740D01*
X69623076Y-77668564D01*
X69596123Y-77630305D01*
X69558181Y-77606414D01*
X69512364Y-77598339D01*
X69466071Y-77607280D01*
X69427762Y-77633407D01*
X69399140Y-77675037D01*
X69382643Y-77726540D01*
X69377238Y-77754480D01*
X69178953Y-77754480D01*
X69179793Y-77742561D01*
X69200420Y-77651425D01*
X69234246Y-77572653D01*
X69281111Y-77506579D01*
X69340853Y-77453539D01*
X69369094Y-77435603D01*
X69402013Y-77418530D01*
X69431958Y-77408216D01*
X69466248Y-77402658D01*
X69497474Y-77400491D01*
X69576767Y-77404672D01*
G36*
X70311506Y-77401159D02*
G01*
X70369966Y-77408905D01*
X70389909Y-77413296D01*
X70421864Y-77421912D01*
X70447177Y-77430013D01*
X70461420Y-77436145D01*
X70462754Y-77437226D01*
X70463364Y-77449124D01*
X70460857Y-77475111D01*
X70456142Y-77509535D01*
X70450127Y-77546747D01*
X70443719Y-77581097D01*
X70437826Y-77606934D01*
X70433660Y-77618307D01*
X70424128Y-77618470D01*
X70402871Y-77614479D01*
X70375734Y-77607534D01*
X70329592Y-77597620D01*
X70283251Y-77593068D01*
X70241487Y-77593948D01*
X70209078Y-77600327D01*
X70198827Y-77605005D01*
X70180919Y-77625794D01*
X70174476Y-77654830D01*
X70180604Y-77684284D01*
X70186289Y-77693734D01*
X70200079Y-77705506D01*
X70225477Y-77721691D01*
X70258197Y-77739683D01*
X70277940Y-77749489D01*
X70345510Y-77784407D01*
X70398166Y-77818184D01*
X70437740Y-77852710D01*
X70466062Y-77889871D01*
X70484963Y-77931556D01*
X70495277Y-77973593D01*
X70501027Y-78048536D01*
X70491299Y-78115510D01*
X70466457Y-78173728D01*
X70426864Y-78222404D01*
X70372880Y-78260753D01*
X70359694Y-78267447D01*
X70329794Y-78276918D01*
X70287549Y-78283990D01*
X70237446Y-78288503D01*
X70183970Y-78290299D01*
X70131606Y-78289215D01*
X70084841Y-78285092D01*
X70050660Y-78278489D01*
X70007690Y-78265730D01*
X69979096Y-78254791D01*
X69962542Y-78244207D01*
X69955695Y-78232513D01*
X69956032Y-78219147D01*
X69960042Y-78197051D01*
X69965764Y-78163306D01*
X69970479Y-78134408D01*
X69977554Y-78092733D01*
X69984604Y-78068085D01*
X69994946Y-78057570D01*
X70011897Y-78058294D01*
X70038773Y-78067365D01*
X70044771Y-78069605D01*
X70098785Y-78086140D01*
X70151225Y-78095578D01*
X70199449Y-78098077D01*
X70240815Y-78093798D01*
X70272682Y-78082900D01*
X70292406Y-78065543D01*
X70296917Y-78054356D01*
X70299633Y-78038049D01*
X70299101Y-78024163D01*
X70293604Y-78011220D01*
X70281427Y-77997739D01*
X70260853Y-77982242D01*
X70230165Y-77963251D01*
X70187646Y-77939285D01*
X70131580Y-77908865D01*
X70122220Y-77903829D01*
X70063918Y-77865734D01*
X70021076Y-77822024D01*
X69992614Y-77771435D01*
X69982844Y-77740814D01*
X69971950Y-77666080D01*
X69977002Y-77597005D01*
X69997401Y-77535165D01*
X70032550Y-77482136D01*
X70081853Y-77439494D01*
X70101460Y-77427790D01*
X70141055Y-77412960D01*
X70192377Y-77403421D01*
X70250752Y-77399409D01*
X70311506Y-77401159D01*
X70311506Y-77401159D01*
G37*
X70311506Y-77401159D02*
X70369966Y-77408905D01*
X70389909Y-77413296D01*
X70421864Y-77421912D01*
X70447177Y-77430013D01*
X70461420Y-77436145D01*
X70462754Y-77437226D01*
X70463364Y-77449124D01*
X70460857Y-77475111D01*
X70456142Y-77509535D01*
X70450127Y-77546747D01*
X70443719Y-77581097D01*
X70437826Y-77606934D01*
X70433660Y-77618307D01*
X70424128Y-77618470D01*
X70402871Y-77614479D01*
X70375734Y-77607534D01*
X70329592Y-77597620D01*
X70283251Y-77593068D01*
X70241487Y-77593948D01*
X70209078Y-77600327D01*
X70198827Y-77605005D01*
X70180919Y-77625794D01*
X70174476Y-77654830D01*
X70180604Y-77684284D01*
X70186289Y-77693734D01*
X70200079Y-77705506D01*
X70225477Y-77721691D01*
X70258197Y-77739683D01*
X70277940Y-77749489D01*
X70345510Y-77784407D01*
X70398166Y-77818184D01*
X70437740Y-77852710D01*
X70466062Y-77889871D01*
X70484963Y-77931556D01*
X70495277Y-77973593D01*
X70501027Y-78048536D01*
X70491299Y-78115510D01*
X70466457Y-78173728D01*
X70426864Y-78222404D01*
X70372880Y-78260753D01*
X70359694Y-78267447D01*
X70329794Y-78276918D01*
X70287549Y-78283990D01*
X70237446Y-78288503D01*
X70183970Y-78290299D01*
X70131606Y-78289215D01*
X70084841Y-78285092D01*
X70050660Y-78278489D01*
X70007690Y-78265730D01*
X69979096Y-78254791D01*
X69962542Y-78244207D01*
X69955695Y-78232513D01*
X69956032Y-78219147D01*
X69960042Y-78197051D01*
X69965764Y-78163306D01*
X69970479Y-78134408D01*
X69977554Y-78092733D01*
X69984604Y-78068085D01*
X69994946Y-78057570D01*
X70011897Y-78058294D01*
X70038773Y-78067365D01*
X70044771Y-78069605D01*
X70098785Y-78086140D01*
X70151225Y-78095578D01*
X70199449Y-78098077D01*
X70240815Y-78093798D01*
X70272682Y-78082900D01*
X70292406Y-78065543D01*
X70296917Y-78054356D01*
X70299633Y-78038049D01*
X70299101Y-78024163D01*
X70293604Y-78011220D01*
X70281427Y-77997739D01*
X70260853Y-77982242D01*
X70230165Y-77963251D01*
X70187646Y-77939285D01*
X70131580Y-77908865D01*
X70122220Y-77903829D01*
X70063918Y-77865734D01*
X70021076Y-77822024D01*
X69992614Y-77771435D01*
X69982844Y-77740814D01*
X69971950Y-77666080D01*
X69977002Y-77597005D01*
X69997401Y-77535165D01*
X70032550Y-77482136D01*
X70081853Y-77439494D01*
X70101460Y-77427790D01*
X70141055Y-77412960D01*
X70192377Y-77403421D01*
X70250752Y-77399409D01*
X70311506Y-77401159D01*
G36*
X72967438Y-77401614D02*
G01*
X73027042Y-77410324D01*
X73039976Y-77413296D01*
X73072051Y-77422018D01*
X73097594Y-77430380D01*
X73112119Y-77436872D01*
X73113511Y-77438036D01*
X73114298Y-77450205D01*
X73111831Y-77476382D01*
X73107042Y-77510887D01*
X73100865Y-77548040D01*
X73094234Y-77582160D01*
X73088082Y-77607566D01*
X73083927Y-77618065D01*
X73074288Y-77618351D01*
X73052949Y-77614444D01*
X73025801Y-77607534D01*
X72979661Y-77597620D01*
X72933320Y-77593068D01*
X72891556Y-77593947D01*
X72859145Y-77600325D01*
X72848893Y-77605001D01*
X72831091Y-77625678D01*
X72824489Y-77654483D01*
X72829990Y-77683427D01*
X72838525Y-77696534D01*
X72852798Y-77707436D01*
X72878767Y-77723225D01*
X72912316Y-77741507D01*
X72938419Y-77754657D01*
X73005763Y-77790464D01*
X73058014Y-77825749D01*
X73096886Y-77862495D01*
X73124091Y-77902687D01*
X73141341Y-77948308D01*
X73150226Y-78000077D01*
X73150127Y-78072545D01*
X73135143Y-78136647D01*
X73105640Y-78191111D01*
X73089687Y-78210092D01*
X73060700Y-78236270D01*
X73028597Y-78258817D01*
X73011407Y-78267884D01*
X72979899Y-78277029D01*
X72936189Y-78283839D01*
X72884909Y-78288155D01*
X72830693Y-78289819D01*
X72778174Y-78288673D01*
X72731986Y-78284559D01*
X72700727Y-78278489D01*
X72658230Y-78265899D01*
X72630046Y-78255166D01*
X72613791Y-78244778D01*
X72607078Y-78233228D01*
X72607432Y-78219462D01*
X72611380Y-78197869D01*
X72617339Y-78163926D01*
X72623626Y-78127287D01*
X72629937Y-78092284D01*
X72635365Y-78066041D01*
X72638772Y-78054050D01*
X72638847Y-78053948D01*
X72648071Y-78054565D01*
X72668905Y-78060201D01*
X72696845Y-78069638D01*
X72696931Y-78069670D01*
X72734896Y-78081011D01*
X72779378Y-78090713D01*
X72815787Y-78096073D01*
X72871176Y-78097783D01*
X72911640Y-78090163D01*
X72937316Y-78073168D01*
X72947511Y-78051838D01*
X72949687Y-78032879D01*
X72946367Y-78016234D01*
X72935741Y-78000264D01*
X72916001Y-77983324D01*
X72885338Y-77963775D01*
X72841942Y-77939975D01*
X72800997Y-77918878D01*
X72742508Y-77885976D01*
X72698502Y-77852940D01*
X72666676Y-77816971D01*
X72644725Y-77775272D01*
X72630345Y-77725043D01*
X72627132Y-77707712D01*
X72623198Y-77636641D01*
X72634970Y-77570442D01*
X72661333Y-77511668D01*
X72701170Y-77462871D01*
X72749091Y-77428809D01*
X72791129Y-77413214D01*
X72844712Y-77403313D01*
X72905072Y-77399362D01*
X72967438Y-77401614D01*
X72967438Y-77401614D01*
G37*
X72967438Y-77401614D02*
X73027042Y-77410324D01*
X73039976Y-77413296D01*
X73072051Y-77422018D01*
X73097594Y-77430380D01*
X73112119Y-77436872D01*
X73113511Y-77438036D01*
X73114298Y-77450205D01*
X73111831Y-77476382D01*
X73107042Y-77510887D01*
X73100865Y-77548040D01*
X73094234Y-77582160D01*
X73088082Y-77607566D01*
X73083927Y-77618065D01*
X73074288Y-77618351D01*
X73052949Y-77614444D01*
X73025801Y-77607534D01*
X72979661Y-77597620D01*
X72933320Y-77593068D01*
X72891556Y-77593947D01*
X72859145Y-77600325D01*
X72848893Y-77605001D01*
X72831091Y-77625678D01*
X72824489Y-77654483D01*
X72829990Y-77683427D01*
X72838525Y-77696534D01*
X72852798Y-77707436D01*
X72878767Y-77723225D01*
X72912316Y-77741507D01*
X72938419Y-77754657D01*
X73005763Y-77790464D01*
X73058014Y-77825749D01*
X73096886Y-77862495D01*
X73124091Y-77902687D01*
X73141341Y-77948308D01*
X73150226Y-78000077D01*
X73150127Y-78072545D01*
X73135143Y-78136647D01*
X73105640Y-78191111D01*
X73089687Y-78210092D01*
X73060700Y-78236270D01*
X73028597Y-78258817D01*
X73011407Y-78267884D01*
X72979899Y-78277029D01*
X72936189Y-78283839D01*
X72884909Y-78288155D01*
X72830693Y-78289819D01*
X72778174Y-78288673D01*
X72731986Y-78284559D01*
X72700727Y-78278489D01*
X72658230Y-78265899D01*
X72630046Y-78255166D01*
X72613791Y-78244778D01*
X72607078Y-78233228D01*
X72607432Y-78219462D01*
X72611380Y-78197869D01*
X72617339Y-78163926D01*
X72623626Y-78127287D01*
X72629937Y-78092284D01*
X72635365Y-78066041D01*
X72638772Y-78054050D01*
X72638847Y-78053948D01*
X72648071Y-78054565D01*
X72668905Y-78060201D01*
X72696845Y-78069638D01*
X72696931Y-78069670D01*
X72734896Y-78081011D01*
X72779378Y-78090713D01*
X72815787Y-78096073D01*
X72871176Y-78097783D01*
X72911640Y-78090163D01*
X72937316Y-78073168D01*
X72947511Y-78051838D01*
X72949687Y-78032879D01*
X72946367Y-78016234D01*
X72935741Y-78000264D01*
X72916001Y-77983324D01*
X72885338Y-77963775D01*
X72841942Y-77939975D01*
X72800997Y-77918878D01*
X72742508Y-77885976D01*
X72698502Y-77852940D01*
X72666676Y-77816971D01*
X72644725Y-77775272D01*
X72630345Y-77725043D01*
X72627132Y-77707712D01*
X72623198Y-77636641D01*
X72634970Y-77570442D01*
X72661333Y-77511668D01*
X72701170Y-77462871D01*
X72749091Y-77428809D01*
X72791129Y-77413214D01*
X72844712Y-77403313D01*
X72905072Y-77399362D01*
X72967438Y-77401614D01*
G36*
X68583445Y-77141586D02*
G01*
X68621566Y-77143405D01*
X68651883Y-77146549D01*
X68677434Y-77151248D01*
X68701259Y-77157735D01*
X68704460Y-77158744D01*
X68790801Y-77195141D01*
X68864467Y-77244978D01*
X68925343Y-77308067D01*
X68973312Y-77384218D01*
X69008257Y-77473241D01*
X69030064Y-77574947D01*
X69038615Y-77689147D01*
X69038746Y-77704354D01*
X69035579Y-77794980D01*
X69025014Y-77873365D01*
X69005956Y-77946125D01*
X68992660Y-77983080D01*
X68952220Y-78066343D01*
X68900946Y-78135461D01*
X68837728Y-78191564D01*
X68761452Y-78235779D01*
X68730524Y-78249027D01*
X68705032Y-78258614D01*
X68682014Y-78265701D01*
X68658111Y-78270722D01*
X68629969Y-78274109D01*
X68594230Y-78276293D01*
X68547537Y-78277707D01*
X68501260Y-78278555D01*
X68445690Y-78278825D01*
X68391267Y-78277990D01*
X68342095Y-78276192D01*
X68302276Y-78273573D01*
X68278938Y-78270823D01*
X68217482Y-78260534D01*
X68218232Y-78072060D01*
X68429074Y-78072060D01*
X68520201Y-78067051D01*
X68577236Y-78061994D01*
X68621854Y-78053371D01*
X68658419Y-78040332D01*
X68659103Y-78040018D01*
X68707408Y-78008051D01*
X68750832Y-77961165D01*
X68784931Y-77904756D01*
X68798293Y-77871033D01*
X68805934Y-77842191D01*
X68810860Y-77809270D01*
X68813548Y-77767183D01*
X68814477Y-77710843D01*
X68814494Y-77698600D01*
X68814075Y-77643901D01*
X68812450Y-77604249D01*
X68809012Y-77574386D01*
X68803156Y-77549052D01*
X68794275Y-77522986D01*
X68794264Y-77522957D01*
X68763099Y-77463332D01*
X68719916Y-77414056D01*
X68668658Y-77379272D01*
X68650165Y-77371509D01*
X68610937Y-77361781D01*
X68560505Y-77355680D01*
X68518194Y-77353926D01*
X68433527Y-77353160D01*
X68431301Y-77712610D01*
X68429074Y-78072060D01*
X68218232Y-78072060D01*
X68221860Y-77160680D01*
X68259960Y-77151433D01*
X68280131Y-77148531D01*
X68313944Y-77145879D01*
X68358108Y-77143640D01*
X68409333Y-77141977D01*
X68464327Y-77141051D01*
X68471627Y-77140993D01*
X68534479Y-77140859D01*
X68583445Y-77141586D01*
X68583445Y-77141586D01*
G37*
X68583445Y-77141586D02*
X68621566Y-77143405D01*
X68651883Y-77146549D01*
X68677434Y-77151248D01*
X68701259Y-77157735D01*
X68704460Y-77158744D01*
X68790801Y-77195141D01*
X68864467Y-77244978D01*
X68925343Y-77308067D01*
X68973312Y-77384218D01*
X69008257Y-77473241D01*
X69030064Y-77574947D01*
X69038615Y-77689147D01*
X69038746Y-77704354D01*
X69035579Y-77794980D01*
X69025014Y-77873365D01*
X69005956Y-77946125D01*
X68992660Y-77983080D01*
X68952220Y-78066343D01*
X68900946Y-78135461D01*
X68837728Y-78191564D01*
X68761452Y-78235779D01*
X68730524Y-78249027D01*
X68705032Y-78258614D01*
X68682014Y-78265701D01*
X68658111Y-78270722D01*
X68629969Y-78274109D01*
X68594230Y-78276293D01*
X68547537Y-78277707D01*
X68501260Y-78278555D01*
X68445690Y-78278825D01*
X68391267Y-78277990D01*
X68342095Y-78276192D01*
X68302276Y-78273573D01*
X68278938Y-78270823D01*
X68217482Y-78260534D01*
X68218232Y-78072060D01*
X68429074Y-78072060D01*
X68520201Y-78067051D01*
X68577236Y-78061994D01*
X68621854Y-78053371D01*
X68658419Y-78040332D01*
X68659103Y-78040018D01*
X68707408Y-78008051D01*
X68750832Y-77961165D01*
X68784931Y-77904756D01*
X68798293Y-77871033D01*
X68805934Y-77842191D01*
X68810860Y-77809270D01*
X68813548Y-77767183D01*
X68814477Y-77710843D01*
X68814494Y-77698600D01*
X68814075Y-77643901D01*
X68812450Y-77604249D01*
X68809012Y-77574386D01*
X68803156Y-77549052D01*
X68794275Y-77522986D01*
X68794264Y-77522957D01*
X68763099Y-77463332D01*
X68719916Y-77414056D01*
X68668658Y-77379272D01*
X68650165Y-77371509D01*
X68610937Y-77361781D01*
X68560505Y-77355680D01*
X68518194Y-77353926D01*
X68433527Y-77353160D01*
X68431301Y-77712610D01*
X68429074Y-78072060D01*
X68218232Y-78072060D01*
X68221860Y-77160680D01*
X68259960Y-77151433D01*
X68280131Y-77148531D01*
X68313944Y-77145879D01*
X68358108Y-77143640D01*
X68409333Y-77141977D01*
X68464327Y-77141051D01*
X68471627Y-77140993D01*
X68534479Y-77140859D01*
X68583445Y-77141586D01*
G36*
X63947217Y-77408304D02*
G01*
X63996089Y-77419986D01*
X64019658Y-77428471D01*
X64030170Y-77437360D01*
X64031298Y-77450193D01*
X64030749Y-77453400D01*
X64027043Y-77473757D01*
X64021176Y-77507158D01*
X64014351Y-77546735D01*
X64013673Y-77550707D01*
X64007258Y-77587101D01*
X64002015Y-77614645D01*
X63998917Y-77628278D01*
X63998652Y-77628876D01*
X63989942Y-77628314D01*
X63970309Y-77623979D01*
X63958664Y-77620892D01*
X63932961Y-77615985D01*
X63899504Y-77612585D01*
X63863039Y-77610796D01*
X63828309Y-77610721D01*
X63800059Y-77612463D01*
X63783033Y-77616127D01*
X63781489Y-77617026D01*
X63778634Y-77629479D01*
X63776328Y-77662107D01*
X63774574Y-77714775D01*
X63773377Y-77787351D01*
X63772739Y-77879700D01*
X63772627Y-77948119D01*
X63772627Y-78272640D01*
X63569427Y-78272640D01*
X63569427Y-77462066D01*
X63639277Y-77439448D01*
X63749728Y-77411319D01*
X63852436Y-77400934D01*
X63947217Y-77408304D01*
X63947217Y-77408304D01*
G37*
X63947217Y-77408304D02*
X63996089Y-77419986D01*
X64019658Y-77428471D01*
X64030170Y-77437360D01*
X64031298Y-77450193D01*
X64030749Y-77453400D01*
X64027043Y-77473757D01*
X64021176Y-77507158D01*
X64014351Y-77546735D01*
X64013673Y-77550707D01*
X64007258Y-77587101D01*
X64002015Y-77614645D01*
X63998917Y-77628278D01*
X63998652Y-77628876D01*
X63989942Y-77628314D01*
X63970309Y-77623979D01*
X63958664Y-77620892D01*
X63932961Y-77615985D01*
X63899504Y-77612585D01*
X63863039Y-77610796D01*
X63828309Y-77610721D01*
X63800059Y-77612463D01*
X63783033Y-77616127D01*
X63781489Y-77617026D01*
X63778634Y-77629479D01*
X63776328Y-77662107D01*
X63774574Y-77714775D01*
X63773377Y-77787351D01*
X63772739Y-77879700D01*
X63772627Y-77948119D01*
X63772627Y-78272640D01*
X63569427Y-78272640D01*
X63569427Y-77462066D01*
X63639277Y-77439448D01*
X63749728Y-77411319D01*
X63852436Y-77400934D01*
X63947217Y-77408304D01*
G36*
X65746194Y-77017462D02*
G01*
X65748581Y-77031025D01*
X65750453Y-77055745D01*
X65751859Y-77093247D01*
X65752849Y-77145156D01*
X65753472Y-77213096D01*
X65753776Y-77298692D01*
X65753827Y-77363320D01*
X65754027Y-77445421D01*
X65754597Y-77520692D01*
X65755488Y-77586816D01*
X65756654Y-77641477D01*
X65758047Y-77682359D01*
X65759619Y-77707147D01*
X65761016Y-77713840D01*
X65768339Y-77706612D01*
X65784509Y-77686880D01*
X65807356Y-77657569D01*
X65834711Y-77621606D01*
X65864403Y-77581918D01*
X65894262Y-77541429D01*
X65922118Y-77503067D01*
X65945802Y-77469758D01*
X65963142Y-77444427D01*
X65971970Y-77430002D01*
X65972549Y-77428598D01*
X65981559Y-77425266D01*
X66004433Y-77422453D01*
X66038103Y-77420390D01*
X66079501Y-77419307D01*
X66098060Y-77419200D01*
X66220749Y-77419200D01*
X66131819Y-77538580D01*
X66095790Y-77586339D01*
X66058390Y-77634878D01*
X66023414Y-77679341D01*
X65994653Y-77714869D01*
X65987686Y-77723197D01*
X65932483Y-77788434D01*
X65979262Y-77849066D01*
X66028376Y-77916507D01*
X66079645Y-77993476D01*
X66128746Y-78073124D01*
X66171355Y-78148602D01*
X66185324Y-78175518D01*
X66203538Y-78212303D01*
X66217872Y-78242388D01*
X66226412Y-78261699D01*
X66227960Y-78266430D01*
X66220010Y-78268709D01*
X66198225Y-78270611D01*
X66165703Y-78271969D01*
X66125542Y-78272611D01*
X66114602Y-78272640D01*
X66001244Y-78272640D01*
X65937728Y-78158340D01*
X65910146Y-78110749D01*
X65880108Y-78062327D01*
X65849600Y-78015913D01*
X65820610Y-77974341D01*
X65795126Y-77940450D01*
X65775136Y-77917076D01*
X65762626Y-77907055D01*
X65761543Y-77906880D01*
X65758995Y-77916548D01*
X65756825Y-77943592D01*
X65755160Y-77985068D01*
X65754122Y-78038036D01*
X65753827Y-78089760D01*
X65753827Y-78272640D01*
X65558961Y-78272640D01*
X65563327Y-77048904D01*
X65647993Y-77031483D01*
X65684745Y-77024067D01*
X65715717Y-77018086D01*
X65736795Y-77014321D01*
X65743243Y-77013431D01*
X65746194Y-77017462D01*
X65746194Y-77017462D01*
G37*
X65746194Y-77017462D02*
X65748581Y-77031025D01*
X65750453Y-77055745D01*
X65751859Y-77093247D01*
X65752849Y-77145156D01*
X65753472Y-77213096D01*
X65753776Y-77298692D01*
X65753827Y-77363320D01*
X65754027Y-77445421D01*
X65754597Y-77520692D01*
X65755488Y-77586816D01*
X65756654Y-77641477D01*
X65758047Y-77682359D01*
X65759619Y-77707147D01*
X65761016Y-77713840D01*
X65768339Y-77706612D01*
X65784509Y-77686880D01*
X65807356Y-77657569D01*
X65834711Y-77621606D01*
X65864403Y-77581918D01*
X65894262Y-77541429D01*
X65922118Y-77503067D01*
X65945802Y-77469758D01*
X65963142Y-77444427D01*
X65971970Y-77430002D01*
X65972549Y-77428598D01*
X65981559Y-77425266D01*
X66004433Y-77422453D01*
X66038103Y-77420390D01*
X66079501Y-77419307D01*
X66098060Y-77419200D01*
X66220749Y-77419200D01*
X66131819Y-77538580D01*
X66095790Y-77586339D01*
X66058390Y-77634878D01*
X66023414Y-77679341D01*
X65994653Y-77714869D01*
X65987686Y-77723197D01*
X65932483Y-77788434D01*
X65979262Y-77849066D01*
X66028376Y-77916507D01*
X66079645Y-77993476D01*
X66128746Y-78073124D01*
X66171355Y-78148602D01*
X66185324Y-78175518D01*
X66203538Y-78212303D01*
X66217872Y-78242388D01*
X66226412Y-78261699D01*
X66227960Y-78266430D01*
X66220010Y-78268709D01*
X66198225Y-78270611D01*
X66165703Y-78271969D01*
X66125542Y-78272611D01*
X66114602Y-78272640D01*
X66001244Y-78272640D01*
X65937728Y-78158340D01*
X65910146Y-78110749D01*
X65880108Y-78062327D01*
X65849600Y-78015913D01*
X65820610Y-77974341D01*
X65795126Y-77940450D01*
X65775136Y-77917076D01*
X65762626Y-77907055D01*
X65761543Y-77906880D01*
X65758995Y-77916548D01*
X65756825Y-77943592D01*
X65755160Y-77985068D01*
X65754122Y-78038036D01*
X65753827Y-78089760D01*
X65753827Y-78272640D01*
X65558961Y-78272640D01*
X65563327Y-77048904D01*
X65647993Y-77031483D01*
X65684745Y-77024067D01*
X65715717Y-77018086D01*
X65736795Y-77014321D01*
X65743243Y-77013431D01*
X65746194Y-77017462D01*
G36*
X67551485Y-77437894D02*
G01*
X67591865Y-77465459D01*
X67621295Y-77495375D01*
X67637523Y-77519046D01*
X67652487Y-77545235D01*
X67664611Y-77570930D01*
X67674235Y-77598651D01*
X67681698Y-77630920D01*
X67687339Y-77670258D01*
X67691496Y-77719188D01*
X67694509Y-77780230D01*
X67696716Y-77855906D01*
X67698456Y-77948737D01*
X67698866Y-77975460D01*
X67703290Y-78272640D01*
X67497960Y-78272640D01*
X67497960Y-78030186D01*
X67497521Y-77933425D01*
X67496077Y-77854761D01*
X67493439Y-77791994D01*
X67489415Y-77742924D01*
X67483817Y-77705351D01*
X67476454Y-77677077D01*
X67467136Y-77655901D01*
X67465363Y-77652880D01*
X67438040Y-77624642D01*
X67399264Y-77608205D01*
X67351940Y-77604604D01*
X67334735Y-77606439D01*
X67286294Y-77613702D01*
X67286294Y-78272640D01*
X67082904Y-78272640D01*
X67085115Y-77858649D01*
X67087327Y-77444659D01*
X67155060Y-77426017D01*
X67196724Y-77416850D01*
X67245954Y-77410597D01*
X67306161Y-77406918D01*
X67358397Y-77405668D01*
X67494001Y-77403960D01*
X67551485Y-77437894D01*
X67551485Y-77437894D01*
G37*
X67551485Y-77437894D02*
X67591865Y-77465459D01*
X67621295Y-77495375D01*
X67637523Y-77519046D01*
X67652487Y-77545235D01*
X67664611Y-77570930D01*
X67674235Y-77598651D01*
X67681698Y-77630920D01*
X67687339Y-77670258D01*
X67691496Y-77719188D01*
X67694509Y-77780230D01*
X67696716Y-77855906D01*
X67698456Y-77948737D01*
X67698866Y-77975460D01*
X67703290Y-78272640D01*
X67497960Y-78272640D01*
X67497960Y-78030186D01*
X67497521Y-77933425D01*
X67496077Y-77854761D01*
X67493439Y-77791994D01*
X67489415Y-77742924D01*
X67483817Y-77705351D01*
X67476454Y-77677077D01*
X67467136Y-77655901D01*
X67465363Y-77652880D01*
X67438040Y-77624642D01*
X67399264Y-77608205D01*
X67351940Y-77604604D01*
X67334735Y-77606439D01*
X67286294Y-77613702D01*
X67286294Y-78272640D01*
X67082904Y-78272640D01*
X67085115Y-77858649D01*
X67087327Y-77444659D01*
X67155060Y-77426017D01*
X67196724Y-77416850D01*
X67245954Y-77410597D01*
X67306161Y-77406918D01*
X67358397Y-77405668D01*
X67494001Y-77403960D01*
X67551485Y-77437894D01*
G36*
X70850760Y-78272640D02*
G01*
X70647560Y-78272640D01*
X70647560Y-77419200D01*
X70850760Y-77419200D01*
X70850760Y-78272640D01*
X70850760Y-78272640D01*
G37*
X70850760Y-78272640D02*
X70647560Y-78272640D01*
X70647560Y-77419200D01*
X70850760Y-77419200D01*
X70850760Y-78272640D01*
G36*
X72317720Y-77437591D02*
G01*
X72359827Y-77466742D01*
X72391595Y-77500387D01*
X72417514Y-77544224D01*
X72435889Y-77587399D01*
X72441301Y-77602235D01*
X72445622Y-77617116D01*
X72448999Y-77634493D01*
X72451578Y-77656812D01*
X72453506Y-77686522D01*
X72454928Y-77726072D01*
X72455992Y-77777910D01*
X72456843Y-77844484D01*
X72457627Y-77928243D01*
X72457855Y-77955140D01*
X72460516Y-78272640D01*
X72264693Y-78272640D01*
X72264629Y-78061820D01*
X72263786Y-77949018D01*
X72261280Y-77855469D01*
X72257033Y-77780195D01*
X72250969Y-77722219D01*
X72243010Y-77680562D01*
X72233079Y-77654246D01*
X72232329Y-77652987D01*
X72206438Y-77626784D01*
X72169101Y-77610241D01*
X72124345Y-77604756D01*
X72099200Y-77606779D01*
X72053027Y-77613702D01*
X72053027Y-78272640D01*
X71849637Y-78272640D01*
X71851849Y-77858649D01*
X71854060Y-77444659D01*
X71921793Y-77425836D01*
X71961834Y-77416815D01*
X72008331Y-77410642D01*
X72064911Y-77406955D01*
X72125145Y-77405486D01*
X72260763Y-77403960D01*
X72317720Y-77437591D01*
X72317720Y-77437591D01*
G37*
X72317720Y-77437591D02*
X72359827Y-77466742D01*
X72391595Y-77500387D01*
X72417514Y-77544224D01*
X72435889Y-77587399D01*
X72441301Y-77602235D01*
X72445622Y-77617116D01*
X72448999Y-77634493D01*
X72451578Y-77656812D01*
X72453506Y-77686522D01*
X72454928Y-77726072D01*
X72455992Y-77777910D01*
X72456843Y-77844484D01*
X72457627Y-77928243D01*
X72457855Y-77955140D01*
X72460516Y-78272640D01*
X72264693Y-78272640D01*
X72264629Y-78061820D01*
X72263786Y-77949018D01*
X72261280Y-77855469D01*
X72257033Y-77780195D01*
X72250969Y-77722219D01*
X72243010Y-77680562D01*
X72233079Y-77654246D01*
X72232329Y-77652987D01*
X72206438Y-77626784D01*
X72169101Y-77610241D01*
X72124345Y-77604756D01*
X72099200Y-77606779D01*
X72053027Y-77613702D01*
X72053027Y-78272640D01*
X71849637Y-78272640D01*
X71851849Y-77858649D01*
X71854060Y-77444659D01*
X71921793Y-77425836D01*
X71961834Y-77416815D01*
X72008331Y-77410642D01*
X72064911Y-77406955D01*
X72125145Y-77405486D01*
X72260763Y-77403960D01*
X72317720Y-77437591D01*
G36*
X70807397Y-77043743D02*
G01*
X70822319Y-77053518D01*
X70847165Y-77083177D01*
X70863108Y-77124622D01*
X70869101Y-77171637D01*
X70864094Y-77218007D01*
X70854551Y-77244642D01*
X70827225Y-77281467D01*
X70790705Y-77304033D01*
X70749089Y-77310669D01*
X70712616Y-77302476D01*
X70675442Y-77281127D01*
X70651291Y-77251590D01*
X70637925Y-77215325D01*
X70632463Y-77163558D01*
X70641172Y-77117120D01*
X70661483Y-77078266D01*
X70690829Y-77049248D01*
X70726642Y-77032319D01*
X70766354Y-77029733D01*
X70807397Y-77043743D01*
X70807397Y-77043743D01*
G37*
X70807397Y-77043743D02*
X70822319Y-77053518D01*
X70847165Y-77083177D01*
X70863108Y-77124622D01*
X70869101Y-77171637D01*
X70864094Y-77218007D01*
X70854551Y-77244642D01*
X70827225Y-77281467D01*
X70790705Y-77304033D01*
X70749089Y-77310669D01*
X70712616Y-77302476D01*
X70675442Y-77281127D01*
X70651291Y-77251590D01*
X70637925Y-77215325D01*
X70632463Y-77163558D01*
X70641172Y-77117120D01*
X70661483Y-77078266D01*
X70690829Y-77049248D01*
X70726642Y-77032319D01*
X70766354Y-77029733D01*
X70807397Y-77043743D01*
D11*
X89638700Y-92471200D02*
G75*
G03X89638700Y-92471200I-50000J0D01*
G01*
X86654200Y-92456000D02*
G75*
G03X86654200Y-92456000I-50000J0D01*
G01*
D13*
X52658400Y-94968000D02*
X52658400Y-82628000D01*
X52658400Y-82628000D02*
X83628400Y-82628000D01*
X83628400Y-82628000D02*
X83628400Y-94968000D01*
X62353400Y-81733662D02*
X62853400Y-81733662D01*
X62853400Y-81733662D02*
X62603400Y-82166675D01*
X62603400Y-82166675D02*
X62353400Y-81733662D01*
D10*
X81749900Y-41018500D02*
X79717900Y-41018500D01*
X79717900Y-41018500D02*
X79717900Y-37462500D01*
X79717900Y-37462500D02*
X87337900Y-37462500D01*
X87337900Y-37462500D02*
X87337900Y-41018500D01*
X87337900Y-41018500D02*
X85305900Y-41018500D01*
X78447900Y-36446500D02*
X77431900Y-36446500D01*
X89623900Y-36446500D02*
X88607900Y-36446500D01*
X80987900Y-34414500D02*
X80987900Y-35938500D01*
X86067900Y-35938500D02*
X86067900Y-34414500D01*
X80987900Y-35176500D02*
X86067900Y-35176500D01*
X78447900Y-36446500D02*
X78447900Y-36192500D01*
X78447900Y-36192500D02*
X78447900Y-35938500D01*
X78447900Y-35938500D02*
X88607900Y-35938500D01*
X88607900Y-35938500D02*
X88607900Y-36446500D01*
X80987900Y-34414500D02*
X86067900Y-34414500D01*
X77431900Y-48638500D02*
X77431900Y-36446500D01*
X89623900Y-36446500D02*
X89623900Y-48638500D01*
X89623900Y-48638500D02*
X77431900Y-48638500D01*
X76929000Y-48638500D02*
X64737000Y-48638500D01*
X76929000Y-36446500D02*
X76929000Y-48638500D01*
X64737000Y-48638500D02*
X64737000Y-36446500D01*
X68293000Y-34414500D02*
X73373000Y-34414500D01*
X75913000Y-35938500D02*
X75913000Y-36446500D01*
X65753000Y-35938500D02*
X75913000Y-35938500D01*
X65753000Y-36192500D02*
X65753000Y-35938500D01*
X65753000Y-36446500D02*
X65753000Y-36192500D01*
X68293000Y-35176500D02*
X73373000Y-35176500D01*
X73373000Y-35938500D02*
X73373000Y-34414500D01*
X68293000Y-34414500D02*
X68293000Y-35938500D01*
X76929000Y-36446500D02*
X75913000Y-36446500D01*
X65753000Y-36446500D02*
X64737000Y-36446500D01*
X74643000Y-41018500D02*
X72611000Y-41018500D01*
X74643000Y-37462500D02*
X74643000Y-41018500D01*
X67023000Y-37462500D02*
X74643000Y-37462500D01*
X67023000Y-41018500D02*
X67023000Y-37462500D01*
X69055000Y-41018500D02*
X67023000Y-41018500D01*
D13*
X63912200Y-36460800D02*
X63912200Y-45060800D01*
X63912200Y-45060800D02*
X32942200Y-45060800D01*
X32942200Y-45060800D02*
X32942200Y-36460800D01*
X44362200Y-45955138D02*
X43862200Y-45955138D01*
X43862200Y-45955138D02*
X44112200Y-45522125D01*
X44112200Y-45522125D02*
X44362200Y-45955138D01*
D10*
X51487200Y-92658600D02*
X33887200Y-92658600D01*
X33887200Y-92658600D02*
X33887200Y-82158600D01*
X33887200Y-82158600D02*
X51487200Y-82158600D01*
X51487200Y-82158600D02*
X51487200Y-92658600D01*
D13*
X35215600Y-46482400D02*
X31795600Y-46482400D01*
X31795600Y-46482400D02*
X31795600Y-55952400D01*
X31795600Y-55952400D02*
X35215600Y-55952400D01*
X35215600Y-55952400D02*
X35215600Y-46482400D01*
X32305600Y-51217400D02*
X32305600Y-46992400D01*
X32305600Y-46992400D02*
X33055600Y-46992400D01*
X33055600Y-46992400D02*
X33055600Y-46792400D01*
X33055600Y-46792400D02*
X33855600Y-46792400D01*
X33855600Y-46792400D02*
X33855600Y-46992400D01*
X33855600Y-46992400D02*
X34705600Y-46992400D01*
X34705600Y-46992400D02*
X34705600Y-51217400D01*
X32305600Y-51217400D02*
X32305600Y-55442400D01*
X32305600Y-55442400D02*
X33055600Y-55442400D01*
X33055600Y-55442400D02*
X33055600Y-55642400D01*
X33055600Y-55642400D02*
X33855600Y-55642400D01*
X33855600Y-55642400D02*
X33855600Y-55442400D01*
X33855600Y-55442400D02*
X34705600Y-55442400D01*
X34705600Y-55442400D02*
X34705600Y-51217400D01*
X31505600Y-46192400D02*
X32505600Y-46192400D01*
X31505600Y-46192400D02*
X31505600Y-47192400D01*
D14*
X64720500Y-59166700D02*
G75*
G03X64720500Y-59166700I-100000J0D01*
G01*
D15*
X64015500Y-56771700D02*
X64015500Y-51391700D01*
X69395500Y-56771700D02*
X69395500Y-51391700D01*
X64015500Y-56771700D02*
X64205500Y-56771700D01*
X64015500Y-51391700D02*
X64205500Y-51391700D01*
X69215500Y-51391700D02*
X69395500Y-51391700D01*
X69215500Y-56771700D02*
X69395500Y-56771700D01*
D13*
X90224100Y-87970100D02*
X90674100Y-87970100D01*
X90674100Y-87970100D02*
X90674100Y-81270100D01*
X90674100Y-81270100D02*
X90274100Y-81270100D01*
X88924100Y-87970100D02*
X86224100Y-87970100D01*
X86224100Y-81270100D02*
X88924100Y-81270100D01*
X84474100Y-87970100D02*
X84474100Y-81270100D01*
X84474100Y-81270100D02*
X84924100Y-81270100D01*
X84924100Y-87970100D02*
X84474100Y-87970100D01*
D11*
X37221100Y-77424700D02*
G75*
G03X37221100Y-77424700I-127000J0D01*
G01*
D13*
X91477500Y-59005100D02*
X89527500Y-59005100D01*
X87307500Y-59005100D02*
X84077500Y-59005100D01*
X82157500Y-58285100D02*
X82157500Y-57205100D01*
X82157500Y-52985100D02*
X82157500Y-51905100D01*
X87307500Y-51185100D02*
X84077500Y-51185100D01*
X91477500Y-51185100D02*
X89527500Y-51185100D01*
X82157500Y-57205100D02*
X81727500Y-57205100D01*
X91477500Y-51185100D02*
X91477500Y-59005100D01*
D10*
X90744600Y-77504800D02*
X90744600Y-70154800D01*
X90744600Y-70154800D02*
X90794600Y-68804800D01*
X90794600Y-68804800D02*
X90944600Y-67654800D01*
X90944600Y-67654800D02*
X91144600Y-66554800D01*
X91144600Y-66554800D02*
X91444600Y-65504800D01*
X77444600Y-67354800D02*
X76144600Y-67354800D01*
X85644600Y-77504800D02*
X78444600Y-77504800D01*
X88444600Y-77504800D02*
X90744600Y-77504800D01*
X91444600Y-65504800D02*
X91444600Y-62804800D01*
X91444600Y-62804800D02*
X88444600Y-62804800D01*
X78444600Y-62804800D02*
X85644600Y-62804800D01*
X78044600Y-67804800D02*
X78044600Y-68104800D01*
X78044600Y-68104800D02*
X78344600Y-68104800D01*
X78344600Y-68104800D02*
X78344600Y-67804800D01*
X78344600Y-67804800D02*
X78044600Y-67804800D01*
X77444600Y-67354800D02*
X77444600Y-64354800D01*
D16*
X39344200Y-75267900D02*
X58344200Y-75267900D01*
X58344200Y-75267900D02*
X58844200Y-74767900D01*
X58844200Y-74767900D02*
X58844200Y-55767900D01*
X58844200Y-55767900D02*
X58344200Y-55267900D01*
X58344200Y-55267900D02*
X39344200Y-55267900D01*
X39344200Y-55267900D02*
X38844200Y-55767900D01*
X38844200Y-55767900D02*
X38844200Y-74767900D01*
X38844200Y-74767900D02*
X39344200Y-75267900D01*
D15*
X41344200Y-73267900D02*
G75*
G03X41344200Y-73267900I-500000J0D01*
G01*
D13*
X64724500Y-67970500D02*
X64724500Y-64170500D01*
X61574500Y-67970500D02*
X64724500Y-67970500D01*
D11*
X88187391Y-90342850D02*
X88020724Y-90104755D01*
X87901677Y-90342850D02*
X87901677Y-89842850D01*
X88092153Y-89842850D01*
X88139772Y-89866660D01*
X88163581Y-89890469D01*
X88187391Y-89938088D01*
X88187391Y-90009517D01*
X88163581Y-90057136D01*
X88139772Y-90080945D01*
X88092153Y-90104755D01*
X87901677Y-90104755D01*
X88377867Y-89890469D02*
X88401677Y-89866660D01*
X88449296Y-89842850D01*
X88568343Y-89842850D01*
X88615962Y-89866660D01*
X88639772Y-89890469D01*
X88663581Y-89938088D01*
X88663581Y-89985707D01*
X88639772Y-90057136D01*
X88354058Y-90342850D01*
X88663581Y-90342850D01*
X88973105Y-89842850D02*
X89020724Y-89842850D01*
X89068343Y-89866660D01*
X89092153Y-89890469D01*
X89115962Y-89938088D01*
X89139772Y-90033326D01*
X89139772Y-90152374D01*
X89115962Y-90247612D01*
X89092153Y-90295231D01*
X89068343Y-90319040D01*
X89020724Y-90342850D01*
X88973105Y-90342850D01*
X88925486Y-90319040D01*
X88901677Y-90295231D01*
X88877867Y-90247612D01*
X88854058Y-90152374D01*
X88854058Y-90033326D01*
X88877867Y-89938088D01*
X88901677Y-89890469D01*
X88925486Y-89866660D01*
X88973105Y-89842850D01*
X85182631Y-90337750D02*
X85015964Y-90099655D01*
X84896917Y-90337750D02*
X84896917Y-89837750D01*
X85087393Y-89837750D01*
X85135012Y-89861560D01*
X85158821Y-89885369D01*
X85182631Y-89932988D01*
X85182631Y-90004417D01*
X85158821Y-90052036D01*
X85135012Y-90075845D01*
X85087393Y-90099655D01*
X84896917Y-90099655D01*
X85658821Y-90337750D02*
X85373107Y-90337750D01*
X85515964Y-90337750D02*
X85515964Y-89837750D01*
X85468345Y-89909179D01*
X85420726Y-89956798D01*
X85373107Y-89980607D01*
X85896917Y-90337750D02*
X85992155Y-90337750D01*
X86039774Y-90313940D01*
X86063583Y-90290131D01*
X86111202Y-90218702D01*
X86135012Y-90123464D01*
X86135012Y-89932988D01*
X86111202Y-89885369D01*
X86087393Y-89861560D01*
X86039774Y-89837750D01*
X85944536Y-89837750D01*
X85896917Y-89861560D01*
X85873107Y-89885369D01*
X85849298Y-89932988D01*
X85849298Y-90052036D01*
X85873107Y-90099655D01*
X85896917Y-90123464D01*
X85944536Y-90147274D01*
X86039774Y-90147274D01*
X86087393Y-90123464D01*
X86111202Y-90099655D01*
X86135012Y-90052036D01*
X82156471Y-43007642D02*
X82356471Y-43007642D01*
X82442185Y-43321928D02*
X82156471Y-43321928D01*
X82156471Y-42721928D01*
X82442185Y-42721928D01*
X82670757Y-43150500D02*
X82956471Y-43150500D01*
X82613614Y-43321928D02*
X82813614Y-42721928D01*
X83013614Y-43321928D01*
X83556471Y-43321928D02*
X83356471Y-43036214D01*
X83213614Y-43321928D02*
X83213614Y-42721928D01*
X83442185Y-42721928D01*
X83499328Y-42750500D01*
X83527900Y-42779071D01*
X83556471Y-42836214D01*
X83556471Y-42921928D01*
X83527900Y-42979071D01*
X83499328Y-43007642D01*
X83442185Y-43036214D01*
X83213614Y-43036214D01*
X84270757Y-43321928D02*
X84270757Y-42721928D01*
X84556471Y-43321928D02*
X84556471Y-42721928D01*
X84899328Y-43321928D01*
X84899328Y-42721928D01*
X68533000Y-43150500D02*
X68818714Y-43150500D01*
X68475857Y-43321928D02*
X68675857Y-42721928D01*
X68875857Y-43321928D01*
X69075857Y-42721928D02*
X69075857Y-43207642D01*
X69104428Y-43264785D01*
X69133000Y-43293357D01*
X69190142Y-43321928D01*
X69304428Y-43321928D01*
X69361571Y-43293357D01*
X69390142Y-43264785D01*
X69418714Y-43207642D01*
X69418714Y-42721928D01*
X69704428Y-43321928D02*
X69704428Y-42721928D01*
X69847285Y-42721928D01*
X69933000Y-42750500D01*
X69990142Y-42807642D01*
X70018714Y-42864785D01*
X70047285Y-42979071D01*
X70047285Y-43064785D01*
X70018714Y-43179071D01*
X69990142Y-43236214D01*
X69933000Y-43293357D01*
X69847285Y-43321928D01*
X69704428Y-43321928D01*
X70304428Y-43321928D02*
X70304428Y-42721928D01*
X70704428Y-42721928D02*
X70818714Y-42721928D01*
X70875857Y-42750500D01*
X70933000Y-42807642D01*
X70961571Y-42921928D01*
X70961571Y-43121928D01*
X70933000Y-43236214D01*
X70875857Y-43293357D01*
X70818714Y-43321928D01*
X70704428Y-43321928D01*
X70647285Y-43293357D01*
X70590142Y-43236214D01*
X70561571Y-43121928D01*
X70561571Y-42921928D01*
X70590142Y-42807642D01*
X70647285Y-42750500D01*
X70704428Y-42721928D01*
X71790142Y-42721928D02*
X71904428Y-42721928D01*
X71961571Y-42750500D01*
X72018714Y-42807642D01*
X72047285Y-42921928D01*
X72047285Y-43121928D01*
X72018714Y-43236214D01*
X71961571Y-43293357D01*
X71904428Y-43321928D01*
X71790142Y-43321928D01*
X71733000Y-43293357D01*
X71675857Y-43236214D01*
X71647285Y-43121928D01*
X71647285Y-42921928D01*
X71675857Y-42807642D01*
X71733000Y-42750500D01*
X71790142Y-42721928D01*
X72304428Y-42721928D02*
X72304428Y-43207642D01*
X72333000Y-43264785D01*
X72361571Y-43293357D01*
X72418714Y-43321928D01*
X72533000Y-43321928D01*
X72590142Y-43293357D01*
X72618714Y-43264785D01*
X72647285Y-43207642D01*
X72647285Y-42721928D01*
X72847285Y-42721928D02*
X73190142Y-42721928D01*
X73018714Y-43321928D02*
X73018714Y-42721928D01*
D10*
X68679286Y-60472273D02*
X69245953Y-60472273D01*
X69312620Y-60438940D01*
X69345953Y-60405606D01*
X69379286Y-60338940D01*
X69379286Y-60205606D01*
X69345953Y-60138940D01*
X69312620Y-60105606D01*
X69245953Y-60072273D01*
X68679286Y-60072273D01*
X68679286Y-59805606D02*
X68679286Y-59372273D01*
X68945953Y-59605606D01*
X68945953Y-59505606D01*
X68979286Y-59438940D01*
X69012620Y-59405606D01*
X69079286Y-59372273D01*
X69245953Y-59372273D01*
X69312620Y-59405606D01*
X69345953Y-59438940D01*
X69379286Y-59505606D01*
X69379286Y-59705606D01*
X69345953Y-59772273D01*
X69312620Y-59805606D01*
X38113306Y-79142913D02*
X37779973Y-79376246D01*
X38113306Y-79542913D02*
X37413306Y-79542913D01*
X37413306Y-79276246D01*
X37446640Y-79209580D01*
X37479973Y-79176246D01*
X37546640Y-79142913D01*
X37646640Y-79142913D01*
X37713306Y-79176246D01*
X37746640Y-79209580D01*
X37779973Y-79276246D01*
X37779973Y-79542913D01*
X38113306Y-78842913D02*
X37413306Y-78842913D01*
X38113306Y-78442913D01*
X37413306Y-78442913D01*
X38113306Y-77742913D02*
X38113306Y-78142913D01*
X38113306Y-77942913D02*
X37413306Y-77942913D01*
X37513306Y-78009580D01*
X37579973Y-78076246D01*
X37613306Y-78142913D01*
X52668900Y-79393200D02*
X52702233Y-79426533D01*
X52735566Y-79526533D01*
X52735566Y-79593200D01*
X52702233Y-79693200D01*
X52635566Y-79759866D01*
X52568900Y-79793200D01*
X52435566Y-79826533D01*
X52335566Y-79826533D01*
X52202233Y-79793200D01*
X52135566Y-79759866D01*
X52068900Y-79693200D01*
X52035566Y-79593200D01*
X52035566Y-79526533D01*
X52068900Y-79426533D01*
X52102233Y-79393200D01*
X52735566Y-78726533D02*
X52735566Y-79126533D01*
X52735566Y-78926533D02*
X52035566Y-78926533D01*
X52135566Y-78993200D01*
X52202233Y-79059866D01*
X52235566Y-79126533D01*
X52035566Y-78093200D02*
X52035566Y-78426533D01*
X52368900Y-78459866D01*
X52335566Y-78426533D01*
X52302233Y-78359866D01*
X52302233Y-78193200D01*
X52335566Y-78126533D01*
X52368900Y-78093200D01*
X52435566Y-78059866D01*
X52602233Y-78059866D01*
X52668900Y-78093200D01*
X52702233Y-78126533D01*
X52735566Y-78193200D01*
X52735566Y-78359866D01*
X52702233Y-78426533D01*
X52668900Y-78459866D01*
X40675000Y-79080266D02*
X40708333Y-79113600D01*
X40741666Y-79213600D01*
X40741666Y-79280266D01*
X40708333Y-79380266D01*
X40641666Y-79446933D01*
X40575000Y-79480266D01*
X40441666Y-79513600D01*
X40341666Y-79513600D01*
X40208333Y-79480266D01*
X40141666Y-79446933D01*
X40075000Y-79380266D01*
X40041666Y-79280266D01*
X40041666Y-79213600D01*
X40075000Y-79113600D01*
X40108333Y-79080266D01*
X40741666Y-78746933D02*
X40741666Y-78613600D01*
X40708333Y-78546933D01*
X40675000Y-78513600D01*
X40575000Y-78446933D01*
X40441666Y-78413600D01*
X40175000Y-78413600D01*
X40108333Y-78446933D01*
X40075000Y-78480266D01*
X40041666Y-78546933D01*
X40041666Y-78680266D01*
X40075000Y-78746933D01*
X40108333Y-78780266D01*
X40175000Y-78813600D01*
X40341666Y-78813600D01*
X40408333Y-78780266D01*
X40441666Y-78746933D01*
X40475000Y-78680266D01*
X40475000Y-78546933D01*
X40441666Y-78480266D01*
X40408333Y-78446933D01*
X40341666Y-78413600D01*
X47162200Y-79388200D02*
X47195533Y-79421533D01*
X47228866Y-79521533D01*
X47228866Y-79588200D01*
X47195533Y-79688200D01*
X47128866Y-79754866D01*
X47062200Y-79788200D01*
X46928866Y-79821533D01*
X46828866Y-79821533D01*
X46695533Y-79788200D01*
X46628866Y-79754866D01*
X46562200Y-79688200D01*
X46528866Y-79588200D01*
X46528866Y-79521533D01*
X46562200Y-79421533D01*
X46595533Y-79388200D01*
X47228866Y-78721533D02*
X47228866Y-79121533D01*
X47228866Y-78921533D02*
X46528866Y-78921533D01*
X46628866Y-78988200D01*
X46695533Y-79054866D01*
X46728866Y-79121533D01*
X46528866Y-78288200D02*
X46528866Y-78221533D01*
X46562200Y-78154866D01*
X46595533Y-78121533D01*
X46662200Y-78088200D01*
X46795533Y-78054866D01*
X46962200Y-78054866D01*
X47095533Y-78088200D01*
X47162200Y-78121533D01*
X47195533Y-78154866D01*
X47228866Y-78221533D01*
X47228866Y-78288200D01*
X47195533Y-78354866D01*
X47162200Y-78388200D01*
X47095533Y-78421533D01*
X46962200Y-78454866D01*
X46795533Y-78454866D01*
X46662200Y-78421533D01*
X46595533Y-78388200D01*
X46562200Y-78354866D01*
X46528866Y-78288200D01*
D11*
X52109251Y-51799031D02*
X52085441Y-51822840D01*
X52014013Y-51846650D01*
X51966394Y-51846650D01*
X51894965Y-51822840D01*
X51847346Y-51775221D01*
X51823537Y-51727602D01*
X51799727Y-51632364D01*
X51799727Y-51560936D01*
X51823537Y-51465698D01*
X51847346Y-51418079D01*
X51894965Y-51370460D01*
X51966394Y-51346650D01*
X52014013Y-51346650D01*
X52085441Y-51370460D01*
X52109251Y-51394269D01*
X52585441Y-51846650D02*
X52299727Y-51846650D01*
X52442584Y-51846650D02*
X52442584Y-51346650D01*
X52394965Y-51418079D01*
X52347346Y-51465698D01*
X52299727Y-51489507D01*
X53061632Y-51846650D02*
X52775918Y-51846650D01*
X52918775Y-51846650D02*
X52918775Y-51346650D01*
X52871156Y-51418079D01*
X52823537Y-51465698D01*
X52775918Y-51489507D01*
D10*
X50633420Y-79388200D02*
X50666753Y-79421533D01*
X50700086Y-79521533D01*
X50700086Y-79588200D01*
X50666753Y-79688200D01*
X50600086Y-79754866D01*
X50533420Y-79788200D01*
X50400086Y-79821533D01*
X50300086Y-79821533D01*
X50166753Y-79788200D01*
X50100086Y-79754866D01*
X50033420Y-79688200D01*
X50000086Y-79588200D01*
X50000086Y-79521533D01*
X50033420Y-79421533D01*
X50066753Y-79388200D01*
X50700086Y-78721533D02*
X50700086Y-79121533D01*
X50700086Y-78921533D02*
X50000086Y-78921533D01*
X50100086Y-78988200D01*
X50166753Y-79054866D01*
X50200086Y-79121533D01*
X50066753Y-78454866D02*
X50033420Y-78421533D01*
X50000086Y-78354866D01*
X50000086Y-78188200D01*
X50033420Y-78121533D01*
X50066753Y-78088200D01*
X50133420Y-78054866D01*
X50200086Y-78054866D01*
X50300086Y-78088200D01*
X50700086Y-78488200D01*
X50700086Y-78054866D01*
X56602460Y-79408500D02*
X56635793Y-79441833D01*
X56669126Y-79541833D01*
X56669126Y-79608500D01*
X56635793Y-79708500D01*
X56569126Y-79775166D01*
X56502460Y-79808500D01*
X56369126Y-79841833D01*
X56269126Y-79841833D01*
X56135793Y-79808500D01*
X56069126Y-79775166D01*
X56002460Y-79708500D01*
X55969126Y-79608500D01*
X55969126Y-79541833D01*
X56002460Y-79441833D01*
X56035793Y-79408500D01*
X56669126Y-78741833D02*
X56669126Y-79141833D01*
X56669126Y-78941833D02*
X55969126Y-78941833D01*
X56069126Y-79008500D01*
X56135793Y-79075166D01*
X56169126Y-79141833D01*
X55969126Y-78508500D02*
X55969126Y-78075166D01*
X56235793Y-78308500D01*
X56235793Y-78208500D01*
X56269126Y-78141833D01*
X56302460Y-78108500D01*
X56369126Y-78075166D01*
X56535793Y-78075166D01*
X56602460Y-78108500D01*
X56635793Y-78141833D01*
X56669126Y-78208500D01*
X56669126Y-78408500D01*
X56635793Y-78475166D01*
X56602460Y-78508500D01*
D11*
X46920031Y-51788871D02*
X46896221Y-51812680D01*
X46824793Y-51836490D01*
X46777174Y-51836490D01*
X46705745Y-51812680D01*
X46658126Y-51765061D01*
X46634317Y-51717442D01*
X46610507Y-51622204D01*
X46610507Y-51550776D01*
X46634317Y-51455538D01*
X46658126Y-51407919D01*
X46705745Y-51360300D01*
X46777174Y-51336490D01*
X46824793Y-51336490D01*
X46896221Y-51360300D01*
X46920031Y-51384109D01*
X47396221Y-51836490D02*
X47110507Y-51836490D01*
X47253364Y-51836490D02*
X47253364Y-51336490D01*
X47205745Y-51407919D01*
X47158126Y-51455538D01*
X47110507Y-51479347D01*
X47824793Y-51503157D02*
X47824793Y-51836490D01*
X47705745Y-51312680D02*
X47586698Y-51669823D01*
X47896221Y-51669823D01*
D10*
X57508300Y-51432900D02*
X57541633Y-51466233D01*
X57574966Y-51566233D01*
X57574966Y-51632900D01*
X57541633Y-51732900D01*
X57474966Y-51799566D01*
X57408300Y-51832900D01*
X57274966Y-51866233D01*
X57174966Y-51866233D01*
X57041633Y-51832900D01*
X56974966Y-51799566D01*
X56908300Y-51732900D01*
X56874966Y-51632900D01*
X56874966Y-51566233D01*
X56908300Y-51466233D01*
X56941633Y-51432900D01*
X56941633Y-51166233D02*
X56908300Y-51132900D01*
X56874966Y-51066233D01*
X56874966Y-50899566D01*
X56908300Y-50832900D01*
X56941633Y-50799566D01*
X57008300Y-50766233D01*
X57074966Y-50766233D01*
X57174966Y-50799566D01*
X57574966Y-51199566D01*
X57574966Y-50766233D01*
X56874966Y-50532900D02*
X56874966Y-50066233D01*
X57574966Y-50366233D01*
D11*
X42284531Y-52568651D02*
X42260721Y-52592460D01*
X42189293Y-52616270D01*
X42141674Y-52616270D01*
X42070245Y-52592460D01*
X42022626Y-52544841D01*
X41998817Y-52497222D01*
X41975007Y-52401984D01*
X41975007Y-52330556D01*
X41998817Y-52235318D01*
X42022626Y-52187699D01*
X42070245Y-52140080D01*
X42141674Y-52116270D01*
X42189293Y-52116270D01*
X42260721Y-52140080D01*
X42284531Y-52163889D01*
X42760721Y-52616270D02*
X42475007Y-52616270D01*
X42617864Y-52616270D02*
X42617864Y-52116270D01*
X42570245Y-52187699D01*
X42522626Y-52235318D01*
X42475007Y-52259127D01*
X42927388Y-52116270D02*
X43260721Y-52116270D01*
X43046436Y-52616270D01*
D10*
X64344320Y-70071420D02*
X64377653Y-70104753D01*
X64410986Y-70204753D01*
X64410986Y-70271420D01*
X64377653Y-70371420D01*
X64310986Y-70438086D01*
X64244320Y-70471420D01*
X64110986Y-70504753D01*
X64010986Y-70504753D01*
X63877653Y-70471420D01*
X63810986Y-70438086D01*
X63744320Y-70371420D01*
X63710986Y-70271420D01*
X63710986Y-70204753D01*
X63744320Y-70104753D01*
X63777653Y-70071420D01*
X64410986Y-69404753D02*
X64410986Y-69804753D01*
X64410986Y-69604753D02*
X63710986Y-69604753D01*
X63810986Y-69671420D01*
X63877653Y-69738086D01*
X63910986Y-69804753D01*
X64010986Y-69004753D02*
X63977653Y-69071420D01*
X63944320Y-69104753D01*
X63877653Y-69138086D01*
X63844320Y-69138086D01*
X63777653Y-69104753D01*
X63744320Y-69071420D01*
X63710986Y-69004753D01*
X63710986Y-68871420D01*
X63744320Y-68804753D01*
X63777653Y-68771420D01*
X63844320Y-68738086D01*
X63877653Y-68738086D01*
X63944320Y-68771420D01*
X63977653Y-68804753D01*
X64010986Y-68871420D01*
X64010986Y-69004753D01*
X64044320Y-69071420D01*
X64077653Y-69104753D01*
X64144320Y-69138086D01*
X64277653Y-69138086D01*
X64344320Y-69104753D01*
X64377653Y-69071420D01*
X64410986Y-69004753D01*
X64410986Y-68871420D01*
X64377653Y-68804753D01*
X64344320Y-68771420D01*
X64277653Y-68738086D01*
X64144320Y-68738086D01*
X64077653Y-68771420D01*
X64044320Y-68804753D01*
X64010986Y-68871420D01*
X62627300Y-74084640D02*
X62660633Y-74117973D01*
X62693966Y-74217973D01*
X62693966Y-74284640D01*
X62660633Y-74384640D01*
X62593966Y-74451306D01*
X62527300Y-74484640D01*
X62393966Y-74517973D01*
X62293966Y-74517973D01*
X62160633Y-74484640D01*
X62093966Y-74451306D01*
X62027300Y-74384640D01*
X61993966Y-74284640D01*
X61993966Y-74217973D01*
X62027300Y-74117973D01*
X62060633Y-74084640D01*
X62693966Y-73417973D02*
X62693966Y-73817973D01*
X62693966Y-73617973D02*
X61993966Y-73617973D01*
X62093966Y-73684640D01*
X62160633Y-73751306D01*
X62193966Y-73817973D01*
X62693966Y-73084640D02*
X62693966Y-72951306D01*
X62660633Y-72884640D01*
X62627300Y-72851306D01*
X62527300Y-72784640D01*
X62393966Y-72751306D01*
X62127300Y-72751306D01*
X62060633Y-72784640D01*
X62027300Y-72817973D01*
X61993966Y-72884640D01*
X61993966Y-73017973D01*
X62027300Y-73084640D01*
X62060633Y-73117973D01*
X62127300Y-73151306D01*
X62293966Y-73151306D01*
X62360633Y-73117973D01*
X62393966Y-73084640D01*
X62427300Y-73017973D01*
X62427300Y-72884640D01*
X62393966Y-72817973D01*
X62360633Y-72784640D01*
X62293966Y-72751306D01*
X34502240Y-60520160D02*
X34468906Y-60486826D01*
X34435573Y-60386826D01*
X34435573Y-60320160D01*
X34468906Y-60220160D01*
X34535573Y-60153493D01*
X34602240Y-60120160D01*
X34735573Y-60086826D01*
X34835573Y-60086826D01*
X34968906Y-60120160D01*
X35035573Y-60153493D01*
X35102240Y-60220160D01*
X35135573Y-60320160D01*
X35135573Y-60386826D01*
X35102240Y-60486826D01*
X35068906Y-60520160D01*
X35068906Y-60786826D02*
X35102240Y-60820160D01*
X35135573Y-60886826D01*
X35135573Y-61053493D01*
X35102240Y-61120160D01*
X35068906Y-61153493D01*
X35002240Y-61186826D01*
X34935573Y-61186826D01*
X34835573Y-61153493D01*
X34435573Y-60753493D01*
X34435573Y-61186826D01*
X35135573Y-61620160D02*
X35135573Y-61686826D01*
X35102240Y-61753493D01*
X35068906Y-61786826D01*
X35002240Y-61820160D01*
X34868906Y-61853493D01*
X34702240Y-61853493D01*
X34568906Y-61820160D01*
X34502240Y-61786826D01*
X34468906Y-61753493D01*
X34435573Y-61686826D01*
X34435573Y-61620160D01*
X34468906Y-61553493D01*
X34502240Y-61520160D01*
X34568906Y-61486826D01*
X34702240Y-61453493D01*
X34868906Y-61453493D01*
X35002240Y-61486826D01*
X35068906Y-61520160D01*
X35102240Y-61553493D01*
X35135573Y-61620160D01*
D11*
X49302551Y-52548331D02*
X49278741Y-52572140D01*
X49207313Y-52595950D01*
X49159694Y-52595950D01*
X49088265Y-52572140D01*
X49040646Y-52524521D01*
X49016837Y-52476902D01*
X48993027Y-52381664D01*
X48993027Y-52310236D01*
X49016837Y-52214998D01*
X49040646Y-52167379D01*
X49088265Y-52119760D01*
X49159694Y-52095950D01*
X49207313Y-52095950D01*
X49278741Y-52119760D01*
X49302551Y-52143569D01*
X49493027Y-52143569D02*
X49516837Y-52119760D01*
X49564456Y-52095950D01*
X49683503Y-52095950D01*
X49731122Y-52119760D01*
X49754932Y-52143569D01*
X49778741Y-52191188D01*
X49778741Y-52238807D01*
X49754932Y-52310236D01*
X49469218Y-52595950D01*
X49778741Y-52595950D01*
X50254932Y-52595950D02*
X49969218Y-52595950D01*
X50112075Y-52595950D02*
X50112075Y-52095950D01*
X50064456Y-52167379D01*
X50016837Y-52214998D01*
X49969218Y-52238807D01*
D10*
X64384960Y-63055920D02*
X64418293Y-63089253D01*
X64451626Y-63189253D01*
X64451626Y-63255920D01*
X64418293Y-63355920D01*
X64351626Y-63422586D01*
X64284960Y-63455920D01*
X64151626Y-63489253D01*
X64051626Y-63489253D01*
X63918293Y-63455920D01*
X63851626Y-63422586D01*
X63784960Y-63355920D01*
X63751626Y-63255920D01*
X63751626Y-63189253D01*
X63784960Y-63089253D01*
X63818293Y-63055920D01*
X63818293Y-62789253D02*
X63784960Y-62755920D01*
X63751626Y-62689253D01*
X63751626Y-62522586D01*
X63784960Y-62455920D01*
X63818293Y-62422586D01*
X63884960Y-62389253D01*
X63951626Y-62389253D01*
X64051626Y-62422586D01*
X64451626Y-62822586D01*
X64451626Y-62389253D01*
X63818293Y-62122586D02*
X63784960Y-62089253D01*
X63751626Y-62022586D01*
X63751626Y-61855920D01*
X63784960Y-61789253D01*
X63818293Y-61755920D01*
X63884960Y-61722586D01*
X63951626Y-61722586D01*
X64051626Y-61755920D01*
X64451626Y-62155920D01*
X64451626Y-61722586D01*
X34497240Y-71127280D02*
X34463906Y-71093946D01*
X34430573Y-70993946D01*
X34430573Y-70927280D01*
X34463906Y-70827280D01*
X34530573Y-70760613D01*
X34597240Y-70727280D01*
X34730573Y-70693946D01*
X34830573Y-70693946D01*
X34963906Y-70727280D01*
X35030573Y-70760613D01*
X35097240Y-70827280D01*
X35130573Y-70927280D01*
X35130573Y-70993946D01*
X35097240Y-71093946D01*
X35063906Y-71127280D01*
X35063906Y-71393946D02*
X35097240Y-71427280D01*
X35130573Y-71493946D01*
X35130573Y-71660613D01*
X35097240Y-71727280D01*
X35063906Y-71760613D01*
X34997240Y-71793946D01*
X34930573Y-71793946D01*
X34830573Y-71760613D01*
X34430573Y-71360613D01*
X34430573Y-71793946D01*
X35130573Y-72027280D02*
X35130573Y-72460613D01*
X34863906Y-72227280D01*
X34863906Y-72327280D01*
X34830573Y-72393946D01*
X34797240Y-72427280D01*
X34730573Y-72460613D01*
X34563906Y-72460613D01*
X34497240Y-72427280D01*
X34463906Y-72393946D01*
X34430573Y-72327280D01*
X34430573Y-72127280D01*
X34463906Y-72060613D01*
X34497240Y-72027280D01*
X32932540Y-65564600D02*
X32899206Y-65531266D01*
X32865873Y-65431266D01*
X32865873Y-65364600D01*
X32899206Y-65264600D01*
X32965873Y-65197933D01*
X33032540Y-65164600D01*
X33165873Y-65131266D01*
X33265873Y-65131266D01*
X33399206Y-65164600D01*
X33465873Y-65197933D01*
X33532540Y-65264600D01*
X33565873Y-65364600D01*
X33565873Y-65431266D01*
X33532540Y-65531266D01*
X33499206Y-65564600D01*
X33499206Y-65831266D02*
X33532540Y-65864600D01*
X33565873Y-65931266D01*
X33565873Y-66097933D01*
X33532540Y-66164600D01*
X33499206Y-66197933D01*
X33432540Y-66231266D01*
X33365873Y-66231266D01*
X33265873Y-66197933D01*
X32865873Y-65797933D01*
X32865873Y-66231266D01*
X33332540Y-66831266D02*
X32865873Y-66831266D01*
X33599206Y-66664600D02*
X33099206Y-66497933D01*
X33099206Y-66931266D01*
X62617200Y-59530400D02*
X62650533Y-59563733D01*
X62683866Y-59663733D01*
X62683866Y-59730400D01*
X62650533Y-59830400D01*
X62583866Y-59897066D01*
X62517200Y-59930400D01*
X62383866Y-59963733D01*
X62283866Y-59963733D01*
X62150533Y-59930400D01*
X62083866Y-59897066D01*
X62017200Y-59830400D01*
X61983866Y-59730400D01*
X61983866Y-59663733D01*
X62017200Y-59563733D01*
X62050533Y-59530400D01*
X62050533Y-59263733D02*
X62017200Y-59230400D01*
X61983866Y-59163733D01*
X61983866Y-58997066D01*
X62017200Y-58930400D01*
X62050533Y-58897066D01*
X62117200Y-58863733D01*
X62183866Y-58863733D01*
X62283866Y-58897066D01*
X62683866Y-59297066D01*
X62683866Y-58863733D01*
X61983866Y-58230400D02*
X61983866Y-58563733D01*
X62317200Y-58597066D01*
X62283866Y-58563733D01*
X62250533Y-58497066D01*
X62250533Y-58330400D01*
X62283866Y-58263733D01*
X62317200Y-58230400D01*
X62383866Y-58197066D01*
X62550533Y-58197066D01*
X62617200Y-58230400D01*
X62650533Y-58263733D01*
X62683866Y-58330400D01*
X62683866Y-58497066D01*
X62650533Y-58563733D01*
X62617200Y-58597066D01*
X62319980Y-52756180D02*
X62353313Y-52789513D01*
X62386646Y-52889513D01*
X62386646Y-52956180D01*
X62353313Y-53056180D01*
X62286646Y-53122846D01*
X62219980Y-53156180D01*
X62086646Y-53189513D01*
X61986646Y-53189513D01*
X61853313Y-53156180D01*
X61786646Y-53122846D01*
X61719980Y-53056180D01*
X61686646Y-52956180D01*
X61686646Y-52889513D01*
X61719980Y-52789513D01*
X61753313Y-52756180D01*
X61753313Y-52489513D02*
X61719980Y-52456180D01*
X61686646Y-52389513D01*
X61686646Y-52222846D01*
X61719980Y-52156180D01*
X61753313Y-52122846D01*
X61819980Y-52089513D01*
X61886646Y-52089513D01*
X61986646Y-52122846D01*
X62386646Y-52522846D01*
X62386646Y-52089513D01*
X61686646Y-51489513D02*
X61686646Y-51622846D01*
X61719980Y-51689513D01*
X61753313Y-51722846D01*
X61853313Y-51789513D01*
X61986646Y-51822846D01*
X62253313Y-51822846D01*
X62319980Y-51789513D01*
X62353313Y-51756180D01*
X62386646Y-51689513D01*
X62386646Y-51556180D01*
X62353313Y-51489513D01*
X62319980Y-51456180D01*
X62253313Y-51422846D01*
X62086646Y-51422846D01*
X62019980Y-51456180D01*
X61986646Y-51489513D01*
X61953313Y-51556180D01*
X61953313Y-51689513D01*
X61986646Y-51756180D01*
X62019980Y-51789513D01*
X62086646Y-51822846D01*
X59111920Y-79403400D02*
X59145253Y-79436733D01*
X59178586Y-79536733D01*
X59178586Y-79603400D01*
X59145253Y-79703400D01*
X59078586Y-79770066D01*
X59011920Y-79803400D01*
X58878586Y-79836733D01*
X58778586Y-79836733D01*
X58645253Y-79803400D01*
X58578586Y-79770066D01*
X58511920Y-79703400D01*
X58478586Y-79603400D01*
X58478586Y-79536733D01*
X58511920Y-79436733D01*
X58545253Y-79403400D01*
X59178586Y-78736733D02*
X59178586Y-79136733D01*
X59178586Y-78936733D02*
X58478586Y-78936733D01*
X58578586Y-79003400D01*
X58645253Y-79070066D01*
X58678586Y-79136733D01*
X58478586Y-78136733D02*
X58478586Y-78270066D01*
X58511920Y-78336733D01*
X58545253Y-78370066D01*
X58645253Y-78436733D01*
X58778586Y-78470066D01*
X59045253Y-78470066D01*
X59111920Y-78436733D01*
X59145253Y-78403400D01*
X59178586Y-78336733D01*
X59178586Y-78203400D01*
X59145253Y-78136733D01*
X59111920Y-78103400D01*
X59045253Y-78070066D01*
X58878586Y-78070066D01*
X58811920Y-78103400D01*
X58778586Y-78136733D01*
X58745253Y-78203400D01*
X58745253Y-78336733D01*
X58778586Y-78403400D01*
X58811920Y-78436733D01*
X58878586Y-78470066D01*
D17*
X47094981Y-66149985D02*
X47606162Y-66149985D01*
X47666301Y-66119916D01*
X47696370Y-66089846D01*
X47726440Y-66029707D01*
X47726440Y-65909429D01*
X47696370Y-65849290D01*
X47666301Y-65819221D01*
X47606162Y-65789151D01*
X47094981Y-65789151D01*
X47726440Y-65157692D02*
X47726440Y-65518526D01*
X47726440Y-65338109D02*
X47094981Y-65338109D01*
X47185189Y-65398248D01*
X47245328Y-65458387D01*
X47275397Y-65518526D01*
X50102914Y-69935994D02*
X50734678Y-69514818D01*
X50102914Y-69514818D02*
X50734678Y-69935994D01*
X50674510Y-68913138D02*
X50704594Y-68943222D01*
X50734678Y-69033474D01*
X50734678Y-69093642D01*
X50704594Y-69183894D01*
X50644426Y-69244062D01*
X50584258Y-69274146D01*
X50463922Y-69304230D01*
X50373670Y-69304230D01*
X50253334Y-69274146D01*
X50193166Y-69244062D01*
X50132998Y-69183894D01*
X50102914Y-69093642D01*
X50102914Y-69033474D01*
X50132998Y-68943222D01*
X50163082Y-68913138D01*
X50102914Y-68371626D02*
X50102914Y-68491962D01*
X50132998Y-68552130D01*
X50163082Y-68582214D01*
X50253334Y-68642382D01*
X50373670Y-68672466D01*
X50614342Y-68672466D01*
X50674510Y-68642382D01*
X50704594Y-68612298D01*
X50734678Y-68552130D01*
X50734678Y-68431794D01*
X50704594Y-68371626D01*
X50674510Y-68341542D01*
X50614342Y-68311458D01*
X50463922Y-68311458D01*
X50403754Y-68341542D01*
X50373670Y-68371626D01*
X50343586Y-68431794D01*
X50343586Y-68552130D01*
X50373670Y-68612298D01*
X50403754Y-68642382D01*
X50463922Y-68672466D01*
X50704594Y-68070786D02*
X50734678Y-67980534D01*
X50734678Y-67830114D01*
X50704594Y-67769946D01*
X50674510Y-67739862D01*
X50614342Y-67709778D01*
X50554174Y-67709778D01*
X50494006Y-67739862D01*
X50463922Y-67769946D01*
X50433838Y-67830114D01*
X50403754Y-67950450D01*
X50373670Y-68010618D01*
X50343586Y-68040702D01*
X50283418Y-68070786D01*
X50223250Y-68070786D01*
X50163082Y-68040702D01*
X50132998Y-68010618D01*
X50102914Y-67950450D01*
X50102914Y-67800030D01*
X50132998Y-67709778D01*
X50734678Y-67138182D02*
X50734678Y-67439022D01*
X50102914Y-67439022D01*
X50102914Y-66987762D02*
X50734678Y-66566586D01*
X50102914Y-66566586D02*
X50734678Y-66987762D01*
X50734678Y-66295830D02*
X50734678Y-66175494D01*
X50704594Y-66115326D01*
X50674510Y-66085242D01*
X50584258Y-66025074D01*
X50463922Y-65994990D01*
X50223250Y-65994990D01*
X50163082Y-66025074D01*
X50132998Y-66055158D01*
X50102914Y-66115326D01*
X50102914Y-66235662D01*
X50132998Y-66295830D01*
X50163082Y-66325914D01*
X50223250Y-66355998D01*
X50373670Y-66355998D01*
X50433838Y-66325914D01*
X50463922Y-66295830D01*
X50494006Y-66235662D01*
X50494006Y-66115326D01*
X50463922Y-66055158D01*
X50433838Y-66025074D01*
X50373670Y-65994990D01*
X50494006Y-65724234D02*
X50494006Y-65242890D01*
X50102914Y-65032302D02*
X50102914Y-64671294D01*
X50734678Y-64851798D02*
X50102914Y-64851798D01*
X50794846Y-64039530D02*
X50764762Y-64099698D01*
X50704594Y-64159866D01*
X50614342Y-64250118D01*
X50584258Y-64310286D01*
X50584258Y-64370454D01*
X50734678Y-64340370D02*
X50704594Y-64400538D01*
X50644426Y-64460706D01*
X50524090Y-64490790D01*
X50313502Y-64490790D01*
X50193166Y-64460706D01*
X50132998Y-64400538D01*
X50102914Y-64340370D01*
X50102914Y-64220034D01*
X50132998Y-64159866D01*
X50193166Y-64099698D01*
X50313502Y-64069614D01*
X50524090Y-64069614D01*
X50644426Y-64099698D01*
X50704594Y-64159866D01*
X50734678Y-64220034D01*
X50734678Y-64340370D01*
X50132998Y-63467934D02*
X50102914Y-63528102D01*
X50102914Y-63618354D01*
X50132998Y-63708606D01*
X50193166Y-63768774D01*
X50253334Y-63798858D01*
X50373670Y-63828942D01*
X50463922Y-63828942D01*
X50584258Y-63798858D01*
X50644426Y-63768774D01*
X50704594Y-63708606D01*
X50734678Y-63618354D01*
X50734678Y-63558186D01*
X50704594Y-63467934D01*
X50674510Y-63437850D01*
X50463922Y-63437850D01*
X50463922Y-63558186D01*
X50734678Y-62836170D02*
X50734678Y-63197178D01*
X50734678Y-63016674D02*
X50102914Y-63016674D01*
X50193166Y-63076842D01*
X50253334Y-63137010D01*
X50283418Y-63197178D01*
X50313502Y-62294658D02*
X50734678Y-62294658D01*
X50072830Y-62445078D02*
X50524090Y-62595498D01*
X50524090Y-62204406D01*
X50313502Y-61692978D02*
X50734678Y-61692978D01*
X50072830Y-61843398D02*
X50524090Y-61993818D01*
X50524090Y-61602726D01*
D10*
X65245206Y-65306206D02*
X65945206Y-64839540D01*
X65245206Y-64839540D02*
X65945206Y-65306206D01*
X65945206Y-64206206D02*
X65945206Y-64606206D01*
X65945206Y-64406206D02*
X65245206Y-64406206D01*
X65345206Y-64472873D01*
X65411873Y-64539540D01*
X65445206Y-64606206D01*
D11*
X49200246Y-48567430D02*
X49033580Y-48329335D01*
X48914532Y-48567430D02*
X48914532Y-48067430D01*
X49105008Y-48067430D01*
X49152627Y-48091240D01*
X49176437Y-48115049D01*
X49200246Y-48162668D01*
X49200246Y-48234097D01*
X49176437Y-48281716D01*
X49152627Y-48305525D01*
X49105008Y-48329335D01*
X48914532Y-48329335D01*
X49652627Y-48067430D02*
X49414532Y-48067430D01*
X49390722Y-48305525D01*
X49414532Y-48281716D01*
X49462151Y-48257906D01*
X49581199Y-48257906D01*
X49628818Y-48281716D01*
X49652627Y-48305525D01*
X49676437Y-48353144D01*
X49676437Y-48472192D01*
X49652627Y-48519811D01*
X49628818Y-48543620D01*
X49581199Y-48567430D01*
X49462151Y-48567430D01*
X49414532Y-48543620D01*
X49390722Y-48519811D01*
X48087726Y-48577590D02*
X47921060Y-48339495D01*
X47802012Y-48577590D02*
X47802012Y-48077590D01*
X47992488Y-48077590D01*
X48040107Y-48101400D01*
X48063917Y-48125209D01*
X48087726Y-48172828D01*
X48087726Y-48244257D01*
X48063917Y-48291876D01*
X48040107Y-48315685D01*
X47992488Y-48339495D01*
X47802012Y-48339495D01*
X48516298Y-48077590D02*
X48421060Y-48077590D01*
X48373440Y-48101400D01*
X48349631Y-48125209D01*
X48302012Y-48196638D01*
X48278202Y-48291876D01*
X48278202Y-48482352D01*
X48302012Y-48529971D01*
X48325821Y-48553780D01*
X48373440Y-48577590D01*
X48468679Y-48577590D01*
X48516298Y-48553780D01*
X48540107Y-48529971D01*
X48563917Y-48482352D01*
X48563917Y-48363304D01*
X48540107Y-48315685D01*
X48516298Y-48291876D01*
X48468679Y-48268066D01*
X48373440Y-48268066D01*
X48325821Y-48291876D01*
X48302012Y-48315685D01*
X48278202Y-48363304D01*
X46995170Y-48566813D02*
X46757075Y-48733480D01*
X46995170Y-48852527D02*
X46495170Y-48852527D01*
X46495170Y-48662051D01*
X46518980Y-48614432D01*
X46542789Y-48590622D01*
X46590408Y-48566813D01*
X46661837Y-48566813D01*
X46709456Y-48590622D01*
X46733265Y-48614432D01*
X46757075Y-48662051D01*
X46757075Y-48852527D01*
X46495170Y-48400146D02*
X46495170Y-48066813D01*
X46995170Y-48281099D01*
X46235710Y-48587133D02*
X45997615Y-48753800D01*
X46235710Y-48872847D02*
X45735710Y-48872847D01*
X45735710Y-48682371D01*
X45759520Y-48634752D01*
X45783329Y-48610942D01*
X45830948Y-48587133D01*
X45902377Y-48587133D01*
X45949996Y-48610942D01*
X45973805Y-48634752D01*
X45997615Y-48682371D01*
X45997615Y-48872847D01*
X45949996Y-48301419D02*
X45926186Y-48349038D01*
X45902377Y-48372847D01*
X45854758Y-48396657D01*
X45830948Y-48396657D01*
X45783329Y-48372847D01*
X45759520Y-48349038D01*
X45735710Y-48301419D01*
X45735710Y-48206180D01*
X45759520Y-48158561D01*
X45783329Y-48134752D01*
X45830948Y-48110942D01*
X45854758Y-48110942D01*
X45902377Y-48134752D01*
X45926186Y-48158561D01*
X45949996Y-48206180D01*
X45949996Y-48301419D01*
X45973805Y-48349038D01*
X45997615Y-48372847D01*
X46045234Y-48396657D01*
X46140472Y-48396657D01*
X46188091Y-48372847D01*
X46211900Y-48349038D01*
X46235710Y-48301419D01*
X46235710Y-48206180D01*
X46211900Y-48158561D01*
X46188091Y-48134752D01*
X46140472Y-48110942D01*
X46045234Y-48110942D01*
X45997615Y-48134752D01*
X45973805Y-48158561D01*
X45949996Y-48206180D01*
X45146050Y-48566813D02*
X44907955Y-48733480D01*
X45146050Y-48852527D02*
X44646050Y-48852527D01*
X44646050Y-48662051D01*
X44669860Y-48614432D01*
X44693669Y-48590622D01*
X44741288Y-48566813D01*
X44812717Y-48566813D01*
X44860336Y-48590622D01*
X44884145Y-48614432D01*
X44907955Y-48662051D01*
X44907955Y-48852527D01*
X45146050Y-48328718D02*
X45146050Y-48233480D01*
X45122240Y-48185860D01*
X45098431Y-48162051D01*
X45027002Y-48114432D01*
X44931764Y-48090622D01*
X44741288Y-48090622D01*
X44693669Y-48114432D01*
X44669860Y-48138241D01*
X44646050Y-48185860D01*
X44646050Y-48281099D01*
X44669860Y-48328718D01*
X44693669Y-48352527D01*
X44741288Y-48376337D01*
X44860336Y-48376337D01*
X44907955Y-48352527D01*
X44931764Y-48328718D01*
X44955574Y-48281099D01*
X44955574Y-48185860D01*
X44931764Y-48138241D01*
X44907955Y-48114432D01*
X44860336Y-48090622D01*
X51831330Y-49097008D02*
X51593235Y-49263675D01*
X51831330Y-49382722D02*
X51331330Y-49382722D01*
X51331330Y-49192246D01*
X51355140Y-49144627D01*
X51378949Y-49120818D01*
X51426568Y-49097008D01*
X51497997Y-49097008D01*
X51545616Y-49120818D01*
X51569425Y-49144627D01*
X51593235Y-49192246D01*
X51593235Y-49382722D01*
X51831330Y-48620818D02*
X51831330Y-48906532D01*
X51831330Y-48763675D02*
X51331330Y-48763675D01*
X51402759Y-48811294D01*
X51450378Y-48858913D01*
X51474187Y-48906532D01*
X51378949Y-48430341D02*
X51355140Y-48406532D01*
X51331330Y-48358913D01*
X51331330Y-48239865D01*
X51355140Y-48192246D01*
X51378949Y-48168437D01*
X51426568Y-48144627D01*
X51474187Y-48144627D01*
X51545616Y-48168437D01*
X51831330Y-48454151D01*
X51831330Y-48144627D01*
X50173731Y-48577590D02*
X50007064Y-48339495D01*
X49888017Y-48577590D02*
X49888017Y-48077590D01*
X50078493Y-48077590D01*
X50126112Y-48101400D01*
X50149921Y-48125209D01*
X50173731Y-48172828D01*
X50173731Y-48244257D01*
X50149921Y-48291876D01*
X50126112Y-48315685D01*
X50078493Y-48339495D01*
X49888017Y-48339495D01*
X50649921Y-48577590D02*
X50364207Y-48577590D01*
X50507064Y-48577590D02*
X50507064Y-48077590D01*
X50459445Y-48149019D01*
X50411826Y-48196638D01*
X50364207Y-48220447D01*
X50816588Y-48077590D02*
X51126112Y-48077590D01*
X50959445Y-48268066D01*
X51030874Y-48268066D01*
X51078493Y-48291876D01*
X51102302Y-48315685D01*
X51126112Y-48363304D01*
X51126112Y-48482352D01*
X51102302Y-48529971D01*
X51078493Y-48553780D01*
X51030874Y-48577590D01*
X50888017Y-48577590D01*
X50840398Y-48553780D01*
X50816588Y-48529971D01*
D10*
X81823733Y-81340126D02*
X81590400Y-81006793D01*
X81423733Y-81340126D02*
X81423733Y-80640126D01*
X81690400Y-80640126D01*
X81757066Y-80673460D01*
X81790400Y-80706793D01*
X81823733Y-80773460D01*
X81823733Y-80873460D01*
X81790400Y-80940126D01*
X81757066Y-80973460D01*
X81690400Y-81006793D01*
X81423733Y-81006793D01*
X82090400Y-80706793D02*
X82123733Y-80673460D01*
X82190400Y-80640126D01*
X82357066Y-80640126D01*
X82423733Y-80673460D01*
X82457066Y-80706793D01*
X82490400Y-80773460D01*
X82490400Y-80840126D01*
X82457066Y-80940126D01*
X82057066Y-81340126D01*
X82490400Y-81340126D01*
X74747253Y-75942586D02*
X74513920Y-75609253D01*
X74347253Y-75942586D02*
X74347253Y-75242586D01*
X74613920Y-75242586D01*
X74680586Y-75275920D01*
X74713920Y-75309253D01*
X74747253Y-75375920D01*
X74747253Y-75475920D01*
X74713920Y-75542586D01*
X74680586Y-75575920D01*
X74613920Y-75609253D01*
X74347253Y-75609253D01*
X75413920Y-75942586D02*
X75013920Y-75942586D01*
X75213920Y-75942586D02*
X75213920Y-75242586D01*
X75147253Y-75342586D01*
X75080586Y-75409253D01*
X75013920Y-75442586D01*
D11*
X52730490Y-49086848D02*
X52492395Y-49253515D01*
X52730490Y-49372562D02*
X52230490Y-49372562D01*
X52230490Y-49182086D01*
X52254300Y-49134467D01*
X52278109Y-49110658D01*
X52325728Y-49086848D01*
X52397157Y-49086848D01*
X52444776Y-49110658D01*
X52468585Y-49134467D01*
X52492395Y-49182086D01*
X52492395Y-49372562D01*
X52730490Y-48610658D02*
X52730490Y-48896372D01*
X52730490Y-48753515D02*
X52230490Y-48753515D01*
X52301919Y-48801134D01*
X52349538Y-48848753D01*
X52373347Y-48896372D01*
X52730490Y-48134467D02*
X52730490Y-48420181D01*
X52730490Y-48277324D02*
X52230490Y-48277324D01*
X52301919Y-48324943D01*
X52349538Y-48372562D01*
X52373347Y-48420181D01*
X44053850Y-49036048D02*
X43815755Y-49202715D01*
X44053850Y-49321762D02*
X43553850Y-49321762D01*
X43553850Y-49131286D01*
X43577660Y-49083667D01*
X43601469Y-49059858D01*
X43649088Y-49036048D01*
X43720517Y-49036048D01*
X43768136Y-49059858D01*
X43791945Y-49083667D01*
X43815755Y-49131286D01*
X43815755Y-49321762D01*
X44053850Y-48559858D02*
X44053850Y-48845572D01*
X44053850Y-48702715D02*
X43553850Y-48702715D01*
X43625279Y-48750334D01*
X43672898Y-48797953D01*
X43696707Y-48845572D01*
X43553850Y-48250334D02*
X43553850Y-48202715D01*
X43577660Y-48155096D01*
X43601469Y-48131286D01*
X43649088Y-48107477D01*
X43744326Y-48083667D01*
X43863374Y-48083667D01*
X43958612Y-48107477D01*
X44006231Y-48131286D01*
X44030040Y-48155096D01*
X44053850Y-48202715D01*
X44053850Y-48250334D01*
X44030040Y-48297953D01*
X44006231Y-48321762D01*
X43958612Y-48345572D01*
X43863374Y-48369381D01*
X43744326Y-48369381D01*
X43649088Y-48345572D01*
X43601469Y-48321762D01*
X43577660Y-48297953D01*
X43553850Y-48250334D01*
M02*
