G04 #@! TF.GenerationSoftware,KiCad,Pcbnew,5.1.1-8be2ce7~80~ubuntu18.10.1*
G04 #@! TF.CreationDate,2019-06-22T16:49:51+02:00*
G04 #@! TF.ProjectId,Spartan6,53706172-7461-46e3-962e-6b696361645f,rev?*
G04 #@! TF.SameCoordinates,Original*
G04 #@! TF.FileFunction,Paste,Bot*
G04 #@! TF.FilePolarity,Positive*
%FSLAX46Y46*%
G04 Gerber Fmt 4.6, Leading zero omitted, Abs format (unit mm)*
G04 Created by KiCad (PCBNEW 5.1.1-8be2ce7~80~ubuntu18.10.1) date 2019-06-22 16:49:51*
%MOMM*%
%LPD*%
G04 APERTURE LIST*
%ADD10R,1.300000X1.700000*%
%ADD11C,0.100000*%
%ADD12C,0.600000*%
%ADD13C,0.590000*%
%ADD14R,0.800000X0.900000*%
%ADD15C,0.875000*%
%ADD16C,1.350000*%
%ADD17C,0.550000*%
%ADD18R,2.000000X1.500000*%
%ADD19R,2.000000X3.800000*%
G04 APERTURE END LIST*
D10*
X80467300Y-53990200D03*
X83967300Y-53990200D03*
D11*
G36*
X86161503Y-54523222D02*
G01*
X86176064Y-54525382D01*
X86190343Y-54528959D01*
X86204203Y-54533918D01*
X86217510Y-54540212D01*
X86230136Y-54547780D01*
X86241959Y-54556548D01*
X86252866Y-54566434D01*
X86262752Y-54577341D01*
X86271520Y-54589164D01*
X86279088Y-54601790D01*
X86285382Y-54615097D01*
X86290341Y-54628957D01*
X86293918Y-54643236D01*
X86296078Y-54657797D01*
X86296800Y-54672500D01*
X86296800Y-56322500D01*
X86296078Y-56337203D01*
X86293918Y-56351764D01*
X86290341Y-56366043D01*
X86285382Y-56379903D01*
X86279088Y-56393210D01*
X86271520Y-56405836D01*
X86262752Y-56417659D01*
X86252866Y-56428566D01*
X86241959Y-56438452D01*
X86230136Y-56447220D01*
X86217510Y-56454788D01*
X86204203Y-56461082D01*
X86190343Y-56466041D01*
X86176064Y-56469618D01*
X86161503Y-56471778D01*
X86146800Y-56472500D01*
X85846800Y-56472500D01*
X85832097Y-56471778D01*
X85817536Y-56469618D01*
X85803257Y-56466041D01*
X85789397Y-56461082D01*
X85776090Y-56454788D01*
X85763464Y-56447220D01*
X85751641Y-56438452D01*
X85740734Y-56428566D01*
X85730848Y-56417659D01*
X85722080Y-56405836D01*
X85714512Y-56393210D01*
X85708218Y-56379903D01*
X85703259Y-56366043D01*
X85699682Y-56351764D01*
X85697522Y-56337203D01*
X85696800Y-56322500D01*
X85696800Y-54672500D01*
X85697522Y-54657797D01*
X85699682Y-54643236D01*
X85703259Y-54628957D01*
X85708218Y-54615097D01*
X85714512Y-54601790D01*
X85722080Y-54589164D01*
X85730848Y-54577341D01*
X85740734Y-54566434D01*
X85751641Y-54556548D01*
X85763464Y-54547780D01*
X85776090Y-54540212D01*
X85789397Y-54533918D01*
X85803257Y-54528959D01*
X85817536Y-54525382D01*
X85832097Y-54523222D01*
X85846800Y-54522500D01*
X86146800Y-54522500D01*
X86161503Y-54523222D01*
X86161503Y-54523222D01*
G37*
D12*
X85996800Y-55497500D03*
D11*
G36*
X87431503Y-54523222D02*
G01*
X87446064Y-54525382D01*
X87460343Y-54528959D01*
X87474203Y-54533918D01*
X87487510Y-54540212D01*
X87500136Y-54547780D01*
X87511959Y-54556548D01*
X87522866Y-54566434D01*
X87532752Y-54577341D01*
X87541520Y-54589164D01*
X87549088Y-54601790D01*
X87555382Y-54615097D01*
X87560341Y-54628957D01*
X87563918Y-54643236D01*
X87566078Y-54657797D01*
X87566800Y-54672500D01*
X87566800Y-56322500D01*
X87566078Y-56337203D01*
X87563918Y-56351764D01*
X87560341Y-56366043D01*
X87555382Y-56379903D01*
X87549088Y-56393210D01*
X87541520Y-56405836D01*
X87532752Y-56417659D01*
X87522866Y-56428566D01*
X87511959Y-56438452D01*
X87500136Y-56447220D01*
X87487510Y-56454788D01*
X87474203Y-56461082D01*
X87460343Y-56466041D01*
X87446064Y-56469618D01*
X87431503Y-56471778D01*
X87416800Y-56472500D01*
X87116800Y-56472500D01*
X87102097Y-56471778D01*
X87087536Y-56469618D01*
X87073257Y-56466041D01*
X87059397Y-56461082D01*
X87046090Y-56454788D01*
X87033464Y-56447220D01*
X87021641Y-56438452D01*
X87010734Y-56428566D01*
X87000848Y-56417659D01*
X86992080Y-56405836D01*
X86984512Y-56393210D01*
X86978218Y-56379903D01*
X86973259Y-56366043D01*
X86969682Y-56351764D01*
X86967522Y-56337203D01*
X86966800Y-56322500D01*
X86966800Y-54672500D01*
X86967522Y-54657797D01*
X86969682Y-54643236D01*
X86973259Y-54628957D01*
X86978218Y-54615097D01*
X86984512Y-54601790D01*
X86992080Y-54589164D01*
X87000848Y-54577341D01*
X87010734Y-54566434D01*
X87021641Y-54556548D01*
X87033464Y-54547780D01*
X87046090Y-54540212D01*
X87059397Y-54533918D01*
X87073257Y-54528959D01*
X87087536Y-54525382D01*
X87102097Y-54523222D01*
X87116800Y-54522500D01*
X87416800Y-54522500D01*
X87431503Y-54523222D01*
X87431503Y-54523222D01*
G37*
D12*
X87266800Y-55497500D03*
D11*
G36*
X88701503Y-54523222D02*
G01*
X88716064Y-54525382D01*
X88730343Y-54528959D01*
X88744203Y-54533918D01*
X88757510Y-54540212D01*
X88770136Y-54547780D01*
X88781959Y-54556548D01*
X88792866Y-54566434D01*
X88802752Y-54577341D01*
X88811520Y-54589164D01*
X88819088Y-54601790D01*
X88825382Y-54615097D01*
X88830341Y-54628957D01*
X88833918Y-54643236D01*
X88836078Y-54657797D01*
X88836800Y-54672500D01*
X88836800Y-56322500D01*
X88836078Y-56337203D01*
X88833918Y-56351764D01*
X88830341Y-56366043D01*
X88825382Y-56379903D01*
X88819088Y-56393210D01*
X88811520Y-56405836D01*
X88802752Y-56417659D01*
X88792866Y-56428566D01*
X88781959Y-56438452D01*
X88770136Y-56447220D01*
X88757510Y-56454788D01*
X88744203Y-56461082D01*
X88730343Y-56466041D01*
X88716064Y-56469618D01*
X88701503Y-56471778D01*
X88686800Y-56472500D01*
X88386800Y-56472500D01*
X88372097Y-56471778D01*
X88357536Y-56469618D01*
X88343257Y-56466041D01*
X88329397Y-56461082D01*
X88316090Y-56454788D01*
X88303464Y-56447220D01*
X88291641Y-56438452D01*
X88280734Y-56428566D01*
X88270848Y-56417659D01*
X88262080Y-56405836D01*
X88254512Y-56393210D01*
X88248218Y-56379903D01*
X88243259Y-56366043D01*
X88239682Y-56351764D01*
X88237522Y-56337203D01*
X88236800Y-56322500D01*
X88236800Y-54672500D01*
X88237522Y-54657797D01*
X88239682Y-54643236D01*
X88243259Y-54628957D01*
X88248218Y-54615097D01*
X88254512Y-54601790D01*
X88262080Y-54589164D01*
X88270848Y-54577341D01*
X88280734Y-54566434D01*
X88291641Y-54556548D01*
X88303464Y-54547780D01*
X88316090Y-54540212D01*
X88329397Y-54533918D01*
X88343257Y-54528959D01*
X88357536Y-54525382D01*
X88372097Y-54523222D01*
X88386800Y-54522500D01*
X88686800Y-54522500D01*
X88701503Y-54523222D01*
X88701503Y-54523222D01*
G37*
D12*
X88536800Y-55497500D03*
D11*
G36*
X89971503Y-54523222D02*
G01*
X89986064Y-54525382D01*
X90000343Y-54528959D01*
X90014203Y-54533918D01*
X90027510Y-54540212D01*
X90040136Y-54547780D01*
X90051959Y-54556548D01*
X90062866Y-54566434D01*
X90072752Y-54577341D01*
X90081520Y-54589164D01*
X90089088Y-54601790D01*
X90095382Y-54615097D01*
X90100341Y-54628957D01*
X90103918Y-54643236D01*
X90106078Y-54657797D01*
X90106800Y-54672500D01*
X90106800Y-56322500D01*
X90106078Y-56337203D01*
X90103918Y-56351764D01*
X90100341Y-56366043D01*
X90095382Y-56379903D01*
X90089088Y-56393210D01*
X90081520Y-56405836D01*
X90072752Y-56417659D01*
X90062866Y-56428566D01*
X90051959Y-56438452D01*
X90040136Y-56447220D01*
X90027510Y-56454788D01*
X90014203Y-56461082D01*
X90000343Y-56466041D01*
X89986064Y-56469618D01*
X89971503Y-56471778D01*
X89956800Y-56472500D01*
X89656800Y-56472500D01*
X89642097Y-56471778D01*
X89627536Y-56469618D01*
X89613257Y-56466041D01*
X89599397Y-56461082D01*
X89586090Y-56454788D01*
X89573464Y-56447220D01*
X89561641Y-56438452D01*
X89550734Y-56428566D01*
X89540848Y-56417659D01*
X89532080Y-56405836D01*
X89524512Y-56393210D01*
X89518218Y-56379903D01*
X89513259Y-56366043D01*
X89509682Y-56351764D01*
X89507522Y-56337203D01*
X89506800Y-56322500D01*
X89506800Y-54672500D01*
X89507522Y-54657797D01*
X89509682Y-54643236D01*
X89513259Y-54628957D01*
X89518218Y-54615097D01*
X89524512Y-54601790D01*
X89532080Y-54589164D01*
X89540848Y-54577341D01*
X89550734Y-54566434D01*
X89561641Y-54556548D01*
X89573464Y-54547780D01*
X89586090Y-54540212D01*
X89599397Y-54533918D01*
X89613257Y-54528959D01*
X89627536Y-54525382D01*
X89642097Y-54523222D01*
X89656800Y-54522500D01*
X89956800Y-54522500D01*
X89971503Y-54523222D01*
X89971503Y-54523222D01*
G37*
D12*
X89806800Y-55497500D03*
D11*
G36*
X89971503Y-49573222D02*
G01*
X89986064Y-49575382D01*
X90000343Y-49578959D01*
X90014203Y-49583918D01*
X90027510Y-49590212D01*
X90040136Y-49597780D01*
X90051959Y-49606548D01*
X90062866Y-49616434D01*
X90072752Y-49627341D01*
X90081520Y-49639164D01*
X90089088Y-49651790D01*
X90095382Y-49665097D01*
X90100341Y-49678957D01*
X90103918Y-49693236D01*
X90106078Y-49707797D01*
X90106800Y-49722500D01*
X90106800Y-51372500D01*
X90106078Y-51387203D01*
X90103918Y-51401764D01*
X90100341Y-51416043D01*
X90095382Y-51429903D01*
X90089088Y-51443210D01*
X90081520Y-51455836D01*
X90072752Y-51467659D01*
X90062866Y-51478566D01*
X90051959Y-51488452D01*
X90040136Y-51497220D01*
X90027510Y-51504788D01*
X90014203Y-51511082D01*
X90000343Y-51516041D01*
X89986064Y-51519618D01*
X89971503Y-51521778D01*
X89956800Y-51522500D01*
X89656800Y-51522500D01*
X89642097Y-51521778D01*
X89627536Y-51519618D01*
X89613257Y-51516041D01*
X89599397Y-51511082D01*
X89586090Y-51504788D01*
X89573464Y-51497220D01*
X89561641Y-51488452D01*
X89550734Y-51478566D01*
X89540848Y-51467659D01*
X89532080Y-51455836D01*
X89524512Y-51443210D01*
X89518218Y-51429903D01*
X89513259Y-51416043D01*
X89509682Y-51401764D01*
X89507522Y-51387203D01*
X89506800Y-51372500D01*
X89506800Y-49722500D01*
X89507522Y-49707797D01*
X89509682Y-49693236D01*
X89513259Y-49678957D01*
X89518218Y-49665097D01*
X89524512Y-49651790D01*
X89532080Y-49639164D01*
X89540848Y-49627341D01*
X89550734Y-49616434D01*
X89561641Y-49606548D01*
X89573464Y-49597780D01*
X89586090Y-49590212D01*
X89599397Y-49583918D01*
X89613257Y-49578959D01*
X89627536Y-49575382D01*
X89642097Y-49573222D01*
X89656800Y-49572500D01*
X89956800Y-49572500D01*
X89971503Y-49573222D01*
X89971503Y-49573222D01*
G37*
D12*
X89806800Y-50547500D03*
D11*
G36*
X88701503Y-49573222D02*
G01*
X88716064Y-49575382D01*
X88730343Y-49578959D01*
X88744203Y-49583918D01*
X88757510Y-49590212D01*
X88770136Y-49597780D01*
X88781959Y-49606548D01*
X88792866Y-49616434D01*
X88802752Y-49627341D01*
X88811520Y-49639164D01*
X88819088Y-49651790D01*
X88825382Y-49665097D01*
X88830341Y-49678957D01*
X88833918Y-49693236D01*
X88836078Y-49707797D01*
X88836800Y-49722500D01*
X88836800Y-51372500D01*
X88836078Y-51387203D01*
X88833918Y-51401764D01*
X88830341Y-51416043D01*
X88825382Y-51429903D01*
X88819088Y-51443210D01*
X88811520Y-51455836D01*
X88802752Y-51467659D01*
X88792866Y-51478566D01*
X88781959Y-51488452D01*
X88770136Y-51497220D01*
X88757510Y-51504788D01*
X88744203Y-51511082D01*
X88730343Y-51516041D01*
X88716064Y-51519618D01*
X88701503Y-51521778D01*
X88686800Y-51522500D01*
X88386800Y-51522500D01*
X88372097Y-51521778D01*
X88357536Y-51519618D01*
X88343257Y-51516041D01*
X88329397Y-51511082D01*
X88316090Y-51504788D01*
X88303464Y-51497220D01*
X88291641Y-51488452D01*
X88280734Y-51478566D01*
X88270848Y-51467659D01*
X88262080Y-51455836D01*
X88254512Y-51443210D01*
X88248218Y-51429903D01*
X88243259Y-51416043D01*
X88239682Y-51401764D01*
X88237522Y-51387203D01*
X88236800Y-51372500D01*
X88236800Y-49722500D01*
X88237522Y-49707797D01*
X88239682Y-49693236D01*
X88243259Y-49678957D01*
X88248218Y-49665097D01*
X88254512Y-49651790D01*
X88262080Y-49639164D01*
X88270848Y-49627341D01*
X88280734Y-49616434D01*
X88291641Y-49606548D01*
X88303464Y-49597780D01*
X88316090Y-49590212D01*
X88329397Y-49583918D01*
X88343257Y-49578959D01*
X88357536Y-49575382D01*
X88372097Y-49573222D01*
X88386800Y-49572500D01*
X88686800Y-49572500D01*
X88701503Y-49573222D01*
X88701503Y-49573222D01*
G37*
D12*
X88536800Y-50547500D03*
D11*
G36*
X87431503Y-49573222D02*
G01*
X87446064Y-49575382D01*
X87460343Y-49578959D01*
X87474203Y-49583918D01*
X87487510Y-49590212D01*
X87500136Y-49597780D01*
X87511959Y-49606548D01*
X87522866Y-49616434D01*
X87532752Y-49627341D01*
X87541520Y-49639164D01*
X87549088Y-49651790D01*
X87555382Y-49665097D01*
X87560341Y-49678957D01*
X87563918Y-49693236D01*
X87566078Y-49707797D01*
X87566800Y-49722500D01*
X87566800Y-51372500D01*
X87566078Y-51387203D01*
X87563918Y-51401764D01*
X87560341Y-51416043D01*
X87555382Y-51429903D01*
X87549088Y-51443210D01*
X87541520Y-51455836D01*
X87532752Y-51467659D01*
X87522866Y-51478566D01*
X87511959Y-51488452D01*
X87500136Y-51497220D01*
X87487510Y-51504788D01*
X87474203Y-51511082D01*
X87460343Y-51516041D01*
X87446064Y-51519618D01*
X87431503Y-51521778D01*
X87416800Y-51522500D01*
X87116800Y-51522500D01*
X87102097Y-51521778D01*
X87087536Y-51519618D01*
X87073257Y-51516041D01*
X87059397Y-51511082D01*
X87046090Y-51504788D01*
X87033464Y-51497220D01*
X87021641Y-51488452D01*
X87010734Y-51478566D01*
X87000848Y-51467659D01*
X86992080Y-51455836D01*
X86984512Y-51443210D01*
X86978218Y-51429903D01*
X86973259Y-51416043D01*
X86969682Y-51401764D01*
X86967522Y-51387203D01*
X86966800Y-51372500D01*
X86966800Y-49722500D01*
X86967522Y-49707797D01*
X86969682Y-49693236D01*
X86973259Y-49678957D01*
X86978218Y-49665097D01*
X86984512Y-49651790D01*
X86992080Y-49639164D01*
X87000848Y-49627341D01*
X87010734Y-49616434D01*
X87021641Y-49606548D01*
X87033464Y-49597780D01*
X87046090Y-49590212D01*
X87059397Y-49583918D01*
X87073257Y-49578959D01*
X87087536Y-49575382D01*
X87102097Y-49573222D01*
X87116800Y-49572500D01*
X87416800Y-49572500D01*
X87431503Y-49573222D01*
X87431503Y-49573222D01*
G37*
D12*
X87266800Y-50547500D03*
D11*
G36*
X86161503Y-49573222D02*
G01*
X86176064Y-49575382D01*
X86190343Y-49578959D01*
X86204203Y-49583918D01*
X86217510Y-49590212D01*
X86230136Y-49597780D01*
X86241959Y-49606548D01*
X86252866Y-49616434D01*
X86262752Y-49627341D01*
X86271520Y-49639164D01*
X86279088Y-49651790D01*
X86285382Y-49665097D01*
X86290341Y-49678957D01*
X86293918Y-49693236D01*
X86296078Y-49707797D01*
X86296800Y-49722500D01*
X86296800Y-51372500D01*
X86296078Y-51387203D01*
X86293918Y-51401764D01*
X86290341Y-51416043D01*
X86285382Y-51429903D01*
X86279088Y-51443210D01*
X86271520Y-51455836D01*
X86262752Y-51467659D01*
X86252866Y-51478566D01*
X86241959Y-51488452D01*
X86230136Y-51497220D01*
X86217510Y-51504788D01*
X86204203Y-51511082D01*
X86190343Y-51516041D01*
X86176064Y-51519618D01*
X86161503Y-51521778D01*
X86146800Y-51522500D01*
X85846800Y-51522500D01*
X85832097Y-51521778D01*
X85817536Y-51519618D01*
X85803257Y-51516041D01*
X85789397Y-51511082D01*
X85776090Y-51504788D01*
X85763464Y-51497220D01*
X85751641Y-51488452D01*
X85740734Y-51478566D01*
X85730848Y-51467659D01*
X85722080Y-51455836D01*
X85714512Y-51443210D01*
X85708218Y-51429903D01*
X85703259Y-51416043D01*
X85699682Y-51401764D01*
X85697522Y-51387203D01*
X85696800Y-51372500D01*
X85696800Y-49722500D01*
X85697522Y-49707797D01*
X85699682Y-49693236D01*
X85703259Y-49678957D01*
X85708218Y-49665097D01*
X85714512Y-49651790D01*
X85722080Y-49639164D01*
X85730848Y-49627341D01*
X85740734Y-49616434D01*
X85751641Y-49606548D01*
X85763464Y-49597780D01*
X85776090Y-49590212D01*
X85789397Y-49583918D01*
X85803257Y-49578959D01*
X85817536Y-49575382D01*
X85832097Y-49573222D01*
X85846800Y-49572500D01*
X86146800Y-49572500D01*
X86161503Y-49573222D01*
X86161503Y-49573222D01*
G37*
D12*
X85996800Y-50547500D03*
D11*
G36*
X81009758Y-48760910D02*
G01*
X81024076Y-48763034D01*
X81038117Y-48766551D01*
X81051746Y-48771428D01*
X81064831Y-48777617D01*
X81077247Y-48785058D01*
X81088873Y-48793681D01*
X81099598Y-48803402D01*
X81109319Y-48814127D01*
X81117942Y-48825753D01*
X81125383Y-48838169D01*
X81131572Y-48851254D01*
X81136449Y-48864883D01*
X81139966Y-48878924D01*
X81142090Y-48893242D01*
X81142800Y-48907700D01*
X81142800Y-49202700D01*
X81142090Y-49217158D01*
X81139966Y-49231476D01*
X81136449Y-49245517D01*
X81131572Y-49259146D01*
X81125383Y-49272231D01*
X81117942Y-49284647D01*
X81109319Y-49296273D01*
X81099598Y-49306998D01*
X81088873Y-49316719D01*
X81077247Y-49325342D01*
X81064831Y-49332783D01*
X81051746Y-49338972D01*
X81038117Y-49343849D01*
X81024076Y-49347366D01*
X81009758Y-49349490D01*
X80995300Y-49350200D01*
X80650300Y-49350200D01*
X80635842Y-49349490D01*
X80621524Y-49347366D01*
X80607483Y-49343849D01*
X80593854Y-49338972D01*
X80580769Y-49332783D01*
X80568353Y-49325342D01*
X80556727Y-49316719D01*
X80546002Y-49306998D01*
X80536281Y-49296273D01*
X80527658Y-49284647D01*
X80520217Y-49272231D01*
X80514028Y-49259146D01*
X80509151Y-49245517D01*
X80505634Y-49231476D01*
X80503510Y-49217158D01*
X80502800Y-49202700D01*
X80502800Y-48907700D01*
X80503510Y-48893242D01*
X80505634Y-48878924D01*
X80509151Y-48864883D01*
X80514028Y-48851254D01*
X80520217Y-48838169D01*
X80527658Y-48825753D01*
X80536281Y-48814127D01*
X80546002Y-48803402D01*
X80556727Y-48793681D01*
X80568353Y-48785058D01*
X80580769Y-48777617D01*
X80593854Y-48771428D01*
X80607483Y-48766551D01*
X80621524Y-48763034D01*
X80635842Y-48760910D01*
X80650300Y-48760200D01*
X80995300Y-48760200D01*
X81009758Y-48760910D01*
X81009758Y-48760910D01*
G37*
D13*
X80822800Y-49055200D03*
D11*
G36*
X81009758Y-49730910D02*
G01*
X81024076Y-49733034D01*
X81038117Y-49736551D01*
X81051746Y-49741428D01*
X81064831Y-49747617D01*
X81077247Y-49755058D01*
X81088873Y-49763681D01*
X81099598Y-49773402D01*
X81109319Y-49784127D01*
X81117942Y-49795753D01*
X81125383Y-49808169D01*
X81131572Y-49821254D01*
X81136449Y-49834883D01*
X81139966Y-49848924D01*
X81142090Y-49863242D01*
X81142800Y-49877700D01*
X81142800Y-50172700D01*
X81142090Y-50187158D01*
X81139966Y-50201476D01*
X81136449Y-50215517D01*
X81131572Y-50229146D01*
X81125383Y-50242231D01*
X81117942Y-50254647D01*
X81109319Y-50266273D01*
X81099598Y-50276998D01*
X81088873Y-50286719D01*
X81077247Y-50295342D01*
X81064831Y-50302783D01*
X81051746Y-50308972D01*
X81038117Y-50313849D01*
X81024076Y-50317366D01*
X81009758Y-50319490D01*
X80995300Y-50320200D01*
X80650300Y-50320200D01*
X80635842Y-50319490D01*
X80621524Y-50317366D01*
X80607483Y-50313849D01*
X80593854Y-50308972D01*
X80580769Y-50302783D01*
X80568353Y-50295342D01*
X80556727Y-50286719D01*
X80546002Y-50276998D01*
X80536281Y-50266273D01*
X80527658Y-50254647D01*
X80520217Y-50242231D01*
X80514028Y-50229146D01*
X80509151Y-50215517D01*
X80505634Y-50201476D01*
X80503510Y-50187158D01*
X80502800Y-50172700D01*
X80502800Y-49877700D01*
X80503510Y-49863242D01*
X80505634Y-49848924D01*
X80509151Y-49834883D01*
X80514028Y-49821254D01*
X80520217Y-49808169D01*
X80527658Y-49795753D01*
X80536281Y-49784127D01*
X80546002Y-49773402D01*
X80556727Y-49763681D01*
X80568353Y-49755058D01*
X80580769Y-49747617D01*
X80593854Y-49741428D01*
X80607483Y-49736551D01*
X80621524Y-49733034D01*
X80635842Y-49730910D01*
X80650300Y-49730200D01*
X80995300Y-49730200D01*
X81009758Y-49730910D01*
X81009758Y-49730910D01*
G37*
D13*
X80822800Y-50025200D03*
D11*
G36*
X81007258Y-50754810D02*
G01*
X81021576Y-50756934D01*
X81035617Y-50760451D01*
X81049246Y-50765328D01*
X81062331Y-50771517D01*
X81074747Y-50778958D01*
X81086373Y-50787581D01*
X81097098Y-50797302D01*
X81106819Y-50808027D01*
X81115442Y-50819653D01*
X81122883Y-50832069D01*
X81129072Y-50845154D01*
X81133949Y-50858783D01*
X81137466Y-50872824D01*
X81139590Y-50887142D01*
X81140300Y-50901600D01*
X81140300Y-51196600D01*
X81139590Y-51211058D01*
X81137466Y-51225376D01*
X81133949Y-51239417D01*
X81129072Y-51253046D01*
X81122883Y-51266131D01*
X81115442Y-51278547D01*
X81106819Y-51290173D01*
X81097098Y-51300898D01*
X81086373Y-51310619D01*
X81074747Y-51319242D01*
X81062331Y-51326683D01*
X81049246Y-51332872D01*
X81035617Y-51337749D01*
X81021576Y-51341266D01*
X81007258Y-51343390D01*
X80992800Y-51344100D01*
X80647800Y-51344100D01*
X80633342Y-51343390D01*
X80619024Y-51341266D01*
X80604983Y-51337749D01*
X80591354Y-51332872D01*
X80578269Y-51326683D01*
X80565853Y-51319242D01*
X80554227Y-51310619D01*
X80543502Y-51300898D01*
X80533781Y-51290173D01*
X80525158Y-51278547D01*
X80517717Y-51266131D01*
X80511528Y-51253046D01*
X80506651Y-51239417D01*
X80503134Y-51225376D01*
X80501010Y-51211058D01*
X80500300Y-51196600D01*
X80500300Y-50901600D01*
X80501010Y-50887142D01*
X80503134Y-50872824D01*
X80506651Y-50858783D01*
X80511528Y-50845154D01*
X80517717Y-50832069D01*
X80525158Y-50819653D01*
X80533781Y-50808027D01*
X80543502Y-50797302D01*
X80554227Y-50787581D01*
X80565853Y-50778958D01*
X80578269Y-50771517D01*
X80591354Y-50765328D01*
X80604983Y-50760451D01*
X80619024Y-50756934D01*
X80633342Y-50754810D01*
X80647800Y-50754100D01*
X80992800Y-50754100D01*
X81007258Y-50754810D01*
X81007258Y-50754810D01*
G37*
D13*
X80820300Y-51049100D03*
D11*
G36*
X81007258Y-51724810D02*
G01*
X81021576Y-51726934D01*
X81035617Y-51730451D01*
X81049246Y-51735328D01*
X81062331Y-51741517D01*
X81074747Y-51748958D01*
X81086373Y-51757581D01*
X81097098Y-51767302D01*
X81106819Y-51778027D01*
X81115442Y-51789653D01*
X81122883Y-51802069D01*
X81129072Y-51815154D01*
X81133949Y-51828783D01*
X81137466Y-51842824D01*
X81139590Y-51857142D01*
X81140300Y-51871600D01*
X81140300Y-52166600D01*
X81139590Y-52181058D01*
X81137466Y-52195376D01*
X81133949Y-52209417D01*
X81129072Y-52223046D01*
X81122883Y-52236131D01*
X81115442Y-52248547D01*
X81106819Y-52260173D01*
X81097098Y-52270898D01*
X81086373Y-52280619D01*
X81074747Y-52289242D01*
X81062331Y-52296683D01*
X81049246Y-52302872D01*
X81035617Y-52307749D01*
X81021576Y-52311266D01*
X81007258Y-52313390D01*
X80992800Y-52314100D01*
X80647800Y-52314100D01*
X80633342Y-52313390D01*
X80619024Y-52311266D01*
X80604983Y-52307749D01*
X80591354Y-52302872D01*
X80578269Y-52296683D01*
X80565853Y-52289242D01*
X80554227Y-52280619D01*
X80543502Y-52270898D01*
X80533781Y-52260173D01*
X80525158Y-52248547D01*
X80517717Y-52236131D01*
X80511528Y-52223046D01*
X80506651Y-52209417D01*
X80503134Y-52195376D01*
X80501010Y-52181058D01*
X80500300Y-52166600D01*
X80500300Y-51871600D01*
X80501010Y-51857142D01*
X80503134Y-51842824D01*
X80506651Y-51828783D01*
X80511528Y-51815154D01*
X80517717Y-51802069D01*
X80525158Y-51789653D01*
X80533781Y-51778027D01*
X80543502Y-51767302D01*
X80554227Y-51757581D01*
X80565853Y-51748958D01*
X80578269Y-51741517D01*
X80591354Y-51735328D01*
X80604983Y-51730451D01*
X80619024Y-51726934D01*
X80633342Y-51724810D01*
X80647800Y-51724100D01*
X80992800Y-51724100D01*
X81007258Y-51724810D01*
X81007258Y-51724810D01*
G37*
D13*
X80820300Y-52019100D03*
D14*
X83108800Y-50013400D03*
X82158800Y-52013400D03*
X84058800Y-52013400D03*
D11*
G36*
X89968558Y-57120310D02*
G01*
X89982876Y-57122434D01*
X89996917Y-57125951D01*
X90010546Y-57130828D01*
X90023631Y-57137017D01*
X90036047Y-57144458D01*
X90047673Y-57153081D01*
X90058398Y-57162802D01*
X90068119Y-57173527D01*
X90076742Y-57185153D01*
X90084183Y-57197569D01*
X90090372Y-57210654D01*
X90095249Y-57224283D01*
X90098766Y-57238324D01*
X90100890Y-57252642D01*
X90101600Y-57267100D01*
X90101600Y-57612100D01*
X90100890Y-57626558D01*
X90098766Y-57640876D01*
X90095249Y-57654917D01*
X90090372Y-57668546D01*
X90084183Y-57681631D01*
X90076742Y-57694047D01*
X90068119Y-57705673D01*
X90058398Y-57716398D01*
X90047673Y-57726119D01*
X90036047Y-57734742D01*
X90023631Y-57742183D01*
X90010546Y-57748372D01*
X89996917Y-57753249D01*
X89982876Y-57756766D01*
X89968558Y-57758890D01*
X89954100Y-57759600D01*
X89659100Y-57759600D01*
X89644642Y-57758890D01*
X89630324Y-57756766D01*
X89616283Y-57753249D01*
X89602654Y-57748372D01*
X89589569Y-57742183D01*
X89577153Y-57734742D01*
X89565527Y-57726119D01*
X89554802Y-57716398D01*
X89545081Y-57705673D01*
X89536458Y-57694047D01*
X89529017Y-57681631D01*
X89522828Y-57668546D01*
X89517951Y-57654917D01*
X89514434Y-57640876D01*
X89512310Y-57626558D01*
X89511600Y-57612100D01*
X89511600Y-57267100D01*
X89512310Y-57252642D01*
X89514434Y-57238324D01*
X89517951Y-57224283D01*
X89522828Y-57210654D01*
X89529017Y-57197569D01*
X89536458Y-57185153D01*
X89545081Y-57173527D01*
X89554802Y-57162802D01*
X89565527Y-57153081D01*
X89577153Y-57144458D01*
X89589569Y-57137017D01*
X89602654Y-57130828D01*
X89616283Y-57125951D01*
X89630324Y-57122434D01*
X89644642Y-57120310D01*
X89659100Y-57119600D01*
X89954100Y-57119600D01*
X89968558Y-57120310D01*
X89968558Y-57120310D01*
G37*
D13*
X89806600Y-57439600D03*
D11*
G36*
X88998558Y-57120310D02*
G01*
X89012876Y-57122434D01*
X89026917Y-57125951D01*
X89040546Y-57130828D01*
X89053631Y-57137017D01*
X89066047Y-57144458D01*
X89077673Y-57153081D01*
X89088398Y-57162802D01*
X89098119Y-57173527D01*
X89106742Y-57185153D01*
X89114183Y-57197569D01*
X89120372Y-57210654D01*
X89125249Y-57224283D01*
X89128766Y-57238324D01*
X89130890Y-57252642D01*
X89131600Y-57267100D01*
X89131600Y-57612100D01*
X89130890Y-57626558D01*
X89128766Y-57640876D01*
X89125249Y-57654917D01*
X89120372Y-57668546D01*
X89114183Y-57681631D01*
X89106742Y-57694047D01*
X89098119Y-57705673D01*
X89088398Y-57716398D01*
X89077673Y-57726119D01*
X89066047Y-57734742D01*
X89053631Y-57742183D01*
X89040546Y-57748372D01*
X89026917Y-57753249D01*
X89012876Y-57756766D01*
X88998558Y-57758890D01*
X88984100Y-57759600D01*
X88689100Y-57759600D01*
X88674642Y-57758890D01*
X88660324Y-57756766D01*
X88646283Y-57753249D01*
X88632654Y-57748372D01*
X88619569Y-57742183D01*
X88607153Y-57734742D01*
X88595527Y-57726119D01*
X88584802Y-57716398D01*
X88575081Y-57705673D01*
X88566458Y-57694047D01*
X88559017Y-57681631D01*
X88552828Y-57668546D01*
X88547951Y-57654917D01*
X88544434Y-57640876D01*
X88542310Y-57626558D01*
X88541600Y-57612100D01*
X88541600Y-57267100D01*
X88542310Y-57252642D01*
X88544434Y-57238324D01*
X88547951Y-57224283D01*
X88552828Y-57210654D01*
X88559017Y-57197569D01*
X88566458Y-57185153D01*
X88575081Y-57173527D01*
X88584802Y-57162802D01*
X88595527Y-57153081D01*
X88607153Y-57144458D01*
X88619569Y-57137017D01*
X88632654Y-57130828D01*
X88646283Y-57125951D01*
X88660324Y-57122434D01*
X88674642Y-57120310D01*
X88689100Y-57119600D01*
X88984100Y-57119600D01*
X88998558Y-57120310D01*
X88998558Y-57120310D01*
G37*
D13*
X88836600Y-57439600D03*
D11*
G36*
X48914358Y-45549510D02*
G01*
X48928676Y-45551634D01*
X48942717Y-45555151D01*
X48956346Y-45560028D01*
X48969431Y-45566217D01*
X48981847Y-45573658D01*
X48993473Y-45582281D01*
X49004198Y-45592002D01*
X49013919Y-45602727D01*
X49022542Y-45614353D01*
X49029983Y-45626769D01*
X49036172Y-45639854D01*
X49041049Y-45653483D01*
X49044566Y-45667524D01*
X49046690Y-45681842D01*
X49047400Y-45696300D01*
X49047400Y-45991300D01*
X49046690Y-46005758D01*
X49044566Y-46020076D01*
X49041049Y-46034117D01*
X49036172Y-46047746D01*
X49029983Y-46060831D01*
X49022542Y-46073247D01*
X49013919Y-46084873D01*
X49004198Y-46095598D01*
X48993473Y-46105319D01*
X48981847Y-46113942D01*
X48969431Y-46121383D01*
X48956346Y-46127572D01*
X48942717Y-46132449D01*
X48928676Y-46135966D01*
X48914358Y-46138090D01*
X48899900Y-46138800D01*
X48554900Y-46138800D01*
X48540442Y-46138090D01*
X48526124Y-46135966D01*
X48512083Y-46132449D01*
X48498454Y-46127572D01*
X48485369Y-46121383D01*
X48472953Y-46113942D01*
X48461327Y-46105319D01*
X48450602Y-46095598D01*
X48440881Y-46084873D01*
X48432258Y-46073247D01*
X48424817Y-46060831D01*
X48418628Y-46047746D01*
X48413751Y-46034117D01*
X48410234Y-46020076D01*
X48408110Y-46005758D01*
X48407400Y-45991300D01*
X48407400Y-45696300D01*
X48408110Y-45681842D01*
X48410234Y-45667524D01*
X48413751Y-45653483D01*
X48418628Y-45639854D01*
X48424817Y-45626769D01*
X48432258Y-45614353D01*
X48440881Y-45602727D01*
X48450602Y-45592002D01*
X48461327Y-45582281D01*
X48472953Y-45573658D01*
X48485369Y-45566217D01*
X48498454Y-45560028D01*
X48512083Y-45555151D01*
X48526124Y-45551634D01*
X48540442Y-45549510D01*
X48554900Y-45548800D01*
X48899900Y-45548800D01*
X48914358Y-45549510D01*
X48914358Y-45549510D01*
G37*
D13*
X48727400Y-45843800D03*
D11*
G36*
X48914358Y-46519510D02*
G01*
X48928676Y-46521634D01*
X48942717Y-46525151D01*
X48956346Y-46530028D01*
X48969431Y-46536217D01*
X48981847Y-46543658D01*
X48993473Y-46552281D01*
X49004198Y-46562002D01*
X49013919Y-46572727D01*
X49022542Y-46584353D01*
X49029983Y-46596769D01*
X49036172Y-46609854D01*
X49041049Y-46623483D01*
X49044566Y-46637524D01*
X49046690Y-46651842D01*
X49047400Y-46666300D01*
X49047400Y-46961300D01*
X49046690Y-46975758D01*
X49044566Y-46990076D01*
X49041049Y-47004117D01*
X49036172Y-47017746D01*
X49029983Y-47030831D01*
X49022542Y-47043247D01*
X49013919Y-47054873D01*
X49004198Y-47065598D01*
X48993473Y-47075319D01*
X48981847Y-47083942D01*
X48969431Y-47091383D01*
X48956346Y-47097572D01*
X48942717Y-47102449D01*
X48928676Y-47105966D01*
X48914358Y-47108090D01*
X48899900Y-47108800D01*
X48554900Y-47108800D01*
X48540442Y-47108090D01*
X48526124Y-47105966D01*
X48512083Y-47102449D01*
X48498454Y-47097572D01*
X48485369Y-47091383D01*
X48472953Y-47083942D01*
X48461327Y-47075319D01*
X48450602Y-47065598D01*
X48440881Y-47054873D01*
X48432258Y-47043247D01*
X48424817Y-47030831D01*
X48418628Y-47017746D01*
X48413751Y-47004117D01*
X48410234Y-46990076D01*
X48408110Y-46975758D01*
X48407400Y-46961300D01*
X48407400Y-46666300D01*
X48408110Y-46651842D01*
X48410234Y-46637524D01*
X48413751Y-46623483D01*
X48418628Y-46609854D01*
X48424817Y-46596769D01*
X48432258Y-46584353D01*
X48440881Y-46572727D01*
X48450602Y-46562002D01*
X48461327Y-46552281D01*
X48472953Y-46543658D01*
X48485369Y-46536217D01*
X48498454Y-46530028D01*
X48512083Y-46525151D01*
X48526124Y-46521634D01*
X48540442Y-46519510D01*
X48554900Y-46518800D01*
X48899900Y-46518800D01*
X48914358Y-46519510D01*
X48914358Y-46519510D01*
G37*
D13*
X48727400Y-46813800D03*
D11*
G36*
X46574958Y-45549510D02*
G01*
X46589276Y-45551634D01*
X46603317Y-45555151D01*
X46616946Y-45560028D01*
X46630031Y-45566217D01*
X46642447Y-45573658D01*
X46654073Y-45582281D01*
X46664798Y-45592002D01*
X46674519Y-45602727D01*
X46683142Y-45614353D01*
X46690583Y-45626769D01*
X46696772Y-45639854D01*
X46701649Y-45653483D01*
X46705166Y-45667524D01*
X46707290Y-45681842D01*
X46708000Y-45696300D01*
X46708000Y-45991300D01*
X46707290Y-46005758D01*
X46705166Y-46020076D01*
X46701649Y-46034117D01*
X46696772Y-46047746D01*
X46690583Y-46060831D01*
X46683142Y-46073247D01*
X46674519Y-46084873D01*
X46664798Y-46095598D01*
X46654073Y-46105319D01*
X46642447Y-46113942D01*
X46630031Y-46121383D01*
X46616946Y-46127572D01*
X46603317Y-46132449D01*
X46589276Y-46135966D01*
X46574958Y-46138090D01*
X46560500Y-46138800D01*
X46215500Y-46138800D01*
X46201042Y-46138090D01*
X46186724Y-46135966D01*
X46172683Y-46132449D01*
X46159054Y-46127572D01*
X46145969Y-46121383D01*
X46133553Y-46113942D01*
X46121927Y-46105319D01*
X46111202Y-46095598D01*
X46101481Y-46084873D01*
X46092858Y-46073247D01*
X46085417Y-46060831D01*
X46079228Y-46047746D01*
X46074351Y-46034117D01*
X46070834Y-46020076D01*
X46068710Y-46005758D01*
X46068000Y-45991300D01*
X46068000Y-45696300D01*
X46068710Y-45681842D01*
X46070834Y-45667524D01*
X46074351Y-45653483D01*
X46079228Y-45639854D01*
X46085417Y-45626769D01*
X46092858Y-45614353D01*
X46101481Y-45602727D01*
X46111202Y-45592002D01*
X46121927Y-45582281D01*
X46133553Y-45573658D01*
X46145969Y-45566217D01*
X46159054Y-45560028D01*
X46172683Y-45555151D01*
X46186724Y-45551634D01*
X46201042Y-45549510D01*
X46215500Y-45548800D01*
X46560500Y-45548800D01*
X46574958Y-45549510D01*
X46574958Y-45549510D01*
G37*
D13*
X46388000Y-45843800D03*
D11*
G36*
X46574958Y-46519510D02*
G01*
X46589276Y-46521634D01*
X46603317Y-46525151D01*
X46616946Y-46530028D01*
X46630031Y-46536217D01*
X46642447Y-46543658D01*
X46654073Y-46552281D01*
X46664798Y-46562002D01*
X46674519Y-46572727D01*
X46683142Y-46584353D01*
X46690583Y-46596769D01*
X46696772Y-46609854D01*
X46701649Y-46623483D01*
X46705166Y-46637524D01*
X46707290Y-46651842D01*
X46708000Y-46666300D01*
X46708000Y-46961300D01*
X46707290Y-46975758D01*
X46705166Y-46990076D01*
X46701649Y-47004117D01*
X46696772Y-47017746D01*
X46690583Y-47030831D01*
X46683142Y-47043247D01*
X46674519Y-47054873D01*
X46664798Y-47065598D01*
X46654073Y-47075319D01*
X46642447Y-47083942D01*
X46630031Y-47091383D01*
X46616946Y-47097572D01*
X46603317Y-47102449D01*
X46589276Y-47105966D01*
X46574958Y-47108090D01*
X46560500Y-47108800D01*
X46215500Y-47108800D01*
X46201042Y-47108090D01*
X46186724Y-47105966D01*
X46172683Y-47102449D01*
X46159054Y-47097572D01*
X46145969Y-47091383D01*
X46133553Y-47083942D01*
X46121927Y-47075319D01*
X46111202Y-47065598D01*
X46101481Y-47054873D01*
X46092858Y-47043247D01*
X46085417Y-47030831D01*
X46079228Y-47017746D01*
X46074351Y-47004117D01*
X46070834Y-46990076D01*
X46068710Y-46975758D01*
X46068000Y-46961300D01*
X46068000Y-46666300D01*
X46068710Y-46651842D01*
X46070834Y-46637524D01*
X46074351Y-46623483D01*
X46079228Y-46609854D01*
X46085417Y-46596769D01*
X46092858Y-46584353D01*
X46101481Y-46572727D01*
X46111202Y-46562002D01*
X46121927Y-46552281D01*
X46133553Y-46543658D01*
X46145969Y-46536217D01*
X46159054Y-46530028D01*
X46172683Y-46525151D01*
X46186724Y-46521634D01*
X46201042Y-46519510D01*
X46215500Y-46518800D01*
X46560500Y-46518800D01*
X46574958Y-46519510D01*
X46574958Y-46519510D01*
G37*
D13*
X46388000Y-46813800D03*
D11*
G36*
X44322058Y-45549510D02*
G01*
X44336376Y-45551634D01*
X44350417Y-45555151D01*
X44364046Y-45560028D01*
X44377131Y-45566217D01*
X44389547Y-45573658D01*
X44401173Y-45582281D01*
X44411898Y-45592002D01*
X44421619Y-45602727D01*
X44430242Y-45614353D01*
X44437683Y-45626769D01*
X44443872Y-45639854D01*
X44448749Y-45653483D01*
X44452266Y-45667524D01*
X44454390Y-45681842D01*
X44455100Y-45696300D01*
X44455100Y-45991300D01*
X44454390Y-46005758D01*
X44452266Y-46020076D01*
X44448749Y-46034117D01*
X44443872Y-46047746D01*
X44437683Y-46060831D01*
X44430242Y-46073247D01*
X44421619Y-46084873D01*
X44411898Y-46095598D01*
X44401173Y-46105319D01*
X44389547Y-46113942D01*
X44377131Y-46121383D01*
X44364046Y-46127572D01*
X44350417Y-46132449D01*
X44336376Y-46135966D01*
X44322058Y-46138090D01*
X44307600Y-46138800D01*
X43962600Y-46138800D01*
X43948142Y-46138090D01*
X43933824Y-46135966D01*
X43919783Y-46132449D01*
X43906154Y-46127572D01*
X43893069Y-46121383D01*
X43880653Y-46113942D01*
X43869027Y-46105319D01*
X43858302Y-46095598D01*
X43848581Y-46084873D01*
X43839958Y-46073247D01*
X43832517Y-46060831D01*
X43826328Y-46047746D01*
X43821451Y-46034117D01*
X43817934Y-46020076D01*
X43815810Y-46005758D01*
X43815100Y-45991300D01*
X43815100Y-45696300D01*
X43815810Y-45681842D01*
X43817934Y-45667524D01*
X43821451Y-45653483D01*
X43826328Y-45639854D01*
X43832517Y-45626769D01*
X43839958Y-45614353D01*
X43848581Y-45602727D01*
X43858302Y-45592002D01*
X43869027Y-45582281D01*
X43880653Y-45573658D01*
X43893069Y-45566217D01*
X43906154Y-45560028D01*
X43919783Y-45555151D01*
X43933824Y-45551634D01*
X43948142Y-45549510D01*
X43962600Y-45548800D01*
X44307600Y-45548800D01*
X44322058Y-45549510D01*
X44322058Y-45549510D01*
G37*
D13*
X44135100Y-45843800D03*
D11*
G36*
X44322058Y-46519510D02*
G01*
X44336376Y-46521634D01*
X44350417Y-46525151D01*
X44364046Y-46530028D01*
X44377131Y-46536217D01*
X44389547Y-46543658D01*
X44401173Y-46552281D01*
X44411898Y-46562002D01*
X44421619Y-46572727D01*
X44430242Y-46584353D01*
X44437683Y-46596769D01*
X44443872Y-46609854D01*
X44448749Y-46623483D01*
X44452266Y-46637524D01*
X44454390Y-46651842D01*
X44455100Y-46666300D01*
X44455100Y-46961300D01*
X44454390Y-46975758D01*
X44452266Y-46990076D01*
X44448749Y-47004117D01*
X44443872Y-47017746D01*
X44437683Y-47030831D01*
X44430242Y-47043247D01*
X44421619Y-47054873D01*
X44411898Y-47065598D01*
X44401173Y-47075319D01*
X44389547Y-47083942D01*
X44377131Y-47091383D01*
X44364046Y-47097572D01*
X44350417Y-47102449D01*
X44336376Y-47105966D01*
X44322058Y-47108090D01*
X44307600Y-47108800D01*
X43962600Y-47108800D01*
X43948142Y-47108090D01*
X43933824Y-47105966D01*
X43919783Y-47102449D01*
X43906154Y-47097572D01*
X43893069Y-47091383D01*
X43880653Y-47083942D01*
X43869027Y-47075319D01*
X43858302Y-47065598D01*
X43848581Y-47054873D01*
X43839958Y-47043247D01*
X43832517Y-47030831D01*
X43826328Y-47017746D01*
X43821451Y-47004117D01*
X43817934Y-46990076D01*
X43815810Y-46975758D01*
X43815100Y-46961300D01*
X43815100Y-46666300D01*
X43815810Y-46651842D01*
X43817934Y-46637524D01*
X43821451Y-46623483D01*
X43826328Y-46609854D01*
X43832517Y-46596769D01*
X43839958Y-46584353D01*
X43848581Y-46572727D01*
X43858302Y-46562002D01*
X43869027Y-46552281D01*
X43880653Y-46543658D01*
X43893069Y-46536217D01*
X43906154Y-46530028D01*
X43919783Y-46525151D01*
X43933824Y-46521634D01*
X43948142Y-46519510D01*
X43962600Y-46518800D01*
X44307600Y-46518800D01*
X44322058Y-46519510D01*
X44322058Y-46519510D01*
G37*
D13*
X44135100Y-46813800D03*
D11*
G36*
X66059091Y-51875453D02*
G01*
X66080326Y-51878603D01*
X66101150Y-51883819D01*
X66121362Y-51891051D01*
X66140768Y-51900230D01*
X66159181Y-51911266D01*
X66176424Y-51924054D01*
X66192330Y-51938470D01*
X66206746Y-51954376D01*
X66219534Y-51971619D01*
X66230570Y-51990032D01*
X66239749Y-52009438D01*
X66246981Y-52029650D01*
X66252197Y-52050474D01*
X66255347Y-52071709D01*
X66256400Y-52093150D01*
X66256400Y-52605650D01*
X66255347Y-52627091D01*
X66252197Y-52648326D01*
X66246981Y-52669150D01*
X66239749Y-52689362D01*
X66230570Y-52708768D01*
X66219534Y-52727181D01*
X66206746Y-52744424D01*
X66192330Y-52760330D01*
X66176424Y-52774746D01*
X66159181Y-52787534D01*
X66140768Y-52798570D01*
X66121362Y-52807749D01*
X66101150Y-52814981D01*
X66080326Y-52820197D01*
X66059091Y-52823347D01*
X66037650Y-52824400D01*
X65600150Y-52824400D01*
X65578709Y-52823347D01*
X65557474Y-52820197D01*
X65536650Y-52814981D01*
X65516438Y-52807749D01*
X65497032Y-52798570D01*
X65478619Y-52787534D01*
X65461376Y-52774746D01*
X65445470Y-52760330D01*
X65431054Y-52744424D01*
X65418266Y-52727181D01*
X65407230Y-52708768D01*
X65398051Y-52689362D01*
X65390819Y-52669150D01*
X65385603Y-52648326D01*
X65382453Y-52627091D01*
X65381400Y-52605650D01*
X65381400Y-52093150D01*
X65382453Y-52071709D01*
X65385603Y-52050474D01*
X65390819Y-52029650D01*
X65398051Y-52009438D01*
X65407230Y-51990032D01*
X65418266Y-51971619D01*
X65431054Y-51954376D01*
X65445470Y-51938470D01*
X65461376Y-51924054D01*
X65478619Y-51911266D01*
X65497032Y-51900230D01*
X65516438Y-51891051D01*
X65536650Y-51883819D01*
X65557474Y-51878603D01*
X65578709Y-51875453D01*
X65600150Y-51874400D01*
X66037650Y-51874400D01*
X66059091Y-51875453D01*
X66059091Y-51875453D01*
G37*
D15*
X65818900Y-52349400D03*
D11*
G36*
X67634091Y-51875453D02*
G01*
X67655326Y-51878603D01*
X67676150Y-51883819D01*
X67696362Y-51891051D01*
X67715768Y-51900230D01*
X67734181Y-51911266D01*
X67751424Y-51924054D01*
X67767330Y-51938470D01*
X67781746Y-51954376D01*
X67794534Y-51971619D01*
X67805570Y-51990032D01*
X67814749Y-52009438D01*
X67821981Y-52029650D01*
X67827197Y-52050474D01*
X67830347Y-52071709D01*
X67831400Y-52093150D01*
X67831400Y-52605650D01*
X67830347Y-52627091D01*
X67827197Y-52648326D01*
X67821981Y-52669150D01*
X67814749Y-52689362D01*
X67805570Y-52708768D01*
X67794534Y-52727181D01*
X67781746Y-52744424D01*
X67767330Y-52760330D01*
X67751424Y-52774746D01*
X67734181Y-52787534D01*
X67715768Y-52798570D01*
X67696362Y-52807749D01*
X67676150Y-52814981D01*
X67655326Y-52820197D01*
X67634091Y-52823347D01*
X67612650Y-52824400D01*
X67175150Y-52824400D01*
X67153709Y-52823347D01*
X67132474Y-52820197D01*
X67111650Y-52814981D01*
X67091438Y-52807749D01*
X67072032Y-52798570D01*
X67053619Y-52787534D01*
X67036376Y-52774746D01*
X67020470Y-52760330D01*
X67006054Y-52744424D01*
X66993266Y-52727181D01*
X66982230Y-52708768D01*
X66973051Y-52689362D01*
X66965819Y-52669150D01*
X66960603Y-52648326D01*
X66957453Y-52627091D01*
X66956400Y-52605650D01*
X66956400Y-52093150D01*
X66957453Y-52071709D01*
X66960603Y-52050474D01*
X66965819Y-52029650D01*
X66973051Y-52009438D01*
X66982230Y-51990032D01*
X66993266Y-51971619D01*
X67006054Y-51954376D01*
X67020470Y-51938470D01*
X67036376Y-51924054D01*
X67053619Y-51911266D01*
X67072032Y-51900230D01*
X67091438Y-51891051D01*
X67111650Y-51883819D01*
X67132474Y-51878603D01*
X67153709Y-51875453D01*
X67175150Y-51874400D01*
X67612650Y-51874400D01*
X67634091Y-51875453D01*
X67634091Y-51875453D01*
G37*
D15*
X67393900Y-52349400D03*
D11*
G36*
X76132291Y-48750553D02*
G01*
X76153526Y-48753703D01*
X76174350Y-48758919D01*
X76194562Y-48766151D01*
X76213968Y-48775330D01*
X76232381Y-48786366D01*
X76249624Y-48799154D01*
X76265530Y-48813570D01*
X76279946Y-48829476D01*
X76292734Y-48846719D01*
X76303770Y-48865132D01*
X76312949Y-48884538D01*
X76320181Y-48904750D01*
X76325397Y-48925574D01*
X76328547Y-48946809D01*
X76329600Y-48968250D01*
X76329600Y-49405750D01*
X76328547Y-49427191D01*
X76325397Y-49448426D01*
X76320181Y-49469250D01*
X76312949Y-49489462D01*
X76303770Y-49508868D01*
X76292734Y-49527281D01*
X76279946Y-49544524D01*
X76265530Y-49560430D01*
X76249624Y-49574846D01*
X76232381Y-49587634D01*
X76213968Y-49598670D01*
X76194562Y-49607849D01*
X76174350Y-49615081D01*
X76153526Y-49620297D01*
X76132291Y-49623447D01*
X76110850Y-49624500D01*
X75598350Y-49624500D01*
X75576909Y-49623447D01*
X75555674Y-49620297D01*
X75534850Y-49615081D01*
X75514638Y-49607849D01*
X75495232Y-49598670D01*
X75476819Y-49587634D01*
X75459576Y-49574846D01*
X75443670Y-49560430D01*
X75429254Y-49544524D01*
X75416466Y-49527281D01*
X75405430Y-49508868D01*
X75396251Y-49489462D01*
X75389019Y-49469250D01*
X75383803Y-49448426D01*
X75380653Y-49427191D01*
X75379600Y-49405750D01*
X75379600Y-48968250D01*
X75380653Y-48946809D01*
X75383803Y-48925574D01*
X75389019Y-48904750D01*
X75396251Y-48884538D01*
X75405430Y-48865132D01*
X75416466Y-48846719D01*
X75429254Y-48829476D01*
X75443670Y-48813570D01*
X75459576Y-48799154D01*
X75476819Y-48786366D01*
X75495232Y-48775330D01*
X75514638Y-48766151D01*
X75534850Y-48758919D01*
X75555674Y-48753703D01*
X75576909Y-48750553D01*
X75598350Y-48749500D01*
X76110850Y-48749500D01*
X76132291Y-48750553D01*
X76132291Y-48750553D01*
G37*
D15*
X75854600Y-49187000D03*
D11*
G36*
X76132291Y-50325553D02*
G01*
X76153526Y-50328703D01*
X76174350Y-50333919D01*
X76194562Y-50341151D01*
X76213968Y-50350330D01*
X76232381Y-50361366D01*
X76249624Y-50374154D01*
X76265530Y-50388570D01*
X76279946Y-50404476D01*
X76292734Y-50421719D01*
X76303770Y-50440132D01*
X76312949Y-50459538D01*
X76320181Y-50479750D01*
X76325397Y-50500574D01*
X76328547Y-50521809D01*
X76329600Y-50543250D01*
X76329600Y-50980750D01*
X76328547Y-51002191D01*
X76325397Y-51023426D01*
X76320181Y-51044250D01*
X76312949Y-51064462D01*
X76303770Y-51083868D01*
X76292734Y-51102281D01*
X76279946Y-51119524D01*
X76265530Y-51135430D01*
X76249624Y-51149846D01*
X76232381Y-51162634D01*
X76213968Y-51173670D01*
X76194562Y-51182849D01*
X76174350Y-51190081D01*
X76153526Y-51195297D01*
X76132291Y-51198447D01*
X76110850Y-51199500D01*
X75598350Y-51199500D01*
X75576909Y-51198447D01*
X75555674Y-51195297D01*
X75534850Y-51190081D01*
X75514638Y-51182849D01*
X75495232Y-51173670D01*
X75476819Y-51162634D01*
X75459576Y-51149846D01*
X75443670Y-51135430D01*
X75429254Y-51119524D01*
X75416466Y-51102281D01*
X75405430Y-51083868D01*
X75396251Y-51064462D01*
X75389019Y-51044250D01*
X75383803Y-51023426D01*
X75380653Y-51002191D01*
X75379600Y-50980750D01*
X75379600Y-50543250D01*
X75380653Y-50521809D01*
X75383803Y-50500574D01*
X75389019Y-50479750D01*
X75396251Y-50459538D01*
X75405430Y-50440132D01*
X75416466Y-50421719D01*
X75429254Y-50404476D01*
X75443670Y-50388570D01*
X75459576Y-50374154D01*
X75476819Y-50361366D01*
X75495232Y-50350330D01*
X75514638Y-50341151D01*
X75534850Y-50333919D01*
X75555674Y-50328703D01*
X75576909Y-50325553D01*
X75598350Y-50324500D01*
X76110850Y-50324500D01*
X76132291Y-50325553D01*
X76132291Y-50325553D01*
G37*
D15*
X75854600Y-50762000D03*
D11*
G36*
X66114491Y-50325553D02*
G01*
X66135726Y-50328703D01*
X66156550Y-50333919D01*
X66176762Y-50341151D01*
X66196168Y-50350330D01*
X66214581Y-50361366D01*
X66231824Y-50374154D01*
X66247730Y-50388570D01*
X66262146Y-50404476D01*
X66274934Y-50421719D01*
X66285970Y-50440132D01*
X66295149Y-50459538D01*
X66302381Y-50479750D01*
X66307597Y-50500574D01*
X66310747Y-50521809D01*
X66311800Y-50543250D01*
X66311800Y-50980750D01*
X66310747Y-51002191D01*
X66307597Y-51023426D01*
X66302381Y-51044250D01*
X66295149Y-51064462D01*
X66285970Y-51083868D01*
X66274934Y-51102281D01*
X66262146Y-51119524D01*
X66247730Y-51135430D01*
X66231824Y-51149846D01*
X66214581Y-51162634D01*
X66196168Y-51173670D01*
X66176762Y-51182849D01*
X66156550Y-51190081D01*
X66135726Y-51195297D01*
X66114491Y-51198447D01*
X66093050Y-51199500D01*
X65580550Y-51199500D01*
X65559109Y-51198447D01*
X65537874Y-51195297D01*
X65517050Y-51190081D01*
X65496838Y-51182849D01*
X65477432Y-51173670D01*
X65459019Y-51162634D01*
X65441776Y-51149846D01*
X65425870Y-51135430D01*
X65411454Y-51119524D01*
X65398666Y-51102281D01*
X65387630Y-51083868D01*
X65378451Y-51064462D01*
X65371219Y-51044250D01*
X65366003Y-51023426D01*
X65362853Y-51002191D01*
X65361800Y-50980750D01*
X65361800Y-50543250D01*
X65362853Y-50521809D01*
X65366003Y-50500574D01*
X65371219Y-50479750D01*
X65378451Y-50459538D01*
X65387630Y-50440132D01*
X65398666Y-50421719D01*
X65411454Y-50404476D01*
X65425870Y-50388570D01*
X65441776Y-50374154D01*
X65459019Y-50361366D01*
X65477432Y-50350330D01*
X65496838Y-50341151D01*
X65517050Y-50333919D01*
X65537874Y-50328703D01*
X65559109Y-50325553D01*
X65580550Y-50324500D01*
X66093050Y-50324500D01*
X66114491Y-50325553D01*
X66114491Y-50325553D01*
G37*
D15*
X65836800Y-50762000D03*
D11*
G36*
X66114491Y-48750553D02*
G01*
X66135726Y-48753703D01*
X66156550Y-48758919D01*
X66176762Y-48766151D01*
X66196168Y-48775330D01*
X66214581Y-48786366D01*
X66231824Y-48799154D01*
X66247730Y-48813570D01*
X66262146Y-48829476D01*
X66274934Y-48846719D01*
X66285970Y-48865132D01*
X66295149Y-48884538D01*
X66302381Y-48904750D01*
X66307597Y-48925574D01*
X66310747Y-48946809D01*
X66311800Y-48968250D01*
X66311800Y-49405750D01*
X66310747Y-49427191D01*
X66307597Y-49448426D01*
X66302381Y-49469250D01*
X66295149Y-49489462D01*
X66285970Y-49508868D01*
X66274934Y-49527281D01*
X66262146Y-49544524D01*
X66247730Y-49560430D01*
X66231824Y-49574846D01*
X66214581Y-49587634D01*
X66196168Y-49598670D01*
X66176762Y-49607849D01*
X66156550Y-49615081D01*
X66135726Y-49620297D01*
X66114491Y-49623447D01*
X66093050Y-49624500D01*
X65580550Y-49624500D01*
X65559109Y-49623447D01*
X65537874Y-49620297D01*
X65517050Y-49615081D01*
X65496838Y-49607849D01*
X65477432Y-49598670D01*
X65459019Y-49587634D01*
X65441776Y-49574846D01*
X65425870Y-49560430D01*
X65411454Y-49544524D01*
X65398666Y-49527281D01*
X65387630Y-49508868D01*
X65378451Y-49489462D01*
X65371219Y-49469250D01*
X65366003Y-49448426D01*
X65362853Y-49427191D01*
X65361800Y-49405750D01*
X65361800Y-48968250D01*
X65362853Y-48946809D01*
X65366003Y-48925574D01*
X65371219Y-48904750D01*
X65378451Y-48884538D01*
X65387630Y-48865132D01*
X65398666Y-48846719D01*
X65411454Y-48829476D01*
X65425870Y-48813570D01*
X65441776Y-48799154D01*
X65459019Y-48786366D01*
X65477432Y-48775330D01*
X65496838Y-48766151D01*
X65517050Y-48758919D01*
X65537874Y-48753703D01*
X65559109Y-48750553D01*
X65580550Y-48749500D01*
X66093050Y-48749500D01*
X66114491Y-48750553D01*
X66114491Y-48750553D01*
G37*
D15*
X65836800Y-49187000D03*
D11*
G36*
X76186291Y-51875453D02*
G01*
X76207526Y-51878603D01*
X76228350Y-51883819D01*
X76248562Y-51891051D01*
X76267968Y-51900230D01*
X76286381Y-51911266D01*
X76303624Y-51924054D01*
X76319530Y-51938470D01*
X76333946Y-51954376D01*
X76346734Y-51971619D01*
X76357770Y-51990032D01*
X76366949Y-52009438D01*
X76374181Y-52029650D01*
X76379397Y-52050474D01*
X76382547Y-52071709D01*
X76383600Y-52093150D01*
X76383600Y-52605650D01*
X76382547Y-52627091D01*
X76379397Y-52648326D01*
X76374181Y-52669150D01*
X76366949Y-52689362D01*
X76357770Y-52708768D01*
X76346734Y-52727181D01*
X76333946Y-52744424D01*
X76319530Y-52760330D01*
X76303624Y-52774746D01*
X76286381Y-52787534D01*
X76267968Y-52798570D01*
X76248562Y-52807749D01*
X76228350Y-52814981D01*
X76207526Y-52820197D01*
X76186291Y-52823347D01*
X76164850Y-52824400D01*
X75727350Y-52824400D01*
X75705909Y-52823347D01*
X75684674Y-52820197D01*
X75663850Y-52814981D01*
X75643638Y-52807749D01*
X75624232Y-52798570D01*
X75605819Y-52787534D01*
X75588576Y-52774746D01*
X75572670Y-52760330D01*
X75558254Y-52744424D01*
X75545466Y-52727181D01*
X75534430Y-52708768D01*
X75525251Y-52689362D01*
X75518019Y-52669150D01*
X75512803Y-52648326D01*
X75509653Y-52627091D01*
X75508600Y-52605650D01*
X75508600Y-52093150D01*
X75509653Y-52071709D01*
X75512803Y-52050474D01*
X75518019Y-52029650D01*
X75525251Y-52009438D01*
X75534430Y-51990032D01*
X75545466Y-51971619D01*
X75558254Y-51954376D01*
X75572670Y-51938470D01*
X75588576Y-51924054D01*
X75605819Y-51911266D01*
X75624232Y-51900230D01*
X75643638Y-51891051D01*
X75663850Y-51883819D01*
X75684674Y-51878603D01*
X75705909Y-51875453D01*
X75727350Y-51874400D01*
X76164850Y-51874400D01*
X76186291Y-51875453D01*
X76186291Y-51875453D01*
G37*
D15*
X75946100Y-52349400D03*
D11*
G36*
X74611291Y-51875453D02*
G01*
X74632526Y-51878603D01*
X74653350Y-51883819D01*
X74673562Y-51891051D01*
X74692968Y-51900230D01*
X74711381Y-51911266D01*
X74728624Y-51924054D01*
X74744530Y-51938470D01*
X74758946Y-51954376D01*
X74771734Y-51971619D01*
X74782770Y-51990032D01*
X74791949Y-52009438D01*
X74799181Y-52029650D01*
X74804397Y-52050474D01*
X74807547Y-52071709D01*
X74808600Y-52093150D01*
X74808600Y-52605650D01*
X74807547Y-52627091D01*
X74804397Y-52648326D01*
X74799181Y-52669150D01*
X74791949Y-52689362D01*
X74782770Y-52708768D01*
X74771734Y-52727181D01*
X74758946Y-52744424D01*
X74744530Y-52760330D01*
X74728624Y-52774746D01*
X74711381Y-52787534D01*
X74692968Y-52798570D01*
X74673562Y-52807749D01*
X74653350Y-52814981D01*
X74632526Y-52820197D01*
X74611291Y-52823347D01*
X74589850Y-52824400D01*
X74152350Y-52824400D01*
X74130909Y-52823347D01*
X74109674Y-52820197D01*
X74088850Y-52814981D01*
X74068638Y-52807749D01*
X74049232Y-52798570D01*
X74030819Y-52787534D01*
X74013576Y-52774746D01*
X73997670Y-52760330D01*
X73983254Y-52744424D01*
X73970466Y-52727181D01*
X73959430Y-52708768D01*
X73950251Y-52689362D01*
X73943019Y-52669150D01*
X73937803Y-52648326D01*
X73934653Y-52627091D01*
X73933600Y-52605650D01*
X73933600Y-52093150D01*
X73934653Y-52071709D01*
X73937803Y-52050474D01*
X73943019Y-52029650D01*
X73950251Y-52009438D01*
X73959430Y-51990032D01*
X73970466Y-51971619D01*
X73983254Y-51954376D01*
X73997670Y-51938470D01*
X74013576Y-51924054D01*
X74030819Y-51911266D01*
X74049232Y-51900230D01*
X74068638Y-51891051D01*
X74088850Y-51883819D01*
X74109674Y-51878603D01*
X74130909Y-51875453D01*
X74152350Y-51874400D01*
X74589850Y-51874400D01*
X74611291Y-51875453D01*
X74611291Y-51875453D01*
G37*
D15*
X74371100Y-52349400D03*
D11*
G36*
X80820205Y-65883504D02*
G01*
X80844473Y-65887104D01*
X80868272Y-65893065D01*
X80891371Y-65901330D01*
X80913550Y-65911820D01*
X80934593Y-65924432D01*
X80954299Y-65939047D01*
X80972477Y-65955523D01*
X80988953Y-65973701D01*
X81003568Y-65993407D01*
X81016180Y-66014450D01*
X81026670Y-66036629D01*
X81034935Y-66059728D01*
X81040896Y-66083527D01*
X81044496Y-66107795D01*
X81045700Y-66132299D01*
X81045700Y-67032301D01*
X81044496Y-67056805D01*
X81040896Y-67081073D01*
X81034935Y-67104872D01*
X81026670Y-67127971D01*
X81016180Y-67150150D01*
X81003568Y-67171193D01*
X80988953Y-67190899D01*
X80972477Y-67209077D01*
X80954299Y-67225553D01*
X80934593Y-67240168D01*
X80913550Y-67252780D01*
X80891371Y-67263270D01*
X80868272Y-67271535D01*
X80844473Y-67277496D01*
X80820205Y-67281096D01*
X80795701Y-67282300D01*
X79945699Y-67282300D01*
X79921195Y-67281096D01*
X79896927Y-67277496D01*
X79873128Y-67271535D01*
X79850029Y-67263270D01*
X79827850Y-67252780D01*
X79806807Y-67240168D01*
X79787101Y-67225553D01*
X79768923Y-67209077D01*
X79752447Y-67190899D01*
X79737832Y-67171193D01*
X79725220Y-67150150D01*
X79714730Y-67127971D01*
X79706465Y-67104872D01*
X79700504Y-67081073D01*
X79696904Y-67056805D01*
X79695700Y-67032301D01*
X79695700Y-66132299D01*
X79696904Y-66107795D01*
X79700504Y-66083527D01*
X79706465Y-66059728D01*
X79714730Y-66036629D01*
X79725220Y-66014450D01*
X79737832Y-65993407D01*
X79752447Y-65973701D01*
X79768923Y-65955523D01*
X79787101Y-65939047D01*
X79806807Y-65924432D01*
X79827850Y-65911820D01*
X79850029Y-65901330D01*
X79873128Y-65893065D01*
X79896927Y-65887104D01*
X79921195Y-65883504D01*
X79945699Y-65882300D01*
X80795701Y-65882300D01*
X80820205Y-65883504D01*
X80820205Y-65883504D01*
G37*
D16*
X80370700Y-66582300D03*
D11*
G36*
X80820205Y-68583504D02*
G01*
X80844473Y-68587104D01*
X80868272Y-68593065D01*
X80891371Y-68601330D01*
X80913550Y-68611820D01*
X80934593Y-68624432D01*
X80954299Y-68639047D01*
X80972477Y-68655523D01*
X80988953Y-68673701D01*
X81003568Y-68693407D01*
X81016180Y-68714450D01*
X81026670Y-68736629D01*
X81034935Y-68759728D01*
X81040896Y-68783527D01*
X81044496Y-68807795D01*
X81045700Y-68832299D01*
X81045700Y-69732301D01*
X81044496Y-69756805D01*
X81040896Y-69781073D01*
X81034935Y-69804872D01*
X81026670Y-69827971D01*
X81016180Y-69850150D01*
X81003568Y-69871193D01*
X80988953Y-69890899D01*
X80972477Y-69909077D01*
X80954299Y-69925553D01*
X80934593Y-69940168D01*
X80913550Y-69952780D01*
X80891371Y-69963270D01*
X80868272Y-69971535D01*
X80844473Y-69977496D01*
X80820205Y-69981096D01*
X80795701Y-69982300D01*
X79945699Y-69982300D01*
X79921195Y-69981096D01*
X79896927Y-69977496D01*
X79873128Y-69971535D01*
X79850029Y-69963270D01*
X79827850Y-69952780D01*
X79806807Y-69940168D01*
X79787101Y-69925553D01*
X79768923Y-69909077D01*
X79752447Y-69890899D01*
X79737832Y-69871193D01*
X79725220Y-69850150D01*
X79714730Y-69827971D01*
X79706465Y-69804872D01*
X79700504Y-69781073D01*
X79696904Y-69756805D01*
X79695700Y-69732301D01*
X79695700Y-68832299D01*
X79696904Y-68807795D01*
X79700504Y-68783527D01*
X79706465Y-68759728D01*
X79714730Y-68736629D01*
X79725220Y-68714450D01*
X79737832Y-68693407D01*
X79752447Y-68673701D01*
X79768923Y-68655523D01*
X79787101Y-68639047D01*
X79806807Y-68624432D01*
X79827850Y-68611820D01*
X79850029Y-68601330D01*
X79873128Y-68593065D01*
X79896927Y-68587104D01*
X79921195Y-68583504D01*
X79945699Y-68582300D01*
X80795701Y-68582300D01*
X80820205Y-68583504D01*
X80820205Y-68583504D01*
G37*
D16*
X80370700Y-69282300D03*
D11*
G36*
X80830405Y-70941904D02*
G01*
X80854673Y-70945504D01*
X80878472Y-70951465D01*
X80901571Y-70959730D01*
X80923750Y-70970220D01*
X80944793Y-70982832D01*
X80964499Y-70997447D01*
X80982677Y-71013923D01*
X80999153Y-71032101D01*
X81013768Y-71051807D01*
X81026380Y-71072850D01*
X81036870Y-71095029D01*
X81045135Y-71118128D01*
X81051096Y-71141927D01*
X81054696Y-71166195D01*
X81055900Y-71190699D01*
X81055900Y-72090701D01*
X81054696Y-72115205D01*
X81051096Y-72139473D01*
X81045135Y-72163272D01*
X81036870Y-72186371D01*
X81026380Y-72208550D01*
X81013768Y-72229593D01*
X80999153Y-72249299D01*
X80982677Y-72267477D01*
X80964499Y-72283953D01*
X80944793Y-72298568D01*
X80923750Y-72311180D01*
X80901571Y-72321670D01*
X80878472Y-72329935D01*
X80854673Y-72335896D01*
X80830405Y-72339496D01*
X80805901Y-72340700D01*
X79955899Y-72340700D01*
X79931395Y-72339496D01*
X79907127Y-72335896D01*
X79883328Y-72329935D01*
X79860229Y-72321670D01*
X79838050Y-72311180D01*
X79817007Y-72298568D01*
X79797301Y-72283953D01*
X79779123Y-72267477D01*
X79762647Y-72249299D01*
X79748032Y-72229593D01*
X79735420Y-72208550D01*
X79724930Y-72186371D01*
X79716665Y-72163272D01*
X79710704Y-72139473D01*
X79707104Y-72115205D01*
X79705900Y-72090701D01*
X79705900Y-71190699D01*
X79707104Y-71166195D01*
X79710704Y-71141927D01*
X79716665Y-71118128D01*
X79724930Y-71095029D01*
X79735420Y-71072850D01*
X79748032Y-71051807D01*
X79762647Y-71032101D01*
X79779123Y-71013923D01*
X79797301Y-70997447D01*
X79817007Y-70982832D01*
X79838050Y-70970220D01*
X79860229Y-70959730D01*
X79883328Y-70951465D01*
X79907127Y-70945504D01*
X79931395Y-70941904D01*
X79955899Y-70940700D01*
X80805901Y-70940700D01*
X80830405Y-70941904D01*
X80830405Y-70941904D01*
G37*
D16*
X80380900Y-71640700D03*
D11*
G36*
X80830405Y-73641904D02*
G01*
X80854673Y-73645504D01*
X80878472Y-73651465D01*
X80901571Y-73659730D01*
X80923750Y-73670220D01*
X80944793Y-73682832D01*
X80964499Y-73697447D01*
X80982677Y-73713923D01*
X80999153Y-73732101D01*
X81013768Y-73751807D01*
X81026380Y-73772850D01*
X81036870Y-73795029D01*
X81045135Y-73818128D01*
X81051096Y-73841927D01*
X81054696Y-73866195D01*
X81055900Y-73890699D01*
X81055900Y-74790701D01*
X81054696Y-74815205D01*
X81051096Y-74839473D01*
X81045135Y-74863272D01*
X81036870Y-74886371D01*
X81026380Y-74908550D01*
X81013768Y-74929593D01*
X80999153Y-74949299D01*
X80982677Y-74967477D01*
X80964499Y-74983953D01*
X80944793Y-74998568D01*
X80923750Y-75011180D01*
X80901571Y-75021670D01*
X80878472Y-75029935D01*
X80854673Y-75035896D01*
X80830405Y-75039496D01*
X80805901Y-75040700D01*
X79955899Y-75040700D01*
X79931395Y-75039496D01*
X79907127Y-75035896D01*
X79883328Y-75029935D01*
X79860229Y-75021670D01*
X79838050Y-75011180D01*
X79817007Y-74998568D01*
X79797301Y-74983953D01*
X79779123Y-74967477D01*
X79762647Y-74949299D01*
X79748032Y-74929593D01*
X79735420Y-74908550D01*
X79724930Y-74886371D01*
X79716665Y-74863272D01*
X79710704Y-74839473D01*
X79707104Y-74815205D01*
X79705900Y-74790701D01*
X79705900Y-73890699D01*
X79707104Y-73866195D01*
X79710704Y-73841927D01*
X79716665Y-73818128D01*
X79724930Y-73795029D01*
X79735420Y-73772850D01*
X79748032Y-73751807D01*
X79762647Y-73732101D01*
X79779123Y-73713923D01*
X79797301Y-73697447D01*
X79817007Y-73682832D01*
X79838050Y-73670220D01*
X79860229Y-73659730D01*
X79883328Y-73651465D01*
X79907127Y-73645504D01*
X79931395Y-73641904D01*
X79955899Y-73640700D01*
X80805901Y-73640700D01*
X80830405Y-73641904D01*
X80830405Y-73641904D01*
G37*
D16*
X80380900Y-74340700D03*
D11*
G36*
X80904005Y-63635604D02*
G01*
X80928273Y-63639204D01*
X80952072Y-63645165D01*
X80975171Y-63653430D01*
X80997350Y-63663920D01*
X81018393Y-63676532D01*
X81038099Y-63691147D01*
X81056277Y-63707623D01*
X81072753Y-63725801D01*
X81087368Y-63745507D01*
X81099980Y-63766550D01*
X81110470Y-63788729D01*
X81118735Y-63811828D01*
X81124696Y-63835627D01*
X81128296Y-63859895D01*
X81129500Y-63884399D01*
X81129500Y-64784401D01*
X81128296Y-64808905D01*
X81124696Y-64833173D01*
X81118735Y-64856972D01*
X81110470Y-64880071D01*
X81099980Y-64902250D01*
X81087368Y-64923293D01*
X81072753Y-64942999D01*
X81056277Y-64961177D01*
X81038099Y-64977653D01*
X81018393Y-64992268D01*
X80997350Y-65004880D01*
X80975171Y-65015370D01*
X80952072Y-65023635D01*
X80928273Y-65029596D01*
X80904005Y-65033196D01*
X80879501Y-65034400D01*
X80029499Y-65034400D01*
X80004995Y-65033196D01*
X79980727Y-65029596D01*
X79956928Y-65023635D01*
X79933829Y-65015370D01*
X79911650Y-65004880D01*
X79890607Y-64992268D01*
X79870901Y-64977653D01*
X79852723Y-64961177D01*
X79836247Y-64942999D01*
X79821632Y-64923293D01*
X79809020Y-64902250D01*
X79798530Y-64880071D01*
X79790265Y-64856972D01*
X79784304Y-64833173D01*
X79780704Y-64808905D01*
X79779500Y-64784401D01*
X79779500Y-63884399D01*
X79780704Y-63859895D01*
X79784304Y-63835627D01*
X79790265Y-63811828D01*
X79798530Y-63788729D01*
X79809020Y-63766550D01*
X79821632Y-63745507D01*
X79836247Y-63725801D01*
X79852723Y-63707623D01*
X79870901Y-63691147D01*
X79890607Y-63676532D01*
X79911650Y-63663920D01*
X79933829Y-63653430D01*
X79956928Y-63645165D01*
X79980727Y-63639204D01*
X80004995Y-63635604D01*
X80029499Y-63634400D01*
X80879501Y-63634400D01*
X80904005Y-63635604D01*
X80904005Y-63635604D01*
G37*
D16*
X80454500Y-64334400D03*
D11*
G36*
X80904005Y-60935604D02*
G01*
X80928273Y-60939204D01*
X80952072Y-60945165D01*
X80975171Y-60953430D01*
X80997350Y-60963920D01*
X81018393Y-60976532D01*
X81038099Y-60991147D01*
X81056277Y-61007623D01*
X81072753Y-61025801D01*
X81087368Y-61045507D01*
X81099980Y-61066550D01*
X81110470Y-61088729D01*
X81118735Y-61111828D01*
X81124696Y-61135627D01*
X81128296Y-61159895D01*
X81129500Y-61184399D01*
X81129500Y-62084401D01*
X81128296Y-62108905D01*
X81124696Y-62133173D01*
X81118735Y-62156972D01*
X81110470Y-62180071D01*
X81099980Y-62202250D01*
X81087368Y-62223293D01*
X81072753Y-62242999D01*
X81056277Y-62261177D01*
X81038099Y-62277653D01*
X81018393Y-62292268D01*
X80997350Y-62304880D01*
X80975171Y-62315370D01*
X80952072Y-62323635D01*
X80928273Y-62329596D01*
X80904005Y-62333196D01*
X80879501Y-62334400D01*
X80029499Y-62334400D01*
X80004995Y-62333196D01*
X79980727Y-62329596D01*
X79956928Y-62323635D01*
X79933829Y-62315370D01*
X79911650Y-62304880D01*
X79890607Y-62292268D01*
X79870901Y-62277653D01*
X79852723Y-62261177D01*
X79836247Y-62242999D01*
X79821632Y-62223293D01*
X79809020Y-62202250D01*
X79798530Y-62180071D01*
X79790265Y-62156972D01*
X79784304Y-62133173D01*
X79780704Y-62108905D01*
X79779500Y-62084401D01*
X79779500Y-61184399D01*
X79780704Y-61159895D01*
X79784304Y-61135627D01*
X79790265Y-61111828D01*
X79798530Y-61088729D01*
X79809020Y-61066550D01*
X79821632Y-61045507D01*
X79836247Y-61025801D01*
X79852723Y-61007623D01*
X79870901Y-60991147D01*
X79890607Y-60976532D01*
X79911650Y-60963920D01*
X79933829Y-60953430D01*
X79956928Y-60945165D01*
X79980727Y-60939204D01*
X80004995Y-60935604D01*
X80029499Y-60934400D01*
X80879501Y-60934400D01*
X80904005Y-60935604D01*
X80904005Y-60935604D01*
G37*
D16*
X80454500Y-61634400D03*
D11*
G36*
X80904005Y-58601304D02*
G01*
X80928273Y-58604904D01*
X80952072Y-58610865D01*
X80975171Y-58619130D01*
X80997350Y-58629620D01*
X81018393Y-58642232D01*
X81038099Y-58656847D01*
X81056277Y-58673323D01*
X81072753Y-58691501D01*
X81087368Y-58711207D01*
X81099980Y-58732250D01*
X81110470Y-58754429D01*
X81118735Y-58777528D01*
X81124696Y-58801327D01*
X81128296Y-58825595D01*
X81129500Y-58850099D01*
X81129500Y-59750101D01*
X81128296Y-59774605D01*
X81124696Y-59798873D01*
X81118735Y-59822672D01*
X81110470Y-59845771D01*
X81099980Y-59867950D01*
X81087368Y-59888993D01*
X81072753Y-59908699D01*
X81056277Y-59926877D01*
X81038099Y-59943353D01*
X81018393Y-59957968D01*
X80997350Y-59970580D01*
X80975171Y-59981070D01*
X80952072Y-59989335D01*
X80928273Y-59995296D01*
X80904005Y-59998896D01*
X80879501Y-60000100D01*
X80029499Y-60000100D01*
X80004995Y-59998896D01*
X79980727Y-59995296D01*
X79956928Y-59989335D01*
X79933829Y-59981070D01*
X79911650Y-59970580D01*
X79890607Y-59957968D01*
X79870901Y-59943353D01*
X79852723Y-59926877D01*
X79836247Y-59908699D01*
X79821632Y-59888993D01*
X79809020Y-59867950D01*
X79798530Y-59845771D01*
X79790265Y-59822672D01*
X79784304Y-59798873D01*
X79780704Y-59774605D01*
X79779500Y-59750101D01*
X79779500Y-58850099D01*
X79780704Y-58825595D01*
X79784304Y-58801327D01*
X79790265Y-58777528D01*
X79798530Y-58754429D01*
X79809020Y-58732250D01*
X79821632Y-58711207D01*
X79836247Y-58691501D01*
X79852723Y-58673323D01*
X79870901Y-58656847D01*
X79890607Y-58642232D01*
X79911650Y-58629620D01*
X79933829Y-58619130D01*
X79956928Y-58610865D01*
X79980727Y-58604904D01*
X80004995Y-58601304D01*
X80029499Y-58600100D01*
X80879501Y-58600100D01*
X80904005Y-58601304D01*
X80904005Y-58601304D01*
G37*
D16*
X80454500Y-59300100D03*
D11*
G36*
X80904005Y-55901304D02*
G01*
X80928273Y-55904904D01*
X80952072Y-55910865D01*
X80975171Y-55919130D01*
X80997350Y-55929620D01*
X81018393Y-55942232D01*
X81038099Y-55956847D01*
X81056277Y-55973323D01*
X81072753Y-55991501D01*
X81087368Y-56011207D01*
X81099980Y-56032250D01*
X81110470Y-56054429D01*
X81118735Y-56077528D01*
X81124696Y-56101327D01*
X81128296Y-56125595D01*
X81129500Y-56150099D01*
X81129500Y-57050101D01*
X81128296Y-57074605D01*
X81124696Y-57098873D01*
X81118735Y-57122672D01*
X81110470Y-57145771D01*
X81099980Y-57167950D01*
X81087368Y-57188993D01*
X81072753Y-57208699D01*
X81056277Y-57226877D01*
X81038099Y-57243353D01*
X81018393Y-57257968D01*
X80997350Y-57270580D01*
X80975171Y-57281070D01*
X80952072Y-57289335D01*
X80928273Y-57295296D01*
X80904005Y-57298896D01*
X80879501Y-57300100D01*
X80029499Y-57300100D01*
X80004995Y-57298896D01*
X79980727Y-57295296D01*
X79956928Y-57289335D01*
X79933829Y-57281070D01*
X79911650Y-57270580D01*
X79890607Y-57257968D01*
X79870901Y-57243353D01*
X79852723Y-57226877D01*
X79836247Y-57208699D01*
X79821632Y-57188993D01*
X79809020Y-57167950D01*
X79798530Y-57145771D01*
X79790265Y-57122672D01*
X79784304Y-57098873D01*
X79780704Y-57074605D01*
X79779500Y-57050101D01*
X79779500Y-56150099D01*
X79780704Y-56125595D01*
X79784304Y-56101327D01*
X79790265Y-56077528D01*
X79798530Y-56054429D01*
X79809020Y-56032250D01*
X79821632Y-56011207D01*
X79836247Y-55991501D01*
X79852723Y-55973323D01*
X79870901Y-55956847D01*
X79890607Y-55942232D01*
X79911650Y-55929620D01*
X79933829Y-55919130D01*
X79956928Y-55910865D01*
X79980727Y-55904904D01*
X80004995Y-55901304D01*
X80029499Y-55900100D01*
X80879501Y-55900100D01*
X80904005Y-55901304D01*
X80904005Y-55901304D01*
G37*
D16*
X80454500Y-56600100D03*
D11*
G36*
X43920577Y-73454462D02*
G01*
X43933925Y-73456442D01*
X43947014Y-73459721D01*
X43959719Y-73464267D01*
X43971917Y-73470036D01*
X43983491Y-73476973D01*
X43994329Y-73485011D01*
X44004327Y-73494073D01*
X44013389Y-73504071D01*
X44021427Y-73514909D01*
X44028364Y-73526483D01*
X44034133Y-73538681D01*
X44038679Y-73551386D01*
X44041958Y-73564475D01*
X44043938Y-73577823D01*
X44044600Y-73591300D01*
X44044600Y-73866300D01*
X44043938Y-73879777D01*
X44041958Y-73893125D01*
X44038679Y-73906214D01*
X44034133Y-73918919D01*
X44028364Y-73931117D01*
X44021427Y-73942691D01*
X44013389Y-73953529D01*
X44004327Y-73963527D01*
X43994329Y-73972589D01*
X43983491Y-73980627D01*
X43971917Y-73987564D01*
X43959719Y-73993333D01*
X43947014Y-73997879D01*
X43933925Y-74001158D01*
X43920577Y-74003138D01*
X43907100Y-74003800D01*
X42657100Y-74003800D01*
X42643623Y-74003138D01*
X42630275Y-74001158D01*
X42617186Y-73997879D01*
X42604481Y-73993333D01*
X42592283Y-73987564D01*
X42580709Y-73980627D01*
X42569871Y-73972589D01*
X42559873Y-73963527D01*
X42550811Y-73953529D01*
X42542773Y-73942691D01*
X42535836Y-73931117D01*
X42530067Y-73918919D01*
X42525521Y-73906214D01*
X42522242Y-73893125D01*
X42520262Y-73879777D01*
X42519600Y-73866300D01*
X42519600Y-73591300D01*
X42520262Y-73577823D01*
X42522242Y-73564475D01*
X42525521Y-73551386D01*
X42530067Y-73538681D01*
X42535836Y-73526483D01*
X42542773Y-73514909D01*
X42550811Y-73504071D01*
X42559873Y-73494073D01*
X42569871Y-73485011D01*
X42580709Y-73476973D01*
X42592283Y-73470036D01*
X42604481Y-73464267D01*
X42617186Y-73459721D01*
X42630275Y-73456442D01*
X42643623Y-73454462D01*
X42657100Y-73453800D01*
X43907100Y-73453800D01*
X43920577Y-73454462D01*
X43920577Y-73454462D01*
G37*
D17*
X43282100Y-73728800D03*
D11*
G36*
X43920577Y-72654462D02*
G01*
X43933925Y-72656442D01*
X43947014Y-72659721D01*
X43959719Y-72664267D01*
X43971917Y-72670036D01*
X43983491Y-72676973D01*
X43994329Y-72685011D01*
X44004327Y-72694073D01*
X44013389Y-72704071D01*
X44021427Y-72714909D01*
X44028364Y-72726483D01*
X44034133Y-72738681D01*
X44038679Y-72751386D01*
X44041958Y-72764475D01*
X44043938Y-72777823D01*
X44044600Y-72791300D01*
X44044600Y-73066300D01*
X44043938Y-73079777D01*
X44041958Y-73093125D01*
X44038679Y-73106214D01*
X44034133Y-73118919D01*
X44028364Y-73131117D01*
X44021427Y-73142691D01*
X44013389Y-73153529D01*
X44004327Y-73163527D01*
X43994329Y-73172589D01*
X43983491Y-73180627D01*
X43971917Y-73187564D01*
X43959719Y-73193333D01*
X43947014Y-73197879D01*
X43933925Y-73201158D01*
X43920577Y-73203138D01*
X43907100Y-73203800D01*
X42657100Y-73203800D01*
X42643623Y-73203138D01*
X42630275Y-73201158D01*
X42617186Y-73197879D01*
X42604481Y-73193333D01*
X42592283Y-73187564D01*
X42580709Y-73180627D01*
X42569871Y-73172589D01*
X42559873Y-73163527D01*
X42550811Y-73153529D01*
X42542773Y-73142691D01*
X42535836Y-73131117D01*
X42530067Y-73118919D01*
X42525521Y-73106214D01*
X42522242Y-73093125D01*
X42520262Y-73079777D01*
X42519600Y-73066300D01*
X42519600Y-72791300D01*
X42520262Y-72777823D01*
X42522242Y-72764475D01*
X42525521Y-72751386D01*
X42530067Y-72738681D01*
X42535836Y-72726483D01*
X42542773Y-72714909D01*
X42550811Y-72704071D01*
X42559873Y-72694073D01*
X42569871Y-72685011D01*
X42580709Y-72676973D01*
X42592283Y-72670036D01*
X42604481Y-72664267D01*
X42617186Y-72659721D01*
X42630275Y-72656442D01*
X42643623Y-72654462D01*
X42657100Y-72653800D01*
X43907100Y-72653800D01*
X43920577Y-72654462D01*
X43920577Y-72654462D01*
G37*
D17*
X43282100Y-72928800D03*
D11*
G36*
X43920577Y-71854462D02*
G01*
X43933925Y-71856442D01*
X43947014Y-71859721D01*
X43959719Y-71864267D01*
X43971917Y-71870036D01*
X43983491Y-71876973D01*
X43994329Y-71885011D01*
X44004327Y-71894073D01*
X44013389Y-71904071D01*
X44021427Y-71914909D01*
X44028364Y-71926483D01*
X44034133Y-71938681D01*
X44038679Y-71951386D01*
X44041958Y-71964475D01*
X44043938Y-71977823D01*
X44044600Y-71991300D01*
X44044600Y-72266300D01*
X44043938Y-72279777D01*
X44041958Y-72293125D01*
X44038679Y-72306214D01*
X44034133Y-72318919D01*
X44028364Y-72331117D01*
X44021427Y-72342691D01*
X44013389Y-72353529D01*
X44004327Y-72363527D01*
X43994329Y-72372589D01*
X43983491Y-72380627D01*
X43971917Y-72387564D01*
X43959719Y-72393333D01*
X43947014Y-72397879D01*
X43933925Y-72401158D01*
X43920577Y-72403138D01*
X43907100Y-72403800D01*
X42657100Y-72403800D01*
X42643623Y-72403138D01*
X42630275Y-72401158D01*
X42617186Y-72397879D01*
X42604481Y-72393333D01*
X42592283Y-72387564D01*
X42580709Y-72380627D01*
X42569871Y-72372589D01*
X42559873Y-72363527D01*
X42550811Y-72353529D01*
X42542773Y-72342691D01*
X42535836Y-72331117D01*
X42530067Y-72318919D01*
X42525521Y-72306214D01*
X42522242Y-72293125D01*
X42520262Y-72279777D01*
X42519600Y-72266300D01*
X42519600Y-71991300D01*
X42520262Y-71977823D01*
X42522242Y-71964475D01*
X42525521Y-71951386D01*
X42530067Y-71938681D01*
X42535836Y-71926483D01*
X42542773Y-71914909D01*
X42550811Y-71904071D01*
X42559873Y-71894073D01*
X42569871Y-71885011D01*
X42580709Y-71876973D01*
X42592283Y-71870036D01*
X42604481Y-71864267D01*
X42617186Y-71859721D01*
X42630275Y-71856442D01*
X42643623Y-71854462D01*
X42657100Y-71853800D01*
X43907100Y-71853800D01*
X43920577Y-71854462D01*
X43920577Y-71854462D01*
G37*
D17*
X43282100Y-72128800D03*
D11*
G36*
X43920577Y-71054462D02*
G01*
X43933925Y-71056442D01*
X43947014Y-71059721D01*
X43959719Y-71064267D01*
X43971917Y-71070036D01*
X43983491Y-71076973D01*
X43994329Y-71085011D01*
X44004327Y-71094073D01*
X44013389Y-71104071D01*
X44021427Y-71114909D01*
X44028364Y-71126483D01*
X44034133Y-71138681D01*
X44038679Y-71151386D01*
X44041958Y-71164475D01*
X44043938Y-71177823D01*
X44044600Y-71191300D01*
X44044600Y-71466300D01*
X44043938Y-71479777D01*
X44041958Y-71493125D01*
X44038679Y-71506214D01*
X44034133Y-71518919D01*
X44028364Y-71531117D01*
X44021427Y-71542691D01*
X44013389Y-71553529D01*
X44004327Y-71563527D01*
X43994329Y-71572589D01*
X43983491Y-71580627D01*
X43971917Y-71587564D01*
X43959719Y-71593333D01*
X43947014Y-71597879D01*
X43933925Y-71601158D01*
X43920577Y-71603138D01*
X43907100Y-71603800D01*
X42657100Y-71603800D01*
X42643623Y-71603138D01*
X42630275Y-71601158D01*
X42617186Y-71597879D01*
X42604481Y-71593333D01*
X42592283Y-71587564D01*
X42580709Y-71580627D01*
X42569871Y-71572589D01*
X42559873Y-71563527D01*
X42550811Y-71553529D01*
X42542773Y-71542691D01*
X42535836Y-71531117D01*
X42530067Y-71518919D01*
X42525521Y-71506214D01*
X42522242Y-71493125D01*
X42520262Y-71479777D01*
X42519600Y-71466300D01*
X42519600Y-71191300D01*
X42520262Y-71177823D01*
X42522242Y-71164475D01*
X42525521Y-71151386D01*
X42530067Y-71138681D01*
X42535836Y-71126483D01*
X42542773Y-71114909D01*
X42550811Y-71104071D01*
X42559873Y-71094073D01*
X42569871Y-71085011D01*
X42580709Y-71076973D01*
X42592283Y-71070036D01*
X42604481Y-71064267D01*
X42617186Y-71059721D01*
X42630275Y-71056442D01*
X42643623Y-71054462D01*
X42657100Y-71053800D01*
X43907100Y-71053800D01*
X43920577Y-71054462D01*
X43920577Y-71054462D01*
G37*
D17*
X43282100Y-71328800D03*
D11*
G36*
X43920577Y-70254462D02*
G01*
X43933925Y-70256442D01*
X43947014Y-70259721D01*
X43959719Y-70264267D01*
X43971917Y-70270036D01*
X43983491Y-70276973D01*
X43994329Y-70285011D01*
X44004327Y-70294073D01*
X44013389Y-70304071D01*
X44021427Y-70314909D01*
X44028364Y-70326483D01*
X44034133Y-70338681D01*
X44038679Y-70351386D01*
X44041958Y-70364475D01*
X44043938Y-70377823D01*
X44044600Y-70391300D01*
X44044600Y-70666300D01*
X44043938Y-70679777D01*
X44041958Y-70693125D01*
X44038679Y-70706214D01*
X44034133Y-70718919D01*
X44028364Y-70731117D01*
X44021427Y-70742691D01*
X44013389Y-70753529D01*
X44004327Y-70763527D01*
X43994329Y-70772589D01*
X43983491Y-70780627D01*
X43971917Y-70787564D01*
X43959719Y-70793333D01*
X43947014Y-70797879D01*
X43933925Y-70801158D01*
X43920577Y-70803138D01*
X43907100Y-70803800D01*
X42657100Y-70803800D01*
X42643623Y-70803138D01*
X42630275Y-70801158D01*
X42617186Y-70797879D01*
X42604481Y-70793333D01*
X42592283Y-70787564D01*
X42580709Y-70780627D01*
X42569871Y-70772589D01*
X42559873Y-70763527D01*
X42550811Y-70753529D01*
X42542773Y-70742691D01*
X42535836Y-70731117D01*
X42530067Y-70718919D01*
X42525521Y-70706214D01*
X42522242Y-70693125D01*
X42520262Y-70679777D01*
X42519600Y-70666300D01*
X42519600Y-70391300D01*
X42520262Y-70377823D01*
X42522242Y-70364475D01*
X42525521Y-70351386D01*
X42530067Y-70338681D01*
X42535836Y-70326483D01*
X42542773Y-70314909D01*
X42550811Y-70304071D01*
X42559873Y-70294073D01*
X42569871Y-70285011D01*
X42580709Y-70276973D01*
X42592283Y-70270036D01*
X42604481Y-70264267D01*
X42617186Y-70259721D01*
X42630275Y-70256442D01*
X42643623Y-70254462D01*
X42657100Y-70253800D01*
X43907100Y-70253800D01*
X43920577Y-70254462D01*
X43920577Y-70254462D01*
G37*
D17*
X43282100Y-70528800D03*
D11*
G36*
X43920577Y-69454462D02*
G01*
X43933925Y-69456442D01*
X43947014Y-69459721D01*
X43959719Y-69464267D01*
X43971917Y-69470036D01*
X43983491Y-69476973D01*
X43994329Y-69485011D01*
X44004327Y-69494073D01*
X44013389Y-69504071D01*
X44021427Y-69514909D01*
X44028364Y-69526483D01*
X44034133Y-69538681D01*
X44038679Y-69551386D01*
X44041958Y-69564475D01*
X44043938Y-69577823D01*
X44044600Y-69591300D01*
X44044600Y-69866300D01*
X44043938Y-69879777D01*
X44041958Y-69893125D01*
X44038679Y-69906214D01*
X44034133Y-69918919D01*
X44028364Y-69931117D01*
X44021427Y-69942691D01*
X44013389Y-69953529D01*
X44004327Y-69963527D01*
X43994329Y-69972589D01*
X43983491Y-69980627D01*
X43971917Y-69987564D01*
X43959719Y-69993333D01*
X43947014Y-69997879D01*
X43933925Y-70001158D01*
X43920577Y-70003138D01*
X43907100Y-70003800D01*
X42657100Y-70003800D01*
X42643623Y-70003138D01*
X42630275Y-70001158D01*
X42617186Y-69997879D01*
X42604481Y-69993333D01*
X42592283Y-69987564D01*
X42580709Y-69980627D01*
X42569871Y-69972589D01*
X42559873Y-69963527D01*
X42550811Y-69953529D01*
X42542773Y-69942691D01*
X42535836Y-69931117D01*
X42530067Y-69918919D01*
X42525521Y-69906214D01*
X42522242Y-69893125D01*
X42520262Y-69879777D01*
X42519600Y-69866300D01*
X42519600Y-69591300D01*
X42520262Y-69577823D01*
X42522242Y-69564475D01*
X42525521Y-69551386D01*
X42530067Y-69538681D01*
X42535836Y-69526483D01*
X42542773Y-69514909D01*
X42550811Y-69504071D01*
X42559873Y-69494073D01*
X42569871Y-69485011D01*
X42580709Y-69476973D01*
X42592283Y-69470036D01*
X42604481Y-69464267D01*
X42617186Y-69459721D01*
X42630275Y-69456442D01*
X42643623Y-69454462D01*
X42657100Y-69453800D01*
X43907100Y-69453800D01*
X43920577Y-69454462D01*
X43920577Y-69454462D01*
G37*
D17*
X43282100Y-69728800D03*
D11*
G36*
X43920577Y-68654462D02*
G01*
X43933925Y-68656442D01*
X43947014Y-68659721D01*
X43959719Y-68664267D01*
X43971917Y-68670036D01*
X43983491Y-68676973D01*
X43994329Y-68685011D01*
X44004327Y-68694073D01*
X44013389Y-68704071D01*
X44021427Y-68714909D01*
X44028364Y-68726483D01*
X44034133Y-68738681D01*
X44038679Y-68751386D01*
X44041958Y-68764475D01*
X44043938Y-68777823D01*
X44044600Y-68791300D01*
X44044600Y-69066300D01*
X44043938Y-69079777D01*
X44041958Y-69093125D01*
X44038679Y-69106214D01*
X44034133Y-69118919D01*
X44028364Y-69131117D01*
X44021427Y-69142691D01*
X44013389Y-69153529D01*
X44004327Y-69163527D01*
X43994329Y-69172589D01*
X43983491Y-69180627D01*
X43971917Y-69187564D01*
X43959719Y-69193333D01*
X43947014Y-69197879D01*
X43933925Y-69201158D01*
X43920577Y-69203138D01*
X43907100Y-69203800D01*
X42657100Y-69203800D01*
X42643623Y-69203138D01*
X42630275Y-69201158D01*
X42617186Y-69197879D01*
X42604481Y-69193333D01*
X42592283Y-69187564D01*
X42580709Y-69180627D01*
X42569871Y-69172589D01*
X42559873Y-69163527D01*
X42550811Y-69153529D01*
X42542773Y-69142691D01*
X42535836Y-69131117D01*
X42530067Y-69118919D01*
X42525521Y-69106214D01*
X42522242Y-69093125D01*
X42520262Y-69079777D01*
X42519600Y-69066300D01*
X42519600Y-68791300D01*
X42520262Y-68777823D01*
X42522242Y-68764475D01*
X42525521Y-68751386D01*
X42530067Y-68738681D01*
X42535836Y-68726483D01*
X42542773Y-68714909D01*
X42550811Y-68704071D01*
X42559873Y-68694073D01*
X42569871Y-68685011D01*
X42580709Y-68676973D01*
X42592283Y-68670036D01*
X42604481Y-68664267D01*
X42617186Y-68659721D01*
X42630275Y-68656442D01*
X42643623Y-68654462D01*
X42657100Y-68653800D01*
X43907100Y-68653800D01*
X43920577Y-68654462D01*
X43920577Y-68654462D01*
G37*
D17*
X43282100Y-68928800D03*
D11*
G36*
X43920577Y-67854462D02*
G01*
X43933925Y-67856442D01*
X43947014Y-67859721D01*
X43959719Y-67864267D01*
X43971917Y-67870036D01*
X43983491Y-67876973D01*
X43994329Y-67885011D01*
X44004327Y-67894073D01*
X44013389Y-67904071D01*
X44021427Y-67914909D01*
X44028364Y-67926483D01*
X44034133Y-67938681D01*
X44038679Y-67951386D01*
X44041958Y-67964475D01*
X44043938Y-67977823D01*
X44044600Y-67991300D01*
X44044600Y-68266300D01*
X44043938Y-68279777D01*
X44041958Y-68293125D01*
X44038679Y-68306214D01*
X44034133Y-68318919D01*
X44028364Y-68331117D01*
X44021427Y-68342691D01*
X44013389Y-68353529D01*
X44004327Y-68363527D01*
X43994329Y-68372589D01*
X43983491Y-68380627D01*
X43971917Y-68387564D01*
X43959719Y-68393333D01*
X43947014Y-68397879D01*
X43933925Y-68401158D01*
X43920577Y-68403138D01*
X43907100Y-68403800D01*
X42657100Y-68403800D01*
X42643623Y-68403138D01*
X42630275Y-68401158D01*
X42617186Y-68397879D01*
X42604481Y-68393333D01*
X42592283Y-68387564D01*
X42580709Y-68380627D01*
X42569871Y-68372589D01*
X42559873Y-68363527D01*
X42550811Y-68353529D01*
X42542773Y-68342691D01*
X42535836Y-68331117D01*
X42530067Y-68318919D01*
X42525521Y-68306214D01*
X42522242Y-68293125D01*
X42520262Y-68279777D01*
X42519600Y-68266300D01*
X42519600Y-67991300D01*
X42520262Y-67977823D01*
X42522242Y-67964475D01*
X42525521Y-67951386D01*
X42530067Y-67938681D01*
X42535836Y-67926483D01*
X42542773Y-67914909D01*
X42550811Y-67904071D01*
X42559873Y-67894073D01*
X42569871Y-67885011D01*
X42580709Y-67876973D01*
X42592283Y-67870036D01*
X42604481Y-67864267D01*
X42617186Y-67859721D01*
X42630275Y-67856442D01*
X42643623Y-67854462D01*
X42657100Y-67853800D01*
X43907100Y-67853800D01*
X43920577Y-67854462D01*
X43920577Y-67854462D01*
G37*
D17*
X43282100Y-68128800D03*
D11*
G36*
X43920577Y-67054462D02*
G01*
X43933925Y-67056442D01*
X43947014Y-67059721D01*
X43959719Y-67064267D01*
X43971917Y-67070036D01*
X43983491Y-67076973D01*
X43994329Y-67085011D01*
X44004327Y-67094073D01*
X44013389Y-67104071D01*
X44021427Y-67114909D01*
X44028364Y-67126483D01*
X44034133Y-67138681D01*
X44038679Y-67151386D01*
X44041958Y-67164475D01*
X44043938Y-67177823D01*
X44044600Y-67191300D01*
X44044600Y-67466300D01*
X44043938Y-67479777D01*
X44041958Y-67493125D01*
X44038679Y-67506214D01*
X44034133Y-67518919D01*
X44028364Y-67531117D01*
X44021427Y-67542691D01*
X44013389Y-67553529D01*
X44004327Y-67563527D01*
X43994329Y-67572589D01*
X43983491Y-67580627D01*
X43971917Y-67587564D01*
X43959719Y-67593333D01*
X43947014Y-67597879D01*
X43933925Y-67601158D01*
X43920577Y-67603138D01*
X43907100Y-67603800D01*
X42657100Y-67603800D01*
X42643623Y-67603138D01*
X42630275Y-67601158D01*
X42617186Y-67597879D01*
X42604481Y-67593333D01*
X42592283Y-67587564D01*
X42580709Y-67580627D01*
X42569871Y-67572589D01*
X42559873Y-67563527D01*
X42550811Y-67553529D01*
X42542773Y-67542691D01*
X42535836Y-67531117D01*
X42530067Y-67518919D01*
X42525521Y-67506214D01*
X42522242Y-67493125D01*
X42520262Y-67479777D01*
X42519600Y-67466300D01*
X42519600Y-67191300D01*
X42520262Y-67177823D01*
X42522242Y-67164475D01*
X42525521Y-67151386D01*
X42530067Y-67138681D01*
X42535836Y-67126483D01*
X42542773Y-67114909D01*
X42550811Y-67104071D01*
X42559873Y-67094073D01*
X42569871Y-67085011D01*
X42580709Y-67076973D01*
X42592283Y-67070036D01*
X42604481Y-67064267D01*
X42617186Y-67059721D01*
X42630275Y-67056442D01*
X42643623Y-67054462D01*
X42657100Y-67053800D01*
X43907100Y-67053800D01*
X43920577Y-67054462D01*
X43920577Y-67054462D01*
G37*
D17*
X43282100Y-67328800D03*
D11*
G36*
X43920577Y-66254462D02*
G01*
X43933925Y-66256442D01*
X43947014Y-66259721D01*
X43959719Y-66264267D01*
X43971917Y-66270036D01*
X43983491Y-66276973D01*
X43994329Y-66285011D01*
X44004327Y-66294073D01*
X44013389Y-66304071D01*
X44021427Y-66314909D01*
X44028364Y-66326483D01*
X44034133Y-66338681D01*
X44038679Y-66351386D01*
X44041958Y-66364475D01*
X44043938Y-66377823D01*
X44044600Y-66391300D01*
X44044600Y-66666300D01*
X44043938Y-66679777D01*
X44041958Y-66693125D01*
X44038679Y-66706214D01*
X44034133Y-66718919D01*
X44028364Y-66731117D01*
X44021427Y-66742691D01*
X44013389Y-66753529D01*
X44004327Y-66763527D01*
X43994329Y-66772589D01*
X43983491Y-66780627D01*
X43971917Y-66787564D01*
X43959719Y-66793333D01*
X43947014Y-66797879D01*
X43933925Y-66801158D01*
X43920577Y-66803138D01*
X43907100Y-66803800D01*
X42657100Y-66803800D01*
X42643623Y-66803138D01*
X42630275Y-66801158D01*
X42617186Y-66797879D01*
X42604481Y-66793333D01*
X42592283Y-66787564D01*
X42580709Y-66780627D01*
X42569871Y-66772589D01*
X42559873Y-66763527D01*
X42550811Y-66753529D01*
X42542773Y-66742691D01*
X42535836Y-66731117D01*
X42530067Y-66718919D01*
X42525521Y-66706214D01*
X42522242Y-66693125D01*
X42520262Y-66679777D01*
X42519600Y-66666300D01*
X42519600Y-66391300D01*
X42520262Y-66377823D01*
X42522242Y-66364475D01*
X42525521Y-66351386D01*
X42530067Y-66338681D01*
X42535836Y-66326483D01*
X42542773Y-66314909D01*
X42550811Y-66304071D01*
X42559873Y-66294073D01*
X42569871Y-66285011D01*
X42580709Y-66276973D01*
X42592283Y-66270036D01*
X42604481Y-66264267D01*
X42617186Y-66259721D01*
X42630275Y-66256442D01*
X42643623Y-66254462D01*
X42657100Y-66253800D01*
X43907100Y-66253800D01*
X43920577Y-66254462D01*
X43920577Y-66254462D01*
G37*
D17*
X43282100Y-66528800D03*
D11*
G36*
X43920577Y-65454462D02*
G01*
X43933925Y-65456442D01*
X43947014Y-65459721D01*
X43959719Y-65464267D01*
X43971917Y-65470036D01*
X43983491Y-65476973D01*
X43994329Y-65485011D01*
X44004327Y-65494073D01*
X44013389Y-65504071D01*
X44021427Y-65514909D01*
X44028364Y-65526483D01*
X44034133Y-65538681D01*
X44038679Y-65551386D01*
X44041958Y-65564475D01*
X44043938Y-65577823D01*
X44044600Y-65591300D01*
X44044600Y-65866300D01*
X44043938Y-65879777D01*
X44041958Y-65893125D01*
X44038679Y-65906214D01*
X44034133Y-65918919D01*
X44028364Y-65931117D01*
X44021427Y-65942691D01*
X44013389Y-65953529D01*
X44004327Y-65963527D01*
X43994329Y-65972589D01*
X43983491Y-65980627D01*
X43971917Y-65987564D01*
X43959719Y-65993333D01*
X43947014Y-65997879D01*
X43933925Y-66001158D01*
X43920577Y-66003138D01*
X43907100Y-66003800D01*
X42657100Y-66003800D01*
X42643623Y-66003138D01*
X42630275Y-66001158D01*
X42617186Y-65997879D01*
X42604481Y-65993333D01*
X42592283Y-65987564D01*
X42580709Y-65980627D01*
X42569871Y-65972589D01*
X42559873Y-65963527D01*
X42550811Y-65953529D01*
X42542773Y-65942691D01*
X42535836Y-65931117D01*
X42530067Y-65918919D01*
X42525521Y-65906214D01*
X42522242Y-65893125D01*
X42520262Y-65879777D01*
X42519600Y-65866300D01*
X42519600Y-65591300D01*
X42520262Y-65577823D01*
X42522242Y-65564475D01*
X42525521Y-65551386D01*
X42530067Y-65538681D01*
X42535836Y-65526483D01*
X42542773Y-65514909D01*
X42550811Y-65504071D01*
X42559873Y-65494073D01*
X42569871Y-65485011D01*
X42580709Y-65476973D01*
X42592283Y-65470036D01*
X42604481Y-65464267D01*
X42617186Y-65459721D01*
X42630275Y-65456442D01*
X42643623Y-65454462D01*
X42657100Y-65453800D01*
X43907100Y-65453800D01*
X43920577Y-65454462D01*
X43920577Y-65454462D01*
G37*
D17*
X43282100Y-65728800D03*
D11*
G36*
X43920577Y-64654462D02*
G01*
X43933925Y-64656442D01*
X43947014Y-64659721D01*
X43959719Y-64664267D01*
X43971917Y-64670036D01*
X43983491Y-64676973D01*
X43994329Y-64685011D01*
X44004327Y-64694073D01*
X44013389Y-64704071D01*
X44021427Y-64714909D01*
X44028364Y-64726483D01*
X44034133Y-64738681D01*
X44038679Y-64751386D01*
X44041958Y-64764475D01*
X44043938Y-64777823D01*
X44044600Y-64791300D01*
X44044600Y-65066300D01*
X44043938Y-65079777D01*
X44041958Y-65093125D01*
X44038679Y-65106214D01*
X44034133Y-65118919D01*
X44028364Y-65131117D01*
X44021427Y-65142691D01*
X44013389Y-65153529D01*
X44004327Y-65163527D01*
X43994329Y-65172589D01*
X43983491Y-65180627D01*
X43971917Y-65187564D01*
X43959719Y-65193333D01*
X43947014Y-65197879D01*
X43933925Y-65201158D01*
X43920577Y-65203138D01*
X43907100Y-65203800D01*
X42657100Y-65203800D01*
X42643623Y-65203138D01*
X42630275Y-65201158D01*
X42617186Y-65197879D01*
X42604481Y-65193333D01*
X42592283Y-65187564D01*
X42580709Y-65180627D01*
X42569871Y-65172589D01*
X42559873Y-65163527D01*
X42550811Y-65153529D01*
X42542773Y-65142691D01*
X42535836Y-65131117D01*
X42530067Y-65118919D01*
X42525521Y-65106214D01*
X42522242Y-65093125D01*
X42520262Y-65079777D01*
X42519600Y-65066300D01*
X42519600Y-64791300D01*
X42520262Y-64777823D01*
X42522242Y-64764475D01*
X42525521Y-64751386D01*
X42530067Y-64738681D01*
X42535836Y-64726483D01*
X42542773Y-64714909D01*
X42550811Y-64704071D01*
X42559873Y-64694073D01*
X42569871Y-64685011D01*
X42580709Y-64676973D01*
X42592283Y-64670036D01*
X42604481Y-64664267D01*
X42617186Y-64659721D01*
X42630275Y-64656442D01*
X42643623Y-64654462D01*
X42657100Y-64653800D01*
X43907100Y-64653800D01*
X43920577Y-64654462D01*
X43920577Y-64654462D01*
G37*
D17*
X43282100Y-64928800D03*
D11*
G36*
X43920577Y-63854462D02*
G01*
X43933925Y-63856442D01*
X43947014Y-63859721D01*
X43959719Y-63864267D01*
X43971917Y-63870036D01*
X43983491Y-63876973D01*
X43994329Y-63885011D01*
X44004327Y-63894073D01*
X44013389Y-63904071D01*
X44021427Y-63914909D01*
X44028364Y-63926483D01*
X44034133Y-63938681D01*
X44038679Y-63951386D01*
X44041958Y-63964475D01*
X44043938Y-63977823D01*
X44044600Y-63991300D01*
X44044600Y-64266300D01*
X44043938Y-64279777D01*
X44041958Y-64293125D01*
X44038679Y-64306214D01*
X44034133Y-64318919D01*
X44028364Y-64331117D01*
X44021427Y-64342691D01*
X44013389Y-64353529D01*
X44004327Y-64363527D01*
X43994329Y-64372589D01*
X43983491Y-64380627D01*
X43971917Y-64387564D01*
X43959719Y-64393333D01*
X43947014Y-64397879D01*
X43933925Y-64401158D01*
X43920577Y-64403138D01*
X43907100Y-64403800D01*
X42657100Y-64403800D01*
X42643623Y-64403138D01*
X42630275Y-64401158D01*
X42617186Y-64397879D01*
X42604481Y-64393333D01*
X42592283Y-64387564D01*
X42580709Y-64380627D01*
X42569871Y-64372589D01*
X42559873Y-64363527D01*
X42550811Y-64353529D01*
X42542773Y-64342691D01*
X42535836Y-64331117D01*
X42530067Y-64318919D01*
X42525521Y-64306214D01*
X42522242Y-64293125D01*
X42520262Y-64279777D01*
X42519600Y-64266300D01*
X42519600Y-63991300D01*
X42520262Y-63977823D01*
X42522242Y-63964475D01*
X42525521Y-63951386D01*
X42530067Y-63938681D01*
X42535836Y-63926483D01*
X42542773Y-63914909D01*
X42550811Y-63904071D01*
X42559873Y-63894073D01*
X42569871Y-63885011D01*
X42580709Y-63876973D01*
X42592283Y-63870036D01*
X42604481Y-63864267D01*
X42617186Y-63859721D01*
X42630275Y-63856442D01*
X42643623Y-63854462D01*
X42657100Y-63853800D01*
X43907100Y-63853800D01*
X43920577Y-63854462D01*
X43920577Y-63854462D01*
G37*
D17*
X43282100Y-64128800D03*
D11*
G36*
X43920577Y-63054462D02*
G01*
X43933925Y-63056442D01*
X43947014Y-63059721D01*
X43959719Y-63064267D01*
X43971917Y-63070036D01*
X43983491Y-63076973D01*
X43994329Y-63085011D01*
X44004327Y-63094073D01*
X44013389Y-63104071D01*
X44021427Y-63114909D01*
X44028364Y-63126483D01*
X44034133Y-63138681D01*
X44038679Y-63151386D01*
X44041958Y-63164475D01*
X44043938Y-63177823D01*
X44044600Y-63191300D01*
X44044600Y-63466300D01*
X44043938Y-63479777D01*
X44041958Y-63493125D01*
X44038679Y-63506214D01*
X44034133Y-63518919D01*
X44028364Y-63531117D01*
X44021427Y-63542691D01*
X44013389Y-63553529D01*
X44004327Y-63563527D01*
X43994329Y-63572589D01*
X43983491Y-63580627D01*
X43971917Y-63587564D01*
X43959719Y-63593333D01*
X43947014Y-63597879D01*
X43933925Y-63601158D01*
X43920577Y-63603138D01*
X43907100Y-63603800D01*
X42657100Y-63603800D01*
X42643623Y-63603138D01*
X42630275Y-63601158D01*
X42617186Y-63597879D01*
X42604481Y-63593333D01*
X42592283Y-63587564D01*
X42580709Y-63580627D01*
X42569871Y-63572589D01*
X42559873Y-63563527D01*
X42550811Y-63553529D01*
X42542773Y-63542691D01*
X42535836Y-63531117D01*
X42530067Y-63518919D01*
X42525521Y-63506214D01*
X42522242Y-63493125D01*
X42520262Y-63479777D01*
X42519600Y-63466300D01*
X42519600Y-63191300D01*
X42520262Y-63177823D01*
X42522242Y-63164475D01*
X42525521Y-63151386D01*
X42530067Y-63138681D01*
X42535836Y-63126483D01*
X42542773Y-63114909D01*
X42550811Y-63104071D01*
X42559873Y-63094073D01*
X42569871Y-63085011D01*
X42580709Y-63076973D01*
X42592283Y-63070036D01*
X42604481Y-63064267D01*
X42617186Y-63059721D01*
X42630275Y-63056442D01*
X42643623Y-63054462D01*
X42657100Y-63053800D01*
X43907100Y-63053800D01*
X43920577Y-63054462D01*
X43920577Y-63054462D01*
G37*
D17*
X43282100Y-63328800D03*
D11*
G36*
X43920577Y-62254462D02*
G01*
X43933925Y-62256442D01*
X43947014Y-62259721D01*
X43959719Y-62264267D01*
X43971917Y-62270036D01*
X43983491Y-62276973D01*
X43994329Y-62285011D01*
X44004327Y-62294073D01*
X44013389Y-62304071D01*
X44021427Y-62314909D01*
X44028364Y-62326483D01*
X44034133Y-62338681D01*
X44038679Y-62351386D01*
X44041958Y-62364475D01*
X44043938Y-62377823D01*
X44044600Y-62391300D01*
X44044600Y-62666300D01*
X44043938Y-62679777D01*
X44041958Y-62693125D01*
X44038679Y-62706214D01*
X44034133Y-62718919D01*
X44028364Y-62731117D01*
X44021427Y-62742691D01*
X44013389Y-62753529D01*
X44004327Y-62763527D01*
X43994329Y-62772589D01*
X43983491Y-62780627D01*
X43971917Y-62787564D01*
X43959719Y-62793333D01*
X43947014Y-62797879D01*
X43933925Y-62801158D01*
X43920577Y-62803138D01*
X43907100Y-62803800D01*
X42657100Y-62803800D01*
X42643623Y-62803138D01*
X42630275Y-62801158D01*
X42617186Y-62797879D01*
X42604481Y-62793333D01*
X42592283Y-62787564D01*
X42580709Y-62780627D01*
X42569871Y-62772589D01*
X42559873Y-62763527D01*
X42550811Y-62753529D01*
X42542773Y-62742691D01*
X42535836Y-62731117D01*
X42530067Y-62718919D01*
X42525521Y-62706214D01*
X42522242Y-62693125D01*
X42520262Y-62679777D01*
X42519600Y-62666300D01*
X42519600Y-62391300D01*
X42520262Y-62377823D01*
X42522242Y-62364475D01*
X42525521Y-62351386D01*
X42530067Y-62338681D01*
X42535836Y-62326483D01*
X42542773Y-62314909D01*
X42550811Y-62304071D01*
X42559873Y-62294073D01*
X42569871Y-62285011D01*
X42580709Y-62276973D01*
X42592283Y-62270036D01*
X42604481Y-62264267D01*
X42617186Y-62259721D01*
X42630275Y-62256442D01*
X42643623Y-62254462D01*
X42657100Y-62253800D01*
X43907100Y-62253800D01*
X43920577Y-62254462D01*
X43920577Y-62254462D01*
G37*
D17*
X43282100Y-62528800D03*
D11*
G36*
X43920577Y-61454462D02*
G01*
X43933925Y-61456442D01*
X43947014Y-61459721D01*
X43959719Y-61464267D01*
X43971917Y-61470036D01*
X43983491Y-61476973D01*
X43994329Y-61485011D01*
X44004327Y-61494073D01*
X44013389Y-61504071D01*
X44021427Y-61514909D01*
X44028364Y-61526483D01*
X44034133Y-61538681D01*
X44038679Y-61551386D01*
X44041958Y-61564475D01*
X44043938Y-61577823D01*
X44044600Y-61591300D01*
X44044600Y-61866300D01*
X44043938Y-61879777D01*
X44041958Y-61893125D01*
X44038679Y-61906214D01*
X44034133Y-61918919D01*
X44028364Y-61931117D01*
X44021427Y-61942691D01*
X44013389Y-61953529D01*
X44004327Y-61963527D01*
X43994329Y-61972589D01*
X43983491Y-61980627D01*
X43971917Y-61987564D01*
X43959719Y-61993333D01*
X43947014Y-61997879D01*
X43933925Y-62001158D01*
X43920577Y-62003138D01*
X43907100Y-62003800D01*
X42657100Y-62003800D01*
X42643623Y-62003138D01*
X42630275Y-62001158D01*
X42617186Y-61997879D01*
X42604481Y-61993333D01*
X42592283Y-61987564D01*
X42580709Y-61980627D01*
X42569871Y-61972589D01*
X42559873Y-61963527D01*
X42550811Y-61953529D01*
X42542773Y-61942691D01*
X42535836Y-61931117D01*
X42530067Y-61918919D01*
X42525521Y-61906214D01*
X42522242Y-61893125D01*
X42520262Y-61879777D01*
X42519600Y-61866300D01*
X42519600Y-61591300D01*
X42520262Y-61577823D01*
X42522242Y-61564475D01*
X42525521Y-61551386D01*
X42530067Y-61538681D01*
X42535836Y-61526483D01*
X42542773Y-61514909D01*
X42550811Y-61504071D01*
X42559873Y-61494073D01*
X42569871Y-61485011D01*
X42580709Y-61476973D01*
X42592283Y-61470036D01*
X42604481Y-61464267D01*
X42617186Y-61459721D01*
X42630275Y-61456442D01*
X42643623Y-61454462D01*
X42657100Y-61453800D01*
X43907100Y-61453800D01*
X43920577Y-61454462D01*
X43920577Y-61454462D01*
G37*
D17*
X43282100Y-61728800D03*
D11*
G36*
X43920577Y-60654462D02*
G01*
X43933925Y-60656442D01*
X43947014Y-60659721D01*
X43959719Y-60664267D01*
X43971917Y-60670036D01*
X43983491Y-60676973D01*
X43994329Y-60685011D01*
X44004327Y-60694073D01*
X44013389Y-60704071D01*
X44021427Y-60714909D01*
X44028364Y-60726483D01*
X44034133Y-60738681D01*
X44038679Y-60751386D01*
X44041958Y-60764475D01*
X44043938Y-60777823D01*
X44044600Y-60791300D01*
X44044600Y-61066300D01*
X44043938Y-61079777D01*
X44041958Y-61093125D01*
X44038679Y-61106214D01*
X44034133Y-61118919D01*
X44028364Y-61131117D01*
X44021427Y-61142691D01*
X44013389Y-61153529D01*
X44004327Y-61163527D01*
X43994329Y-61172589D01*
X43983491Y-61180627D01*
X43971917Y-61187564D01*
X43959719Y-61193333D01*
X43947014Y-61197879D01*
X43933925Y-61201158D01*
X43920577Y-61203138D01*
X43907100Y-61203800D01*
X42657100Y-61203800D01*
X42643623Y-61203138D01*
X42630275Y-61201158D01*
X42617186Y-61197879D01*
X42604481Y-61193333D01*
X42592283Y-61187564D01*
X42580709Y-61180627D01*
X42569871Y-61172589D01*
X42559873Y-61163527D01*
X42550811Y-61153529D01*
X42542773Y-61142691D01*
X42535836Y-61131117D01*
X42530067Y-61118919D01*
X42525521Y-61106214D01*
X42522242Y-61093125D01*
X42520262Y-61079777D01*
X42519600Y-61066300D01*
X42519600Y-60791300D01*
X42520262Y-60777823D01*
X42522242Y-60764475D01*
X42525521Y-60751386D01*
X42530067Y-60738681D01*
X42535836Y-60726483D01*
X42542773Y-60714909D01*
X42550811Y-60704071D01*
X42559873Y-60694073D01*
X42569871Y-60685011D01*
X42580709Y-60676973D01*
X42592283Y-60670036D01*
X42604481Y-60664267D01*
X42617186Y-60659721D01*
X42630275Y-60656442D01*
X42643623Y-60654462D01*
X42657100Y-60653800D01*
X43907100Y-60653800D01*
X43920577Y-60654462D01*
X43920577Y-60654462D01*
G37*
D17*
X43282100Y-60928800D03*
D11*
G36*
X43920577Y-59854462D02*
G01*
X43933925Y-59856442D01*
X43947014Y-59859721D01*
X43959719Y-59864267D01*
X43971917Y-59870036D01*
X43983491Y-59876973D01*
X43994329Y-59885011D01*
X44004327Y-59894073D01*
X44013389Y-59904071D01*
X44021427Y-59914909D01*
X44028364Y-59926483D01*
X44034133Y-59938681D01*
X44038679Y-59951386D01*
X44041958Y-59964475D01*
X44043938Y-59977823D01*
X44044600Y-59991300D01*
X44044600Y-60266300D01*
X44043938Y-60279777D01*
X44041958Y-60293125D01*
X44038679Y-60306214D01*
X44034133Y-60318919D01*
X44028364Y-60331117D01*
X44021427Y-60342691D01*
X44013389Y-60353529D01*
X44004327Y-60363527D01*
X43994329Y-60372589D01*
X43983491Y-60380627D01*
X43971917Y-60387564D01*
X43959719Y-60393333D01*
X43947014Y-60397879D01*
X43933925Y-60401158D01*
X43920577Y-60403138D01*
X43907100Y-60403800D01*
X42657100Y-60403800D01*
X42643623Y-60403138D01*
X42630275Y-60401158D01*
X42617186Y-60397879D01*
X42604481Y-60393333D01*
X42592283Y-60387564D01*
X42580709Y-60380627D01*
X42569871Y-60372589D01*
X42559873Y-60363527D01*
X42550811Y-60353529D01*
X42542773Y-60342691D01*
X42535836Y-60331117D01*
X42530067Y-60318919D01*
X42525521Y-60306214D01*
X42522242Y-60293125D01*
X42520262Y-60279777D01*
X42519600Y-60266300D01*
X42519600Y-59991300D01*
X42520262Y-59977823D01*
X42522242Y-59964475D01*
X42525521Y-59951386D01*
X42530067Y-59938681D01*
X42535836Y-59926483D01*
X42542773Y-59914909D01*
X42550811Y-59904071D01*
X42559873Y-59894073D01*
X42569871Y-59885011D01*
X42580709Y-59876973D01*
X42592283Y-59870036D01*
X42604481Y-59864267D01*
X42617186Y-59859721D01*
X42630275Y-59856442D01*
X42643623Y-59854462D01*
X42657100Y-59853800D01*
X43907100Y-59853800D01*
X43920577Y-59854462D01*
X43920577Y-59854462D01*
G37*
D17*
X43282100Y-60128800D03*
D11*
G36*
X43920577Y-59054462D02*
G01*
X43933925Y-59056442D01*
X43947014Y-59059721D01*
X43959719Y-59064267D01*
X43971917Y-59070036D01*
X43983491Y-59076973D01*
X43994329Y-59085011D01*
X44004327Y-59094073D01*
X44013389Y-59104071D01*
X44021427Y-59114909D01*
X44028364Y-59126483D01*
X44034133Y-59138681D01*
X44038679Y-59151386D01*
X44041958Y-59164475D01*
X44043938Y-59177823D01*
X44044600Y-59191300D01*
X44044600Y-59466300D01*
X44043938Y-59479777D01*
X44041958Y-59493125D01*
X44038679Y-59506214D01*
X44034133Y-59518919D01*
X44028364Y-59531117D01*
X44021427Y-59542691D01*
X44013389Y-59553529D01*
X44004327Y-59563527D01*
X43994329Y-59572589D01*
X43983491Y-59580627D01*
X43971917Y-59587564D01*
X43959719Y-59593333D01*
X43947014Y-59597879D01*
X43933925Y-59601158D01*
X43920577Y-59603138D01*
X43907100Y-59603800D01*
X42657100Y-59603800D01*
X42643623Y-59603138D01*
X42630275Y-59601158D01*
X42617186Y-59597879D01*
X42604481Y-59593333D01*
X42592283Y-59587564D01*
X42580709Y-59580627D01*
X42569871Y-59572589D01*
X42559873Y-59563527D01*
X42550811Y-59553529D01*
X42542773Y-59542691D01*
X42535836Y-59531117D01*
X42530067Y-59518919D01*
X42525521Y-59506214D01*
X42522242Y-59493125D01*
X42520262Y-59479777D01*
X42519600Y-59466300D01*
X42519600Y-59191300D01*
X42520262Y-59177823D01*
X42522242Y-59164475D01*
X42525521Y-59151386D01*
X42530067Y-59138681D01*
X42535836Y-59126483D01*
X42542773Y-59114909D01*
X42550811Y-59104071D01*
X42559873Y-59094073D01*
X42569871Y-59085011D01*
X42580709Y-59076973D01*
X42592283Y-59070036D01*
X42604481Y-59064267D01*
X42617186Y-59059721D01*
X42630275Y-59056442D01*
X42643623Y-59054462D01*
X42657100Y-59053800D01*
X43907100Y-59053800D01*
X43920577Y-59054462D01*
X43920577Y-59054462D01*
G37*
D17*
X43282100Y-59328800D03*
D11*
G36*
X43920577Y-58254462D02*
G01*
X43933925Y-58256442D01*
X43947014Y-58259721D01*
X43959719Y-58264267D01*
X43971917Y-58270036D01*
X43983491Y-58276973D01*
X43994329Y-58285011D01*
X44004327Y-58294073D01*
X44013389Y-58304071D01*
X44021427Y-58314909D01*
X44028364Y-58326483D01*
X44034133Y-58338681D01*
X44038679Y-58351386D01*
X44041958Y-58364475D01*
X44043938Y-58377823D01*
X44044600Y-58391300D01*
X44044600Y-58666300D01*
X44043938Y-58679777D01*
X44041958Y-58693125D01*
X44038679Y-58706214D01*
X44034133Y-58718919D01*
X44028364Y-58731117D01*
X44021427Y-58742691D01*
X44013389Y-58753529D01*
X44004327Y-58763527D01*
X43994329Y-58772589D01*
X43983491Y-58780627D01*
X43971917Y-58787564D01*
X43959719Y-58793333D01*
X43947014Y-58797879D01*
X43933925Y-58801158D01*
X43920577Y-58803138D01*
X43907100Y-58803800D01*
X42657100Y-58803800D01*
X42643623Y-58803138D01*
X42630275Y-58801158D01*
X42617186Y-58797879D01*
X42604481Y-58793333D01*
X42592283Y-58787564D01*
X42580709Y-58780627D01*
X42569871Y-58772589D01*
X42559873Y-58763527D01*
X42550811Y-58753529D01*
X42542773Y-58742691D01*
X42535836Y-58731117D01*
X42530067Y-58718919D01*
X42525521Y-58706214D01*
X42522242Y-58693125D01*
X42520262Y-58679777D01*
X42519600Y-58666300D01*
X42519600Y-58391300D01*
X42520262Y-58377823D01*
X42522242Y-58364475D01*
X42525521Y-58351386D01*
X42530067Y-58338681D01*
X42535836Y-58326483D01*
X42542773Y-58314909D01*
X42550811Y-58304071D01*
X42559873Y-58294073D01*
X42569871Y-58285011D01*
X42580709Y-58276973D01*
X42592283Y-58270036D01*
X42604481Y-58264267D01*
X42617186Y-58259721D01*
X42630275Y-58256442D01*
X42643623Y-58254462D01*
X42657100Y-58253800D01*
X43907100Y-58253800D01*
X43920577Y-58254462D01*
X43920577Y-58254462D01*
G37*
D17*
X43282100Y-58528800D03*
D11*
G36*
X43920577Y-57454462D02*
G01*
X43933925Y-57456442D01*
X43947014Y-57459721D01*
X43959719Y-57464267D01*
X43971917Y-57470036D01*
X43983491Y-57476973D01*
X43994329Y-57485011D01*
X44004327Y-57494073D01*
X44013389Y-57504071D01*
X44021427Y-57514909D01*
X44028364Y-57526483D01*
X44034133Y-57538681D01*
X44038679Y-57551386D01*
X44041958Y-57564475D01*
X44043938Y-57577823D01*
X44044600Y-57591300D01*
X44044600Y-57866300D01*
X44043938Y-57879777D01*
X44041958Y-57893125D01*
X44038679Y-57906214D01*
X44034133Y-57918919D01*
X44028364Y-57931117D01*
X44021427Y-57942691D01*
X44013389Y-57953529D01*
X44004327Y-57963527D01*
X43994329Y-57972589D01*
X43983491Y-57980627D01*
X43971917Y-57987564D01*
X43959719Y-57993333D01*
X43947014Y-57997879D01*
X43933925Y-58001158D01*
X43920577Y-58003138D01*
X43907100Y-58003800D01*
X42657100Y-58003800D01*
X42643623Y-58003138D01*
X42630275Y-58001158D01*
X42617186Y-57997879D01*
X42604481Y-57993333D01*
X42592283Y-57987564D01*
X42580709Y-57980627D01*
X42569871Y-57972589D01*
X42559873Y-57963527D01*
X42550811Y-57953529D01*
X42542773Y-57942691D01*
X42535836Y-57931117D01*
X42530067Y-57918919D01*
X42525521Y-57906214D01*
X42522242Y-57893125D01*
X42520262Y-57879777D01*
X42519600Y-57866300D01*
X42519600Y-57591300D01*
X42520262Y-57577823D01*
X42522242Y-57564475D01*
X42525521Y-57551386D01*
X42530067Y-57538681D01*
X42535836Y-57526483D01*
X42542773Y-57514909D01*
X42550811Y-57504071D01*
X42559873Y-57494073D01*
X42569871Y-57485011D01*
X42580709Y-57476973D01*
X42592283Y-57470036D01*
X42604481Y-57464267D01*
X42617186Y-57459721D01*
X42630275Y-57456442D01*
X42643623Y-57454462D01*
X42657100Y-57453800D01*
X43907100Y-57453800D01*
X43920577Y-57454462D01*
X43920577Y-57454462D01*
G37*
D17*
X43282100Y-57728800D03*
D11*
G36*
X43920577Y-56654462D02*
G01*
X43933925Y-56656442D01*
X43947014Y-56659721D01*
X43959719Y-56664267D01*
X43971917Y-56670036D01*
X43983491Y-56676973D01*
X43994329Y-56685011D01*
X44004327Y-56694073D01*
X44013389Y-56704071D01*
X44021427Y-56714909D01*
X44028364Y-56726483D01*
X44034133Y-56738681D01*
X44038679Y-56751386D01*
X44041958Y-56764475D01*
X44043938Y-56777823D01*
X44044600Y-56791300D01*
X44044600Y-57066300D01*
X44043938Y-57079777D01*
X44041958Y-57093125D01*
X44038679Y-57106214D01*
X44034133Y-57118919D01*
X44028364Y-57131117D01*
X44021427Y-57142691D01*
X44013389Y-57153529D01*
X44004327Y-57163527D01*
X43994329Y-57172589D01*
X43983491Y-57180627D01*
X43971917Y-57187564D01*
X43959719Y-57193333D01*
X43947014Y-57197879D01*
X43933925Y-57201158D01*
X43920577Y-57203138D01*
X43907100Y-57203800D01*
X42657100Y-57203800D01*
X42643623Y-57203138D01*
X42630275Y-57201158D01*
X42617186Y-57197879D01*
X42604481Y-57193333D01*
X42592283Y-57187564D01*
X42580709Y-57180627D01*
X42569871Y-57172589D01*
X42559873Y-57163527D01*
X42550811Y-57153529D01*
X42542773Y-57142691D01*
X42535836Y-57131117D01*
X42530067Y-57118919D01*
X42525521Y-57106214D01*
X42522242Y-57093125D01*
X42520262Y-57079777D01*
X42519600Y-57066300D01*
X42519600Y-56791300D01*
X42520262Y-56777823D01*
X42522242Y-56764475D01*
X42525521Y-56751386D01*
X42530067Y-56738681D01*
X42535836Y-56726483D01*
X42542773Y-56714909D01*
X42550811Y-56704071D01*
X42559873Y-56694073D01*
X42569871Y-56685011D01*
X42580709Y-56676973D01*
X42592283Y-56670036D01*
X42604481Y-56664267D01*
X42617186Y-56659721D01*
X42630275Y-56656442D01*
X42643623Y-56654462D01*
X42657100Y-56653800D01*
X43907100Y-56653800D01*
X43920577Y-56654462D01*
X43920577Y-56654462D01*
G37*
D17*
X43282100Y-56928800D03*
D11*
G36*
X55095577Y-56654462D02*
G01*
X55108925Y-56656442D01*
X55122014Y-56659721D01*
X55134719Y-56664267D01*
X55146917Y-56670036D01*
X55158491Y-56676973D01*
X55169329Y-56685011D01*
X55179327Y-56694073D01*
X55188389Y-56704071D01*
X55196427Y-56714909D01*
X55203364Y-56726483D01*
X55209133Y-56738681D01*
X55213679Y-56751386D01*
X55216958Y-56764475D01*
X55218938Y-56777823D01*
X55219600Y-56791300D01*
X55219600Y-57066300D01*
X55218938Y-57079777D01*
X55216958Y-57093125D01*
X55213679Y-57106214D01*
X55209133Y-57118919D01*
X55203364Y-57131117D01*
X55196427Y-57142691D01*
X55188389Y-57153529D01*
X55179327Y-57163527D01*
X55169329Y-57172589D01*
X55158491Y-57180627D01*
X55146917Y-57187564D01*
X55134719Y-57193333D01*
X55122014Y-57197879D01*
X55108925Y-57201158D01*
X55095577Y-57203138D01*
X55082100Y-57203800D01*
X53832100Y-57203800D01*
X53818623Y-57203138D01*
X53805275Y-57201158D01*
X53792186Y-57197879D01*
X53779481Y-57193333D01*
X53767283Y-57187564D01*
X53755709Y-57180627D01*
X53744871Y-57172589D01*
X53734873Y-57163527D01*
X53725811Y-57153529D01*
X53717773Y-57142691D01*
X53710836Y-57131117D01*
X53705067Y-57118919D01*
X53700521Y-57106214D01*
X53697242Y-57093125D01*
X53695262Y-57079777D01*
X53694600Y-57066300D01*
X53694600Y-56791300D01*
X53695262Y-56777823D01*
X53697242Y-56764475D01*
X53700521Y-56751386D01*
X53705067Y-56738681D01*
X53710836Y-56726483D01*
X53717773Y-56714909D01*
X53725811Y-56704071D01*
X53734873Y-56694073D01*
X53744871Y-56685011D01*
X53755709Y-56676973D01*
X53767283Y-56670036D01*
X53779481Y-56664267D01*
X53792186Y-56659721D01*
X53805275Y-56656442D01*
X53818623Y-56654462D01*
X53832100Y-56653800D01*
X55082100Y-56653800D01*
X55095577Y-56654462D01*
X55095577Y-56654462D01*
G37*
D17*
X54457100Y-56928800D03*
D11*
G36*
X55095577Y-57454462D02*
G01*
X55108925Y-57456442D01*
X55122014Y-57459721D01*
X55134719Y-57464267D01*
X55146917Y-57470036D01*
X55158491Y-57476973D01*
X55169329Y-57485011D01*
X55179327Y-57494073D01*
X55188389Y-57504071D01*
X55196427Y-57514909D01*
X55203364Y-57526483D01*
X55209133Y-57538681D01*
X55213679Y-57551386D01*
X55216958Y-57564475D01*
X55218938Y-57577823D01*
X55219600Y-57591300D01*
X55219600Y-57866300D01*
X55218938Y-57879777D01*
X55216958Y-57893125D01*
X55213679Y-57906214D01*
X55209133Y-57918919D01*
X55203364Y-57931117D01*
X55196427Y-57942691D01*
X55188389Y-57953529D01*
X55179327Y-57963527D01*
X55169329Y-57972589D01*
X55158491Y-57980627D01*
X55146917Y-57987564D01*
X55134719Y-57993333D01*
X55122014Y-57997879D01*
X55108925Y-58001158D01*
X55095577Y-58003138D01*
X55082100Y-58003800D01*
X53832100Y-58003800D01*
X53818623Y-58003138D01*
X53805275Y-58001158D01*
X53792186Y-57997879D01*
X53779481Y-57993333D01*
X53767283Y-57987564D01*
X53755709Y-57980627D01*
X53744871Y-57972589D01*
X53734873Y-57963527D01*
X53725811Y-57953529D01*
X53717773Y-57942691D01*
X53710836Y-57931117D01*
X53705067Y-57918919D01*
X53700521Y-57906214D01*
X53697242Y-57893125D01*
X53695262Y-57879777D01*
X53694600Y-57866300D01*
X53694600Y-57591300D01*
X53695262Y-57577823D01*
X53697242Y-57564475D01*
X53700521Y-57551386D01*
X53705067Y-57538681D01*
X53710836Y-57526483D01*
X53717773Y-57514909D01*
X53725811Y-57504071D01*
X53734873Y-57494073D01*
X53744871Y-57485011D01*
X53755709Y-57476973D01*
X53767283Y-57470036D01*
X53779481Y-57464267D01*
X53792186Y-57459721D01*
X53805275Y-57456442D01*
X53818623Y-57454462D01*
X53832100Y-57453800D01*
X55082100Y-57453800D01*
X55095577Y-57454462D01*
X55095577Y-57454462D01*
G37*
D17*
X54457100Y-57728800D03*
D11*
G36*
X55095577Y-58254462D02*
G01*
X55108925Y-58256442D01*
X55122014Y-58259721D01*
X55134719Y-58264267D01*
X55146917Y-58270036D01*
X55158491Y-58276973D01*
X55169329Y-58285011D01*
X55179327Y-58294073D01*
X55188389Y-58304071D01*
X55196427Y-58314909D01*
X55203364Y-58326483D01*
X55209133Y-58338681D01*
X55213679Y-58351386D01*
X55216958Y-58364475D01*
X55218938Y-58377823D01*
X55219600Y-58391300D01*
X55219600Y-58666300D01*
X55218938Y-58679777D01*
X55216958Y-58693125D01*
X55213679Y-58706214D01*
X55209133Y-58718919D01*
X55203364Y-58731117D01*
X55196427Y-58742691D01*
X55188389Y-58753529D01*
X55179327Y-58763527D01*
X55169329Y-58772589D01*
X55158491Y-58780627D01*
X55146917Y-58787564D01*
X55134719Y-58793333D01*
X55122014Y-58797879D01*
X55108925Y-58801158D01*
X55095577Y-58803138D01*
X55082100Y-58803800D01*
X53832100Y-58803800D01*
X53818623Y-58803138D01*
X53805275Y-58801158D01*
X53792186Y-58797879D01*
X53779481Y-58793333D01*
X53767283Y-58787564D01*
X53755709Y-58780627D01*
X53744871Y-58772589D01*
X53734873Y-58763527D01*
X53725811Y-58753529D01*
X53717773Y-58742691D01*
X53710836Y-58731117D01*
X53705067Y-58718919D01*
X53700521Y-58706214D01*
X53697242Y-58693125D01*
X53695262Y-58679777D01*
X53694600Y-58666300D01*
X53694600Y-58391300D01*
X53695262Y-58377823D01*
X53697242Y-58364475D01*
X53700521Y-58351386D01*
X53705067Y-58338681D01*
X53710836Y-58326483D01*
X53717773Y-58314909D01*
X53725811Y-58304071D01*
X53734873Y-58294073D01*
X53744871Y-58285011D01*
X53755709Y-58276973D01*
X53767283Y-58270036D01*
X53779481Y-58264267D01*
X53792186Y-58259721D01*
X53805275Y-58256442D01*
X53818623Y-58254462D01*
X53832100Y-58253800D01*
X55082100Y-58253800D01*
X55095577Y-58254462D01*
X55095577Y-58254462D01*
G37*
D17*
X54457100Y-58528800D03*
D11*
G36*
X55095577Y-59054462D02*
G01*
X55108925Y-59056442D01*
X55122014Y-59059721D01*
X55134719Y-59064267D01*
X55146917Y-59070036D01*
X55158491Y-59076973D01*
X55169329Y-59085011D01*
X55179327Y-59094073D01*
X55188389Y-59104071D01*
X55196427Y-59114909D01*
X55203364Y-59126483D01*
X55209133Y-59138681D01*
X55213679Y-59151386D01*
X55216958Y-59164475D01*
X55218938Y-59177823D01*
X55219600Y-59191300D01*
X55219600Y-59466300D01*
X55218938Y-59479777D01*
X55216958Y-59493125D01*
X55213679Y-59506214D01*
X55209133Y-59518919D01*
X55203364Y-59531117D01*
X55196427Y-59542691D01*
X55188389Y-59553529D01*
X55179327Y-59563527D01*
X55169329Y-59572589D01*
X55158491Y-59580627D01*
X55146917Y-59587564D01*
X55134719Y-59593333D01*
X55122014Y-59597879D01*
X55108925Y-59601158D01*
X55095577Y-59603138D01*
X55082100Y-59603800D01*
X53832100Y-59603800D01*
X53818623Y-59603138D01*
X53805275Y-59601158D01*
X53792186Y-59597879D01*
X53779481Y-59593333D01*
X53767283Y-59587564D01*
X53755709Y-59580627D01*
X53744871Y-59572589D01*
X53734873Y-59563527D01*
X53725811Y-59553529D01*
X53717773Y-59542691D01*
X53710836Y-59531117D01*
X53705067Y-59518919D01*
X53700521Y-59506214D01*
X53697242Y-59493125D01*
X53695262Y-59479777D01*
X53694600Y-59466300D01*
X53694600Y-59191300D01*
X53695262Y-59177823D01*
X53697242Y-59164475D01*
X53700521Y-59151386D01*
X53705067Y-59138681D01*
X53710836Y-59126483D01*
X53717773Y-59114909D01*
X53725811Y-59104071D01*
X53734873Y-59094073D01*
X53744871Y-59085011D01*
X53755709Y-59076973D01*
X53767283Y-59070036D01*
X53779481Y-59064267D01*
X53792186Y-59059721D01*
X53805275Y-59056442D01*
X53818623Y-59054462D01*
X53832100Y-59053800D01*
X55082100Y-59053800D01*
X55095577Y-59054462D01*
X55095577Y-59054462D01*
G37*
D17*
X54457100Y-59328800D03*
D11*
G36*
X55095577Y-59854462D02*
G01*
X55108925Y-59856442D01*
X55122014Y-59859721D01*
X55134719Y-59864267D01*
X55146917Y-59870036D01*
X55158491Y-59876973D01*
X55169329Y-59885011D01*
X55179327Y-59894073D01*
X55188389Y-59904071D01*
X55196427Y-59914909D01*
X55203364Y-59926483D01*
X55209133Y-59938681D01*
X55213679Y-59951386D01*
X55216958Y-59964475D01*
X55218938Y-59977823D01*
X55219600Y-59991300D01*
X55219600Y-60266300D01*
X55218938Y-60279777D01*
X55216958Y-60293125D01*
X55213679Y-60306214D01*
X55209133Y-60318919D01*
X55203364Y-60331117D01*
X55196427Y-60342691D01*
X55188389Y-60353529D01*
X55179327Y-60363527D01*
X55169329Y-60372589D01*
X55158491Y-60380627D01*
X55146917Y-60387564D01*
X55134719Y-60393333D01*
X55122014Y-60397879D01*
X55108925Y-60401158D01*
X55095577Y-60403138D01*
X55082100Y-60403800D01*
X53832100Y-60403800D01*
X53818623Y-60403138D01*
X53805275Y-60401158D01*
X53792186Y-60397879D01*
X53779481Y-60393333D01*
X53767283Y-60387564D01*
X53755709Y-60380627D01*
X53744871Y-60372589D01*
X53734873Y-60363527D01*
X53725811Y-60353529D01*
X53717773Y-60342691D01*
X53710836Y-60331117D01*
X53705067Y-60318919D01*
X53700521Y-60306214D01*
X53697242Y-60293125D01*
X53695262Y-60279777D01*
X53694600Y-60266300D01*
X53694600Y-59991300D01*
X53695262Y-59977823D01*
X53697242Y-59964475D01*
X53700521Y-59951386D01*
X53705067Y-59938681D01*
X53710836Y-59926483D01*
X53717773Y-59914909D01*
X53725811Y-59904071D01*
X53734873Y-59894073D01*
X53744871Y-59885011D01*
X53755709Y-59876973D01*
X53767283Y-59870036D01*
X53779481Y-59864267D01*
X53792186Y-59859721D01*
X53805275Y-59856442D01*
X53818623Y-59854462D01*
X53832100Y-59853800D01*
X55082100Y-59853800D01*
X55095577Y-59854462D01*
X55095577Y-59854462D01*
G37*
D17*
X54457100Y-60128800D03*
D11*
G36*
X55095577Y-60654462D02*
G01*
X55108925Y-60656442D01*
X55122014Y-60659721D01*
X55134719Y-60664267D01*
X55146917Y-60670036D01*
X55158491Y-60676973D01*
X55169329Y-60685011D01*
X55179327Y-60694073D01*
X55188389Y-60704071D01*
X55196427Y-60714909D01*
X55203364Y-60726483D01*
X55209133Y-60738681D01*
X55213679Y-60751386D01*
X55216958Y-60764475D01*
X55218938Y-60777823D01*
X55219600Y-60791300D01*
X55219600Y-61066300D01*
X55218938Y-61079777D01*
X55216958Y-61093125D01*
X55213679Y-61106214D01*
X55209133Y-61118919D01*
X55203364Y-61131117D01*
X55196427Y-61142691D01*
X55188389Y-61153529D01*
X55179327Y-61163527D01*
X55169329Y-61172589D01*
X55158491Y-61180627D01*
X55146917Y-61187564D01*
X55134719Y-61193333D01*
X55122014Y-61197879D01*
X55108925Y-61201158D01*
X55095577Y-61203138D01*
X55082100Y-61203800D01*
X53832100Y-61203800D01*
X53818623Y-61203138D01*
X53805275Y-61201158D01*
X53792186Y-61197879D01*
X53779481Y-61193333D01*
X53767283Y-61187564D01*
X53755709Y-61180627D01*
X53744871Y-61172589D01*
X53734873Y-61163527D01*
X53725811Y-61153529D01*
X53717773Y-61142691D01*
X53710836Y-61131117D01*
X53705067Y-61118919D01*
X53700521Y-61106214D01*
X53697242Y-61093125D01*
X53695262Y-61079777D01*
X53694600Y-61066300D01*
X53694600Y-60791300D01*
X53695262Y-60777823D01*
X53697242Y-60764475D01*
X53700521Y-60751386D01*
X53705067Y-60738681D01*
X53710836Y-60726483D01*
X53717773Y-60714909D01*
X53725811Y-60704071D01*
X53734873Y-60694073D01*
X53744871Y-60685011D01*
X53755709Y-60676973D01*
X53767283Y-60670036D01*
X53779481Y-60664267D01*
X53792186Y-60659721D01*
X53805275Y-60656442D01*
X53818623Y-60654462D01*
X53832100Y-60653800D01*
X55082100Y-60653800D01*
X55095577Y-60654462D01*
X55095577Y-60654462D01*
G37*
D17*
X54457100Y-60928800D03*
D11*
G36*
X55095577Y-61454462D02*
G01*
X55108925Y-61456442D01*
X55122014Y-61459721D01*
X55134719Y-61464267D01*
X55146917Y-61470036D01*
X55158491Y-61476973D01*
X55169329Y-61485011D01*
X55179327Y-61494073D01*
X55188389Y-61504071D01*
X55196427Y-61514909D01*
X55203364Y-61526483D01*
X55209133Y-61538681D01*
X55213679Y-61551386D01*
X55216958Y-61564475D01*
X55218938Y-61577823D01*
X55219600Y-61591300D01*
X55219600Y-61866300D01*
X55218938Y-61879777D01*
X55216958Y-61893125D01*
X55213679Y-61906214D01*
X55209133Y-61918919D01*
X55203364Y-61931117D01*
X55196427Y-61942691D01*
X55188389Y-61953529D01*
X55179327Y-61963527D01*
X55169329Y-61972589D01*
X55158491Y-61980627D01*
X55146917Y-61987564D01*
X55134719Y-61993333D01*
X55122014Y-61997879D01*
X55108925Y-62001158D01*
X55095577Y-62003138D01*
X55082100Y-62003800D01*
X53832100Y-62003800D01*
X53818623Y-62003138D01*
X53805275Y-62001158D01*
X53792186Y-61997879D01*
X53779481Y-61993333D01*
X53767283Y-61987564D01*
X53755709Y-61980627D01*
X53744871Y-61972589D01*
X53734873Y-61963527D01*
X53725811Y-61953529D01*
X53717773Y-61942691D01*
X53710836Y-61931117D01*
X53705067Y-61918919D01*
X53700521Y-61906214D01*
X53697242Y-61893125D01*
X53695262Y-61879777D01*
X53694600Y-61866300D01*
X53694600Y-61591300D01*
X53695262Y-61577823D01*
X53697242Y-61564475D01*
X53700521Y-61551386D01*
X53705067Y-61538681D01*
X53710836Y-61526483D01*
X53717773Y-61514909D01*
X53725811Y-61504071D01*
X53734873Y-61494073D01*
X53744871Y-61485011D01*
X53755709Y-61476973D01*
X53767283Y-61470036D01*
X53779481Y-61464267D01*
X53792186Y-61459721D01*
X53805275Y-61456442D01*
X53818623Y-61454462D01*
X53832100Y-61453800D01*
X55082100Y-61453800D01*
X55095577Y-61454462D01*
X55095577Y-61454462D01*
G37*
D17*
X54457100Y-61728800D03*
D11*
G36*
X55095577Y-62254462D02*
G01*
X55108925Y-62256442D01*
X55122014Y-62259721D01*
X55134719Y-62264267D01*
X55146917Y-62270036D01*
X55158491Y-62276973D01*
X55169329Y-62285011D01*
X55179327Y-62294073D01*
X55188389Y-62304071D01*
X55196427Y-62314909D01*
X55203364Y-62326483D01*
X55209133Y-62338681D01*
X55213679Y-62351386D01*
X55216958Y-62364475D01*
X55218938Y-62377823D01*
X55219600Y-62391300D01*
X55219600Y-62666300D01*
X55218938Y-62679777D01*
X55216958Y-62693125D01*
X55213679Y-62706214D01*
X55209133Y-62718919D01*
X55203364Y-62731117D01*
X55196427Y-62742691D01*
X55188389Y-62753529D01*
X55179327Y-62763527D01*
X55169329Y-62772589D01*
X55158491Y-62780627D01*
X55146917Y-62787564D01*
X55134719Y-62793333D01*
X55122014Y-62797879D01*
X55108925Y-62801158D01*
X55095577Y-62803138D01*
X55082100Y-62803800D01*
X53832100Y-62803800D01*
X53818623Y-62803138D01*
X53805275Y-62801158D01*
X53792186Y-62797879D01*
X53779481Y-62793333D01*
X53767283Y-62787564D01*
X53755709Y-62780627D01*
X53744871Y-62772589D01*
X53734873Y-62763527D01*
X53725811Y-62753529D01*
X53717773Y-62742691D01*
X53710836Y-62731117D01*
X53705067Y-62718919D01*
X53700521Y-62706214D01*
X53697242Y-62693125D01*
X53695262Y-62679777D01*
X53694600Y-62666300D01*
X53694600Y-62391300D01*
X53695262Y-62377823D01*
X53697242Y-62364475D01*
X53700521Y-62351386D01*
X53705067Y-62338681D01*
X53710836Y-62326483D01*
X53717773Y-62314909D01*
X53725811Y-62304071D01*
X53734873Y-62294073D01*
X53744871Y-62285011D01*
X53755709Y-62276973D01*
X53767283Y-62270036D01*
X53779481Y-62264267D01*
X53792186Y-62259721D01*
X53805275Y-62256442D01*
X53818623Y-62254462D01*
X53832100Y-62253800D01*
X55082100Y-62253800D01*
X55095577Y-62254462D01*
X55095577Y-62254462D01*
G37*
D17*
X54457100Y-62528800D03*
D11*
G36*
X55095577Y-63054462D02*
G01*
X55108925Y-63056442D01*
X55122014Y-63059721D01*
X55134719Y-63064267D01*
X55146917Y-63070036D01*
X55158491Y-63076973D01*
X55169329Y-63085011D01*
X55179327Y-63094073D01*
X55188389Y-63104071D01*
X55196427Y-63114909D01*
X55203364Y-63126483D01*
X55209133Y-63138681D01*
X55213679Y-63151386D01*
X55216958Y-63164475D01*
X55218938Y-63177823D01*
X55219600Y-63191300D01*
X55219600Y-63466300D01*
X55218938Y-63479777D01*
X55216958Y-63493125D01*
X55213679Y-63506214D01*
X55209133Y-63518919D01*
X55203364Y-63531117D01*
X55196427Y-63542691D01*
X55188389Y-63553529D01*
X55179327Y-63563527D01*
X55169329Y-63572589D01*
X55158491Y-63580627D01*
X55146917Y-63587564D01*
X55134719Y-63593333D01*
X55122014Y-63597879D01*
X55108925Y-63601158D01*
X55095577Y-63603138D01*
X55082100Y-63603800D01*
X53832100Y-63603800D01*
X53818623Y-63603138D01*
X53805275Y-63601158D01*
X53792186Y-63597879D01*
X53779481Y-63593333D01*
X53767283Y-63587564D01*
X53755709Y-63580627D01*
X53744871Y-63572589D01*
X53734873Y-63563527D01*
X53725811Y-63553529D01*
X53717773Y-63542691D01*
X53710836Y-63531117D01*
X53705067Y-63518919D01*
X53700521Y-63506214D01*
X53697242Y-63493125D01*
X53695262Y-63479777D01*
X53694600Y-63466300D01*
X53694600Y-63191300D01*
X53695262Y-63177823D01*
X53697242Y-63164475D01*
X53700521Y-63151386D01*
X53705067Y-63138681D01*
X53710836Y-63126483D01*
X53717773Y-63114909D01*
X53725811Y-63104071D01*
X53734873Y-63094073D01*
X53744871Y-63085011D01*
X53755709Y-63076973D01*
X53767283Y-63070036D01*
X53779481Y-63064267D01*
X53792186Y-63059721D01*
X53805275Y-63056442D01*
X53818623Y-63054462D01*
X53832100Y-63053800D01*
X55082100Y-63053800D01*
X55095577Y-63054462D01*
X55095577Y-63054462D01*
G37*
D17*
X54457100Y-63328800D03*
D11*
G36*
X55095577Y-63854462D02*
G01*
X55108925Y-63856442D01*
X55122014Y-63859721D01*
X55134719Y-63864267D01*
X55146917Y-63870036D01*
X55158491Y-63876973D01*
X55169329Y-63885011D01*
X55179327Y-63894073D01*
X55188389Y-63904071D01*
X55196427Y-63914909D01*
X55203364Y-63926483D01*
X55209133Y-63938681D01*
X55213679Y-63951386D01*
X55216958Y-63964475D01*
X55218938Y-63977823D01*
X55219600Y-63991300D01*
X55219600Y-64266300D01*
X55218938Y-64279777D01*
X55216958Y-64293125D01*
X55213679Y-64306214D01*
X55209133Y-64318919D01*
X55203364Y-64331117D01*
X55196427Y-64342691D01*
X55188389Y-64353529D01*
X55179327Y-64363527D01*
X55169329Y-64372589D01*
X55158491Y-64380627D01*
X55146917Y-64387564D01*
X55134719Y-64393333D01*
X55122014Y-64397879D01*
X55108925Y-64401158D01*
X55095577Y-64403138D01*
X55082100Y-64403800D01*
X53832100Y-64403800D01*
X53818623Y-64403138D01*
X53805275Y-64401158D01*
X53792186Y-64397879D01*
X53779481Y-64393333D01*
X53767283Y-64387564D01*
X53755709Y-64380627D01*
X53744871Y-64372589D01*
X53734873Y-64363527D01*
X53725811Y-64353529D01*
X53717773Y-64342691D01*
X53710836Y-64331117D01*
X53705067Y-64318919D01*
X53700521Y-64306214D01*
X53697242Y-64293125D01*
X53695262Y-64279777D01*
X53694600Y-64266300D01*
X53694600Y-63991300D01*
X53695262Y-63977823D01*
X53697242Y-63964475D01*
X53700521Y-63951386D01*
X53705067Y-63938681D01*
X53710836Y-63926483D01*
X53717773Y-63914909D01*
X53725811Y-63904071D01*
X53734873Y-63894073D01*
X53744871Y-63885011D01*
X53755709Y-63876973D01*
X53767283Y-63870036D01*
X53779481Y-63864267D01*
X53792186Y-63859721D01*
X53805275Y-63856442D01*
X53818623Y-63854462D01*
X53832100Y-63853800D01*
X55082100Y-63853800D01*
X55095577Y-63854462D01*
X55095577Y-63854462D01*
G37*
D17*
X54457100Y-64128800D03*
D11*
G36*
X55095577Y-64654462D02*
G01*
X55108925Y-64656442D01*
X55122014Y-64659721D01*
X55134719Y-64664267D01*
X55146917Y-64670036D01*
X55158491Y-64676973D01*
X55169329Y-64685011D01*
X55179327Y-64694073D01*
X55188389Y-64704071D01*
X55196427Y-64714909D01*
X55203364Y-64726483D01*
X55209133Y-64738681D01*
X55213679Y-64751386D01*
X55216958Y-64764475D01*
X55218938Y-64777823D01*
X55219600Y-64791300D01*
X55219600Y-65066300D01*
X55218938Y-65079777D01*
X55216958Y-65093125D01*
X55213679Y-65106214D01*
X55209133Y-65118919D01*
X55203364Y-65131117D01*
X55196427Y-65142691D01*
X55188389Y-65153529D01*
X55179327Y-65163527D01*
X55169329Y-65172589D01*
X55158491Y-65180627D01*
X55146917Y-65187564D01*
X55134719Y-65193333D01*
X55122014Y-65197879D01*
X55108925Y-65201158D01*
X55095577Y-65203138D01*
X55082100Y-65203800D01*
X53832100Y-65203800D01*
X53818623Y-65203138D01*
X53805275Y-65201158D01*
X53792186Y-65197879D01*
X53779481Y-65193333D01*
X53767283Y-65187564D01*
X53755709Y-65180627D01*
X53744871Y-65172589D01*
X53734873Y-65163527D01*
X53725811Y-65153529D01*
X53717773Y-65142691D01*
X53710836Y-65131117D01*
X53705067Y-65118919D01*
X53700521Y-65106214D01*
X53697242Y-65093125D01*
X53695262Y-65079777D01*
X53694600Y-65066300D01*
X53694600Y-64791300D01*
X53695262Y-64777823D01*
X53697242Y-64764475D01*
X53700521Y-64751386D01*
X53705067Y-64738681D01*
X53710836Y-64726483D01*
X53717773Y-64714909D01*
X53725811Y-64704071D01*
X53734873Y-64694073D01*
X53744871Y-64685011D01*
X53755709Y-64676973D01*
X53767283Y-64670036D01*
X53779481Y-64664267D01*
X53792186Y-64659721D01*
X53805275Y-64656442D01*
X53818623Y-64654462D01*
X53832100Y-64653800D01*
X55082100Y-64653800D01*
X55095577Y-64654462D01*
X55095577Y-64654462D01*
G37*
D17*
X54457100Y-64928800D03*
D11*
G36*
X55095577Y-65454462D02*
G01*
X55108925Y-65456442D01*
X55122014Y-65459721D01*
X55134719Y-65464267D01*
X55146917Y-65470036D01*
X55158491Y-65476973D01*
X55169329Y-65485011D01*
X55179327Y-65494073D01*
X55188389Y-65504071D01*
X55196427Y-65514909D01*
X55203364Y-65526483D01*
X55209133Y-65538681D01*
X55213679Y-65551386D01*
X55216958Y-65564475D01*
X55218938Y-65577823D01*
X55219600Y-65591300D01*
X55219600Y-65866300D01*
X55218938Y-65879777D01*
X55216958Y-65893125D01*
X55213679Y-65906214D01*
X55209133Y-65918919D01*
X55203364Y-65931117D01*
X55196427Y-65942691D01*
X55188389Y-65953529D01*
X55179327Y-65963527D01*
X55169329Y-65972589D01*
X55158491Y-65980627D01*
X55146917Y-65987564D01*
X55134719Y-65993333D01*
X55122014Y-65997879D01*
X55108925Y-66001158D01*
X55095577Y-66003138D01*
X55082100Y-66003800D01*
X53832100Y-66003800D01*
X53818623Y-66003138D01*
X53805275Y-66001158D01*
X53792186Y-65997879D01*
X53779481Y-65993333D01*
X53767283Y-65987564D01*
X53755709Y-65980627D01*
X53744871Y-65972589D01*
X53734873Y-65963527D01*
X53725811Y-65953529D01*
X53717773Y-65942691D01*
X53710836Y-65931117D01*
X53705067Y-65918919D01*
X53700521Y-65906214D01*
X53697242Y-65893125D01*
X53695262Y-65879777D01*
X53694600Y-65866300D01*
X53694600Y-65591300D01*
X53695262Y-65577823D01*
X53697242Y-65564475D01*
X53700521Y-65551386D01*
X53705067Y-65538681D01*
X53710836Y-65526483D01*
X53717773Y-65514909D01*
X53725811Y-65504071D01*
X53734873Y-65494073D01*
X53744871Y-65485011D01*
X53755709Y-65476973D01*
X53767283Y-65470036D01*
X53779481Y-65464267D01*
X53792186Y-65459721D01*
X53805275Y-65456442D01*
X53818623Y-65454462D01*
X53832100Y-65453800D01*
X55082100Y-65453800D01*
X55095577Y-65454462D01*
X55095577Y-65454462D01*
G37*
D17*
X54457100Y-65728800D03*
D11*
G36*
X55095577Y-66254462D02*
G01*
X55108925Y-66256442D01*
X55122014Y-66259721D01*
X55134719Y-66264267D01*
X55146917Y-66270036D01*
X55158491Y-66276973D01*
X55169329Y-66285011D01*
X55179327Y-66294073D01*
X55188389Y-66304071D01*
X55196427Y-66314909D01*
X55203364Y-66326483D01*
X55209133Y-66338681D01*
X55213679Y-66351386D01*
X55216958Y-66364475D01*
X55218938Y-66377823D01*
X55219600Y-66391300D01*
X55219600Y-66666300D01*
X55218938Y-66679777D01*
X55216958Y-66693125D01*
X55213679Y-66706214D01*
X55209133Y-66718919D01*
X55203364Y-66731117D01*
X55196427Y-66742691D01*
X55188389Y-66753529D01*
X55179327Y-66763527D01*
X55169329Y-66772589D01*
X55158491Y-66780627D01*
X55146917Y-66787564D01*
X55134719Y-66793333D01*
X55122014Y-66797879D01*
X55108925Y-66801158D01*
X55095577Y-66803138D01*
X55082100Y-66803800D01*
X53832100Y-66803800D01*
X53818623Y-66803138D01*
X53805275Y-66801158D01*
X53792186Y-66797879D01*
X53779481Y-66793333D01*
X53767283Y-66787564D01*
X53755709Y-66780627D01*
X53744871Y-66772589D01*
X53734873Y-66763527D01*
X53725811Y-66753529D01*
X53717773Y-66742691D01*
X53710836Y-66731117D01*
X53705067Y-66718919D01*
X53700521Y-66706214D01*
X53697242Y-66693125D01*
X53695262Y-66679777D01*
X53694600Y-66666300D01*
X53694600Y-66391300D01*
X53695262Y-66377823D01*
X53697242Y-66364475D01*
X53700521Y-66351386D01*
X53705067Y-66338681D01*
X53710836Y-66326483D01*
X53717773Y-66314909D01*
X53725811Y-66304071D01*
X53734873Y-66294073D01*
X53744871Y-66285011D01*
X53755709Y-66276973D01*
X53767283Y-66270036D01*
X53779481Y-66264267D01*
X53792186Y-66259721D01*
X53805275Y-66256442D01*
X53818623Y-66254462D01*
X53832100Y-66253800D01*
X55082100Y-66253800D01*
X55095577Y-66254462D01*
X55095577Y-66254462D01*
G37*
D17*
X54457100Y-66528800D03*
D11*
G36*
X55095577Y-67054462D02*
G01*
X55108925Y-67056442D01*
X55122014Y-67059721D01*
X55134719Y-67064267D01*
X55146917Y-67070036D01*
X55158491Y-67076973D01*
X55169329Y-67085011D01*
X55179327Y-67094073D01*
X55188389Y-67104071D01*
X55196427Y-67114909D01*
X55203364Y-67126483D01*
X55209133Y-67138681D01*
X55213679Y-67151386D01*
X55216958Y-67164475D01*
X55218938Y-67177823D01*
X55219600Y-67191300D01*
X55219600Y-67466300D01*
X55218938Y-67479777D01*
X55216958Y-67493125D01*
X55213679Y-67506214D01*
X55209133Y-67518919D01*
X55203364Y-67531117D01*
X55196427Y-67542691D01*
X55188389Y-67553529D01*
X55179327Y-67563527D01*
X55169329Y-67572589D01*
X55158491Y-67580627D01*
X55146917Y-67587564D01*
X55134719Y-67593333D01*
X55122014Y-67597879D01*
X55108925Y-67601158D01*
X55095577Y-67603138D01*
X55082100Y-67603800D01*
X53832100Y-67603800D01*
X53818623Y-67603138D01*
X53805275Y-67601158D01*
X53792186Y-67597879D01*
X53779481Y-67593333D01*
X53767283Y-67587564D01*
X53755709Y-67580627D01*
X53744871Y-67572589D01*
X53734873Y-67563527D01*
X53725811Y-67553529D01*
X53717773Y-67542691D01*
X53710836Y-67531117D01*
X53705067Y-67518919D01*
X53700521Y-67506214D01*
X53697242Y-67493125D01*
X53695262Y-67479777D01*
X53694600Y-67466300D01*
X53694600Y-67191300D01*
X53695262Y-67177823D01*
X53697242Y-67164475D01*
X53700521Y-67151386D01*
X53705067Y-67138681D01*
X53710836Y-67126483D01*
X53717773Y-67114909D01*
X53725811Y-67104071D01*
X53734873Y-67094073D01*
X53744871Y-67085011D01*
X53755709Y-67076973D01*
X53767283Y-67070036D01*
X53779481Y-67064267D01*
X53792186Y-67059721D01*
X53805275Y-67056442D01*
X53818623Y-67054462D01*
X53832100Y-67053800D01*
X55082100Y-67053800D01*
X55095577Y-67054462D01*
X55095577Y-67054462D01*
G37*
D17*
X54457100Y-67328800D03*
D11*
G36*
X55095577Y-67854462D02*
G01*
X55108925Y-67856442D01*
X55122014Y-67859721D01*
X55134719Y-67864267D01*
X55146917Y-67870036D01*
X55158491Y-67876973D01*
X55169329Y-67885011D01*
X55179327Y-67894073D01*
X55188389Y-67904071D01*
X55196427Y-67914909D01*
X55203364Y-67926483D01*
X55209133Y-67938681D01*
X55213679Y-67951386D01*
X55216958Y-67964475D01*
X55218938Y-67977823D01*
X55219600Y-67991300D01*
X55219600Y-68266300D01*
X55218938Y-68279777D01*
X55216958Y-68293125D01*
X55213679Y-68306214D01*
X55209133Y-68318919D01*
X55203364Y-68331117D01*
X55196427Y-68342691D01*
X55188389Y-68353529D01*
X55179327Y-68363527D01*
X55169329Y-68372589D01*
X55158491Y-68380627D01*
X55146917Y-68387564D01*
X55134719Y-68393333D01*
X55122014Y-68397879D01*
X55108925Y-68401158D01*
X55095577Y-68403138D01*
X55082100Y-68403800D01*
X53832100Y-68403800D01*
X53818623Y-68403138D01*
X53805275Y-68401158D01*
X53792186Y-68397879D01*
X53779481Y-68393333D01*
X53767283Y-68387564D01*
X53755709Y-68380627D01*
X53744871Y-68372589D01*
X53734873Y-68363527D01*
X53725811Y-68353529D01*
X53717773Y-68342691D01*
X53710836Y-68331117D01*
X53705067Y-68318919D01*
X53700521Y-68306214D01*
X53697242Y-68293125D01*
X53695262Y-68279777D01*
X53694600Y-68266300D01*
X53694600Y-67991300D01*
X53695262Y-67977823D01*
X53697242Y-67964475D01*
X53700521Y-67951386D01*
X53705067Y-67938681D01*
X53710836Y-67926483D01*
X53717773Y-67914909D01*
X53725811Y-67904071D01*
X53734873Y-67894073D01*
X53744871Y-67885011D01*
X53755709Y-67876973D01*
X53767283Y-67870036D01*
X53779481Y-67864267D01*
X53792186Y-67859721D01*
X53805275Y-67856442D01*
X53818623Y-67854462D01*
X53832100Y-67853800D01*
X55082100Y-67853800D01*
X55095577Y-67854462D01*
X55095577Y-67854462D01*
G37*
D17*
X54457100Y-68128800D03*
D11*
G36*
X55095577Y-68654462D02*
G01*
X55108925Y-68656442D01*
X55122014Y-68659721D01*
X55134719Y-68664267D01*
X55146917Y-68670036D01*
X55158491Y-68676973D01*
X55169329Y-68685011D01*
X55179327Y-68694073D01*
X55188389Y-68704071D01*
X55196427Y-68714909D01*
X55203364Y-68726483D01*
X55209133Y-68738681D01*
X55213679Y-68751386D01*
X55216958Y-68764475D01*
X55218938Y-68777823D01*
X55219600Y-68791300D01*
X55219600Y-69066300D01*
X55218938Y-69079777D01*
X55216958Y-69093125D01*
X55213679Y-69106214D01*
X55209133Y-69118919D01*
X55203364Y-69131117D01*
X55196427Y-69142691D01*
X55188389Y-69153529D01*
X55179327Y-69163527D01*
X55169329Y-69172589D01*
X55158491Y-69180627D01*
X55146917Y-69187564D01*
X55134719Y-69193333D01*
X55122014Y-69197879D01*
X55108925Y-69201158D01*
X55095577Y-69203138D01*
X55082100Y-69203800D01*
X53832100Y-69203800D01*
X53818623Y-69203138D01*
X53805275Y-69201158D01*
X53792186Y-69197879D01*
X53779481Y-69193333D01*
X53767283Y-69187564D01*
X53755709Y-69180627D01*
X53744871Y-69172589D01*
X53734873Y-69163527D01*
X53725811Y-69153529D01*
X53717773Y-69142691D01*
X53710836Y-69131117D01*
X53705067Y-69118919D01*
X53700521Y-69106214D01*
X53697242Y-69093125D01*
X53695262Y-69079777D01*
X53694600Y-69066300D01*
X53694600Y-68791300D01*
X53695262Y-68777823D01*
X53697242Y-68764475D01*
X53700521Y-68751386D01*
X53705067Y-68738681D01*
X53710836Y-68726483D01*
X53717773Y-68714909D01*
X53725811Y-68704071D01*
X53734873Y-68694073D01*
X53744871Y-68685011D01*
X53755709Y-68676973D01*
X53767283Y-68670036D01*
X53779481Y-68664267D01*
X53792186Y-68659721D01*
X53805275Y-68656442D01*
X53818623Y-68654462D01*
X53832100Y-68653800D01*
X55082100Y-68653800D01*
X55095577Y-68654462D01*
X55095577Y-68654462D01*
G37*
D17*
X54457100Y-68928800D03*
D11*
G36*
X55095577Y-69454462D02*
G01*
X55108925Y-69456442D01*
X55122014Y-69459721D01*
X55134719Y-69464267D01*
X55146917Y-69470036D01*
X55158491Y-69476973D01*
X55169329Y-69485011D01*
X55179327Y-69494073D01*
X55188389Y-69504071D01*
X55196427Y-69514909D01*
X55203364Y-69526483D01*
X55209133Y-69538681D01*
X55213679Y-69551386D01*
X55216958Y-69564475D01*
X55218938Y-69577823D01*
X55219600Y-69591300D01*
X55219600Y-69866300D01*
X55218938Y-69879777D01*
X55216958Y-69893125D01*
X55213679Y-69906214D01*
X55209133Y-69918919D01*
X55203364Y-69931117D01*
X55196427Y-69942691D01*
X55188389Y-69953529D01*
X55179327Y-69963527D01*
X55169329Y-69972589D01*
X55158491Y-69980627D01*
X55146917Y-69987564D01*
X55134719Y-69993333D01*
X55122014Y-69997879D01*
X55108925Y-70001158D01*
X55095577Y-70003138D01*
X55082100Y-70003800D01*
X53832100Y-70003800D01*
X53818623Y-70003138D01*
X53805275Y-70001158D01*
X53792186Y-69997879D01*
X53779481Y-69993333D01*
X53767283Y-69987564D01*
X53755709Y-69980627D01*
X53744871Y-69972589D01*
X53734873Y-69963527D01*
X53725811Y-69953529D01*
X53717773Y-69942691D01*
X53710836Y-69931117D01*
X53705067Y-69918919D01*
X53700521Y-69906214D01*
X53697242Y-69893125D01*
X53695262Y-69879777D01*
X53694600Y-69866300D01*
X53694600Y-69591300D01*
X53695262Y-69577823D01*
X53697242Y-69564475D01*
X53700521Y-69551386D01*
X53705067Y-69538681D01*
X53710836Y-69526483D01*
X53717773Y-69514909D01*
X53725811Y-69504071D01*
X53734873Y-69494073D01*
X53744871Y-69485011D01*
X53755709Y-69476973D01*
X53767283Y-69470036D01*
X53779481Y-69464267D01*
X53792186Y-69459721D01*
X53805275Y-69456442D01*
X53818623Y-69454462D01*
X53832100Y-69453800D01*
X55082100Y-69453800D01*
X55095577Y-69454462D01*
X55095577Y-69454462D01*
G37*
D17*
X54457100Y-69728800D03*
D11*
G36*
X55095577Y-70254462D02*
G01*
X55108925Y-70256442D01*
X55122014Y-70259721D01*
X55134719Y-70264267D01*
X55146917Y-70270036D01*
X55158491Y-70276973D01*
X55169329Y-70285011D01*
X55179327Y-70294073D01*
X55188389Y-70304071D01*
X55196427Y-70314909D01*
X55203364Y-70326483D01*
X55209133Y-70338681D01*
X55213679Y-70351386D01*
X55216958Y-70364475D01*
X55218938Y-70377823D01*
X55219600Y-70391300D01*
X55219600Y-70666300D01*
X55218938Y-70679777D01*
X55216958Y-70693125D01*
X55213679Y-70706214D01*
X55209133Y-70718919D01*
X55203364Y-70731117D01*
X55196427Y-70742691D01*
X55188389Y-70753529D01*
X55179327Y-70763527D01*
X55169329Y-70772589D01*
X55158491Y-70780627D01*
X55146917Y-70787564D01*
X55134719Y-70793333D01*
X55122014Y-70797879D01*
X55108925Y-70801158D01*
X55095577Y-70803138D01*
X55082100Y-70803800D01*
X53832100Y-70803800D01*
X53818623Y-70803138D01*
X53805275Y-70801158D01*
X53792186Y-70797879D01*
X53779481Y-70793333D01*
X53767283Y-70787564D01*
X53755709Y-70780627D01*
X53744871Y-70772589D01*
X53734873Y-70763527D01*
X53725811Y-70753529D01*
X53717773Y-70742691D01*
X53710836Y-70731117D01*
X53705067Y-70718919D01*
X53700521Y-70706214D01*
X53697242Y-70693125D01*
X53695262Y-70679777D01*
X53694600Y-70666300D01*
X53694600Y-70391300D01*
X53695262Y-70377823D01*
X53697242Y-70364475D01*
X53700521Y-70351386D01*
X53705067Y-70338681D01*
X53710836Y-70326483D01*
X53717773Y-70314909D01*
X53725811Y-70304071D01*
X53734873Y-70294073D01*
X53744871Y-70285011D01*
X53755709Y-70276973D01*
X53767283Y-70270036D01*
X53779481Y-70264267D01*
X53792186Y-70259721D01*
X53805275Y-70256442D01*
X53818623Y-70254462D01*
X53832100Y-70253800D01*
X55082100Y-70253800D01*
X55095577Y-70254462D01*
X55095577Y-70254462D01*
G37*
D17*
X54457100Y-70528800D03*
D11*
G36*
X55095577Y-71054462D02*
G01*
X55108925Y-71056442D01*
X55122014Y-71059721D01*
X55134719Y-71064267D01*
X55146917Y-71070036D01*
X55158491Y-71076973D01*
X55169329Y-71085011D01*
X55179327Y-71094073D01*
X55188389Y-71104071D01*
X55196427Y-71114909D01*
X55203364Y-71126483D01*
X55209133Y-71138681D01*
X55213679Y-71151386D01*
X55216958Y-71164475D01*
X55218938Y-71177823D01*
X55219600Y-71191300D01*
X55219600Y-71466300D01*
X55218938Y-71479777D01*
X55216958Y-71493125D01*
X55213679Y-71506214D01*
X55209133Y-71518919D01*
X55203364Y-71531117D01*
X55196427Y-71542691D01*
X55188389Y-71553529D01*
X55179327Y-71563527D01*
X55169329Y-71572589D01*
X55158491Y-71580627D01*
X55146917Y-71587564D01*
X55134719Y-71593333D01*
X55122014Y-71597879D01*
X55108925Y-71601158D01*
X55095577Y-71603138D01*
X55082100Y-71603800D01*
X53832100Y-71603800D01*
X53818623Y-71603138D01*
X53805275Y-71601158D01*
X53792186Y-71597879D01*
X53779481Y-71593333D01*
X53767283Y-71587564D01*
X53755709Y-71580627D01*
X53744871Y-71572589D01*
X53734873Y-71563527D01*
X53725811Y-71553529D01*
X53717773Y-71542691D01*
X53710836Y-71531117D01*
X53705067Y-71518919D01*
X53700521Y-71506214D01*
X53697242Y-71493125D01*
X53695262Y-71479777D01*
X53694600Y-71466300D01*
X53694600Y-71191300D01*
X53695262Y-71177823D01*
X53697242Y-71164475D01*
X53700521Y-71151386D01*
X53705067Y-71138681D01*
X53710836Y-71126483D01*
X53717773Y-71114909D01*
X53725811Y-71104071D01*
X53734873Y-71094073D01*
X53744871Y-71085011D01*
X53755709Y-71076973D01*
X53767283Y-71070036D01*
X53779481Y-71064267D01*
X53792186Y-71059721D01*
X53805275Y-71056442D01*
X53818623Y-71054462D01*
X53832100Y-71053800D01*
X55082100Y-71053800D01*
X55095577Y-71054462D01*
X55095577Y-71054462D01*
G37*
D17*
X54457100Y-71328800D03*
D11*
G36*
X55095577Y-71854462D02*
G01*
X55108925Y-71856442D01*
X55122014Y-71859721D01*
X55134719Y-71864267D01*
X55146917Y-71870036D01*
X55158491Y-71876973D01*
X55169329Y-71885011D01*
X55179327Y-71894073D01*
X55188389Y-71904071D01*
X55196427Y-71914909D01*
X55203364Y-71926483D01*
X55209133Y-71938681D01*
X55213679Y-71951386D01*
X55216958Y-71964475D01*
X55218938Y-71977823D01*
X55219600Y-71991300D01*
X55219600Y-72266300D01*
X55218938Y-72279777D01*
X55216958Y-72293125D01*
X55213679Y-72306214D01*
X55209133Y-72318919D01*
X55203364Y-72331117D01*
X55196427Y-72342691D01*
X55188389Y-72353529D01*
X55179327Y-72363527D01*
X55169329Y-72372589D01*
X55158491Y-72380627D01*
X55146917Y-72387564D01*
X55134719Y-72393333D01*
X55122014Y-72397879D01*
X55108925Y-72401158D01*
X55095577Y-72403138D01*
X55082100Y-72403800D01*
X53832100Y-72403800D01*
X53818623Y-72403138D01*
X53805275Y-72401158D01*
X53792186Y-72397879D01*
X53779481Y-72393333D01*
X53767283Y-72387564D01*
X53755709Y-72380627D01*
X53744871Y-72372589D01*
X53734873Y-72363527D01*
X53725811Y-72353529D01*
X53717773Y-72342691D01*
X53710836Y-72331117D01*
X53705067Y-72318919D01*
X53700521Y-72306214D01*
X53697242Y-72293125D01*
X53695262Y-72279777D01*
X53694600Y-72266300D01*
X53694600Y-71991300D01*
X53695262Y-71977823D01*
X53697242Y-71964475D01*
X53700521Y-71951386D01*
X53705067Y-71938681D01*
X53710836Y-71926483D01*
X53717773Y-71914909D01*
X53725811Y-71904071D01*
X53734873Y-71894073D01*
X53744871Y-71885011D01*
X53755709Y-71876973D01*
X53767283Y-71870036D01*
X53779481Y-71864267D01*
X53792186Y-71859721D01*
X53805275Y-71856442D01*
X53818623Y-71854462D01*
X53832100Y-71853800D01*
X55082100Y-71853800D01*
X55095577Y-71854462D01*
X55095577Y-71854462D01*
G37*
D17*
X54457100Y-72128800D03*
D11*
G36*
X55095577Y-72654462D02*
G01*
X55108925Y-72656442D01*
X55122014Y-72659721D01*
X55134719Y-72664267D01*
X55146917Y-72670036D01*
X55158491Y-72676973D01*
X55169329Y-72685011D01*
X55179327Y-72694073D01*
X55188389Y-72704071D01*
X55196427Y-72714909D01*
X55203364Y-72726483D01*
X55209133Y-72738681D01*
X55213679Y-72751386D01*
X55216958Y-72764475D01*
X55218938Y-72777823D01*
X55219600Y-72791300D01*
X55219600Y-73066300D01*
X55218938Y-73079777D01*
X55216958Y-73093125D01*
X55213679Y-73106214D01*
X55209133Y-73118919D01*
X55203364Y-73131117D01*
X55196427Y-73142691D01*
X55188389Y-73153529D01*
X55179327Y-73163527D01*
X55169329Y-73172589D01*
X55158491Y-73180627D01*
X55146917Y-73187564D01*
X55134719Y-73193333D01*
X55122014Y-73197879D01*
X55108925Y-73201158D01*
X55095577Y-73203138D01*
X55082100Y-73203800D01*
X53832100Y-73203800D01*
X53818623Y-73203138D01*
X53805275Y-73201158D01*
X53792186Y-73197879D01*
X53779481Y-73193333D01*
X53767283Y-73187564D01*
X53755709Y-73180627D01*
X53744871Y-73172589D01*
X53734873Y-73163527D01*
X53725811Y-73153529D01*
X53717773Y-73142691D01*
X53710836Y-73131117D01*
X53705067Y-73118919D01*
X53700521Y-73106214D01*
X53697242Y-73093125D01*
X53695262Y-73079777D01*
X53694600Y-73066300D01*
X53694600Y-72791300D01*
X53695262Y-72777823D01*
X53697242Y-72764475D01*
X53700521Y-72751386D01*
X53705067Y-72738681D01*
X53710836Y-72726483D01*
X53717773Y-72714909D01*
X53725811Y-72704071D01*
X53734873Y-72694073D01*
X53744871Y-72685011D01*
X53755709Y-72676973D01*
X53767283Y-72670036D01*
X53779481Y-72664267D01*
X53792186Y-72659721D01*
X53805275Y-72656442D01*
X53818623Y-72654462D01*
X53832100Y-72653800D01*
X55082100Y-72653800D01*
X55095577Y-72654462D01*
X55095577Y-72654462D01*
G37*
D17*
X54457100Y-72928800D03*
D11*
G36*
X55095577Y-73454462D02*
G01*
X55108925Y-73456442D01*
X55122014Y-73459721D01*
X55134719Y-73464267D01*
X55146917Y-73470036D01*
X55158491Y-73476973D01*
X55169329Y-73485011D01*
X55179327Y-73494073D01*
X55188389Y-73504071D01*
X55196427Y-73514909D01*
X55203364Y-73526483D01*
X55209133Y-73538681D01*
X55213679Y-73551386D01*
X55216958Y-73564475D01*
X55218938Y-73577823D01*
X55219600Y-73591300D01*
X55219600Y-73866300D01*
X55218938Y-73879777D01*
X55216958Y-73893125D01*
X55213679Y-73906214D01*
X55209133Y-73918919D01*
X55203364Y-73931117D01*
X55196427Y-73942691D01*
X55188389Y-73953529D01*
X55179327Y-73963527D01*
X55169329Y-73972589D01*
X55158491Y-73980627D01*
X55146917Y-73987564D01*
X55134719Y-73993333D01*
X55122014Y-73997879D01*
X55108925Y-74001158D01*
X55095577Y-74003138D01*
X55082100Y-74003800D01*
X53832100Y-74003800D01*
X53818623Y-74003138D01*
X53805275Y-74001158D01*
X53792186Y-73997879D01*
X53779481Y-73993333D01*
X53767283Y-73987564D01*
X53755709Y-73980627D01*
X53744871Y-73972589D01*
X53734873Y-73963527D01*
X53725811Y-73953529D01*
X53717773Y-73942691D01*
X53710836Y-73931117D01*
X53705067Y-73918919D01*
X53700521Y-73906214D01*
X53697242Y-73893125D01*
X53695262Y-73879777D01*
X53694600Y-73866300D01*
X53694600Y-73591300D01*
X53695262Y-73577823D01*
X53697242Y-73564475D01*
X53700521Y-73551386D01*
X53705067Y-73538681D01*
X53710836Y-73526483D01*
X53717773Y-73514909D01*
X53725811Y-73504071D01*
X53734873Y-73494073D01*
X53744871Y-73485011D01*
X53755709Y-73476973D01*
X53767283Y-73470036D01*
X53779481Y-73464267D01*
X53792186Y-73459721D01*
X53805275Y-73456442D01*
X53818623Y-73454462D01*
X53832100Y-73453800D01*
X55082100Y-73453800D01*
X55095577Y-73454462D01*
X55095577Y-73454462D01*
G37*
D17*
X54457100Y-73728800D03*
D18*
X77658400Y-67019100D03*
X77658400Y-71619100D03*
X77658400Y-69319100D03*
D19*
X71358400Y-69319100D03*
X71315200Y-59316600D03*
D18*
X77615200Y-59316600D03*
X77615200Y-61616600D03*
X77615200Y-57016600D03*
D11*
G36*
X74548258Y-50460410D02*
G01*
X74562576Y-50462534D01*
X74576617Y-50466051D01*
X74590246Y-50470928D01*
X74603331Y-50477117D01*
X74615747Y-50484558D01*
X74627373Y-50493181D01*
X74638098Y-50502902D01*
X74647819Y-50513627D01*
X74656442Y-50525253D01*
X74663883Y-50537669D01*
X74670072Y-50550754D01*
X74674949Y-50564383D01*
X74678466Y-50578424D01*
X74680590Y-50592742D01*
X74681300Y-50607200D01*
X74681300Y-50952200D01*
X74680590Y-50966658D01*
X74678466Y-50980976D01*
X74674949Y-50995017D01*
X74670072Y-51008646D01*
X74663883Y-51021731D01*
X74656442Y-51034147D01*
X74647819Y-51045773D01*
X74638098Y-51056498D01*
X74627373Y-51066219D01*
X74615747Y-51074842D01*
X74603331Y-51082283D01*
X74590246Y-51088472D01*
X74576617Y-51093349D01*
X74562576Y-51096866D01*
X74548258Y-51098990D01*
X74533800Y-51099700D01*
X74238800Y-51099700D01*
X74224342Y-51098990D01*
X74210024Y-51096866D01*
X74195983Y-51093349D01*
X74182354Y-51088472D01*
X74169269Y-51082283D01*
X74156853Y-51074842D01*
X74145227Y-51066219D01*
X74134502Y-51056498D01*
X74124781Y-51045773D01*
X74116158Y-51034147D01*
X74108717Y-51021731D01*
X74102528Y-51008646D01*
X74097651Y-50995017D01*
X74094134Y-50980976D01*
X74092010Y-50966658D01*
X74091300Y-50952200D01*
X74091300Y-50607200D01*
X74092010Y-50592742D01*
X74094134Y-50578424D01*
X74097651Y-50564383D01*
X74102528Y-50550754D01*
X74108717Y-50537669D01*
X74116158Y-50525253D01*
X74124781Y-50513627D01*
X74134502Y-50502902D01*
X74145227Y-50493181D01*
X74156853Y-50484558D01*
X74169269Y-50477117D01*
X74182354Y-50470928D01*
X74195983Y-50466051D01*
X74210024Y-50462534D01*
X74224342Y-50460410D01*
X74238800Y-50459700D01*
X74533800Y-50459700D01*
X74548258Y-50460410D01*
X74548258Y-50460410D01*
G37*
D13*
X74386300Y-50779700D03*
D11*
G36*
X73578258Y-50460410D02*
G01*
X73592576Y-50462534D01*
X73606617Y-50466051D01*
X73620246Y-50470928D01*
X73633331Y-50477117D01*
X73645747Y-50484558D01*
X73657373Y-50493181D01*
X73668098Y-50502902D01*
X73677819Y-50513627D01*
X73686442Y-50525253D01*
X73693883Y-50537669D01*
X73700072Y-50550754D01*
X73704949Y-50564383D01*
X73708466Y-50578424D01*
X73710590Y-50592742D01*
X73711300Y-50607200D01*
X73711300Y-50952200D01*
X73710590Y-50966658D01*
X73708466Y-50980976D01*
X73704949Y-50995017D01*
X73700072Y-51008646D01*
X73693883Y-51021731D01*
X73686442Y-51034147D01*
X73677819Y-51045773D01*
X73668098Y-51056498D01*
X73657373Y-51066219D01*
X73645747Y-51074842D01*
X73633331Y-51082283D01*
X73620246Y-51088472D01*
X73606617Y-51093349D01*
X73592576Y-51096866D01*
X73578258Y-51098990D01*
X73563800Y-51099700D01*
X73268800Y-51099700D01*
X73254342Y-51098990D01*
X73240024Y-51096866D01*
X73225983Y-51093349D01*
X73212354Y-51088472D01*
X73199269Y-51082283D01*
X73186853Y-51074842D01*
X73175227Y-51066219D01*
X73164502Y-51056498D01*
X73154781Y-51045773D01*
X73146158Y-51034147D01*
X73138717Y-51021731D01*
X73132528Y-51008646D01*
X73127651Y-50995017D01*
X73124134Y-50980976D01*
X73122010Y-50966658D01*
X73121300Y-50952200D01*
X73121300Y-50607200D01*
X73122010Y-50592742D01*
X73124134Y-50578424D01*
X73127651Y-50564383D01*
X73132528Y-50550754D01*
X73138717Y-50537669D01*
X73146158Y-50525253D01*
X73154781Y-50513627D01*
X73164502Y-50502902D01*
X73175227Y-50493181D01*
X73186853Y-50484558D01*
X73199269Y-50477117D01*
X73212354Y-50470928D01*
X73225983Y-50466051D01*
X73240024Y-50462534D01*
X73254342Y-50460410D01*
X73268800Y-50459700D01*
X73563800Y-50459700D01*
X73578258Y-50460410D01*
X73578258Y-50460410D01*
G37*
D13*
X73416300Y-50779700D03*
D11*
G36*
X68457358Y-50460410D02*
G01*
X68471676Y-50462534D01*
X68485717Y-50466051D01*
X68499346Y-50470928D01*
X68512431Y-50477117D01*
X68524847Y-50484558D01*
X68536473Y-50493181D01*
X68547198Y-50502902D01*
X68556919Y-50513627D01*
X68565542Y-50525253D01*
X68572983Y-50537669D01*
X68579172Y-50550754D01*
X68584049Y-50564383D01*
X68587566Y-50578424D01*
X68589690Y-50592742D01*
X68590400Y-50607200D01*
X68590400Y-50952200D01*
X68589690Y-50966658D01*
X68587566Y-50980976D01*
X68584049Y-50995017D01*
X68579172Y-51008646D01*
X68572983Y-51021731D01*
X68565542Y-51034147D01*
X68556919Y-51045773D01*
X68547198Y-51056498D01*
X68536473Y-51066219D01*
X68524847Y-51074842D01*
X68512431Y-51082283D01*
X68499346Y-51088472D01*
X68485717Y-51093349D01*
X68471676Y-51096866D01*
X68457358Y-51098990D01*
X68442900Y-51099700D01*
X68147900Y-51099700D01*
X68133442Y-51098990D01*
X68119124Y-51096866D01*
X68105083Y-51093349D01*
X68091454Y-51088472D01*
X68078369Y-51082283D01*
X68065953Y-51074842D01*
X68054327Y-51066219D01*
X68043602Y-51056498D01*
X68033881Y-51045773D01*
X68025258Y-51034147D01*
X68017817Y-51021731D01*
X68011628Y-51008646D01*
X68006751Y-50995017D01*
X68003234Y-50980976D01*
X68001110Y-50966658D01*
X68000400Y-50952200D01*
X68000400Y-50607200D01*
X68001110Y-50592742D01*
X68003234Y-50578424D01*
X68006751Y-50564383D01*
X68011628Y-50550754D01*
X68017817Y-50537669D01*
X68025258Y-50525253D01*
X68033881Y-50513627D01*
X68043602Y-50502902D01*
X68054327Y-50493181D01*
X68065953Y-50484558D01*
X68078369Y-50477117D01*
X68091454Y-50470928D01*
X68105083Y-50466051D01*
X68119124Y-50462534D01*
X68133442Y-50460410D01*
X68147900Y-50459700D01*
X68442900Y-50459700D01*
X68457358Y-50460410D01*
X68457358Y-50460410D01*
G37*
D13*
X68295400Y-50779700D03*
D11*
G36*
X67487358Y-50460410D02*
G01*
X67501676Y-50462534D01*
X67515717Y-50466051D01*
X67529346Y-50470928D01*
X67542431Y-50477117D01*
X67554847Y-50484558D01*
X67566473Y-50493181D01*
X67577198Y-50502902D01*
X67586919Y-50513627D01*
X67595542Y-50525253D01*
X67602983Y-50537669D01*
X67609172Y-50550754D01*
X67614049Y-50564383D01*
X67617566Y-50578424D01*
X67619690Y-50592742D01*
X67620400Y-50607200D01*
X67620400Y-50952200D01*
X67619690Y-50966658D01*
X67617566Y-50980976D01*
X67614049Y-50995017D01*
X67609172Y-51008646D01*
X67602983Y-51021731D01*
X67595542Y-51034147D01*
X67586919Y-51045773D01*
X67577198Y-51056498D01*
X67566473Y-51066219D01*
X67554847Y-51074842D01*
X67542431Y-51082283D01*
X67529346Y-51088472D01*
X67515717Y-51093349D01*
X67501676Y-51096866D01*
X67487358Y-51098990D01*
X67472900Y-51099700D01*
X67177900Y-51099700D01*
X67163442Y-51098990D01*
X67149124Y-51096866D01*
X67135083Y-51093349D01*
X67121454Y-51088472D01*
X67108369Y-51082283D01*
X67095953Y-51074842D01*
X67084327Y-51066219D01*
X67073602Y-51056498D01*
X67063881Y-51045773D01*
X67055258Y-51034147D01*
X67047817Y-51021731D01*
X67041628Y-51008646D01*
X67036751Y-50995017D01*
X67033234Y-50980976D01*
X67031110Y-50966658D01*
X67030400Y-50952200D01*
X67030400Y-50607200D01*
X67031110Y-50592742D01*
X67033234Y-50578424D01*
X67036751Y-50564383D01*
X67041628Y-50550754D01*
X67047817Y-50537669D01*
X67055258Y-50525253D01*
X67063881Y-50513627D01*
X67073602Y-50502902D01*
X67084327Y-50493181D01*
X67095953Y-50484558D01*
X67108369Y-50477117D01*
X67121454Y-50470928D01*
X67135083Y-50466051D01*
X67149124Y-50462534D01*
X67163442Y-50460410D01*
X67177900Y-50459700D01*
X67472900Y-50459700D01*
X67487358Y-50460410D01*
X67487358Y-50460410D01*
G37*
D13*
X67325400Y-50779700D03*
M02*
