G04 #@! TF.GenerationSoftware,KiCad,Pcbnew,5.1.1-8be2ce7~80~ubuntu18.10.1*
G04 #@! TF.CreationDate,2019-06-22T16:49:51+02:00*
G04 #@! TF.ProjectId,Spartan6,53706172-7461-46e3-962e-6b696361645f,rev?*
G04 #@! TF.SameCoordinates,Original*
G04 #@! TF.FileFunction,Soldermask,Bot*
G04 #@! TF.FilePolarity,Negative*
%FSLAX46Y46*%
G04 Gerber Fmt 4.6, Leading zero omitted, Abs format (unit mm)*
G04 Created by KiCad (PCBNEW 5.1.1-8be2ce7~80~ubuntu18.10.1) date 2019-06-22 16:49:51*
%MOMM*%
%LPD*%
G04 APERTURE LIST*
%ADD10C,0.100000*%
G04 APERTURE END LIST*
D10*
G36*
X43183362Y-88822968D02*
G01*
X43492924Y-88951193D01*
X43492925Y-88951194D01*
X43771524Y-89137347D01*
X44008453Y-89374276D01*
X44086489Y-89491066D01*
X44194607Y-89652876D01*
X44322832Y-89962438D01*
X44388200Y-90291065D01*
X44388200Y-90626135D01*
X44322832Y-90954762D01*
X44194607Y-91264324D01*
X44194606Y-91264325D01*
X44008453Y-91542924D01*
X43771524Y-91779853D01*
X43585370Y-91904237D01*
X43492924Y-91966007D01*
X43183362Y-92094232D01*
X42854735Y-92159600D01*
X42519665Y-92159600D01*
X42191038Y-92094232D01*
X41881476Y-91966007D01*
X41789030Y-91904237D01*
X41602876Y-91779853D01*
X41365947Y-91542924D01*
X41179794Y-91264325D01*
X41179793Y-91264324D01*
X41051568Y-90954762D01*
X40986200Y-90626135D01*
X40986200Y-90291065D01*
X41051568Y-89962438D01*
X41179793Y-89652876D01*
X41287911Y-89491066D01*
X41365947Y-89374276D01*
X41602876Y-89137347D01*
X41881475Y-88951194D01*
X41881476Y-88951193D01*
X42191038Y-88822968D01*
X42519665Y-88757600D01*
X42854735Y-88757600D01*
X43183362Y-88822968D01*
X43183362Y-88822968D01*
G37*
G36*
X49933362Y-88022968D02*
G01*
X50242924Y-88151193D01*
X50242925Y-88151194D01*
X50521524Y-88337347D01*
X50758453Y-88574276D01*
X50880946Y-88757600D01*
X50944607Y-88852876D01*
X51072832Y-89162438D01*
X51138200Y-89491065D01*
X51138200Y-89826135D01*
X51072832Y-90154762D01*
X50944607Y-90464324D01*
X50944606Y-90464325D01*
X50758453Y-90742924D01*
X50521524Y-90979853D01*
X50335370Y-91104237D01*
X50242924Y-91166007D01*
X49933362Y-91294232D01*
X49604735Y-91359600D01*
X49269665Y-91359600D01*
X48941038Y-91294232D01*
X48631476Y-91166007D01*
X48539030Y-91104237D01*
X48352876Y-90979853D01*
X48115947Y-90742924D01*
X47929794Y-90464325D01*
X47929793Y-90464324D01*
X47801568Y-90154762D01*
X47736200Y-89826135D01*
X47736200Y-89491065D01*
X47801568Y-89162438D01*
X47929793Y-88852876D01*
X47993454Y-88757600D01*
X48115947Y-88574276D01*
X48352876Y-88337347D01*
X48631475Y-88151194D01*
X48631476Y-88151193D01*
X48941038Y-88022968D01*
X49269665Y-87957600D01*
X49604735Y-87957600D01*
X49933362Y-88022968D01*
X49933362Y-88022968D01*
G37*
G36*
X36433362Y-88022968D02*
G01*
X36742924Y-88151193D01*
X36742925Y-88151194D01*
X37021524Y-88337347D01*
X37258453Y-88574276D01*
X37380946Y-88757600D01*
X37444607Y-88852876D01*
X37572832Y-89162438D01*
X37638200Y-89491065D01*
X37638200Y-89826135D01*
X37572832Y-90154762D01*
X37444607Y-90464324D01*
X37444606Y-90464325D01*
X37258453Y-90742924D01*
X37021524Y-90979853D01*
X36835370Y-91104237D01*
X36742924Y-91166007D01*
X36433362Y-91294232D01*
X36104735Y-91359600D01*
X35769665Y-91359600D01*
X35441038Y-91294232D01*
X35131476Y-91166007D01*
X35039030Y-91104237D01*
X34852876Y-90979853D01*
X34615947Y-90742924D01*
X34429794Y-90464325D01*
X34429793Y-90464324D01*
X34301568Y-90154762D01*
X34236200Y-89826135D01*
X34236200Y-89491065D01*
X34301568Y-89162438D01*
X34429793Y-88852876D01*
X34493454Y-88757600D01*
X34615947Y-88574276D01*
X34852876Y-88337347D01*
X35131475Y-88151194D01*
X35131476Y-88151193D01*
X35441038Y-88022968D01*
X35769665Y-87957600D01*
X36104735Y-87957600D01*
X36433362Y-88022968D01*
X36433362Y-88022968D01*
G37*
G36*
X69776628Y-86509703D02*
G01*
X69931500Y-86573853D01*
X70070881Y-86666985D01*
X70189415Y-86785519D01*
X70282547Y-86924900D01*
X70346697Y-87079772D01*
X70379400Y-87244184D01*
X70379400Y-87411816D01*
X70346697Y-87576228D01*
X70282547Y-87731100D01*
X70189415Y-87870481D01*
X70070881Y-87989015D01*
X69931500Y-88082147D01*
X69776628Y-88146297D01*
X69612216Y-88179000D01*
X69444584Y-88179000D01*
X69280172Y-88146297D01*
X69125300Y-88082147D01*
X68985919Y-87989015D01*
X68867385Y-87870481D01*
X68774253Y-87731100D01*
X68710103Y-87576228D01*
X68677400Y-87411816D01*
X68677400Y-87244184D01*
X68710103Y-87079772D01*
X68774253Y-86924900D01*
X68867385Y-86785519D01*
X68985919Y-86666985D01*
X69125300Y-86573853D01*
X69280172Y-86509703D01*
X69444584Y-86477000D01*
X69612216Y-86477000D01*
X69776628Y-86509703D01*
X69776628Y-86509703D01*
G37*
G36*
X72546628Y-86509703D02*
G01*
X72701500Y-86573853D01*
X72840881Y-86666985D01*
X72959415Y-86785519D01*
X73052547Y-86924900D01*
X73116697Y-87079772D01*
X73149400Y-87244184D01*
X73149400Y-87411816D01*
X73116697Y-87576228D01*
X73052547Y-87731100D01*
X72959415Y-87870481D01*
X72840881Y-87989015D01*
X72701500Y-88082147D01*
X72546628Y-88146297D01*
X72382216Y-88179000D01*
X72214584Y-88179000D01*
X72050172Y-88146297D01*
X71895300Y-88082147D01*
X71755919Y-87989015D01*
X71637385Y-87870481D01*
X71544253Y-87731100D01*
X71480103Y-87576228D01*
X71447400Y-87411816D01*
X71447400Y-87244184D01*
X71480103Y-87079772D01*
X71544253Y-86924900D01*
X71637385Y-86785519D01*
X71755919Y-86666985D01*
X71895300Y-86573853D01*
X72050172Y-86509703D01*
X72214584Y-86477000D01*
X72382216Y-86477000D01*
X72546628Y-86509703D01*
X72546628Y-86509703D01*
G37*
G36*
X64236628Y-86509703D02*
G01*
X64391500Y-86573853D01*
X64530881Y-86666985D01*
X64649415Y-86785519D01*
X64742547Y-86924900D01*
X64806697Y-87079772D01*
X64839400Y-87244184D01*
X64839400Y-87411816D01*
X64806697Y-87576228D01*
X64742547Y-87731100D01*
X64649415Y-87870481D01*
X64530881Y-87989015D01*
X64391500Y-88082147D01*
X64236628Y-88146297D01*
X64072216Y-88179000D01*
X63904584Y-88179000D01*
X63740172Y-88146297D01*
X63585300Y-88082147D01*
X63445919Y-87989015D01*
X63327385Y-87870481D01*
X63234253Y-87731100D01*
X63170103Y-87576228D01*
X63137400Y-87411816D01*
X63137400Y-87244184D01*
X63170103Y-87079772D01*
X63234253Y-86924900D01*
X63327385Y-86785519D01*
X63445919Y-86666985D01*
X63585300Y-86573853D01*
X63740172Y-86509703D01*
X63904584Y-86477000D01*
X64072216Y-86477000D01*
X64236628Y-86509703D01*
X64236628Y-86509703D01*
G37*
G36*
X67006628Y-86509703D02*
G01*
X67161500Y-86573853D01*
X67300881Y-86666985D01*
X67419415Y-86785519D01*
X67512547Y-86924900D01*
X67576697Y-87079772D01*
X67609400Y-87244184D01*
X67609400Y-87411816D01*
X67576697Y-87576228D01*
X67512547Y-87731100D01*
X67419415Y-87870481D01*
X67300881Y-87989015D01*
X67161500Y-88082147D01*
X67006628Y-88146297D01*
X66842216Y-88179000D01*
X66674584Y-88179000D01*
X66510172Y-88146297D01*
X66355300Y-88082147D01*
X66215919Y-87989015D01*
X66097385Y-87870481D01*
X66004253Y-87731100D01*
X65940103Y-87576228D01*
X65907400Y-87411816D01*
X65907400Y-87244184D01*
X65940103Y-87079772D01*
X66004253Y-86924900D01*
X66097385Y-86785519D01*
X66215919Y-86666985D01*
X66355300Y-86573853D01*
X66510172Y-86509703D01*
X66674584Y-86477000D01*
X66842216Y-86477000D01*
X67006628Y-86509703D01*
X67006628Y-86509703D01*
G37*
G36*
X56241654Y-83935818D02*
G01*
X56601570Y-84084900D01*
X56614913Y-84090427D01*
X56950836Y-84314884D01*
X57236516Y-84600564D01*
X57327165Y-84736229D01*
X57460974Y-84936489D01*
X57615582Y-85309746D01*
X57694400Y-85705993D01*
X57694400Y-86110007D01*
X57615582Y-86506254D01*
X57499906Y-86785520D01*
X57460973Y-86879513D01*
X57236516Y-87215436D01*
X56950836Y-87501116D01*
X56614913Y-87725573D01*
X56614912Y-87725574D01*
X56614911Y-87725574D01*
X56241654Y-87880182D01*
X55845407Y-87959000D01*
X55441393Y-87959000D01*
X55045146Y-87880182D01*
X54671889Y-87725574D01*
X54671888Y-87725574D01*
X54671887Y-87725573D01*
X54335964Y-87501116D01*
X54050284Y-87215436D01*
X53825827Y-86879513D01*
X53786894Y-86785520D01*
X53671218Y-86506254D01*
X53592400Y-86110007D01*
X53592400Y-85705993D01*
X53671218Y-85309746D01*
X53825826Y-84936489D01*
X53959636Y-84736229D01*
X54050284Y-84600564D01*
X54335964Y-84314884D01*
X54671887Y-84090427D01*
X54685230Y-84084900D01*
X55045146Y-83935818D01*
X55441393Y-83857000D01*
X55845407Y-83857000D01*
X56241654Y-83935818D01*
X56241654Y-83935818D01*
G37*
G36*
X81241654Y-83935818D02*
G01*
X81601570Y-84084900D01*
X81614913Y-84090427D01*
X81950836Y-84314884D01*
X82236516Y-84600564D01*
X82327165Y-84736229D01*
X82460974Y-84936489D01*
X82615582Y-85309746D01*
X82694400Y-85705993D01*
X82694400Y-86110007D01*
X82615582Y-86506254D01*
X82499906Y-86785520D01*
X82460973Y-86879513D01*
X82236516Y-87215436D01*
X81950836Y-87501116D01*
X81614913Y-87725573D01*
X81614912Y-87725574D01*
X81614911Y-87725574D01*
X81241654Y-87880182D01*
X80845407Y-87959000D01*
X80441393Y-87959000D01*
X80045146Y-87880182D01*
X79671889Y-87725574D01*
X79671888Y-87725574D01*
X79671887Y-87725573D01*
X79335964Y-87501116D01*
X79050284Y-87215436D01*
X78825827Y-86879513D01*
X78786894Y-86785520D01*
X78671218Y-86506254D01*
X78592400Y-86110007D01*
X78592400Y-85705993D01*
X78671218Y-85309746D01*
X78825826Y-84936489D01*
X78959636Y-84736229D01*
X79050284Y-84600564D01*
X79335964Y-84314884D01*
X79671887Y-84090427D01*
X79685230Y-84084900D01*
X80045146Y-83935818D01*
X80441393Y-83857000D01*
X80845407Y-83857000D01*
X81241654Y-83935818D01*
X81241654Y-83935818D01*
G37*
G36*
X46324342Y-85876842D02*
G01*
X46472301Y-85938129D01*
X46605455Y-86027099D01*
X46718701Y-86140345D01*
X46807671Y-86273499D01*
X46868958Y-86421458D01*
X46900200Y-86578525D01*
X46900200Y-86738675D01*
X46868958Y-86895742D01*
X46807671Y-87043701D01*
X46718701Y-87176855D01*
X46605455Y-87290101D01*
X46472301Y-87379071D01*
X46324342Y-87440358D01*
X46167275Y-87471600D01*
X46007125Y-87471600D01*
X45850058Y-87440358D01*
X45702099Y-87379071D01*
X45568945Y-87290101D01*
X45455699Y-87176855D01*
X45366729Y-87043701D01*
X45305442Y-86895742D01*
X45274200Y-86738675D01*
X45274200Y-86578525D01*
X45305442Y-86421458D01*
X45366729Y-86273499D01*
X45455699Y-86140345D01*
X45568945Y-86027099D01*
X45702099Y-85938129D01*
X45850058Y-85876842D01*
X46007125Y-85845600D01*
X46167275Y-85845600D01*
X46324342Y-85876842D01*
X46324342Y-85876842D01*
G37*
G36*
X44224342Y-85876842D02*
G01*
X44372301Y-85938129D01*
X44505455Y-86027099D01*
X44618701Y-86140345D01*
X44707671Y-86273499D01*
X44768958Y-86421458D01*
X44800200Y-86578525D01*
X44800200Y-86738675D01*
X44768958Y-86895742D01*
X44707671Y-87043701D01*
X44618701Y-87176855D01*
X44505455Y-87290101D01*
X44372301Y-87379071D01*
X44224342Y-87440358D01*
X44067275Y-87471600D01*
X43907125Y-87471600D01*
X43750058Y-87440358D01*
X43602099Y-87379071D01*
X43468945Y-87290101D01*
X43355699Y-87176855D01*
X43266729Y-87043701D01*
X43205442Y-86895742D01*
X43174200Y-86738675D01*
X43174200Y-86578525D01*
X43205442Y-86421458D01*
X43266729Y-86273499D01*
X43355699Y-86140345D01*
X43468945Y-86027099D01*
X43602099Y-85938129D01*
X43750058Y-85876842D01*
X43907125Y-85845600D01*
X44067275Y-85845600D01*
X44224342Y-85876842D01*
X44224342Y-85876842D01*
G37*
G36*
X41624342Y-85876842D02*
G01*
X41772301Y-85938129D01*
X41905455Y-86027099D01*
X42018701Y-86140345D01*
X42107671Y-86273499D01*
X42168958Y-86421458D01*
X42200200Y-86578525D01*
X42200200Y-86738675D01*
X42168958Y-86895742D01*
X42107671Y-87043701D01*
X42018701Y-87176855D01*
X41905455Y-87290101D01*
X41772301Y-87379071D01*
X41624342Y-87440358D01*
X41467275Y-87471600D01*
X41307125Y-87471600D01*
X41150058Y-87440358D01*
X41002099Y-87379071D01*
X40868945Y-87290101D01*
X40755699Y-87176855D01*
X40666729Y-87043701D01*
X40605442Y-86895742D01*
X40574200Y-86738675D01*
X40574200Y-86578525D01*
X40605442Y-86421458D01*
X40666729Y-86273499D01*
X40755699Y-86140345D01*
X40868945Y-86027099D01*
X41002099Y-85938129D01*
X41150058Y-85876842D01*
X41307125Y-85845600D01*
X41467275Y-85845600D01*
X41624342Y-85876842D01*
X41624342Y-85876842D01*
G37*
G36*
X39524342Y-85876842D02*
G01*
X39672301Y-85938129D01*
X39805455Y-86027099D01*
X39918701Y-86140345D01*
X40007671Y-86273499D01*
X40068958Y-86421458D01*
X40100200Y-86578525D01*
X40100200Y-86738675D01*
X40068958Y-86895742D01*
X40007671Y-87043701D01*
X39918701Y-87176855D01*
X39805455Y-87290101D01*
X39672301Y-87379071D01*
X39524342Y-87440358D01*
X39367275Y-87471600D01*
X39207125Y-87471600D01*
X39050058Y-87440358D01*
X38902099Y-87379071D01*
X38768945Y-87290101D01*
X38655699Y-87176855D01*
X38566729Y-87043701D01*
X38505442Y-86895742D01*
X38474200Y-86738675D01*
X38474200Y-86578525D01*
X38505442Y-86421458D01*
X38566729Y-86273499D01*
X38655699Y-86140345D01*
X38768945Y-86027099D01*
X38902099Y-85938129D01*
X39050058Y-85876842D01*
X39207125Y-85845600D01*
X39367275Y-85845600D01*
X39524342Y-85876842D01*
X39524342Y-85876842D01*
G37*
G36*
X73931628Y-83669703D02*
G01*
X74086500Y-83733853D01*
X74225881Y-83826985D01*
X74344415Y-83945519D01*
X74437547Y-84084900D01*
X74501697Y-84239772D01*
X74534400Y-84404184D01*
X74534400Y-84571816D01*
X74501697Y-84736228D01*
X74437547Y-84891100D01*
X74344415Y-85030481D01*
X74225881Y-85149015D01*
X74086500Y-85242147D01*
X73931628Y-85306297D01*
X73767216Y-85339000D01*
X73599584Y-85339000D01*
X73435172Y-85306297D01*
X73280300Y-85242147D01*
X73140919Y-85149015D01*
X73022385Y-85030481D01*
X72929253Y-84891100D01*
X72865103Y-84736228D01*
X72832400Y-84571816D01*
X72832400Y-84404184D01*
X72865103Y-84239772D01*
X72929253Y-84084900D01*
X73022385Y-83945519D01*
X73140919Y-83826985D01*
X73280300Y-83733853D01*
X73435172Y-83669703D01*
X73599584Y-83637000D01*
X73767216Y-83637000D01*
X73931628Y-83669703D01*
X73931628Y-83669703D01*
G37*
G36*
X71161628Y-83669703D02*
G01*
X71316500Y-83733853D01*
X71455881Y-83826985D01*
X71574415Y-83945519D01*
X71667547Y-84084900D01*
X71731697Y-84239772D01*
X71764400Y-84404184D01*
X71764400Y-84571816D01*
X71731697Y-84736228D01*
X71667547Y-84891100D01*
X71574415Y-85030481D01*
X71455881Y-85149015D01*
X71316500Y-85242147D01*
X71161628Y-85306297D01*
X70997216Y-85339000D01*
X70829584Y-85339000D01*
X70665172Y-85306297D01*
X70510300Y-85242147D01*
X70370919Y-85149015D01*
X70252385Y-85030481D01*
X70159253Y-84891100D01*
X70095103Y-84736228D01*
X70062400Y-84571816D01*
X70062400Y-84404184D01*
X70095103Y-84239772D01*
X70159253Y-84084900D01*
X70252385Y-83945519D01*
X70370919Y-83826985D01*
X70510300Y-83733853D01*
X70665172Y-83669703D01*
X70829584Y-83637000D01*
X70997216Y-83637000D01*
X71161628Y-83669703D01*
X71161628Y-83669703D01*
G37*
G36*
X65621628Y-83669703D02*
G01*
X65776500Y-83733853D01*
X65915881Y-83826985D01*
X66034415Y-83945519D01*
X66127547Y-84084900D01*
X66191697Y-84239772D01*
X66224400Y-84404184D01*
X66224400Y-84571816D01*
X66191697Y-84736228D01*
X66127547Y-84891100D01*
X66034415Y-85030481D01*
X65915881Y-85149015D01*
X65776500Y-85242147D01*
X65621628Y-85306297D01*
X65457216Y-85339000D01*
X65289584Y-85339000D01*
X65125172Y-85306297D01*
X64970300Y-85242147D01*
X64830919Y-85149015D01*
X64712385Y-85030481D01*
X64619253Y-84891100D01*
X64555103Y-84736228D01*
X64522400Y-84571816D01*
X64522400Y-84404184D01*
X64555103Y-84239772D01*
X64619253Y-84084900D01*
X64712385Y-83945519D01*
X64830919Y-83826985D01*
X64970300Y-83733853D01*
X65125172Y-83669703D01*
X65289584Y-83637000D01*
X65457216Y-83637000D01*
X65621628Y-83669703D01*
X65621628Y-83669703D01*
G37*
G36*
X63454400Y-85339000D02*
G01*
X61752400Y-85339000D01*
X61752400Y-83637000D01*
X63454400Y-83637000D01*
X63454400Y-85339000D01*
X63454400Y-85339000D01*
G37*
G36*
X68391628Y-83669703D02*
G01*
X68546500Y-83733853D01*
X68685881Y-83826985D01*
X68804415Y-83945519D01*
X68897547Y-84084900D01*
X68961697Y-84239772D01*
X68994400Y-84404184D01*
X68994400Y-84571816D01*
X68961697Y-84736228D01*
X68897547Y-84891100D01*
X68804415Y-85030481D01*
X68685881Y-85149015D01*
X68546500Y-85242147D01*
X68391628Y-85306297D01*
X68227216Y-85339000D01*
X68059584Y-85339000D01*
X67895172Y-85306297D01*
X67740300Y-85242147D01*
X67600919Y-85149015D01*
X67482385Y-85030481D01*
X67389253Y-84891100D01*
X67325103Y-84736228D01*
X67292400Y-84571816D01*
X67292400Y-84404184D01*
X67325103Y-84239772D01*
X67389253Y-84084900D01*
X67482385Y-83945519D01*
X67600919Y-83826985D01*
X67740300Y-83733853D01*
X67895172Y-83669703D01*
X68059584Y-83637000D01*
X68227216Y-83637000D01*
X68391628Y-83669703D01*
X68391628Y-83669703D01*
G37*
G36*
X39524342Y-83376842D02*
G01*
X39672301Y-83438129D01*
X39805455Y-83527099D01*
X39918701Y-83640345D01*
X40007671Y-83773499D01*
X40068958Y-83921458D01*
X40100200Y-84078525D01*
X40100200Y-84238675D01*
X40068958Y-84395742D01*
X40007671Y-84543701D01*
X39918701Y-84676855D01*
X39805455Y-84790101D01*
X39672301Y-84879071D01*
X39524342Y-84940358D01*
X39367275Y-84971600D01*
X39207125Y-84971600D01*
X39050058Y-84940358D01*
X38902099Y-84879071D01*
X38768945Y-84790101D01*
X38655699Y-84676855D01*
X38566729Y-84543701D01*
X38505442Y-84395742D01*
X38474200Y-84238675D01*
X38474200Y-84078525D01*
X38505442Y-83921458D01*
X38566729Y-83773499D01*
X38655699Y-83640345D01*
X38768945Y-83527099D01*
X38902099Y-83438129D01*
X39050058Y-83376842D01*
X39207125Y-83345600D01*
X39367275Y-83345600D01*
X39524342Y-83376842D01*
X39524342Y-83376842D01*
G37*
G36*
X46324342Y-83376842D02*
G01*
X46472301Y-83438129D01*
X46605455Y-83527099D01*
X46718701Y-83640345D01*
X46807671Y-83773499D01*
X46868958Y-83921458D01*
X46900200Y-84078525D01*
X46900200Y-84238675D01*
X46868958Y-84395742D01*
X46807671Y-84543701D01*
X46718701Y-84676855D01*
X46605455Y-84790101D01*
X46472301Y-84879071D01*
X46324342Y-84940358D01*
X46167275Y-84971600D01*
X46007125Y-84971600D01*
X45850058Y-84940358D01*
X45702099Y-84879071D01*
X45568945Y-84790101D01*
X45455699Y-84676855D01*
X45366729Y-84543701D01*
X45305442Y-84395742D01*
X45274200Y-84238675D01*
X45274200Y-84078525D01*
X45305442Y-83921458D01*
X45366729Y-83773499D01*
X45455699Y-83640345D01*
X45568945Y-83527099D01*
X45702099Y-83438129D01*
X45850058Y-83376842D01*
X46007125Y-83345600D01*
X46167275Y-83345600D01*
X46324342Y-83376842D01*
X46324342Y-83376842D01*
G37*
G36*
X80953698Y-73593947D02*
G01*
X80989267Y-73604737D01*
X81022039Y-73622254D01*
X81050769Y-73645831D01*
X81074346Y-73674561D01*
X81091863Y-73707333D01*
X81102653Y-73742902D01*
X81106900Y-73786025D01*
X81106900Y-74895375D01*
X81102653Y-74938498D01*
X81091863Y-74974067D01*
X81074346Y-75006839D01*
X81050769Y-75035569D01*
X81022039Y-75059146D01*
X80989267Y-75076663D01*
X80953698Y-75087453D01*
X80910575Y-75091700D01*
X79851225Y-75091700D01*
X79808102Y-75087453D01*
X79772533Y-75076663D01*
X79739761Y-75059146D01*
X79711031Y-75035569D01*
X79687454Y-75006839D01*
X79669937Y-74974067D01*
X79659147Y-74938498D01*
X79654900Y-74895375D01*
X79654900Y-73786025D01*
X79659147Y-73742902D01*
X79669937Y-73707333D01*
X79687454Y-73674561D01*
X79711031Y-73645831D01*
X79739761Y-73622254D01*
X79772533Y-73604737D01*
X79808102Y-73593947D01*
X79851225Y-73589700D01*
X80910575Y-73589700D01*
X80953698Y-73593947D01*
X80953698Y-73593947D01*
G37*
G36*
X44014587Y-56605324D02*
G01*
X44033330Y-56611010D01*
X44050597Y-56620239D01*
X44065736Y-56632664D01*
X44078161Y-56647803D01*
X44087390Y-56665070D01*
X44093076Y-56683813D01*
X44095600Y-56709440D01*
X44095600Y-57148160D01*
X44093076Y-57173787D01*
X44087390Y-57192530D01*
X44078161Y-57209797D01*
X44065735Y-57224938D01*
X44056917Y-57232175D01*
X44039590Y-57249502D01*
X44025977Y-57269876D01*
X44016599Y-57292515D01*
X44011819Y-57316548D01*
X44011819Y-57341052D01*
X44016599Y-57365085D01*
X44025977Y-57387724D01*
X44039591Y-57408099D01*
X44056917Y-57425425D01*
X44065735Y-57432662D01*
X44078161Y-57447803D01*
X44087390Y-57465070D01*
X44093076Y-57483813D01*
X44095600Y-57509440D01*
X44095600Y-57948160D01*
X44093076Y-57973787D01*
X44087390Y-57992530D01*
X44078161Y-58009797D01*
X44065735Y-58024938D01*
X44056917Y-58032175D01*
X44039590Y-58049502D01*
X44025977Y-58069876D01*
X44016599Y-58092515D01*
X44011819Y-58116548D01*
X44011819Y-58141052D01*
X44016599Y-58165085D01*
X44025977Y-58187724D01*
X44039591Y-58208099D01*
X44056917Y-58225425D01*
X44065735Y-58232662D01*
X44078161Y-58247803D01*
X44087390Y-58265070D01*
X44093076Y-58283813D01*
X44095600Y-58309440D01*
X44095600Y-58748160D01*
X44093076Y-58773787D01*
X44087390Y-58792530D01*
X44078161Y-58809797D01*
X44065735Y-58824938D01*
X44056917Y-58832175D01*
X44039590Y-58849502D01*
X44025977Y-58869876D01*
X44016599Y-58892515D01*
X44011819Y-58916548D01*
X44011819Y-58941052D01*
X44016599Y-58965085D01*
X44025977Y-58987724D01*
X44039591Y-59008099D01*
X44056917Y-59025425D01*
X44065735Y-59032662D01*
X44078161Y-59047803D01*
X44087390Y-59065070D01*
X44093076Y-59083813D01*
X44095600Y-59109440D01*
X44095600Y-59548160D01*
X44093076Y-59573787D01*
X44087390Y-59592530D01*
X44078161Y-59609797D01*
X44065735Y-59624938D01*
X44056917Y-59632175D01*
X44039590Y-59649502D01*
X44025977Y-59669876D01*
X44016599Y-59692515D01*
X44011819Y-59716548D01*
X44011819Y-59741052D01*
X44016599Y-59765085D01*
X44025977Y-59787724D01*
X44039591Y-59808099D01*
X44056917Y-59825425D01*
X44065735Y-59832662D01*
X44078161Y-59847803D01*
X44087390Y-59865070D01*
X44093076Y-59883813D01*
X44095600Y-59909440D01*
X44095600Y-60348160D01*
X44093076Y-60373787D01*
X44087390Y-60392530D01*
X44078161Y-60409797D01*
X44065735Y-60424938D01*
X44056917Y-60432175D01*
X44039590Y-60449502D01*
X44025977Y-60469876D01*
X44016599Y-60492515D01*
X44011819Y-60516548D01*
X44011819Y-60541052D01*
X44016599Y-60565085D01*
X44025977Y-60587724D01*
X44039591Y-60608099D01*
X44056917Y-60625425D01*
X44065735Y-60632662D01*
X44078161Y-60647803D01*
X44087390Y-60665070D01*
X44093076Y-60683813D01*
X44095600Y-60709440D01*
X44095600Y-61148160D01*
X44093076Y-61173787D01*
X44087390Y-61192530D01*
X44078161Y-61209797D01*
X44065735Y-61224938D01*
X44056917Y-61232175D01*
X44039590Y-61249502D01*
X44025977Y-61269876D01*
X44016599Y-61292515D01*
X44011819Y-61316548D01*
X44011819Y-61341052D01*
X44016599Y-61365085D01*
X44025977Y-61387724D01*
X44039591Y-61408099D01*
X44056917Y-61425425D01*
X44065735Y-61432662D01*
X44078161Y-61447803D01*
X44087390Y-61465070D01*
X44093076Y-61483813D01*
X44095600Y-61509440D01*
X44095600Y-61948160D01*
X44093076Y-61973787D01*
X44087390Y-61992530D01*
X44078161Y-62009797D01*
X44065735Y-62024938D01*
X44056917Y-62032175D01*
X44039590Y-62049502D01*
X44025977Y-62069876D01*
X44016599Y-62092515D01*
X44011819Y-62116548D01*
X44011819Y-62141052D01*
X44016599Y-62165085D01*
X44025977Y-62187724D01*
X44039591Y-62208099D01*
X44056917Y-62225425D01*
X44065735Y-62232662D01*
X44078161Y-62247803D01*
X44087390Y-62265070D01*
X44093076Y-62283813D01*
X44095600Y-62309440D01*
X44095600Y-62748160D01*
X44093076Y-62773787D01*
X44087390Y-62792530D01*
X44078161Y-62809797D01*
X44065735Y-62824938D01*
X44056917Y-62832175D01*
X44039590Y-62849502D01*
X44025977Y-62869876D01*
X44016599Y-62892515D01*
X44011819Y-62916548D01*
X44011819Y-62941052D01*
X44016599Y-62965085D01*
X44025977Y-62987724D01*
X44039591Y-63008099D01*
X44056917Y-63025425D01*
X44065735Y-63032662D01*
X44078161Y-63047803D01*
X44087390Y-63065070D01*
X44093076Y-63083813D01*
X44095600Y-63109440D01*
X44095600Y-63548160D01*
X44093076Y-63573787D01*
X44087390Y-63592530D01*
X44078161Y-63609797D01*
X44065735Y-63624938D01*
X44056917Y-63632175D01*
X44039590Y-63649502D01*
X44025977Y-63669876D01*
X44016599Y-63692515D01*
X44011819Y-63716548D01*
X44011819Y-63741052D01*
X44016599Y-63765085D01*
X44025977Y-63787724D01*
X44039591Y-63808099D01*
X44056917Y-63825425D01*
X44065735Y-63832662D01*
X44078161Y-63847803D01*
X44087390Y-63865070D01*
X44093076Y-63883813D01*
X44095600Y-63909440D01*
X44095600Y-64348160D01*
X44093076Y-64373787D01*
X44087390Y-64392530D01*
X44078161Y-64409797D01*
X44065735Y-64424938D01*
X44056917Y-64432175D01*
X44039590Y-64449502D01*
X44025977Y-64469876D01*
X44016599Y-64492515D01*
X44011819Y-64516548D01*
X44011819Y-64541052D01*
X44016599Y-64565085D01*
X44025977Y-64587724D01*
X44039591Y-64608099D01*
X44056917Y-64625425D01*
X44065735Y-64632662D01*
X44078161Y-64647803D01*
X44087390Y-64665070D01*
X44093076Y-64683813D01*
X44095600Y-64709440D01*
X44095600Y-65148160D01*
X44093076Y-65173787D01*
X44087390Y-65192530D01*
X44078161Y-65209797D01*
X44065735Y-65224938D01*
X44056917Y-65232175D01*
X44039590Y-65249502D01*
X44025977Y-65269876D01*
X44016599Y-65292515D01*
X44011819Y-65316548D01*
X44011819Y-65341052D01*
X44016599Y-65365085D01*
X44025977Y-65387724D01*
X44039591Y-65408099D01*
X44056917Y-65425425D01*
X44065735Y-65432662D01*
X44078161Y-65447803D01*
X44087390Y-65465070D01*
X44093076Y-65483813D01*
X44095600Y-65509440D01*
X44095600Y-65948160D01*
X44093076Y-65973787D01*
X44087390Y-65992530D01*
X44078161Y-66009797D01*
X44065735Y-66024938D01*
X44056917Y-66032175D01*
X44039590Y-66049502D01*
X44025977Y-66069876D01*
X44016599Y-66092515D01*
X44011819Y-66116548D01*
X44011819Y-66141052D01*
X44016599Y-66165085D01*
X44025977Y-66187724D01*
X44039591Y-66208099D01*
X44056917Y-66225425D01*
X44065735Y-66232662D01*
X44078161Y-66247803D01*
X44087390Y-66265070D01*
X44093076Y-66283813D01*
X44095600Y-66309440D01*
X44095600Y-66748160D01*
X44093076Y-66773787D01*
X44087390Y-66792530D01*
X44078161Y-66809797D01*
X44065735Y-66824938D01*
X44056917Y-66832175D01*
X44039590Y-66849502D01*
X44025977Y-66869876D01*
X44016599Y-66892515D01*
X44011819Y-66916548D01*
X44011819Y-66941052D01*
X44016599Y-66965085D01*
X44025977Y-66987724D01*
X44039591Y-67008099D01*
X44056917Y-67025425D01*
X44065735Y-67032662D01*
X44078161Y-67047803D01*
X44087390Y-67065070D01*
X44093076Y-67083813D01*
X44095600Y-67109440D01*
X44095600Y-67548160D01*
X44093076Y-67573787D01*
X44087390Y-67592530D01*
X44078161Y-67609797D01*
X44065735Y-67624938D01*
X44056917Y-67632175D01*
X44039590Y-67649502D01*
X44025977Y-67669876D01*
X44016599Y-67692515D01*
X44011819Y-67716548D01*
X44011819Y-67741052D01*
X44016599Y-67765085D01*
X44025977Y-67787724D01*
X44039591Y-67808099D01*
X44056917Y-67825425D01*
X44065735Y-67832662D01*
X44078161Y-67847803D01*
X44087390Y-67865070D01*
X44093076Y-67883813D01*
X44095600Y-67909440D01*
X44095600Y-68348160D01*
X44093076Y-68373787D01*
X44087390Y-68392530D01*
X44078161Y-68409797D01*
X44065735Y-68424938D01*
X44056917Y-68432175D01*
X44039590Y-68449502D01*
X44025977Y-68469876D01*
X44016599Y-68492515D01*
X44011819Y-68516548D01*
X44011819Y-68541052D01*
X44016599Y-68565085D01*
X44025977Y-68587724D01*
X44039591Y-68608099D01*
X44056917Y-68625425D01*
X44065735Y-68632662D01*
X44078161Y-68647803D01*
X44087390Y-68665070D01*
X44093076Y-68683813D01*
X44095600Y-68709440D01*
X44095600Y-69148160D01*
X44093076Y-69173787D01*
X44087390Y-69192530D01*
X44078161Y-69209797D01*
X44065735Y-69224938D01*
X44056917Y-69232175D01*
X44039590Y-69249502D01*
X44025977Y-69269876D01*
X44016599Y-69292515D01*
X44011819Y-69316548D01*
X44011819Y-69341052D01*
X44016599Y-69365085D01*
X44025977Y-69387724D01*
X44039591Y-69408099D01*
X44056917Y-69425425D01*
X44065735Y-69432662D01*
X44078161Y-69447803D01*
X44087390Y-69465070D01*
X44093076Y-69483813D01*
X44095600Y-69509440D01*
X44095600Y-69948160D01*
X44093076Y-69973787D01*
X44087390Y-69992530D01*
X44078161Y-70009797D01*
X44065735Y-70024938D01*
X44056917Y-70032175D01*
X44039590Y-70049502D01*
X44025977Y-70069876D01*
X44016599Y-70092515D01*
X44011819Y-70116548D01*
X44011819Y-70141052D01*
X44016599Y-70165085D01*
X44025977Y-70187724D01*
X44039591Y-70208099D01*
X44056917Y-70225425D01*
X44065735Y-70232662D01*
X44078161Y-70247803D01*
X44087390Y-70265070D01*
X44093076Y-70283813D01*
X44095600Y-70309440D01*
X44095600Y-70748160D01*
X44093076Y-70773787D01*
X44087390Y-70792530D01*
X44078161Y-70809797D01*
X44065735Y-70824938D01*
X44056917Y-70832175D01*
X44039590Y-70849502D01*
X44025977Y-70869876D01*
X44016599Y-70892515D01*
X44011819Y-70916548D01*
X44011819Y-70941052D01*
X44016599Y-70965085D01*
X44025977Y-70987724D01*
X44039591Y-71008099D01*
X44056917Y-71025425D01*
X44065735Y-71032662D01*
X44078161Y-71047803D01*
X44087390Y-71065070D01*
X44093076Y-71083813D01*
X44095600Y-71109440D01*
X44095600Y-71548160D01*
X44093076Y-71573787D01*
X44087390Y-71592530D01*
X44078161Y-71609797D01*
X44065735Y-71624938D01*
X44056917Y-71632175D01*
X44039590Y-71649502D01*
X44025977Y-71669876D01*
X44016599Y-71692515D01*
X44011819Y-71716548D01*
X44011819Y-71741052D01*
X44016599Y-71765085D01*
X44025977Y-71787724D01*
X44039591Y-71808099D01*
X44056917Y-71825425D01*
X44065735Y-71832662D01*
X44078161Y-71847803D01*
X44087390Y-71865070D01*
X44093076Y-71883813D01*
X44095600Y-71909440D01*
X44095600Y-72348160D01*
X44093076Y-72373787D01*
X44087390Y-72392530D01*
X44078161Y-72409797D01*
X44065735Y-72424938D01*
X44056917Y-72432175D01*
X44039590Y-72449502D01*
X44025977Y-72469876D01*
X44016599Y-72492515D01*
X44011819Y-72516548D01*
X44011819Y-72541052D01*
X44016599Y-72565085D01*
X44025977Y-72587724D01*
X44039591Y-72608099D01*
X44056917Y-72625425D01*
X44065735Y-72632662D01*
X44078161Y-72647803D01*
X44087390Y-72665070D01*
X44093076Y-72683813D01*
X44095600Y-72709440D01*
X44095600Y-73148160D01*
X44093076Y-73173787D01*
X44087390Y-73192530D01*
X44078161Y-73209797D01*
X44065735Y-73224938D01*
X44056917Y-73232175D01*
X44039590Y-73249502D01*
X44025977Y-73269876D01*
X44016599Y-73292515D01*
X44011819Y-73316548D01*
X44011819Y-73341052D01*
X44016599Y-73365085D01*
X44025977Y-73387724D01*
X44039591Y-73408099D01*
X44056917Y-73425425D01*
X44065735Y-73432662D01*
X44078161Y-73447803D01*
X44087390Y-73465070D01*
X44093076Y-73483813D01*
X44095600Y-73509440D01*
X44095600Y-73948160D01*
X44093076Y-73973787D01*
X44087390Y-73992530D01*
X44078161Y-74009797D01*
X44065736Y-74024936D01*
X44050597Y-74037361D01*
X44033330Y-74046590D01*
X44014587Y-74052276D01*
X43988960Y-74054800D01*
X42575240Y-74054800D01*
X42549613Y-74052276D01*
X42530870Y-74046590D01*
X42513603Y-74037361D01*
X42498464Y-74024936D01*
X42486039Y-74009797D01*
X42476810Y-73992530D01*
X42471124Y-73973787D01*
X42468600Y-73948160D01*
X42468600Y-73509440D01*
X42471124Y-73483813D01*
X42476810Y-73465070D01*
X42486039Y-73447803D01*
X42498465Y-73432662D01*
X42507283Y-73425425D01*
X42524610Y-73408098D01*
X42538223Y-73387724D01*
X42547601Y-73365085D01*
X42552381Y-73341052D01*
X42552381Y-73316548D01*
X42547601Y-73292515D01*
X42538223Y-73269876D01*
X42524609Y-73249501D01*
X42507283Y-73232175D01*
X42498465Y-73224938D01*
X42486039Y-73209797D01*
X42476810Y-73192530D01*
X42471124Y-73173787D01*
X42468600Y-73148160D01*
X42468600Y-72709440D01*
X42471124Y-72683813D01*
X42476810Y-72665070D01*
X42486039Y-72647803D01*
X42498465Y-72632662D01*
X42507283Y-72625425D01*
X42524610Y-72608098D01*
X42538223Y-72587724D01*
X42547601Y-72565085D01*
X42552381Y-72541052D01*
X42552381Y-72516548D01*
X42547601Y-72492515D01*
X42538223Y-72469876D01*
X42524609Y-72449501D01*
X42507283Y-72432175D01*
X42498465Y-72424938D01*
X42486039Y-72409797D01*
X42476810Y-72392530D01*
X42471124Y-72373787D01*
X42468600Y-72348160D01*
X42468600Y-71909440D01*
X42471124Y-71883813D01*
X42476810Y-71865070D01*
X42486039Y-71847803D01*
X42498465Y-71832662D01*
X42507283Y-71825425D01*
X42524610Y-71808098D01*
X42538223Y-71787724D01*
X42547601Y-71765085D01*
X42552381Y-71741052D01*
X42552381Y-71716548D01*
X42547601Y-71692515D01*
X42538223Y-71669876D01*
X42524609Y-71649501D01*
X42507283Y-71632175D01*
X42498465Y-71624938D01*
X42486039Y-71609797D01*
X42476810Y-71592530D01*
X42471124Y-71573787D01*
X42468600Y-71548160D01*
X42468600Y-71109440D01*
X42471124Y-71083813D01*
X42476810Y-71065070D01*
X42486039Y-71047803D01*
X42498465Y-71032662D01*
X42507283Y-71025425D01*
X42524610Y-71008098D01*
X42538223Y-70987724D01*
X42547601Y-70965085D01*
X42552381Y-70941052D01*
X42552381Y-70916548D01*
X42547601Y-70892515D01*
X42538223Y-70869876D01*
X42524609Y-70849501D01*
X42507283Y-70832175D01*
X42498465Y-70824938D01*
X42486039Y-70809797D01*
X42476810Y-70792530D01*
X42471124Y-70773787D01*
X42468600Y-70748160D01*
X42468600Y-70309440D01*
X42471124Y-70283813D01*
X42476810Y-70265070D01*
X42486039Y-70247803D01*
X42498465Y-70232662D01*
X42507283Y-70225425D01*
X42524610Y-70208098D01*
X42538223Y-70187724D01*
X42547601Y-70165085D01*
X42552381Y-70141052D01*
X42552381Y-70116548D01*
X42547601Y-70092515D01*
X42538223Y-70069876D01*
X42524609Y-70049501D01*
X42507283Y-70032175D01*
X42498465Y-70024938D01*
X42486039Y-70009797D01*
X42476810Y-69992530D01*
X42471124Y-69973787D01*
X42468600Y-69948160D01*
X42468600Y-69509440D01*
X42471124Y-69483813D01*
X42476810Y-69465070D01*
X42486039Y-69447803D01*
X42498465Y-69432662D01*
X42507283Y-69425425D01*
X42524610Y-69408098D01*
X42538223Y-69387724D01*
X42547601Y-69365085D01*
X42552381Y-69341052D01*
X42552381Y-69316548D01*
X42547601Y-69292515D01*
X42538223Y-69269876D01*
X42524609Y-69249501D01*
X42507283Y-69232175D01*
X42498465Y-69224938D01*
X42486039Y-69209797D01*
X42476810Y-69192530D01*
X42471124Y-69173787D01*
X42468600Y-69148160D01*
X42468600Y-68709440D01*
X42471124Y-68683813D01*
X42476810Y-68665070D01*
X42486039Y-68647803D01*
X42498465Y-68632662D01*
X42507283Y-68625425D01*
X42524610Y-68608098D01*
X42538223Y-68587724D01*
X42547601Y-68565085D01*
X42552381Y-68541052D01*
X42552381Y-68516548D01*
X42547601Y-68492515D01*
X42538223Y-68469876D01*
X42524609Y-68449501D01*
X42507283Y-68432175D01*
X42498465Y-68424938D01*
X42486039Y-68409797D01*
X42476810Y-68392530D01*
X42471124Y-68373787D01*
X42468600Y-68348160D01*
X42468600Y-67909440D01*
X42471124Y-67883813D01*
X42476810Y-67865070D01*
X42486039Y-67847803D01*
X42498465Y-67832662D01*
X42507283Y-67825425D01*
X42524610Y-67808098D01*
X42538223Y-67787724D01*
X42547601Y-67765085D01*
X42552381Y-67741052D01*
X42552381Y-67716548D01*
X42547601Y-67692515D01*
X42538223Y-67669876D01*
X42524609Y-67649501D01*
X42507283Y-67632175D01*
X42498465Y-67624938D01*
X42486039Y-67609797D01*
X42476810Y-67592530D01*
X42471124Y-67573787D01*
X42468600Y-67548160D01*
X42468600Y-67109440D01*
X42471124Y-67083813D01*
X42476810Y-67065070D01*
X42486039Y-67047803D01*
X42498465Y-67032662D01*
X42507283Y-67025425D01*
X42524610Y-67008098D01*
X42538223Y-66987724D01*
X42547601Y-66965085D01*
X42552381Y-66941052D01*
X42552381Y-66916548D01*
X42547601Y-66892515D01*
X42538223Y-66869876D01*
X42524609Y-66849501D01*
X42507283Y-66832175D01*
X42498465Y-66824938D01*
X42486039Y-66809797D01*
X42476810Y-66792530D01*
X42471124Y-66773787D01*
X42468600Y-66748160D01*
X42468600Y-66309440D01*
X42471124Y-66283813D01*
X42476810Y-66265070D01*
X42486039Y-66247803D01*
X42498465Y-66232662D01*
X42507283Y-66225425D01*
X42524610Y-66208098D01*
X42538223Y-66187724D01*
X42547601Y-66165085D01*
X42552381Y-66141052D01*
X42552381Y-66116548D01*
X42547601Y-66092515D01*
X42538223Y-66069876D01*
X42524609Y-66049501D01*
X42507283Y-66032175D01*
X42498465Y-66024938D01*
X42486039Y-66009797D01*
X42476810Y-65992530D01*
X42471124Y-65973787D01*
X42468600Y-65948160D01*
X42468600Y-65509440D01*
X42471124Y-65483813D01*
X42476810Y-65465070D01*
X42486039Y-65447803D01*
X42498465Y-65432662D01*
X42507283Y-65425425D01*
X42524610Y-65408098D01*
X42538223Y-65387724D01*
X42547601Y-65365085D01*
X42552381Y-65341052D01*
X42552381Y-65316548D01*
X42547601Y-65292515D01*
X42538223Y-65269876D01*
X42524609Y-65249501D01*
X42507283Y-65232175D01*
X42498465Y-65224938D01*
X42486039Y-65209797D01*
X42476810Y-65192530D01*
X42471124Y-65173787D01*
X42468600Y-65148160D01*
X42468600Y-64709440D01*
X42471124Y-64683813D01*
X42476810Y-64665070D01*
X42486039Y-64647803D01*
X42498465Y-64632662D01*
X42507283Y-64625425D01*
X42524610Y-64608098D01*
X42538223Y-64587724D01*
X42547601Y-64565085D01*
X42552381Y-64541052D01*
X42552381Y-64516548D01*
X42547601Y-64492515D01*
X42538223Y-64469876D01*
X42524609Y-64449501D01*
X42507283Y-64432175D01*
X42498465Y-64424938D01*
X42486039Y-64409797D01*
X42476810Y-64392530D01*
X42471124Y-64373787D01*
X42468600Y-64348160D01*
X42468600Y-63909440D01*
X42471124Y-63883813D01*
X42476810Y-63865070D01*
X42486039Y-63847803D01*
X42498465Y-63832662D01*
X42507283Y-63825425D01*
X42524610Y-63808098D01*
X42538223Y-63787724D01*
X42547601Y-63765085D01*
X42552381Y-63741052D01*
X42552381Y-63716548D01*
X42547601Y-63692515D01*
X42538223Y-63669876D01*
X42524609Y-63649501D01*
X42507283Y-63632175D01*
X42498465Y-63624938D01*
X42486039Y-63609797D01*
X42476810Y-63592530D01*
X42471124Y-63573787D01*
X42468600Y-63548160D01*
X42468600Y-63109440D01*
X42471124Y-63083813D01*
X42476810Y-63065070D01*
X42486039Y-63047803D01*
X42498465Y-63032662D01*
X42507283Y-63025425D01*
X42524610Y-63008098D01*
X42538223Y-62987724D01*
X42547601Y-62965085D01*
X42552381Y-62941052D01*
X42552381Y-62916548D01*
X42547601Y-62892515D01*
X42538223Y-62869876D01*
X42524609Y-62849501D01*
X42507283Y-62832175D01*
X42498465Y-62824938D01*
X42486039Y-62809797D01*
X42476810Y-62792530D01*
X42471124Y-62773787D01*
X42468600Y-62748160D01*
X42468600Y-62309440D01*
X42471124Y-62283813D01*
X42476810Y-62265070D01*
X42486039Y-62247803D01*
X42498465Y-62232662D01*
X42507283Y-62225425D01*
X42524610Y-62208098D01*
X42538223Y-62187724D01*
X42547601Y-62165085D01*
X42552381Y-62141052D01*
X42552381Y-62116548D01*
X42547601Y-62092515D01*
X42538223Y-62069876D01*
X42524609Y-62049501D01*
X42507283Y-62032175D01*
X42498465Y-62024938D01*
X42486039Y-62009797D01*
X42476810Y-61992530D01*
X42471124Y-61973787D01*
X42468600Y-61948160D01*
X42468600Y-61509440D01*
X42471124Y-61483813D01*
X42476810Y-61465070D01*
X42486039Y-61447803D01*
X42498465Y-61432662D01*
X42507283Y-61425425D01*
X42524610Y-61408098D01*
X42538223Y-61387724D01*
X42547601Y-61365085D01*
X42552381Y-61341052D01*
X42552381Y-61316548D01*
X42547601Y-61292515D01*
X42538223Y-61269876D01*
X42524609Y-61249501D01*
X42507283Y-61232175D01*
X42498465Y-61224938D01*
X42486039Y-61209797D01*
X42476810Y-61192530D01*
X42471124Y-61173787D01*
X42468600Y-61148160D01*
X42468600Y-60709440D01*
X42471124Y-60683813D01*
X42476810Y-60665070D01*
X42486039Y-60647803D01*
X42498465Y-60632662D01*
X42507283Y-60625425D01*
X42524610Y-60608098D01*
X42538223Y-60587724D01*
X42547601Y-60565085D01*
X42552381Y-60541052D01*
X42552381Y-60516548D01*
X42547601Y-60492515D01*
X42538223Y-60469876D01*
X42524609Y-60449501D01*
X42507283Y-60432175D01*
X42498465Y-60424938D01*
X42486039Y-60409797D01*
X42476810Y-60392530D01*
X42471124Y-60373787D01*
X42468600Y-60348160D01*
X42468600Y-59909440D01*
X42471124Y-59883813D01*
X42476810Y-59865070D01*
X42486039Y-59847803D01*
X42498465Y-59832662D01*
X42507283Y-59825425D01*
X42524610Y-59808098D01*
X42538223Y-59787724D01*
X42547601Y-59765085D01*
X42552381Y-59741052D01*
X42552381Y-59716548D01*
X42547601Y-59692515D01*
X42538223Y-59669876D01*
X42524609Y-59649501D01*
X42507283Y-59632175D01*
X42498465Y-59624938D01*
X42486039Y-59609797D01*
X42476810Y-59592530D01*
X42471124Y-59573787D01*
X42468600Y-59548160D01*
X42468600Y-59109440D01*
X42471124Y-59083813D01*
X42476810Y-59065070D01*
X42486039Y-59047803D01*
X42498465Y-59032662D01*
X42507283Y-59025425D01*
X42524610Y-59008098D01*
X42538223Y-58987724D01*
X42547601Y-58965085D01*
X42552381Y-58941052D01*
X42552381Y-58916548D01*
X42547601Y-58892515D01*
X42538223Y-58869876D01*
X42524609Y-58849501D01*
X42507283Y-58832175D01*
X42498465Y-58824938D01*
X42486039Y-58809797D01*
X42476810Y-58792530D01*
X42471124Y-58773787D01*
X42468600Y-58748160D01*
X42468600Y-58309440D01*
X42471124Y-58283813D01*
X42476810Y-58265070D01*
X42486039Y-58247803D01*
X42498465Y-58232662D01*
X42507283Y-58225425D01*
X42524610Y-58208098D01*
X42538223Y-58187724D01*
X42547601Y-58165085D01*
X42552381Y-58141052D01*
X42552381Y-58116548D01*
X42547601Y-58092515D01*
X42538223Y-58069876D01*
X42524609Y-58049501D01*
X42507283Y-58032175D01*
X42498465Y-58024938D01*
X42486039Y-58009797D01*
X42476810Y-57992530D01*
X42471124Y-57973787D01*
X42468600Y-57948160D01*
X42468600Y-57509440D01*
X42471124Y-57483813D01*
X42476810Y-57465070D01*
X42486039Y-57447803D01*
X42498465Y-57432662D01*
X42507283Y-57425425D01*
X42524610Y-57408098D01*
X42538223Y-57387724D01*
X42547601Y-57365085D01*
X42552381Y-57341052D01*
X42552381Y-57316548D01*
X42547601Y-57292515D01*
X42538223Y-57269876D01*
X42524609Y-57249501D01*
X42507283Y-57232175D01*
X42498465Y-57224938D01*
X42486039Y-57209797D01*
X42476810Y-57192530D01*
X42471124Y-57173787D01*
X42468600Y-57148160D01*
X42468600Y-56709440D01*
X42471124Y-56683813D01*
X42476810Y-56665070D01*
X42486039Y-56647803D01*
X42498464Y-56632664D01*
X42513603Y-56620239D01*
X42530870Y-56611010D01*
X42549613Y-56605324D01*
X42575240Y-56602800D01*
X43988960Y-56602800D01*
X44014587Y-56605324D01*
X44014587Y-56605324D01*
G37*
G36*
X55189587Y-56605324D02*
G01*
X55208330Y-56611010D01*
X55225597Y-56620239D01*
X55240736Y-56632664D01*
X55253161Y-56647803D01*
X55262390Y-56665070D01*
X55268076Y-56683813D01*
X55270600Y-56709440D01*
X55270600Y-57148160D01*
X55268076Y-57173787D01*
X55262390Y-57192530D01*
X55253161Y-57209797D01*
X55240735Y-57224938D01*
X55231917Y-57232175D01*
X55214590Y-57249502D01*
X55200977Y-57269876D01*
X55191599Y-57292515D01*
X55186819Y-57316548D01*
X55186819Y-57341052D01*
X55191599Y-57365085D01*
X55200977Y-57387724D01*
X55214591Y-57408099D01*
X55231917Y-57425425D01*
X55240735Y-57432662D01*
X55253161Y-57447803D01*
X55262390Y-57465070D01*
X55268076Y-57483813D01*
X55270600Y-57509440D01*
X55270600Y-57948160D01*
X55268076Y-57973787D01*
X55262390Y-57992530D01*
X55253161Y-58009797D01*
X55240735Y-58024938D01*
X55231917Y-58032175D01*
X55214590Y-58049502D01*
X55200977Y-58069876D01*
X55191599Y-58092515D01*
X55186819Y-58116548D01*
X55186819Y-58141052D01*
X55191599Y-58165085D01*
X55200977Y-58187724D01*
X55214591Y-58208099D01*
X55231917Y-58225425D01*
X55240735Y-58232662D01*
X55253161Y-58247803D01*
X55262390Y-58265070D01*
X55268076Y-58283813D01*
X55270600Y-58309440D01*
X55270600Y-58748160D01*
X55268076Y-58773787D01*
X55262390Y-58792530D01*
X55253161Y-58809797D01*
X55240735Y-58824938D01*
X55231917Y-58832175D01*
X55214590Y-58849502D01*
X55200977Y-58869876D01*
X55191599Y-58892515D01*
X55186819Y-58916548D01*
X55186819Y-58941052D01*
X55191599Y-58965085D01*
X55200977Y-58987724D01*
X55214591Y-59008099D01*
X55231917Y-59025425D01*
X55240735Y-59032662D01*
X55253161Y-59047803D01*
X55262390Y-59065070D01*
X55268076Y-59083813D01*
X55270600Y-59109440D01*
X55270600Y-59548160D01*
X55268076Y-59573787D01*
X55262390Y-59592530D01*
X55253161Y-59609797D01*
X55240735Y-59624938D01*
X55231917Y-59632175D01*
X55214590Y-59649502D01*
X55200977Y-59669876D01*
X55191599Y-59692515D01*
X55186819Y-59716548D01*
X55186819Y-59741052D01*
X55191599Y-59765085D01*
X55200977Y-59787724D01*
X55214591Y-59808099D01*
X55231917Y-59825425D01*
X55240735Y-59832662D01*
X55253161Y-59847803D01*
X55262390Y-59865070D01*
X55268076Y-59883813D01*
X55270600Y-59909440D01*
X55270600Y-60348160D01*
X55268076Y-60373787D01*
X55262390Y-60392530D01*
X55253161Y-60409797D01*
X55240735Y-60424938D01*
X55231917Y-60432175D01*
X55214590Y-60449502D01*
X55200977Y-60469876D01*
X55191599Y-60492515D01*
X55186819Y-60516548D01*
X55186819Y-60541052D01*
X55191599Y-60565085D01*
X55200977Y-60587724D01*
X55214591Y-60608099D01*
X55231917Y-60625425D01*
X55240735Y-60632662D01*
X55253161Y-60647803D01*
X55262390Y-60665070D01*
X55268076Y-60683813D01*
X55270600Y-60709440D01*
X55270600Y-61148160D01*
X55268076Y-61173787D01*
X55262390Y-61192530D01*
X55253161Y-61209797D01*
X55240735Y-61224938D01*
X55231917Y-61232175D01*
X55214590Y-61249502D01*
X55200977Y-61269876D01*
X55191599Y-61292515D01*
X55186819Y-61316548D01*
X55186819Y-61341052D01*
X55191599Y-61365085D01*
X55200977Y-61387724D01*
X55214591Y-61408099D01*
X55231917Y-61425425D01*
X55240735Y-61432662D01*
X55253161Y-61447803D01*
X55262390Y-61465070D01*
X55268076Y-61483813D01*
X55270600Y-61509440D01*
X55270600Y-61948160D01*
X55268076Y-61973787D01*
X55262390Y-61992530D01*
X55253161Y-62009797D01*
X55240735Y-62024938D01*
X55231917Y-62032175D01*
X55214590Y-62049502D01*
X55200977Y-62069876D01*
X55191599Y-62092515D01*
X55186819Y-62116548D01*
X55186819Y-62141052D01*
X55191599Y-62165085D01*
X55200977Y-62187724D01*
X55214591Y-62208099D01*
X55231917Y-62225425D01*
X55240735Y-62232662D01*
X55253161Y-62247803D01*
X55262390Y-62265070D01*
X55268076Y-62283813D01*
X55270600Y-62309440D01*
X55270600Y-62748160D01*
X55268076Y-62773787D01*
X55262390Y-62792530D01*
X55253161Y-62809797D01*
X55240735Y-62824938D01*
X55231917Y-62832175D01*
X55214590Y-62849502D01*
X55200977Y-62869876D01*
X55191599Y-62892515D01*
X55186819Y-62916548D01*
X55186819Y-62941052D01*
X55191599Y-62965085D01*
X55200977Y-62987724D01*
X55214591Y-63008099D01*
X55231917Y-63025425D01*
X55240735Y-63032662D01*
X55253161Y-63047803D01*
X55262390Y-63065070D01*
X55268076Y-63083813D01*
X55270600Y-63109440D01*
X55270600Y-63548160D01*
X55268076Y-63573787D01*
X55262390Y-63592530D01*
X55253161Y-63609797D01*
X55240735Y-63624938D01*
X55231917Y-63632175D01*
X55214590Y-63649502D01*
X55200977Y-63669876D01*
X55191599Y-63692515D01*
X55186819Y-63716548D01*
X55186819Y-63741052D01*
X55191599Y-63765085D01*
X55200977Y-63787724D01*
X55214591Y-63808099D01*
X55231917Y-63825425D01*
X55240735Y-63832662D01*
X55253161Y-63847803D01*
X55262390Y-63865070D01*
X55268076Y-63883813D01*
X55270600Y-63909440D01*
X55270600Y-64348160D01*
X55268076Y-64373787D01*
X55262390Y-64392530D01*
X55253161Y-64409797D01*
X55240735Y-64424938D01*
X55231917Y-64432175D01*
X55214590Y-64449502D01*
X55200977Y-64469876D01*
X55191599Y-64492515D01*
X55186819Y-64516548D01*
X55186819Y-64541052D01*
X55191599Y-64565085D01*
X55200977Y-64587724D01*
X55214591Y-64608099D01*
X55231917Y-64625425D01*
X55240735Y-64632662D01*
X55253161Y-64647803D01*
X55262390Y-64665070D01*
X55268076Y-64683813D01*
X55270600Y-64709440D01*
X55270600Y-65148160D01*
X55268076Y-65173787D01*
X55262390Y-65192530D01*
X55253161Y-65209797D01*
X55240735Y-65224938D01*
X55231917Y-65232175D01*
X55214590Y-65249502D01*
X55200977Y-65269876D01*
X55191599Y-65292515D01*
X55186819Y-65316548D01*
X55186819Y-65341052D01*
X55191599Y-65365085D01*
X55200977Y-65387724D01*
X55214591Y-65408099D01*
X55231917Y-65425425D01*
X55240735Y-65432662D01*
X55253161Y-65447803D01*
X55262390Y-65465070D01*
X55268076Y-65483813D01*
X55270600Y-65509440D01*
X55270600Y-65948160D01*
X55268076Y-65973787D01*
X55262390Y-65992530D01*
X55253161Y-66009797D01*
X55240735Y-66024938D01*
X55231917Y-66032175D01*
X55214590Y-66049502D01*
X55200977Y-66069876D01*
X55191599Y-66092515D01*
X55186819Y-66116548D01*
X55186819Y-66141052D01*
X55191599Y-66165085D01*
X55200977Y-66187724D01*
X55214591Y-66208099D01*
X55231917Y-66225425D01*
X55240735Y-66232662D01*
X55253161Y-66247803D01*
X55262390Y-66265070D01*
X55268076Y-66283813D01*
X55270600Y-66309440D01*
X55270600Y-66748160D01*
X55268076Y-66773787D01*
X55262390Y-66792530D01*
X55253161Y-66809797D01*
X55240735Y-66824938D01*
X55231917Y-66832175D01*
X55214590Y-66849502D01*
X55200977Y-66869876D01*
X55191599Y-66892515D01*
X55186819Y-66916548D01*
X55186819Y-66941052D01*
X55191599Y-66965085D01*
X55200977Y-66987724D01*
X55214591Y-67008099D01*
X55231917Y-67025425D01*
X55240735Y-67032662D01*
X55253161Y-67047803D01*
X55262390Y-67065070D01*
X55268076Y-67083813D01*
X55270600Y-67109440D01*
X55270600Y-67548160D01*
X55268076Y-67573787D01*
X55262390Y-67592530D01*
X55253161Y-67609797D01*
X55240735Y-67624938D01*
X55231917Y-67632175D01*
X55214590Y-67649502D01*
X55200977Y-67669876D01*
X55191599Y-67692515D01*
X55186819Y-67716548D01*
X55186819Y-67741052D01*
X55191599Y-67765085D01*
X55200977Y-67787724D01*
X55214591Y-67808099D01*
X55231917Y-67825425D01*
X55240735Y-67832662D01*
X55253161Y-67847803D01*
X55262390Y-67865070D01*
X55268076Y-67883813D01*
X55270600Y-67909440D01*
X55270600Y-68348160D01*
X55268076Y-68373787D01*
X55262390Y-68392530D01*
X55253161Y-68409797D01*
X55240735Y-68424938D01*
X55231917Y-68432175D01*
X55214590Y-68449502D01*
X55200977Y-68469876D01*
X55191599Y-68492515D01*
X55186819Y-68516548D01*
X55186819Y-68541052D01*
X55191599Y-68565085D01*
X55200977Y-68587724D01*
X55214591Y-68608099D01*
X55231917Y-68625425D01*
X55240735Y-68632662D01*
X55253161Y-68647803D01*
X55262390Y-68665070D01*
X55268076Y-68683813D01*
X55270600Y-68709440D01*
X55270600Y-69148160D01*
X55268076Y-69173787D01*
X55262390Y-69192530D01*
X55253161Y-69209797D01*
X55240735Y-69224938D01*
X55231917Y-69232175D01*
X55214590Y-69249502D01*
X55200977Y-69269876D01*
X55191599Y-69292515D01*
X55186819Y-69316548D01*
X55186819Y-69341052D01*
X55191599Y-69365085D01*
X55200977Y-69387724D01*
X55214591Y-69408099D01*
X55231917Y-69425425D01*
X55240735Y-69432662D01*
X55253161Y-69447803D01*
X55262390Y-69465070D01*
X55268076Y-69483813D01*
X55270600Y-69509440D01*
X55270600Y-69948160D01*
X55268076Y-69973787D01*
X55262390Y-69992530D01*
X55253161Y-70009797D01*
X55240735Y-70024938D01*
X55231917Y-70032175D01*
X55214590Y-70049502D01*
X55200977Y-70069876D01*
X55191599Y-70092515D01*
X55186819Y-70116548D01*
X55186819Y-70141052D01*
X55191599Y-70165085D01*
X55200977Y-70187724D01*
X55214591Y-70208099D01*
X55231917Y-70225425D01*
X55240735Y-70232662D01*
X55253161Y-70247803D01*
X55262390Y-70265070D01*
X55268076Y-70283813D01*
X55270600Y-70309440D01*
X55270600Y-70748160D01*
X55268076Y-70773787D01*
X55262390Y-70792530D01*
X55253161Y-70809797D01*
X55240735Y-70824938D01*
X55231917Y-70832175D01*
X55214590Y-70849502D01*
X55200977Y-70869876D01*
X55191599Y-70892515D01*
X55186819Y-70916548D01*
X55186819Y-70941052D01*
X55191599Y-70965085D01*
X55200977Y-70987724D01*
X55214591Y-71008099D01*
X55231917Y-71025425D01*
X55240735Y-71032662D01*
X55253161Y-71047803D01*
X55262390Y-71065070D01*
X55268076Y-71083813D01*
X55270600Y-71109440D01*
X55270600Y-71548160D01*
X55268076Y-71573787D01*
X55262390Y-71592530D01*
X55253161Y-71609797D01*
X55240735Y-71624938D01*
X55231917Y-71632175D01*
X55214590Y-71649502D01*
X55200977Y-71669876D01*
X55191599Y-71692515D01*
X55186819Y-71716548D01*
X55186819Y-71741052D01*
X55191599Y-71765085D01*
X55200977Y-71787724D01*
X55214591Y-71808099D01*
X55231917Y-71825425D01*
X55240735Y-71832662D01*
X55253161Y-71847803D01*
X55262390Y-71865070D01*
X55268076Y-71883813D01*
X55270600Y-71909440D01*
X55270600Y-72348160D01*
X55268076Y-72373787D01*
X55262390Y-72392530D01*
X55253161Y-72409797D01*
X55240735Y-72424938D01*
X55231917Y-72432175D01*
X55214590Y-72449502D01*
X55200977Y-72469876D01*
X55191599Y-72492515D01*
X55186819Y-72516548D01*
X55186819Y-72541052D01*
X55191599Y-72565085D01*
X55200977Y-72587724D01*
X55214591Y-72608099D01*
X55231917Y-72625425D01*
X55240735Y-72632662D01*
X55253161Y-72647803D01*
X55262390Y-72665070D01*
X55268076Y-72683813D01*
X55270600Y-72709440D01*
X55270600Y-73148160D01*
X55268076Y-73173787D01*
X55262390Y-73192530D01*
X55253161Y-73209797D01*
X55240735Y-73224938D01*
X55231917Y-73232175D01*
X55214590Y-73249502D01*
X55200977Y-73269876D01*
X55191599Y-73292515D01*
X55186819Y-73316548D01*
X55186819Y-73341052D01*
X55191599Y-73365085D01*
X55200977Y-73387724D01*
X55214591Y-73408099D01*
X55231917Y-73425425D01*
X55240735Y-73432662D01*
X55253161Y-73447803D01*
X55262390Y-73465070D01*
X55268076Y-73483813D01*
X55270600Y-73509440D01*
X55270600Y-73948160D01*
X55268076Y-73973787D01*
X55262390Y-73992530D01*
X55253161Y-74009797D01*
X55240736Y-74024936D01*
X55225597Y-74037361D01*
X55208330Y-74046590D01*
X55189587Y-74052276D01*
X55163960Y-74054800D01*
X53750240Y-74054800D01*
X53724613Y-74052276D01*
X53705870Y-74046590D01*
X53688603Y-74037361D01*
X53673464Y-74024936D01*
X53661039Y-74009797D01*
X53651810Y-73992530D01*
X53646124Y-73973787D01*
X53643600Y-73948160D01*
X53643600Y-73509440D01*
X53646124Y-73483813D01*
X53651810Y-73465070D01*
X53661039Y-73447803D01*
X53673465Y-73432662D01*
X53682283Y-73425425D01*
X53699610Y-73408098D01*
X53713223Y-73387724D01*
X53722601Y-73365085D01*
X53727381Y-73341052D01*
X53727381Y-73316548D01*
X53722601Y-73292515D01*
X53713223Y-73269876D01*
X53699609Y-73249501D01*
X53682283Y-73232175D01*
X53673465Y-73224938D01*
X53661039Y-73209797D01*
X53651810Y-73192530D01*
X53646124Y-73173787D01*
X53643600Y-73148160D01*
X53643600Y-72709440D01*
X53646124Y-72683813D01*
X53651810Y-72665070D01*
X53661039Y-72647803D01*
X53673465Y-72632662D01*
X53682283Y-72625425D01*
X53699610Y-72608098D01*
X53713223Y-72587724D01*
X53722601Y-72565085D01*
X53727381Y-72541052D01*
X53727381Y-72516548D01*
X53722601Y-72492515D01*
X53713223Y-72469876D01*
X53699609Y-72449501D01*
X53682283Y-72432175D01*
X53673465Y-72424938D01*
X53661039Y-72409797D01*
X53651810Y-72392530D01*
X53646124Y-72373787D01*
X53643600Y-72348160D01*
X53643600Y-71909440D01*
X53646124Y-71883813D01*
X53651810Y-71865070D01*
X53661039Y-71847803D01*
X53673465Y-71832662D01*
X53682283Y-71825425D01*
X53699610Y-71808098D01*
X53713223Y-71787724D01*
X53722601Y-71765085D01*
X53727381Y-71741052D01*
X53727381Y-71716548D01*
X53722601Y-71692515D01*
X53713223Y-71669876D01*
X53699609Y-71649501D01*
X53682283Y-71632175D01*
X53673465Y-71624938D01*
X53661039Y-71609797D01*
X53651810Y-71592530D01*
X53646124Y-71573787D01*
X53643600Y-71548160D01*
X53643600Y-71109440D01*
X53646124Y-71083813D01*
X53651810Y-71065070D01*
X53661039Y-71047803D01*
X53673465Y-71032662D01*
X53682283Y-71025425D01*
X53699610Y-71008098D01*
X53713223Y-70987724D01*
X53722601Y-70965085D01*
X53727381Y-70941052D01*
X53727381Y-70916548D01*
X53722601Y-70892515D01*
X53713223Y-70869876D01*
X53699609Y-70849501D01*
X53682283Y-70832175D01*
X53673465Y-70824938D01*
X53661039Y-70809797D01*
X53651810Y-70792530D01*
X53646124Y-70773787D01*
X53643600Y-70748160D01*
X53643600Y-70309440D01*
X53646124Y-70283813D01*
X53651810Y-70265070D01*
X53661039Y-70247803D01*
X53673465Y-70232662D01*
X53682283Y-70225425D01*
X53699610Y-70208098D01*
X53713223Y-70187724D01*
X53722601Y-70165085D01*
X53727381Y-70141052D01*
X53727381Y-70116548D01*
X53722601Y-70092515D01*
X53713223Y-70069876D01*
X53699609Y-70049501D01*
X53682283Y-70032175D01*
X53673465Y-70024938D01*
X53661039Y-70009797D01*
X53651810Y-69992530D01*
X53646124Y-69973787D01*
X53643600Y-69948160D01*
X53643600Y-69509440D01*
X53646124Y-69483813D01*
X53651810Y-69465070D01*
X53661039Y-69447803D01*
X53673465Y-69432662D01*
X53682283Y-69425425D01*
X53699610Y-69408098D01*
X53713223Y-69387724D01*
X53722601Y-69365085D01*
X53727381Y-69341052D01*
X53727381Y-69316548D01*
X53722601Y-69292515D01*
X53713223Y-69269876D01*
X53699609Y-69249501D01*
X53682283Y-69232175D01*
X53673465Y-69224938D01*
X53661039Y-69209797D01*
X53651810Y-69192530D01*
X53646124Y-69173787D01*
X53643600Y-69148160D01*
X53643600Y-68709440D01*
X53646124Y-68683813D01*
X53651810Y-68665070D01*
X53661039Y-68647803D01*
X53673465Y-68632662D01*
X53682283Y-68625425D01*
X53699610Y-68608098D01*
X53713223Y-68587724D01*
X53722601Y-68565085D01*
X53727381Y-68541052D01*
X53727381Y-68516548D01*
X53722601Y-68492515D01*
X53713223Y-68469876D01*
X53699609Y-68449501D01*
X53682283Y-68432175D01*
X53673465Y-68424938D01*
X53661039Y-68409797D01*
X53651810Y-68392530D01*
X53646124Y-68373787D01*
X53643600Y-68348160D01*
X53643600Y-67909440D01*
X53646124Y-67883813D01*
X53651810Y-67865070D01*
X53661039Y-67847803D01*
X53673465Y-67832662D01*
X53682283Y-67825425D01*
X53699610Y-67808098D01*
X53713223Y-67787724D01*
X53722601Y-67765085D01*
X53727381Y-67741052D01*
X53727381Y-67716548D01*
X53722601Y-67692515D01*
X53713223Y-67669876D01*
X53699609Y-67649501D01*
X53682283Y-67632175D01*
X53673465Y-67624938D01*
X53661039Y-67609797D01*
X53651810Y-67592530D01*
X53646124Y-67573787D01*
X53643600Y-67548160D01*
X53643600Y-67109440D01*
X53646124Y-67083813D01*
X53651810Y-67065070D01*
X53661039Y-67047803D01*
X53673465Y-67032662D01*
X53682283Y-67025425D01*
X53699610Y-67008098D01*
X53713223Y-66987724D01*
X53722601Y-66965085D01*
X53727381Y-66941052D01*
X53727381Y-66916548D01*
X53722601Y-66892515D01*
X53713223Y-66869876D01*
X53699609Y-66849501D01*
X53682283Y-66832175D01*
X53673465Y-66824938D01*
X53661039Y-66809797D01*
X53651810Y-66792530D01*
X53646124Y-66773787D01*
X53643600Y-66748160D01*
X53643600Y-66309440D01*
X53646124Y-66283813D01*
X53651810Y-66265070D01*
X53661039Y-66247803D01*
X53673465Y-66232662D01*
X53682283Y-66225425D01*
X53699610Y-66208098D01*
X53713223Y-66187724D01*
X53722601Y-66165085D01*
X53727381Y-66141052D01*
X53727381Y-66116548D01*
X53722601Y-66092515D01*
X53713223Y-66069876D01*
X53699609Y-66049501D01*
X53682283Y-66032175D01*
X53673465Y-66024938D01*
X53661039Y-66009797D01*
X53651810Y-65992530D01*
X53646124Y-65973787D01*
X53643600Y-65948160D01*
X53643600Y-65509440D01*
X53646124Y-65483813D01*
X53651810Y-65465070D01*
X53661039Y-65447803D01*
X53673465Y-65432662D01*
X53682283Y-65425425D01*
X53699610Y-65408098D01*
X53713223Y-65387724D01*
X53722601Y-65365085D01*
X53727381Y-65341052D01*
X53727381Y-65316548D01*
X53722601Y-65292515D01*
X53713223Y-65269876D01*
X53699609Y-65249501D01*
X53682283Y-65232175D01*
X53673465Y-65224938D01*
X53661039Y-65209797D01*
X53651810Y-65192530D01*
X53646124Y-65173787D01*
X53643600Y-65148160D01*
X53643600Y-64709440D01*
X53646124Y-64683813D01*
X53651810Y-64665070D01*
X53661039Y-64647803D01*
X53673465Y-64632662D01*
X53682283Y-64625425D01*
X53699610Y-64608098D01*
X53713223Y-64587724D01*
X53722601Y-64565085D01*
X53727381Y-64541052D01*
X53727381Y-64516548D01*
X53722601Y-64492515D01*
X53713223Y-64469876D01*
X53699609Y-64449501D01*
X53682283Y-64432175D01*
X53673465Y-64424938D01*
X53661039Y-64409797D01*
X53651810Y-64392530D01*
X53646124Y-64373787D01*
X53643600Y-64348160D01*
X53643600Y-63909440D01*
X53646124Y-63883813D01*
X53651810Y-63865070D01*
X53661039Y-63847803D01*
X53673465Y-63832662D01*
X53682283Y-63825425D01*
X53699610Y-63808098D01*
X53713223Y-63787724D01*
X53722601Y-63765085D01*
X53727381Y-63741052D01*
X53727381Y-63716548D01*
X53722601Y-63692515D01*
X53713223Y-63669876D01*
X53699609Y-63649501D01*
X53682283Y-63632175D01*
X53673465Y-63624938D01*
X53661039Y-63609797D01*
X53651810Y-63592530D01*
X53646124Y-63573787D01*
X53643600Y-63548160D01*
X53643600Y-63109440D01*
X53646124Y-63083813D01*
X53651810Y-63065070D01*
X53661039Y-63047803D01*
X53673465Y-63032662D01*
X53682283Y-63025425D01*
X53699610Y-63008098D01*
X53713223Y-62987724D01*
X53722601Y-62965085D01*
X53727381Y-62941052D01*
X53727381Y-62916548D01*
X53722601Y-62892515D01*
X53713223Y-62869876D01*
X53699609Y-62849501D01*
X53682283Y-62832175D01*
X53673465Y-62824938D01*
X53661039Y-62809797D01*
X53651810Y-62792530D01*
X53646124Y-62773787D01*
X53643600Y-62748160D01*
X53643600Y-62309440D01*
X53646124Y-62283813D01*
X53651810Y-62265070D01*
X53661039Y-62247803D01*
X53673465Y-62232662D01*
X53682283Y-62225425D01*
X53699610Y-62208098D01*
X53713223Y-62187724D01*
X53722601Y-62165085D01*
X53727381Y-62141052D01*
X53727381Y-62116548D01*
X53722601Y-62092515D01*
X53713223Y-62069876D01*
X53699609Y-62049501D01*
X53682283Y-62032175D01*
X53673465Y-62024938D01*
X53661039Y-62009797D01*
X53651810Y-61992530D01*
X53646124Y-61973787D01*
X53643600Y-61948160D01*
X53643600Y-61509440D01*
X53646124Y-61483813D01*
X53651810Y-61465070D01*
X53661039Y-61447803D01*
X53673465Y-61432662D01*
X53682283Y-61425425D01*
X53699610Y-61408098D01*
X53713223Y-61387724D01*
X53722601Y-61365085D01*
X53727381Y-61341052D01*
X53727381Y-61316548D01*
X53722601Y-61292515D01*
X53713223Y-61269876D01*
X53699609Y-61249501D01*
X53682283Y-61232175D01*
X53673465Y-61224938D01*
X53661039Y-61209797D01*
X53651810Y-61192530D01*
X53646124Y-61173787D01*
X53643600Y-61148160D01*
X53643600Y-60709440D01*
X53646124Y-60683813D01*
X53651810Y-60665070D01*
X53661039Y-60647803D01*
X53673465Y-60632662D01*
X53682283Y-60625425D01*
X53699610Y-60608098D01*
X53713223Y-60587724D01*
X53722601Y-60565085D01*
X53727381Y-60541052D01*
X53727381Y-60516548D01*
X53722601Y-60492515D01*
X53713223Y-60469876D01*
X53699609Y-60449501D01*
X53682283Y-60432175D01*
X53673465Y-60424938D01*
X53661039Y-60409797D01*
X53651810Y-60392530D01*
X53646124Y-60373787D01*
X53643600Y-60348160D01*
X53643600Y-59909440D01*
X53646124Y-59883813D01*
X53651810Y-59865070D01*
X53661039Y-59847803D01*
X53673465Y-59832662D01*
X53682283Y-59825425D01*
X53699610Y-59808098D01*
X53713223Y-59787724D01*
X53722601Y-59765085D01*
X53727381Y-59741052D01*
X53727381Y-59716548D01*
X53722601Y-59692515D01*
X53713223Y-59669876D01*
X53699609Y-59649501D01*
X53682283Y-59632175D01*
X53673465Y-59624938D01*
X53661039Y-59609797D01*
X53651810Y-59592530D01*
X53646124Y-59573787D01*
X53643600Y-59548160D01*
X53643600Y-59109440D01*
X53646124Y-59083813D01*
X53651810Y-59065070D01*
X53661039Y-59047803D01*
X53673465Y-59032662D01*
X53682283Y-59025425D01*
X53699610Y-59008098D01*
X53713223Y-58987724D01*
X53722601Y-58965085D01*
X53727381Y-58941052D01*
X53727381Y-58916548D01*
X53722601Y-58892515D01*
X53713223Y-58869876D01*
X53699609Y-58849501D01*
X53682283Y-58832175D01*
X53673465Y-58824938D01*
X53661039Y-58809797D01*
X53651810Y-58792530D01*
X53646124Y-58773787D01*
X53643600Y-58748160D01*
X53643600Y-58309440D01*
X53646124Y-58283813D01*
X53651810Y-58265070D01*
X53661039Y-58247803D01*
X53673465Y-58232662D01*
X53682283Y-58225425D01*
X53699610Y-58208098D01*
X53713223Y-58187724D01*
X53722601Y-58165085D01*
X53727381Y-58141052D01*
X53727381Y-58116548D01*
X53722601Y-58092515D01*
X53713223Y-58069876D01*
X53699609Y-58049501D01*
X53682283Y-58032175D01*
X53673465Y-58024938D01*
X53661039Y-58009797D01*
X53651810Y-57992530D01*
X53646124Y-57973787D01*
X53643600Y-57948160D01*
X53643600Y-57509440D01*
X53646124Y-57483813D01*
X53651810Y-57465070D01*
X53661039Y-57447803D01*
X53673465Y-57432662D01*
X53682283Y-57425425D01*
X53699610Y-57408098D01*
X53713223Y-57387724D01*
X53722601Y-57365085D01*
X53727381Y-57341052D01*
X53727381Y-57316548D01*
X53722601Y-57292515D01*
X53713223Y-57269876D01*
X53699609Y-57249501D01*
X53682283Y-57232175D01*
X53673465Y-57224938D01*
X53661039Y-57209797D01*
X53651810Y-57192530D01*
X53646124Y-57173787D01*
X53643600Y-57148160D01*
X53643600Y-56709440D01*
X53646124Y-56683813D01*
X53651810Y-56665070D01*
X53661039Y-56647803D01*
X53673464Y-56632664D01*
X53688603Y-56620239D01*
X53705870Y-56611010D01*
X53724613Y-56605324D01*
X53750240Y-56602800D01*
X55163960Y-56602800D01*
X55189587Y-56605324D01*
X55189587Y-56605324D01*
G37*
G36*
X78709400Y-72420100D02*
G01*
X76607400Y-72420100D01*
X76607400Y-70818100D01*
X78709400Y-70818100D01*
X78709400Y-72420100D01*
X78709400Y-72420100D01*
G37*
G36*
X80953698Y-70893947D02*
G01*
X80989267Y-70904737D01*
X81022039Y-70922254D01*
X81050769Y-70945831D01*
X81074346Y-70974561D01*
X81091863Y-71007333D01*
X81102653Y-71042902D01*
X81106900Y-71086025D01*
X81106900Y-72195375D01*
X81102653Y-72238498D01*
X81091863Y-72274067D01*
X81074346Y-72306839D01*
X81050769Y-72335569D01*
X81022039Y-72359146D01*
X80989267Y-72376663D01*
X80953698Y-72387453D01*
X80910575Y-72391700D01*
X79851225Y-72391700D01*
X79808102Y-72387453D01*
X79772533Y-72376663D01*
X79739761Y-72359146D01*
X79711031Y-72335569D01*
X79687454Y-72306839D01*
X79669937Y-72274067D01*
X79659147Y-72238498D01*
X79654900Y-72195375D01*
X79654900Y-71086025D01*
X79659147Y-71042902D01*
X79669937Y-71007333D01*
X79687454Y-70974561D01*
X79711031Y-70945831D01*
X79739761Y-70922254D01*
X79772533Y-70904737D01*
X79808102Y-70893947D01*
X79851225Y-70889700D01*
X80910575Y-70889700D01*
X80953698Y-70893947D01*
X80953698Y-70893947D01*
G37*
G36*
X72409400Y-71270100D02*
G01*
X70307400Y-71270100D01*
X70307400Y-67368100D01*
X72409400Y-67368100D01*
X72409400Y-71270100D01*
X72409400Y-71270100D01*
G37*
G36*
X78709400Y-70120100D02*
G01*
X76607400Y-70120100D01*
X76607400Y-68518100D01*
X78709400Y-68518100D01*
X78709400Y-70120100D01*
X78709400Y-70120100D01*
G37*
G36*
X80943498Y-68535547D02*
G01*
X80979067Y-68546337D01*
X81011839Y-68563854D01*
X81040569Y-68587431D01*
X81064146Y-68616161D01*
X81081663Y-68648933D01*
X81092453Y-68684502D01*
X81096700Y-68727625D01*
X81096700Y-69836975D01*
X81092453Y-69880098D01*
X81081663Y-69915667D01*
X81064146Y-69948439D01*
X81040569Y-69977169D01*
X81011839Y-70000746D01*
X80979067Y-70018263D01*
X80943498Y-70029053D01*
X80900375Y-70033300D01*
X79841025Y-70033300D01*
X79797902Y-70029053D01*
X79762333Y-70018263D01*
X79729561Y-70000746D01*
X79700831Y-69977169D01*
X79677254Y-69948439D01*
X79659737Y-69915667D01*
X79648947Y-69880098D01*
X79644700Y-69836975D01*
X79644700Y-68727625D01*
X79648947Y-68684502D01*
X79659737Y-68648933D01*
X79677254Y-68616161D01*
X79700831Y-68587431D01*
X79729561Y-68563854D01*
X79762333Y-68546337D01*
X79797902Y-68535547D01*
X79841025Y-68531300D01*
X80900375Y-68531300D01*
X80943498Y-68535547D01*
X80943498Y-68535547D01*
G37*
G36*
X78709400Y-67820100D02*
G01*
X76607400Y-67820100D01*
X76607400Y-66218100D01*
X78709400Y-66218100D01*
X78709400Y-67820100D01*
X78709400Y-67820100D01*
G37*
G36*
X80943498Y-65835547D02*
G01*
X80979067Y-65846337D01*
X81011839Y-65863854D01*
X81040569Y-65887431D01*
X81064146Y-65916161D01*
X81081663Y-65948933D01*
X81092453Y-65984502D01*
X81096700Y-66027625D01*
X81096700Y-67136975D01*
X81092453Y-67180098D01*
X81081663Y-67215667D01*
X81064146Y-67248439D01*
X81040569Y-67277169D01*
X81011839Y-67300746D01*
X80979067Y-67318263D01*
X80943498Y-67329053D01*
X80900375Y-67333300D01*
X79841025Y-67333300D01*
X79797902Y-67329053D01*
X79762333Y-67318263D01*
X79729561Y-67300746D01*
X79700831Y-67277169D01*
X79677254Y-67248439D01*
X79659737Y-67215667D01*
X79648947Y-67180098D01*
X79644700Y-67136975D01*
X79644700Y-66027625D01*
X79648947Y-65984502D01*
X79659737Y-65948933D01*
X79677254Y-65916161D01*
X79700831Y-65887431D01*
X79729561Y-65863854D01*
X79762333Y-65846337D01*
X79797902Y-65835547D01*
X79841025Y-65831300D01*
X80900375Y-65831300D01*
X80943498Y-65835547D01*
X80943498Y-65835547D01*
G37*
G36*
X81027298Y-63587647D02*
G01*
X81062867Y-63598437D01*
X81095639Y-63615954D01*
X81124369Y-63639531D01*
X81147946Y-63668261D01*
X81165463Y-63701033D01*
X81176253Y-63736602D01*
X81180500Y-63779725D01*
X81180500Y-64889075D01*
X81176253Y-64932198D01*
X81165463Y-64967767D01*
X81147946Y-65000539D01*
X81124369Y-65029269D01*
X81095639Y-65052846D01*
X81062867Y-65070363D01*
X81027298Y-65081153D01*
X80984175Y-65085400D01*
X79924825Y-65085400D01*
X79881702Y-65081153D01*
X79846133Y-65070363D01*
X79813361Y-65052846D01*
X79784631Y-65029269D01*
X79761054Y-65000539D01*
X79743537Y-64967767D01*
X79732747Y-64932198D01*
X79728500Y-64889075D01*
X79728500Y-63779725D01*
X79732747Y-63736602D01*
X79743537Y-63701033D01*
X79761054Y-63668261D01*
X79784631Y-63639531D01*
X79813361Y-63615954D01*
X79846133Y-63598437D01*
X79881702Y-63587647D01*
X79924825Y-63583400D01*
X80984175Y-63583400D01*
X81027298Y-63587647D01*
X81027298Y-63587647D01*
G37*
G36*
X78666200Y-62417600D02*
G01*
X76564200Y-62417600D01*
X76564200Y-60815600D01*
X78666200Y-60815600D01*
X78666200Y-62417600D01*
X78666200Y-62417600D01*
G37*
G36*
X81027298Y-60887647D02*
G01*
X81062867Y-60898437D01*
X81095639Y-60915954D01*
X81124369Y-60939531D01*
X81147946Y-60968261D01*
X81165463Y-61001033D01*
X81176253Y-61036602D01*
X81180500Y-61079725D01*
X81180500Y-62189075D01*
X81176253Y-62232198D01*
X81165463Y-62267767D01*
X81147946Y-62300539D01*
X81124369Y-62329269D01*
X81095639Y-62352846D01*
X81062867Y-62370363D01*
X81027298Y-62381153D01*
X80984175Y-62385400D01*
X79924825Y-62385400D01*
X79881702Y-62381153D01*
X79846133Y-62370363D01*
X79813361Y-62352846D01*
X79784631Y-62329269D01*
X79761054Y-62300539D01*
X79743537Y-62267767D01*
X79732747Y-62232198D01*
X79728500Y-62189075D01*
X79728500Y-61079725D01*
X79732747Y-61036602D01*
X79743537Y-61001033D01*
X79761054Y-60968261D01*
X79784631Y-60939531D01*
X79813361Y-60915954D01*
X79846133Y-60898437D01*
X79881702Y-60887647D01*
X79924825Y-60883400D01*
X80984175Y-60883400D01*
X81027298Y-60887647D01*
X81027298Y-60887647D01*
G37*
G36*
X72366200Y-61267600D02*
G01*
X70264200Y-61267600D01*
X70264200Y-57365600D01*
X72366200Y-57365600D01*
X72366200Y-61267600D01*
X72366200Y-61267600D01*
G37*
G36*
X78666200Y-60117600D02*
G01*
X76564200Y-60117600D01*
X76564200Y-58515600D01*
X78666200Y-58515600D01*
X78666200Y-60117600D01*
X78666200Y-60117600D01*
G37*
G36*
X81027298Y-58553347D02*
G01*
X81062867Y-58564137D01*
X81095639Y-58581654D01*
X81124369Y-58605231D01*
X81147946Y-58633961D01*
X81165463Y-58666733D01*
X81176253Y-58702302D01*
X81180500Y-58745425D01*
X81180500Y-59854775D01*
X81176253Y-59897898D01*
X81165463Y-59933467D01*
X81147946Y-59966239D01*
X81124369Y-59994969D01*
X81095639Y-60018546D01*
X81062867Y-60036063D01*
X81027298Y-60046853D01*
X80984175Y-60051100D01*
X79924825Y-60051100D01*
X79881702Y-60046853D01*
X79846133Y-60036063D01*
X79813361Y-60018546D01*
X79784631Y-59994969D01*
X79761054Y-59966239D01*
X79743537Y-59933467D01*
X79732747Y-59897898D01*
X79728500Y-59854775D01*
X79728500Y-58745425D01*
X79732747Y-58702302D01*
X79743537Y-58666733D01*
X79761054Y-58633961D01*
X79784631Y-58605231D01*
X79813361Y-58581654D01*
X79846133Y-58564137D01*
X79881702Y-58553347D01*
X79924825Y-58549100D01*
X80984175Y-58549100D01*
X81027298Y-58553347D01*
X81027298Y-58553347D01*
G37*
G36*
X85703493Y-56752432D02*
G01*
X85725104Y-56763983D01*
X85828495Y-56806809D01*
X85828496Y-56806810D01*
X85918742Y-56867110D01*
X85995490Y-56943858D01*
X85995491Y-56943860D01*
X86055791Y-57034105D01*
X86097326Y-57134379D01*
X86118500Y-57240830D01*
X86118500Y-57349370D01*
X86097326Y-57455821D01*
X86055791Y-57556095D01*
X86055790Y-57556096D01*
X85995490Y-57646342D01*
X85918742Y-57723090D01*
X85902842Y-57733714D01*
X85828495Y-57783391D01*
X85728221Y-57824926D01*
X85621770Y-57846100D01*
X85513230Y-57846100D01*
X85406779Y-57824926D01*
X85306505Y-57783391D01*
X85232158Y-57733714D01*
X85216258Y-57723090D01*
X85139510Y-57646342D01*
X85079210Y-57556096D01*
X85079209Y-57556095D01*
X85037674Y-57455821D01*
X85016500Y-57349370D01*
X85016500Y-57240830D01*
X85037674Y-57134379D01*
X85079209Y-57034105D01*
X85139509Y-56943860D01*
X85139510Y-56943858D01*
X85216258Y-56867110D01*
X85306504Y-56806810D01*
X85306505Y-56806809D01*
X85406779Y-56765274D01*
X85513230Y-56744100D01*
X85621769Y-56744100D01*
X85629665Y-56745671D01*
X85654045Y-56748072D01*
X85678431Y-56745671D01*
X85690714Y-56741945D01*
X85703493Y-56752432D01*
X85703493Y-56752432D01*
G37*
G36*
X78666200Y-57817600D02*
G01*
X76564200Y-57817600D01*
X76564200Y-56215600D01*
X78666200Y-56215600D01*
X78666200Y-57817600D01*
X78666200Y-57817600D01*
G37*
G36*
X90063538Y-57071316D02*
G01*
X90084157Y-57077571D01*
X90103153Y-57087724D01*
X90119808Y-57101392D01*
X90133476Y-57118047D01*
X90143629Y-57137043D01*
X90149884Y-57157662D01*
X90152600Y-57185240D01*
X90152600Y-57693960D01*
X90149884Y-57721538D01*
X90143629Y-57742157D01*
X90133476Y-57761153D01*
X90119808Y-57777808D01*
X90103153Y-57791476D01*
X90084157Y-57801629D01*
X90063538Y-57807884D01*
X90035960Y-57810600D01*
X89577240Y-57810600D01*
X89549662Y-57807884D01*
X89529043Y-57801629D01*
X89510047Y-57791476D01*
X89493392Y-57777808D01*
X89479724Y-57761153D01*
X89469571Y-57742157D01*
X89463316Y-57721538D01*
X89460600Y-57693960D01*
X89460600Y-57185240D01*
X89463316Y-57157662D01*
X89469571Y-57137043D01*
X89479724Y-57118047D01*
X89493392Y-57101392D01*
X89510047Y-57087724D01*
X89529043Y-57077571D01*
X89549662Y-57071316D01*
X89577240Y-57068600D01*
X90035960Y-57068600D01*
X90063538Y-57071316D01*
X90063538Y-57071316D01*
G37*
G36*
X89093538Y-57071316D02*
G01*
X89114157Y-57077571D01*
X89133153Y-57087724D01*
X89149808Y-57101392D01*
X89163476Y-57118047D01*
X89173629Y-57137043D01*
X89179884Y-57157662D01*
X89182600Y-57185240D01*
X89182600Y-57693960D01*
X89179884Y-57721538D01*
X89173629Y-57742157D01*
X89163476Y-57761153D01*
X89149808Y-57777808D01*
X89133153Y-57791476D01*
X89114157Y-57801629D01*
X89093538Y-57807884D01*
X89065960Y-57810600D01*
X88607240Y-57810600D01*
X88579662Y-57807884D01*
X88559043Y-57801629D01*
X88540047Y-57791476D01*
X88523392Y-57777808D01*
X88509724Y-57761153D01*
X88499571Y-57742157D01*
X88493316Y-57721538D01*
X88490600Y-57693960D01*
X88490600Y-57185240D01*
X88493316Y-57157662D01*
X88499571Y-57137043D01*
X88509724Y-57118047D01*
X88523392Y-57101392D01*
X88540047Y-57087724D01*
X88559043Y-57077571D01*
X88579662Y-57071316D01*
X88607240Y-57068600D01*
X89065960Y-57068600D01*
X89093538Y-57071316D01*
X89093538Y-57071316D01*
G37*
G36*
X81027298Y-55853347D02*
G01*
X81062867Y-55864137D01*
X81095639Y-55881654D01*
X81124369Y-55905231D01*
X81147946Y-55933961D01*
X81165463Y-55966733D01*
X81176253Y-56002302D01*
X81180500Y-56045425D01*
X81180500Y-57154775D01*
X81176253Y-57197898D01*
X81165463Y-57233467D01*
X81147946Y-57266239D01*
X81124369Y-57294969D01*
X81095639Y-57318546D01*
X81062867Y-57336063D01*
X81027298Y-57346853D01*
X80984175Y-57351100D01*
X79924825Y-57351100D01*
X79881702Y-57346853D01*
X79846133Y-57336063D01*
X79813361Y-57318546D01*
X79784631Y-57294969D01*
X79761054Y-57266239D01*
X79743537Y-57233467D01*
X79732747Y-57197898D01*
X79728500Y-57154775D01*
X79728500Y-56045425D01*
X79732747Y-56002302D01*
X79743537Y-55966733D01*
X79761054Y-55933961D01*
X79784631Y-55905231D01*
X79813361Y-55881654D01*
X79846133Y-55864137D01*
X79881702Y-55853347D01*
X79924825Y-55849100D01*
X80984175Y-55849100D01*
X81027298Y-55853347D01*
X81027298Y-55853347D01*
G37*
G36*
X86256728Y-54474264D02*
G01*
X86277809Y-54480660D01*
X86297245Y-54491048D01*
X86314276Y-54505024D01*
X86328252Y-54522055D01*
X86338640Y-54541491D01*
X86345036Y-54562572D01*
X86347800Y-54590640D01*
X86347800Y-56404360D01*
X86345036Y-56432428D01*
X86338640Y-56453509D01*
X86328252Y-56472945D01*
X86314276Y-56489976D01*
X86297245Y-56503952D01*
X86277809Y-56514340D01*
X86256728Y-56520736D01*
X86228660Y-56523500D01*
X85772939Y-56523500D01*
X85748553Y-56525902D01*
X85736271Y-56529628D01*
X85723494Y-56519141D01*
X85712971Y-56512834D01*
X85696357Y-56503954D01*
X85679324Y-56489976D01*
X85665348Y-56472945D01*
X85654960Y-56453509D01*
X85648564Y-56432428D01*
X85645800Y-56404360D01*
X85645800Y-54590640D01*
X85648564Y-54562572D01*
X85654960Y-54541491D01*
X85665348Y-54522055D01*
X85679324Y-54505024D01*
X85696355Y-54491048D01*
X85715791Y-54480660D01*
X85736872Y-54474264D01*
X85764940Y-54471500D01*
X86228660Y-54471500D01*
X86256728Y-54474264D01*
X86256728Y-54474264D01*
G37*
G36*
X90066728Y-54474264D02*
G01*
X90087809Y-54480660D01*
X90107245Y-54491048D01*
X90124276Y-54505024D01*
X90138252Y-54522055D01*
X90148640Y-54541491D01*
X90155036Y-54562572D01*
X90157800Y-54590640D01*
X90157800Y-56404360D01*
X90155036Y-56432428D01*
X90148640Y-56453509D01*
X90138252Y-56472945D01*
X90124276Y-56489976D01*
X90107245Y-56503952D01*
X90087809Y-56514340D01*
X90066728Y-56520736D01*
X90038660Y-56523500D01*
X89574940Y-56523500D01*
X89546872Y-56520736D01*
X89525791Y-56514340D01*
X89506355Y-56503952D01*
X89489324Y-56489976D01*
X89475348Y-56472945D01*
X89464960Y-56453509D01*
X89458564Y-56432428D01*
X89455800Y-56404360D01*
X89455800Y-54590640D01*
X89458564Y-54562572D01*
X89464960Y-54541491D01*
X89475348Y-54522055D01*
X89489324Y-54505024D01*
X89506355Y-54491048D01*
X89525791Y-54480660D01*
X89546872Y-54474264D01*
X89574940Y-54471500D01*
X90038660Y-54471500D01*
X90066728Y-54474264D01*
X90066728Y-54474264D01*
G37*
G36*
X88796728Y-54474264D02*
G01*
X88817809Y-54480660D01*
X88837245Y-54491048D01*
X88854276Y-54505024D01*
X88868252Y-54522055D01*
X88878640Y-54541491D01*
X88885036Y-54562572D01*
X88887800Y-54590640D01*
X88887800Y-56404360D01*
X88885036Y-56432428D01*
X88878640Y-56453509D01*
X88868252Y-56472945D01*
X88854276Y-56489976D01*
X88837245Y-56503952D01*
X88817809Y-56514340D01*
X88796728Y-56520736D01*
X88768660Y-56523500D01*
X88304940Y-56523500D01*
X88276872Y-56520736D01*
X88255791Y-56514340D01*
X88236355Y-56503952D01*
X88219324Y-56489976D01*
X88205348Y-56472945D01*
X88194960Y-56453509D01*
X88188564Y-56432428D01*
X88185800Y-56404360D01*
X88185800Y-54590640D01*
X88188564Y-54562572D01*
X88194960Y-54541491D01*
X88205348Y-54522055D01*
X88219324Y-54505024D01*
X88236355Y-54491048D01*
X88255791Y-54480660D01*
X88276872Y-54474264D01*
X88304940Y-54471500D01*
X88768660Y-54471500D01*
X88796728Y-54474264D01*
X88796728Y-54474264D01*
G37*
G36*
X87526728Y-54474264D02*
G01*
X87547809Y-54480660D01*
X87567245Y-54491048D01*
X87584276Y-54505024D01*
X87598252Y-54522055D01*
X87608640Y-54541491D01*
X87615036Y-54562572D01*
X87617800Y-54590640D01*
X87617800Y-56404360D01*
X87615036Y-56432428D01*
X87608640Y-56453509D01*
X87598252Y-56472945D01*
X87584276Y-56489976D01*
X87567245Y-56503952D01*
X87547809Y-56514340D01*
X87526728Y-56520736D01*
X87498660Y-56523500D01*
X87034940Y-56523500D01*
X87006872Y-56520736D01*
X86985791Y-56514340D01*
X86966355Y-56503952D01*
X86949324Y-56489976D01*
X86935348Y-56472945D01*
X86924960Y-56453509D01*
X86918564Y-56432428D01*
X86915800Y-56404360D01*
X86915800Y-54590640D01*
X86918564Y-54562572D01*
X86924960Y-54541491D01*
X86935348Y-54522055D01*
X86949324Y-54505024D01*
X86966355Y-54491048D01*
X86985791Y-54480660D01*
X87006872Y-54474264D01*
X87034940Y-54471500D01*
X87498660Y-54471500D01*
X87526728Y-54474264D01*
X87526728Y-54474264D01*
G37*
G36*
X81168300Y-54891200D02*
G01*
X79766300Y-54891200D01*
X79766300Y-53089200D01*
X81168300Y-53089200D01*
X81168300Y-54891200D01*
X81168300Y-54891200D01*
G37*
G36*
X84668300Y-54891200D02*
G01*
X83266300Y-54891200D01*
X83266300Y-53089200D01*
X84668300Y-53089200D01*
X84668300Y-54891200D01*
X84668300Y-54891200D01*
G37*
G36*
X33394010Y-53897925D02*
G01*
X33479026Y-53923714D01*
X33557375Y-53965593D01*
X33626049Y-54021951D01*
X33682407Y-54090625D01*
X33724286Y-54168974D01*
X33750075Y-54253990D01*
X33758782Y-54342400D01*
X33750075Y-54430810D01*
X33724286Y-54515826D01*
X33682407Y-54594175D01*
X33626049Y-54662849D01*
X33557375Y-54719207D01*
X33479026Y-54761086D01*
X33394010Y-54786875D01*
X33327758Y-54793400D01*
X32783442Y-54793400D01*
X32717190Y-54786875D01*
X32632174Y-54761086D01*
X32553825Y-54719207D01*
X32485151Y-54662849D01*
X32428793Y-54594175D01*
X32386914Y-54515826D01*
X32361125Y-54430810D01*
X32352418Y-54342400D01*
X32361125Y-54253990D01*
X32386914Y-54168974D01*
X32428793Y-54090625D01*
X32485151Y-54021951D01*
X32553825Y-53965593D01*
X32632174Y-53923714D01*
X32717190Y-53897925D01*
X32783442Y-53891400D01*
X33327758Y-53891400D01*
X33394010Y-53897925D01*
X33394010Y-53897925D01*
G37*
G36*
X33394010Y-52647925D02*
G01*
X33479026Y-52673714D01*
X33557375Y-52715593D01*
X33626049Y-52771951D01*
X33682407Y-52840625D01*
X33724286Y-52918974D01*
X33750075Y-53003990D01*
X33758782Y-53092400D01*
X33750075Y-53180810D01*
X33724286Y-53265826D01*
X33682407Y-53344175D01*
X33626049Y-53412849D01*
X33557375Y-53469207D01*
X33479026Y-53511086D01*
X33394010Y-53536875D01*
X33327758Y-53543400D01*
X32783442Y-53543400D01*
X32717190Y-53536875D01*
X32632174Y-53511086D01*
X32553825Y-53469207D01*
X32485151Y-53412849D01*
X32428793Y-53344175D01*
X32386914Y-53265826D01*
X32361125Y-53180810D01*
X32352418Y-53092400D01*
X32361125Y-53003990D01*
X32386914Y-52918974D01*
X32428793Y-52840625D01*
X32485151Y-52771951D01*
X32553825Y-52715593D01*
X32632174Y-52673714D01*
X32717190Y-52647925D01*
X32783442Y-52641400D01*
X33327758Y-52641400D01*
X33394010Y-52647925D01*
X33394010Y-52647925D01*
G37*
G36*
X85728221Y-52365274D02*
G01*
X85828495Y-52406809D01*
X85828496Y-52406810D01*
X85918742Y-52467110D01*
X85995490Y-52543858D01*
X85995491Y-52543860D01*
X86055791Y-52634105D01*
X86097326Y-52734379D01*
X86118500Y-52840830D01*
X86118500Y-52949370D01*
X86097326Y-53055821D01*
X86055791Y-53156095D01*
X86055790Y-53156096D01*
X85995490Y-53246342D01*
X85918742Y-53323090D01*
X85887187Y-53344174D01*
X85828495Y-53383391D01*
X85728221Y-53424926D01*
X85621770Y-53446100D01*
X85513230Y-53446100D01*
X85406779Y-53424926D01*
X85306505Y-53383391D01*
X85247813Y-53344174D01*
X85216258Y-53323090D01*
X85139510Y-53246342D01*
X85079210Y-53156096D01*
X85079209Y-53156095D01*
X85037674Y-53055821D01*
X85016500Y-52949370D01*
X85016500Y-52840830D01*
X85037674Y-52734379D01*
X85079209Y-52634105D01*
X85139509Y-52543860D01*
X85139510Y-52543858D01*
X85216258Y-52467110D01*
X85306504Y-52406810D01*
X85306505Y-52406809D01*
X85406779Y-52365274D01*
X85513230Y-52344100D01*
X85621770Y-52344100D01*
X85728221Y-52365274D01*
X85728221Y-52365274D01*
G37*
G36*
X67735991Y-51827485D02*
G01*
X67769969Y-51837793D01*
X67801290Y-51854534D01*
X67828739Y-51877061D01*
X67851266Y-51904510D01*
X67868007Y-51935831D01*
X67878315Y-51969809D01*
X67882400Y-52011290D01*
X67882400Y-52687510D01*
X67878315Y-52728991D01*
X67868007Y-52762969D01*
X67851266Y-52794290D01*
X67828739Y-52821739D01*
X67801290Y-52844266D01*
X67769969Y-52861007D01*
X67735991Y-52871315D01*
X67694510Y-52875400D01*
X67093290Y-52875400D01*
X67051809Y-52871315D01*
X67017831Y-52861007D01*
X66986510Y-52844266D01*
X66959061Y-52821739D01*
X66936534Y-52794290D01*
X66919793Y-52762969D01*
X66909485Y-52728991D01*
X66905400Y-52687510D01*
X66905400Y-52011290D01*
X66909485Y-51969809D01*
X66919793Y-51935831D01*
X66936534Y-51904510D01*
X66959061Y-51877061D01*
X66986510Y-51854534D01*
X67017831Y-51837793D01*
X67051809Y-51827485D01*
X67093290Y-51823400D01*
X67694510Y-51823400D01*
X67735991Y-51827485D01*
X67735991Y-51827485D01*
G37*
G36*
X74713191Y-51827485D02*
G01*
X74747169Y-51837793D01*
X74778490Y-51854534D01*
X74805939Y-51877061D01*
X74828466Y-51904510D01*
X74845207Y-51935831D01*
X74855515Y-51969809D01*
X74859600Y-52011290D01*
X74859600Y-52687510D01*
X74855515Y-52728991D01*
X74845207Y-52762969D01*
X74828466Y-52794290D01*
X74805939Y-52821739D01*
X74778490Y-52844266D01*
X74747169Y-52861007D01*
X74713191Y-52871315D01*
X74671710Y-52875400D01*
X74070490Y-52875400D01*
X74029009Y-52871315D01*
X73995031Y-52861007D01*
X73963710Y-52844266D01*
X73936261Y-52821739D01*
X73913734Y-52794290D01*
X73896993Y-52762969D01*
X73886685Y-52728991D01*
X73882600Y-52687510D01*
X73882600Y-52011290D01*
X73886685Y-51969809D01*
X73896993Y-51935831D01*
X73913734Y-51904510D01*
X73936261Y-51877061D01*
X73963710Y-51854534D01*
X73995031Y-51837793D01*
X74029009Y-51827485D01*
X74070490Y-51823400D01*
X74671710Y-51823400D01*
X74713191Y-51827485D01*
X74713191Y-51827485D01*
G37*
G36*
X76288191Y-51827485D02*
G01*
X76322169Y-51837793D01*
X76353490Y-51854534D01*
X76380939Y-51877061D01*
X76403466Y-51904510D01*
X76420207Y-51935831D01*
X76430515Y-51969809D01*
X76434600Y-52011290D01*
X76434600Y-52687510D01*
X76430515Y-52728991D01*
X76420207Y-52762969D01*
X76403466Y-52794290D01*
X76380939Y-52821739D01*
X76353490Y-52844266D01*
X76322169Y-52861007D01*
X76288191Y-52871315D01*
X76246710Y-52875400D01*
X75645490Y-52875400D01*
X75604009Y-52871315D01*
X75570031Y-52861007D01*
X75538710Y-52844266D01*
X75511261Y-52821739D01*
X75488734Y-52794290D01*
X75471993Y-52762969D01*
X75461685Y-52728991D01*
X75457600Y-52687510D01*
X75457600Y-52011290D01*
X75461685Y-51969809D01*
X75471993Y-51935831D01*
X75488734Y-51904510D01*
X75511261Y-51877061D01*
X75538710Y-51854534D01*
X75570031Y-51837793D01*
X75604009Y-51827485D01*
X75645490Y-51823400D01*
X76246710Y-51823400D01*
X76288191Y-51827485D01*
X76288191Y-51827485D01*
G37*
G36*
X66160991Y-51827485D02*
G01*
X66194969Y-51837793D01*
X66226290Y-51854534D01*
X66253739Y-51877061D01*
X66276266Y-51904510D01*
X66293007Y-51935831D01*
X66303315Y-51969809D01*
X66307400Y-52011290D01*
X66307400Y-52687510D01*
X66303315Y-52728991D01*
X66293007Y-52762969D01*
X66276266Y-52794290D01*
X66253739Y-52821739D01*
X66226290Y-52844266D01*
X66194969Y-52861007D01*
X66160991Y-52871315D01*
X66119510Y-52875400D01*
X65518290Y-52875400D01*
X65476809Y-52871315D01*
X65442831Y-52861007D01*
X65411510Y-52844266D01*
X65384061Y-52821739D01*
X65361534Y-52794290D01*
X65344793Y-52762969D01*
X65334485Y-52728991D01*
X65330400Y-52687510D01*
X65330400Y-52011290D01*
X65334485Y-51969809D01*
X65344793Y-51935831D01*
X65361534Y-51904510D01*
X65384061Y-51877061D01*
X65411510Y-51854534D01*
X65442831Y-51837793D01*
X65476809Y-51827485D01*
X65518290Y-51823400D01*
X66119510Y-51823400D01*
X66160991Y-51827485D01*
X66160991Y-51827485D01*
G37*
G36*
X84509800Y-52514400D02*
G01*
X83607800Y-52514400D01*
X83607800Y-51512400D01*
X84509800Y-51512400D01*
X84509800Y-52514400D01*
X84509800Y-52514400D01*
G37*
G36*
X82609800Y-52514400D02*
G01*
X81707800Y-52514400D01*
X81707800Y-51512400D01*
X82609800Y-51512400D01*
X82609800Y-52514400D01*
X82609800Y-52514400D01*
G37*
G36*
X81102238Y-51675816D02*
G01*
X81122857Y-51682071D01*
X81141853Y-51692224D01*
X81158508Y-51705892D01*
X81172176Y-51722547D01*
X81182329Y-51741543D01*
X81188584Y-51762162D01*
X81191300Y-51789740D01*
X81191300Y-52248460D01*
X81188584Y-52276038D01*
X81182329Y-52296657D01*
X81172176Y-52315653D01*
X81158508Y-52332308D01*
X81141853Y-52345976D01*
X81122857Y-52356129D01*
X81102238Y-52362384D01*
X81074660Y-52365100D01*
X80565940Y-52365100D01*
X80538362Y-52362384D01*
X80517743Y-52356129D01*
X80498747Y-52345976D01*
X80482092Y-52332308D01*
X80468424Y-52315653D01*
X80458271Y-52296657D01*
X80452016Y-52276038D01*
X80449300Y-52248460D01*
X80449300Y-51789740D01*
X80452016Y-51762162D01*
X80458271Y-51741543D01*
X80468424Y-51722547D01*
X80482092Y-51705892D01*
X80498747Y-51692224D01*
X80517743Y-51682071D01*
X80538362Y-51675816D01*
X80565940Y-51673100D01*
X81074660Y-51673100D01*
X81102238Y-51675816D01*
X81102238Y-51675816D01*
G37*
G36*
X33394010Y-51397925D02*
G01*
X33479026Y-51423714D01*
X33557375Y-51465593D01*
X33626049Y-51521951D01*
X33682407Y-51590625D01*
X33724286Y-51668974D01*
X33750075Y-51753990D01*
X33758782Y-51842400D01*
X33750075Y-51930810D01*
X33724286Y-52015826D01*
X33682407Y-52094175D01*
X33626049Y-52162849D01*
X33557375Y-52219207D01*
X33479026Y-52261086D01*
X33394010Y-52286875D01*
X33327758Y-52293400D01*
X32783442Y-52293400D01*
X32717190Y-52286875D01*
X32632174Y-52261086D01*
X32553825Y-52219207D01*
X32485151Y-52162849D01*
X32428793Y-52094175D01*
X32386914Y-52015826D01*
X32361125Y-51930810D01*
X32352418Y-51842400D01*
X32361125Y-51753990D01*
X32386914Y-51668974D01*
X32428793Y-51590625D01*
X32485151Y-51521951D01*
X32553825Y-51465593D01*
X32632174Y-51423714D01*
X32717190Y-51397925D01*
X32783442Y-51391400D01*
X33327758Y-51391400D01*
X33394010Y-51397925D01*
X33394010Y-51397925D01*
G37*
G36*
X87526728Y-49524264D02*
G01*
X87547809Y-49530660D01*
X87567245Y-49541048D01*
X87584276Y-49555024D01*
X87598252Y-49572055D01*
X87608640Y-49591491D01*
X87615036Y-49612572D01*
X87617800Y-49640640D01*
X87617800Y-51454360D01*
X87615036Y-51482428D01*
X87608640Y-51503509D01*
X87598252Y-51522945D01*
X87584276Y-51539976D01*
X87567245Y-51553952D01*
X87547809Y-51564340D01*
X87526728Y-51570736D01*
X87498660Y-51573500D01*
X87034940Y-51573500D01*
X87006872Y-51570736D01*
X86985791Y-51564340D01*
X86966355Y-51553952D01*
X86949324Y-51539976D01*
X86935348Y-51522945D01*
X86924960Y-51503509D01*
X86918564Y-51482428D01*
X86915800Y-51454360D01*
X86915800Y-49640640D01*
X86918564Y-49612572D01*
X86924960Y-49591491D01*
X86935348Y-49572055D01*
X86949324Y-49555024D01*
X86966355Y-49541048D01*
X86985791Y-49530660D01*
X87006872Y-49524264D01*
X87034940Y-49521500D01*
X87498660Y-49521500D01*
X87526728Y-49524264D01*
X87526728Y-49524264D01*
G37*
G36*
X90066728Y-49524264D02*
G01*
X90087809Y-49530660D01*
X90107245Y-49541048D01*
X90124276Y-49555024D01*
X90138252Y-49572055D01*
X90148640Y-49591491D01*
X90155036Y-49612572D01*
X90157800Y-49640640D01*
X90157800Y-51454360D01*
X90155036Y-51482428D01*
X90148640Y-51503509D01*
X90138252Y-51522945D01*
X90124276Y-51539976D01*
X90107245Y-51553952D01*
X90087809Y-51564340D01*
X90066728Y-51570736D01*
X90038660Y-51573500D01*
X89574940Y-51573500D01*
X89546872Y-51570736D01*
X89525791Y-51564340D01*
X89506355Y-51553952D01*
X89489324Y-51539976D01*
X89475348Y-51522945D01*
X89464960Y-51503509D01*
X89458564Y-51482428D01*
X89455800Y-51454360D01*
X89455800Y-49640640D01*
X89458564Y-49612572D01*
X89464960Y-49591491D01*
X89475348Y-49572055D01*
X89489324Y-49555024D01*
X89506355Y-49541048D01*
X89525791Y-49530660D01*
X89546872Y-49524264D01*
X89574940Y-49521500D01*
X90038660Y-49521500D01*
X90066728Y-49524264D01*
X90066728Y-49524264D01*
G37*
G36*
X86256728Y-49524264D02*
G01*
X86277809Y-49530660D01*
X86297245Y-49541048D01*
X86314276Y-49555024D01*
X86328252Y-49572055D01*
X86338640Y-49591491D01*
X86345036Y-49612572D01*
X86347800Y-49640640D01*
X86347800Y-51454360D01*
X86345036Y-51482428D01*
X86338640Y-51503509D01*
X86328252Y-51522945D01*
X86314276Y-51539976D01*
X86297245Y-51553952D01*
X86277809Y-51564340D01*
X86256728Y-51570736D01*
X86228660Y-51573500D01*
X85764940Y-51573500D01*
X85736872Y-51570736D01*
X85715791Y-51564340D01*
X85696355Y-51553952D01*
X85679324Y-51539976D01*
X85665348Y-51522945D01*
X85654960Y-51503509D01*
X85648564Y-51482428D01*
X85645800Y-51454360D01*
X85645800Y-49640640D01*
X85648564Y-49612572D01*
X85654960Y-49591491D01*
X85665348Y-49572055D01*
X85679324Y-49555024D01*
X85696355Y-49541048D01*
X85715791Y-49530660D01*
X85736872Y-49524264D01*
X85764940Y-49521500D01*
X86228660Y-49521500D01*
X86256728Y-49524264D01*
X86256728Y-49524264D01*
G37*
G36*
X88796728Y-49524264D02*
G01*
X88817809Y-49530660D01*
X88837245Y-49541048D01*
X88854276Y-49555024D01*
X88868252Y-49572055D01*
X88878640Y-49591491D01*
X88885036Y-49612572D01*
X88887800Y-49640640D01*
X88887800Y-51454360D01*
X88885036Y-51482428D01*
X88878640Y-51503509D01*
X88868252Y-51522945D01*
X88854276Y-51539976D01*
X88837245Y-51553952D01*
X88817809Y-51564340D01*
X88796728Y-51570736D01*
X88768660Y-51573500D01*
X88304940Y-51573500D01*
X88276872Y-51570736D01*
X88255791Y-51564340D01*
X88236355Y-51553952D01*
X88219324Y-51539976D01*
X88205348Y-51522945D01*
X88194960Y-51503509D01*
X88188564Y-51482428D01*
X88185800Y-51454360D01*
X88185800Y-49640640D01*
X88188564Y-49612572D01*
X88194960Y-49591491D01*
X88205348Y-49572055D01*
X88219324Y-49555024D01*
X88236355Y-49541048D01*
X88255791Y-49530660D01*
X88276872Y-49524264D01*
X88304940Y-49521500D01*
X88768660Y-49521500D01*
X88796728Y-49524264D01*
X88796728Y-49524264D01*
G37*
G36*
X81102238Y-50705816D02*
G01*
X81122857Y-50712071D01*
X81141853Y-50722224D01*
X81158508Y-50735892D01*
X81172176Y-50752547D01*
X81182329Y-50771543D01*
X81188584Y-50792162D01*
X81191300Y-50819740D01*
X81191300Y-51278460D01*
X81188584Y-51306038D01*
X81182329Y-51326657D01*
X81172176Y-51345653D01*
X81158508Y-51362308D01*
X81141853Y-51375976D01*
X81122857Y-51386129D01*
X81102238Y-51392384D01*
X81074660Y-51395100D01*
X80565940Y-51395100D01*
X80538362Y-51392384D01*
X80517743Y-51386129D01*
X80498747Y-51375976D01*
X80482092Y-51362308D01*
X80468424Y-51345653D01*
X80458271Y-51326657D01*
X80452016Y-51306038D01*
X80449300Y-51278460D01*
X80449300Y-50819740D01*
X80452016Y-50792162D01*
X80458271Y-50771543D01*
X80468424Y-50752547D01*
X80482092Y-50735892D01*
X80498747Y-50722224D01*
X80517743Y-50712071D01*
X80538362Y-50705816D01*
X80565940Y-50703100D01*
X81074660Y-50703100D01*
X81102238Y-50705816D01*
X81102238Y-50705816D01*
G37*
G36*
X66216391Y-50277585D02*
G01*
X66250369Y-50287893D01*
X66281690Y-50304634D01*
X66309139Y-50327161D01*
X66331666Y-50354610D01*
X66348407Y-50385931D01*
X66358715Y-50419909D01*
X66362800Y-50461390D01*
X66362800Y-51062610D01*
X66358715Y-51104091D01*
X66348407Y-51138069D01*
X66331666Y-51169390D01*
X66309139Y-51196839D01*
X66281690Y-51219366D01*
X66250369Y-51236107D01*
X66216391Y-51246415D01*
X66174910Y-51250500D01*
X65498690Y-51250500D01*
X65457209Y-51246415D01*
X65423231Y-51236107D01*
X65391910Y-51219366D01*
X65364461Y-51196839D01*
X65341934Y-51169390D01*
X65325193Y-51138069D01*
X65314885Y-51104091D01*
X65310800Y-51062610D01*
X65310800Y-50461390D01*
X65314885Y-50419909D01*
X65325193Y-50385931D01*
X65341934Y-50354610D01*
X65364461Y-50327161D01*
X65391910Y-50304634D01*
X65423231Y-50287893D01*
X65457209Y-50277585D01*
X65498690Y-50273500D01*
X66174910Y-50273500D01*
X66216391Y-50277585D01*
X66216391Y-50277585D01*
G37*
G36*
X76234191Y-50277585D02*
G01*
X76268169Y-50287893D01*
X76299490Y-50304634D01*
X76326939Y-50327161D01*
X76349466Y-50354610D01*
X76366207Y-50385931D01*
X76376515Y-50419909D01*
X76380600Y-50461390D01*
X76380600Y-51062610D01*
X76376515Y-51104091D01*
X76366207Y-51138069D01*
X76349466Y-51169390D01*
X76326939Y-51196839D01*
X76299490Y-51219366D01*
X76268169Y-51236107D01*
X76234191Y-51246415D01*
X76192710Y-51250500D01*
X75516490Y-51250500D01*
X75475009Y-51246415D01*
X75441031Y-51236107D01*
X75409710Y-51219366D01*
X75382261Y-51196839D01*
X75359734Y-51169390D01*
X75342993Y-51138069D01*
X75332685Y-51104091D01*
X75328600Y-51062610D01*
X75328600Y-50461390D01*
X75332685Y-50419909D01*
X75342993Y-50385931D01*
X75359734Y-50354610D01*
X75382261Y-50327161D01*
X75409710Y-50304634D01*
X75441031Y-50287893D01*
X75475009Y-50277585D01*
X75516490Y-50273500D01*
X76192710Y-50273500D01*
X76234191Y-50277585D01*
X76234191Y-50277585D01*
G37*
G36*
X74643238Y-50411416D02*
G01*
X74663857Y-50417671D01*
X74682853Y-50427824D01*
X74699508Y-50441492D01*
X74713176Y-50458147D01*
X74723329Y-50477143D01*
X74729584Y-50497762D01*
X74732300Y-50525340D01*
X74732300Y-51034060D01*
X74729584Y-51061638D01*
X74723329Y-51082257D01*
X74713176Y-51101253D01*
X74699508Y-51117908D01*
X74682853Y-51131576D01*
X74663857Y-51141729D01*
X74643238Y-51147984D01*
X74615660Y-51150700D01*
X74156940Y-51150700D01*
X74129362Y-51147984D01*
X74108743Y-51141729D01*
X74089747Y-51131576D01*
X74073092Y-51117908D01*
X74059424Y-51101253D01*
X74049271Y-51082257D01*
X74043016Y-51061638D01*
X74040300Y-51034060D01*
X74040300Y-50525340D01*
X74043016Y-50497762D01*
X74049271Y-50477143D01*
X74059424Y-50458147D01*
X74073092Y-50441492D01*
X74089747Y-50427824D01*
X74108743Y-50417671D01*
X74129362Y-50411416D01*
X74156940Y-50408700D01*
X74615660Y-50408700D01*
X74643238Y-50411416D01*
X74643238Y-50411416D01*
G37*
G36*
X73673238Y-50411416D02*
G01*
X73693857Y-50417671D01*
X73712853Y-50427824D01*
X73729508Y-50441492D01*
X73743176Y-50458147D01*
X73753329Y-50477143D01*
X73759584Y-50497762D01*
X73762300Y-50525340D01*
X73762300Y-51034060D01*
X73759584Y-51061638D01*
X73753329Y-51082257D01*
X73743176Y-51101253D01*
X73729508Y-51117908D01*
X73712853Y-51131576D01*
X73693857Y-51141729D01*
X73673238Y-51147984D01*
X73645660Y-51150700D01*
X73186940Y-51150700D01*
X73159362Y-51147984D01*
X73138743Y-51141729D01*
X73119747Y-51131576D01*
X73103092Y-51117908D01*
X73089424Y-51101253D01*
X73079271Y-51082257D01*
X73073016Y-51061638D01*
X73070300Y-51034060D01*
X73070300Y-50525340D01*
X73073016Y-50497762D01*
X73079271Y-50477143D01*
X73089424Y-50458147D01*
X73103092Y-50441492D01*
X73119747Y-50427824D01*
X73138743Y-50417671D01*
X73159362Y-50411416D01*
X73186940Y-50408700D01*
X73645660Y-50408700D01*
X73673238Y-50411416D01*
X73673238Y-50411416D01*
G37*
G36*
X68552338Y-50411416D02*
G01*
X68572957Y-50417671D01*
X68591953Y-50427824D01*
X68608608Y-50441492D01*
X68622276Y-50458147D01*
X68632429Y-50477143D01*
X68638684Y-50497762D01*
X68641400Y-50525340D01*
X68641400Y-51034060D01*
X68638684Y-51061638D01*
X68632429Y-51082257D01*
X68622276Y-51101253D01*
X68608608Y-51117908D01*
X68591953Y-51131576D01*
X68572957Y-51141729D01*
X68552338Y-51147984D01*
X68524760Y-51150700D01*
X68066040Y-51150700D01*
X68038462Y-51147984D01*
X68017843Y-51141729D01*
X67998847Y-51131576D01*
X67982192Y-51117908D01*
X67968524Y-51101253D01*
X67958371Y-51082257D01*
X67952116Y-51061638D01*
X67949400Y-51034060D01*
X67949400Y-50525340D01*
X67952116Y-50497762D01*
X67958371Y-50477143D01*
X67968524Y-50458147D01*
X67982192Y-50441492D01*
X67998847Y-50427824D01*
X68017843Y-50417671D01*
X68038462Y-50411416D01*
X68066040Y-50408700D01*
X68524760Y-50408700D01*
X68552338Y-50411416D01*
X68552338Y-50411416D01*
G37*
G36*
X67582338Y-50411416D02*
G01*
X67602957Y-50417671D01*
X67621953Y-50427824D01*
X67638608Y-50441492D01*
X67652276Y-50458147D01*
X67662429Y-50477143D01*
X67668684Y-50497762D01*
X67671400Y-50525340D01*
X67671400Y-51034060D01*
X67668684Y-51061638D01*
X67662429Y-51082257D01*
X67652276Y-51101253D01*
X67638608Y-51117908D01*
X67621953Y-51131576D01*
X67602957Y-51141729D01*
X67582338Y-51147984D01*
X67554760Y-51150700D01*
X67096040Y-51150700D01*
X67068462Y-51147984D01*
X67047843Y-51141729D01*
X67028847Y-51131576D01*
X67012192Y-51117908D01*
X66998524Y-51101253D01*
X66988371Y-51082257D01*
X66982116Y-51061638D01*
X66979400Y-51034060D01*
X66979400Y-50525340D01*
X66982116Y-50497762D01*
X66988371Y-50477143D01*
X66998524Y-50458147D01*
X67012192Y-50441492D01*
X67028847Y-50427824D01*
X67047843Y-50417671D01*
X67068462Y-50411416D01*
X67096040Y-50408700D01*
X67554760Y-50408700D01*
X67582338Y-50411416D01*
X67582338Y-50411416D01*
G37*
G36*
X33394010Y-50147925D02*
G01*
X33479026Y-50173714D01*
X33557375Y-50215593D01*
X33626049Y-50271951D01*
X33682407Y-50340625D01*
X33724286Y-50418974D01*
X33750075Y-50503990D01*
X33758782Y-50592400D01*
X33750075Y-50680810D01*
X33724286Y-50765826D01*
X33682407Y-50844175D01*
X33626049Y-50912849D01*
X33557375Y-50969207D01*
X33479026Y-51011086D01*
X33394010Y-51036875D01*
X33327758Y-51043400D01*
X32783442Y-51043400D01*
X32717190Y-51036875D01*
X32632174Y-51011086D01*
X32553825Y-50969207D01*
X32485151Y-50912849D01*
X32428793Y-50844175D01*
X32386914Y-50765826D01*
X32361125Y-50680810D01*
X32352418Y-50592400D01*
X32361125Y-50503990D01*
X32386914Y-50418974D01*
X32428793Y-50340625D01*
X32485151Y-50271951D01*
X32553825Y-50215593D01*
X32632174Y-50173714D01*
X32717190Y-50147925D01*
X32783442Y-50141400D01*
X33327758Y-50141400D01*
X33394010Y-50147925D01*
X33394010Y-50147925D01*
G37*
G36*
X83559800Y-50514400D02*
G01*
X82657800Y-50514400D01*
X82657800Y-49512400D01*
X83559800Y-49512400D01*
X83559800Y-50514400D01*
X83559800Y-50514400D01*
G37*
G36*
X81104738Y-49681916D02*
G01*
X81125357Y-49688171D01*
X81144353Y-49698324D01*
X81161008Y-49711992D01*
X81174676Y-49728647D01*
X81184829Y-49747643D01*
X81191084Y-49768262D01*
X81193800Y-49795840D01*
X81193800Y-50254560D01*
X81191084Y-50282138D01*
X81184829Y-50302757D01*
X81174676Y-50321753D01*
X81161008Y-50338408D01*
X81144353Y-50352076D01*
X81125357Y-50362229D01*
X81104738Y-50368484D01*
X81077160Y-50371200D01*
X80568440Y-50371200D01*
X80540862Y-50368484D01*
X80520243Y-50362229D01*
X80501247Y-50352076D01*
X80484592Y-50338408D01*
X80470924Y-50321753D01*
X80460771Y-50302757D01*
X80454516Y-50282138D01*
X80451800Y-50254560D01*
X80451800Y-49795840D01*
X80454516Y-49768262D01*
X80460771Y-49747643D01*
X80470924Y-49728647D01*
X80484592Y-49711992D01*
X80501247Y-49698324D01*
X80520243Y-49688171D01*
X80540862Y-49681916D01*
X80568440Y-49679200D01*
X81077160Y-49679200D01*
X81104738Y-49681916D01*
X81104738Y-49681916D01*
G37*
G36*
X33394010Y-48897925D02*
G01*
X33479026Y-48923714D01*
X33557375Y-48965593D01*
X33626049Y-49021951D01*
X33682407Y-49090625D01*
X33724286Y-49168974D01*
X33750075Y-49253990D01*
X33758782Y-49342400D01*
X33750075Y-49430810D01*
X33724286Y-49515826D01*
X33682407Y-49594175D01*
X33626049Y-49662849D01*
X33557375Y-49719207D01*
X33479026Y-49761086D01*
X33394010Y-49786875D01*
X33327758Y-49793400D01*
X32783442Y-49793400D01*
X32717190Y-49786875D01*
X32632174Y-49761086D01*
X32553825Y-49719207D01*
X32485151Y-49662849D01*
X32428793Y-49594175D01*
X32386914Y-49515826D01*
X32361125Y-49430810D01*
X32352418Y-49342400D01*
X32361125Y-49253990D01*
X32386914Y-49168974D01*
X32428793Y-49090625D01*
X32485151Y-49021951D01*
X32553825Y-48965593D01*
X32632174Y-48923714D01*
X32717190Y-48897925D01*
X32783442Y-48891400D01*
X33327758Y-48891400D01*
X33394010Y-48897925D01*
X33394010Y-48897925D01*
G37*
G36*
X76234191Y-48702585D02*
G01*
X76268169Y-48712893D01*
X76299490Y-48729634D01*
X76326939Y-48752161D01*
X76349466Y-48779610D01*
X76366207Y-48810931D01*
X76376515Y-48844909D01*
X76380600Y-48886390D01*
X76380600Y-49487610D01*
X76376515Y-49529091D01*
X76366207Y-49563069D01*
X76349466Y-49594390D01*
X76326939Y-49621839D01*
X76299490Y-49644366D01*
X76268169Y-49661107D01*
X76234191Y-49671415D01*
X76192710Y-49675500D01*
X75516490Y-49675500D01*
X75475009Y-49671415D01*
X75441031Y-49661107D01*
X75409710Y-49644366D01*
X75382261Y-49621839D01*
X75359734Y-49594390D01*
X75342993Y-49563069D01*
X75332685Y-49529091D01*
X75328600Y-49487610D01*
X75328600Y-48886390D01*
X75332685Y-48844909D01*
X75342993Y-48810931D01*
X75359734Y-48779610D01*
X75382261Y-48752161D01*
X75409710Y-48729634D01*
X75441031Y-48712893D01*
X75475009Y-48702585D01*
X75516490Y-48698500D01*
X76192710Y-48698500D01*
X76234191Y-48702585D01*
X76234191Y-48702585D01*
G37*
G36*
X66216391Y-48702585D02*
G01*
X66250369Y-48712893D01*
X66281690Y-48729634D01*
X66309139Y-48752161D01*
X66331666Y-48779610D01*
X66348407Y-48810931D01*
X66358715Y-48844909D01*
X66362800Y-48886390D01*
X66362800Y-49487610D01*
X66358715Y-49529091D01*
X66348407Y-49563069D01*
X66331666Y-49594390D01*
X66309139Y-49621839D01*
X66281690Y-49644366D01*
X66250369Y-49661107D01*
X66216391Y-49671415D01*
X66174910Y-49675500D01*
X65498690Y-49675500D01*
X65457209Y-49671415D01*
X65423231Y-49661107D01*
X65391910Y-49644366D01*
X65364461Y-49621839D01*
X65341934Y-49594390D01*
X65325193Y-49563069D01*
X65314885Y-49529091D01*
X65310800Y-49487610D01*
X65310800Y-48886390D01*
X65314885Y-48844909D01*
X65325193Y-48810931D01*
X65341934Y-48779610D01*
X65364461Y-48752161D01*
X65391910Y-48729634D01*
X65423231Y-48712893D01*
X65457209Y-48702585D01*
X65498690Y-48698500D01*
X66174910Y-48698500D01*
X66216391Y-48702585D01*
X66216391Y-48702585D01*
G37*
G36*
X81104738Y-48711916D02*
G01*
X81125357Y-48718171D01*
X81144353Y-48728324D01*
X81161008Y-48741992D01*
X81174676Y-48758647D01*
X81184829Y-48777643D01*
X81191084Y-48798262D01*
X81193800Y-48825840D01*
X81193800Y-49284560D01*
X81191084Y-49312138D01*
X81184829Y-49332757D01*
X81174676Y-49351753D01*
X81161008Y-49368408D01*
X81144353Y-49382076D01*
X81125357Y-49392229D01*
X81104738Y-49398484D01*
X81077160Y-49401200D01*
X80568440Y-49401200D01*
X80540862Y-49398484D01*
X80520243Y-49392229D01*
X80501247Y-49382076D01*
X80484592Y-49368408D01*
X80470924Y-49351753D01*
X80460771Y-49332757D01*
X80454516Y-49312138D01*
X80451800Y-49284560D01*
X80451800Y-48825840D01*
X80454516Y-48798262D01*
X80460771Y-48777643D01*
X80470924Y-48758647D01*
X80484592Y-48741992D01*
X80501247Y-48728324D01*
X80520243Y-48718171D01*
X80540862Y-48711916D01*
X80568440Y-48709200D01*
X81077160Y-48709200D01*
X81104738Y-48711916D01*
X81104738Y-48711916D01*
G37*
G36*
X33625283Y-47645125D02*
G01*
X33655743Y-47654366D01*
X33683823Y-47669374D01*
X33708431Y-47689569D01*
X33728626Y-47714177D01*
X33743634Y-47742257D01*
X33752875Y-47772717D01*
X33756600Y-47810540D01*
X33756600Y-48374260D01*
X33752875Y-48412083D01*
X33743634Y-48442543D01*
X33728626Y-48470623D01*
X33708431Y-48495231D01*
X33683823Y-48515426D01*
X33655743Y-48530434D01*
X33625283Y-48539675D01*
X33587460Y-48543400D01*
X32523740Y-48543400D01*
X32485917Y-48539675D01*
X32455457Y-48530434D01*
X32427377Y-48515426D01*
X32402769Y-48495231D01*
X32382574Y-48470623D01*
X32367566Y-48442543D01*
X32358325Y-48412083D01*
X32354600Y-48374260D01*
X32354600Y-47810540D01*
X32358325Y-47772717D01*
X32367566Y-47742257D01*
X32382574Y-47714177D01*
X32402769Y-47689569D01*
X32427377Y-47669374D01*
X32455457Y-47654366D01*
X32485917Y-47645125D01*
X32523740Y-47641400D01*
X33587460Y-47641400D01*
X33625283Y-47645125D01*
X33625283Y-47645125D01*
G37*
G36*
X88709428Y-44164898D02*
G01*
X88883974Y-44217847D01*
X88883977Y-44217849D01*
X88883978Y-44217849D01*
X88964412Y-44260842D01*
X89044850Y-44303836D01*
X89185849Y-44419551D01*
X89301567Y-44560553D01*
X89387552Y-44721421D01*
X89440502Y-44895971D01*
X89453900Y-45032010D01*
X89453900Y-46872990D01*
X89440502Y-47009029D01*
X89387552Y-47183579D01*
X89301567Y-47344447D01*
X89185849Y-47485449D01*
X89044847Y-47601167D01*
X88883979Y-47687152D01*
X88709429Y-47740102D01*
X88527900Y-47757980D01*
X88346372Y-47740102D01*
X88171822Y-47687152D01*
X88010954Y-47601167D01*
X87869952Y-47485449D01*
X87754234Y-47344447D01*
X87668249Y-47183579D01*
X87615299Y-47009029D01*
X87601900Y-46872989D01*
X87601900Y-45032011D01*
X87615298Y-44895972D01*
X87668247Y-44721426D01*
X87754236Y-44560550D01*
X87869951Y-44419551D01*
X88010953Y-44303833D01*
X88171821Y-44217848D01*
X88346371Y-44164898D01*
X88527900Y-44147020D01*
X88709428Y-44164898D01*
X88709428Y-44164898D01*
G37*
G36*
X86209428Y-44164898D02*
G01*
X86383974Y-44217847D01*
X86383977Y-44217849D01*
X86383978Y-44217849D01*
X86464412Y-44260842D01*
X86544850Y-44303836D01*
X86685849Y-44419551D01*
X86801567Y-44560553D01*
X86887552Y-44721421D01*
X86940502Y-44895971D01*
X86953900Y-45032010D01*
X86953900Y-46872990D01*
X86940502Y-47009029D01*
X86887552Y-47183579D01*
X86801567Y-47344447D01*
X86685849Y-47485449D01*
X86544847Y-47601167D01*
X86383979Y-47687152D01*
X86209429Y-47740102D01*
X86027900Y-47757980D01*
X85846372Y-47740102D01*
X85671822Y-47687152D01*
X85510954Y-47601167D01*
X85369952Y-47485449D01*
X85254234Y-47344447D01*
X85168249Y-47183579D01*
X85115299Y-47009029D01*
X85101900Y-46872989D01*
X85101900Y-45032011D01*
X85115298Y-44895972D01*
X85168247Y-44721426D01*
X85254236Y-44560550D01*
X85369951Y-44419551D01*
X85510953Y-44303833D01*
X85671821Y-44217848D01*
X85846371Y-44164898D01*
X86027900Y-44147020D01*
X86209428Y-44164898D01*
X86209428Y-44164898D01*
G37*
G36*
X81209428Y-44164898D02*
G01*
X81383974Y-44217847D01*
X81383977Y-44217849D01*
X81383978Y-44217849D01*
X81464412Y-44260842D01*
X81544850Y-44303836D01*
X81685849Y-44419551D01*
X81801567Y-44560553D01*
X81887552Y-44721421D01*
X81940502Y-44895971D01*
X81953900Y-45032010D01*
X81953900Y-46872990D01*
X81940502Y-47009029D01*
X81887552Y-47183579D01*
X81801567Y-47344447D01*
X81685849Y-47485449D01*
X81544847Y-47601167D01*
X81383979Y-47687152D01*
X81209429Y-47740102D01*
X81027900Y-47757980D01*
X80846372Y-47740102D01*
X80671822Y-47687152D01*
X80510954Y-47601167D01*
X80369952Y-47485449D01*
X80254234Y-47344447D01*
X80168249Y-47183579D01*
X80115299Y-47009029D01*
X80101900Y-46872989D01*
X80101900Y-45032011D01*
X80115298Y-44895972D01*
X80168247Y-44721426D01*
X80254236Y-44560550D01*
X80369951Y-44419551D01*
X80510953Y-44303833D01*
X80671821Y-44217848D01*
X80846371Y-44164898D01*
X81027900Y-44147020D01*
X81209428Y-44164898D01*
X81209428Y-44164898D01*
G37*
G36*
X78709428Y-44164898D02*
G01*
X78883974Y-44217847D01*
X78883977Y-44217849D01*
X78883978Y-44217849D01*
X78964412Y-44260842D01*
X79044850Y-44303836D01*
X79185849Y-44419551D01*
X79301567Y-44560553D01*
X79387552Y-44721421D01*
X79440502Y-44895971D01*
X79453900Y-45032010D01*
X79453900Y-46872990D01*
X79440502Y-47009029D01*
X79387552Y-47183579D01*
X79301567Y-47344447D01*
X79185849Y-47485449D01*
X79044847Y-47601167D01*
X78883979Y-47687152D01*
X78709429Y-47740102D01*
X78527900Y-47757980D01*
X78346372Y-47740102D01*
X78171822Y-47687152D01*
X78010954Y-47601167D01*
X77869952Y-47485449D01*
X77754234Y-47344447D01*
X77668249Y-47183579D01*
X77615299Y-47009029D01*
X77601900Y-46872989D01*
X77601900Y-45032011D01*
X77615298Y-44895972D01*
X77668247Y-44721426D01*
X77754236Y-44560550D01*
X77869951Y-44419551D01*
X78010953Y-44303833D01*
X78171821Y-44217848D01*
X78346371Y-44164898D01*
X78527900Y-44147020D01*
X78709428Y-44164898D01*
X78709428Y-44164898D01*
G37*
G36*
X76014528Y-44164898D02*
G01*
X76189074Y-44217847D01*
X76189077Y-44217849D01*
X76189078Y-44217849D01*
X76269512Y-44260842D01*
X76349950Y-44303836D01*
X76490949Y-44419551D01*
X76606667Y-44560553D01*
X76692652Y-44721421D01*
X76745602Y-44895971D01*
X76759000Y-45032010D01*
X76759000Y-46872990D01*
X76745602Y-47009029D01*
X76692652Y-47183579D01*
X76606667Y-47344447D01*
X76490949Y-47485449D01*
X76349947Y-47601167D01*
X76189079Y-47687152D01*
X76014529Y-47740102D01*
X75833000Y-47757980D01*
X75651472Y-47740102D01*
X75476922Y-47687152D01*
X75316054Y-47601167D01*
X75175052Y-47485449D01*
X75059334Y-47344447D01*
X74973349Y-47183579D01*
X74920399Y-47009029D01*
X74907000Y-46872989D01*
X74907000Y-45032011D01*
X74920398Y-44895972D01*
X74973347Y-44721426D01*
X75059336Y-44560550D01*
X75175051Y-44419551D01*
X75316053Y-44303833D01*
X75476921Y-44217848D01*
X75651471Y-44164898D01*
X75833000Y-44147020D01*
X76014528Y-44164898D01*
X76014528Y-44164898D01*
G37*
G36*
X73514528Y-44164898D02*
G01*
X73689074Y-44217847D01*
X73689077Y-44217849D01*
X73689078Y-44217849D01*
X73769512Y-44260842D01*
X73849950Y-44303836D01*
X73990949Y-44419551D01*
X74106667Y-44560553D01*
X74192652Y-44721421D01*
X74245602Y-44895971D01*
X74259000Y-45032010D01*
X74259000Y-46872990D01*
X74245602Y-47009029D01*
X74192652Y-47183579D01*
X74106667Y-47344447D01*
X73990949Y-47485449D01*
X73849947Y-47601167D01*
X73689079Y-47687152D01*
X73514529Y-47740102D01*
X73333000Y-47757980D01*
X73151472Y-47740102D01*
X72976922Y-47687152D01*
X72816054Y-47601167D01*
X72675052Y-47485449D01*
X72559334Y-47344447D01*
X72473349Y-47183579D01*
X72420399Y-47009029D01*
X72407000Y-46872989D01*
X72407000Y-45032011D01*
X72420398Y-44895972D01*
X72473347Y-44721426D01*
X72559336Y-44560550D01*
X72675051Y-44419551D01*
X72816053Y-44303833D01*
X72976921Y-44217848D01*
X73151471Y-44164898D01*
X73333000Y-44147020D01*
X73514528Y-44164898D01*
X73514528Y-44164898D01*
G37*
G36*
X68514528Y-44164898D02*
G01*
X68689074Y-44217847D01*
X68689077Y-44217849D01*
X68689078Y-44217849D01*
X68769512Y-44260842D01*
X68849950Y-44303836D01*
X68990949Y-44419551D01*
X69106667Y-44560553D01*
X69192652Y-44721421D01*
X69245602Y-44895971D01*
X69259000Y-45032010D01*
X69259000Y-46872990D01*
X69245602Y-47009029D01*
X69192652Y-47183579D01*
X69106667Y-47344447D01*
X68990949Y-47485449D01*
X68849947Y-47601167D01*
X68689079Y-47687152D01*
X68514529Y-47740102D01*
X68333000Y-47757980D01*
X68151472Y-47740102D01*
X67976922Y-47687152D01*
X67816054Y-47601167D01*
X67675052Y-47485449D01*
X67559334Y-47344447D01*
X67473349Y-47183579D01*
X67420399Y-47009029D01*
X67407000Y-46872989D01*
X67407000Y-45032011D01*
X67420398Y-44895972D01*
X67473347Y-44721426D01*
X67559336Y-44560550D01*
X67675051Y-44419551D01*
X67816053Y-44303833D01*
X67976921Y-44217848D01*
X68151471Y-44164898D01*
X68333000Y-44147020D01*
X68514528Y-44164898D01*
X68514528Y-44164898D01*
G37*
G36*
X66014528Y-44164898D02*
G01*
X66189074Y-44217847D01*
X66189077Y-44217849D01*
X66189078Y-44217849D01*
X66269512Y-44260842D01*
X66349950Y-44303836D01*
X66490949Y-44419551D01*
X66606667Y-44560553D01*
X66692652Y-44721421D01*
X66745602Y-44895971D01*
X66759000Y-45032010D01*
X66759000Y-46872990D01*
X66745602Y-47009029D01*
X66692652Y-47183579D01*
X66606667Y-47344447D01*
X66490949Y-47485449D01*
X66349947Y-47601167D01*
X66189079Y-47687152D01*
X66014529Y-47740102D01*
X65833000Y-47757980D01*
X65651472Y-47740102D01*
X65476922Y-47687152D01*
X65316054Y-47601167D01*
X65175052Y-47485449D01*
X65059334Y-47344447D01*
X64973349Y-47183579D01*
X64920399Y-47009029D01*
X64907000Y-46872989D01*
X64907000Y-45032011D01*
X64920398Y-44895972D01*
X64973347Y-44721426D01*
X65059336Y-44560550D01*
X65175051Y-44419551D01*
X65316053Y-44303833D01*
X65476921Y-44217848D01*
X65651471Y-44164898D01*
X65833000Y-44147020D01*
X66014528Y-44164898D01*
X66014528Y-44164898D01*
G37*
G36*
X49009338Y-46470516D02*
G01*
X49029957Y-46476771D01*
X49048953Y-46486924D01*
X49065608Y-46500592D01*
X49079276Y-46517247D01*
X49089429Y-46536243D01*
X49095684Y-46556862D01*
X49098400Y-46584440D01*
X49098400Y-47043160D01*
X49095684Y-47070738D01*
X49089429Y-47091357D01*
X49079276Y-47110353D01*
X49065608Y-47127008D01*
X49048953Y-47140676D01*
X49029957Y-47150829D01*
X49009338Y-47157084D01*
X48981760Y-47159800D01*
X48473040Y-47159800D01*
X48445462Y-47157084D01*
X48424843Y-47150829D01*
X48405847Y-47140676D01*
X48389192Y-47127008D01*
X48375524Y-47110353D01*
X48365371Y-47091357D01*
X48359116Y-47070738D01*
X48356400Y-47043160D01*
X48356400Y-46584440D01*
X48359116Y-46556862D01*
X48365371Y-46536243D01*
X48375524Y-46517247D01*
X48389192Y-46500592D01*
X48405847Y-46486924D01*
X48424843Y-46476771D01*
X48445462Y-46470516D01*
X48473040Y-46467800D01*
X48981760Y-46467800D01*
X49009338Y-46470516D01*
X49009338Y-46470516D01*
G37*
G36*
X46669938Y-46470516D02*
G01*
X46690557Y-46476771D01*
X46709553Y-46486924D01*
X46726208Y-46500592D01*
X46739876Y-46517247D01*
X46750029Y-46536243D01*
X46756284Y-46556862D01*
X46759000Y-46584440D01*
X46759000Y-47043160D01*
X46756284Y-47070738D01*
X46750029Y-47091357D01*
X46739876Y-47110353D01*
X46726208Y-47127008D01*
X46709553Y-47140676D01*
X46690557Y-47150829D01*
X46669938Y-47157084D01*
X46642360Y-47159800D01*
X46133640Y-47159800D01*
X46106062Y-47157084D01*
X46085443Y-47150829D01*
X46066447Y-47140676D01*
X46049792Y-47127008D01*
X46036124Y-47110353D01*
X46025971Y-47091357D01*
X46019716Y-47070738D01*
X46017000Y-47043160D01*
X46017000Y-46584440D01*
X46019716Y-46556862D01*
X46025971Y-46536243D01*
X46036124Y-46517247D01*
X46049792Y-46500592D01*
X46066447Y-46486924D01*
X46085443Y-46476771D01*
X46106062Y-46470516D01*
X46133640Y-46467800D01*
X46642360Y-46467800D01*
X46669938Y-46470516D01*
X46669938Y-46470516D01*
G37*
G36*
X44417038Y-46470516D02*
G01*
X44437657Y-46476771D01*
X44456653Y-46486924D01*
X44473308Y-46500592D01*
X44486976Y-46517247D01*
X44497129Y-46536243D01*
X44503384Y-46556862D01*
X44506100Y-46584440D01*
X44506100Y-47043160D01*
X44503384Y-47070738D01*
X44497129Y-47091357D01*
X44486976Y-47110353D01*
X44473308Y-47127008D01*
X44456653Y-47140676D01*
X44437657Y-47150829D01*
X44417038Y-47157084D01*
X44389460Y-47159800D01*
X43880740Y-47159800D01*
X43853162Y-47157084D01*
X43832543Y-47150829D01*
X43813547Y-47140676D01*
X43796892Y-47127008D01*
X43783224Y-47110353D01*
X43773071Y-47091357D01*
X43766816Y-47070738D01*
X43764100Y-47043160D01*
X43764100Y-46584440D01*
X43766816Y-46556862D01*
X43773071Y-46536243D01*
X43783224Y-46517247D01*
X43796892Y-46500592D01*
X43813547Y-46486924D01*
X43832543Y-46476771D01*
X43853162Y-46470516D01*
X43880740Y-46467800D01*
X44389460Y-46467800D01*
X44417038Y-46470516D01*
X44417038Y-46470516D01*
G37*
G36*
X71022890Y-45281517D02*
G01*
X71141364Y-45330591D01*
X71247988Y-45401835D01*
X71338665Y-45492512D01*
X71401708Y-45586862D01*
X71409910Y-45599138D01*
X71458983Y-45717610D01*
X71484000Y-45843381D01*
X71484000Y-45971619D01*
X71458983Y-46097390D01*
X71409909Y-46215864D01*
X71338665Y-46322488D01*
X71247988Y-46413165D01*
X71141364Y-46484409D01*
X71141363Y-46484410D01*
X71141362Y-46484410D01*
X71022890Y-46533483D01*
X70897119Y-46558500D01*
X70768881Y-46558500D01*
X70643110Y-46533483D01*
X70524638Y-46484410D01*
X70524637Y-46484410D01*
X70524636Y-46484409D01*
X70418012Y-46413165D01*
X70327335Y-46322488D01*
X70256091Y-46215864D01*
X70207017Y-46097390D01*
X70182000Y-45971619D01*
X70182000Y-45843381D01*
X70207017Y-45717610D01*
X70256090Y-45599138D01*
X70264293Y-45586862D01*
X70327335Y-45492512D01*
X70418012Y-45401835D01*
X70524636Y-45330591D01*
X70643110Y-45281517D01*
X70768881Y-45256500D01*
X70897119Y-45256500D01*
X71022890Y-45281517D01*
X71022890Y-45281517D01*
G37*
G36*
X83717790Y-45281517D02*
G01*
X83836264Y-45330591D01*
X83942888Y-45401835D01*
X84033565Y-45492512D01*
X84096608Y-45586862D01*
X84104810Y-45599138D01*
X84153883Y-45717610D01*
X84178900Y-45843381D01*
X84178900Y-45971619D01*
X84153883Y-46097390D01*
X84104809Y-46215864D01*
X84033565Y-46322488D01*
X83942888Y-46413165D01*
X83836264Y-46484409D01*
X83836263Y-46484410D01*
X83836262Y-46484410D01*
X83717790Y-46533483D01*
X83592019Y-46558500D01*
X83463781Y-46558500D01*
X83338010Y-46533483D01*
X83219538Y-46484410D01*
X83219537Y-46484410D01*
X83219536Y-46484409D01*
X83112912Y-46413165D01*
X83022235Y-46322488D01*
X82950991Y-46215864D01*
X82901917Y-46097390D01*
X82876900Y-45971619D01*
X82876900Y-45843381D01*
X82901917Y-45717610D01*
X82950990Y-45599138D01*
X82959193Y-45586862D01*
X83022235Y-45492512D01*
X83112912Y-45401835D01*
X83219536Y-45330591D01*
X83338010Y-45281517D01*
X83463781Y-45256500D01*
X83592019Y-45256500D01*
X83717790Y-45281517D01*
X83717790Y-45281517D01*
G37*
G36*
X44417038Y-45500516D02*
G01*
X44437657Y-45506771D01*
X44456653Y-45516924D01*
X44473308Y-45530592D01*
X44486976Y-45547247D01*
X44497129Y-45566243D01*
X44503384Y-45586862D01*
X44506100Y-45614440D01*
X44506100Y-46073160D01*
X44503384Y-46100738D01*
X44497129Y-46121357D01*
X44486976Y-46140353D01*
X44473308Y-46157008D01*
X44456653Y-46170676D01*
X44437657Y-46180829D01*
X44417038Y-46187084D01*
X44389460Y-46189800D01*
X43880740Y-46189800D01*
X43853162Y-46187084D01*
X43832543Y-46180829D01*
X43813547Y-46170676D01*
X43796892Y-46157008D01*
X43783224Y-46140353D01*
X43773071Y-46121357D01*
X43766816Y-46100738D01*
X43764100Y-46073160D01*
X43764100Y-45614440D01*
X43766816Y-45586862D01*
X43773071Y-45566243D01*
X43783224Y-45547247D01*
X43796892Y-45530592D01*
X43813547Y-45516924D01*
X43832543Y-45506771D01*
X43853162Y-45500516D01*
X43880740Y-45497800D01*
X44389460Y-45497800D01*
X44417038Y-45500516D01*
X44417038Y-45500516D01*
G37*
G36*
X46669938Y-45500516D02*
G01*
X46690557Y-45506771D01*
X46709553Y-45516924D01*
X46726208Y-45530592D01*
X46739876Y-45547247D01*
X46750029Y-45566243D01*
X46756284Y-45586862D01*
X46759000Y-45614440D01*
X46759000Y-46073160D01*
X46756284Y-46100738D01*
X46750029Y-46121357D01*
X46739876Y-46140353D01*
X46726208Y-46157008D01*
X46709553Y-46170676D01*
X46690557Y-46180829D01*
X46669938Y-46187084D01*
X46642360Y-46189800D01*
X46133640Y-46189800D01*
X46106062Y-46187084D01*
X46085443Y-46180829D01*
X46066447Y-46170676D01*
X46049792Y-46157008D01*
X46036124Y-46140353D01*
X46025971Y-46121357D01*
X46019716Y-46100738D01*
X46017000Y-46073160D01*
X46017000Y-45614440D01*
X46019716Y-45586862D01*
X46025971Y-45566243D01*
X46036124Y-45547247D01*
X46049792Y-45530592D01*
X46066447Y-45516924D01*
X46085443Y-45506771D01*
X46106062Y-45500516D01*
X46133640Y-45497800D01*
X46642360Y-45497800D01*
X46669938Y-45500516D01*
X46669938Y-45500516D01*
G37*
G36*
X49009338Y-45500516D02*
G01*
X49029957Y-45506771D01*
X49048953Y-45516924D01*
X49065608Y-45530592D01*
X49079276Y-45547247D01*
X49089429Y-45566243D01*
X49095684Y-45586862D01*
X49098400Y-45614440D01*
X49098400Y-46073160D01*
X49095684Y-46100738D01*
X49089429Y-46121357D01*
X49079276Y-46140353D01*
X49065608Y-46157008D01*
X49048953Y-46170676D01*
X49029957Y-46180829D01*
X49009338Y-46187084D01*
X48981760Y-46189800D01*
X48473040Y-46189800D01*
X48445462Y-46187084D01*
X48424843Y-46180829D01*
X48405847Y-46170676D01*
X48389192Y-46157008D01*
X48375524Y-46140353D01*
X48365371Y-46121357D01*
X48359116Y-46100738D01*
X48356400Y-46073160D01*
X48356400Y-45614440D01*
X48359116Y-45586862D01*
X48365371Y-45566243D01*
X48375524Y-45547247D01*
X48389192Y-45530592D01*
X48405847Y-45516924D01*
X48424843Y-45506771D01*
X48445462Y-45500516D01*
X48473040Y-45497800D01*
X48981760Y-45497800D01*
X49009338Y-45500516D01*
X49009338Y-45500516D01*
G37*
G36*
X53520428Y-42572503D02*
G01*
X53675300Y-42636653D01*
X53814681Y-42729785D01*
X53933215Y-42848319D01*
X54026347Y-42987700D01*
X54090497Y-43142572D01*
X54123200Y-43306984D01*
X54123200Y-43474616D01*
X54090497Y-43639028D01*
X54026347Y-43793900D01*
X53933215Y-43933281D01*
X53814681Y-44051815D01*
X53675300Y-44144947D01*
X53520428Y-44209097D01*
X53356016Y-44241800D01*
X53188384Y-44241800D01*
X53023972Y-44209097D01*
X52869100Y-44144947D01*
X52729719Y-44051815D01*
X52611185Y-43933281D01*
X52518053Y-43793900D01*
X52453903Y-43639028D01*
X52421200Y-43474616D01*
X52421200Y-43306984D01*
X52453903Y-43142572D01*
X52518053Y-42987700D01*
X52611185Y-42848319D01*
X52729719Y-42729785D01*
X52869100Y-42636653D01*
X53023972Y-42572503D01*
X53188384Y-42539800D01*
X53356016Y-42539800D01*
X53520428Y-42572503D01*
X53520428Y-42572503D01*
G37*
G36*
X51230428Y-42572503D02*
G01*
X51385300Y-42636653D01*
X51524681Y-42729785D01*
X51643215Y-42848319D01*
X51736347Y-42987700D01*
X51800497Y-43142572D01*
X51833200Y-43306984D01*
X51833200Y-43474616D01*
X51800497Y-43639028D01*
X51736347Y-43793900D01*
X51643215Y-43933281D01*
X51524681Y-44051815D01*
X51385300Y-44144947D01*
X51230428Y-44209097D01*
X51066016Y-44241800D01*
X50898384Y-44241800D01*
X50733972Y-44209097D01*
X50579100Y-44144947D01*
X50439719Y-44051815D01*
X50321185Y-43933281D01*
X50228053Y-43793900D01*
X50163903Y-43639028D01*
X50131200Y-43474616D01*
X50131200Y-43306984D01*
X50163903Y-43142572D01*
X50228053Y-42987700D01*
X50321185Y-42848319D01*
X50439719Y-42729785D01*
X50579100Y-42636653D01*
X50733972Y-42572503D01*
X50898384Y-42539800D01*
X51066016Y-42539800D01*
X51230428Y-42572503D01*
X51230428Y-42572503D01*
G37*
G36*
X48940428Y-42572503D02*
G01*
X49095300Y-42636653D01*
X49234681Y-42729785D01*
X49353215Y-42848319D01*
X49446347Y-42987700D01*
X49510497Y-43142572D01*
X49543200Y-43306984D01*
X49543200Y-43474616D01*
X49510497Y-43639028D01*
X49446347Y-43793900D01*
X49353215Y-43933281D01*
X49234681Y-44051815D01*
X49095300Y-44144947D01*
X48940428Y-44209097D01*
X48776016Y-44241800D01*
X48608384Y-44241800D01*
X48443972Y-44209097D01*
X48289100Y-44144947D01*
X48149719Y-44051815D01*
X48031185Y-43933281D01*
X47938053Y-43793900D01*
X47873903Y-43639028D01*
X47841200Y-43474616D01*
X47841200Y-43306984D01*
X47873903Y-43142572D01*
X47938053Y-42987700D01*
X48031185Y-42848319D01*
X48149719Y-42729785D01*
X48289100Y-42636653D01*
X48443972Y-42572503D01*
X48608384Y-42539800D01*
X48776016Y-42539800D01*
X48940428Y-42572503D01*
X48940428Y-42572503D01*
G37*
G36*
X46650428Y-42572503D02*
G01*
X46805300Y-42636653D01*
X46944681Y-42729785D01*
X47063215Y-42848319D01*
X47156347Y-42987700D01*
X47220497Y-43142572D01*
X47253200Y-43306984D01*
X47253200Y-43474616D01*
X47220497Y-43639028D01*
X47156347Y-43793900D01*
X47063215Y-43933281D01*
X46944681Y-44051815D01*
X46805300Y-44144947D01*
X46650428Y-44209097D01*
X46486016Y-44241800D01*
X46318384Y-44241800D01*
X46153972Y-44209097D01*
X45999100Y-44144947D01*
X45859719Y-44051815D01*
X45741185Y-43933281D01*
X45648053Y-43793900D01*
X45583903Y-43639028D01*
X45551200Y-43474616D01*
X45551200Y-43306984D01*
X45583903Y-43142572D01*
X45648053Y-42987700D01*
X45741185Y-42848319D01*
X45859719Y-42729785D01*
X45999100Y-42636653D01*
X46153972Y-42572503D01*
X46318384Y-42539800D01*
X46486016Y-42539800D01*
X46650428Y-42572503D01*
X46650428Y-42572503D01*
G37*
G36*
X44963200Y-44241800D02*
G01*
X43261200Y-44241800D01*
X43261200Y-42539800D01*
X44963200Y-42539800D01*
X44963200Y-44241800D01*
X44963200Y-44241800D01*
G37*
G36*
X36525454Y-39368618D02*
G01*
X36898711Y-39523226D01*
X36898713Y-39523227D01*
X37081707Y-39645500D01*
X37234636Y-39747684D01*
X37520316Y-40033364D01*
X37744774Y-40369289D01*
X37899382Y-40742546D01*
X37978200Y-41138793D01*
X37978200Y-41542807D01*
X37899382Y-41939054D01*
X37765696Y-42261800D01*
X37744773Y-42312313D01*
X37520316Y-42648236D01*
X37234636Y-42933916D01*
X36898713Y-43158373D01*
X36898712Y-43158374D01*
X36898711Y-43158374D01*
X36525454Y-43312982D01*
X36129207Y-43391800D01*
X35725193Y-43391800D01*
X35328946Y-43312982D01*
X34955689Y-43158374D01*
X34955688Y-43158374D01*
X34955687Y-43158373D01*
X34619764Y-42933916D01*
X34334084Y-42648236D01*
X34109627Y-42312313D01*
X34088704Y-42261800D01*
X33955018Y-41939054D01*
X33876200Y-41542807D01*
X33876200Y-41138793D01*
X33955018Y-40742546D01*
X34109626Y-40369289D01*
X34334084Y-40033364D01*
X34619764Y-39747684D01*
X34772693Y-39645500D01*
X34955687Y-39523227D01*
X34955689Y-39523226D01*
X35328946Y-39368618D01*
X35725193Y-39289800D01*
X36129207Y-39289800D01*
X36525454Y-39368618D01*
X36525454Y-39368618D01*
G37*
G36*
X61525454Y-39368618D02*
G01*
X61898711Y-39523226D01*
X61898713Y-39523227D01*
X62081707Y-39645500D01*
X62234636Y-39747684D01*
X62520316Y-40033364D01*
X62744774Y-40369289D01*
X62899382Y-40742546D01*
X62978200Y-41138793D01*
X62978200Y-41542807D01*
X62899382Y-41939054D01*
X62765696Y-42261800D01*
X62744773Y-42312313D01*
X62520316Y-42648236D01*
X62234636Y-42933916D01*
X61898713Y-43158373D01*
X61898712Y-43158374D01*
X61898711Y-43158374D01*
X61525454Y-43312982D01*
X61129207Y-43391800D01*
X60725193Y-43391800D01*
X60328946Y-43312982D01*
X59955689Y-43158374D01*
X59955688Y-43158374D01*
X59955687Y-43158373D01*
X59619764Y-42933916D01*
X59334084Y-42648236D01*
X59109627Y-42312313D01*
X59088704Y-42261800D01*
X58955018Y-41939054D01*
X58876200Y-41542807D01*
X58876200Y-41138793D01*
X58955018Y-40742546D01*
X59109626Y-40369289D01*
X59334084Y-40033364D01*
X59619764Y-39747684D01*
X59772693Y-39645500D01*
X59955687Y-39523227D01*
X59955689Y-39523226D01*
X60328946Y-39368618D01*
X60725193Y-39289800D01*
X61129207Y-39289800D01*
X61525454Y-39368618D01*
X61525454Y-39368618D01*
G37*
G36*
X52375428Y-40592503D02*
G01*
X52530300Y-40656653D01*
X52669681Y-40749785D01*
X52788215Y-40868319D01*
X52881347Y-41007700D01*
X52945497Y-41162572D01*
X52978200Y-41326984D01*
X52978200Y-41494616D01*
X52945497Y-41659028D01*
X52881347Y-41813900D01*
X52788215Y-41953281D01*
X52669681Y-42071815D01*
X52530300Y-42164947D01*
X52375428Y-42229097D01*
X52211016Y-42261800D01*
X52043384Y-42261800D01*
X51878972Y-42229097D01*
X51724100Y-42164947D01*
X51584719Y-42071815D01*
X51466185Y-41953281D01*
X51373053Y-41813900D01*
X51308903Y-41659028D01*
X51276200Y-41494616D01*
X51276200Y-41326984D01*
X51308903Y-41162572D01*
X51373053Y-41007700D01*
X51466185Y-40868319D01*
X51584719Y-40749785D01*
X51724100Y-40656653D01*
X51878972Y-40592503D01*
X52043384Y-40559800D01*
X52211016Y-40559800D01*
X52375428Y-40592503D01*
X52375428Y-40592503D01*
G37*
G36*
X50085428Y-40592503D02*
G01*
X50240300Y-40656653D01*
X50379681Y-40749785D01*
X50498215Y-40868319D01*
X50591347Y-41007700D01*
X50655497Y-41162572D01*
X50688200Y-41326984D01*
X50688200Y-41494616D01*
X50655497Y-41659028D01*
X50591347Y-41813900D01*
X50498215Y-41953281D01*
X50379681Y-42071815D01*
X50240300Y-42164947D01*
X50085428Y-42229097D01*
X49921016Y-42261800D01*
X49753384Y-42261800D01*
X49588972Y-42229097D01*
X49434100Y-42164947D01*
X49294719Y-42071815D01*
X49176185Y-41953281D01*
X49083053Y-41813900D01*
X49018903Y-41659028D01*
X48986200Y-41494616D01*
X48986200Y-41326984D01*
X49018903Y-41162572D01*
X49083053Y-41007700D01*
X49176185Y-40868319D01*
X49294719Y-40749785D01*
X49434100Y-40656653D01*
X49588972Y-40592503D01*
X49753384Y-40559800D01*
X49921016Y-40559800D01*
X50085428Y-40592503D01*
X50085428Y-40592503D01*
G37*
G36*
X47795428Y-40592503D02*
G01*
X47950300Y-40656653D01*
X48089681Y-40749785D01*
X48208215Y-40868319D01*
X48301347Y-41007700D01*
X48365497Y-41162572D01*
X48398200Y-41326984D01*
X48398200Y-41494616D01*
X48365497Y-41659028D01*
X48301347Y-41813900D01*
X48208215Y-41953281D01*
X48089681Y-42071815D01*
X47950300Y-42164947D01*
X47795428Y-42229097D01*
X47631016Y-42261800D01*
X47463384Y-42261800D01*
X47298972Y-42229097D01*
X47144100Y-42164947D01*
X47004719Y-42071815D01*
X46886185Y-41953281D01*
X46793053Y-41813900D01*
X46728903Y-41659028D01*
X46696200Y-41494616D01*
X46696200Y-41326984D01*
X46728903Y-41162572D01*
X46793053Y-41007700D01*
X46886185Y-40868319D01*
X47004719Y-40749785D01*
X47144100Y-40656653D01*
X47298972Y-40592503D01*
X47463384Y-40559800D01*
X47631016Y-40559800D01*
X47795428Y-40592503D01*
X47795428Y-40592503D01*
G37*
G36*
X45505428Y-40592503D02*
G01*
X45660300Y-40656653D01*
X45799681Y-40749785D01*
X45918215Y-40868319D01*
X46011347Y-41007700D01*
X46075497Y-41162572D01*
X46108200Y-41326984D01*
X46108200Y-41494616D01*
X46075497Y-41659028D01*
X46011347Y-41813900D01*
X45918215Y-41953281D01*
X45799681Y-42071815D01*
X45660300Y-42164947D01*
X45505428Y-42229097D01*
X45341016Y-42261800D01*
X45173384Y-42261800D01*
X45008972Y-42229097D01*
X44854100Y-42164947D01*
X44714719Y-42071815D01*
X44596185Y-41953281D01*
X44503053Y-41813900D01*
X44438903Y-41659028D01*
X44406200Y-41494616D01*
X44406200Y-41326984D01*
X44438903Y-41162572D01*
X44503053Y-41007700D01*
X44596185Y-40868319D01*
X44714719Y-40749785D01*
X44854100Y-40656653D01*
X45008972Y-40592503D01*
X45173384Y-40559800D01*
X45341016Y-40559800D01*
X45505428Y-40592503D01*
X45505428Y-40592503D01*
G37*
G36*
X43215428Y-40592503D02*
G01*
X43370300Y-40656653D01*
X43509681Y-40749785D01*
X43628215Y-40868319D01*
X43721347Y-41007700D01*
X43785497Y-41162572D01*
X43818200Y-41326984D01*
X43818200Y-41494616D01*
X43785497Y-41659028D01*
X43721347Y-41813900D01*
X43628215Y-41953281D01*
X43509681Y-42071815D01*
X43370300Y-42164947D01*
X43215428Y-42229097D01*
X43051016Y-42261800D01*
X42883384Y-42261800D01*
X42718972Y-42229097D01*
X42564100Y-42164947D01*
X42424719Y-42071815D01*
X42306185Y-41953281D01*
X42213053Y-41813900D01*
X42148903Y-41659028D01*
X42116200Y-41494616D01*
X42116200Y-41326984D01*
X42148903Y-41162572D01*
X42213053Y-41007700D01*
X42306185Y-40868319D01*
X42424719Y-40749785D01*
X42564100Y-40656653D01*
X42718972Y-40592503D01*
X42883384Y-40559800D01*
X43051016Y-40559800D01*
X43215428Y-40592503D01*
X43215428Y-40592503D01*
G37*
G36*
X72634000Y-42247500D02*
G01*
X69032000Y-42247500D01*
X69032000Y-39645500D01*
X72634000Y-39645500D01*
X72634000Y-42247500D01*
X72634000Y-42247500D01*
G37*
G36*
X85328900Y-42247500D02*
G01*
X81726900Y-42247500D01*
X81726900Y-39645500D01*
X85328900Y-39645500D01*
X85328900Y-42247500D01*
X85328900Y-42247500D01*
G37*
G36*
X66022890Y-40281517D02*
G01*
X66141364Y-40330591D01*
X66247988Y-40401835D01*
X66338665Y-40492512D01*
X66409910Y-40599138D01*
X66458983Y-40717610D01*
X66484000Y-40843381D01*
X66484000Y-40971619D01*
X66458983Y-41097390D01*
X66431984Y-41162572D01*
X66409909Y-41215864D01*
X66338665Y-41322488D01*
X66247988Y-41413165D01*
X66141364Y-41484409D01*
X66141363Y-41484410D01*
X66141362Y-41484410D01*
X66022890Y-41533483D01*
X65897119Y-41558500D01*
X65768881Y-41558500D01*
X65643110Y-41533483D01*
X65524638Y-41484410D01*
X65524637Y-41484410D01*
X65524636Y-41484409D01*
X65418012Y-41413165D01*
X65327335Y-41322488D01*
X65256091Y-41215864D01*
X65234017Y-41162572D01*
X65207017Y-41097390D01*
X65182000Y-40971619D01*
X65182000Y-40843381D01*
X65207017Y-40717610D01*
X65256090Y-40599138D01*
X65327335Y-40492512D01*
X65418012Y-40401835D01*
X65524636Y-40330591D01*
X65643110Y-40281517D01*
X65768881Y-40256500D01*
X65897119Y-40256500D01*
X66022890Y-40281517D01*
X66022890Y-40281517D01*
G37*
G36*
X76022890Y-40281517D02*
G01*
X76141364Y-40330591D01*
X76247988Y-40401835D01*
X76338665Y-40492512D01*
X76409910Y-40599138D01*
X76458983Y-40717610D01*
X76484000Y-40843381D01*
X76484000Y-40971619D01*
X76458983Y-41097390D01*
X76431984Y-41162572D01*
X76409909Y-41215864D01*
X76338665Y-41322488D01*
X76247988Y-41413165D01*
X76141364Y-41484409D01*
X76141363Y-41484410D01*
X76141362Y-41484410D01*
X76022890Y-41533483D01*
X75897119Y-41558500D01*
X75768881Y-41558500D01*
X75643110Y-41533483D01*
X75524638Y-41484410D01*
X75524637Y-41484410D01*
X75524636Y-41484409D01*
X75418012Y-41413165D01*
X75327335Y-41322488D01*
X75256091Y-41215864D01*
X75234017Y-41162572D01*
X75207017Y-41097390D01*
X75182000Y-40971619D01*
X75182000Y-40843381D01*
X75207017Y-40717610D01*
X75256090Y-40599138D01*
X75327335Y-40492512D01*
X75418012Y-40401835D01*
X75524636Y-40330591D01*
X75643110Y-40281517D01*
X75768881Y-40256500D01*
X75897119Y-40256500D01*
X76022890Y-40281517D01*
X76022890Y-40281517D01*
G37*
G36*
X88717790Y-40281517D02*
G01*
X88836264Y-40330591D01*
X88942888Y-40401835D01*
X89033565Y-40492512D01*
X89104810Y-40599138D01*
X89153883Y-40717610D01*
X89178900Y-40843381D01*
X89178900Y-40971619D01*
X89153883Y-41097390D01*
X89126884Y-41162572D01*
X89104809Y-41215864D01*
X89033565Y-41322488D01*
X88942888Y-41413165D01*
X88836264Y-41484409D01*
X88836263Y-41484410D01*
X88836262Y-41484410D01*
X88717790Y-41533483D01*
X88592019Y-41558500D01*
X88463781Y-41558500D01*
X88338010Y-41533483D01*
X88219538Y-41484410D01*
X88219537Y-41484410D01*
X88219536Y-41484409D01*
X88112912Y-41413165D01*
X88022235Y-41322488D01*
X87950991Y-41215864D01*
X87928917Y-41162572D01*
X87901917Y-41097390D01*
X87876900Y-40971619D01*
X87876900Y-40843381D01*
X87901917Y-40717610D01*
X87950990Y-40599138D01*
X88022235Y-40492512D01*
X88112912Y-40401835D01*
X88219536Y-40330591D01*
X88338010Y-40281517D01*
X88463781Y-40256500D01*
X88592019Y-40256500D01*
X88717790Y-40281517D01*
X88717790Y-40281517D01*
G37*
G36*
X78717790Y-40281517D02*
G01*
X78836264Y-40330591D01*
X78942888Y-40401835D01*
X79033565Y-40492512D01*
X79104810Y-40599138D01*
X79153883Y-40717610D01*
X79178900Y-40843381D01*
X79178900Y-40971619D01*
X79153883Y-41097390D01*
X79126884Y-41162572D01*
X79104809Y-41215864D01*
X79033565Y-41322488D01*
X78942888Y-41413165D01*
X78836264Y-41484409D01*
X78836263Y-41484410D01*
X78836262Y-41484410D01*
X78717790Y-41533483D01*
X78592019Y-41558500D01*
X78463781Y-41558500D01*
X78338010Y-41533483D01*
X78219538Y-41484410D01*
X78219537Y-41484410D01*
X78219536Y-41484409D01*
X78112912Y-41413165D01*
X78022235Y-41322488D01*
X77950991Y-41215864D01*
X77928917Y-41162572D01*
X77901917Y-41097390D01*
X77876900Y-40971619D01*
X77876900Y-40843381D01*
X77901917Y-40717610D01*
X77950990Y-40599138D01*
X78022235Y-40492512D01*
X78112912Y-40401835D01*
X78219536Y-40330591D01*
X78338010Y-40281517D01*
X78463781Y-40256500D01*
X78592019Y-40256500D01*
X78717790Y-40281517D01*
X78717790Y-40281517D01*
G37*
G36*
X44360428Y-38612503D02*
G01*
X44515300Y-38676653D01*
X44654681Y-38769785D01*
X44773215Y-38888319D01*
X44866347Y-39027700D01*
X44930497Y-39182572D01*
X44963200Y-39346984D01*
X44963200Y-39514616D01*
X44930497Y-39679028D01*
X44866347Y-39833900D01*
X44773215Y-39973281D01*
X44654681Y-40091815D01*
X44515300Y-40184947D01*
X44360428Y-40249097D01*
X44196016Y-40281800D01*
X44028384Y-40281800D01*
X43863972Y-40249097D01*
X43709100Y-40184947D01*
X43569719Y-40091815D01*
X43451185Y-39973281D01*
X43358053Y-39833900D01*
X43293903Y-39679028D01*
X43261200Y-39514616D01*
X43261200Y-39346984D01*
X43293903Y-39182572D01*
X43358053Y-39027700D01*
X43451185Y-38888319D01*
X43569719Y-38769785D01*
X43709100Y-38676653D01*
X43863972Y-38612503D01*
X44028384Y-38579800D01*
X44196016Y-38579800D01*
X44360428Y-38612503D01*
X44360428Y-38612503D01*
G37*
G36*
X53520428Y-38612503D02*
G01*
X53675300Y-38676653D01*
X53814681Y-38769785D01*
X53933215Y-38888319D01*
X54026347Y-39027700D01*
X54090497Y-39182572D01*
X54123200Y-39346984D01*
X54123200Y-39514616D01*
X54090497Y-39679028D01*
X54026347Y-39833900D01*
X53933215Y-39973281D01*
X53814681Y-40091815D01*
X53675300Y-40184947D01*
X53520428Y-40249097D01*
X53356016Y-40281800D01*
X53188384Y-40281800D01*
X53023972Y-40249097D01*
X52869100Y-40184947D01*
X52729719Y-40091815D01*
X52611185Y-39973281D01*
X52518053Y-39833900D01*
X52453903Y-39679028D01*
X52421200Y-39514616D01*
X52421200Y-39346984D01*
X52453903Y-39182572D01*
X52518053Y-39027700D01*
X52611185Y-38888319D01*
X52729719Y-38769785D01*
X52869100Y-38676653D01*
X53023972Y-38612503D01*
X53188384Y-38579800D01*
X53356016Y-38579800D01*
X53520428Y-38612503D01*
X53520428Y-38612503D01*
G37*
G36*
X51230428Y-38612503D02*
G01*
X51385300Y-38676653D01*
X51524681Y-38769785D01*
X51643215Y-38888319D01*
X51736347Y-39027700D01*
X51800497Y-39182572D01*
X51833200Y-39346984D01*
X51833200Y-39514616D01*
X51800497Y-39679028D01*
X51736347Y-39833900D01*
X51643215Y-39973281D01*
X51524681Y-40091815D01*
X51385300Y-40184947D01*
X51230428Y-40249097D01*
X51066016Y-40281800D01*
X50898384Y-40281800D01*
X50733972Y-40249097D01*
X50579100Y-40184947D01*
X50439719Y-40091815D01*
X50321185Y-39973281D01*
X50228053Y-39833900D01*
X50163903Y-39679028D01*
X50131200Y-39514616D01*
X50131200Y-39346984D01*
X50163903Y-39182572D01*
X50228053Y-39027700D01*
X50321185Y-38888319D01*
X50439719Y-38769785D01*
X50579100Y-38676653D01*
X50733972Y-38612503D01*
X50898384Y-38579800D01*
X51066016Y-38579800D01*
X51230428Y-38612503D01*
X51230428Y-38612503D01*
G37*
G36*
X48940428Y-38612503D02*
G01*
X49095300Y-38676653D01*
X49234681Y-38769785D01*
X49353215Y-38888319D01*
X49446347Y-39027700D01*
X49510497Y-39182572D01*
X49543200Y-39346984D01*
X49543200Y-39514616D01*
X49510497Y-39679028D01*
X49446347Y-39833900D01*
X49353215Y-39973281D01*
X49234681Y-40091815D01*
X49095300Y-40184947D01*
X48940428Y-40249097D01*
X48776016Y-40281800D01*
X48608384Y-40281800D01*
X48443972Y-40249097D01*
X48289100Y-40184947D01*
X48149719Y-40091815D01*
X48031185Y-39973281D01*
X47938053Y-39833900D01*
X47873903Y-39679028D01*
X47841200Y-39514616D01*
X47841200Y-39346984D01*
X47873903Y-39182572D01*
X47938053Y-39027700D01*
X48031185Y-38888319D01*
X48149719Y-38769785D01*
X48289100Y-38676653D01*
X48443972Y-38612503D01*
X48608384Y-38579800D01*
X48776016Y-38579800D01*
X48940428Y-38612503D01*
X48940428Y-38612503D01*
G37*
G36*
X46650428Y-38612503D02*
G01*
X46805300Y-38676653D01*
X46944681Y-38769785D01*
X47063215Y-38888319D01*
X47156347Y-39027700D01*
X47220497Y-39182572D01*
X47253200Y-39346984D01*
X47253200Y-39514616D01*
X47220497Y-39679028D01*
X47156347Y-39833900D01*
X47063215Y-39973281D01*
X46944681Y-40091815D01*
X46805300Y-40184947D01*
X46650428Y-40249097D01*
X46486016Y-40281800D01*
X46318384Y-40281800D01*
X46153972Y-40249097D01*
X45999100Y-40184947D01*
X45859719Y-40091815D01*
X45741185Y-39973281D01*
X45648053Y-39833900D01*
X45583903Y-39679028D01*
X45551200Y-39514616D01*
X45551200Y-39346984D01*
X45583903Y-39182572D01*
X45648053Y-39027700D01*
X45741185Y-38888319D01*
X45859719Y-38769785D01*
X45999100Y-38676653D01*
X46153972Y-38612503D01*
X46318384Y-38579800D01*
X46486016Y-38579800D01*
X46650428Y-38612503D01*
X46650428Y-38612503D01*
G37*
G36*
X88717790Y-37781517D02*
G01*
X88836264Y-37830591D01*
X88942888Y-37901835D01*
X89033565Y-37992512D01*
X89104809Y-38099136D01*
X89153883Y-38217610D01*
X89178900Y-38343382D01*
X89178900Y-38471618D01*
X89153883Y-38597390D01*
X89104809Y-38715864D01*
X89033565Y-38822488D01*
X88942888Y-38913165D01*
X88836264Y-38984409D01*
X88836263Y-38984410D01*
X88836262Y-38984410D01*
X88717790Y-39033483D01*
X88592019Y-39058500D01*
X88463781Y-39058500D01*
X88338010Y-39033483D01*
X88219538Y-38984410D01*
X88219537Y-38984410D01*
X88219536Y-38984409D01*
X88112912Y-38913165D01*
X88022235Y-38822488D01*
X87950991Y-38715864D01*
X87901917Y-38597390D01*
X87876900Y-38471618D01*
X87876900Y-38343382D01*
X87901917Y-38217610D01*
X87950991Y-38099136D01*
X88022235Y-37992512D01*
X88112912Y-37901835D01*
X88219536Y-37830591D01*
X88338010Y-37781517D01*
X88463781Y-37756500D01*
X88592019Y-37756500D01*
X88717790Y-37781517D01*
X88717790Y-37781517D01*
G37*
G36*
X78717790Y-37781517D02*
G01*
X78836264Y-37830591D01*
X78942888Y-37901835D01*
X79033565Y-37992512D01*
X79104809Y-38099136D01*
X79153883Y-38217610D01*
X79178900Y-38343382D01*
X79178900Y-38471618D01*
X79153883Y-38597390D01*
X79104809Y-38715864D01*
X79033565Y-38822488D01*
X78942888Y-38913165D01*
X78836264Y-38984409D01*
X78836263Y-38984410D01*
X78836262Y-38984410D01*
X78717790Y-39033483D01*
X78592019Y-39058500D01*
X78463781Y-39058500D01*
X78338010Y-39033483D01*
X78219538Y-38984410D01*
X78219537Y-38984410D01*
X78219536Y-38984409D01*
X78112912Y-38913165D01*
X78022235Y-38822488D01*
X77950991Y-38715864D01*
X77901917Y-38597390D01*
X77876900Y-38471618D01*
X77876900Y-38343382D01*
X77901917Y-38217610D01*
X77950991Y-38099136D01*
X78022235Y-37992512D01*
X78112912Y-37901835D01*
X78219536Y-37830591D01*
X78338010Y-37781517D01*
X78463781Y-37756500D01*
X78592019Y-37756500D01*
X78717790Y-37781517D01*
X78717790Y-37781517D01*
G37*
G36*
X66022890Y-37781517D02*
G01*
X66141364Y-37830591D01*
X66247988Y-37901835D01*
X66338665Y-37992512D01*
X66409909Y-38099136D01*
X66458983Y-38217610D01*
X66484000Y-38343382D01*
X66484000Y-38471618D01*
X66458983Y-38597390D01*
X66409909Y-38715864D01*
X66338665Y-38822488D01*
X66247988Y-38913165D01*
X66141364Y-38984409D01*
X66141363Y-38984410D01*
X66141362Y-38984410D01*
X66022890Y-39033483D01*
X65897119Y-39058500D01*
X65768881Y-39058500D01*
X65643110Y-39033483D01*
X65524638Y-38984410D01*
X65524637Y-38984410D01*
X65524636Y-38984409D01*
X65418012Y-38913165D01*
X65327335Y-38822488D01*
X65256091Y-38715864D01*
X65207017Y-38597390D01*
X65182000Y-38471618D01*
X65182000Y-38343382D01*
X65207017Y-38217610D01*
X65256091Y-38099136D01*
X65327335Y-37992512D01*
X65418012Y-37901835D01*
X65524636Y-37830591D01*
X65643110Y-37781517D01*
X65768881Y-37756500D01*
X65897119Y-37756500D01*
X66022890Y-37781517D01*
X66022890Y-37781517D01*
G37*
G36*
X76022890Y-37781517D02*
G01*
X76141364Y-37830591D01*
X76247988Y-37901835D01*
X76338665Y-37992512D01*
X76409909Y-38099136D01*
X76458983Y-38217610D01*
X76484000Y-38343382D01*
X76484000Y-38471618D01*
X76458983Y-38597390D01*
X76409909Y-38715864D01*
X76338665Y-38822488D01*
X76247988Y-38913165D01*
X76141364Y-38984409D01*
X76141363Y-38984410D01*
X76141362Y-38984410D01*
X76022890Y-39033483D01*
X75897119Y-39058500D01*
X75768881Y-39058500D01*
X75643110Y-39033483D01*
X75524638Y-38984410D01*
X75524637Y-38984410D01*
X75524636Y-38984409D01*
X75418012Y-38913165D01*
X75327335Y-38822488D01*
X75256091Y-38715864D01*
X75207017Y-38597390D01*
X75182000Y-38471618D01*
X75182000Y-38343382D01*
X75207017Y-38217610D01*
X75256091Y-38099136D01*
X75327335Y-37992512D01*
X75418012Y-37901835D01*
X75524636Y-37830591D01*
X75643110Y-37781517D01*
X75768881Y-37756500D01*
X75897119Y-37756500D01*
X76022890Y-37781517D01*
X76022890Y-37781517D01*
G37*
M02*
