G04 #@! TF.GenerationSoftware,KiCad,Pcbnew,5.0.2-bee76a0~70~ubuntu18.10.1*
G04 #@! TF.CreationDate,2019-03-15T00:59:30+01:00*
G04 #@! TF.ProjectId,Spartan6,53706172-7461-46e3-962e-6b696361645f,rev?*
G04 #@! TF.SameCoordinates,Original*
G04 #@! TF.FileFunction,Paste,Bot*
G04 #@! TF.FilePolarity,Positive*
%FSLAX46Y46*%
G04 Gerber Fmt 4.6, Leading zero omitted, Abs format (unit mm)*
G04 Created by KiCad (PCBNEW 5.0.2-bee76a0~70~ubuntu18.10.1) date vie 15 mar 2019 00:59:30 CET*
%MOMM*%
%LPD*%
G01*
G04 APERTURE LIST*
%ADD10C,0.100000*%
%ADD11C,0.875000*%
%ADD12C,1.350000*%
%ADD13C,0.550000*%
%ADD14R,1.500000X2.000000*%
%ADD15R,3.800000X2.000000*%
%ADD16C,0.590000*%
G04 APERTURE END LIST*
D10*
G04 #@! TO.C,C5*
G36*
X63665891Y-52481853D02*
X63687126Y-52485003D01*
X63707950Y-52490219D01*
X63728162Y-52497451D01*
X63747568Y-52506630D01*
X63765981Y-52517666D01*
X63783224Y-52530454D01*
X63799130Y-52544870D01*
X63813546Y-52560776D01*
X63826334Y-52578019D01*
X63837370Y-52596432D01*
X63846549Y-52615838D01*
X63853781Y-52636050D01*
X63858997Y-52656874D01*
X63862147Y-52678109D01*
X63863200Y-52699550D01*
X63863200Y-53137050D01*
X63862147Y-53158491D01*
X63858997Y-53179726D01*
X63853781Y-53200550D01*
X63846549Y-53220762D01*
X63837370Y-53240168D01*
X63826334Y-53258581D01*
X63813546Y-53275824D01*
X63799130Y-53291730D01*
X63783224Y-53306146D01*
X63765981Y-53318934D01*
X63747568Y-53329970D01*
X63728162Y-53339149D01*
X63707950Y-53346381D01*
X63687126Y-53351597D01*
X63665891Y-53354747D01*
X63644450Y-53355800D01*
X63131950Y-53355800D01*
X63110509Y-53354747D01*
X63089274Y-53351597D01*
X63068450Y-53346381D01*
X63048238Y-53339149D01*
X63028832Y-53329970D01*
X63010419Y-53318934D01*
X62993176Y-53306146D01*
X62977270Y-53291730D01*
X62962854Y-53275824D01*
X62950066Y-53258581D01*
X62939030Y-53240168D01*
X62929851Y-53220762D01*
X62922619Y-53200550D01*
X62917403Y-53179726D01*
X62914253Y-53158491D01*
X62913200Y-53137050D01*
X62913200Y-52699550D01*
X62914253Y-52678109D01*
X62917403Y-52656874D01*
X62922619Y-52636050D01*
X62929851Y-52615838D01*
X62939030Y-52596432D01*
X62950066Y-52578019D01*
X62962854Y-52560776D01*
X62977270Y-52544870D01*
X62993176Y-52530454D01*
X63010419Y-52517666D01*
X63028832Y-52506630D01*
X63048238Y-52497451D01*
X63068450Y-52490219D01*
X63089274Y-52485003D01*
X63110509Y-52481853D01*
X63131950Y-52480800D01*
X63644450Y-52480800D01*
X63665891Y-52481853D01*
X63665891Y-52481853D01*
G37*
D11*
X63388200Y-52918300D03*
D10*
G36*
X63665891Y-54056853D02*
X63687126Y-54060003D01*
X63707950Y-54065219D01*
X63728162Y-54072451D01*
X63747568Y-54081630D01*
X63765981Y-54092666D01*
X63783224Y-54105454D01*
X63799130Y-54119870D01*
X63813546Y-54135776D01*
X63826334Y-54153019D01*
X63837370Y-54171432D01*
X63846549Y-54190838D01*
X63853781Y-54211050D01*
X63858997Y-54231874D01*
X63862147Y-54253109D01*
X63863200Y-54274550D01*
X63863200Y-54712050D01*
X63862147Y-54733491D01*
X63858997Y-54754726D01*
X63853781Y-54775550D01*
X63846549Y-54795762D01*
X63837370Y-54815168D01*
X63826334Y-54833581D01*
X63813546Y-54850824D01*
X63799130Y-54866730D01*
X63783224Y-54881146D01*
X63765981Y-54893934D01*
X63747568Y-54904970D01*
X63728162Y-54914149D01*
X63707950Y-54921381D01*
X63687126Y-54926597D01*
X63665891Y-54929747D01*
X63644450Y-54930800D01*
X63131950Y-54930800D01*
X63110509Y-54929747D01*
X63089274Y-54926597D01*
X63068450Y-54921381D01*
X63048238Y-54914149D01*
X63028832Y-54904970D01*
X63010419Y-54893934D01*
X62993176Y-54881146D01*
X62977270Y-54866730D01*
X62962854Y-54850824D01*
X62950066Y-54833581D01*
X62939030Y-54815168D01*
X62929851Y-54795762D01*
X62922619Y-54775550D01*
X62917403Y-54754726D01*
X62914253Y-54733491D01*
X62913200Y-54712050D01*
X62913200Y-54274550D01*
X62914253Y-54253109D01*
X62917403Y-54231874D01*
X62922619Y-54211050D01*
X62929851Y-54190838D01*
X62939030Y-54171432D01*
X62950066Y-54153019D01*
X62962854Y-54135776D01*
X62977270Y-54119870D01*
X62993176Y-54105454D01*
X63010419Y-54092666D01*
X63028832Y-54081630D01*
X63048238Y-54072451D01*
X63068450Y-54065219D01*
X63089274Y-54060003D01*
X63110509Y-54056853D01*
X63131950Y-54055800D01*
X63644450Y-54055800D01*
X63665891Y-54056853D01*
X63665891Y-54056853D01*
G37*
D11*
X63388200Y-54493300D03*
G04 #@! TD*
D10*
G04 #@! TO.C,C7*
G36*
X75177191Y-49377953D02*
X75198426Y-49381103D01*
X75219250Y-49386319D01*
X75239462Y-49393551D01*
X75258868Y-49402730D01*
X75277281Y-49413766D01*
X75294524Y-49426554D01*
X75310430Y-49440970D01*
X75324846Y-49456876D01*
X75337634Y-49474119D01*
X75348670Y-49492532D01*
X75357849Y-49511938D01*
X75365081Y-49532150D01*
X75370297Y-49552974D01*
X75373447Y-49574209D01*
X75374500Y-49595650D01*
X75374500Y-50033150D01*
X75373447Y-50054591D01*
X75370297Y-50075826D01*
X75365081Y-50096650D01*
X75357849Y-50116862D01*
X75348670Y-50136268D01*
X75337634Y-50154681D01*
X75324846Y-50171924D01*
X75310430Y-50187830D01*
X75294524Y-50202246D01*
X75277281Y-50215034D01*
X75258868Y-50226070D01*
X75239462Y-50235249D01*
X75219250Y-50242481D01*
X75198426Y-50247697D01*
X75177191Y-50250847D01*
X75155750Y-50251900D01*
X74643250Y-50251900D01*
X74621809Y-50250847D01*
X74600574Y-50247697D01*
X74579750Y-50242481D01*
X74559538Y-50235249D01*
X74540132Y-50226070D01*
X74521719Y-50215034D01*
X74504476Y-50202246D01*
X74488570Y-50187830D01*
X74474154Y-50171924D01*
X74461366Y-50154681D01*
X74450330Y-50136268D01*
X74441151Y-50116862D01*
X74433919Y-50096650D01*
X74428703Y-50075826D01*
X74425553Y-50054591D01*
X74424500Y-50033150D01*
X74424500Y-49595650D01*
X74425553Y-49574209D01*
X74428703Y-49552974D01*
X74433919Y-49532150D01*
X74441151Y-49511938D01*
X74450330Y-49492532D01*
X74461366Y-49474119D01*
X74474154Y-49456876D01*
X74488570Y-49440970D01*
X74504476Y-49426554D01*
X74521719Y-49413766D01*
X74540132Y-49402730D01*
X74559538Y-49393551D01*
X74579750Y-49386319D01*
X74600574Y-49381103D01*
X74621809Y-49377953D01*
X74643250Y-49376900D01*
X75155750Y-49376900D01*
X75177191Y-49377953D01*
X75177191Y-49377953D01*
G37*
D11*
X74899500Y-49814400D03*
D10*
G36*
X75177191Y-50952953D02*
X75198426Y-50956103D01*
X75219250Y-50961319D01*
X75239462Y-50968551D01*
X75258868Y-50977730D01*
X75277281Y-50988766D01*
X75294524Y-51001554D01*
X75310430Y-51015970D01*
X75324846Y-51031876D01*
X75337634Y-51049119D01*
X75348670Y-51067532D01*
X75357849Y-51086938D01*
X75365081Y-51107150D01*
X75370297Y-51127974D01*
X75373447Y-51149209D01*
X75374500Y-51170650D01*
X75374500Y-51608150D01*
X75373447Y-51629591D01*
X75370297Y-51650826D01*
X75365081Y-51671650D01*
X75357849Y-51691862D01*
X75348670Y-51711268D01*
X75337634Y-51729681D01*
X75324846Y-51746924D01*
X75310430Y-51762830D01*
X75294524Y-51777246D01*
X75277281Y-51790034D01*
X75258868Y-51801070D01*
X75239462Y-51810249D01*
X75219250Y-51817481D01*
X75198426Y-51822697D01*
X75177191Y-51825847D01*
X75155750Y-51826900D01*
X74643250Y-51826900D01*
X74621809Y-51825847D01*
X74600574Y-51822697D01*
X74579750Y-51817481D01*
X74559538Y-51810249D01*
X74540132Y-51801070D01*
X74521719Y-51790034D01*
X74504476Y-51777246D01*
X74488570Y-51762830D01*
X74474154Y-51746924D01*
X74461366Y-51729681D01*
X74450330Y-51711268D01*
X74441151Y-51691862D01*
X74433919Y-51671650D01*
X74428703Y-51650826D01*
X74425553Y-51629591D01*
X74424500Y-51608150D01*
X74424500Y-51170650D01*
X74425553Y-51149209D01*
X74428703Y-51127974D01*
X74433919Y-51107150D01*
X74441151Y-51086938D01*
X74450330Y-51067532D01*
X74461366Y-51049119D01*
X74474154Y-51031876D01*
X74488570Y-51015970D01*
X74504476Y-51001554D01*
X74521719Y-50988766D01*
X74540132Y-50977730D01*
X74559538Y-50968551D01*
X74579750Y-50961319D01*
X74600574Y-50956103D01*
X74621809Y-50952953D01*
X74643250Y-50951900D01*
X75155750Y-50951900D01*
X75177191Y-50952953D01*
X75177191Y-50952953D01*
G37*
D11*
X74899500Y-51389400D03*
G04 #@! TD*
D10*
G04 #@! TO.C,C8*
G36*
X65179791Y-50942753D02*
X65201026Y-50945903D01*
X65221850Y-50951119D01*
X65242062Y-50958351D01*
X65261468Y-50967530D01*
X65279881Y-50978566D01*
X65297124Y-50991354D01*
X65313030Y-51005770D01*
X65327446Y-51021676D01*
X65340234Y-51038919D01*
X65351270Y-51057332D01*
X65360449Y-51076738D01*
X65367681Y-51096950D01*
X65372897Y-51117774D01*
X65376047Y-51139009D01*
X65377100Y-51160450D01*
X65377100Y-51597950D01*
X65376047Y-51619391D01*
X65372897Y-51640626D01*
X65367681Y-51661450D01*
X65360449Y-51681662D01*
X65351270Y-51701068D01*
X65340234Y-51719481D01*
X65327446Y-51736724D01*
X65313030Y-51752630D01*
X65297124Y-51767046D01*
X65279881Y-51779834D01*
X65261468Y-51790870D01*
X65242062Y-51800049D01*
X65221850Y-51807281D01*
X65201026Y-51812497D01*
X65179791Y-51815647D01*
X65158350Y-51816700D01*
X64645850Y-51816700D01*
X64624409Y-51815647D01*
X64603174Y-51812497D01*
X64582350Y-51807281D01*
X64562138Y-51800049D01*
X64542732Y-51790870D01*
X64524319Y-51779834D01*
X64507076Y-51767046D01*
X64491170Y-51752630D01*
X64476754Y-51736724D01*
X64463966Y-51719481D01*
X64452930Y-51701068D01*
X64443751Y-51681662D01*
X64436519Y-51661450D01*
X64431303Y-51640626D01*
X64428153Y-51619391D01*
X64427100Y-51597950D01*
X64427100Y-51160450D01*
X64428153Y-51139009D01*
X64431303Y-51117774D01*
X64436519Y-51096950D01*
X64443751Y-51076738D01*
X64452930Y-51057332D01*
X64463966Y-51038919D01*
X64476754Y-51021676D01*
X64491170Y-51005770D01*
X64507076Y-50991354D01*
X64524319Y-50978566D01*
X64542732Y-50967530D01*
X64562138Y-50958351D01*
X64582350Y-50951119D01*
X64603174Y-50945903D01*
X64624409Y-50942753D01*
X64645850Y-50941700D01*
X65158350Y-50941700D01*
X65179791Y-50942753D01*
X65179791Y-50942753D01*
G37*
D11*
X64902100Y-51379200D03*
D10*
G36*
X65179791Y-49367753D02*
X65201026Y-49370903D01*
X65221850Y-49376119D01*
X65242062Y-49383351D01*
X65261468Y-49392530D01*
X65279881Y-49403566D01*
X65297124Y-49416354D01*
X65313030Y-49430770D01*
X65327446Y-49446676D01*
X65340234Y-49463919D01*
X65351270Y-49482332D01*
X65360449Y-49501738D01*
X65367681Y-49521950D01*
X65372897Y-49542774D01*
X65376047Y-49564009D01*
X65377100Y-49585450D01*
X65377100Y-50022950D01*
X65376047Y-50044391D01*
X65372897Y-50065626D01*
X65367681Y-50086450D01*
X65360449Y-50106662D01*
X65351270Y-50126068D01*
X65340234Y-50144481D01*
X65327446Y-50161724D01*
X65313030Y-50177630D01*
X65297124Y-50192046D01*
X65279881Y-50204834D01*
X65261468Y-50215870D01*
X65242062Y-50225049D01*
X65221850Y-50232281D01*
X65201026Y-50237497D01*
X65179791Y-50240647D01*
X65158350Y-50241700D01*
X64645850Y-50241700D01*
X64624409Y-50240647D01*
X64603174Y-50237497D01*
X64582350Y-50232281D01*
X64562138Y-50225049D01*
X64542732Y-50215870D01*
X64524319Y-50204834D01*
X64507076Y-50192046D01*
X64491170Y-50177630D01*
X64476754Y-50161724D01*
X64463966Y-50144481D01*
X64452930Y-50126068D01*
X64443751Y-50106662D01*
X64436519Y-50086450D01*
X64431303Y-50065626D01*
X64428153Y-50044391D01*
X64427100Y-50022950D01*
X64427100Y-49585450D01*
X64428153Y-49564009D01*
X64431303Y-49542774D01*
X64436519Y-49521950D01*
X64443751Y-49501738D01*
X64452930Y-49482332D01*
X64463966Y-49463919D01*
X64476754Y-49446676D01*
X64491170Y-49430770D01*
X64507076Y-49416354D01*
X64524319Y-49403566D01*
X64542732Y-49392530D01*
X64562138Y-49383351D01*
X64582350Y-49376119D01*
X64603174Y-49370903D01*
X64624409Y-49367753D01*
X64645850Y-49366700D01*
X65158350Y-49366700D01*
X65179791Y-49367753D01*
X65179791Y-49367753D01*
G37*
D11*
X64902100Y-49804200D03*
G04 #@! TD*
D10*
G04 #@! TO.C,C6*
G36*
X73993591Y-54122853D02*
X74014826Y-54126003D01*
X74035650Y-54131219D01*
X74055862Y-54138451D01*
X74075268Y-54147630D01*
X74093681Y-54158666D01*
X74110924Y-54171454D01*
X74126830Y-54185870D01*
X74141246Y-54201776D01*
X74154034Y-54219019D01*
X74165070Y-54237432D01*
X74174249Y-54256838D01*
X74181481Y-54277050D01*
X74186697Y-54297874D01*
X74189847Y-54319109D01*
X74190900Y-54340550D01*
X74190900Y-54778050D01*
X74189847Y-54799491D01*
X74186697Y-54820726D01*
X74181481Y-54841550D01*
X74174249Y-54861762D01*
X74165070Y-54881168D01*
X74154034Y-54899581D01*
X74141246Y-54916824D01*
X74126830Y-54932730D01*
X74110924Y-54947146D01*
X74093681Y-54959934D01*
X74075268Y-54970970D01*
X74055862Y-54980149D01*
X74035650Y-54987381D01*
X74014826Y-54992597D01*
X73993591Y-54995747D01*
X73972150Y-54996800D01*
X73459650Y-54996800D01*
X73438209Y-54995747D01*
X73416974Y-54992597D01*
X73396150Y-54987381D01*
X73375938Y-54980149D01*
X73356532Y-54970970D01*
X73338119Y-54959934D01*
X73320876Y-54947146D01*
X73304970Y-54932730D01*
X73290554Y-54916824D01*
X73277766Y-54899581D01*
X73266730Y-54881168D01*
X73257551Y-54861762D01*
X73250319Y-54841550D01*
X73245103Y-54820726D01*
X73241953Y-54799491D01*
X73240900Y-54778050D01*
X73240900Y-54340550D01*
X73241953Y-54319109D01*
X73245103Y-54297874D01*
X73250319Y-54277050D01*
X73257551Y-54256838D01*
X73266730Y-54237432D01*
X73277766Y-54219019D01*
X73290554Y-54201776D01*
X73304970Y-54185870D01*
X73320876Y-54171454D01*
X73338119Y-54158666D01*
X73356532Y-54147630D01*
X73375938Y-54138451D01*
X73396150Y-54131219D01*
X73416974Y-54126003D01*
X73438209Y-54122853D01*
X73459650Y-54121800D01*
X73972150Y-54121800D01*
X73993591Y-54122853D01*
X73993591Y-54122853D01*
G37*
D11*
X73715900Y-54559300D03*
D10*
G36*
X73993591Y-52547853D02*
X74014826Y-52551003D01*
X74035650Y-52556219D01*
X74055862Y-52563451D01*
X74075268Y-52572630D01*
X74093681Y-52583666D01*
X74110924Y-52596454D01*
X74126830Y-52610870D01*
X74141246Y-52626776D01*
X74154034Y-52644019D01*
X74165070Y-52662432D01*
X74174249Y-52681838D01*
X74181481Y-52702050D01*
X74186697Y-52722874D01*
X74189847Y-52744109D01*
X74190900Y-52765550D01*
X74190900Y-53203050D01*
X74189847Y-53224491D01*
X74186697Y-53245726D01*
X74181481Y-53266550D01*
X74174249Y-53286762D01*
X74165070Y-53306168D01*
X74154034Y-53324581D01*
X74141246Y-53341824D01*
X74126830Y-53357730D01*
X74110924Y-53372146D01*
X74093681Y-53384934D01*
X74075268Y-53395970D01*
X74055862Y-53405149D01*
X74035650Y-53412381D01*
X74014826Y-53417597D01*
X73993591Y-53420747D01*
X73972150Y-53421800D01*
X73459650Y-53421800D01*
X73438209Y-53420747D01*
X73416974Y-53417597D01*
X73396150Y-53412381D01*
X73375938Y-53405149D01*
X73356532Y-53395970D01*
X73338119Y-53384934D01*
X73320876Y-53372146D01*
X73304970Y-53357730D01*
X73290554Y-53341824D01*
X73277766Y-53324581D01*
X73266730Y-53306168D01*
X73257551Y-53286762D01*
X73250319Y-53266550D01*
X73245103Y-53245726D01*
X73241953Y-53224491D01*
X73240900Y-53203050D01*
X73240900Y-52765550D01*
X73241953Y-52744109D01*
X73245103Y-52722874D01*
X73250319Y-52702050D01*
X73257551Y-52681838D01*
X73266730Y-52662432D01*
X73277766Y-52644019D01*
X73290554Y-52626776D01*
X73304970Y-52610870D01*
X73320876Y-52596454D01*
X73338119Y-52583666D01*
X73356532Y-52572630D01*
X73375938Y-52563451D01*
X73396150Y-52556219D01*
X73416974Y-52551003D01*
X73438209Y-52547853D01*
X73459650Y-52546800D01*
X73972150Y-52546800D01*
X73993591Y-52547853D01*
X73993591Y-52547853D01*
G37*
D11*
X73715900Y-52984300D03*
G04 #@! TD*
D10*
G04 #@! TO.C,C4*
G36*
X64107905Y-73016704D02*
X64132173Y-73020304D01*
X64155972Y-73026265D01*
X64179071Y-73034530D01*
X64201250Y-73045020D01*
X64222293Y-73057632D01*
X64241999Y-73072247D01*
X64260177Y-73088723D01*
X64276653Y-73106901D01*
X64291268Y-73126607D01*
X64303880Y-73147650D01*
X64314370Y-73169829D01*
X64322635Y-73192928D01*
X64328596Y-73216727D01*
X64332196Y-73240995D01*
X64333400Y-73265499D01*
X64333400Y-74115501D01*
X64332196Y-74140005D01*
X64328596Y-74164273D01*
X64322635Y-74188072D01*
X64314370Y-74211171D01*
X64303880Y-74233350D01*
X64291268Y-74254393D01*
X64276653Y-74274099D01*
X64260177Y-74292277D01*
X64241999Y-74308753D01*
X64222293Y-74323368D01*
X64201250Y-74335980D01*
X64179071Y-74346470D01*
X64155972Y-74354735D01*
X64132173Y-74360696D01*
X64107905Y-74364296D01*
X64083401Y-74365500D01*
X63183399Y-74365500D01*
X63158895Y-74364296D01*
X63134627Y-74360696D01*
X63110828Y-74354735D01*
X63087729Y-74346470D01*
X63065550Y-74335980D01*
X63044507Y-74323368D01*
X63024801Y-74308753D01*
X63006623Y-74292277D01*
X62990147Y-74274099D01*
X62975532Y-74254393D01*
X62962920Y-74233350D01*
X62952430Y-74211171D01*
X62944165Y-74188072D01*
X62938204Y-74164273D01*
X62934604Y-74140005D01*
X62933400Y-74115501D01*
X62933400Y-73265499D01*
X62934604Y-73240995D01*
X62938204Y-73216727D01*
X62944165Y-73192928D01*
X62952430Y-73169829D01*
X62962920Y-73147650D01*
X62975532Y-73126607D01*
X62990147Y-73106901D01*
X63006623Y-73088723D01*
X63024801Y-73072247D01*
X63044507Y-73057632D01*
X63065550Y-73045020D01*
X63087729Y-73034530D01*
X63110828Y-73026265D01*
X63134627Y-73020304D01*
X63158895Y-73016704D01*
X63183399Y-73015500D01*
X64083401Y-73015500D01*
X64107905Y-73016704D01*
X64107905Y-73016704D01*
G37*
D12*
X63633400Y-73690500D03*
D10*
G36*
X66807905Y-73016704D02*
X66832173Y-73020304D01*
X66855972Y-73026265D01*
X66879071Y-73034530D01*
X66901250Y-73045020D01*
X66922293Y-73057632D01*
X66941999Y-73072247D01*
X66960177Y-73088723D01*
X66976653Y-73106901D01*
X66991268Y-73126607D01*
X67003880Y-73147650D01*
X67014370Y-73169829D01*
X67022635Y-73192928D01*
X67028596Y-73216727D01*
X67032196Y-73240995D01*
X67033400Y-73265499D01*
X67033400Y-74115501D01*
X67032196Y-74140005D01*
X67028596Y-74164273D01*
X67022635Y-74188072D01*
X67014370Y-74211171D01*
X67003880Y-74233350D01*
X66991268Y-74254393D01*
X66976653Y-74274099D01*
X66960177Y-74292277D01*
X66941999Y-74308753D01*
X66922293Y-74323368D01*
X66901250Y-74335980D01*
X66879071Y-74346470D01*
X66855972Y-74354735D01*
X66832173Y-74360696D01*
X66807905Y-74364296D01*
X66783401Y-74365500D01*
X65883399Y-74365500D01*
X65858895Y-74364296D01*
X65834627Y-74360696D01*
X65810828Y-74354735D01*
X65787729Y-74346470D01*
X65765550Y-74335980D01*
X65744507Y-74323368D01*
X65724801Y-74308753D01*
X65706623Y-74292277D01*
X65690147Y-74274099D01*
X65675532Y-74254393D01*
X65662920Y-74233350D01*
X65652430Y-74211171D01*
X65644165Y-74188072D01*
X65638204Y-74164273D01*
X65634604Y-74140005D01*
X65633400Y-74115501D01*
X65633400Y-73265499D01*
X65634604Y-73240995D01*
X65638204Y-73216727D01*
X65644165Y-73192928D01*
X65652430Y-73169829D01*
X65662920Y-73147650D01*
X65675532Y-73126607D01*
X65690147Y-73106901D01*
X65706623Y-73088723D01*
X65724801Y-73072247D01*
X65744507Y-73057632D01*
X65765550Y-73045020D01*
X65787729Y-73034530D01*
X65810828Y-73026265D01*
X65834627Y-73020304D01*
X65858895Y-73016704D01*
X65883399Y-73015500D01*
X66783401Y-73015500D01*
X66807905Y-73016704D01*
X66807905Y-73016704D01*
G37*
D12*
X66333400Y-73690500D03*
G04 #@! TD*
D10*
G04 #@! TO.C,C3*
G36*
X69166305Y-73006504D02*
X69190573Y-73010104D01*
X69214372Y-73016065D01*
X69237471Y-73024330D01*
X69259650Y-73034820D01*
X69280693Y-73047432D01*
X69300399Y-73062047D01*
X69318577Y-73078523D01*
X69335053Y-73096701D01*
X69349668Y-73116407D01*
X69362280Y-73137450D01*
X69372770Y-73159629D01*
X69381035Y-73182728D01*
X69386996Y-73206527D01*
X69390596Y-73230795D01*
X69391800Y-73255299D01*
X69391800Y-74105301D01*
X69390596Y-74129805D01*
X69386996Y-74154073D01*
X69381035Y-74177872D01*
X69372770Y-74200971D01*
X69362280Y-74223150D01*
X69349668Y-74244193D01*
X69335053Y-74263899D01*
X69318577Y-74282077D01*
X69300399Y-74298553D01*
X69280693Y-74313168D01*
X69259650Y-74325780D01*
X69237471Y-74336270D01*
X69214372Y-74344535D01*
X69190573Y-74350496D01*
X69166305Y-74354096D01*
X69141801Y-74355300D01*
X68241799Y-74355300D01*
X68217295Y-74354096D01*
X68193027Y-74350496D01*
X68169228Y-74344535D01*
X68146129Y-74336270D01*
X68123950Y-74325780D01*
X68102907Y-74313168D01*
X68083201Y-74298553D01*
X68065023Y-74282077D01*
X68048547Y-74263899D01*
X68033932Y-74244193D01*
X68021320Y-74223150D01*
X68010830Y-74200971D01*
X68002565Y-74177872D01*
X67996604Y-74154073D01*
X67993004Y-74129805D01*
X67991800Y-74105301D01*
X67991800Y-73255299D01*
X67993004Y-73230795D01*
X67996604Y-73206527D01*
X68002565Y-73182728D01*
X68010830Y-73159629D01*
X68021320Y-73137450D01*
X68033932Y-73116407D01*
X68048547Y-73096701D01*
X68065023Y-73078523D01*
X68083201Y-73062047D01*
X68102907Y-73047432D01*
X68123950Y-73034820D01*
X68146129Y-73024330D01*
X68169228Y-73016065D01*
X68193027Y-73010104D01*
X68217295Y-73006504D01*
X68241799Y-73005300D01*
X69141801Y-73005300D01*
X69166305Y-73006504D01*
X69166305Y-73006504D01*
G37*
D12*
X68691800Y-73680300D03*
D10*
G36*
X71866305Y-73006504D02*
X71890573Y-73010104D01*
X71914372Y-73016065D01*
X71937471Y-73024330D01*
X71959650Y-73034820D01*
X71980693Y-73047432D01*
X72000399Y-73062047D01*
X72018577Y-73078523D01*
X72035053Y-73096701D01*
X72049668Y-73116407D01*
X72062280Y-73137450D01*
X72072770Y-73159629D01*
X72081035Y-73182728D01*
X72086996Y-73206527D01*
X72090596Y-73230795D01*
X72091800Y-73255299D01*
X72091800Y-74105301D01*
X72090596Y-74129805D01*
X72086996Y-74154073D01*
X72081035Y-74177872D01*
X72072770Y-74200971D01*
X72062280Y-74223150D01*
X72049668Y-74244193D01*
X72035053Y-74263899D01*
X72018577Y-74282077D01*
X72000399Y-74298553D01*
X71980693Y-74313168D01*
X71959650Y-74325780D01*
X71937471Y-74336270D01*
X71914372Y-74344535D01*
X71890573Y-74350496D01*
X71866305Y-74354096D01*
X71841801Y-74355300D01*
X70941799Y-74355300D01*
X70917295Y-74354096D01*
X70893027Y-74350496D01*
X70869228Y-74344535D01*
X70846129Y-74336270D01*
X70823950Y-74325780D01*
X70802907Y-74313168D01*
X70783201Y-74298553D01*
X70765023Y-74282077D01*
X70748547Y-74263899D01*
X70733932Y-74244193D01*
X70721320Y-74223150D01*
X70710830Y-74200971D01*
X70702565Y-74177872D01*
X70696604Y-74154073D01*
X70693004Y-74129805D01*
X70691800Y-74105301D01*
X70691800Y-73255299D01*
X70693004Y-73230795D01*
X70696604Y-73206527D01*
X70702565Y-73182728D01*
X70710830Y-73159629D01*
X70721320Y-73137450D01*
X70733932Y-73116407D01*
X70748547Y-73096701D01*
X70765023Y-73078523D01*
X70783201Y-73062047D01*
X70802907Y-73047432D01*
X70823950Y-73034820D01*
X70846129Y-73024330D01*
X70869228Y-73016065D01*
X70893027Y-73010104D01*
X70917295Y-73006504D01*
X70941799Y-73005300D01*
X71841801Y-73005300D01*
X71866305Y-73006504D01*
X71866305Y-73006504D01*
G37*
D12*
X71391800Y-73680300D03*
G04 #@! TD*
D10*
G04 #@! TO.C,C1*
G36*
X71933605Y-59544504D02*
X71957873Y-59548104D01*
X71981672Y-59554065D01*
X72004771Y-59562330D01*
X72026950Y-59572820D01*
X72047993Y-59585432D01*
X72067699Y-59600047D01*
X72085877Y-59616523D01*
X72102353Y-59634701D01*
X72116968Y-59654407D01*
X72129580Y-59675450D01*
X72140070Y-59697629D01*
X72148335Y-59720728D01*
X72154296Y-59744527D01*
X72157896Y-59768795D01*
X72159100Y-59793299D01*
X72159100Y-60643301D01*
X72157896Y-60667805D01*
X72154296Y-60692073D01*
X72148335Y-60715872D01*
X72140070Y-60738971D01*
X72129580Y-60761150D01*
X72116968Y-60782193D01*
X72102353Y-60801899D01*
X72085877Y-60820077D01*
X72067699Y-60836553D01*
X72047993Y-60851168D01*
X72026950Y-60863780D01*
X72004771Y-60874270D01*
X71981672Y-60882535D01*
X71957873Y-60888496D01*
X71933605Y-60892096D01*
X71909101Y-60893300D01*
X71009099Y-60893300D01*
X70984595Y-60892096D01*
X70960327Y-60888496D01*
X70936528Y-60882535D01*
X70913429Y-60874270D01*
X70891250Y-60863780D01*
X70870207Y-60851168D01*
X70850501Y-60836553D01*
X70832323Y-60820077D01*
X70815847Y-60801899D01*
X70801232Y-60782193D01*
X70788620Y-60761150D01*
X70778130Y-60738971D01*
X70769865Y-60715872D01*
X70763904Y-60692073D01*
X70760304Y-60667805D01*
X70759100Y-60643301D01*
X70759100Y-59793299D01*
X70760304Y-59768795D01*
X70763904Y-59744527D01*
X70769865Y-59720728D01*
X70778130Y-59697629D01*
X70788620Y-59675450D01*
X70801232Y-59654407D01*
X70815847Y-59634701D01*
X70832323Y-59616523D01*
X70850501Y-59600047D01*
X70870207Y-59585432D01*
X70891250Y-59572820D01*
X70913429Y-59562330D01*
X70936528Y-59554065D01*
X70960327Y-59548104D01*
X70984595Y-59544504D01*
X71009099Y-59543300D01*
X71909101Y-59543300D01*
X71933605Y-59544504D01*
X71933605Y-59544504D01*
G37*
D12*
X71459100Y-60218300D03*
D10*
G36*
X69233605Y-59544504D02*
X69257873Y-59548104D01*
X69281672Y-59554065D01*
X69304771Y-59562330D01*
X69326950Y-59572820D01*
X69347993Y-59585432D01*
X69367699Y-59600047D01*
X69385877Y-59616523D01*
X69402353Y-59634701D01*
X69416968Y-59654407D01*
X69429580Y-59675450D01*
X69440070Y-59697629D01*
X69448335Y-59720728D01*
X69454296Y-59744527D01*
X69457896Y-59768795D01*
X69459100Y-59793299D01*
X69459100Y-60643301D01*
X69457896Y-60667805D01*
X69454296Y-60692073D01*
X69448335Y-60715872D01*
X69440070Y-60738971D01*
X69429580Y-60761150D01*
X69416968Y-60782193D01*
X69402353Y-60801899D01*
X69385877Y-60820077D01*
X69367699Y-60836553D01*
X69347993Y-60851168D01*
X69326950Y-60863780D01*
X69304771Y-60874270D01*
X69281672Y-60882535D01*
X69257873Y-60888496D01*
X69233605Y-60892096D01*
X69209101Y-60893300D01*
X68309099Y-60893300D01*
X68284595Y-60892096D01*
X68260327Y-60888496D01*
X68236528Y-60882535D01*
X68213429Y-60874270D01*
X68191250Y-60863780D01*
X68170207Y-60851168D01*
X68150501Y-60836553D01*
X68132323Y-60820077D01*
X68115847Y-60801899D01*
X68101232Y-60782193D01*
X68088620Y-60761150D01*
X68078130Y-60738971D01*
X68069865Y-60715872D01*
X68063904Y-60692073D01*
X68060304Y-60667805D01*
X68059100Y-60643301D01*
X68059100Y-59793299D01*
X68060304Y-59768795D01*
X68063904Y-59744527D01*
X68069865Y-59720728D01*
X68078130Y-59697629D01*
X68088620Y-59675450D01*
X68101232Y-59654407D01*
X68115847Y-59634701D01*
X68132323Y-59616523D01*
X68150501Y-59600047D01*
X68170207Y-59585432D01*
X68191250Y-59572820D01*
X68213429Y-59562330D01*
X68236528Y-59554065D01*
X68260327Y-59548104D01*
X68284595Y-59544504D01*
X68309099Y-59543300D01*
X69209101Y-59543300D01*
X69233605Y-59544504D01*
X69233605Y-59544504D01*
G37*
D12*
X68759100Y-60218300D03*
G04 #@! TD*
D10*
G04 #@! TO.C,C2*
G36*
X66899305Y-59544504D02*
X66923573Y-59548104D01*
X66947372Y-59554065D01*
X66970471Y-59562330D01*
X66992650Y-59572820D01*
X67013693Y-59585432D01*
X67033399Y-59600047D01*
X67051577Y-59616523D01*
X67068053Y-59634701D01*
X67082668Y-59654407D01*
X67095280Y-59675450D01*
X67105770Y-59697629D01*
X67114035Y-59720728D01*
X67119996Y-59744527D01*
X67123596Y-59768795D01*
X67124800Y-59793299D01*
X67124800Y-60643301D01*
X67123596Y-60667805D01*
X67119996Y-60692073D01*
X67114035Y-60715872D01*
X67105770Y-60738971D01*
X67095280Y-60761150D01*
X67082668Y-60782193D01*
X67068053Y-60801899D01*
X67051577Y-60820077D01*
X67033399Y-60836553D01*
X67013693Y-60851168D01*
X66992650Y-60863780D01*
X66970471Y-60874270D01*
X66947372Y-60882535D01*
X66923573Y-60888496D01*
X66899305Y-60892096D01*
X66874801Y-60893300D01*
X65974799Y-60893300D01*
X65950295Y-60892096D01*
X65926027Y-60888496D01*
X65902228Y-60882535D01*
X65879129Y-60874270D01*
X65856950Y-60863780D01*
X65835907Y-60851168D01*
X65816201Y-60836553D01*
X65798023Y-60820077D01*
X65781547Y-60801899D01*
X65766932Y-60782193D01*
X65754320Y-60761150D01*
X65743830Y-60738971D01*
X65735565Y-60715872D01*
X65729604Y-60692073D01*
X65726004Y-60667805D01*
X65724800Y-60643301D01*
X65724800Y-59793299D01*
X65726004Y-59768795D01*
X65729604Y-59744527D01*
X65735565Y-59720728D01*
X65743830Y-59697629D01*
X65754320Y-59675450D01*
X65766932Y-59654407D01*
X65781547Y-59634701D01*
X65798023Y-59616523D01*
X65816201Y-59600047D01*
X65835907Y-59585432D01*
X65856950Y-59572820D01*
X65879129Y-59562330D01*
X65902228Y-59554065D01*
X65926027Y-59548104D01*
X65950295Y-59544504D01*
X65974799Y-59543300D01*
X66874801Y-59543300D01*
X66899305Y-59544504D01*
X66899305Y-59544504D01*
G37*
D12*
X66424800Y-60218300D03*
D10*
G36*
X64199305Y-59544504D02*
X64223573Y-59548104D01*
X64247372Y-59554065D01*
X64270471Y-59562330D01*
X64292650Y-59572820D01*
X64313693Y-59585432D01*
X64333399Y-59600047D01*
X64351577Y-59616523D01*
X64368053Y-59634701D01*
X64382668Y-59654407D01*
X64395280Y-59675450D01*
X64405770Y-59697629D01*
X64414035Y-59720728D01*
X64419996Y-59744527D01*
X64423596Y-59768795D01*
X64424800Y-59793299D01*
X64424800Y-60643301D01*
X64423596Y-60667805D01*
X64419996Y-60692073D01*
X64414035Y-60715872D01*
X64405770Y-60738971D01*
X64395280Y-60761150D01*
X64382668Y-60782193D01*
X64368053Y-60801899D01*
X64351577Y-60820077D01*
X64333399Y-60836553D01*
X64313693Y-60851168D01*
X64292650Y-60863780D01*
X64270471Y-60874270D01*
X64247372Y-60882535D01*
X64223573Y-60888496D01*
X64199305Y-60892096D01*
X64174801Y-60893300D01*
X63274799Y-60893300D01*
X63250295Y-60892096D01*
X63226027Y-60888496D01*
X63202228Y-60882535D01*
X63179129Y-60874270D01*
X63156950Y-60863780D01*
X63135907Y-60851168D01*
X63116201Y-60836553D01*
X63098023Y-60820077D01*
X63081547Y-60801899D01*
X63066932Y-60782193D01*
X63054320Y-60761150D01*
X63043830Y-60738971D01*
X63035565Y-60715872D01*
X63029604Y-60692073D01*
X63026004Y-60667805D01*
X63024800Y-60643301D01*
X63024800Y-59793299D01*
X63026004Y-59768795D01*
X63029604Y-59744527D01*
X63035565Y-59720728D01*
X63043830Y-59697629D01*
X63054320Y-59675450D01*
X63066932Y-59654407D01*
X63081547Y-59634701D01*
X63098023Y-59616523D01*
X63116201Y-59600047D01*
X63135907Y-59585432D01*
X63156950Y-59572820D01*
X63179129Y-59562330D01*
X63202228Y-59554065D01*
X63226027Y-59548104D01*
X63250295Y-59544504D01*
X63274799Y-59543300D01*
X64174801Y-59543300D01*
X64199305Y-59544504D01*
X64199305Y-59544504D01*
G37*
D12*
X63724800Y-60218300D03*
G04 #@! TD*
D10*
G04 #@! TO.C,U5*
G36*
X41976977Y-62596462D02*
X41990325Y-62598442D01*
X42003414Y-62601721D01*
X42016119Y-62606267D01*
X42028317Y-62612036D01*
X42039891Y-62618973D01*
X42050729Y-62627011D01*
X42060727Y-62636073D01*
X42069789Y-62646071D01*
X42077827Y-62656909D01*
X42084764Y-62668483D01*
X42090533Y-62680681D01*
X42095079Y-62693386D01*
X42098358Y-62706475D01*
X42100338Y-62719823D01*
X42101000Y-62733300D01*
X42101000Y-63983300D01*
X42100338Y-63996777D01*
X42098358Y-64010125D01*
X42095079Y-64023214D01*
X42090533Y-64035919D01*
X42084764Y-64048117D01*
X42077827Y-64059691D01*
X42069789Y-64070529D01*
X42060727Y-64080527D01*
X42050729Y-64089589D01*
X42039891Y-64097627D01*
X42028317Y-64104564D01*
X42016119Y-64110333D01*
X42003414Y-64114879D01*
X41990325Y-64118158D01*
X41976977Y-64120138D01*
X41963500Y-64120800D01*
X41688500Y-64120800D01*
X41675023Y-64120138D01*
X41661675Y-64118158D01*
X41648586Y-64114879D01*
X41635881Y-64110333D01*
X41623683Y-64104564D01*
X41612109Y-64097627D01*
X41601271Y-64089589D01*
X41591273Y-64080527D01*
X41582211Y-64070529D01*
X41574173Y-64059691D01*
X41567236Y-64048117D01*
X41561467Y-64035919D01*
X41556921Y-64023214D01*
X41553642Y-64010125D01*
X41551662Y-63996777D01*
X41551000Y-63983300D01*
X41551000Y-62733300D01*
X41551662Y-62719823D01*
X41553642Y-62706475D01*
X41556921Y-62693386D01*
X41561467Y-62680681D01*
X41567236Y-62668483D01*
X41574173Y-62656909D01*
X41582211Y-62646071D01*
X41591273Y-62636073D01*
X41601271Y-62627011D01*
X41612109Y-62618973D01*
X41623683Y-62612036D01*
X41635881Y-62606267D01*
X41648586Y-62601721D01*
X41661675Y-62598442D01*
X41675023Y-62596462D01*
X41688500Y-62595800D01*
X41963500Y-62595800D01*
X41976977Y-62596462D01*
X41976977Y-62596462D01*
G37*
D13*
X41826000Y-63358300D03*
D10*
G36*
X42776977Y-62596462D02*
X42790325Y-62598442D01*
X42803414Y-62601721D01*
X42816119Y-62606267D01*
X42828317Y-62612036D01*
X42839891Y-62618973D01*
X42850729Y-62627011D01*
X42860727Y-62636073D01*
X42869789Y-62646071D01*
X42877827Y-62656909D01*
X42884764Y-62668483D01*
X42890533Y-62680681D01*
X42895079Y-62693386D01*
X42898358Y-62706475D01*
X42900338Y-62719823D01*
X42901000Y-62733300D01*
X42901000Y-63983300D01*
X42900338Y-63996777D01*
X42898358Y-64010125D01*
X42895079Y-64023214D01*
X42890533Y-64035919D01*
X42884764Y-64048117D01*
X42877827Y-64059691D01*
X42869789Y-64070529D01*
X42860727Y-64080527D01*
X42850729Y-64089589D01*
X42839891Y-64097627D01*
X42828317Y-64104564D01*
X42816119Y-64110333D01*
X42803414Y-64114879D01*
X42790325Y-64118158D01*
X42776977Y-64120138D01*
X42763500Y-64120800D01*
X42488500Y-64120800D01*
X42475023Y-64120138D01*
X42461675Y-64118158D01*
X42448586Y-64114879D01*
X42435881Y-64110333D01*
X42423683Y-64104564D01*
X42412109Y-64097627D01*
X42401271Y-64089589D01*
X42391273Y-64080527D01*
X42382211Y-64070529D01*
X42374173Y-64059691D01*
X42367236Y-64048117D01*
X42361467Y-64035919D01*
X42356921Y-64023214D01*
X42353642Y-64010125D01*
X42351662Y-63996777D01*
X42351000Y-63983300D01*
X42351000Y-62733300D01*
X42351662Y-62719823D01*
X42353642Y-62706475D01*
X42356921Y-62693386D01*
X42361467Y-62680681D01*
X42367236Y-62668483D01*
X42374173Y-62656909D01*
X42382211Y-62646071D01*
X42391273Y-62636073D01*
X42401271Y-62627011D01*
X42412109Y-62618973D01*
X42423683Y-62612036D01*
X42435881Y-62606267D01*
X42448586Y-62601721D01*
X42461675Y-62598442D01*
X42475023Y-62596462D01*
X42488500Y-62595800D01*
X42763500Y-62595800D01*
X42776977Y-62596462D01*
X42776977Y-62596462D01*
G37*
D13*
X42626000Y-63358300D03*
D10*
G36*
X43576977Y-62596462D02*
X43590325Y-62598442D01*
X43603414Y-62601721D01*
X43616119Y-62606267D01*
X43628317Y-62612036D01*
X43639891Y-62618973D01*
X43650729Y-62627011D01*
X43660727Y-62636073D01*
X43669789Y-62646071D01*
X43677827Y-62656909D01*
X43684764Y-62668483D01*
X43690533Y-62680681D01*
X43695079Y-62693386D01*
X43698358Y-62706475D01*
X43700338Y-62719823D01*
X43701000Y-62733300D01*
X43701000Y-63983300D01*
X43700338Y-63996777D01*
X43698358Y-64010125D01*
X43695079Y-64023214D01*
X43690533Y-64035919D01*
X43684764Y-64048117D01*
X43677827Y-64059691D01*
X43669789Y-64070529D01*
X43660727Y-64080527D01*
X43650729Y-64089589D01*
X43639891Y-64097627D01*
X43628317Y-64104564D01*
X43616119Y-64110333D01*
X43603414Y-64114879D01*
X43590325Y-64118158D01*
X43576977Y-64120138D01*
X43563500Y-64120800D01*
X43288500Y-64120800D01*
X43275023Y-64120138D01*
X43261675Y-64118158D01*
X43248586Y-64114879D01*
X43235881Y-64110333D01*
X43223683Y-64104564D01*
X43212109Y-64097627D01*
X43201271Y-64089589D01*
X43191273Y-64080527D01*
X43182211Y-64070529D01*
X43174173Y-64059691D01*
X43167236Y-64048117D01*
X43161467Y-64035919D01*
X43156921Y-64023214D01*
X43153642Y-64010125D01*
X43151662Y-63996777D01*
X43151000Y-63983300D01*
X43151000Y-62733300D01*
X43151662Y-62719823D01*
X43153642Y-62706475D01*
X43156921Y-62693386D01*
X43161467Y-62680681D01*
X43167236Y-62668483D01*
X43174173Y-62656909D01*
X43182211Y-62646071D01*
X43191273Y-62636073D01*
X43201271Y-62627011D01*
X43212109Y-62618973D01*
X43223683Y-62612036D01*
X43235881Y-62606267D01*
X43248586Y-62601721D01*
X43261675Y-62598442D01*
X43275023Y-62596462D01*
X43288500Y-62595800D01*
X43563500Y-62595800D01*
X43576977Y-62596462D01*
X43576977Y-62596462D01*
G37*
D13*
X43426000Y-63358300D03*
D10*
G36*
X44376977Y-62596462D02*
X44390325Y-62598442D01*
X44403414Y-62601721D01*
X44416119Y-62606267D01*
X44428317Y-62612036D01*
X44439891Y-62618973D01*
X44450729Y-62627011D01*
X44460727Y-62636073D01*
X44469789Y-62646071D01*
X44477827Y-62656909D01*
X44484764Y-62668483D01*
X44490533Y-62680681D01*
X44495079Y-62693386D01*
X44498358Y-62706475D01*
X44500338Y-62719823D01*
X44501000Y-62733300D01*
X44501000Y-63983300D01*
X44500338Y-63996777D01*
X44498358Y-64010125D01*
X44495079Y-64023214D01*
X44490533Y-64035919D01*
X44484764Y-64048117D01*
X44477827Y-64059691D01*
X44469789Y-64070529D01*
X44460727Y-64080527D01*
X44450729Y-64089589D01*
X44439891Y-64097627D01*
X44428317Y-64104564D01*
X44416119Y-64110333D01*
X44403414Y-64114879D01*
X44390325Y-64118158D01*
X44376977Y-64120138D01*
X44363500Y-64120800D01*
X44088500Y-64120800D01*
X44075023Y-64120138D01*
X44061675Y-64118158D01*
X44048586Y-64114879D01*
X44035881Y-64110333D01*
X44023683Y-64104564D01*
X44012109Y-64097627D01*
X44001271Y-64089589D01*
X43991273Y-64080527D01*
X43982211Y-64070529D01*
X43974173Y-64059691D01*
X43967236Y-64048117D01*
X43961467Y-64035919D01*
X43956921Y-64023214D01*
X43953642Y-64010125D01*
X43951662Y-63996777D01*
X43951000Y-63983300D01*
X43951000Y-62733300D01*
X43951662Y-62719823D01*
X43953642Y-62706475D01*
X43956921Y-62693386D01*
X43961467Y-62680681D01*
X43967236Y-62668483D01*
X43974173Y-62656909D01*
X43982211Y-62646071D01*
X43991273Y-62636073D01*
X44001271Y-62627011D01*
X44012109Y-62618973D01*
X44023683Y-62612036D01*
X44035881Y-62606267D01*
X44048586Y-62601721D01*
X44061675Y-62598442D01*
X44075023Y-62596462D01*
X44088500Y-62595800D01*
X44363500Y-62595800D01*
X44376977Y-62596462D01*
X44376977Y-62596462D01*
G37*
D13*
X44226000Y-63358300D03*
D10*
G36*
X45176977Y-62596462D02*
X45190325Y-62598442D01*
X45203414Y-62601721D01*
X45216119Y-62606267D01*
X45228317Y-62612036D01*
X45239891Y-62618973D01*
X45250729Y-62627011D01*
X45260727Y-62636073D01*
X45269789Y-62646071D01*
X45277827Y-62656909D01*
X45284764Y-62668483D01*
X45290533Y-62680681D01*
X45295079Y-62693386D01*
X45298358Y-62706475D01*
X45300338Y-62719823D01*
X45301000Y-62733300D01*
X45301000Y-63983300D01*
X45300338Y-63996777D01*
X45298358Y-64010125D01*
X45295079Y-64023214D01*
X45290533Y-64035919D01*
X45284764Y-64048117D01*
X45277827Y-64059691D01*
X45269789Y-64070529D01*
X45260727Y-64080527D01*
X45250729Y-64089589D01*
X45239891Y-64097627D01*
X45228317Y-64104564D01*
X45216119Y-64110333D01*
X45203414Y-64114879D01*
X45190325Y-64118158D01*
X45176977Y-64120138D01*
X45163500Y-64120800D01*
X44888500Y-64120800D01*
X44875023Y-64120138D01*
X44861675Y-64118158D01*
X44848586Y-64114879D01*
X44835881Y-64110333D01*
X44823683Y-64104564D01*
X44812109Y-64097627D01*
X44801271Y-64089589D01*
X44791273Y-64080527D01*
X44782211Y-64070529D01*
X44774173Y-64059691D01*
X44767236Y-64048117D01*
X44761467Y-64035919D01*
X44756921Y-64023214D01*
X44753642Y-64010125D01*
X44751662Y-63996777D01*
X44751000Y-63983300D01*
X44751000Y-62733300D01*
X44751662Y-62719823D01*
X44753642Y-62706475D01*
X44756921Y-62693386D01*
X44761467Y-62680681D01*
X44767236Y-62668483D01*
X44774173Y-62656909D01*
X44782211Y-62646071D01*
X44791273Y-62636073D01*
X44801271Y-62627011D01*
X44812109Y-62618973D01*
X44823683Y-62612036D01*
X44835881Y-62606267D01*
X44848586Y-62601721D01*
X44861675Y-62598442D01*
X44875023Y-62596462D01*
X44888500Y-62595800D01*
X45163500Y-62595800D01*
X45176977Y-62596462D01*
X45176977Y-62596462D01*
G37*
D13*
X45026000Y-63358300D03*
D10*
G36*
X45976977Y-62596462D02*
X45990325Y-62598442D01*
X46003414Y-62601721D01*
X46016119Y-62606267D01*
X46028317Y-62612036D01*
X46039891Y-62618973D01*
X46050729Y-62627011D01*
X46060727Y-62636073D01*
X46069789Y-62646071D01*
X46077827Y-62656909D01*
X46084764Y-62668483D01*
X46090533Y-62680681D01*
X46095079Y-62693386D01*
X46098358Y-62706475D01*
X46100338Y-62719823D01*
X46101000Y-62733300D01*
X46101000Y-63983300D01*
X46100338Y-63996777D01*
X46098358Y-64010125D01*
X46095079Y-64023214D01*
X46090533Y-64035919D01*
X46084764Y-64048117D01*
X46077827Y-64059691D01*
X46069789Y-64070529D01*
X46060727Y-64080527D01*
X46050729Y-64089589D01*
X46039891Y-64097627D01*
X46028317Y-64104564D01*
X46016119Y-64110333D01*
X46003414Y-64114879D01*
X45990325Y-64118158D01*
X45976977Y-64120138D01*
X45963500Y-64120800D01*
X45688500Y-64120800D01*
X45675023Y-64120138D01*
X45661675Y-64118158D01*
X45648586Y-64114879D01*
X45635881Y-64110333D01*
X45623683Y-64104564D01*
X45612109Y-64097627D01*
X45601271Y-64089589D01*
X45591273Y-64080527D01*
X45582211Y-64070529D01*
X45574173Y-64059691D01*
X45567236Y-64048117D01*
X45561467Y-64035919D01*
X45556921Y-64023214D01*
X45553642Y-64010125D01*
X45551662Y-63996777D01*
X45551000Y-63983300D01*
X45551000Y-62733300D01*
X45551662Y-62719823D01*
X45553642Y-62706475D01*
X45556921Y-62693386D01*
X45561467Y-62680681D01*
X45567236Y-62668483D01*
X45574173Y-62656909D01*
X45582211Y-62646071D01*
X45591273Y-62636073D01*
X45601271Y-62627011D01*
X45612109Y-62618973D01*
X45623683Y-62612036D01*
X45635881Y-62606267D01*
X45648586Y-62601721D01*
X45661675Y-62598442D01*
X45675023Y-62596462D01*
X45688500Y-62595800D01*
X45963500Y-62595800D01*
X45976977Y-62596462D01*
X45976977Y-62596462D01*
G37*
D13*
X45826000Y-63358300D03*
D10*
G36*
X46776977Y-62596462D02*
X46790325Y-62598442D01*
X46803414Y-62601721D01*
X46816119Y-62606267D01*
X46828317Y-62612036D01*
X46839891Y-62618973D01*
X46850729Y-62627011D01*
X46860727Y-62636073D01*
X46869789Y-62646071D01*
X46877827Y-62656909D01*
X46884764Y-62668483D01*
X46890533Y-62680681D01*
X46895079Y-62693386D01*
X46898358Y-62706475D01*
X46900338Y-62719823D01*
X46901000Y-62733300D01*
X46901000Y-63983300D01*
X46900338Y-63996777D01*
X46898358Y-64010125D01*
X46895079Y-64023214D01*
X46890533Y-64035919D01*
X46884764Y-64048117D01*
X46877827Y-64059691D01*
X46869789Y-64070529D01*
X46860727Y-64080527D01*
X46850729Y-64089589D01*
X46839891Y-64097627D01*
X46828317Y-64104564D01*
X46816119Y-64110333D01*
X46803414Y-64114879D01*
X46790325Y-64118158D01*
X46776977Y-64120138D01*
X46763500Y-64120800D01*
X46488500Y-64120800D01*
X46475023Y-64120138D01*
X46461675Y-64118158D01*
X46448586Y-64114879D01*
X46435881Y-64110333D01*
X46423683Y-64104564D01*
X46412109Y-64097627D01*
X46401271Y-64089589D01*
X46391273Y-64080527D01*
X46382211Y-64070529D01*
X46374173Y-64059691D01*
X46367236Y-64048117D01*
X46361467Y-64035919D01*
X46356921Y-64023214D01*
X46353642Y-64010125D01*
X46351662Y-63996777D01*
X46351000Y-63983300D01*
X46351000Y-62733300D01*
X46351662Y-62719823D01*
X46353642Y-62706475D01*
X46356921Y-62693386D01*
X46361467Y-62680681D01*
X46367236Y-62668483D01*
X46374173Y-62656909D01*
X46382211Y-62646071D01*
X46391273Y-62636073D01*
X46401271Y-62627011D01*
X46412109Y-62618973D01*
X46423683Y-62612036D01*
X46435881Y-62606267D01*
X46448586Y-62601721D01*
X46461675Y-62598442D01*
X46475023Y-62596462D01*
X46488500Y-62595800D01*
X46763500Y-62595800D01*
X46776977Y-62596462D01*
X46776977Y-62596462D01*
G37*
D13*
X46626000Y-63358300D03*
D10*
G36*
X47576977Y-62596462D02*
X47590325Y-62598442D01*
X47603414Y-62601721D01*
X47616119Y-62606267D01*
X47628317Y-62612036D01*
X47639891Y-62618973D01*
X47650729Y-62627011D01*
X47660727Y-62636073D01*
X47669789Y-62646071D01*
X47677827Y-62656909D01*
X47684764Y-62668483D01*
X47690533Y-62680681D01*
X47695079Y-62693386D01*
X47698358Y-62706475D01*
X47700338Y-62719823D01*
X47701000Y-62733300D01*
X47701000Y-63983300D01*
X47700338Y-63996777D01*
X47698358Y-64010125D01*
X47695079Y-64023214D01*
X47690533Y-64035919D01*
X47684764Y-64048117D01*
X47677827Y-64059691D01*
X47669789Y-64070529D01*
X47660727Y-64080527D01*
X47650729Y-64089589D01*
X47639891Y-64097627D01*
X47628317Y-64104564D01*
X47616119Y-64110333D01*
X47603414Y-64114879D01*
X47590325Y-64118158D01*
X47576977Y-64120138D01*
X47563500Y-64120800D01*
X47288500Y-64120800D01*
X47275023Y-64120138D01*
X47261675Y-64118158D01*
X47248586Y-64114879D01*
X47235881Y-64110333D01*
X47223683Y-64104564D01*
X47212109Y-64097627D01*
X47201271Y-64089589D01*
X47191273Y-64080527D01*
X47182211Y-64070529D01*
X47174173Y-64059691D01*
X47167236Y-64048117D01*
X47161467Y-64035919D01*
X47156921Y-64023214D01*
X47153642Y-64010125D01*
X47151662Y-63996777D01*
X47151000Y-63983300D01*
X47151000Y-62733300D01*
X47151662Y-62719823D01*
X47153642Y-62706475D01*
X47156921Y-62693386D01*
X47161467Y-62680681D01*
X47167236Y-62668483D01*
X47174173Y-62656909D01*
X47182211Y-62646071D01*
X47191273Y-62636073D01*
X47201271Y-62627011D01*
X47212109Y-62618973D01*
X47223683Y-62612036D01*
X47235881Y-62606267D01*
X47248586Y-62601721D01*
X47261675Y-62598442D01*
X47275023Y-62596462D01*
X47288500Y-62595800D01*
X47563500Y-62595800D01*
X47576977Y-62596462D01*
X47576977Y-62596462D01*
G37*
D13*
X47426000Y-63358300D03*
D10*
G36*
X48376977Y-62596462D02*
X48390325Y-62598442D01*
X48403414Y-62601721D01*
X48416119Y-62606267D01*
X48428317Y-62612036D01*
X48439891Y-62618973D01*
X48450729Y-62627011D01*
X48460727Y-62636073D01*
X48469789Y-62646071D01*
X48477827Y-62656909D01*
X48484764Y-62668483D01*
X48490533Y-62680681D01*
X48495079Y-62693386D01*
X48498358Y-62706475D01*
X48500338Y-62719823D01*
X48501000Y-62733300D01*
X48501000Y-63983300D01*
X48500338Y-63996777D01*
X48498358Y-64010125D01*
X48495079Y-64023214D01*
X48490533Y-64035919D01*
X48484764Y-64048117D01*
X48477827Y-64059691D01*
X48469789Y-64070529D01*
X48460727Y-64080527D01*
X48450729Y-64089589D01*
X48439891Y-64097627D01*
X48428317Y-64104564D01*
X48416119Y-64110333D01*
X48403414Y-64114879D01*
X48390325Y-64118158D01*
X48376977Y-64120138D01*
X48363500Y-64120800D01*
X48088500Y-64120800D01*
X48075023Y-64120138D01*
X48061675Y-64118158D01*
X48048586Y-64114879D01*
X48035881Y-64110333D01*
X48023683Y-64104564D01*
X48012109Y-64097627D01*
X48001271Y-64089589D01*
X47991273Y-64080527D01*
X47982211Y-64070529D01*
X47974173Y-64059691D01*
X47967236Y-64048117D01*
X47961467Y-64035919D01*
X47956921Y-64023214D01*
X47953642Y-64010125D01*
X47951662Y-63996777D01*
X47951000Y-63983300D01*
X47951000Y-62733300D01*
X47951662Y-62719823D01*
X47953642Y-62706475D01*
X47956921Y-62693386D01*
X47961467Y-62680681D01*
X47967236Y-62668483D01*
X47974173Y-62656909D01*
X47982211Y-62646071D01*
X47991273Y-62636073D01*
X48001271Y-62627011D01*
X48012109Y-62618973D01*
X48023683Y-62612036D01*
X48035881Y-62606267D01*
X48048586Y-62601721D01*
X48061675Y-62598442D01*
X48075023Y-62596462D01*
X48088500Y-62595800D01*
X48363500Y-62595800D01*
X48376977Y-62596462D01*
X48376977Y-62596462D01*
G37*
D13*
X48226000Y-63358300D03*
D10*
G36*
X49176977Y-62596462D02*
X49190325Y-62598442D01*
X49203414Y-62601721D01*
X49216119Y-62606267D01*
X49228317Y-62612036D01*
X49239891Y-62618973D01*
X49250729Y-62627011D01*
X49260727Y-62636073D01*
X49269789Y-62646071D01*
X49277827Y-62656909D01*
X49284764Y-62668483D01*
X49290533Y-62680681D01*
X49295079Y-62693386D01*
X49298358Y-62706475D01*
X49300338Y-62719823D01*
X49301000Y-62733300D01*
X49301000Y-63983300D01*
X49300338Y-63996777D01*
X49298358Y-64010125D01*
X49295079Y-64023214D01*
X49290533Y-64035919D01*
X49284764Y-64048117D01*
X49277827Y-64059691D01*
X49269789Y-64070529D01*
X49260727Y-64080527D01*
X49250729Y-64089589D01*
X49239891Y-64097627D01*
X49228317Y-64104564D01*
X49216119Y-64110333D01*
X49203414Y-64114879D01*
X49190325Y-64118158D01*
X49176977Y-64120138D01*
X49163500Y-64120800D01*
X48888500Y-64120800D01*
X48875023Y-64120138D01*
X48861675Y-64118158D01*
X48848586Y-64114879D01*
X48835881Y-64110333D01*
X48823683Y-64104564D01*
X48812109Y-64097627D01*
X48801271Y-64089589D01*
X48791273Y-64080527D01*
X48782211Y-64070529D01*
X48774173Y-64059691D01*
X48767236Y-64048117D01*
X48761467Y-64035919D01*
X48756921Y-64023214D01*
X48753642Y-64010125D01*
X48751662Y-63996777D01*
X48751000Y-63983300D01*
X48751000Y-62733300D01*
X48751662Y-62719823D01*
X48753642Y-62706475D01*
X48756921Y-62693386D01*
X48761467Y-62680681D01*
X48767236Y-62668483D01*
X48774173Y-62656909D01*
X48782211Y-62646071D01*
X48791273Y-62636073D01*
X48801271Y-62627011D01*
X48812109Y-62618973D01*
X48823683Y-62612036D01*
X48835881Y-62606267D01*
X48848586Y-62601721D01*
X48861675Y-62598442D01*
X48875023Y-62596462D01*
X48888500Y-62595800D01*
X49163500Y-62595800D01*
X49176977Y-62596462D01*
X49176977Y-62596462D01*
G37*
D13*
X49026000Y-63358300D03*
D10*
G36*
X49976977Y-62596462D02*
X49990325Y-62598442D01*
X50003414Y-62601721D01*
X50016119Y-62606267D01*
X50028317Y-62612036D01*
X50039891Y-62618973D01*
X50050729Y-62627011D01*
X50060727Y-62636073D01*
X50069789Y-62646071D01*
X50077827Y-62656909D01*
X50084764Y-62668483D01*
X50090533Y-62680681D01*
X50095079Y-62693386D01*
X50098358Y-62706475D01*
X50100338Y-62719823D01*
X50101000Y-62733300D01*
X50101000Y-63983300D01*
X50100338Y-63996777D01*
X50098358Y-64010125D01*
X50095079Y-64023214D01*
X50090533Y-64035919D01*
X50084764Y-64048117D01*
X50077827Y-64059691D01*
X50069789Y-64070529D01*
X50060727Y-64080527D01*
X50050729Y-64089589D01*
X50039891Y-64097627D01*
X50028317Y-64104564D01*
X50016119Y-64110333D01*
X50003414Y-64114879D01*
X49990325Y-64118158D01*
X49976977Y-64120138D01*
X49963500Y-64120800D01*
X49688500Y-64120800D01*
X49675023Y-64120138D01*
X49661675Y-64118158D01*
X49648586Y-64114879D01*
X49635881Y-64110333D01*
X49623683Y-64104564D01*
X49612109Y-64097627D01*
X49601271Y-64089589D01*
X49591273Y-64080527D01*
X49582211Y-64070529D01*
X49574173Y-64059691D01*
X49567236Y-64048117D01*
X49561467Y-64035919D01*
X49556921Y-64023214D01*
X49553642Y-64010125D01*
X49551662Y-63996777D01*
X49551000Y-63983300D01*
X49551000Y-62733300D01*
X49551662Y-62719823D01*
X49553642Y-62706475D01*
X49556921Y-62693386D01*
X49561467Y-62680681D01*
X49567236Y-62668483D01*
X49574173Y-62656909D01*
X49582211Y-62646071D01*
X49591273Y-62636073D01*
X49601271Y-62627011D01*
X49612109Y-62618973D01*
X49623683Y-62612036D01*
X49635881Y-62606267D01*
X49648586Y-62601721D01*
X49661675Y-62598442D01*
X49675023Y-62596462D01*
X49688500Y-62595800D01*
X49963500Y-62595800D01*
X49976977Y-62596462D01*
X49976977Y-62596462D01*
G37*
D13*
X49826000Y-63358300D03*
D10*
G36*
X50776977Y-62596462D02*
X50790325Y-62598442D01*
X50803414Y-62601721D01*
X50816119Y-62606267D01*
X50828317Y-62612036D01*
X50839891Y-62618973D01*
X50850729Y-62627011D01*
X50860727Y-62636073D01*
X50869789Y-62646071D01*
X50877827Y-62656909D01*
X50884764Y-62668483D01*
X50890533Y-62680681D01*
X50895079Y-62693386D01*
X50898358Y-62706475D01*
X50900338Y-62719823D01*
X50901000Y-62733300D01*
X50901000Y-63983300D01*
X50900338Y-63996777D01*
X50898358Y-64010125D01*
X50895079Y-64023214D01*
X50890533Y-64035919D01*
X50884764Y-64048117D01*
X50877827Y-64059691D01*
X50869789Y-64070529D01*
X50860727Y-64080527D01*
X50850729Y-64089589D01*
X50839891Y-64097627D01*
X50828317Y-64104564D01*
X50816119Y-64110333D01*
X50803414Y-64114879D01*
X50790325Y-64118158D01*
X50776977Y-64120138D01*
X50763500Y-64120800D01*
X50488500Y-64120800D01*
X50475023Y-64120138D01*
X50461675Y-64118158D01*
X50448586Y-64114879D01*
X50435881Y-64110333D01*
X50423683Y-64104564D01*
X50412109Y-64097627D01*
X50401271Y-64089589D01*
X50391273Y-64080527D01*
X50382211Y-64070529D01*
X50374173Y-64059691D01*
X50367236Y-64048117D01*
X50361467Y-64035919D01*
X50356921Y-64023214D01*
X50353642Y-64010125D01*
X50351662Y-63996777D01*
X50351000Y-63983300D01*
X50351000Y-62733300D01*
X50351662Y-62719823D01*
X50353642Y-62706475D01*
X50356921Y-62693386D01*
X50361467Y-62680681D01*
X50367236Y-62668483D01*
X50374173Y-62656909D01*
X50382211Y-62646071D01*
X50391273Y-62636073D01*
X50401271Y-62627011D01*
X50412109Y-62618973D01*
X50423683Y-62612036D01*
X50435881Y-62606267D01*
X50448586Y-62601721D01*
X50461675Y-62598442D01*
X50475023Y-62596462D01*
X50488500Y-62595800D01*
X50763500Y-62595800D01*
X50776977Y-62596462D01*
X50776977Y-62596462D01*
G37*
D13*
X50626000Y-63358300D03*
D10*
G36*
X51576977Y-62596462D02*
X51590325Y-62598442D01*
X51603414Y-62601721D01*
X51616119Y-62606267D01*
X51628317Y-62612036D01*
X51639891Y-62618973D01*
X51650729Y-62627011D01*
X51660727Y-62636073D01*
X51669789Y-62646071D01*
X51677827Y-62656909D01*
X51684764Y-62668483D01*
X51690533Y-62680681D01*
X51695079Y-62693386D01*
X51698358Y-62706475D01*
X51700338Y-62719823D01*
X51701000Y-62733300D01*
X51701000Y-63983300D01*
X51700338Y-63996777D01*
X51698358Y-64010125D01*
X51695079Y-64023214D01*
X51690533Y-64035919D01*
X51684764Y-64048117D01*
X51677827Y-64059691D01*
X51669789Y-64070529D01*
X51660727Y-64080527D01*
X51650729Y-64089589D01*
X51639891Y-64097627D01*
X51628317Y-64104564D01*
X51616119Y-64110333D01*
X51603414Y-64114879D01*
X51590325Y-64118158D01*
X51576977Y-64120138D01*
X51563500Y-64120800D01*
X51288500Y-64120800D01*
X51275023Y-64120138D01*
X51261675Y-64118158D01*
X51248586Y-64114879D01*
X51235881Y-64110333D01*
X51223683Y-64104564D01*
X51212109Y-64097627D01*
X51201271Y-64089589D01*
X51191273Y-64080527D01*
X51182211Y-64070529D01*
X51174173Y-64059691D01*
X51167236Y-64048117D01*
X51161467Y-64035919D01*
X51156921Y-64023214D01*
X51153642Y-64010125D01*
X51151662Y-63996777D01*
X51151000Y-63983300D01*
X51151000Y-62733300D01*
X51151662Y-62719823D01*
X51153642Y-62706475D01*
X51156921Y-62693386D01*
X51161467Y-62680681D01*
X51167236Y-62668483D01*
X51174173Y-62656909D01*
X51182211Y-62646071D01*
X51191273Y-62636073D01*
X51201271Y-62627011D01*
X51212109Y-62618973D01*
X51223683Y-62612036D01*
X51235881Y-62606267D01*
X51248586Y-62601721D01*
X51261675Y-62598442D01*
X51275023Y-62596462D01*
X51288500Y-62595800D01*
X51563500Y-62595800D01*
X51576977Y-62596462D01*
X51576977Y-62596462D01*
G37*
D13*
X51426000Y-63358300D03*
D10*
G36*
X52376977Y-62596462D02*
X52390325Y-62598442D01*
X52403414Y-62601721D01*
X52416119Y-62606267D01*
X52428317Y-62612036D01*
X52439891Y-62618973D01*
X52450729Y-62627011D01*
X52460727Y-62636073D01*
X52469789Y-62646071D01*
X52477827Y-62656909D01*
X52484764Y-62668483D01*
X52490533Y-62680681D01*
X52495079Y-62693386D01*
X52498358Y-62706475D01*
X52500338Y-62719823D01*
X52501000Y-62733300D01*
X52501000Y-63983300D01*
X52500338Y-63996777D01*
X52498358Y-64010125D01*
X52495079Y-64023214D01*
X52490533Y-64035919D01*
X52484764Y-64048117D01*
X52477827Y-64059691D01*
X52469789Y-64070529D01*
X52460727Y-64080527D01*
X52450729Y-64089589D01*
X52439891Y-64097627D01*
X52428317Y-64104564D01*
X52416119Y-64110333D01*
X52403414Y-64114879D01*
X52390325Y-64118158D01*
X52376977Y-64120138D01*
X52363500Y-64120800D01*
X52088500Y-64120800D01*
X52075023Y-64120138D01*
X52061675Y-64118158D01*
X52048586Y-64114879D01*
X52035881Y-64110333D01*
X52023683Y-64104564D01*
X52012109Y-64097627D01*
X52001271Y-64089589D01*
X51991273Y-64080527D01*
X51982211Y-64070529D01*
X51974173Y-64059691D01*
X51967236Y-64048117D01*
X51961467Y-64035919D01*
X51956921Y-64023214D01*
X51953642Y-64010125D01*
X51951662Y-63996777D01*
X51951000Y-63983300D01*
X51951000Y-62733300D01*
X51951662Y-62719823D01*
X51953642Y-62706475D01*
X51956921Y-62693386D01*
X51961467Y-62680681D01*
X51967236Y-62668483D01*
X51974173Y-62656909D01*
X51982211Y-62646071D01*
X51991273Y-62636073D01*
X52001271Y-62627011D01*
X52012109Y-62618973D01*
X52023683Y-62612036D01*
X52035881Y-62606267D01*
X52048586Y-62601721D01*
X52061675Y-62598442D01*
X52075023Y-62596462D01*
X52088500Y-62595800D01*
X52363500Y-62595800D01*
X52376977Y-62596462D01*
X52376977Y-62596462D01*
G37*
D13*
X52226000Y-63358300D03*
D10*
G36*
X53176977Y-62596462D02*
X53190325Y-62598442D01*
X53203414Y-62601721D01*
X53216119Y-62606267D01*
X53228317Y-62612036D01*
X53239891Y-62618973D01*
X53250729Y-62627011D01*
X53260727Y-62636073D01*
X53269789Y-62646071D01*
X53277827Y-62656909D01*
X53284764Y-62668483D01*
X53290533Y-62680681D01*
X53295079Y-62693386D01*
X53298358Y-62706475D01*
X53300338Y-62719823D01*
X53301000Y-62733300D01*
X53301000Y-63983300D01*
X53300338Y-63996777D01*
X53298358Y-64010125D01*
X53295079Y-64023214D01*
X53290533Y-64035919D01*
X53284764Y-64048117D01*
X53277827Y-64059691D01*
X53269789Y-64070529D01*
X53260727Y-64080527D01*
X53250729Y-64089589D01*
X53239891Y-64097627D01*
X53228317Y-64104564D01*
X53216119Y-64110333D01*
X53203414Y-64114879D01*
X53190325Y-64118158D01*
X53176977Y-64120138D01*
X53163500Y-64120800D01*
X52888500Y-64120800D01*
X52875023Y-64120138D01*
X52861675Y-64118158D01*
X52848586Y-64114879D01*
X52835881Y-64110333D01*
X52823683Y-64104564D01*
X52812109Y-64097627D01*
X52801271Y-64089589D01*
X52791273Y-64080527D01*
X52782211Y-64070529D01*
X52774173Y-64059691D01*
X52767236Y-64048117D01*
X52761467Y-64035919D01*
X52756921Y-64023214D01*
X52753642Y-64010125D01*
X52751662Y-63996777D01*
X52751000Y-63983300D01*
X52751000Y-62733300D01*
X52751662Y-62719823D01*
X52753642Y-62706475D01*
X52756921Y-62693386D01*
X52761467Y-62680681D01*
X52767236Y-62668483D01*
X52774173Y-62656909D01*
X52782211Y-62646071D01*
X52791273Y-62636073D01*
X52801271Y-62627011D01*
X52812109Y-62618973D01*
X52823683Y-62612036D01*
X52835881Y-62606267D01*
X52848586Y-62601721D01*
X52861675Y-62598442D01*
X52875023Y-62596462D01*
X52888500Y-62595800D01*
X53163500Y-62595800D01*
X53176977Y-62596462D01*
X53176977Y-62596462D01*
G37*
D13*
X53026000Y-63358300D03*
D10*
G36*
X53976977Y-62596462D02*
X53990325Y-62598442D01*
X54003414Y-62601721D01*
X54016119Y-62606267D01*
X54028317Y-62612036D01*
X54039891Y-62618973D01*
X54050729Y-62627011D01*
X54060727Y-62636073D01*
X54069789Y-62646071D01*
X54077827Y-62656909D01*
X54084764Y-62668483D01*
X54090533Y-62680681D01*
X54095079Y-62693386D01*
X54098358Y-62706475D01*
X54100338Y-62719823D01*
X54101000Y-62733300D01*
X54101000Y-63983300D01*
X54100338Y-63996777D01*
X54098358Y-64010125D01*
X54095079Y-64023214D01*
X54090533Y-64035919D01*
X54084764Y-64048117D01*
X54077827Y-64059691D01*
X54069789Y-64070529D01*
X54060727Y-64080527D01*
X54050729Y-64089589D01*
X54039891Y-64097627D01*
X54028317Y-64104564D01*
X54016119Y-64110333D01*
X54003414Y-64114879D01*
X53990325Y-64118158D01*
X53976977Y-64120138D01*
X53963500Y-64120800D01*
X53688500Y-64120800D01*
X53675023Y-64120138D01*
X53661675Y-64118158D01*
X53648586Y-64114879D01*
X53635881Y-64110333D01*
X53623683Y-64104564D01*
X53612109Y-64097627D01*
X53601271Y-64089589D01*
X53591273Y-64080527D01*
X53582211Y-64070529D01*
X53574173Y-64059691D01*
X53567236Y-64048117D01*
X53561467Y-64035919D01*
X53556921Y-64023214D01*
X53553642Y-64010125D01*
X53551662Y-63996777D01*
X53551000Y-63983300D01*
X53551000Y-62733300D01*
X53551662Y-62719823D01*
X53553642Y-62706475D01*
X53556921Y-62693386D01*
X53561467Y-62680681D01*
X53567236Y-62668483D01*
X53574173Y-62656909D01*
X53582211Y-62646071D01*
X53591273Y-62636073D01*
X53601271Y-62627011D01*
X53612109Y-62618973D01*
X53623683Y-62612036D01*
X53635881Y-62606267D01*
X53648586Y-62601721D01*
X53661675Y-62598442D01*
X53675023Y-62596462D01*
X53688500Y-62595800D01*
X53963500Y-62595800D01*
X53976977Y-62596462D01*
X53976977Y-62596462D01*
G37*
D13*
X53826000Y-63358300D03*
D10*
G36*
X54776977Y-62596462D02*
X54790325Y-62598442D01*
X54803414Y-62601721D01*
X54816119Y-62606267D01*
X54828317Y-62612036D01*
X54839891Y-62618973D01*
X54850729Y-62627011D01*
X54860727Y-62636073D01*
X54869789Y-62646071D01*
X54877827Y-62656909D01*
X54884764Y-62668483D01*
X54890533Y-62680681D01*
X54895079Y-62693386D01*
X54898358Y-62706475D01*
X54900338Y-62719823D01*
X54901000Y-62733300D01*
X54901000Y-63983300D01*
X54900338Y-63996777D01*
X54898358Y-64010125D01*
X54895079Y-64023214D01*
X54890533Y-64035919D01*
X54884764Y-64048117D01*
X54877827Y-64059691D01*
X54869789Y-64070529D01*
X54860727Y-64080527D01*
X54850729Y-64089589D01*
X54839891Y-64097627D01*
X54828317Y-64104564D01*
X54816119Y-64110333D01*
X54803414Y-64114879D01*
X54790325Y-64118158D01*
X54776977Y-64120138D01*
X54763500Y-64120800D01*
X54488500Y-64120800D01*
X54475023Y-64120138D01*
X54461675Y-64118158D01*
X54448586Y-64114879D01*
X54435881Y-64110333D01*
X54423683Y-64104564D01*
X54412109Y-64097627D01*
X54401271Y-64089589D01*
X54391273Y-64080527D01*
X54382211Y-64070529D01*
X54374173Y-64059691D01*
X54367236Y-64048117D01*
X54361467Y-64035919D01*
X54356921Y-64023214D01*
X54353642Y-64010125D01*
X54351662Y-63996777D01*
X54351000Y-63983300D01*
X54351000Y-62733300D01*
X54351662Y-62719823D01*
X54353642Y-62706475D01*
X54356921Y-62693386D01*
X54361467Y-62680681D01*
X54367236Y-62668483D01*
X54374173Y-62656909D01*
X54382211Y-62646071D01*
X54391273Y-62636073D01*
X54401271Y-62627011D01*
X54412109Y-62618973D01*
X54423683Y-62612036D01*
X54435881Y-62606267D01*
X54448586Y-62601721D01*
X54461675Y-62598442D01*
X54475023Y-62596462D01*
X54488500Y-62595800D01*
X54763500Y-62595800D01*
X54776977Y-62596462D01*
X54776977Y-62596462D01*
G37*
D13*
X54626000Y-63358300D03*
D10*
G36*
X55576977Y-62596462D02*
X55590325Y-62598442D01*
X55603414Y-62601721D01*
X55616119Y-62606267D01*
X55628317Y-62612036D01*
X55639891Y-62618973D01*
X55650729Y-62627011D01*
X55660727Y-62636073D01*
X55669789Y-62646071D01*
X55677827Y-62656909D01*
X55684764Y-62668483D01*
X55690533Y-62680681D01*
X55695079Y-62693386D01*
X55698358Y-62706475D01*
X55700338Y-62719823D01*
X55701000Y-62733300D01*
X55701000Y-63983300D01*
X55700338Y-63996777D01*
X55698358Y-64010125D01*
X55695079Y-64023214D01*
X55690533Y-64035919D01*
X55684764Y-64048117D01*
X55677827Y-64059691D01*
X55669789Y-64070529D01*
X55660727Y-64080527D01*
X55650729Y-64089589D01*
X55639891Y-64097627D01*
X55628317Y-64104564D01*
X55616119Y-64110333D01*
X55603414Y-64114879D01*
X55590325Y-64118158D01*
X55576977Y-64120138D01*
X55563500Y-64120800D01*
X55288500Y-64120800D01*
X55275023Y-64120138D01*
X55261675Y-64118158D01*
X55248586Y-64114879D01*
X55235881Y-64110333D01*
X55223683Y-64104564D01*
X55212109Y-64097627D01*
X55201271Y-64089589D01*
X55191273Y-64080527D01*
X55182211Y-64070529D01*
X55174173Y-64059691D01*
X55167236Y-64048117D01*
X55161467Y-64035919D01*
X55156921Y-64023214D01*
X55153642Y-64010125D01*
X55151662Y-63996777D01*
X55151000Y-63983300D01*
X55151000Y-62733300D01*
X55151662Y-62719823D01*
X55153642Y-62706475D01*
X55156921Y-62693386D01*
X55161467Y-62680681D01*
X55167236Y-62668483D01*
X55174173Y-62656909D01*
X55182211Y-62646071D01*
X55191273Y-62636073D01*
X55201271Y-62627011D01*
X55212109Y-62618973D01*
X55223683Y-62612036D01*
X55235881Y-62606267D01*
X55248586Y-62601721D01*
X55261675Y-62598442D01*
X55275023Y-62596462D01*
X55288500Y-62595800D01*
X55563500Y-62595800D01*
X55576977Y-62596462D01*
X55576977Y-62596462D01*
G37*
D13*
X55426000Y-63358300D03*
D10*
G36*
X56376977Y-62596462D02*
X56390325Y-62598442D01*
X56403414Y-62601721D01*
X56416119Y-62606267D01*
X56428317Y-62612036D01*
X56439891Y-62618973D01*
X56450729Y-62627011D01*
X56460727Y-62636073D01*
X56469789Y-62646071D01*
X56477827Y-62656909D01*
X56484764Y-62668483D01*
X56490533Y-62680681D01*
X56495079Y-62693386D01*
X56498358Y-62706475D01*
X56500338Y-62719823D01*
X56501000Y-62733300D01*
X56501000Y-63983300D01*
X56500338Y-63996777D01*
X56498358Y-64010125D01*
X56495079Y-64023214D01*
X56490533Y-64035919D01*
X56484764Y-64048117D01*
X56477827Y-64059691D01*
X56469789Y-64070529D01*
X56460727Y-64080527D01*
X56450729Y-64089589D01*
X56439891Y-64097627D01*
X56428317Y-64104564D01*
X56416119Y-64110333D01*
X56403414Y-64114879D01*
X56390325Y-64118158D01*
X56376977Y-64120138D01*
X56363500Y-64120800D01*
X56088500Y-64120800D01*
X56075023Y-64120138D01*
X56061675Y-64118158D01*
X56048586Y-64114879D01*
X56035881Y-64110333D01*
X56023683Y-64104564D01*
X56012109Y-64097627D01*
X56001271Y-64089589D01*
X55991273Y-64080527D01*
X55982211Y-64070529D01*
X55974173Y-64059691D01*
X55967236Y-64048117D01*
X55961467Y-64035919D01*
X55956921Y-64023214D01*
X55953642Y-64010125D01*
X55951662Y-63996777D01*
X55951000Y-63983300D01*
X55951000Y-62733300D01*
X55951662Y-62719823D01*
X55953642Y-62706475D01*
X55956921Y-62693386D01*
X55961467Y-62680681D01*
X55967236Y-62668483D01*
X55974173Y-62656909D01*
X55982211Y-62646071D01*
X55991273Y-62636073D01*
X56001271Y-62627011D01*
X56012109Y-62618973D01*
X56023683Y-62612036D01*
X56035881Y-62606267D01*
X56048586Y-62601721D01*
X56061675Y-62598442D01*
X56075023Y-62596462D01*
X56088500Y-62595800D01*
X56363500Y-62595800D01*
X56376977Y-62596462D01*
X56376977Y-62596462D01*
G37*
D13*
X56226000Y-63358300D03*
D10*
G36*
X57176977Y-62596462D02*
X57190325Y-62598442D01*
X57203414Y-62601721D01*
X57216119Y-62606267D01*
X57228317Y-62612036D01*
X57239891Y-62618973D01*
X57250729Y-62627011D01*
X57260727Y-62636073D01*
X57269789Y-62646071D01*
X57277827Y-62656909D01*
X57284764Y-62668483D01*
X57290533Y-62680681D01*
X57295079Y-62693386D01*
X57298358Y-62706475D01*
X57300338Y-62719823D01*
X57301000Y-62733300D01*
X57301000Y-63983300D01*
X57300338Y-63996777D01*
X57298358Y-64010125D01*
X57295079Y-64023214D01*
X57290533Y-64035919D01*
X57284764Y-64048117D01*
X57277827Y-64059691D01*
X57269789Y-64070529D01*
X57260727Y-64080527D01*
X57250729Y-64089589D01*
X57239891Y-64097627D01*
X57228317Y-64104564D01*
X57216119Y-64110333D01*
X57203414Y-64114879D01*
X57190325Y-64118158D01*
X57176977Y-64120138D01*
X57163500Y-64120800D01*
X56888500Y-64120800D01*
X56875023Y-64120138D01*
X56861675Y-64118158D01*
X56848586Y-64114879D01*
X56835881Y-64110333D01*
X56823683Y-64104564D01*
X56812109Y-64097627D01*
X56801271Y-64089589D01*
X56791273Y-64080527D01*
X56782211Y-64070529D01*
X56774173Y-64059691D01*
X56767236Y-64048117D01*
X56761467Y-64035919D01*
X56756921Y-64023214D01*
X56753642Y-64010125D01*
X56751662Y-63996777D01*
X56751000Y-63983300D01*
X56751000Y-62733300D01*
X56751662Y-62719823D01*
X56753642Y-62706475D01*
X56756921Y-62693386D01*
X56761467Y-62680681D01*
X56767236Y-62668483D01*
X56774173Y-62656909D01*
X56782211Y-62646071D01*
X56791273Y-62636073D01*
X56801271Y-62627011D01*
X56812109Y-62618973D01*
X56823683Y-62612036D01*
X56835881Y-62606267D01*
X56848586Y-62601721D01*
X56861675Y-62598442D01*
X56875023Y-62596462D01*
X56888500Y-62595800D01*
X57163500Y-62595800D01*
X57176977Y-62596462D01*
X57176977Y-62596462D01*
G37*
D13*
X57026000Y-63358300D03*
D10*
G36*
X57976977Y-62596462D02*
X57990325Y-62598442D01*
X58003414Y-62601721D01*
X58016119Y-62606267D01*
X58028317Y-62612036D01*
X58039891Y-62618973D01*
X58050729Y-62627011D01*
X58060727Y-62636073D01*
X58069789Y-62646071D01*
X58077827Y-62656909D01*
X58084764Y-62668483D01*
X58090533Y-62680681D01*
X58095079Y-62693386D01*
X58098358Y-62706475D01*
X58100338Y-62719823D01*
X58101000Y-62733300D01*
X58101000Y-63983300D01*
X58100338Y-63996777D01*
X58098358Y-64010125D01*
X58095079Y-64023214D01*
X58090533Y-64035919D01*
X58084764Y-64048117D01*
X58077827Y-64059691D01*
X58069789Y-64070529D01*
X58060727Y-64080527D01*
X58050729Y-64089589D01*
X58039891Y-64097627D01*
X58028317Y-64104564D01*
X58016119Y-64110333D01*
X58003414Y-64114879D01*
X57990325Y-64118158D01*
X57976977Y-64120138D01*
X57963500Y-64120800D01*
X57688500Y-64120800D01*
X57675023Y-64120138D01*
X57661675Y-64118158D01*
X57648586Y-64114879D01*
X57635881Y-64110333D01*
X57623683Y-64104564D01*
X57612109Y-64097627D01*
X57601271Y-64089589D01*
X57591273Y-64080527D01*
X57582211Y-64070529D01*
X57574173Y-64059691D01*
X57567236Y-64048117D01*
X57561467Y-64035919D01*
X57556921Y-64023214D01*
X57553642Y-64010125D01*
X57551662Y-63996777D01*
X57551000Y-63983300D01*
X57551000Y-62733300D01*
X57551662Y-62719823D01*
X57553642Y-62706475D01*
X57556921Y-62693386D01*
X57561467Y-62680681D01*
X57567236Y-62668483D01*
X57574173Y-62656909D01*
X57582211Y-62646071D01*
X57591273Y-62636073D01*
X57601271Y-62627011D01*
X57612109Y-62618973D01*
X57623683Y-62612036D01*
X57635881Y-62606267D01*
X57648586Y-62601721D01*
X57661675Y-62598442D01*
X57675023Y-62596462D01*
X57688500Y-62595800D01*
X57963500Y-62595800D01*
X57976977Y-62596462D01*
X57976977Y-62596462D01*
G37*
D13*
X57826000Y-63358300D03*
D10*
G36*
X58776977Y-62596462D02*
X58790325Y-62598442D01*
X58803414Y-62601721D01*
X58816119Y-62606267D01*
X58828317Y-62612036D01*
X58839891Y-62618973D01*
X58850729Y-62627011D01*
X58860727Y-62636073D01*
X58869789Y-62646071D01*
X58877827Y-62656909D01*
X58884764Y-62668483D01*
X58890533Y-62680681D01*
X58895079Y-62693386D01*
X58898358Y-62706475D01*
X58900338Y-62719823D01*
X58901000Y-62733300D01*
X58901000Y-63983300D01*
X58900338Y-63996777D01*
X58898358Y-64010125D01*
X58895079Y-64023214D01*
X58890533Y-64035919D01*
X58884764Y-64048117D01*
X58877827Y-64059691D01*
X58869789Y-64070529D01*
X58860727Y-64080527D01*
X58850729Y-64089589D01*
X58839891Y-64097627D01*
X58828317Y-64104564D01*
X58816119Y-64110333D01*
X58803414Y-64114879D01*
X58790325Y-64118158D01*
X58776977Y-64120138D01*
X58763500Y-64120800D01*
X58488500Y-64120800D01*
X58475023Y-64120138D01*
X58461675Y-64118158D01*
X58448586Y-64114879D01*
X58435881Y-64110333D01*
X58423683Y-64104564D01*
X58412109Y-64097627D01*
X58401271Y-64089589D01*
X58391273Y-64080527D01*
X58382211Y-64070529D01*
X58374173Y-64059691D01*
X58367236Y-64048117D01*
X58361467Y-64035919D01*
X58356921Y-64023214D01*
X58353642Y-64010125D01*
X58351662Y-63996777D01*
X58351000Y-63983300D01*
X58351000Y-62733300D01*
X58351662Y-62719823D01*
X58353642Y-62706475D01*
X58356921Y-62693386D01*
X58361467Y-62680681D01*
X58367236Y-62668483D01*
X58374173Y-62656909D01*
X58382211Y-62646071D01*
X58391273Y-62636073D01*
X58401271Y-62627011D01*
X58412109Y-62618973D01*
X58423683Y-62612036D01*
X58435881Y-62606267D01*
X58448586Y-62601721D01*
X58461675Y-62598442D01*
X58475023Y-62596462D01*
X58488500Y-62595800D01*
X58763500Y-62595800D01*
X58776977Y-62596462D01*
X58776977Y-62596462D01*
G37*
D13*
X58626000Y-63358300D03*
D10*
G36*
X58776977Y-73771462D02*
X58790325Y-73773442D01*
X58803414Y-73776721D01*
X58816119Y-73781267D01*
X58828317Y-73787036D01*
X58839891Y-73793973D01*
X58850729Y-73802011D01*
X58860727Y-73811073D01*
X58869789Y-73821071D01*
X58877827Y-73831909D01*
X58884764Y-73843483D01*
X58890533Y-73855681D01*
X58895079Y-73868386D01*
X58898358Y-73881475D01*
X58900338Y-73894823D01*
X58901000Y-73908300D01*
X58901000Y-75158300D01*
X58900338Y-75171777D01*
X58898358Y-75185125D01*
X58895079Y-75198214D01*
X58890533Y-75210919D01*
X58884764Y-75223117D01*
X58877827Y-75234691D01*
X58869789Y-75245529D01*
X58860727Y-75255527D01*
X58850729Y-75264589D01*
X58839891Y-75272627D01*
X58828317Y-75279564D01*
X58816119Y-75285333D01*
X58803414Y-75289879D01*
X58790325Y-75293158D01*
X58776977Y-75295138D01*
X58763500Y-75295800D01*
X58488500Y-75295800D01*
X58475023Y-75295138D01*
X58461675Y-75293158D01*
X58448586Y-75289879D01*
X58435881Y-75285333D01*
X58423683Y-75279564D01*
X58412109Y-75272627D01*
X58401271Y-75264589D01*
X58391273Y-75255527D01*
X58382211Y-75245529D01*
X58374173Y-75234691D01*
X58367236Y-75223117D01*
X58361467Y-75210919D01*
X58356921Y-75198214D01*
X58353642Y-75185125D01*
X58351662Y-75171777D01*
X58351000Y-75158300D01*
X58351000Y-73908300D01*
X58351662Y-73894823D01*
X58353642Y-73881475D01*
X58356921Y-73868386D01*
X58361467Y-73855681D01*
X58367236Y-73843483D01*
X58374173Y-73831909D01*
X58382211Y-73821071D01*
X58391273Y-73811073D01*
X58401271Y-73802011D01*
X58412109Y-73793973D01*
X58423683Y-73787036D01*
X58435881Y-73781267D01*
X58448586Y-73776721D01*
X58461675Y-73773442D01*
X58475023Y-73771462D01*
X58488500Y-73770800D01*
X58763500Y-73770800D01*
X58776977Y-73771462D01*
X58776977Y-73771462D01*
G37*
D13*
X58626000Y-74533300D03*
D10*
G36*
X57976977Y-73771462D02*
X57990325Y-73773442D01*
X58003414Y-73776721D01*
X58016119Y-73781267D01*
X58028317Y-73787036D01*
X58039891Y-73793973D01*
X58050729Y-73802011D01*
X58060727Y-73811073D01*
X58069789Y-73821071D01*
X58077827Y-73831909D01*
X58084764Y-73843483D01*
X58090533Y-73855681D01*
X58095079Y-73868386D01*
X58098358Y-73881475D01*
X58100338Y-73894823D01*
X58101000Y-73908300D01*
X58101000Y-75158300D01*
X58100338Y-75171777D01*
X58098358Y-75185125D01*
X58095079Y-75198214D01*
X58090533Y-75210919D01*
X58084764Y-75223117D01*
X58077827Y-75234691D01*
X58069789Y-75245529D01*
X58060727Y-75255527D01*
X58050729Y-75264589D01*
X58039891Y-75272627D01*
X58028317Y-75279564D01*
X58016119Y-75285333D01*
X58003414Y-75289879D01*
X57990325Y-75293158D01*
X57976977Y-75295138D01*
X57963500Y-75295800D01*
X57688500Y-75295800D01*
X57675023Y-75295138D01*
X57661675Y-75293158D01*
X57648586Y-75289879D01*
X57635881Y-75285333D01*
X57623683Y-75279564D01*
X57612109Y-75272627D01*
X57601271Y-75264589D01*
X57591273Y-75255527D01*
X57582211Y-75245529D01*
X57574173Y-75234691D01*
X57567236Y-75223117D01*
X57561467Y-75210919D01*
X57556921Y-75198214D01*
X57553642Y-75185125D01*
X57551662Y-75171777D01*
X57551000Y-75158300D01*
X57551000Y-73908300D01*
X57551662Y-73894823D01*
X57553642Y-73881475D01*
X57556921Y-73868386D01*
X57561467Y-73855681D01*
X57567236Y-73843483D01*
X57574173Y-73831909D01*
X57582211Y-73821071D01*
X57591273Y-73811073D01*
X57601271Y-73802011D01*
X57612109Y-73793973D01*
X57623683Y-73787036D01*
X57635881Y-73781267D01*
X57648586Y-73776721D01*
X57661675Y-73773442D01*
X57675023Y-73771462D01*
X57688500Y-73770800D01*
X57963500Y-73770800D01*
X57976977Y-73771462D01*
X57976977Y-73771462D01*
G37*
D13*
X57826000Y-74533300D03*
D10*
G36*
X57176977Y-73771462D02*
X57190325Y-73773442D01*
X57203414Y-73776721D01*
X57216119Y-73781267D01*
X57228317Y-73787036D01*
X57239891Y-73793973D01*
X57250729Y-73802011D01*
X57260727Y-73811073D01*
X57269789Y-73821071D01*
X57277827Y-73831909D01*
X57284764Y-73843483D01*
X57290533Y-73855681D01*
X57295079Y-73868386D01*
X57298358Y-73881475D01*
X57300338Y-73894823D01*
X57301000Y-73908300D01*
X57301000Y-75158300D01*
X57300338Y-75171777D01*
X57298358Y-75185125D01*
X57295079Y-75198214D01*
X57290533Y-75210919D01*
X57284764Y-75223117D01*
X57277827Y-75234691D01*
X57269789Y-75245529D01*
X57260727Y-75255527D01*
X57250729Y-75264589D01*
X57239891Y-75272627D01*
X57228317Y-75279564D01*
X57216119Y-75285333D01*
X57203414Y-75289879D01*
X57190325Y-75293158D01*
X57176977Y-75295138D01*
X57163500Y-75295800D01*
X56888500Y-75295800D01*
X56875023Y-75295138D01*
X56861675Y-75293158D01*
X56848586Y-75289879D01*
X56835881Y-75285333D01*
X56823683Y-75279564D01*
X56812109Y-75272627D01*
X56801271Y-75264589D01*
X56791273Y-75255527D01*
X56782211Y-75245529D01*
X56774173Y-75234691D01*
X56767236Y-75223117D01*
X56761467Y-75210919D01*
X56756921Y-75198214D01*
X56753642Y-75185125D01*
X56751662Y-75171777D01*
X56751000Y-75158300D01*
X56751000Y-73908300D01*
X56751662Y-73894823D01*
X56753642Y-73881475D01*
X56756921Y-73868386D01*
X56761467Y-73855681D01*
X56767236Y-73843483D01*
X56774173Y-73831909D01*
X56782211Y-73821071D01*
X56791273Y-73811073D01*
X56801271Y-73802011D01*
X56812109Y-73793973D01*
X56823683Y-73787036D01*
X56835881Y-73781267D01*
X56848586Y-73776721D01*
X56861675Y-73773442D01*
X56875023Y-73771462D01*
X56888500Y-73770800D01*
X57163500Y-73770800D01*
X57176977Y-73771462D01*
X57176977Y-73771462D01*
G37*
D13*
X57026000Y-74533300D03*
D10*
G36*
X56376977Y-73771462D02*
X56390325Y-73773442D01*
X56403414Y-73776721D01*
X56416119Y-73781267D01*
X56428317Y-73787036D01*
X56439891Y-73793973D01*
X56450729Y-73802011D01*
X56460727Y-73811073D01*
X56469789Y-73821071D01*
X56477827Y-73831909D01*
X56484764Y-73843483D01*
X56490533Y-73855681D01*
X56495079Y-73868386D01*
X56498358Y-73881475D01*
X56500338Y-73894823D01*
X56501000Y-73908300D01*
X56501000Y-75158300D01*
X56500338Y-75171777D01*
X56498358Y-75185125D01*
X56495079Y-75198214D01*
X56490533Y-75210919D01*
X56484764Y-75223117D01*
X56477827Y-75234691D01*
X56469789Y-75245529D01*
X56460727Y-75255527D01*
X56450729Y-75264589D01*
X56439891Y-75272627D01*
X56428317Y-75279564D01*
X56416119Y-75285333D01*
X56403414Y-75289879D01*
X56390325Y-75293158D01*
X56376977Y-75295138D01*
X56363500Y-75295800D01*
X56088500Y-75295800D01*
X56075023Y-75295138D01*
X56061675Y-75293158D01*
X56048586Y-75289879D01*
X56035881Y-75285333D01*
X56023683Y-75279564D01*
X56012109Y-75272627D01*
X56001271Y-75264589D01*
X55991273Y-75255527D01*
X55982211Y-75245529D01*
X55974173Y-75234691D01*
X55967236Y-75223117D01*
X55961467Y-75210919D01*
X55956921Y-75198214D01*
X55953642Y-75185125D01*
X55951662Y-75171777D01*
X55951000Y-75158300D01*
X55951000Y-73908300D01*
X55951662Y-73894823D01*
X55953642Y-73881475D01*
X55956921Y-73868386D01*
X55961467Y-73855681D01*
X55967236Y-73843483D01*
X55974173Y-73831909D01*
X55982211Y-73821071D01*
X55991273Y-73811073D01*
X56001271Y-73802011D01*
X56012109Y-73793973D01*
X56023683Y-73787036D01*
X56035881Y-73781267D01*
X56048586Y-73776721D01*
X56061675Y-73773442D01*
X56075023Y-73771462D01*
X56088500Y-73770800D01*
X56363500Y-73770800D01*
X56376977Y-73771462D01*
X56376977Y-73771462D01*
G37*
D13*
X56226000Y-74533300D03*
D10*
G36*
X55576977Y-73771462D02*
X55590325Y-73773442D01*
X55603414Y-73776721D01*
X55616119Y-73781267D01*
X55628317Y-73787036D01*
X55639891Y-73793973D01*
X55650729Y-73802011D01*
X55660727Y-73811073D01*
X55669789Y-73821071D01*
X55677827Y-73831909D01*
X55684764Y-73843483D01*
X55690533Y-73855681D01*
X55695079Y-73868386D01*
X55698358Y-73881475D01*
X55700338Y-73894823D01*
X55701000Y-73908300D01*
X55701000Y-75158300D01*
X55700338Y-75171777D01*
X55698358Y-75185125D01*
X55695079Y-75198214D01*
X55690533Y-75210919D01*
X55684764Y-75223117D01*
X55677827Y-75234691D01*
X55669789Y-75245529D01*
X55660727Y-75255527D01*
X55650729Y-75264589D01*
X55639891Y-75272627D01*
X55628317Y-75279564D01*
X55616119Y-75285333D01*
X55603414Y-75289879D01*
X55590325Y-75293158D01*
X55576977Y-75295138D01*
X55563500Y-75295800D01*
X55288500Y-75295800D01*
X55275023Y-75295138D01*
X55261675Y-75293158D01*
X55248586Y-75289879D01*
X55235881Y-75285333D01*
X55223683Y-75279564D01*
X55212109Y-75272627D01*
X55201271Y-75264589D01*
X55191273Y-75255527D01*
X55182211Y-75245529D01*
X55174173Y-75234691D01*
X55167236Y-75223117D01*
X55161467Y-75210919D01*
X55156921Y-75198214D01*
X55153642Y-75185125D01*
X55151662Y-75171777D01*
X55151000Y-75158300D01*
X55151000Y-73908300D01*
X55151662Y-73894823D01*
X55153642Y-73881475D01*
X55156921Y-73868386D01*
X55161467Y-73855681D01*
X55167236Y-73843483D01*
X55174173Y-73831909D01*
X55182211Y-73821071D01*
X55191273Y-73811073D01*
X55201271Y-73802011D01*
X55212109Y-73793973D01*
X55223683Y-73787036D01*
X55235881Y-73781267D01*
X55248586Y-73776721D01*
X55261675Y-73773442D01*
X55275023Y-73771462D01*
X55288500Y-73770800D01*
X55563500Y-73770800D01*
X55576977Y-73771462D01*
X55576977Y-73771462D01*
G37*
D13*
X55426000Y-74533300D03*
D10*
G36*
X54776977Y-73771462D02*
X54790325Y-73773442D01*
X54803414Y-73776721D01*
X54816119Y-73781267D01*
X54828317Y-73787036D01*
X54839891Y-73793973D01*
X54850729Y-73802011D01*
X54860727Y-73811073D01*
X54869789Y-73821071D01*
X54877827Y-73831909D01*
X54884764Y-73843483D01*
X54890533Y-73855681D01*
X54895079Y-73868386D01*
X54898358Y-73881475D01*
X54900338Y-73894823D01*
X54901000Y-73908300D01*
X54901000Y-75158300D01*
X54900338Y-75171777D01*
X54898358Y-75185125D01*
X54895079Y-75198214D01*
X54890533Y-75210919D01*
X54884764Y-75223117D01*
X54877827Y-75234691D01*
X54869789Y-75245529D01*
X54860727Y-75255527D01*
X54850729Y-75264589D01*
X54839891Y-75272627D01*
X54828317Y-75279564D01*
X54816119Y-75285333D01*
X54803414Y-75289879D01*
X54790325Y-75293158D01*
X54776977Y-75295138D01*
X54763500Y-75295800D01*
X54488500Y-75295800D01*
X54475023Y-75295138D01*
X54461675Y-75293158D01*
X54448586Y-75289879D01*
X54435881Y-75285333D01*
X54423683Y-75279564D01*
X54412109Y-75272627D01*
X54401271Y-75264589D01*
X54391273Y-75255527D01*
X54382211Y-75245529D01*
X54374173Y-75234691D01*
X54367236Y-75223117D01*
X54361467Y-75210919D01*
X54356921Y-75198214D01*
X54353642Y-75185125D01*
X54351662Y-75171777D01*
X54351000Y-75158300D01*
X54351000Y-73908300D01*
X54351662Y-73894823D01*
X54353642Y-73881475D01*
X54356921Y-73868386D01*
X54361467Y-73855681D01*
X54367236Y-73843483D01*
X54374173Y-73831909D01*
X54382211Y-73821071D01*
X54391273Y-73811073D01*
X54401271Y-73802011D01*
X54412109Y-73793973D01*
X54423683Y-73787036D01*
X54435881Y-73781267D01*
X54448586Y-73776721D01*
X54461675Y-73773442D01*
X54475023Y-73771462D01*
X54488500Y-73770800D01*
X54763500Y-73770800D01*
X54776977Y-73771462D01*
X54776977Y-73771462D01*
G37*
D13*
X54626000Y-74533300D03*
D10*
G36*
X53976977Y-73771462D02*
X53990325Y-73773442D01*
X54003414Y-73776721D01*
X54016119Y-73781267D01*
X54028317Y-73787036D01*
X54039891Y-73793973D01*
X54050729Y-73802011D01*
X54060727Y-73811073D01*
X54069789Y-73821071D01*
X54077827Y-73831909D01*
X54084764Y-73843483D01*
X54090533Y-73855681D01*
X54095079Y-73868386D01*
X54098358Y-73881475D01*
X54100338Y-73894823D01*
X54101000Y-73908300D01*
X54101000Y-75158300D01*
X54100338Y-75171777D01*
X54098358Y-75185125D01*
X54095079Y-75198214D01*
X54090533Y-75210919D01*
X54084764Y-75223117D01*
X54077827Y-75234691D01*
X54069789Y-75245529D01*
X54060727Y-75255527D01*
X54050729Y-75264589D01*
X54039891Y-75272627D01*
X54028317Y-75279564D01*
X54016119Y-75285333D01*
X54003414Y-75289879D01*
X53990325Y-75293158D01*
X53976977Y-75295138D01*
X53963500Y-75295800D01*
X53688500Y-75295800D01*
X53675023Y-75295138D01*
X53661675Y-75293158D01*
X53648586Y-75289879D01*
X53635881Y-75285333D01*
X53623683Y-75279564D01*
X53612109Y-75272627D01*
X53601271Y-75264589D01*
X53591273Y-75255527D01*
X53582211Y-75245529D01*
X53574173Y-75234691D01*
X53567236Y-75223117D01*
X53561467Y-75210919D01*
X53556921Y-75198214D01*
X53553642Y-75185125D01*
X53551662Y-75171777D01*
X53551000Y-75158300D01*
X53551000Y-73908300D01*
X53551662Y-73894823D01*
X53553642Y-73881475D01*
X53556921Y-73868386D01*
X53561467Y-73855681D01*
X53567236Y-73843483D01*
X53574173Y-73831909D01*
X53582211Y-73821071D01*
X53591273Y-73811073D01*
X53601271Y-73802011D01*
X53612109Y-73793973D01*
X53623683Y-73787036D01*
X53635881Y-73781267D01*
X53648586Y-73776721D01*
X53661675Y-73773442D01*
X53675023Y-73771462D01*
X53688500Y-73770800D01*
X53963500Y-73770800D01*
X53976977Y-73771462D01*
X53976977Y-73771462D01*
G37*
D13*
X53826000Y-74533300D03*
D10*
G36*
X53176977Y-73771462D02*
X53190325Y-73773442D01*
X53203414Y-73776721D01*
X53216119Y-73781267D01*
X53228317Y-73787036D01*
X53239891Y-73793973D01*
X53250729Y-73802011D01*
X53260727Y-73811073D01*
X53269789Y-73821071D01*
X53277827Y-73831909D01*
X53284764Y-73843483D01*
X53290533Y-73855681D01*
X53295079Y-73868386D01*
X53298358Y-73881475D01*
X53300338Y-73894823D01*
X53301000Y-73908300D01*
X53301000Y-75158300D01*
X53300338Y-75171777D01*
X53298358Y-75185125D01*
X53295079Y-75198214D01*
X53290533Y-75210919D01*
X53284764Y-75223117D01*
X53277827Y-75234691D01*
X53269789Y-75245529D01*
X53260727Y-75255527D01*
X53250729Y-75264589D01*
X53239891Y-75272627D01*
X53228317Y-75279564D01*
X53216119Y-75285333D01*
X53203414Y-75289879D01*
X53190325Y-75293158D01*
X53176977Y-75295138D01*
X53163500Y-75295800D01*
X52888500Y-75295800D01*
X52875023Y-75295138D01*
X52861675Y-75293158D01*
X52848586Y-75289879D01*
X52835881Y-75285333D01*
X52823683Y-75279564D01*
X52812109Y-75272627D01*
X52801271Y-75264589D01*
X52791273Y-75255527D01*
X52782211Y-75245529D01*
X52774173Y-75234691D01*
X52767236Y-75223117D01*
X52761467Y-75210919D01*
X52756921Y-75198214D01*
X52753642Y-75185125D01*
X52751662Y-75171777D01*
X52751000Y-75158300D01*
X52751000Y-73908300D01*
X52751662Y-73894823D01*
X52753642Y-73881475D01*
X52756921Y-73868386D01*
X52761467Y-73855681D01*
X52767236Y-73843483D01*
X52774173Y-73831909D01*
X52782211Y-73821071D01*
X52791273Y-73811073D01*
X52801271Y-73802011D01*
X52812109Y-73793973D01*
X52823683Y-73787036D01*
X52835881Y-73781267D01*
X52848586Y-73776721D01*
X52861675Y-73773442D01*
X52875023Y-73771462D01*
X52888500Y-73770800D01*
X53163500Y-73770800D01*
X53176977Y-73771462D01*
X53176977Y-73771462D01*
G37*
D13*
X53026000Y-74533300D03*
D10*
G36*
X52376977Y-73771462D02*
X52390325Y-73773442D01*
X52403414Y-73776721D01*
X52416119Y-73781267D01*
X52428317Y-73787036D01*
X52439891Y-73793973D01*
X52450729Y-73802011D01*
X52460727Y-73811073D01*
X52469789Y-73821071D01*
X52477827Y-73831909D01*
X52484764Y-73843483D01*
X52490533Y-73855681D01*
X52495079Y-73868386D01*
X52498358Y-73881475D01*
X52500338Y-73894823D01*
X52501000Y-73908300D01*
X52501000Y-75158300D01*
X52500338Y-75171777D01*
X52498358Y-75185125D01*
X52495079Y-75198214D01*
X52490533Y-75210919D01*
X52484764Y-75223117D01*
X52477827Y-75234691D01*
X52469789Y-75245529D01*
X52460727Y-75255527D01*
X52450729Y-75264589D01*
X52439891Y-75272627D01*
X52428317Y-75279564D01*
X52416119Y-75285333D01*
X52403414Y-75289879D01*
X52390325Y-75293158D01*
X52376977Y-75295138D01*
X52363500Y-75295800D01*
X52088500Y-75295800D01*
X52075023Y-75295138D01*
X52061675Y-75293158D01*
X52048586Y-75289879D01*
X52035881Y-75285333D01*
X52023683Y-75279564D01*
X52012109Y-75272627D01*
X52001271Y-75264589D01*
X51991273Y-75255527D01*
X51982211Y-75245529D01*
X51974173Y-75234691D01*
X51967236Y-75223117D01*
X51961467Y-75210919D01*
X51956921Y-75198214D01*
X51953642Y-75185125D01*
X51951662Y-75171777D01*
X51951000Y-75158300D01*
X51951000Y-73908300D01*
X51951662Y-73894823D01*
X51953642Y-73881475D01*
X51956921Y-73868386D01*
X51961467Y-73855681D01*
X51967236Y-73843483D01*
X51974173Y-73831909D01*
X51982211Y-73821071D01*
X51991273Y-73811073D01*
X52001271Y-73802011D01*
X52012109Y-73793973D01*
X52023683Y-73787036D01*
X52035881Y-73781267D01*
X52048586Y-73776721D01*
X52061675Y-73773442D01*
X52075023Y-73771462D01*
X52088500Y-73770800D01*
X52363500Y-73770800D01*
X52376977Y-73771462D01*
X52376977Y-73771462D01*
G37*
D13*
X52226000Y-74533300D03*
D10*
G36*
X51576977Y-73771462D02*
X51590325Y-73773442D01*
X51603414Y-73776721D01*
X51616119Y-73781267D01*
X51628317Y-73787036D01*
X51639891Y-73793973D01*
X51650729Y-73802011D01*
X51660727Y-73811073D01*
X51669789Y-73821071D01*
X51677827Y-73831909D01*
X51684764Y-73843483D01*
X51690533Y-73855681D01*
X51695079Y-73868386D01*
X51698358Y-73881475D01*
X51700338Y-73894823D01*
X51701000Y-73908300D01*
X51701000Y-75158300D01*
X51700338Y-75171777D01*
X51698358Y-75185125D01*
X51695079Y-75198214D01*
X51690533Y-75210919D01*
X51684764Y-75223117D01*
X51677827Y-75234691D01*
X51669789Y-75245529D01*
X51660727Y-75255527D01*
X51650729Y-75264589D01*
X51639891Y-75272627D01*
X51628317Y-75279564D01*
X51616119Y-75285333D01*
X51603414Y-75289879D01*
X51590325Y-75293158D01*
X51576977Y-75295138D01*
X51563500Y-75295800D01*
X51288500Y-75295800D01*
X51275023Y-75295138D01*
X51261675Y-75293158D01*
X51248586Y-75289879D01*
X51235881Y-75285333D01*
X51223683Y-75279564D01*
X51212109Y-75272627D01*
X51201271Y-75264589D01*
X51191273Y-75255527D01*
X51182211Y-75245529D01*
X51174173Y-75234691D01*
X51167236Y-75223117D01*
X51161467Y-75210919D01*
X51156921Y-75198214D01*
X51153642Y-75185125D01*
X51151662Y-75171777D01*
X51151000Y-75158300D01*
X51151000Y-73908300D01*
X51151662Y-73894823D01*
X51153642Y-73881475D01*
X51156921Y-73868386D01*
X51161467Y-73855681D01*
X51167236Y-73843483D01*
X51174173Y-73831909D01*
X51182211Y-73821071D01*
X51191273Y-73811073D01*
X51201271Y-73802011D01*
X51212109Y-73793973D01*
X51223683Y-73787036D01*
X51235881Y-73781267D01*
X51248586Y-73776721D01*
X51261675Y-73773442D01*
X51275023Y-73771462D01*
X51288500Y-73770800D01*
X51563500Y-73770800D01*
X51576977Y-73771462D01*
X51576977Y-73771462D01*
G37*
D13*
X51426000Y-74533300D03*
D10*
G36*
X50776977Y-73771462D02*
X50790325Y-73773442D01*
X50803414Y-73776721D01*
X50816119Y-73781267D01*
X50828317Y-73787036D01*
X50839891Y-73793973D01*
X50850729Y-73802011D01*
X50860727Y-73811073D01*
X50869789Y-73821071D01*
X50877827Y-73831909D01*
X50884764Y-73843483D01*
X50890533Y-73855681D01*
X50895079Y-73868386D01*
X50898358Y-73881475D01*
X50900338Y-73894823D01*
X50901000Y-73908300D01*
X50901000Y-75158300D01*
X50900338Y-75171777D01*
X50898358Y-75185125D01*
X50895079Y-75198214D01*
X50890533Y-75210919D01*
X50884764Y-75223117D01*
X50877827Y-75234691D01*
X50869789Y-75245529D01*
X50860727Y-75255527D01*
X50850729Y-75264589D01*
X50839891Y-75272627D01*
X50828317Y-75279564D01*
X50816119Y-75285333D01*
X50803414Y-75289879D01*
X50790325Y-75293158D01*
X50776977Y-75295138D01*
X50763500Y-75295800D01*
X50488500Y-75295800D01*
X50475023Y-75295138D01*
X50461675Y-75293158D01*
X50448586Y-75289879D01*
X50435881Y-75285333D01*
X50423683Y-75279564D01*
X50412109Y-75272627D01*
X50401271Y-75264589D01*
X50391273Y-75255527D01*
X50382211Y-75245529D01*
X50374173Y-75234691D01*
X50367236Y-75223117D01*
X50361467Y-75210919D01*
X50356921Y-75198214D01*
X50353642Y-75185125D01*
X50351662Y-75171777D01*
X50351000Y-75158300D01*
X50351000Y-73908300D01*
X50351662Y-73894823D01*
X50353642Y-73881475D01*
X50356921Y-73868386D01*
X50361467Y-73855681D01*
X50367236Y-73843483D01*
X50374173Y-73831909D01*
X50382211Y-73821071D01*
X50391273Y-73811073D01*
X50401271Y-73802011D01*
X50412109Y-73793973D01*
X50423683Y-73787036D01*
X50435881Y-73781267D01*
X50448586Y-73776721D01*
X50461675Y-73773442D01*
X50475023Y-73771462D01*
X50488500Y-73770800D01*
X50763500Y-73770800D01*
X50776977Y-73771462D01*
X50776977Y-73771462D01*
G37*
D13*
X50626000Y-74533300D03*
D10*
G36*
X49976977Y-73771462D02*
X49990325Y-73773442D01*
X50003414Y-73776721D01*
X50016119Y-73781267D01*
X50028317Y-73787036D01*
X50039891Y-73793973D01*
X50050729Y-73802011D01*
X50060727Y-73811073D01*
X50069789Y-73821071D01*
X50077827Y-73831909D01*
X50084764Y-73843483D01*
X50090533Y-73855681D01*
X50095079Y-73868386D01*
X50098358Y-73881475D01*
X50100338Y-73894823D01*
X50101000Y-73908300D01*
X50101000Y-75158300D01*
X50100338Y-75171777D01*
X50098358Y-75185125D01*
X50095079Y-75198214D01*
X50090533Y-75210919D01*
X50084764Y-75223117D01*
X50077827Y-75234691D01*
X50069789Y-75245529D01*
X50060727Y-75255527D01*
X50050729Y-75264589D01*
X50039891Y-75272627D01*
X50028317Y-75279564D01*
X50016119Y-75285333D01*
X50003414Y-75289879D01*
X49990325Y-75293158D01*
X49976977Y-75295138D01*
X49963500Y-75295800D01*
X49688500Y-75295800D01*
X49675023Y-75295138D01*
X49661675Y-75293158D01*
X49648586Y-75289879D01*
X49635881Y-75285333D01*
X49623683Y-75279564D01*
X49612109Y-75272627D01*
X49601271Y-75264589D01*
X49591273Y-75255527D01*
X49582211Y-75245529D01*
X49574173Y-75234691D01*
X49567236Y-75223117D01*
X49561467Y-75210919D01*
X49556921Y-75198214D01*
X49553642Y-75185125D01*
X49551662Y-75171777D01*
X49551000Y-75158300D01*
X49551000Y-73908300D01*
X49551662Y-73894823D01*
X49553642Y-73881475D01*
X49556921Y-73868386D01*
X49561467Y-73855681D01*
X49567236Y-73843483D01*
X49574173Y-73831909D01*
X49582211Y-73821071D01*
X49591273Y-73811073D01*
X49601271Y-73802011D01*
X49612109Y-73793973D01*
X49623683Y-73787036D01*
X49635881Y-73781267D01*
X49648586Y-73776721D01*
X49661675Y-73773442D01*
X49675023Y-73771462D01*
X49688500Y-73770800D01*
X49963500Y-73770800D01*
X49976977Y-73771462D01*
X49976977Y-73771462D01*
G37*
D13*
X49826000Y-74533300D03*
D10*
G36*
X49176977Y-73771462D02*
X49190325Y-73773442D01*
X49203414Y-73776721D01*
X49216119Y-73781267D01*
X49228317Y-73787036D01*
X49239891Y-73793973D01*
X49250729Y-73802011D01*
X49260727Y-73811073D01*
X49269789Y-73821071D01*
X49277827Y-73831909D01*
X49284764Y-73843483D01*
X49290533Y-73855681D01*
X49295079Y-73868386D01*
X49298358Y-73881475D01*
X49300338Y-73894823D01*
X49301000Y-73908300D01*
X49301000Y-75158300D01*
X49300338Y-75171777D01*
X49298358Y-75185125D01*
X49295079Y-75198214D01*
X49290533Y-75210919D01*
X49284764Y-75223117D01*
X49277827Y-75234691D01*
X49269789Y-75245529D01*
X49260727Y-75255527D01*
X49250729Y-75264589D01*
X49239891Y-75272627D01*
X49228317Y-75279564D01*
X49216119Y-75285333D01*
X49203414Y-75289879D01*
X49190325Y-75293158D01*
X49176977Y-75295138D01*
X49163500Y-75295800D01*
X48888500Y-75295800D01*
X48875023Y-75295138D01*
X48861675Y-75293158D01*
X48848586Y-75289879D01*
X48835881Y-75285333D01*
X48823683Y-75279564D01*
X48812109Y-75272627D01*
X48801271Y-75264589D01*
X48791273Y-75255527D01*
X48782211Y-75245529D01*
X48774173Y-75234691D01*
X48767236Y-75223117D01*
X48761467Y-75210919D01*
X48756921Y-75198214D01*
X48753642Y-75185125D01*
X48751662Y-75171777D01*
X48751000Y-75158300D01*
X48751000Y-73908300D01*
X48751662Y-73894823D01*
X48753642Y-73881475D01*
X48756921Y-73868386D01*
X48761467Y-73855681D01*
X48767236Y-73843483D01*
X48774173Y-73831909D01*
X48782211Y-73821071D01*
X48791273Y-73811073D01*
X48801271Y-73802011D01*
X48812109Y-73793973D01*
X48823683Y-73787036D01*
X48835881Y-73781267D01*
X48848586Y-73776721D01*
X48861675Y-73773442D01*
X48875023Y-73771462D01*
X48888500Y-73770800D01*
X49163500Y-73770800D01*
X49176977Y-73771462D01*
X49176977Y-73771462D01*
G37*
D13*
X49026000Y-74533300D03*
D10*
G36*
X48376977Y-73771462D02*
X48390325Y-73773442D01*
X48403414Y-73776721D01*
X48416119Y-73781267D01*
X48428317Y-73787036D01*
X48439891Y-73793973D01*
X48450729Y-73802011D01*
X48460727Y-73811073D01*
X48469789Y-73821071D01*
X48477827Y-73831909D01*
X48484764Y-73843483D01*
X48490533Y-73855681D01*
X48495079Y-73868386D01*
X48498358Y-73881475D01*
X48500338Y-73894823D01*
X48501000Y-73908300D01*
X48501000Y-75158300D01*
X48500338Y-75171777D01*
X48498358Y-75185125D01*
X48495079Y-75198214D01*
X48490533Y-75210919D01*
X48484764Y-75223117D01*
X48477827Y-75234691D01*
X48469789Y-75245529D01*
X48460727Y-75255527D01*
X48450729Y-75264589D01*
X48439891Y-75272627D01*
X48428317Y-75279564D01*
X48416119Y-75285333D01*
X48403414Y-75289879D01*
X48390325Y-75293158D01*
X48376977Y-75295138D01*
X48363500Y-75295800D01*
X48088500Y-75295800D01*
X48075023Y-75295138D01*
X48061675Y-75293158D01*
X48048586Y-75289879D01*
X48035881Y-75285333D01*
X48023683Y-75279564D01*
X48012109Y-75272627D01*
X48001271Y-75264589D01*
X47991273Y-75255527D01*
X47982211Y-75245529D01*
X47974173Y-75234691D01*
X47967236Y-75223117D01*
X47961467Y-75210919D01*
X47956921Y-75198214D01*
X47953642Y-75185125D01*
X47951662Y-75171777D01*
X47951000Y-75158300D01*
X47951000Y-73908300D01*
X47951662Y-73894823D01*
X47953642Y-73881475D01*
X47956921Y-73868386D01*
X47961467Y-73855681D01*
X47967236Y-73843483D01*
X47974173Y-73831909D01*
X47982211Y-73821071D01*
X47991273Y-73811073D01*
X48001271Y-73802011D01*
X48012109Y-73793973D01*
X48023683Y-73787036D01*
X48035881Y-73781267D01*
X48048586Y-73776721D01*
X48061675Y-73773442D01*
X48075023Y-73771462D01*
X48088500Y-73770800D01*
X48363500Y-73770800D01*
X48376977Y-73771462D01*
X48376977Y-73771462D01*
G37*
D13*
X48226000Y-74533300D03*
D10*
G36*
X47576977Y-73771462D02*
X47590325Y-73773442D01*
X47603414Y-73776721D01*
X47616119Y-73781267D01*
X47628317Y-73787036D01*
X47639891Y-73793973D01*
X47650729Y-73802011D01*
X47660727Y-73811073D01*
X47669789Y-73821071D01*
X47677827Y-73831909D01*
X47684764Y-73843483D01*
X47690533Y-73855681D01*
X47695079Y-73868386D01*
X47698358Y-73881475D01*
X47700338Y-73894823D01*
X47701000Y-73908300D01*
X47701000Y-75158300D01*
X47700338Y-75171777D01*
X47698358Y-75185125D01*
X47695079Y-75198214D01*
X47690533Y-75210919D01*
X47684764Y-75223117D01*
X47677827Y-75234691D01*
X47669789Y-75245529D01*
X47660727Y-75255527D01*
X47650729Y-75264589D01*
X47639891Y-75272627D01*
X47628317Y-75279564D01*
X47616119Y-75285333D01*
X47603414Y-75289879D01*
X47590325Y-75293158D01*
X47576977Y-75295138D01*
X47563500Y-75295800D01*
X47288500Y-75295800D01*
X47275023Y-75295138D01*
X47261675Y-75293158D01*
X47248586Y-75289879D01*
X47235881Y-75285333D01*
X47223683Y-75279564D01*
X47212109Y-75272627D01*
X47201271Y-75264589D01*
X47191273Y-75255527D01*
X47182211Y-75245529D01*
X47174173Y-75234691D01*
X47167236Y-75223117D01*
X47161467Y-75210919D01*
X47156921Y-75198214D01*
X47153642Y-75185125D01*
X47151662Y-75171777D01*
X47151000Y-75158300D01*
X47151000Y-73908300D01*
X47151662Y-73894823D01*
X47153642Y-73881475D01*
X47156921Y-73868386D01*
X47161467Y-73855681D01*
X47167236Y-73843483D01*
X47174173Y-73831909D01*
X47182211Y-73821071D01*
X47191273Y-73811073D01*
X47201271Y-73802011D01*
X47212109Y-73793973D01*
X47223683Y-73787036D01*
X47235881Y-73781267D01*
X47248586Y-73776721D01*
X47261675Y-73773442D01*
X47275023Y-73771462D01*
X47288500Y-73770800D01*
X47563500Y-73770800D01*
X47576977Y-73771462D01*
X47576977Y-73771462D01*
G37*
D13*
X47426000Y-74533300D03*
D10*
G36*
X46776977Y-73771462D02*
X46790325Y-73773442D01*
X46803414Y-73776721D01*
X46816119Y-73781267D01*
X46828317Y-73787036D01*
X46839891Y-73793973D01*
X46850729Y-73802011D01*
X46860727Y-73811073D01*
X46869789Y-73821071D01*
X46877827Y-73831909D01*
X46884764Y-73843483D01*
X46890533Y-73855681D01*
X46895079Y-73868386D01*
X46898358Y-73881475D01*
X46900338Y-73894823D01*
X46901000Y-73908300D01*
X46901000Y-75158300D01*
X46900338Y-75171777D01*
X46898358Y-75185125D01*
X46895079Y-75198214D01*
X46890533Y-75210919D01*
X46884764Y-75223117D01*
X46877827Y-75234691D01*
X46869789Y-75245529D01*
X46860727Y-75255527D01*
X46850729Y-75264589D01*
X46839891Y-75272627D01*
X46828317Y-75279564D01*
X46816119Y-75285333D01*
X46803414Y-75289879D01*
X46790325Y-75293158D01*
X46776977Y-75295138D01*
X46763500Y-75295800D01*
X46488500Y-75295800D01*
X46475023Y-75295138D01*
X46461675Y-75293158D01*
X46448586Y-75289879D01*
X46435881Y-75285333D01*
X46423683Y-75279564D01*
X46412109Y-75272627D01*
X46401271Y-75264589D01*
X46391273Y-75255527D01*
X46382211Y-75245529D01*
X46374173Y-75234691D01*
X46367236Y-75223117D01*
X46361467Y-75210919D01*
X46356921Y-75198214D01*
X46353642Y-75185125D01*
X46351662Y-75171777D01*
X46351000Y-75158300D01*
X46351000Y-73908300D01*
X46351662Y-73894823D01*
X46353642Y-73881475D01*
X46356921Y-73868386D01*
X46361467Y-73855681D01*
X46367236Y-73843483D01*
X46374173Y-73831909D01*
X46382211Y-73821071D01*
X46391273Y-73811073D01*
X46401271Y-73802011D01*
X46412109Y-73793973D01*
X46423683Y-73787036D01*
X46435881Y-73781267D01*
X46448586Y-73776721D01*
X46461675Y-73773442D01*
X46475023Y-73771462D01*
X46488500Y-73770800D01*
X46763500Y-73770800D01*
X46776977Y-73771462D01*
X46776977Y-73771462D01*
G37*
D13*
X46626000Y-74533300D03*
D10*
G36*
X45976977Y-73771462D02*
X45990325Y-73773442D01*
X46003414Y-73776721D01*
X46016119Y-73781267D01*
X46028317Y-73787036D01*
X46039891Y-73793973D01*
X46050729Y-73802011D01*
X46060727Y-73811073D01*
X46069789Y-73821071D01*
X46077827Y-73831909D01*
X46084764Y-73843483D01*
X46090533Y-73855681D01*
X46095079Y-73868386D01*
X46098358Y-73881475D01*
X46100338Y-73894823D01*
X46101000Y-73908300D01*
X46101000Y-75158300D01*
X46100338Y-75171777D01*
X46098358Y-75185125D01*
X46095079Y-75198214D01*
X46090533Y-75210919D01*
X46084764Y-75223117D01*
X46077827Y-75234691D01*
X46069789Y-75245529D01*
X46060727Y-75255527D01*
X46050729Y-75264589D01*
X46039891Y-75272627D01*
X46028317Y-75279564D01*
X46016119Y-75285333D01*
X46003414Y-75289879D01*
X45990325Y-75293158D01*
X45976977Y-75295138D01*
X45963500Y-75295800D01*
X45688500Y-75295800D01*
X45675023Y-75295138D01*
X45661675Y-75293158D01*
X45648586Y-75289879D01*
X45635881Y-75285333D01*
X45623683Y-75279564D01*
X45612109Y-75272627D01*
X45601271Y-75264589D01*
X45591273Y-75255527D01*
X45582211Y-75245529D01*
X45574173Y-75234691D01*
X45567236Y-75223117D01*
X45561467Y-75210919D01*
X45556921Y-75198214D01*
X45553642Y-75185125D01*
X45551662Y-75171777D01*
X45551000Y-75158300D01*
X45551000Y-73908300D01*
X45551662Y-73894823D01*
X45553642Y-73881475D01*
X45556921Y-73868386D01*
X45561467Y-73855681D01*
X45567236Y-73843483D01*
X45574173Y-73831909D01*
X45582211Y-73821071D01*
X45591273Y-73811073D01*
X45601271Y-73802011D01*
X45612109Y-73793973D01*
X45623683Y-73787036D01*
X45635881Y-73781267D01*
X45648586Y-73776721D01*
X45661675Y-73773442D01*
X45675023Y-73771462D01*
X45688500Y-73770800D01*
X45963500Y-73770800D01*
X45976977Y-73771462D01*
X45976977Y-73771462D01*
G37*
D13*
X45826000Y-74533300D03*
D10*
G36*
X45176977Y-73771462D02*
X45190325Y-73773442D01*
X45203414Y-73776721D01*
X45216119Y-73781267D01*
X45228317Y-73787036D01*
X45239891Y-73793973D01*
X45250729Y-73802011D01*
X45260727Y-73811073D01*
X45269789Y-73821071D01*
X45277827Y-73831909D01*
X45284764Y-73843483D01*
X45290533Y-73855681D01*
X45295079Y-73868386D01*
X45298358Y-73881475D01*
X45300338Y-73894823D01*
X45301000Y-73908300D01*
X45301000Y-75158300D01*
X45300338Y-75171777D01*
X45298358Y-75185125D01*
X45295079Y-75198214D01*
X45290533Y-75210919D01*
X45284764Y-75223117D01*
X45277827Y-75234691D01*
X45269789Y-75245529D01*
X45260727Y-75255527D01*
X45250729Y-75264589D01*
X45239891Y-75272627D01*
X45228317Y-75279564D01*
X45216119Y-75285333D01*
X45203414Y-75289879D01*
X45190325Y-75293158D01*
X45176977Y-75295138D01*
X45163500Y-75295800D01*
X44888500Y-75295800D01*
X44875023Y-75295138D01*
X44861675Y-75293158D01*
X44848586Y-75289879D01*
X44835881Y-75285333D01*
X44823683Y-75279564D01*
X44812109Y-75272627D01*
X44801271Y-75264589D01*
X44791273Y-75255527D01*
X44782211Y-75245529D01*
X44774173Y-75234691D01*
X44767236Y-75223117D01*
X44761467Y-75210919D01*
X44756921Y-75198214D01*
X44753642Y-75185125D01*
X44751662Y-75171777D01*
X44751000Y-75158300D01*
X44751000Y-73908300D01*
X44751662Y-73894823D01*
X44753642Y-73881475D01*
X44756921Y-73868386D01*
X44761467Y-73855681D01*
X44767236Y-73843483D01*
X44774173Y-73831909D01*
X44782211Y-73821071D01*
X44791273Y-73811073D01*
X44801271Y-73802011D01*
X44812109Y-73793973D01*
X44823683Y-73787036D01*
X44835881Y-73781267D01*
X44848586Y-73776721D01*
X44861675Y-73773442D01*
X44875023Y-73771462D01*
X44888500Y-73770800D01*
X45163500Y-73770800D01*
X45176977Y-73771462D01*
X45176977Y-73771462D01*
G37*
D13*
X45026000Y-74533300D03*
D10*
G36*
X44376977Y-73771462D02*
X44390325Y-73773442D01*
X44403414Y-73776721D01*
X44416119Y-73781267D01*
X44428317Y-73787036D01*
X44439891Y-73793973D01*
X44450729Y-73802011D01*
X44460727Y-73811073D01*
X44469789Y-73821071D01*
X44477827Y-73831909D01*
X44484764Y-73843483D01*
X44490533Y-73855681D01*
X44495079Y-73868386D01*
X44498358Y-73881475D01*
X44500338Y-73894823D01*
X44501000Y-73908300D01*
X44501000Y-75158300D01*
X44500338Y-75171777D01*
X44498358Y-75185125D01*
X44495079Y-75198214D01*
X44490533Y-75210919D01*
X44484764Y-75223117D01*
X44477827Y-75234691D01*
X44469789Y-75245529D01*
X44460727Y-75255527D01*
X44450729Y-75264589D01*
X44439891Y-75272627D01*
X44428317Y-75279564D01*
X44416119Y-75285333D01*
X44403414Y-75289879D01*
X44390325Y-75293158D01*
X44376977Y-75295138D01*
X44363500Y-75295800D01*
X44088500Y-75295800D01*
X44075023Y-75295138D01*
X44061675Y-75293158D01*
X44048586Y-75289879D01*
X44035881Y-75285333D01*
X44023683Y-75279564D01*
X44012109Y-75272627D01*
X44001271Y-75264589D01*
X43991273Y-75255527D01*
X43982211Y-75245529D01*
X43974173Y-75234691D01*
X43967236Y-75223117D01*
X43961467Y-75210919D01*
X43956921Y-75198214D01*
X43953642Y-75185125D01*
X43951662Y-75171777D01*
X43951000Y-75158300D01*
X43951000Y-73908300D01*
X43951662Y-73894823D01*
X43953642Y-73881475D01*
X43956921Y-73868386D01*
X43961467Y-73855681D01*
X43967236Y-73843483D01*
X43974173Y-73831909D01*
X43982211Y-73821071D01*
X43991273Y-73811073D01*
X44001271Y-73802011D01*
X44012109Y-73793973D01*
X44023683Y-73787036D01*
X44035881Y-73781267D01*
X44048586Y-73776721D01*
X44061675Y-73773442D01*
X44075023Y-73771462D01*
X44088500Y-73770800D01*
X44363500Y-73770800D01*
X44376977Y-73771462D01*
X44376977Y-73771462D01*
G37*
D13*
X44226000Y-74533300D03*
D10*
G36*
X43576977Y-73771462D02*
X43590325Y-73773442D01*
X43603414Y-73776721D01*
X43616119Y-73781267D01*
X43628317Y-73787036D01*
X43639891Y-73793973D01*
X43650729Y-73802011D01*
X43660727Y-73811073D01*
X43669789Y-73821071D01*
X43677827Y-73831909D01*
X43684764Y-73843483D01*
X43690533Y-73855681D01*
X43695079Y-73868386D01*
X43698358Y-73881475D01*
X43700338Y-73894823D01*
X43701000Y-73908300D01*
X43701000Y-75158300D01*
X43700338Y-75171777D01*
X43698358Y-75185125D01*
X43695079Y-75198214D01*
X43690533Y-75210919D01*
X43684764Y-75223117D01*
X43677827Y-75234691D01*
X43669789Y-75245529D01*
X43660727Y-75255527D01*
X43650729Y-75264589D01*
X43639891Y-75272627D01*
X43628317Y-75279564D01*
X43616119Y-75285333D01*
X43603414Y-75289879D01*
X43590325Y-75293158D01*
X43576977Y-75295138D01*
X43563500Y-75295800D01*
X43288500Y-75295800D01*
X43275023Y-75295138D01*
X43261675Y-75293158D01*
X43248586Y-75289879D01*
X43235881Y-75285333D01*
X43223683Y-75279564D01*
X43212109Y-75272627D01*
X43201271Y-75264589D01*
X43191273Y-75255527D01*
X43182211Y-75245529D01*
X43174173Y-75234691D01*
X43167236Y-75223117D01*
X43161467Y-75210919D01*
X43156921Y-75198214D01*
X43153642Y-75185125D01*
X43151662Y-75171777D01*
X43151000Y-75158300D01*
X43151000Y-73908300D01*
X43151662Y-73894823D01*
X43153642Y-73881475D01*
X43156921Y-73868386D01*
X43161467Y-73855681D01*
X43167236Y-73843483D01*
X43174173Y-73831909D01*
X43182211Y-73821071D01*
X43191273Y-73811073D01*
X43201271Y-73802011D01*
X43212109Y-73793973D01*
X43223683Y-73787036D01*
X43235881Y-73781267D01*
X43248586Y-73776721D01*
X43261675Y-73773442D01*
X43275023Y-73771462D01*
X43288500Y-73770800D01*
X43563500Y-73770800D01*
X43576977Y-73771462D01*
X43576977Y-73771462D01*
G37*
D13*
X43426000Y-74533300D03*
D10*
G36*
X42776977Y-73771462D02*
X42790325Y-73773442D01*
X42803414Y-73776721D01*
X42816119Y-73781267D01*
X42828317Y-73787036D01*
X42839891Y-73793973D01*
X42850729Y-73802011D01*
X42860727Y-73811073D01*
X42869789Y-73821071D01*
X42877827Y-73831909D01*
X42884764Y-73843483D01*
X42890533Y-73855681D01*
X42895079Y-73868386D01*
X42898358Y-73881475D01*
X42900338Y-73894823D01*
X42901000Y-73908300D01*
X42901000Y-75158300D01*
X42900338Y-75171777D01*
X42898358Y-75185125D01*
X42895079Y-75198214D01*
X42890533Y-75210919D01*
X42884764Y-75223117D01*
X42877827Y-75234691D01*
X42869789Y-75245529D01*
X42860727Y-75255527D01*
X42850729Y-75264589D01*
X42839891Y-75272627D01*
X42828317Y-75279564D01*
X42816119Y-75285333D01*
X42803414Y-75289879D01*
X42790325Y-75293158D01*
X42776977Y-75295138D01*
X42763500Y-75295800D01*
X42488500Y-75295800D01*
X42475023Y-75295138D01*
X42461675Y-75293158D01*
X42448586Y-75289879D01*
X42435881Y-75285333D01*
X42423683Y-75279564D01*
X42412109Y-75272627D01*
X42401271Y-75264589D01*
X42391273Y-75255527D01*
X42382211Y-75245529D01*
X42374173Y-75234691D01*
X42367236Y-75223117D01*
X42361467Y-75210919D01*
X42356921Y-75198214D01*
X42353642Y-75185125D01*
X42351662Y-75171777D01*
X42351000Y-75158300D01*
X42351000Y-73908300D01*
X42351662Y-73894823D01*
X42353642Y-73881475D01*
X42356921Y-73868386D01*
X42361467Y-73855681D01*
X42367236Y-73843483D01*
X42374173Y-73831909D01*
X42382211Y-73821071D01*
X42391273Y-73811073D01*
X42401271Y-73802011D01*
X42412109Y-73793973D01*
X42423683Y-73787036D01*
X42435881Y-73781267D01*
X42448586Y-73776721D01*
X42461675Y-73773442D01*
X42475023Y-73771462D01*
X42488500Y-73770800D01*
X42763500Y-73770800D01*
X42776977Y-73771462D01*
X42776977Y-73771462D01*
G37*
D13*
X42626000Y-74533300D03*
D10*
G36*
X41976977Y-73771462D02*
X41990325Y-73773442D01*
X42003414Y-73776721D01*
X42016119Y-73781267D01*
X42028317Y-73787036D01*
X42039891Y-73793973D01*
X42050729Y-73802011D01*
X42060727Y-73811073D01*
X42069789Y-73821071D01*
X42077827Y-73831909D01*
X42084764Y-73843483D01*
X42090533Y-73855681D01*
X42095079Y-73868386D01*
X42098358Y-73881475D01*
X42100338Y-73894823D01*
X42101000Y-73908300D01*
X42101000Y-75158300D01*
X42100338Y-75171777D01*
X42098358Y-75185125D01*
X42095079Y-75198214D01*
X42090533Y-75210919D01*
X42084764Y-75223117D01*
X42077827Y-75234691D01*
X42069789Y-75245529D01*
X42060727Y-75255527D01*
X42050729Y-75264589D01*
X42039891Y-75272627D01*
X42028317Y-75279564D01*
X42016119Y-75285333D01*
X42003414Y-75289879D01*
X41990325Y-75293158D01*
X41976977Y-75295138D01*
X41963500Y-75295800D01*
X41688500Y-75295800D01*
X41675023Y-75295138D01*
X41661675Y-75293158D01*
X41648586Y-75289879D01*
X41635881Y-75285333D01*
X41623683Y-75279564D01*
X41612109Y-75272627D01*
X41601271Y-75264589D01*
X41591273Y-75255527D01*
X41582211Y-75245529D01*
X41574173Y-75234691D01*
X41567236Y-75223117D01*
X41561467Y-75210919D01*
X41556921Y-75198214D01*
X41553642Y-75185125D01*
X41551662Y-75171777D01*
X41551000Y-75158300D01*
X41551000Y-73908300D01*
X41551662Y-73894823D01*
X41553642Y-73881475D01*
X41556921Y-73868386D01*
X41561467Y-73855681D01*
X41567236Y-73843483D01*
X41574173Y-73831909D01*
X41582211Y-73821071D01*
X41591273Y-73811073D01*
X41601271Y-73802011D01*
X41612109Y-73793973D01*
X41623683Y-73787036D01*
X41635881Y-73781267D01*
X41648586Y-73776721D01*
X41661675Y-73773442D01*
X41675023Y-73771462D01*
X41688500Y-73770800D01*
X41963500Y-73770800D01*
X41976977Y-73771462D01*
X41976977Y-73771462D01*
G37*
D13*
X41826000Y-74533300D03*
G04 #@! TD*
D14*
G04 #@! TO.C,U4*
X64070200Y-76402800D03*
X68670200Y-76402800D03*
X66370200Y-76402800D03*
D15*
X66370200Y-82702800D03*
G04 #@! TD*
G04 #@! TO.C,U2*
X66441300Y-69357600D03*
D14*
X66441300Y-63057600D03*
X68741300Y-63057600D03*
X64141300Y-63057600D03*
G04 #@! TD*
D10*
G04 #@! TO.C,R3*
G36*
X73483958Y-51070010D02*
X73498276Y-51072134D01*
X73512317Y-51075651D01*
X73525946Y-51080528D01*
X73539031Y-51086717D01*
X73551447Y-51094158D01*
X73563073Y-51102781D01*
X73573798Y-51112502D01*
X73583519Y-51123227D01*
X73592142Y-51134853D01*
X73599583Y-51147269D01*
X73605772Y-51160354D01*
X73610649Y-51173983D01*
X73614166Y-51188024D01*
X73616290Y-51202342D01*
X73617000Y-51216800D01*
X73617000Y-51561800D01*
X73616290Y-51576258D01*
X73614166Y-51590576D01*
X73610649Y-51604617D01*
X73605772Y-51618246D01*
X73599583Y-51631331D01*
X73592142Y-51643747D01*
X73583519Y-51655373D01*
X73573798Y-51666098D01*
X73563073Y-51675819D01*
X73551447Y-51684442D01*
X73539031Y-51691883D01*
X73525946Y-51698072D01*
X73512317Y-51702949D01*
X73498276Y-51706466D01*
X73483958Y-51708590D01*
X73469500Y-51709300D01*
X73174500Y-51709300D01*
X73160042Y-51708590D01*
X73145724Y-51706466D01*
X73131683Y-51702949D01*
X73118054Y-51698072D01*
X73104969Y-51691883D01*
X73092553Y-51684442D01*
X73080927Y-51675819D01*
X73070202Y-51666098D01*
X73060481Y-51655373D01*
X73051858Y-51643747D01*
X73044417Y-51631331D01*
X73038228Y-51618246D01*
X73033351Y-51604617D01*
X73029834Y-51590576D01*
X73027710Y-51576258D01*
X73027000Y-51561800D01*
X73027000Y-51216800D01*
X73027710Y-51202342D01*
X73029834Y-51188024D01*
X73033351Y-51173983D01*
X73038228Y-51160354D01*
X73044417Y-51147269D01*
X73051858Y-51134853D01*
X73060481Y-51123227D01*
X73070202Y-51112502D01*
X73080927Y-51102781D01*
X73092553Y-51094158D01*
X73104969Y-51086717D01*
X73118054Y-51080528D01*
X73131683Y-51075651D01*
X73145724Y-51072134D01*
X73160042Y-51070010D01*
X73174500Y-51069300D01*
X73469500Y-51069300D01*
X73483958Y-51070010D01*
X73483958Y-51070010D01*
G37*
D16*
X73322000Y-51389300D03*
D10*
G36*
X72513958Y-51070010D02*
X72528276Y-51072134D01*
X72542317Y-51075651D01*
X72555946Y-51080528D01*
X72569031Y-51086717D01*
X72581447Y-51094158D01*
X72593073Y-51102781D01*
X72603798Y-51112502D01*
X72613519Y-51123227D01*
X72622142Y-51134853D01*
X72629583Y-51147269D01*
X72635772Y-51160354D01*
X72640649Y-51173983D01*
X72644166Y-51188024D01*
X72646290Y-51202342D01*
X72647000Y-51216800D01*
X72647000Y-51561800D01*
X72646290Y-51576258D01*
X72644166Y-51590576D01*
X72640649Y-51604617D01*
X72635772Y-51618246D01*
X72629583Y-51631331D01*
X72622142Y-51643747D01*
X72613519Y-51655373D01*
X72603798Y-51666098D01*
X72593073Y-51675819D01*
X72581447Y-51684442D01*
X72569031Y-51691883D01*
X72555946Y-51698072D01*
X72542317Y-51702949D01*
X72528276Y-51706466D01*
X72513958Y-51708590D01*
X72499500Y-51709300D01*
X72204500Y-51709300D01*
X72190042Y-51708590D01*
X72175724Y-51706466D01*
X72161683Y-51702949D01*
X72148054Y-51698072D01*
X72134969Y-51691883D01*
X72122553Y-51684442D01*
X72110927Y-51675819D01*
X72100202Y-51666098D01*
X72090481Y-51655373D01*
X72081858Y-51643747D01*
X72074417Y-51631331D01*
X72068228Y-51618246D01*
X72063351Y-51604617D01*
X72059834Y-51590576D01*
X72057710Y-51576258D01*
X72057000Y-51561800D01*
X72057000Y-51216800D01*
X72057710Y-51202342D01*
X72059834Y-51188024D01*
X72063351Y-51173983D01*
X72068228Y-51160354D01*
X72074417Y-51147269D01*
X72081858Y-51134853D01*
X72090481Y-51123227D01*
X72100202Y-51112502D01*
X72110927Y-51102781D01*
X72122553Y-51094158D01*
X72134969Y-51086717D01*
X72148054Y-51080528D01*
X72161683Y-51075651D01*
X72175724Y-51072134D01*
X72190042Y-51070010D01*
X72204500Y-51069300D01*
X72499500Y-51069300D01*
X72513958Y-51070010D01*
X72513958Y-51070010D01*
G37*
D16*
X72352000Y-51389300D03*
G04 #@! TD*
D10*
G04 #@! TO.C,R4*
G36*
X67601358Y-51064910D02*
X67615676Y-51067034D01*
X67629717Y-51070551D01*
X67643346Y-51075428D01*
X67656431Y-51081617D01*
X67668847Y-51089058D01*
X67680473Y-51097681D01*
X67691198Y-51107402D01*
X67700919Y-51118127D01*
X67709542Y-51129753D01*
X67716983Y-51142169D01*
X67723172Y-51155254D01*
X67728049Y-51168883D01*
X67731566Y-51182924D01*
X67733690Y-51197242D01*
X67734400Y-51211700D01*
X67734400Y-51556700D01*
X67733690Y-51571158D01*
X67731566Y-51585476D01*
X67728049Y-51599517D01*
X67723172Y-51613146D01*
X67716983Y-51626231D01*
X67709542Y-51638647D01*
X67700919Y-51650273D01*
X67691198Y-51660998D01*
X67680473Y-51670719D01*
X67668847Y-51679342D01*
X67656431Y-51686783D01*
X67643346Y-51692972D01*
X67629717Y-51697849D01*
X67615676Y-51701366D01*
X67601358Y-51703490D01*
X67586900Y-51704200D01*
X67291900Y-51704200D01*
X67277442Y-51703490D01*
X67263124Y-51701366D01*
X67249083Y-51697849D01*
X67235454Y-51692972D01*
X67222369Y-51686783D01*
X67209953Y-51679342D01*
X67198327Y-51670719D01*
X67187602Y-51660998D01*
X67177881Y-51650273D01*
X67169258Y-51638647D01*
X67161817Y-51626231D01*
X67155628Y-51613146D01*
X67150751Y-51599517D01*
X67147234Y-51585476D01*
X67145110Y-51571158D01*
X67144400Y-51556700D01*
X67144400Y-51211700D01*
X67145110Y-51197242D01*
X67147234Y-51182924D01*
X67150751Y-51168883D01*
X67155628Y-51155254D01*
X67161817Y-51142169D01*
X67169258Y-51129753D01*
X67177881Y-51118127D01*
X67187602Y-51107402D01*
X67198327Y-51097681D01*
X67209953Y-51089058D01*
X67222369Y-51081617D01*
X67235454Y-51075428D01*
X67249083Y-51070551D01*
X67263124Y-51067034D01*
X67277442Y-51064910D01*
X67291900Y-51064200D01*
X67586900Y-51064200D01*
X67601358Y-51064910D01*
X67601358Y-51064910D01*
G37*
D16*
X67439400Y-51384200D03*
D10*
G36*
X66631358Y-51064910D02*
X66645676Y-51067034D01*
X66659717Y-51070551D01*
X66673346Y-51075428D01*
X66686431Y-51081617D01*
X66698847Y-51089058D01*
X66710473Y-51097681D01*
X66721198Y-51107402D01*
X66730919Y-51118127D01*
X66739542Y-51129753D01*
X66746983Y-51142169D01*
X66753172Y-51155254D01*
X66758049Y-51168883D01*
X66761566Y-51182924D01*
X66763690Y-51197242D01*
X66764400Y-51211700D01*
X66764400Y-51556700D01*
X66763690Y-51571158D01*
X66761566Y-51585476D01*
X66758049Y-51599517D01*
X66753172Y-51613146D01*
X66746983Y-51626231D01*
X66739542Y-51638647D01*
X66730919Y-51650273D01*
X66721198Y-51660998D01*
X66710473Y-51670719D01*
X66698847Y-51679342D01*
X66686431Y-51686783D01*
X66673346Y-51692972D01*
X66659717Y-51697849D01*
X66645676Y-51701366D01*
X66631358Y-51703490D01*
X66616900Y-51704200D01*
X66321900Y-51704200D01*
X66307442Y-51703490D01*
X66293124Y-51701366D01*
X66279083Y-51697849D01*
X66265454Y-51692972D01*
X66252369Y-51686783D01*
X66239953Y-51679342D01*
X66228327Y-51670719D01*
X66217602Y-51660998D01*
X66207881Y-51650273D01*
X66199258Y-51638647D01*
X66191817Y-51626231D01*
X66185628Y-51613146D01*
X66180751Y-51599517D01*
X66177234Y-51585476D01*
X66175110Y-51571158D01*
X66174400Y-51556700D01*
X66174400Y-51211700D01*
X66175110Y-51197242D01*
X66177234Y-51182924D01*
X66180751Y-51168883D01*
X66185628Y-51155254D01*
X66191817Y-51142169D01*
X66199258Y-51129753D01*
X66207881Y-51118127D01*
X66217602Y-51107402D01*
X66228327Y-51097681D01*
X66239953Y-51089058D01*
X66252369Y-51081617D01*
X66265454Y-51075428D01*
X66279083Y-51070551D01*
X66293124Y-51067034D01*
X66307442Y-51064910D01*
X66321900Y-51064200D01*
X66616900Y-51064200D01*
X66631358Y-51064910D01*
X66631358Y-51064910D01*
G37*
D16*
X66469400Y-51384200D03*
G04 #@! TD*
M02*
