M48
;DRILL file {KiCad 5.0.2-bee76a0~70~ubuntu18.10.1} date vie 15 mar 2019 00:59:31 CET
;FORMAT={-:-/ absolute / metric / decimal}
FMAT,2
METRIC,TZ
T1C0.400
T2C0.500
T3C0.762
T4C1.000
T5C1.200
T6C2.300
T7C3.200
%
G90
G05
T1
X33.852Y-58.728
X35.957Y-70.352
X37.442Y-72.724
X38.019Y-92.416
X40.371Y-63.396
X40.375Y-65.933
X40.907Y-64.892
X41.921Y-81.689
X42.083Y-71.271
X42.864Y-71.942
X43.259Y-61.631
X44.222Y-60.543
X44.948Y-71.952
X44.962Y-73.151
X45.051Y-59.307
X45.282Y-81.705
X46.5Y-83.941
X46.509Y-60.796
X46.669Y-67.396
X47.011Y-61.857
X47.182Y-85.207
X47.533Y-59.567
X48.381Y-78.356
X48.39Y-65.897
X49.731Y-61.546
X49.847Y-78.088
X50.154Y-70.738
X50.306Y-85.207
X51.05Y-72.813
X51.308Y-56.299
X51.599Y-69.814
X51.608Y-59.273
X52.583Y-71.849
X52.978Y-61.962
X53.192Y-83.02
X53.308Y-72.604
X53.308Y-56.301
X53.308Y-78.49
X53.375Y-81.319
X54.481Y-61.177
X54.808Y-56.284
X54.985Y-76.513
X55.245Y-61.871
X55.294Y-81.65
X55.946Y-78.505
X56.142Y-70.651
X56.465Y-60.952
X56.495Y-86.628
X57.08Y-61.943
X57.259Y-77.325
X58.524Y-67.457
X59.137Y-66.216
X59.625Y-64.913
X59.666Y-79.291
X59.728Y-59.754
X59.735Y-61.316
X59.742Y-71.798
X59.75Y-68.283
X59.751Y-70.317
X59.753Y-76.42
X59.758Y-73.943
X62.415Y-80.948
X62.429Y-81.989
X62.582Y-66.393
X62.639Y-75.309
X62.761Y-70.307
X63.609Y-66.116
X65.601Y-71.7
X66.467Y-65.327
X66.801Y-84.627
X66.869Y-71.394
X66.934Y-81.08
X66.952Y-79.519
X69.503Y-71.687
X70.012Y-68.914
X70.761Y-64.457
X70.795Y-68.277
X72.203Y-66.279
X72.567Y-70.847
X73.253Y-74.876
X73.477Y-67.843
X73.511Y-63.504
X74.229Y-59.417
X76.328Y-63.931
X77.097Y-62.477
T2
X65.308Y-54.585
X66.558Y-54.585
X67.808Y-54.585
X69.058Y-54.585
X70.308Y-54.585
X71.558Y-54.585
T3
X80.313Y-87.766
X80.313Y-94.566
X82.813Y-87.766
X82.813Y-89.866
X82.813Y-92.466
X82.813Y-94.566
T4
X41.915Y-49.911
X43.3Y-47.071
X44.685Y-49.911
X46.07Y-47.071
X47.455Y-49.911
X48.84Y-47.071
X50.225Y-49.911
X51.61Y-47.071
X52.995Y-49.911
X78.704Y-59.695
X78.704Y-61.985
X78.704Y-64.275
X78.704Y-66.565
X78.704Y-68.855
X80.684Y-58.55
X80.684Y-60.84
X80.684Y-63.13
X80.684Y-65.42
X80.684Y-67.71
X82.664Y-59.695
X82.664Y-61.985
X82.664Y-64.275
X82.664Y-66.565
X82.664Y-68.855
T5
X64.896Y-46.692
X67.396Y-46.692
X69.896Y-41.686
X72.396Y-46.692
X74.896Y-46.692
T6
X85.813Y-84.416
X85.813Y-97.916
X86.613Y-91.166
T7
X34.955Y-48.491
X59.955Y-48.491
X80.124Y-51.51
X80.124Y-76.51
T0
M30
