G04 #@! TF.GenerationSoftware,KiCad,Pcbnew,5.0.2-bee76a0~70~ubuntu18.10.1*
G04 #@! TF.CreationDate,2019-03-15T00:59:30+01:00*
G04 #@! TF.ProjectId,Spartan6,53706172-7461-46e3-962e-6b696361645f,rev?*
G04 #@! TF.SameCoordinates,Original*
G04 #@! TF.FileFunction,Soldermask,Bot*
G04 #@! TF.FilePolarity,Negative*
%FSLAX46Y46*%
G04 Gerber Fmt 4.6, Leading zero omitted, Abs format (unit mm)*
G04 Created by KiCad (PCBNEW 5.0.2-bee76a0~70~ubuntu18.10.1) date vie 15 mar 2019 00:59:30 CET*
%MOMM*%
%LPD*%
G01*
G04 APERTURE LIST*
%ADD10C,0.100000*%
G04 APERTURE END LIST*
D10*
G36*
X86309160Y-96280068D02*
X86309162Y-96280069D01*
X86309163Y-96280069D01*
X86423514Y-96327435D01*
X86618726Y-96408294D01*
X86897327Y-96594449D01*
X87134251Y-96831373D01*
X87320406Y-97109974D01*
X87448632Y-97419540D01*
X87514000Y-97748165D01*
X87514000Y-98083235D01*
X87448632Y-98411860D01*
X87320406Y-98721426D01*
X87134251Y-99000027D01*
X86897327Y-99236951D01*
X86618726Y-99423106D01*
X86423514Y-99503965D01*
X86309163Y-99551331D01*
X86309162Y-99551331D01*
X86309160Y-99551332D01*
X85980535Y-99616700D01*
X85645465Y-99616700D01*
X85316840Y-99551332D01*
X85316838Y-99551331D01*
X85316837Y-99551331D01*
X85202486Y-99503965D01*
X85007274Y-99423106D01*
X84728673Y-99236951D01*
X84491749Y-99000027D01*
X84305594Y-98721426D01*
X84177368Y-98411860D01*
X84112000Y-98083235D01*
X84112000Y-97748165D01*
X84177368Y-97419540D01*
X84305594Y-97109974D01*
X84491749Y-96831373D01*
X84728673Y-96594449D01*
X85007274Y-96408294D01*
X85202486Y-96327435D01*
X85316837Y-96280069D01*
X85316838Y-96280069D01*
X85316840Y-96280068D01*
X85645465Y-96214700D01*
X85980535Y-96214700D01*
X86309160Y-96280068D01*
X86309160Y-96280068D01*
G37*
G36*
X83050142Y-93783942D02*
X83198102Y-93845230D01*
X83331258Y-93934202D01*
X83444498Y-94047442D01*
X83533470Y-94180598D01*
X83594758Y-94328558D01*
X83626000Y-94485625D01*
X83626000Y-94645775D01*
X83594758Y-94802842D01*
X83533470Y-94950802D01*
X83444498Y-95083958D01*
X83331258Y-95197198D01*
X83198102Y-95286170D01*
X83050142Y-95347458D01*
X82893075Y-95378700D01*
X82732925Y-95378700D01*
X82575858Y-95347458D01*
X82427898Y-95286170D01*
X82294742Y-95197198D01*
X82181502Y-95083958D01*
X82092530Y-94950802D01*
X82031242Y-94802842D01*
X82000000Y-94645775D01*
X82000000Y-94485625D01*
X82031242Y-94328558D01*
X82092530Y-94180598D01*
X82181502Y-94047442D01*
X82294742Y-93934202D01*
X82427898Y-93845230D01*
X82575858Y-93783942D01*
X82732925Y-93752700D01*
X82893075Y-93752700D01*
X83050142Y-93783942D01*
X83050142Y-93783942D01*
G37*
G36*
X80550142Y-93783942D02*
X80698102Y-93845230D01*
X80831258Y-93934202D01*
X80944498Y-94047442D01*
X81033470Y-94180598D01*
X81094758Y-94328558D01*
X81126000Y-94485625D01*
X81126000Y-94645775D01*
X81094758Y-94802842D01*
X81033470Y-94950802D01*
X80944498Y-95083958D01*
X80831258Y-95197198D01*
X80698102Y-95286170D01*
X80550142Y-95347458D01*
X80393075Y-95378700D01*
X80232925Y-95378700D01*
X80075858Y-95347458D01*
X79927898Y-95286170D01*
X79794742Y-95197198D01*
X79681502Y-95083958D01*
X79592530Y-94950802D01*
X79531242Y-94802842D01*
X79500000Y-94645775D01*
X79500000Y-94485625D01*
X79531242Y-94328558D01*
X79592530Y-94180598D01*
X79681502Y-94047442D01*
X79794742Y-93934202D01*
X79927898Y-93845230D01*
X80075858Y-93783942D01*
X80232925Y-93752700D01*
X80393075Y-93752700D01*
X80550142Y-93783942D01*
X80550142Y-93783942D01*
G37*
G36*
X83050142Y-91683942D02*
X83198102Y-91745230D01*
X83331258Y-91834202D01*
X83444498Y-91947442D01*
X83533470Y-92080598D01*
X83594758Y-92228558D01*
X83626000Y-92385625D01*
X83626000Y-92545775D01*
X83594758Y-92702842D01*
X83533470Y-92850802D01*
X83444498Y-92983958D01*
X83331258Y-93097198D01*
X83198102Y-93186170D01*
X83050142Y-93247458D01*
X82893075Y-93278700D01*
X82732925Y-93278700D01*
X82575858Y-93247458D01*
X82427898Y-93186170D01*
X82294742Y-93097198D01*
X82181502Y-92983958D01*
X82092530Y-92850802D01*
X82031242Y-92702842D01*
X82000000Y-92545775D01*
X82000000Y-92385625D01*
X82031242Y-92228558D01*
X82092530Y-92080598D01*
X82181502Y-91947442D01*
X82294742Y-91834202D01*
X82427898Y-91745230D01*
X82575858Y-91683942D01*
X82732925Y-91652700D01*
X82893075Y-91652700D01*
X83050142Y-91683942D01*
X83050142Y-91683942D01*
G37*
G36*
X87109160Y-89530068D02*
X87109162Y-89530069D01*
X87109163Y-89530069D01*
X87223514Y-89577435D01*
X87418726Y-89658294D01*
X87697327Y-89844449D01*
X87934251Y-90081373D01*
X88120406Y-90359974D01*
X88120406Y-90359975D01*
X88248631Y-90669537D01*
X88314000Y-90998166D01*
X88314000Y-91333234D01*
X88248631Y-91661863D01*
X88239485Y-91683943D01*
X88120406Y-91971426D01*
X87934251Y-92250027D01*
X87697327Y-92486951D01*
X87418726Y-92673106D01*
X87346934Y-92702843D01*
X87109163Y-92801331D01*
X87109162Y-92801331D01*
X87109160Y-92801332D01*
X86780535Y-92866700D01*
X86445465Y-92866700D01*
X86116840Y-92801332D01*
X86116838Y-92801331D01*
X86116837Y-92801331D01*
X85879066Y-92702843D01*
X85807274Y-92673106D01*
X85528673Y-92486951D01*
X85291749Y-92250027D01*
X85105594Y-91971426D01*
X84986515Y-91683943D01*
X84977369Y-91661863D01*
X84912000Y-91333234D01*
X84912000Y-90998166D01*
X84977369Y-90669537D01*
X85105594Y-90359975D01*
X85105594Y-90359974D01*
X85291749Y-90081373D01*
X85528673Y-89844449D01*
X85807274Y-89658294D01*
X86002486Y-89577435D01*
X86116837Y-89530069D01*
X86116838Y-89530069D01*
X86116840Y-89530068D01*
X86445465Y-89464700D01*
X86780535Y-89464700D01*
X87109160Y-89530068D01*
X87109160Y-89530068D01*
G37*
G36*
X83050142Y-89083942D02*
X83198102Y-89145230D01*
X83331258Y-89234202D01*
X83444498Y-89347442D01*
X83533470Y-89480598D01*
X83594758Y-89628558D01*
X83626000Y-89785625D01*
X83626000Y-89945775D01*
X83594758Y-90102842D01*
X83533470Y-90250802D01*
X83444498Y-90383958D01*
X83331258Y-90497198D01*
X83198102Y-90586170D01*
X83050142Y-90647458D01*
X82893075Y-90678700D01*
X82732925Y-90678700D01*
X82575858Y-90647458D01*
X82427898Y-90586170D01*
X82294742Y-90497198D01*
X82181502Y-90383958D01*
X82092530Y-90250802D01*
X82031242Y-90102842D01*
X82000000Y-89945775D01*
X82000000Y-89785625D01*
X82031242Y-89628558D01*
X82092530Y-89480598D01*
X82181502Y-89347442D01*
X82294742Y-89234202D01*
X82427898Y-89145230D01*
X82575858Y-89083942D01*
X82732925Y-89052700D01*
X82893075Y-89052700D01*
X83050142Y-89083942D01*
X83050142Y-89083942D01*
G37*
G36*
X83050142Y-86983942D02*
X83198102Y-87045230D01*
X83331258Y-87134202D01*
X83444498Y-87247442D01*
X83533470Y-87380598D01*
X83594758Y-87528558D01*
X83626000Y-87685625D01*
X83626000Y-87845775D01*
X83594758Y-88002842D01*
X83533470Y-88150802D01*
X83444498Y-88283958D01*
X83331258Y-88397198D01*
X83198102Y-88486170D01*
X83050142Y-88547458D01*
X82893075Y-88578700D01*
X82732925Y-88578700D01*
X82575858Y-88547458D01*
X82427898Y-88486170D01*
X82294742Y-88397198D01*
X82181502Y-88283958D01*
X82092530Y-88150802D01*
X82031242Y-88002842D01*
X82000000Y-87845775D01*
X82000000Y-87685625D01*
X82031242Y-87528558D01*
X82092530Y-87380598D01*
X82181502Y-87247442D01*
X82294742Y-87134202D01*
X82427898Y-87045230D01*
X82575858Y-86983942D01*
X82732925Y-86952700D01*
X82893075Y-86952700D01*
X83050142Y-86983942D01*
X83050142Y-86983942D01*
G37*
G36*
X80550142Y-86983942D02*
X80698102Y-87045230D01*
X80831258Y-87134202D01*
X80944498Y-87247442D01*
X81033470Y-87380598D01*
X81094758Y-87528558D01*
X81126000Y-87685625D01*
X81126000Y-87845775D01*
X81094758Y-88002842D01*
X81033470Y-88150802D01*
X80944498Y-88283958D01*
X80831258Y-88397198D01*
X80698102Y-88486170D01*
X80550142Y-88547458D01*
X80393075Y-88578700D01*
X80232925Y-88578700D01*
X80075858Y-88547458D01*
X79927898Y-88486170D01*
X79794742Y-88397198D01*
X79681502Y-88283958D01*
X79592530Y-88150802D01*
X79531242Y-88002842D01*
X79500000Y-87845775D01*
X79500000Y-87685625D01*
X79531242Y-87528558D01*
X79592530Y-87380598D01*
X79681502Y-87247442D01*
X79794742Y-87134202D01*
X79927898Y-87045230D01*
X80075858Y-86983942D01*
X80232925Y-86952700D01*
X80393075Y-86952700D01*
X80550142Y-86983942D01*
X80550142Y-86983942D01*
G37*
G36*
X86309160Y-82780068D02*
X86309162Y-82780069D01*
X86309163Y-82780069D01*
X86423514Y-82827435D01*
X86618726Y-82908294D01*
X86897327Y-83094449D01*
X87134251Y-83331373D01*
X87320406Y-83609974D01*
X87448632Y-83919540D01*
X87514000Y-84248165D01*
X87514000Y-84583235D01*
X87448632Y-84911860D01*
X87320406Y-85221426D01*
X87134251Y-85500027D01*
X86897327Y-85736951D01*
X86618726Y-85923106D01*
X86423514Y-86003965D01*
X86309163Y-86051331D01*
X86309162Y-86051331D01*
X86309160Y-86051332D01*
X85980535Y-86116700D01*
X85645465Y-86116700D01*
X85316840Y-86051332D01*
X85316838Y-86051331D01*
X85316837Y-86051331D01*
X85202486Y-86003965D01*
X85007274Y-85923106D01*
X84728673Y-85736951D01*
X84491749Y-85500027D01*
X84305594Y-85221426D01*
X84177368Y-84911860D01*
X84112000Y-84583235D01*
X84112000Y-84248165D01*
X84177368Y-83919540D01*
X84305594Y-83609974D01*
X84491749Y-83331373D01*
X84728673Y-83094449D01*
X85007274Y-82908294D01*
X85202486Y-82827435D01*
X85316837Y-82780069D01*
X85316838Y-82780069D01*
X85316840Y-82780068D01*
X85645465Y-82714700D01*
X85980535Y-82714700D01*
X86309160Y-82780068D01*
X86309160Y-82780068D01*
G37*
G36*
X68321200Y-83753800D02*
X64419200Y-83753800D01*
X64419200Y-81651800D01*
X68321200Y-81651800D01*
X68321200Y-83753800D01*
X68321200Y-83753800D01*
G37*
G36*
X80722652Y-74537918D02*
X80722654Y-74537919D01*
X80722655Y-74537919D01*
X81095913Y-74692527D01*
X81095914Y-74692528D01*
X81431839Y-74916986D01*
X81717514Y-75202661D01*
X81717516Y-75202664D01*
X81941973Y-75538587D01*
X82096581Y-75911845D01*
X82175400Y-76308094D01*
X82175400Y-76712106D01*
X82096581Y-77108355D01*
X81941973Y-77481613D01*
X81941972Y-77481614D01*
X81717514Y-77817539D01*
X81431839Y-78103214D01*
X81431836Y-78103216D01*
X81095913Y-78327673D01*
X80722655Y-78482281D01*
X80722654Y-78482281D01*
X80722652Y-78482282D01*
X80326407Y-78561100D01*
X79922393Y-78561100D01*
X79526148Y-78482282D01*
X79526146Y-78482281D01*
X79526145Y-78482281D01*
X79152887Y-78327673D01*
X78816964Y-78103216D01*
X78816961Y-78103214D01*
X78531286Y-77817539D01*
X78306828Y-77481614D01*
X78306827Y-77481613D01*
X78152219Y-77108355D01*
X78073400Y-76712106D01*
X78073400Y-76308094D01*
X78152219Y-75911845D01*
X78306827Y-75538587D01*
X78531284Y-75202664D01*
X78531286Y-75202661D01*
X78816961Y-74916986D01*
X79152886Y-74692528D01*
X79152887Y-74692527D01*
X79526145Y-74537919D01*
X79526146Y-74537919D01*
X79526148Y-74537918D01*
X79922393Y-74459100D01*
X80326407Y-74459100D01*
X80722652Y-74537918D01*
X80722652Y-74537918D01*
G37*
G36*
X69471200Y-77453800D02*
X67869200Y-77453800D01*
X67869200Y-75351800D01*
X69471200Y-75351800D01*
X69471200Y-77453800D01*
X69471200Y-77453800D01*
G37*
G36*
X67171200Y-77453800D02*
X65569200Y-77453800D01*
X65569200Y-75351800D01*
X67171200Y-75351800D01*
X67171200Y-77453800D01*
X67171200Y-77453800D01*
G37*
G36*
X64871200Y-77453800D02*
X63269200Y-77453800D01*
X63269200Y-75351800D01*
X64871200Y-75351800D01*
X64871200Y-77453800D01*
X64871200Y-77453800D01*
G37*
G36*
X42070987Y-73722324D02*
X42089726Y-73728009D01*
X42107002Y-73737243D01*
X42122136Y-73749662D01*
X42129371Y-73758479D01*
X42146698Y-73775807D01*
X42167072Y-73789421D01*
X42189711Y-73798799D01*
X42213744Y-73803581D01*
X42238248Y-73803581D01*
X42262282Y-73798802D01*
X42284921Y-73789425D01*
X42305296Y-73775812D01*
X42322629Y-73758479D01*
X42329864Y-73749662D01*
X42344998Y-73737243D01*
X42362274Y-73728009D01*
X42381013Y-73722324D01*
X42406640Y-73719800D01*
X42845360Y-73719800D01*
X42870987Y-73722324D01*
X42889726Y-73728009D01*
X42907002Y-73737243D01*
X42922136Y-73749662D01*
X42929371Y-73758479D01*
X42946698Y-73775807D01*
X42967072Y-73789421D01*
X42989711Y-73798799D01*
X43013744Y-73803581D01*
X43038248Y-73803581D01*
X43062282Y-73798802D01*
X43084921Y-73789425D01*
X43105296Y-73775812D01*
X43122629Y-73758479D01*
X43129864Y-73749662D01*
X43144998Y-73737243D01*
X43162274Y-73728009D01*
X43181013Y-73722324D01*
X43206640Y-73719800D01*
X43645360Y-73719800D01*
X43670987Y-73722324D01*
X43689726Y-73728009D01*
X43707002Y-73737243D01*
X43722136Y-73749662D01*
X43729371Y-73758479D01*
X43746698Y-73775807D01*
X43767072Y-73789421D01*
X43789711Y-73798799D01*
X43813744Y-73803581D01*
X43838248Y-73803581D01*
X43862282Y-73798802D01*
X43884921Y-73789425D01*
X43905296Y-73775812D01*
X43922629Y-73758479D01*
X43929864Y-73749662D01*
X43944998Y-73737243D01*
X43962274Y-73728009D01*
X43981013Y-73722324D01*
X44006640Y-73719800D01*
X44445360Y-73719800D01*
X44470987Y-73722324D01*
X44489726Y-73728009D01*
X44507002Y-73737243D01*
X44522136Y-73749662D01*
X44529371Y-73758479D01*
X44546698Y-73775807D01*
X44567072Y-73789421D01*
X44589711Y-73798799D01*
X44613744Y-73803581D01*
X44638248Y-73803581D01*
X44662282Y-73798802D01*
X44684921Y-73789425D01*
X44705296Y-73775812D01*
X44722629Y-73758479D01*
X44729864Y-73749662D01*
X44744998Y-73737243D01*
X44762274Y-73728009D01*
X44781013Y-73722324D01*
X44806640Y-73719800D01*
X45245360Y-73719800D01*
X45270987Y-73722324D01*
X45289726Y-73728009D01*
X45307002Y-73737243D01*
X45322136Y-73749662D01*
X45329371Y-73758479D01*
X45346698Y-73775807D01*
X45367072Y-73789421D01*
X45389711Y-73798799D01*
X45413744Y-73803581D01*
X45438248Y-73803581D01*
X45462282Y-73798802D01*
X45484921Y-73789425D01*
X45505296Y-73775812D01*
X45522629Y-73758479D01*
X45529864Y-73749662D01*
X45544998Y-73737243D01*
X45562274Y-73728009D01*
X45581013Y-73722324D01*
X45606640Y-73719800D01*
X46045360Y-73719800D01*
X46070987Y-73722324D01*
X46089726Y-73728009D01*
X46107002Y-73737243D01*
X46122136Y-73749662D01*
X46129371Y-73758479D01*
X46146698Y-73775807D01*
X46167072Y-73789421D01*
X46189711Y-73798799D01*
X46213744Y-73803581D01*
X46238248Y-73803581D01*
X46262282Y-73798802D01*
X46284921Y-73789425D01*
X46305296Y-73775812D01*
X46322629Y-73758479D01*
X46329864Y-73749662D01*
X46344998Y-73737243D01*
X46362274Y-73728009D01*
X46381013Y-73722324D01*
X46406640Y-73719800D01*
X46845360Y-73719800D01*
X46870987Y-73722324D01*
X46889726Y-73728009D01*
X46907002Y-73737243D01*
X46922136Y-73749662D01*
X46929371Y-73758479D01*
X46946698Y-73775807D01*
X46967072Y-73789421D01*
X46989711Y-73798799D01*
X47013744Y-73803581D01*
X47038248Y-73803581D01*
X47062282Y-73798802D01*
X47084921Y-73789425D01*
X47105296Y-73775812D01*
X47122629Y-73758479D01*
X47129864Y-73749662D01*
X47144998Y-73737243D01*
X47162274Y-73728009D01*
X47181013Y-73722324D01*
X47206640Y-73719800D01*
X47645360Y-73719800D01*
X47670987Y-73722324D01*
X47689726Y-73728009D01*
X47707002Y-73737243D01*
X47722136Y-73749662D01*
X47729371Y-73758479D01*
X47746698Y-73775807D01*
X47767072Y-73789421D01*
X47789711Y-73798799D01*
X47813744Y-73803581D01*
X47838248Y-73803581D01*
X47862282Y-73798802D01*
X47884921Y-73789425D01*
X47905296Y-73775812D01*
X47922629Y-73758479D01*
X47929864Y-73749662D01*
X47944998Y-73737243D01*
X47962274Y-73728009D01*
X47981013Y-73722324D01*
X48006640Y-73719800D01*
X48445360Y-73719800D01*
X48470987Y-73722324D01*
X48489726Y-73728009D01*
X48507002Y-73737243D01*
X48522136Y-73749662D01*
X48529371Y-73758479D01*
X48546698Y-73775807D01*
X48567072Y-73789421D01*
X48589711Y-73798799D01*
X48613744Y-73803581D01*
X48638248Y-73803581D01*
X48662282Y-73798802D01*
X48684921Y-73789425D01*
X48705296Y-73775812D01*
X48722629Y-73758479D01*
X48729864Y-73749662D01*
X48744998Y-73737243D01*
X48762274Y-73728009D01*
X48781013Y-73722324D01*
X48806640Y-73719800D01*
X49245360Y-73719800D01*
X49270987Y-73722324D01*
X49289726Y-73728009D01*
X49307002Y-73737243D01*
X49322136Y-73749662D01*
X49329371Y-73758479D01*
X49346698Y-73775807D01*
X49367072Y-73789421D01*
X49389711Y-73798799D01*
X49413744Y-73803581D01*
X49438248Y-73803581D01*
X49462282Y-73798802D01*
X49484921Y-73789425D01*
X49505296Y-73775812D01*
X49522629Y-73758479D01*
X49529864Y-73749662D01*
X49544998Y-73737243D01*
X49562274Y-73728009D01*
X49581013Y-73722324D01*
X49606640Y-73719800D01*
X50045360Y-73719800D01*
X50070987Y-73722324D01*
X50089726Y-73728009D01*
X50107002Y-73737243D01*
X50122136Y-73749662D01*
X50129371Y-73758479D01*
X50146698Y-73775807D01*
X50167072Y-73789421D01*
X50189711Y-73798799D01*
X50213744Y-73803581D01*
X50238248Y-73803581D01*
X50262282Y-73798802D01*
X50284921Y-73789425D01*
X50305296Y-73775812D01*
X50322629Y-73758479D01*
X50329864Y-73749662D01*
X50344998Y-73737243D01*
X50362274Y-73728009D01*
X50381013Y-73722324D01*
X50406640Y-73719800D01*
X50845360Y-73719800D01*
X50870987Y-73722324D01*
X50889726Y-73728009D01*
X50907002Y-73737243D01*
X50922136Y-73749662D01*
X50929371Y-73758479D01*
X50946698Y-73775807D01*
X50967072Y-73789421D01*
X50989711Y-73798799D01*
X51013744Y-73803581D01*
X51038248Y-73803581D01*
X51062282Y-73798802D01*
X51084921Y-73789425D01*
X51105296Y-73775812D01*
X51122629Y-73758479D01*
X51129864Y-73749662D01*
X51144998Y-73737243D01*
X51162274Y-73728009D01*
X51181013Y-73722324D01*
X51206640Y-73719800D01*
X51645360Y-73719800D01*
X51670987Y-73722324D01*
X51689726Y-73728009D01*
X51707002Y-73737243D01*
X51722136Y-73749662D01*
X51729371Y-73758479D01*
X51746698Y-73775807D01*
X51767072Y-73789421D01*
X51789711Y-73798799D01*
X51813744Y-73803581D01*
X51838248Y-73803581D01*
X51862282Y-73798802D01*
X51884921Y-73789425D01*
X51905296Y-73775812D01*
X51922629Y-73758479D01*
X51929864Y-73749662D01*
X51944998Y-73737243D01*
X51962274Y-73728009D01*
X51981013Y-73722324D01*
X52006640Y-73719800D01*
X52445360Y-73719800D01*
X52470987Y-73722324D01*
X52489726Y-73728009D01*
X52507002Y-73737243D01*
X52522136Y-73749662D01*
X52529371Y-73758479D01*
X52546698Y-73775807D01*
X52567072Y-73789421D01*
X52589711Y-73798799D01*
X52613744Y-73803581D01*
X52638248Y-73803581D01*
X52662282Y-73798802D01*
X52684921Y-73789425D01*
X52705296Y-73775812D01*
X52722629Y-73758479D01*
X52729864Y-73749662D01*
X52744998Y-73737243D01*
X52762274Y-73728009D01*
X52781013Y-73722324D01*
X52806640Y-73719800D01*
X53245360Y-73719800D01*
X53270987Y-73722324D01*
X53289726Y-73728009D01*
X53307002Y-73737243D01*
X53322136Y-73749662D01*
X53329371Y-73758479D01*
X53346698Y-73775807D01*
X53367072Y-73789421D01*
X53389711Y-73798799D01*
X53413744Y-73803581D01*
X53438248Y-73803581D01*
X53462282Y-73798802D01*
X53484921Y-73789425D01*
X53505296Y-73775812D01*
X53522629Y-73758479D01*
X53529864Y-73749662D01*
X53544998Y-73737243D01*
X53562274Y-73728009D01*
X53581013Y-73722324D01*
X53606640Y-73719800D01*
X54045360Y-73719800D01*
X54070987Y-73722324D01*
X54089726Y-73728009D01*
X54107002Y-73737243D01*
X54122136Y-73749662D01*
X54129371Y-73758479D01*
X54146698Y-73775807D01*
X54167072Y-73789421D01*
X54189711Y-73798799D01*
X54213744Y-73803581D01*
X54238248Y-73803581D01*
X54262282Y-73798802D01*
X54284921Y-73789425D01*
X54305296Y-73775812D01*
X54322629Y-73758479D01*
X54329864Y-73749662D01*
X54344998Y-73737243D01*
X54362274Y-73728009D01*
X54381013Y-73722324D01*
X54406640Y-73719800D01*
X54845360Y-73719800D01*
X54870987Y-73722324D01*
X54889726Y-73728009D01*
X54907002Y-73737243D01*
X54922136Y-73749662D01*
X54929371Y-73758479D01*
X54946698Y-73775807D01*
X54967072Y-73789421D01*
X54989711Y-73798799D01*
X55013744Y-73803581D01*
X55038248Y-73803581D01*
X55062282Y-73798802D01*
X55084921Y-73789425D01*
X55105296Y-73775812D01*
X55122629Y-73758479D01*
X55129864Y-73749662D01*
X55144998Y-73737243D01*
X55162274Y-73728009D01*
X55181013Y-73722324D01*
X55206640Y-73719800D01*
X55645360Y-73719800D01*
X55670987Y-73722324D01*
X55689726Y-73728009D01*
X55707002Y-73737243D01*
X55722136Y-73749662D01*
X55729371Y-73758479D01*
X55746698Y-73775807D01*
X55767072Y-73789421D01*
X55789711Y-73798799D01*
X55813744Y-73803581D01*
X55838248Y-73803581D01*
X55862282Y-73798802D01*
X55884921Y-73789425D01*
X55905296Y-73775812D01*
X55922629Y-73758479D01*
X55929864Y-73749662D01*
X55944998Y-73737243D01*
X55962274Y-73728009D01*
X55981013Y-73722324D01*
X56006640Y-73719800D01*
X56445360Y-73719800D01*
X56470987Y-73722324D01*
X56489726Y-73728009D01*
X56507002Y-73737243D01*
X56522136Y-73749662D01*
X56529371Y-73758479D01*
X56546698Y-73775807D01*
X56567072Y-73789421D01*
X56589711Y-73798799D01*
X56613744Y-73803581D01*
X56638248Y-73803581D01*
X56662282Y-73798802D01*
X56684921Y-73789425D01*
X56705296Y-73775812D01*
X56722629Y-73758479D01*
X56729864Y-73749662D01*
X56744998Y-73737243D01*
X56762274Y-73728009D01*
X56781013Y-73722324D01*
X56806640Y-73719800D01*
X57245360Y-73719800D01*
X57270987Y-73722324D01*
X57289726Y-73728009D01*
X57307002Y-73737243D01*
X57322136Y-73749662D01*
X57329371Y-73758479D01*
X57346698Y-73775807D01*
X57367072Y-73789421D01*
X57389711Y-73798799D01*
X57413744Y-73803581D01*
X57438248Y-73803581D01*
X57462282Y-73798802D01*
X57484921Y-73789425D01*
X57505296Y-73775812D01*
X57522629Y-73758479D01*
X57529864Y-73749662D01*
X57544998Y-73737243D01*
X57562274Y-73728009D01*
X57581013Y-73722324D01*
X57606640Y-73719800D01*
X58045360Y-73719800D01*
X58070987Y-73722324D01*
X58089726Y-73728009D01*
X58107002Y-73737243D01*
X58122136Y-73749662D01*
X58129371Y-73758479D01*
X58146698Y-73775807D01*
X58167072Y-73789421D01*
X58189711Y-73798799D01*
X58213744Y-73803581D01*
X58238248Y-73803581D01*
X58262282Y-73798802D01*
X58284921Y-73789425D01*
X58305296Y-73775812D01*
X58322629Y-73758479D01*
X58329864Y-73749662D01*
X58344998Y-73737243D01*
X58362274Y-73728009D01*
X58381013Y-73722324D01*
X58406640Y-73719800D01*
X58845360Y-73719800D01*
X58870987Y-73722324D01*
X58889726Y-73728009D01*
X58907002Y-73737243D01*
X58922137Y-73749663D01*
X58934557Y-73764798D01*
X58943791Y-73782074D01*
X58949476Y-73800813D01*
X58952000Y-73826440D01*
X58952000Y-75240160D01*
X58949476Y-75265787D01*
X58943791Y-75284526D01*
X58934557Y-75301802D01*
X58922137Y-75316937D01*
X58907002Y-75329357D01*
X58889726Y-75338591D01*
X58870987Y-75344276D01*
X58845360Y-75346800D01*
X58406640Y-75346800D01*
X58381013Y-75344276D01*
X58362274Y-75338591D01*
X58344998Y-75329357D01*
X58329864Y-75316938D01*
X58322629Y-75308121D01*
X58305302Y-75290793D01*
X58284928Y-75277179D01*
X58262289Y-75267801D01*
X58238256Y-75263019D01*
X58213752Y-75263019D01*
X58189718Y-75267798D01*
X58167079Y-75277175D01*
X58146704Y-75290788D01*
X58129371Y-75308121D01*
X58122136Y-75316938D01*
X58107002Y-75329357D01*
X58089726Y-75338591D01*
X58070987Y-75344276D01*
X58045360Y-75346800D01*
X57606640Y-75346800D01*
X57581013Y-75344276D01*
X57562274Y-75338591D01*
X57544998Y-75329357D01*
X57529864Y-75316938D01*
X57522629Y-75308121D01*
X57505302Y-75290793D01*
X57484928Y-75277179D01*
X57462289Y-75267801D01*
X57438256Y-75263019D01*
X57413752Y-75263019D01*
X57389718Y-75267798D01*
X57367079Y-75277175D01*
X57346704Y-75290788D01*
X57329371Y-75308121D01*
X57322136Y-75316938D01*
X57307002Y-75329357D01*
X57289726Y-75338591D01*
X57270987Y-75344276D01*
X57245360Y-75346800D01*
X56806640Y-75346800D01*
X56781013Y-75344276D01*
X56762274Y-75338591D01*
X56744998Y-75329357D01*
X56729864Y-75316938D01*
X56722629Y-75308121D01*
X56705302Y-75290793D01*
X56684928Y-75277179D01*
X56662289Y-75267801D01*
X56638256Y-75263019D01*
X56613752Y-75263019D01*
X56589718Y-75267798D01*
X56567079Y-75277175D01*
X56546704Y-75290788D01*
X56529371Y-75308121D01*
X56522136Y-75316938D01*
X56507002Y-75329357D01*
X56489726Y-75338591D01*
X56470987Y-75344276D01*
X56445360Y-75346800D01*
X56006640Y-75346800D01*
X55981013Y-75344276D01*
X55962274Y-75338591D01*
X55944998Y-75329357D01*
X55929864Y-75316938D01*
X55922629Y-75308121D01*
X55905302Y-75290793D01*
X55884928Y-75277179D01*
X55862289Y-75267801D01*
X55838256Y-75263019D01*
X55813752Y-75263019D01*
X55789718Y-75267798D01*
X55767079Y-75277175D01*
X55746704Y-75290788D01*
X55729371Y-75308121D01*
X55722136Y-75316938D01*
X55707002Y-75329357D01*
X55689726Y-75338591D01*
X55670987Y-75344276D01*
X55645360Y-75346800D01*
X55206640Y-75346800D01*
X55181013Y-75344276D01*
X55162274Y-75338591D01*
X55144998Y-75329357D01*
X55129864Y-75316938D01*
X55122629Y-75308121D01*
X55105302Y-75290793D01*
X55084928Y-75277179D01*
X55062289Y-75267801D01*
X55038256Y-75263019D01*
X55013752Y-75263019D01*
X54989718Y-75267798D01*
X54967079Y-75277175D01*
X54946704Y-75290788D01*
X54929371Y-75308121D01*
X54922136Y-75316938D01*
X54907002Y-75329357D01*
X54889726Y-75338591D01*
X54870987Y-75344276D01*
X54845360Y-75346800D01*
X54406640Y-75346800D01*
X54381013Y-75344276D01*
X54362274Y-75338591D01*
X54344998Y-75329357D01*
X54329864Y-75316938D01*
X54322629Y-75308121D01*
X54305302Y-75290793D01*
X54284928Y-75277179D01*
X54262289Y-75267801D01*
X54238256Y-75263019D01*
X54213752Y-75263019D01*
X54189718Y-75267798D01*
X54167079Y-75277175D01*
X54146704Y-75290788D01*
X54129371Y-75308121D01*
X54122136Y-75316938D01*
X54107002Y-75329357D01*
X54089726Y-75338591D01*
X54070987Y-75344276D01*
X54045360Y-75346800D01*
X53606640Y-75346800D01*
X53581013Y-75344276D01*
X53562274Y-75338591D01*
X53544998Y-75329357D01*
X53529864Y-75316938D01*
X53522629Y-75308121D01*
X53505302Y-75290793D01*
X53484928Y-75277179D01*
X53462289Y-75267801D01*
X53438256Y-75263019D01*
X53413752Y-75263019D01*
X53389718Y-75267798D01*
X53367079Y-75277175D01*
X53346704Y-75290788D01*
X53329371Y-75308121D01*
X53322136Y-75316938D01*
X53307002Y-75329357D01*
X53289726Y-75338591D01*
X53270987Y-75344276D01*
X53245360Y-75346800D01*
X52806640Y-75346800D01*
X52781013Y-75344276D01*
X52762274Y-75338591D01*
X52744998Y-75329357D01*
X52729864Y-75316938D01*
X52722629Y-75308121D01*
X52705302Y-75290793D01*
X52684928Y-75277179D01*
X52662289Y-75267801D01*
X52638256Y-75263019D01*
X52613752Y-75263019D01*
X52589718Y-75267798D01*
X52567079Y-75277175D01*
X52546704Y-75290788D01*
X52529371Y-75308121D01*
X52522136Y-75316938D01*
X52507002Y-75329357D01*
X52489726Y-75338591D01*
X52470987Y-75344276D01*
X52445360Y-75346800D01*
X52006640Y-75346800D01*
X51981013Y-75344276D01*
X51962274Y-75338591D01*
X51944998Y-75329357D01*
X51929864Y-75316938D01*
X51922629Y-75308121D01*
X51905302Y-75290793D01*
X51884928Y-75277179D01*
X51862289Y-75267801D01*
X51838256Y-75263019D01*
X51813752Y-75263019D01*
X51789718Y-75267798D01*
X51767079Y-75277175D01*
X51746704Y-75290788D01*
X51729371Y-75308121D01*
X51722136Y-75316938D01*
X51707002Y-75329357D01*
X51689726Y-75338591D01*
X51670987Y-75344276D01*
X51645360Y-75346800D01*
X51206640Y-75346800D01*
X51181013Y-75344276D01*
X51162274Y-75338591D01*
X51144998Y-75329357D01*
X51129864Y-75316938D01*
X51122629Y-75308121D01*
X51105302Y-75290793D01*
X51084928Y-75277179D01*
X51062289Y-75267801D01*
X51038256Y-75263019D01*
X51013752Y-75263019D01*
X50989718Y-75267798D01*
X50967079Y-75277175D01*
X50946704Y-75290788D01*
X50929371Y-75308121D01*
X50922136Y-75316938D01*
X50907002Y-75329357D01*
X50889726Y-75338591D01*
X50870987Y-75344276D01*
X50845360Y-75346800D01*
X50406640Y-75346800D01*
X50381013Y-75344276D01*
X50362274Y-75338591D01*
X50344998Y-75329357D01*
X50329864Y-75316938D01*
X50322629Y-75308121D01*
X50305302Y-75290793D01*
X50284928Y-75277179D01*
X50262289Y-75267801D01*
X50238256Y-75263019D01*
X50213752Y-75263019D01*
X50189718Y-75267798D01*
X50167079Y-75277175D01*
X50146704Y-75290788D01*
X50129371Y-75308121D01*
X50122136Y-75316938D01*
X50107002Y-75329357D01*
X50089726Y-75338591D01*
X50070987Y-75344276D01*
X50045360Y-75346800D01*
X49606640Y-75346800D01*
X49581013Y-75344276D01*
X49562274Y-75338591D01*
X49544998Y-75329357D01*
X49529864Y-75316938D01*
X49522629Y-75308121D01*
X49505302Y-75290793D01*
X49484928Y-75277179D01*
X49462289Y-75267801D01*
X49438256Y-75263019D01*
X49413752Y-75263019D01*
X49389718Y-75267798D01*
X49367079Y-75277175D01*
X49346704Y-75290788D01*
X49329371Y-75308121D01*
X49322136Y-75316938D01*
X49307002Y-75329357D01*
X49289726Y-75338591D01*
X49270987Y-75344276D01*
X49245360Y-75346800D01*
X48806640Y-75346800D01*
X48781013Y-75344276D01*
X48762274Y-75338591D01*
X48744998Y-75329357D01*
X48729864Y-75316938D01*
X48722629Y-75308121D01*
X48705302Y-75290793D01*
X48684928Y-75277179D01*
X48662289Y-75267801D01*
X48638256Y-75263019D01*
X48613752Y-75263019D01*
X48589718Y-75267798D01*
X48567079Y-75277175D01*
X48546704Y-75290788D01*
X48529371Y-75308121D01*
X48522136Y-75316938D01*
X48507002Y-75329357D01*
X48489726Y-75338591D01*
X48470987Y-75344276D01*
X48445360Y-75346800D01*
X48006640Y-75346800D01*
X47981013Y-75344276D01*
X47962274Y-75338591D01*
X47944998Y-75329357D01*
X47929864Y-75316938D01*
X47922629Y-75308121D01*
X47905302Y-75290793D01*
X47884928Y-75277179D01*
X47862289Y-75267801D01*
X47838256Y-75263019D01*
X47813752Y-75263019D01*
X47789718Y-75267798D01*
X47767079Y-75277175D01*
X47746704Y-75290788D01*
X47729371Y-75308121D01*
X47722136Y-75316938D01*
X47707002Y-75329357D01*
X47689726Y-75338591D01*
X47670987Y-75344276D01*
X47645360Y-75346800D01*
X47206640Y-75346800D01*
X47181013Y-75344276D01*
X47162274Y-75338591D01*
X47144998Y-75329357D01*
X47129864Y-75316938D01*
X47122629Y-75308121D01*
X47105302Y-75290793D01*
X47084928Y-75277179D01*
X47062289Y-75267801D01*
X47038256Y-75263019D01*
X47013752Y-75263019D01*
X46989718Y-75267798D01*
X46967079Y-75277175D01*
X46946704Y-75290788D01*
X46929371Y-75308121D01*
X46922136Y-75316938D01*
X46907002Y-75329357D01*
X46889726Y-75338591D01*
X46870987Y-75344276D01*
X46845360Y-75346800D01*
X46406640Y-75346800D01*
X46381013Y-75344276D01*
X46362274Y-75338591D01*
X46344998Y-75329357D01*
X46329864Y-75316938D01*
X46322629Y-75308121D01*
X46305302Y-75290793D01*
X46284928Y-75277179D01*
X46262289Y-75267801D01*
X46238256Y-75263019D01*
X46213752Y-75263019D01*
X46189718Y-75267798D01*
X46167079Y-75277175D01*
X46146704Y-75290788D01*
X46129371Y-75308121D01*
X46122136Y-75316938D01*
X46107002Y-75329357D01*
X46089726Y-75338591D01*
X46070987Y-75344276D01*
X46045360Y-75346800D01*
X45606640Y-75346800D01*
X45581013Y-75344276D01*
X45562274Y-75338591D01*
X45544998Y-75329357D01*
X45529864Y-75316938D01*
X45522629Y-75308121D01*
X45505302Y-75290793D01*
X45484928Y-75277179D01*
X45462289Y-75267801D01*
X45438256Y-75263019D01*
X45413752Y-75263019D01*
X45389718Y-75267798D01*
X45367079Y-75277175D01*
X45346704Y-75290788D01*
X45329371Y-75308121D01*
X45322136Y-75316938D01*
X45307002Y-75329357D01*
X45289726Y-75338591D01*
X45270987Y-75344276D01*
X45245360Y-75346800D01*
X44806640Y-75346800D01*
X44781013Y-75344276D01*
X44762274Y-75338591D01*
X44744998Y-75329357D01*
X44729864Y-75316938D01*
X44722629Y-75308121D01*
X44705302Y-75290793D01*
X44684928Y-75277179D01*
X44662289Y-75267801D01*
X44638256Y-75263019D01*
X44613752Y-75263019D01*
X44589718Y-75267798D01*
X44567079Y-75277175D01*
X44546704Y-75290788D01*
X44529371Y-75308121D01*
X44522136Y-75316938D01*
X44507002Y-75329357D01*
X44489726Y-75338591D01*
X44470987Y-75344276D01*
X44445360Y-75346800D01*
X44006640Y-75346800D01*
X43981013Y-75344276D01*
X43962274Y-75338591D01*
X43944998Y-75329357D01*
X43929864Y-75316938D01*
X43922629Y-75308121D01*
X43905302Y-75290793D01*
X43884928Y-75277179D01*
X43862289Y-75267801D01*
X43838256Y-75263019D01*
X43813752Y-75263019D01*
X43789718Y-75267798D01*
X43767079Y-75277175D01*
X43746704Y-75290788D01*
X43729371Y-75308121D01*
X43722136Y-75316938D01*
X43707002Y-75329357D01*
X43689726Y-75338591D01*
X43670987Y-75344276D01*
X43645360Y-75346800D01*
X43206640Y-75346800D01*
X43181013Y-75344276D01*
X43162274Y-75338591D01*
X43144998Y-75329357D01*
X43129864Y-75316938D01*
X43122629Y-75308121D01*
X43105302Y-75290793D01*
X43084928Y-75277179D01*
X43062289Y-75267801D01*
X43038256Y-75263019D01*
X43013752Y-75263019D01*
X42989718Y-75267798D01*
X42967079Y-75277175D01*
X42946704Y-75290788D01*
X42929371Y-75308121D01*
X42922136Y-75316938D01*
X42907002Y-75329357D01*
X42889726Y-75338591D01*
X42870987Y-75344276D01*
X42845360Y-75346800D01*
X42406640Y-75346800D01*
X42381013Y-75344276D01*
X42362274Y-75338591D01*
X42344998Y-75329357D01*
X42329864Y-75316938D01*
X42322629Y-75308121D01*
X42305302Y-75290793D01*
X42284928Y-75277179D01*
X42262289Y-75267801D01*
X42238256Y-75263019D01*
X42213752Y-75263019D01*
X42189718Y-75267798D01*
X42167079Y-75277175D01*
X42146704Y-75290788D01*
X42129371Y-75308121D01*
X42122136Y-75316938D01*
X42107002Y-75329357D01*
X42089726Y-75338591D01*
X42070987Y-75344276D01*
X42045360Y-75346800D01*
X41606640Y-75346800D01*
X41581013Y-75344276D01*
X41562274Y-75338591D01*
X41544998Y-75329357D01*
X41529863Y-75316937D01*
X41517443Y-75301802D01*
X41508209Y-75284526D01*
X41502524Y-75265787D01*
X41500000Y-75240160D01*
X41500000Y-73826440D01*
X41502524Y-73800813D01*
X41508209Y-73782074D01*
X41517443Y-73764798D01*
X41529863Y-73749663D01*
X41544998Y-73737243D01*
X41562274Y-73728009D01*
X41581013Y-73722324D01*
X41606640Y-73719800D01*
X42045360Y-73719800D01*
X42070987Y-73722324D01*
X42070987Y-73722324D01*
G37*
G36*
X66931197Y-72968747D02*
X66966767Y-72979537D01*
X66999539Y-72997054D01*
X67028269Y-73020631D01*
X67051846Y-73049361D01*
X67069363Y-73082133D01*
X67080153Y-73117703D01*
X67084400Y-73160824D01*
X67084400Y-74220176D01*
X67080153Y-74263297D01*
X67069363Y-74298867D01*
X67051846Y-74331639D01*
X67028269Y-74360369D01*
X66999539Y-74383946D01*
X66966767Y-74401463D01*
X66931197Y-74412253D01*
X66888076Y-74416500D01*
X65778724Y-74416500D01*
X65735603Y-74412253D01*
X65700033Y-74401463D01*
X65667261Y-74383946D01*
X65638531Y-74360369D01*
X65614954Y-74331639D01*
X65597437Y-74298867D01*
X65586647Y-74263297D01*
X65582400Y-74220176D01*
X65582400Y-73160824D01*
X65586647Y-73117703D01*
X65597437Y-73082133D01*
X65614954Y-73049361D01*
X65638531Y-73020631D01*
X65667261Y-72997054D01*
X65700033Y-72979537D01*
X65735603Y-72968747D01*
X65778724Y-72964500D01*
X66888076Y-72964500D01*
X66931197Y-72968747D01*
X66931197Y-72968747D01*
G37*
G36*
X64231197Y-72968747D02*
X64266767Y-72979537D01*
X64299539Y-72997054D01*
X64328269Y-73020631D01*
X64351846Y-73049361D01*
X64369363Y-73082133D01*
X64380153Y-73117703D01*
X64384400Y-73160824D01*
X64384400Y-74220176D01*
X64380153Y-74263297D01*
X64369363Y-74298867D01*
X64351846Y-74331639D01*
X64328269Y-74360369D01*
X64299539Y-74383946D01*
X64266767Y-74401463D01*
X64231197Y-74412253D01*
X64188076Y-74416500D01*
X63078724Y-74416500D01*
X63035603Y-74412253D01*
X63000033Y-74401463D01*
X62967261Y-74383946D01*
X62938531Y-74360369D01*
X62914954Y-74331639D01*
X62897437Y-74298867D01*
X62886647Y-74263297D01*
X62882400Y-74220176D01*
X62882400Y-73160824D01*
X62886647Y-73117703D01*
X62897437Y-73082133D01*
X62914954Y-73049361D01*
X62938531Y-73020631D01*
X62967261Y-72997054D01*
X63000033Y-72979537D01*
X63035603Y-72968747D01*
X63078724Y-72964500D01*
X64188076Y-72964500D01*
X64231197Y-72968747D01*
X64231197Y-72968747D01*
G37*
G36*
X71989597Y-72958547D02*
X72025167Y-72969337D01*
X72057939Y-72986854D01*
X72086669Y-73010431D01*
X72110246Y-73039161D01*
X72127763Y-73071933D01*
X72138553Y-73107503D01*
X72142800Y-73150624D01*
X72142800Y-74209976D01*
X72138553Y-74253097D01*
X72127763Y-74288667D01*
X72110246Y-74321439D01*
X72086669Y-74350169D01*
X72057939Y-74373746D01*
X72025167Y-74391263D01*
X71989597Y-74402053D01*
X71946476Y-74406300D01*
X70837124Y-74406300D01*
X70794003Y-74402053D01*
X70758433Y-74391263D01*
X70725661Y-74373746D01*
X70696931Y-74350169D01*
X70673354Y-74321439D01*
X70655837Y-74288667D01*
X70645047Y-74253097D01*
X70640800Y-74209976D01*
X70640800Y-73150624D01*
X70645047Y-73107503D01*
X70655837Y-73071933D01*
X70673354Y-73039161D01*
X70696931Y-73010431D01*
X70725661Y-72986854D01*
X70758433Y-72969337D01*
X70794003Y-72958547D01*
X70837124Y-72954300D01*
X71946476Y-72954300D01*
X71989597Y-72958547D01*
X71989597Y-72958547D01*
G37*
G36*
X69289597Y-72958547D02*
X69325167Y-72969337D01*
X69357939Y-72986854D01*
X69386669Y-73010431D01*
X69410246Y-73039161D01*
X69427763Y-73071933D01*
X69438553Y-73107503D01*
X69442800Y-73150624D01*
X69442800Y-74209976D01*
X69438553Y-74253097D01*
X69427763Y-74288667D01*
X69410246Y-74321439D01*
X69386669Y-74350169D01*
X69357939Y-74373746D01*
X69325167Y-74391263D01*
X69289597Y-74402053D01*
X69246476Y-74406300D01*
X68137124Y-74406300D01*
X68094003Y-74402053D01*
X68058433Y-74391263D01*
X68025661Y-74373746D01*
X67996931Y-74350169D01*
X67973354Y-74321439D01*
X67955837Y-74288667D01*
X67945047Y-74253097D01*
X67940800Y-74209976D01*
X67940800Y-73150624D01*
X67945047Y-73107503D01*
X67955837Y-73071933D01*
X67973354Y-73039161D01*
X67996931Y-73010431D01*
X68025661Y-72986854D01*
X68058433Y-72969337D01*
X68094003Y-72958547D01*
X68137124Y-72954300D01*
X69246476Y-72954300D01*
X69289597Y-72958547D01*
X69289597Y-72958547D01*
G37*
G36*
X68392300Y-70408600D02*
X64490300Y-70408600D01*
X64490300Y-68306600D01*
X68392300Y-68306600D01*
X68392300Y-70408600D01*
X68392300Y-70408600D01*
G37*
G36*
X82912628Y-68036803D02*
X83067500Y-68100953D01*
X83206881Y-68194085D01*
X83325415Y-68312619D01*
X83418547Y-68452000D01*
X83482697Y-68606872D01*
X83515400Y-68771284D01*
X83515400Y-68938916D01*
X83482697Y-69103328D01*
X83418547Y-69258200D01*
X83325415Y-69397581D01*
X83206881Y-69516115D01*
X83067500Y-69609247D01*
X82912628Y-69673397D01*
X82748216Y-69706100D01*
X82580584Y-69706100D01*
X82416172Y-69673397D01*
X82261300Y-69609247D01*
X82121919Y-69516115D01*
X82003385Y-69397581D01*
X81910253Y-69258200D01*
X81846103Y-69103328D01*
X81813400Y-68938916D01*
X81813400Y-68771284D01*
X81846103Y-68606872D01*
X81910253Y-68452000D01*
X82003385Y-68312619D01*
X82121919Y-68194085D01*
X82261300Y-68100953D01*
X82416172Y-68036803D01*
X82580584Y-68004100D01*
X82748216Y-68004100D01*
X82912628Y-68036803D01*
X82912628Y-68036803D01*
G37*
G36*
X78952628Y-68036803D02*
X79107500Y-68100953D01*
X79246881Y-68194085D01*
X79365415Y-68312619D01*
X79458547Y-68452000D01*
X79522697Y-68606872D01*
X79555400Y-68771284D01*
X79555400Y-68938916D01*
X79522697Y-69103328D01*
X79458547Y-69258200D01*
X79365415Y-69397581D01*
X79246881Y-69516115D01*
X79107500Y-69609247D01*
X78952628Y-69673397D01*
X78788216Y-69706100D01*
X78620584Y-69706100D01*
X78456172Y-69673397D01*
X78301300Y-69609247D01*
X78161919Y-69516115D01*
X78043385Y-69397581D01*
X77950253Y-69258200D01*
X77886103Y-69103328D01*
X77853400Y-68938916D01*
X77853400Y-68771284D01*
X77886103Y-68606872D01*
X77950253Y-68452000D01*
X78043385Y-68312619D01*
X78161919Y-68194085D01*
X78301300Y-68100953D01*
X78456172Y-68036803D01*
X78620584Y-68004100D01*
X78788216Y-68004100D01*
X78952628Y-68036803D01*
X78952628Y-68036803D01*
G37*
G36*
X80932628Y-66891803D02*
X81087500Y-66955953D01*
X81226881Y-67049085D01*
X81345415Y-67167619D01*
X81438547Y-67307000D01*
X81502697Y-67461872D01*
X81535400Y-67626284D01*
X81535400Y-67793916D01*
X81502697Y-67958328D01*
X81438547Y-68113200D01*
X81345415Y-68252581D01*
X81226881Y-68371115D01*
X81087500Y-68464247D01*
X80932628Y-68528397D01*
X80768216Y-68561100D01*
X80600584Y-68561100D01*
X80436172Y-68528397D01*
X80281300Y-68464247D01*
X80141919Y-68371115D01*
X80023385Y-68252581D01*
X79930253Y-68113200D01*
X79866103Y-67958328D01*
X79833400Y-67793916D01*
X79833400Y-67626284D01*
X79866103Y-67461872D01*
X79930253Y-67307000D01*
X80023385Y-67167619D01*
X80141919Y-67049085D01*
X80281300Y-66955953D01*
X80436172Y-66891803D01*
X80600584Y-66859100D01*
X80768216Y-66859100D01*
X80932628Y-66891803D01*
X80932628Y-66891803D01*
G37*
G36*
X82912628Y-65746803D02*
X83067500Y-65810953D01*
X83206881Y-65904085D01*
X83325415Y-66022619D01*
X83418547Y-66162000D01*
X83482697Y-66316872D01*
X83515400Y-66481284D01*
X83515400Y-66648916D01*
X83482697Y-66813328D01*
X83418547Y-66968200D01*
X83325415Y-67107581D01*
X83206881Y-67226115D01*
X83067500Y-67319247D01*
X82912628Y-67383397D01*
X82748216Y-67416100D01*
X82580584Y-67416100D01*
X82416172Y-67383397D01*
X82261300Y-67319247D01*
X82121919Y-67226115D01*
X82003385Y-67107581D01*
X81910253Y-66968200D01*
X81846103Y-66813328D01*
X81813400Y-66648916D01*
X81813400Y-66481284D01*
X81846103Y-66316872D01*
X81910253Y-66162000D01*
X82003385Y-66022619D01*
X82121919Y-65904085D01*
X82261300Y-65810953D01*
X82416172Y-65746803D01*
X82580584Y-65714100D01*
X82748216Y-65714100D01*
X82912628Y-65746803D01*
X82912628Y-65746803D01*
G37*
G36*
X78952628Y-65746803D02*
X79107500Y-65810953D01*
X79246881Y-65904085D01*
X79365415Y-66022619D01*
X79458547Y-66162000D01*
X79522697Y-66316872D01*
X79555400Y-66481284D01*
X79555400Y-66648916D01*
X79522697Y-66813328D01*
X79458547Y-66968200D01*
X79365415Y-67107581D01*
X79246881Y-67226115D01*
X79107500Y-67319247D01*
X78952628Y-67383397D01*
X78788216Y-67416100D01*
X78620584Y-67416100D01*
X78456172Y-67383397D01*
X78301300Y-67319247D01*
X78161919Y-67226115D01*
X78043385Y-67107581D01*
X77950253Y-66968200D01*
X77886103Y-66813328D01*
X77853400Y-66648916D01*
X77853400Y-66481284D01*
X77886103Y-66316872D01*
X77950253Y-66162000D01*
X78043385Y-66022619D01*
X78161919Y-65904085D01*
X78301300Y-65810953D01*
X78456172Y-65746803D01*
X78620584Y-65714100D01*
X78788216Y-65714100D01*
X78952628Y-65746803D01*
X78952628Y-65746803D01*
G37*
G36*
X80932628Y-64601803D02*
X81087500Y-64665953D01*
X81226881Y-64759085D01*
X81345415Y-64877619D01*
X81438547Y-65017000D01*
X81502697Y-65171872D01*
X81535400Y-65336284D01*
X81535400Y-65503916D01*
X81502697Y-65668328D01*
X81438547Y-65823200D01*
X81345415Y-65962581D01*
X81226881Y-66081115D01*
X81087500Y-66174247D01*
X80932628Y-66238397D01*
X80768216Y-66271100D01*
X80600584Y-66271100D01*
X80436172Y-66238397D01*
X80281300Y-66174247D01*
X80141919Y-66081115D01*
X80023385Y-65962581D01*
X79930253Y-65823200D01*
X79866103Y-65668328D01*
X79833400Y-65503916D01*
X79833400Y-65336284D01*
X79866103Y-65171872D01*
X79930253Y-65017000D01*
X80023385Y-64877619D01*
X80141919Y-64759085D01*
X80281300Y-64665953D01*
X80436172Y-64601803D01*
X80600584Y-64569100D01*
X80768216Y-64569100D01*
X80932628Y-64601803D01*
X80932628Y-64601803D01*
G37*
G36*
X78952628Y-63456803D02*
X79107500Y-63520953D01*
X79246881Y-63614085D01*
X79365415Y-63732619D01*
X79458547Y-63872000D01*
X79522697Y-64026872D01*
X79555400Y-64191284D01*
X79555400Y-64358916D01*
X79522697Y-64523328D01*
X79458547Y-64678200D01*
X79365415Y-64817581D01*
X79246881Y-64936115D01*
X79107500Y-65029247D01*
X78952628Y-65093397D01*
X78788216Y-65126100D01*
X78620584Y-65126100D01*
X78456172Y-65093397D01*
X78301300Y-65029247D01*
X78161919Y-64936115D01*
X78043385Y-64817581D01*
X77950253Y-64678200D01*
X77886103Y-64523328D01*
X77853400Y-64358916D01*
X77853400Y-64191284D01*
X77886103Y-64026872D01*
X77950253Y-63872000D01*
X78043385Y-63732619D01*
X78161919Y-63614085D01*
X78301300Y-63520953D01*
X78456172Y-63456803D01*
X78620584Y-63424100D01*
X78788216Y-63424100D01*
X78952628Y-63456803D01*
X78952628Y-63456803D01*
G37*
G36*
X82912628Y-63456803D02*
X83067500Y-63520953D01*
X83206881Y-63614085D01*
X83325415Y-63732619D01*
X83418547Y-63872000D01*
X83482697Y-64026872D01*
X83515400Y-64191284D01*
X83515400Y-64358916D01*
X83482697Y-64523328D01*
X83418547Y-64678200D01*
X83325415Y-64817581D01*
X83206881Y-64936115D01*
X83067500Y-65029247D01*
X82912628Y-65093397D01*
X82748216Y-65126100D01*
X82580584Y-65126100D01*
X82416172Y-65093397D01*
X82261300Y-65029247D01*
X82121919Y-64936115D01*
X82003385Y-64817581D01*
X81910253Y-64678200D01*
X81846103Y-64523328D01*
X81813400Y-64358916D01*
X81813400Y-64191284D01*
X81846103Y-64026872D01*
X81910253Y-63872000D01*
X82003385Y-63732619D01*
X82121919Y-63614085D01*
X82261300Y-63520953D01*
X82416172Y-63456803D01*
X82580584Y-63424100D01*
X82748216Y-63424100D01*
X82912628Y-63456803D01*
X82912628Y-63456803D01*
G37*
G36*
X42070987Y-62547324D02*
X42089726Y-62553009D01*
X42107002Y-62562243D01*
X42122136Y-62574662D01*
X42129371Y-62583479D01*
X42146698Y-62600807D01*
X42167072Y-62614421D01*
X42189711Y-62623799D01*
X42213744Y-62628581D01*
X42238248Y-62628581D01*
X42262282Y-62623802D01*
X42284921Y-62614425D01*
X42305296Y-62600812D01*
X42322629Y-62583479D01*
X42329864Y-62574662D01*
X42344998Y-62562243D01*
X42362274Y-62553009D01*
X42381013Y-62547324D01*
X42406640Y-62544800D01*
X42845360Y-62544800D01*
X42870987Y-62547324D01*
X42889726Y-62553009D01*
X42907002Y-62562243D01*
X42922136Y-62574662D01*
X42929371Y-62583479D01*
X42946698Y-62600807D01*
X42967072Y-62614421D01*
X42989711Y-62623799D01*
X43013744Y-62628581D01*
X43038248Y-62628581D01*
X43062282Y-62623802D01*
X43084921Y-62614425D01*
X43105296Y-62600812D01*
X43122629Y-62583479D01*
X43129864Y-62574662D01*
X43144998Y-62562243D01*
X43162274Y-62553009D01*
X43181013Y-62547324D01*
X43206640Y-62544800D01*
X43645360Y-62544800D01*
X43670987Y-62547324D01*
X43689726Y-62553009D01*
X43707002Y-62562243D01*
X43722136Y-62574662D01*
X43729371Y-62583479D01*
X43746698Y-62600807D01*
X43767072Y-62614421D01*
X43789711Y-62623799D01*
X43813744Y-62628581D01*
X43838248Y-62628581D01*
X43862282Y-62623802D01*
X43884921Y-62614425D01*
X43905296Y-62600812D01*
X43922629Y-62583479D01*
X43929864Y-62574662D01*
X43944998Y-62562243D01*
X43962274Y-62553009D01*
X43981013Y-62547324D01*
X44006640Y-62544800D01*
X44445360Y-62544800D01*
X44470987Y-62547324D01*
X44489726Y-62553009D01*
X44507002Y-62562243D01*
X44522136Y-62574662D01*
X44529371Y-62583479D01*
X44546698Y-62600807D01*
X44567072Y-62614421D01*
X44589711Y-62623799D01*
X44613744Y-62628581D01*
X44638248Y-62628581D01*
X44662282Y-62623802D01*
X44684921Y-62614425D01*
X44705296Y-62600812D01*
X44722629Y-62583479D01*
X44729864Y-62574662D01*
X44744998Y-62562243D01*
X44762274Y-62553009D01*
X44781013Y-62547324D01*
X44806640Y-62544800D01*
X45245360Y-62544800D01*
X45270987Y-62547324D01*
X45289726Y-62553009D01*
X45307002Y-62562243D01*
X45322136Y-62574662D01*
X45329371Y-62583479D01*
X45346698Y-62600807D01*
X45367072Y-62614421D01*
X45389711Y-62623799D01*
X45413744Y-62628581D01*
X45438248Y-62628581D01*
X45462282Y-62623802D01*
X45484921Y-62614425D01*
X45505296Y-62600812D01*
X45522629Y-62583479D01*
X45529864Y-62574662D01*
X45544998Y-62562243D01*
X45562274Y-62553009D01*
X45581013Y-62547324D01*
X45606640Y-62544800D01*
X46045360Y-62544800D01*
X46070987Y-62547324D01*
X46089726Y-62553009D01*
X46107002Y-62562243D01*
X46122136Y-62574662D01*
X46129371Y-62583479D01*
X46146698Y-62600807D01*
X46167072Y-62614421D01*
X46189711Y-62623799D01*
X46213744Y-62628581D01*
X46238248Y-62628581D01*
X46262282Y-62623802D01*
X46284921Y-62614425D01*
X46305296Y-62600812D01*
X46322629Y-62583479D01*
X46329864Y-62574662D01*
X46344998Y-62562243D01*
X46362274Y-62553009D01*
X46381013Y-62547324D01*
X46406640Y-62544800D01*
X46845360Y-62544800D01*
X46870987Y-62547324D01*
X46889726Y-62553009D01*
X46907002Y-62562243D01*
X46922136Y-62574662D01*
X46929371Y-62583479D01*
X46946698Y-62600807D01*
X46967072Y-62614421D01*
X46989711Y-62623799D01*
X47013744Y-62628581D01*
X47038248Y-62628581D01*
X47062282Y-62623802D01*
X47084921Y-62614425D01*
X47105296Y-62600812D01*
X47122629Y-62583479D01*
X47129864Y-62574662D01*
X47144998Y-62562243D01*
X47162274Y-62553009D01*
X47181013Y-62547324D01*
X47206640Y-62544800D01*
X47645360Y-62544800D01*
X47670987Y-62547324D01*
X47689726Y-62553009D01*
X47707002Y-62562243D01*
X47722136Y-62574662D01*
X47729371Y-62583479D01*
X47746698Y-62600807D01*
X47767072Y-62614421D01*
X47789711Y-62623799D01*
X47813744Y-62628581D01*
X47838248Y-62628581D01*
X47862282Y-62623802D01*
X47884921Y-62614425D01*
X47905296Y-62600812D01*
X47922629Y-62583479D01*
X47929864Y-62574662D01*
X47944998Y-62562243D01*
X47962274Y-62553009D01*
X47981013Y-62547324D01*
X48006640Y-62544800D01*
X48445360Y-62544800D01*
X48470987Y-62547324D01*
X48489726Y-62553009D01*
X48507002Y-62562243D01*
X48522136Y-62574662D01*
X48529371Y-62583479D01*
X48546698Y-62600807D01*
X48567072Y-62614421D01*
X48589711Y-62623799D01*
X48613744Y-62628581D01*
X48638248Y-62628581D01*
X48662282Y-62623802D01*
X48684921Y-62614425D01*
X48705296Y-62600812D01*
X48722629Y-62583479D01*
X48729864Y-62574662D01*
X48744998Y-62562243D01*
X48762274Y-62553009D01*
X48781013Y-62547324D01*
X48806640Y-62544800D01*
X49245360Y-62544800D01*
X49270987Y-62547324D01*
X49289726Y-62553009D01*
X49307002Y-62562243D01*
X49322136Y-62574662D01*
X49329371Y-62583479D01*
X49346698Y-62600807D01*
X49367072Y-62614421D01*
X49389711Y-62623799D01*
X49413744Y-62628581D01*
X49438248Y-62628581D01*
X49462282Y-62623802D01*
X49484921Y-62614425D01*
X49505296Y-62600812D01*
X49522629Y-62583479D01*
X49529864Y-62574662D01*
X49544998Y-62562243D01*
X49562274Y-62553009D01*
X49581013Y-62547324D01*
X49606640Y-62544800D01*
X50045360Y-62544800D01*
X50070987Y-62547324D01*
X50089726Y-62553009D01*
X50107002Y-62562243D01*
X50122136Y-62574662D01*
X50129371Y-62583479D01*
X50146698Y-62600807D01*
X50167072Y-62614421D01*
X50189711Y-62623799D01*
X50213744Y-62628581D01*
X50238248Y-62628581D01*
X50262282Y-62623802D01*
X50284921Y-62614425D01*
X50305296Y-62600812D01*
X50322629Y-62583479D01*
X50329864Y-62574662D01*
X50344998Y-62562243D01*
X50362274Y-62553009D01*
X50381013Y-62547324D01*
X50406640Y-62544800D01*
X50845360Y-62544800D01*
X50870987Y-62547324D01*
X50889726Y-62553009D01*
X50907002Y-62562243D01*
X50922136Y-62574662D01*
X50929371Y-62583479D01*
X50946698Y-62600807D01*
X50967072Y-62614421D01*
X50989711Y-62623799D01*
X51013744Y-62628581D01*
X51038248Y-62628581D01*
X51062282Y-62623802D01*
X51084921Y-62614425D01*
X51105296Y-62600812D01*
X51122629Y-62583479D01*
X51129864Y-62574662D01*
X51144998Y-62562243D01*
X51162274Y-62553009D01*
X51181013Y-62547324D01*
X51206640Y-62544800D01*
X51645360Y-62544800D01*
X51670987Y-62547324D01*
X51689726Y-62553009D01*
X51707002Y-62562243D01*
X51722136Y-62574662D01*
X51729371Y-62583479D01*
X51746698Y-62600807D01*
X51767072Y-62614421D01*
X51789711Y-62623799D01*
X51813744Y-62628581D01*
X51838248Y-62628581D01*
X51862282Y-62623802D01*
X51884921Y-62614425D01*
X51905296Y-62600812D01*
X51922629Y-62583479D01*
X51929864Y-62574662D01*
X51944998Y-62562243D01*
X51962274Y-62553009D01*
X51981013Y-62547324D01*
X52006640Y-62544800D01*
X52445360Y-62544800D01*
X52470987Y-62547324D01*
X52489726Y-62553009D01*
X52507002Y-62562243D01*
X52522136Y-62574662D01*
X52529371Y-62583479D01*
X52546698Y-62600807D01*
X52567072Y-62614421D01*
X52589711Y-62623799D01*
X52613744Y-62628581D01*
X52638248Y-62628581D01*
X52662282Y-62623802D01*
X52684921Y-62614425D01*
X52705296Y-62600812D01*
X52722629Y-62583479D01*
X52729864Y-62574662D01*
X52744998Y-62562243D01*
X52762274Y-62553009D01*
X52781013Y-62547324D01*
X52806640Y-62544800D01*
X53245360Y-62544800D01*
X53270987Y-62547324D01*
X53289726Y-62553009D01*
X53307002Y-62562243D01*
X53322136Y-62574662D01*
X53329371Y-62583479D01*
X53346698Y-62600807D01*
X53367072Y-62614421D01*
X53389711Y-62623799D01*
X53413744Y-62628581D01*
X53438248Y-62628581D01*
X53462282Y-62623802D01*
X53484921Y-62614425D01*
X53505296Y-62600812D01*
X53522629Y-62583479D01*
X53529864Y-62574662D01*
X53544998Y-62562243D01*
X53562274Y-62553009D01*
X53581013Y-62547324D01*
X53606640Y-62544800D01*
X54045360Y-62544800D01*
X54070987Y-62547324D01*
X54089726Y-62553009D01*
X54107002Y-62562243D01*
X54122136Y-62574662D01*
X54129371Y-62583479D01*
X54146698Y-62600807D01*
X54167072Y-62614421D01*
X54189711Y-62623799D01*
X54213744Y-62628581D01*
X54238248Y-62628581D01*
X54262282Y-62623802D01*
X54284921Y-62614425D01*
X54305296Y-62600812D01*
X54322629Y-62583479D01*
X54329864Y-62574662D01*
X54344998Y-62562243D01*
X54362274Y-62553009D01*
X54381013Y-62547324D01*
X54406640Y-62544800D01*
X54845360Y-62544800D01*
X54870987Y-62547324D01*
X54889726Y-62553009D01*
X54907002Y-62562243D01*
X54922136Y-62574662D01*
X54929371Y-62583479D01*
X54946698Y-62600807D01*
X54967072Y-62614421D01*
X54989711Y-62623799D01*
X55013744Y-62628581D01*
X55038248Y-62628581D01*
X55062282Y-62623802D01*
X55084921Y-62614425D01*
X55105296Y-62600812D01*
X55122629Y-62583479D01*
X55129864Y-62574662D01*
X55144998Y-62562243D01*
X55162274Y-62553009D01*
X55181013Y-62547324D01*
X55206640Y-62544800D01*
X55645360Y-62544800D01*
X55670987Y-62547324D01*
X55689726Y-62553009D01*
X55707002Y-62562243D01*
X55722136Y-62574662D01*
X55729371Y-62583479D01*
X55746698Y-62600807D01*
X55767072Y-62614421D01*
X55789711Y-62623799D01*
X55813744Y-62628581D01*
X55838248Y-62628581D01*
X55862282Y-62623802D01*
X55884921Y-62614425D01*
X55905296Y-62600812D01*
X55922629Y-62583479D01*
X55929864Y-62574662D01*
X55944998Y-62562243D01*
X55962274Y-62553009D01*
X55981013Y-62547324D01*
X56006640Y-62544800D01*
X56445360Y-62544800D01*
X56470987Y-62547324D01*
X56489726Y-62553009D01*
X56507002Y-62562243D01*
X56522136Y-62574662D01*
X56529371Y-62583479D01*
X56546698Y-62600807D01*
X56567072Y-62614421D01*
X56589711Y-62623799D01*
X56613744Y-62628581D01*
X56638248Y-62628581D01*
X56662282Y-62623802D01*
X56684921Y-62614425D01*
X56705296Y-62600812D01*
X56722629Y-62583479D01*
X56729864Y-62574662D01*
X56744998Y-62562243D01*
X56762274Y-62553009D01*
X56781013Y-62547324D01*
X56806640Y-62544800D01*
X57245360Y-62544800D01*
X57270987Y-62547324D01*
X57289726Y-62553009D01*
X57307002Y-62562243D01*
X57322136Y-62574662D01*
X57329371Y-62583479D01*
X57346698Y-62600807D01*
X57367072Y-62614421D01*
X57389711Y-62623799D01*
X57413744Y-62628581D01*
X57438248Y-62628581D01*
X57462282Y-62623802D01*
X57484921Y-62614425D01*
X57505296Y-62600812D01*
X57522629Y-62583479D01*
X57529864Y-62574662D01*
X57544998Y-62562243D01*
X57562274Y-62553009D01*
X57581013Y-62547324D01*
X57606640Y-62544800D01*
X58045360Y-62544800D01*
X58070987Y-62547324D01*
X58089726Y-62553009D01*
X58107002Y-62562243D01*
X58122136Y-62574662D01*
X58129371Y-62583479D01*
X58146698Y-62600807D01*
X58167072Y-62614421D01*
X58189711Y-62623799D01*
X58213744Y-62628581D01*
X58238248Y-62628581D01*
X58262282Y-62623802D01*
X58284921Y-62614425D01*
X58305296Y-62600812D01*
X58322629Y-62583479D01*
X58329864Y-62574662D01*
X58344998Y-62562243D01*
X58362274Y-62553009D01*
X58381013Y-62547324D01*
X58406640Y-62544800D01*
X58845360Y-62544800D01*
X58870987Y-62547324D01*
X58889726Y-62553009D01*
X58907002Y-62562243D01*
X58922137Y-62574663D01*
X58934557Y-62589798D01*
X58943791Y-62607074D01*
X58949476Y-62625813D01*
X58952000Y-62651440D01*
X58952000Y-64065160D01*
X58949476Y-64090787D01*
X58943791Y-64109526D01*
X58934557Y-64126802D01*
X58922137Y-64141937D01*
X58907002Y-64154357D01*
X58889726Y-64163591D01*
X58870987Y-64169276D01*
X58845360Y-64171800D01*
X58406640Y-64171800D01*
X58381013Y-64169276D01*
X58362274Y-64163591D01*
X58344998Y-64154357D01*
X58329864Y-64141938D01*
X58322629Y-64133121D01*
X58305302Y-64115793D01*
X58284928Y-64102179D01*
X58262289Y-64092801D01*
X58238256Y-64088019D01*
X58213752Y-64088019D01*
X58189718Y-64092798D01*
X58167079Y-64102175D01*
X58146704Y-64115788D01*
X58129371Y-64133121D01*
X58122136Y-64141938D01*
X58107002Y-64154357D01*
X58089726Y-64163591D01*
X58070987Y-64169276D01*
X58045360Y-64171800D01*
X57606640Y-64171800D01*
X57581013Y-64169276D01*
X57562274Y-64163591D01*
X57544998Y-64154357D01*
X57529864Y-64141938D01*
X57522629Y-64133121D01*
X57505302Y-64115793D01*
X57484928Y-64102179D01*
X57462289Y-64092801D01*
X57438256Y-64088019D01*
X57413752Y-64088019D01*
X57389718Y-64092798D01*
X57367079Y-64102175D01*
X57346704Y-64115788D01*
X57329371Y-64133121D01*
X57322136Y-64141938D01*
X57307002Y-64154357D01*
X57289726Y-64163591D01*
X57270987Y-64169276D01*
X57245360Y-64171800D01*
X56806640Y-64171800D01*
X56781013Y-64169276D01*
X56762274Y-64163591D01*
X56744998Y-64154357D01*
X56729864Y-64141938D01*
X56722629Y-64133121D01*
X56705302Y-64115793D01*
X56684928Y-64102179D01*
X56662289Y-64092801D01*
X56638256Y-64088019D01*
X56613752Y-64088019D01*
X56589718Y-64092798D01*
X56567079Y-64102175D01*
X56546704Y-64115788D01*
X56529371Y-64133121D01*
X56522136Y-64141938D01*
X56507002Y-64154357D01*
X56489726Y-64163591D01*
X56470987Y-64169276D01*
X56445360Y-64171800D01*
X56006640Y-64171800D01*
X55981013Y-64169276D01*
X55962274Y-64163591D01*
X55944998Y-64154357D01*
X55929864Y-64141938D01*
X55922629Y-64133121D01*
X55905302Y-64115793D01*
X55884928Y-64102179D01*
X55862289Y-64092801D01*
X55838256Y-64088019D01*
X55813752Y-64088019D01*
X55789718Y-64092798D01*
X55767079Y-64102175D01*
X55746704Y-64115788D01*
X55729371Y-64133121D01*
X55722136Y-64141938D01*
X55707002Y-64154357D01*
X55689726Y-64163591D01*
X55670987Y-64169276D01*
X55645360Y-64171800D01*
X55206640Y-64171800D01*
X55181013Y-64169276D01*
X55162274Y-64163591D01*
X55144998Y-64154357D01*
X55129864Y-64141938D01*
X55122629Y-64133121D01*
X55105302Y-64115793D01*
X55084928Y-64102179D01*
X55062289Y-64092801D01*
X55038256Y-64088019D01*
X55013752Y-64088019D01*
X54989718Y-64092798D01*
X54967079Y-64102175D01*
X54946704Y-64115788D01*
X54929371Y-64133121D01*
X54922136Y-64141938D01*
X54907002Y-64154357D01*
X54889726Y-64163591D01*
X54870987Y-64169276D01*
X54845360Y-64171800D01*
X54406640Y-64171800D01*
X54381013Y-64169276D01*
X54362274Y-64163591D01*
X54344998Y-64154357D01*
X54329864Y-64141938D01*
X54322629Y-64133121D01*
X54305302Y-64115793D01*
X54284928Y-64102179D01*
X54262289Y-64092801D01*
X54238256Y-64088019D01*
X54213752Y-64088019D01*
X54189718Y-64092798D01*
X54167079Y-64102175D01*
X54146704Y-64115788D01*
X54129371Y-64133121D01*
X54122136Y-64141938D01*
X54107002Y-64154357D01*
X54089726Y-64163591D01*
X54070987Y-64169276D01*
X54045360Y-64171800D01*
X53606640Y-64171800D01*
X53581013Y-64169276D01*
X53562274Y-64163591D01*
X53544998Y-64154357D01*
X53529864Y-64141938D01*
X53522629Y-64133121D01*
X53505302Y-64115793D01*
X53484928Y-64102179D01*
X53462289Y-64092801D01*
X53438256Y-64088019D01*
X53413752Y-64088019D01*
X53389718Y-64092798D01*
X53367079Y-64102175D01*
X53346704Y-64115788D01*
X53329371Y-64133121D01*
X53322136Y-64141938D01*
X53307002Y-64154357D01*
X53289726Y-64163591D01*
X53270987Y-64169276D01*
X53245360Y-64171800D01*
X52806640Y-64171800D01*
X52781013Y-64169276D01*
X52762274Y-64163591D01*
X52744998Y-64154357D01*
X52729864Y-64141938D01*
X52722629Y-64133121D01*
X52705302Y-64115793D01*
X52684928Y-64102179D01*
X52662289Y-64092801D01*
X52638256Y-64088019D01*
X52613752Y-64088019D01*
X52589718Y-64092798D01*
X52567079Y-64102175D01*
X52546704Y-64115788D01*
X52529371Y-64133121D01*
X52522136Y-64141938D01*
X52507002Y-64154357D01*
X52489726Y-64163591D01*
X52470987Y-64169276D01*
X52445360Y-64171800D01*
X52006640Y-64171800D01*
X51981013Y-64169276D01*
X51962274Y-64163591D01*
X51944998Y-64154357D01*
X51929864Y-64141938D01*
X51922629Y-64133121D01*
X51905302Y-64115793D01*
X51884928Y-64102179D01*
X51862289Y-64092801D01*
X51838256Y-64088019D01*
X51813752Y-64088019D01*
X51789718Y-64092798D01*
X51767079Y-64102175D01*
X51746704Y-64115788D01*
X51729371Y-64133121D01*
X51722136Y-64141938D01*
X51707002Y-64154357D01*
X51689726Y-64163591D01*
X51670987Y-64169276D01*
X51645360Y-64171800D01*
X51206640Y-64171800D01*
X51181013Y-64169276D01*
X51162274Y-64163591D01*
X51144998Y-64154357D01*
X51129864Y-64141938D01*
X51122629Y-64133121D01*
X51105302Y-64115793D01*
X51084928Y-64102179D01*
X51062289Y-64092801D01*
X51038256Y-64088019D01*
X51013752Y-64088019D01*
X50989718Y-64092798D01*
X50967079Y-64102175D01*
X50946704Y-64115788D01*
X50929371Y-64133121D01*
X50922136Y-64141938D01*
X50907002Y-64154357D01*
X50889726Y-64163591D01*
X50870987Y-64169276D01*
X50845360Y-64171800D01*
X50406640Y-64171800D01*
X50381013Y-64169276D01*
X50362274Y-64163591D01*
X50344998Y-64154357D01*
X50329864Y-64141938D01*
X50322629Y-64133121D01*
X50305302Y-64115793D01*
X50284928Y-64102179D01*
X50262289Y-64092801D01*
X50238256Y-64088019D01*
X50213752Y-64088019D01*
X50189718Y-64092798D01*
X50167079Y-64102175D01*
X50146704Y-64115788D01*
X50129371Y-64133121D01*
X50122136Y-64141938D01*
X50107002Y-64154357D01*
X50089726Y-64163591D01*
X50070987Y-64169276D01*
X50045360Y-64171800D01*
X49606640Y-64171800D01*
X49581013Y-64169276D01*
X49562274Y-64163591D01*
X49544998Y-64154357D01*
X49529864Y-64141938D01*
X49522629Y-64133121D01*
X49505302Y-64115793D01*
X49484928Y-64102179D01*
X49462289Y-64092801D01*
X49438256Y-64088019D01*
X49413752Y-64088019D01*
X49389718Y-64092798D01*
X49367079Y-64102175D01*
X49346704Y-64115788D01*
X49329371Y-64133121D01*
X49322136Y-64141938D01*
X49307002Y-64154357D01*
X49289726Y-64163591D01*
X49270987Y-64169276D01*
X49245360Y-64171800D01*
X48806640Y-64171800D01*
X48781013Y-64169276D01*
X48762274Y-64163591D01*
X48744998Y-64154357D01*
X48729864Y-64141938D01*
X48722629Y-64133121D01*
X48705302Y-64115793D01*
X48684928Y-64102179D01*
X48662289Y-64092801D01*
X48638256Y-64088019D01*
X48613752Y-64088019D01*
X48589718Y-64092798D01*
X48567079Y-64102175D01*
X48546704Y-64115788D01*
X48529371Y-64133121D01*
X48522136Y-64141938D01*
X48507002Y-64154357D01*
X48489726Y-64163591D01*
X48470987Y-64169276D01*
X48445360Y-64171800D01*
X48006640Y-64171800D01*
X47981013Y-64169276D01*
X47962274Y-64163591D01*
X47944998Y-64154357D01*
X47929864Y-64141938D01*
X47922629Y-64133121D01*
X47905302Y-64115793D01*
X47884928Y-64102179D01*
X47862289Y-64092801D01*
X47838256Y-64088019D01*
X47813752Y-64088019D01*
X47789718Y-64092798D01*
X47767079Y-64102175D01*
X47746704Y-64115788D01*
X47729371Y-64133121D01*
X47722136Y-64141938D01*
X47707002Y-64154357D01*
X47689726Y-64163591D01*
X47670987Y-64169276D01*
X47645360Y-64171800D01*
X47206640Y-64171800D01*
X47181013Y-64169276D01*
X47162274Y-64163591D01*
X47144998Y-64154357D01*
X47129864Y-64141938D01*
X47122629Y-64133121D01*
X47105302Y-64115793D01*
X47084928Y-64102179D01*
X47062289Y-64092801D01*
X47038256Y-64088019D01*
X47013752Y-64088019D01*
X46989718Y-64092798D01*
X46967079Y-64102175D01*
X46946704Y-64115788D01*
X46929371Y-64133121D01*
X46922136Y-64141938D01*
X46907002Y-64154357D01*
X46889726Y-64163591D01*
X46870987Y-64169276D01*
X46845360Y-64171800D01*
X46406640Y-64171800D01*
X46381013Y-64169276D01*
X46362274Y-64163591D01*
X46344998Y-64154357D01*
X46329864Y-64141938D01*
X46322629Y-64133121D01*
X46305302Y-64115793D01*
X46284928Y-64102179D01*
X46262289Y-64092801D01*
X46238256Y-64088019D01*
X46213752Y-64088019D01*
X46189718Y-64092798D01*
X46167079Y-64102175D01*
X46146704Y-64115788D01*
X46129371Y-64133121D01*
X46122136Y-64141938D01*
X46107002Y-64154357D01*
X46089726Y-64163591D01*
X46070987Y-64169276D01*
X46045360Y-64171800D01*
X45606640Y-64171800D01*
X45581013Y-64169276D01*
X45562274Y-64163591D01*
X45544998Y-64154357D01*
X45529864Y-64141938D01*
X45522629Y-64133121D01*
X45505302Y-64115793D01*
X45484928Y-64102179D01*
X45462289Y-64092801D01*
X45438256Y-64088019D01*
X45413752Y-64088019D01*
X45389718Y-64092798D01*
X45367079Y-64102175D01*
X45346704Y-64115788D01*
X45329371Y-64133121D01*
X45322136Y-64141938D01*
X45307002Y-64154357D01*
X45289726Y-64163591D01*
X45270987Y-64169276D01*
X45245360Y-64171800D01*
X44806640Y-64171800D01*
X44781013Y-64169276D01*
X44762274Y-64163591D01*
X44744998Y-64154357D01*
X44729864Y-64141938D01*
X44722629Y-64133121D01*
X44705302Y-64115793D01*
X44684928Y-64102179D01*
X44662289Y-64092801D01*
X44638256Y-64088019D01*
X44613752Y-64088019D01*
X44589718Y-64092798D01*
X44567079Y-64102175D01*
X44546704Y-64115788D01*
X44529371Y-64133121D01*
X44522136Y-64141938D01*
X44507002Y-64154357D01*
X44489726Y-64163591D01*
X44470987Y-64169276D01*
X44445360Y-64171800D01*
X44006640Y-64171800D01*
X43981013Y-64169276D01*
X43962274Y-64163591D01*
X43944998Y-64154357D01*
X43929864Y-64141938D01*
X43922629Y-64133121D01*
X43905302Y-64115793D01*
X43884928Y-64102179D01*
X43862289Y-64092801D01*
X43838256Y-64088019D01*
X43813752Y-64088019D01*
X43789718Y-64092798D01*
X43767079Y-64102175D01*
X43746704Y-64115788D01*
X43729371Y-64133121D01*
X43722136Y-64141938D01*
X43707002Y-64154357D01*
X43689726Y-64163591D01*
X43670987Y-64169276D01*
X43645360Y-64171800D01*
X43206640Y-64171800D01*
X43181013Y-64169276D01*
X43162274Y-64163591D01*
X43144998Y-64154357D01*
X43129864Y-64141938D01*
X43122629Y-64133121D01*
X43105302Y-64115793D01*
X43084928Y-64102179D01*
X43062289Y-64092801D01*
X43038256Y-64088019D01*
X43013752Y-64088019D01*
X42989718Y-64092798D01*
X42967079Y-64102175D01*
X42946704Y-64115788D01*
X42929371Y-64133121D01*
X42922136Y-64141938D01*
X42907002Y-64154357D01*
X42889726Y-64163591D01*
X42870987Y-64169276D01*
X42845360Y-64171800D01*
X42406640Y-64171800D01*
X42381013Y-64169276D01*
X42362274Y-64163591D01*
X42344998Y-64154357D01*
X42329864Y-64141938D01*
X42322629Y-64133121D01*
X42305302Y-64115793D01*
X42284928Y-64102179D01*
X42262289Y-64092801D01*
X42238256Y-64088019D01*
X42213752Y-64088019D01*
X42189718Y-64092798D01*
X42167079Y-64102175D01*
X42146704Y-64115788D01*
X42129371Y-64133121D01*
X42122136Y-64141938D01*
X42107002Y-64154357D01*
X42089726Y-64163591D01*
X42070987Y-64169276D01*
X42045360Y-64171800D01*
X41606640Y-64171800D01*
X41581013Y-64169276D01*
X41562274Y-64163591D01*
X41544998Y-64154357D01*
X41529863Y-64141937D01*
X41517443Y-64126802D01*
X41508209Y-64109526D01*
X41502524Y-64090787D01*
X41500000Y-64065160D01*
X41500000Y-62651440D01*
X41502524Y-62625813D01*
X41508209Y-62607074D01*
X41517443Y-62589798D01*
X41529863Y-62574663D01*
X41544998Y-62562243D01*
X41562274Y-62553009D01*
X41581013Y-62547324D01*
X41606640Y-62544800D01*
X42045360Y-62544800D01*
X42070987Y-62547324D01*
X42070987Y-62547324D01*
G37*
G36*
X64942300Y-64108600D02*
X63340300Y-64108600D01*
X63340300Y-62006600D01*
X64942300Y-62006600D01*
X64942300Y-64108600D01*
X64942300Y-64108600D01*
G37*
G36*
X69542300Y-64108600D02*
X67940300Y-64108600D01*
X67940300Y-62006600D01*
X69542300Y-62006600D01*
X69542300Y-64108600D01*
X69542300Y-64108600D01*
G37*
G36*
X67242300Y-64108600D02*
X65640300Y-64108600D01*
X65640300Y-62006600D01*
X67242300Y-62006600D01*
X67242300Y-64108600D01*
X67242300Y-64108600D01*
G37*
G36*
X80932628Y-62311803D02*
X81087500Y-62375953D01*
X81226881Y-62469085D01*
X81345415Y-62587619D01*
X81438547Y-62727000D01*
X81502697Y-62881872D01*
X81535400Y-63046284D01*
X81535400Y-63213916D01*
X81502697Y-63378328D01*
X81438547Y-63533200D01*
X81345415Y-63672581D01*
X81226881Y-63791115D01*
X81087500Y-63884247D01*
X80932628Y-63948397D01*
X80768216Y-63981100D01*
X80600584Y-63981100D01*
X80436172Y-63948397D01*
X80281300Y-63884247D01*
X80141919Y-63791115D01*
X80023385Y-63672581D01*
X79930253Y-63533200D01*
X79866103Y-63378328D01*
X79833400Y-63213916D01*
X79833400Y-63046284D01*
X79866103Y-62881872D01*
X79930253Y-62727000D01*
X80023385Y-62587619D01*
X80141919Y-62469085D01*
X80281300Y-62375953D01*
X80436172Y-62311803D01*
X80600584Y-62279100D01*
X80768216Y-62279100D01*
X80932628Y-62311803D01*
X80932628Y-62311803D01*
G37*
G36*
X78952628Y-61166803D02*
X79107500Y-61230953D01*
X79246881Y-61324085D01*
X79365415Y-61442619D01*
X79458547Y-61582000D01*
X79522697Y-61736872D01*
X79555400Y-61901284D01*
X79555400Y-62068916D01*
X79522697Y-62233328D01*
X79458547Y-62388200D01*
X79365415Y-62527581D01*
X79246881Y-62646115D01*
X79107500Y-62739247D01*
X78952628Y-62803397D01*
X78788216Y-62836100D01*
X78620584Y-62836100D01*
X78456172Y-62803397D01*
X78301300Y-62739247D01*
X78161919Y-62646115D01*
X78043385Y-62527581D01*
X77950253Y-62388200D01*
X77886103Y-62233328D01*
X77853400Y-62068916D01*
X77853400Y-61901284D01*
X77886103Y-61736872D01*
X77950253Y-61582000D01*
X78043385Y-61442619D01*
X78161919Y-61324085D01*
X78301300Y-61230953D01*
X78456172Y-61166803D01*
X78620584Y-61134100D01*
X78788216Y-61134100D01*
X78952628Y-61166803D01*
X78952628Y-61166803D01*
G37*
G36*
X82912628Y-61166803D02*
X83067500Y-61230953D01*
X83206881Y-61324085D01*
X83325415Y-61442619D01*
X83418547Y-61582000D01*
X83482697Y-61736872D01*
X83515400Y-61901284D01*
X83515400Y-62068916D01*
X83482697Y-62233328D01*
X83418547Y-62388200D01*
X83325415Y-62527581D01*
X83206881Y-62646115D01*
X83067500Y-62739247D01*
X82912628Y-62803397D01*
X82748216Y-62836100D01*
X82580584Y-62836100D01*
X82416172Y-62803397D01*
X82261300Y-62739247D01*
X82121919Y-62646115D01*
X82003385Y-62527581D01*
X81910253Y-62388200D01*
X81846103Y-62233328D01*
X81813400Y-62068916D01*
X81813400Y-61901284D01*
X81846103Y-61736872D01*
X81910253Y-61582000D01*
X82003385Y-61442619D01*
X82121919Y-61324085D01*
X82261300Y-61230953D01*
X82416172Y-61166803D01*
X82580584Y-61134100D01*
X82748216Y-61134100D01*
X82912628Y-61166803D01*
X82912628Y-61166803D01*
G37*
G36*
X80932628Y-60021803D02*
X81087500Y-60085953D01*
X81226881Y-60179085D01*
X81345415Y-60297619D01*
X81438547Y-60437000D01*
X81502697Y-60591872D01*
X81535400Y-60756284D01*
X81535400Y-60923916D01*
X81502697Y-61088328D01*
X81438547Y-61243200D01*
X81345415Y-61382581D01*
X81226881Y-61501115D01*
X81087500Y-61594247D01*
X80932628Y-61658397D01*
X80768216Y-61691100D01*
X80600584Y-61691100D01*
X80436172Y-61658397D01*
X80281300Y-61594247D01*
X80141919Y-61501115D01*
X80023385Y-61382581D01*
X79930253Y-61243200D01*
X79866103Y-61088328D01*
X79833400Y-60923916D01*
X79833400Y-60756284D01*
X79866103Y-60591872D01*
X79930253Y-60437000D01*
X80023385Y-60297619D01*
X80141919Y-60179085D01*
X80281300Y-60085953D01*
X80436172Y-60021803D01*
X80600584Y-59989100D01*
X80768216Y-59989100D01*
X80932628Y-60021803D01*
X80932628Y-60021803D01*
G37*
G36*
X72056897Y-59496547D02*
X72092467Y-59507337D01*
X72125239Y-59524854D01*
X72153969Y-59548431D01*
X72177546Y-59577161D01*
X72195063Y-59609933D01*
X72205853Y-59645503D01*
X72210100Y-59688624D01*
X72210100Y-60747976D01*
X72205853Y-60791097D01*
X72195063Y-60826667D01*
X72177546Y-60859439D01*
X72153969Y-60888169D01*
X72125239Y-60911746D01*
X72092467Y-60929263D01*
X72056897Y-60940053D01*
X72013776Y-60944300D01*
X70904424Y-60944300D01*
X70861303Y-60940053D01*
X70825733Y-60929263D01*
X70792961Y-60911746D01*
X70764231Y-60888169D01*
X70740654Y-60859439D01*
X70723137Y-60826667D01*
X70712347Y-60791097D01*
X70708100Y-60747976D01*
X70708100Y-59688624D01*
X70712347Y-59645503D01*
X70723137Y-59609933D01*
X70740654Y-59577161D01*
X70764231Y-59548431D01*
X70792961Y-59524854D01*
X70825733Y-59507337D01*
X70861303Y-59496547D01*
X70904424Y-59492300D01*
X72013776Y-59492300D01*
X72056897Y-59496547D01*
X72056897Y-59496547D01*
G37*
G36*
X69356897Y-59496547D02*
X69392467Y-59507337D01*
X69425239Y-59524854D01*
X69453969Y-59548431D01*
X69477546Y-59577161D01*
X69495063Y-59609933D01*
X69505853Y-59645503D01*
X69510100Y-59688624D01*
X69510100Y-60747976D01*
X69505853Y-60791097D01*
X69495063Y-60826667D01*
X69477546Y-60859439D01*
X69453969Y-60888169D01*
X69425239Y-60911746D01*
X69392467Y-60929263D01*
X69356897Y-60940053D01*
X69313776Y-60944300D01*
X68204424Y-60944300D01*
X68161303Y-60940053D01*
X68125733Y-60929263D01*
X68092961Y-60911746D01*
X68064231Y-60888169D01*
X68040654Y-60859439D01*
X68023137Y-60826667D01*
X68012347Y-60791097D01*
X68008100Y-60747976D01*
X68008100Y-59688624D01*
X68012347Y-59645503D01*
X68023137Y-59609933D01*
X68040654Y-59577161D01*
X68064231Y-59548431D01*
X68092961Y-59524854D01*
X68125733Y-59507337D01*
X68161303Y-59496547D01*
X68204424Y-59492300D01*
X69313776Y-59492300D01*
X69356897Y-59496547D01*
X69356897Y-59496547D01*
G37*
G36*
X64322597Y-59496547D02*
X64358167Y-59507337D01*
X64390939Y-59524854D01*
X64419669Y-59548431D01*
X64443246Y-59577161D01*
X64460763Y-59609933D01*
X64471553Y-59645503D01*
X64475800Y-59688624D01*
X64475800Y-60747976D01*
X64471553Y-60791097D01*
X64460763Y-60826667D01*
X64443246Y-60859439D01*
X64419669Y-60888169D01*
X64390939Y-60911746D01*
X64358167Y-60929263D01*
X64322597Y-60940053D01*
X64279476Y-60944300D01*
X63170124Y-60944300D01*
X63127003Y-60940053D01*
X63091433Y-60929263D01*
X63058661Y-60911746D01*
X63029931Y-60888169D01*
X63006354Y-60859439D01*
X62988837Y-60826667D01*
X62978047Y-60791097D01*
X62973800Y-60747976D01*
X62973800Y-59688624D01*
X62978047Y-59645503D01*
X62988837Y-59609933D01*
X63006354Y-59577161D01*
X63029931Y-59548431D01*
X63058661Y-59524854D01*
X63091433Y-59507337D01*
X63127003Y-59496547D01*
X63170124Y-59492300D01*
X64279476Y-59492300D01*
X64322597Y-59496547D01*
X64322597Y-59496547D01*
G37*
G36*
X67022597Y-59496547D02*
X67058167Y-59507337D01*
X67090939Y-59524854D01*
X67119669Y-59548431D01*
X67143246Y-59577161D01*
X67160763Y-59609933D01*
X67171553Y-59645503D01*
X67175800Y-59688624D01*
X67175800Y-60747976D01*
X67171553Y-60791097D01*
X67160763Y-60826667D01*
X67143246Y-60859439D01*
X67119669Y-60888169D01*
X67090939Y-60911746D01*
X67058167Y-60929263D01*
X67022597Y-60940053D01*
X66979476Y-60944300D01*
X65870124Y-60944300D01*
X65827003Y-60940053D01*
X65791433Y-60929263D01*
X65758661Y-60911746D01*
X65729931Y-60888169D01*
X65706354Y-60859439D01*
X65688837Y-60826667D01*
X65678047Y-60791097D01*
X65673800Y-60747976D01*
X65673800Y-59688624D01*
X65678047Y-59645503D01*
X65688837Y-59609933D01*
X65706354Y-59577161D01*
X65729931Y-59548431D01*
X65758661Y-59524854D01*
X65791433Y-59507337D01*
X65827003Y-59496547D01*
X65870124Y-59492300D01*
X66979476Y-59492300D01*
X67022597Y-59496547D01*
X67022597Y-59496547D01*
G37*
G36*
X82912628Y-58876803D02*
X83067500Y-58940953D01*
X83206881Y-59034085D01*
X83325415Y-59152619D01*
X83418547Y-59292000D01*
X83482697Y-59446872D01*
X83515400Y-59611284D01*
X83515400Y-59778916D01*
X83482697Y-59943328D01*
X83418547Y-60098200D01*
X83325415Y-60237581D01*
X83206881Y-60356115D01*
X83067500Y-60449247D01*
X82912628Y-60513397D01*
X82748216Y-60546100D01*
X82580584Y-60546100D01*
X82416172Y-60513397D01*
X82261300Y-60449247D01*
X82121919Y-60356115D01*
X82003385Y-60237581D01*
X81910253Y-60098200D01*
X81846103Y-59943328D01*
X81813400Y-59778916D01*
X81813400Y-59611284D01*
X81846103Y-59446872D01*
X81910253Y-59292000D01*
X82003385Y-59152619D01*
X82121919Y-59034085D01*
X82261300Y-58940953D01*
X82416172Y-58876803D01*
X82580584Y-58844100D01*
X82748216Y-58844100D01*
X82912628Y-58876803D01*
X82912628Y-58876803D01*
G37*
G36*
X79555400Y-60546100D02*
X77853400Y-60546100D01*
X77853400Y-58844100D01*
X79555400Y-58844100D01*
X79555400Y-60546100D01*
X79555400Y-60546100D01*
G37*
G36*
X80932628Y-57731803D02*
X81087500Y-57795953D01*
X81226881Y-57889085D01*
X81345415Y-58007619D01*
X81438547Y-58147000D01*
X81502697Y-58301872D01*
X81535400Y-58466284D01*
X81535400Y-58633916D01*
X81502697Y-58798328D01*
X81438547Y-58953200D01*
X81345415Y-59092581D01*
X81226881Y-59211115D01*
X81087500Y-59304247D01*
X80932628Y-59368397D01*
X80768216Y-59401100D01*
X80600584Y-59401100D01*
X80436172Y-59368397D01*
X80281300Y-59304247D01*
X80141919Y-59211115D01*
X80023385Y-59092581D01*
X79930253Y-58953200D01*
X79866103Y-58798328D01*
X79833400Y-58633916D01*
X79833400Y-58466284D01*
X79866103Y-58301872D01*
X79930253Y-58147000D01*
X80023385Y-58007619D01*
X80141919Y-57889085D01*
X80281300Y-57795953D01*
X80436172Y-57731803D01*
X80600584Y-57699100D01*
X80768216Y-57699100D01*
X80932628Y-57731803D01*
X80932628Y-57731803D01*
G37*
G36*
X71646912Y-53890125D02*
X71717620Y-53911575D01*
X71731924Y-53915914D01*
X71795033Y-53949647D01*
X71810277Y-53957795D01*
X71873271Y-54009493D01*
X71878948Y-54014152D01*
X71935307Y-54082826D01*
X71977186Y-54161175D01*
X71980210Y-54171144D01*
X72002975Y-54246187D01*
X72009500Y-54312442D01*
X72009500Y-54856758D01*
X72002975Y-54923013D01*
X71985141Y-54981800D01*
X71977186Y-55008025D01*
X71935307Y-55086374D01*
X71878948Y-55155048D01*
X71810274Y-55211407D01*
X71731925Y-55253286D01*
X71721956Y-55256310D01*
X71646913Y-55279075D01*
X71558500Y-55287782D01*
X71470088Y-55279075D01*
X71395045Y-55256310D01*
X71385076Y-55253286D01*
X71306727Y-55211407D01*
X71238053Y-55155048D01*
X71206385Y-55116460D01*
X71181693Y-55086373D01*
X71139813Y-55008023D01*
X71114025Y-54923013D01*
X71107500Y-54856758D01*
X71107500Y-54312443D01*
X71114025Y-54246188D01*
X71139813Y-54161180D01*
X71139814Y-54161176D01*
X71181693Y-54082827D01*
X71181695Y-54082823D01*
X71238050Y-54014154D01*
X71238055Y-54014150D01*
X71306726Y-53957793D01*
X71385075Y-53915914D01*
X71399379Y-53911575D01*
X71470087Y-53890125D01*
X71558500Y-53881418D01*
X71646912Y-53890125D01*
X71646912Y-53890125D01*
G37*
G36*
X70396912Y-53890125D02*
X70467620Y-53911575D01*
X70481924Y-53915914D01*
X70545033Y-53949647D01*
X70560277Y-53957795D01*
X70623271Y-54009493D01*
X70628948Y-54014152D01*
X70685307Y-54082826D01*
X70727186Y-54161175D01*
X70730210Y-54171144D01*
X70752975Y-54246187D01*
X70759500Y-54312442D01*
X70759500Y-54856758D01*
X70752975Y-54923013D01*
X70735141Y-54981800D01*
X70727186Y-55008025D01*
X70685307Y-55086374D01*
X70628948Y-55155048D01*
X70560274Y-55211407D01*
X70481925Y-55253286D01*
X70471956Y-55256310D01*
X70396913Y-55279075D01*
X70308500Y-55287782D01*
X70220088Y-55279075D01*
X70145045Y-55256310D01*
X70135076Y-55253286D01*
X70056727Y-55211407D01*
X69988053Y-55155048D01*
X69956385Y-55116460D01*
X69931693Y-55086373D01*
X69889813Y-55008023D01*
X69864025Y-54923013D01*
X69857500Y-54856758D01*
X69857500Y-54312443D01*
X69864025Y-54246188D01*
X69889813Y-54161180D01*
X69889814Y-54161176D01*
X69931693Y-54082827D01*
X69931695Y-54082823D01*
X69988050Y-54014154D01*
X69988055Y-54014150D01*
X70056726Y-53957793D01*
X70135075Y-53915914D01*
X70149379Y-53911575D01*
X70220087Y-53890125D01*
X70308500Y-53881418D01*
X70396912Y-53890125D01*
X70396912Y-53890125D01*
G37*
G36*
X69146912Y-53890125D02*
X69217620Y-53911575D01*
X69231924Y-53915914D01*
X69295033Y-53949647D01*
X69310277Y-53957795D01*
X69373271Y-54009493D01*
X69378948Y-54014152D01*
X69435307Y-54082826D01*
X69477186Y-54161175D01*
X69480210Y-54171144D01*
X69502975Y-54246187D01*
X69509500Y-54312442D01*
X69509500Y-54856758D01*
X69502975Y-54923013D01*
X69485141Y-54981800D01*
X69477186Y-55008025D01*
X69435307Y-55086374D01*
X69378948Y-55155048D01*
X69310274Y-55211407D01*
X69231925Y-55253286D01*
X69221956Y-55256310D01*
X69146913Y-55279075D01*
X69058500Y-55287782D01*
X68970088Y-55279075D01*
X68895045Y-55256310D01*
X68885076Y-55253286D01*
X68806727Y-55211407D01*
X68738053Y-55155048D01*
X68706385Y-55116460D01*
X68681693Y-55086373D01*
X68639813Y-55008023D01*
X68614025Y-54923013D01*
X68607500Y-54856758D01*
X68607500Y-54312443D01*
X68614025Y-54246188D01*
X68639813Y-54161180D01*
X68639814Y-54161176D01*
X68681693Y-54082827D01*
X68681695Y-54082823D01*
X68738050Y-54014154D01*
X68738055Y-54014150D01*
X68806726Y-53957793D01*
X68885075Y-53915914D01*
X68899379Y-53911575D01*
X68970087Y-53890125D01*
X69058500Y-53881418D01*
X69146912Y-53890125D01*
X69146912Y-53890125D01*
G37*
G36*
X67896912Y-53890125D02*
X67967620Y-53911575D01*
X67981924Y-53915914D01*
X68045033Y-53949647D01*
X68060277Y-53957795D01*
X68123271Y-54009493D01*
X68128948Y-54014152D01*
X68185307Y-54082826D01*
X68227186Y-54161175D01*
X68230210Y-54171144D01*
X68252975Y-54246187D01*
X68259500Y-54312442D01*
X68259500Y-54856758D01*
X68252975Y-54923013D01*
X68235141Y-54981800D01*
X68227186Y-55008025D01*
X68185307Y-55086374D01*
X68128948Y-55155048D01*
X68060274Y-55211407D01*
X67981925Y-55253286D01*
X67971956Y-55256310D01*
X67896913Y-55279075D01*
X67808500Y-55287782D01*
X67720088Y-55279075D01*
X67645045Y-55256310D01*
X67635076Y-55253286D01*
X67556727Y-55211407D01*
X67488053Y-55155048D01*
X67456385Y-55116460D01*
X67431693Y-55086373D01*
X67389813Y-55008023D01*
X67364025Y-54923013D01*
X67357500Y-54856758D01*
X67357500Y-54312443D01*
X67364025Y-54246188D01*
X67389813Y-54161180D01*
X67389814Y-54161176D01*
X67431693Y-54082827D01*
X67431695Y-54082823D01*
X67488050Y-54014154D01*
X67488055Y-54014150D01*
X67556726Y-53957793D01*
X67635075Y-53915914D01*
X67649379Y-53911575D01*
X67720087Y-53890125D01*
X67808500Y-53881418D01*
X67896912Y-53890125D01*
X67896912Y-53890125D01*
G37*
G36*
X66646912Y-53890125D02*
X66717620Y-53911575D01*
X66731924Y-53915914D01*
X66795033Y-53949647D01*
X66810277Y-53957795D01*
X66873271Y-54009493D01*
X66878948Y-54014152D01*
X66935307Y-54082826D01*
X66977186Y-54161175D01*
X66980210Y-54171144D01*
X67002975Y-54246187D01*
X67009500Y-54312442D01*
X67009500Y-54856758D01*
X67002975Y-54923013D01*
X66985141Y-54981800D01*
X66977186Y-55008025D01*
X66935307Y-55086374D01*
X66878948Y-55155048D01*
X66810274Y-55211407D01*
X66731925Y-55253286D01*
X66721956Y-55256310D01*
X66646913Y-55279075D01*
X66558500Y-55287782D01*
X66470088Y-55279075D01*
X66395045Y-55256310D01*
X66385076Y-55253286D01*
X66306727Y-55211407D01*
X66238053Y-55155048D01*
X66206385Y-55116460D01*
X66181693Y-55086373D01*
X66139813Y-55008023D01*
X66114025Y-54923013D01*
X66107500Y-54856758D01*
X66107500Y-54312443D01*
X66114025Y-54246188D01*
X66139813Y-54161180D01*
X66139814Y-54161176D01*
X66181693Y-54082827D01*
X66181695Y-54082823D01*
X66238050Y-54014154D01*
X66238055Y-54014150D01*
X66306726Y-53957793D01*
X66385075Y-53915914D01*
X66399379Y-53911575D01*
X66470087Y-53890125D01*
X66558500Y-53881418D01*
X66646912Y-53890125D01*
X66646912Y-53890125D01*
G37*
G36*
X65628183Y-53887325D02*
X65658644Y-53896566D01*
X65686723Y-53911575D01*
X65711331Y-53931769D01*
X65731525Y-53956377D01*
X65746534Y-53984456D01*
X65755775Y-54014917D01*
X65759500Y-54052740D01*
X65759500Y-55116460D01*
X65755775Y-55154283D01*
X65746534Y-55184744D01*
X65731525Y-55212823D01*
X65711331Y-55237431D01*
X65686723Y-55257625D01*
X65658644Y-55272634D01*
X65628183Y-55281875D01*
X65590360Y-55285600D01*
X65026640Y-55285600D01*
X64988817Y-55281875D01*
X64958356Y-55272634D01*
X64930277Y-55257625D01*
X64905669Y-55237431D01*
X64885475Y-55212823D01*
X64870466Y-55184744D01*
X64861225Y-55154283D01*
X64857500Y-55116460D01*
X64857500Y-54052740D01*
X64861225Y-54014917D01*
X64870466Y-53984456D01*
X64885475Y-53956377D01*
X64905669Y-53931769D01*
X64930277Y-53911575D01*
X64958356Y-53896566D01*
X64988817Y-53887325D01*
X65026640Y-53883600D01*
X65590360Y-53883600D01*
X65628183Y-53887325D01*
X65628183Y-53887325D01*
G37*
G36*
X74095491Y-54074885D02*
X74129469Y-54085193D01*
X74160787Y-54101933D01*
X74188239Y-54124461D01*
X74210767Y-54151913D01*
X74227507Y-54183231D01*
X74237815Y-54217209D01*
X74241900Y-54258690D01*
X74241900Y-54859910D01*
X74237815Y-54901391D01*
X74227507Y-54935369D01*
X74210767Y-54966687D01*
X74188239Y-54994139D01*
X74160787Y-55016667D01*
X74129469Y-55033407D01*
X74095491Y-55043715D01*
X74054010Y-55047800D01*
X73377790Y-55047800D01*
X73336309Y-55043715D01*
X73302331Y-55033407D01*
X73271013Y-55016667D01*
X73243561Y-54994139D01*
X73221033Y-54966687D01*
X73204293Y-54935369D01*
X73193985Y-54901391D01*
X73189900Y-54859910D01*
X73189900Y-54258690D01*
X73193985Y-54217209D01*
X73204293Y-54183231D01*
X73221033Y-54151913D01*
X73243561Y-54124461D01*
X73271013Y-54101933D01*
X73302331Y-54085193D01*
X73336309Y-54074885D01*
X73377790Y-54070800D01*
X74054010Y-54070800D01*
X74095491Y-54074885D01*
X74095491Y-54074885D01*
G37*
G36*
X63767791Y-54008885D02*
X63801769Y-54019193D01*
X63833087Y-54035933D01*
X63860539Y-54058461D01*
X63883067Y-54085913D01*
X63899807Y-54117231D01*
X63910115Y-54151209D01*
X63914200Y-54192690D01*
X63914200Y-54793910D01*
X63910115Y-54835391D01*
X63899807Y-54869369D01*
X63883067Y-54900687D01*
X63860539Y-54928139D01*
X63833087Y-54950667D01*
X63801769Y-54967407D01*
X63767791Y-54977715D01*
X63726310Y-54981800D01*
X63050090Y-54981800D01*
X63008609Y-54977715D01*
X62974631Y-54967407D01*
X62943313Y-54950667D01*
X62915861Y-54928139D01*
X62893333Y-54900687D01*
X62876593Y-54869369D01*
X62866285Y-54835391D01*
X62862200Y-54793910D01*
X62862200Y-54192690D01*
X62866285Y-54151209D01*
X62876593Y-54117231D01*
X62893333Y-54085913D01*
X62915861Y-54058461D01*
X62943313Y-54035933D01*
X62974631Y-54019193D01*
X63008609Y-54008885D01*
X63050090Y-54004800D01*
X63726310Y-54004800D01*
X63767791Y-54008885D01*
X63767791Y-54008885D01*
G37*
G36*
X80722652Y-49537918D02*
X80722654Y-49537919D01*
X80722655Y-49537919D01*
X81095913Y-49692527D01*
X81254421Y-49798439D01*
X81431839Y-49916986D01*
X81717514Y-50202661D01*
X81717516Y-50202664D01*
X81941973Y-50538587D01*
X82096581Y-50911845D01*
X82096582Y-50911848D01*
X82175400Y-51308093D01*
X82175400Y-51712107D01*
X82142422Y-51877900D01*
X82096581Y-52108355D01*
X81941973Y-52481613D01*
X81878766Y-52576209D01*
X81717514Y-52817539D01*
X81431839Y-53103214D01*
X81431836Y-53103216D01*
X81095913Y-53327673D01*
X80722655Y-53482281D01*
X80722654Y-53482281D01*
X80722652Y-53482282D01*
X80326407Y-53561100D01*
X79922393Y-53561100D01*
X79526148Y-53482282D01*
X79526146Y-53482281D01*
X79526145Y-53482281D01*
X79152887Y-53327673D01*
X78816964Y-53103216D01*
X78816961Y-53103214D01*
X78531286Y-52817539D01*
X78370034Y-52576209D01*
X78306827Y-52481613D01*
X78152219Y-52108355D01*
X78106379Y-51877900D01*
X78073400Y-51712107D01*
X78073400Y-51308093D01*
X78152218Y-50911848D01*
X78152219Y-50911845D01*
X78306827Y-50538587D01*
X78531284Y-50202664D01*
X78531286Y-50202661D01*
X78816961Y-49916986D01*
X78994379Y-49798439D01*
X79152887Y-49692527D01*
X79526145Y-49537919D01*
X79526146Y-49537919D01*
X79526148Y-49537918D01*
X79922393Y-49459100D01*
X80326407Y-49459100D01*
X80722652Y-49537918D01*
X80722652Y-49537918D01*
G37*
G36*
X74095491Y-52499885D02*
X74129469Y-52510193D01*
X74160787Y-52526933D01*
X74188239Y-52549461D01*
X74210767Y-52576913D01*
X74227507Y-52608231D01*
X74237815Y-52642209D01*
X74241900Y-52683690D01*
X74241900Y-53284910D01*
X74237815Y-53326391D01*
X74227507Y-53360369D01*
X74210767Y-53391687D01*
X74188239Y-53419139D01*
X74160787Y-53441667D01*
X74129469Y-53458407D01*
X74095491Y-53468715D01*
X74054010Y-53472800D01*
X73377790Y-53472800D01*
X73336309Y-53468715D01*
X73302331Y-53458407D01*
X73271013Y-53441667D01*
X73243561Y-53419139D01*
X73221033Y-53391687D01*
X73204293Y-53360369D01*
X73193985Y-53326391D01*
X73189900Y-53284910D01*
X73189900Y-52683690D01*
X73193985Y-52642209D01*
X73204293Y-52608231D01*
X73221033Y-52576913D01*
X73243561Y-52549461D01*
X73271013Y-52526933D01*
X73302331Y-52510193D01*
X73336309Y-52499885D01*
X73377790Y-52495800D01*
X74054010Y-52495800D01*
X74095491Y-52499885D01*
X74095491Y-52499885D01*
G37*
G36*
X63767791Y-52433885D02*
X63801769Y-52444193D01*
X63833087Y-52460933D01*
X63860539Y-52483461D01*
X63883067Y-52510913D01*
X63899807Y-52542231D01*
X63910115Y-52576209D01*
X63914200Y-52617690D01*
X63914200Y-53218910D01*
X63910115Y-53260391D01*
X63899807Y-53294369D01*
X63883067Y-53325687D01*
X63860539Y-53353139D01*
X63833087Y-53375667D01*
X63801769Y-53392407D01*
X63767791Y-53402715D01*
X63726310Y-53406800D01*
X63050090Y-53406800D01*
X63008609Y-53402715D01*
X62974631Y-53392407D01*
X62943313Y-53375667D01*
X62915861Y-53353139D01*
X62893333Y-53325687D01*
X62876593Y-53294369D01*
X62866285Y-53260391D01*
X62862200Y-53218910D01*
X62862200Y-52617690D01*
X62866285Y-52576209D01*
X62876593Y-52542231D01*
X62893333Y-52510913D01*
X62915861Y-52483461D01*
X62943313Y-52460933D01*
X62974631Y-52444193D01*
X63008609Y-52433885D01*
X63050090Y-52429800D01*
X63726310Y-52429800D01*
X63767791Y-52433885D01*
X63767791Y-52433885D01*
G37*
G36*
X75279091Y-50904985D02*
X75313069Y-50915293D01*
X75344387Y-50932033D01*
X75371839Y-50954561D01*
X75394367Y-50982013D01*
X75411107Y-51013331D01*
X75421415Y-51047309D01*
X75425500Y-51088790D01*
X75425500Y-51690010D01*
X75421415Y-51731491D01*
X75411107Y-51765469D01*
X75394367Y-51796787D01*
X75371839Y-51824239D01*
X75344387Y-51846767D01*
X75313069Y-51863507D01*
X75279091Y-51873815D01*
X75237610Y-51877900D01*
X74561390Y-51877900D01*
X74519909Y-51873815D01*
X74485931Y-51863507D01*
X74454613Y-51846767D01*
X74427161Y-51824239D01*
X74404633Y-51796787D01*
X74387893Y-51765469D01*
X74377585Y-51731491D01*
X74373500Y-51690010D01*
X74373500Y-51088790D01*
X74377585Y-51047309D01*
X74387893Y-51013331D01*
X74404633Y-50982013D01*
X74427161Y-50954561D01*
X74454613Y-50932033D01*
X74485931Y-50915293D01*
X74519909Y-50904985D01*
X74561390Y-50900900D01*
X75237610Y-50900900D01*
X75279091Y-50904985D01*
X75279091Y-50904985D01*
G37*
G36*
X65281691Y-50894785D02*
X65315669Y-50905093D01*
X65346987Y-50921833D01*
X65374439Y-50944361D01*
X65396967Y-50971813D01*
X65413707Y-51003131D01*
X65424015Y-51037109D01*
X65428100Y-51078590D01*
X65428100Y-51679810D01*
X65424015Y-51721291D01*
X65413707Y-51755269D01*
X65396967Y-51786587D01*
X65374439Y-51814039D01*
X65346987Y-51836567D01*
X65315669Y-51853307D01*
X65281691Y-51863615D01*
X65240210Y-51867700D01*
X64563990Y-51867700D01*
X64522509Y-51863615D01*
X64488531Y-51853307D01*
X64457213Y-51836567D01*
X64429761Y-51814039D01*
X64407233Y-51786587D01*
X64390493Y-51755269D01*
X64380185Y-51721291D01*
X64376100Y-51679810D01*
X64376100Y-51078590D01*
X64380185Y-51037109D01*
X64390493Y-51003131D01*
X64407233Y-50971813D01*
X64429761Y-50944361D01*
X64457213Y-50921833D01*
X64488531Y-50905093D01*
X64522509Y-50894785D01*
X64563990Y-50890700D01*
X65240210Y-50890700D01*
X65281691Y-50894785D01*
X65281691Y-50894785D01*
G37*
G36*
X73578938Y-51021016D02*
X73599556Y-51027270D01*
X73618556Y-51037426D01*
X73635208Y-51051092D01*
X73648874Y-51067744D01*
X73659030Y-51086744D01*
X73665284Y-51107362D01*
X73668000Y-51134940D01*
X73668000Y-51643660D01*
X73665284Y-51671238D01*
X73659030Y-51691856D01*
X73648874Y-51710856D01*
X73635208Y-51727508D01*
X73618556Y-51741174D01*
X73599556Y-51751330D01*
X73578938Y-51757584D01*
X73551360Y-51760300D01*
X73092640Y-51760300D01*
X73065062Y-51757584D01*
X73044444Y-51751330D01*
X73025444Y-51741174D01*
X73008792Y-51727508D01*
X72995126Y-51710856D01*
X72984970Y-51691856D01*
X72978716Y-51671238D01*
X72976000Y-51643660D01*
X72976000Y-51134940D01*
X72978716Y-51107362D01*
X72984970Y-51086744D01*
X72995126Y-51067744D01*
X73008792Y-51051092D01*
X73025444Y-51037426D01*
X73044444Y-51027270D01*
X73065062Y-51021016D01*
X73092640Y-51018300D01*
X73551360Y-51018300D01*
X73578938Y-51021016D01*
X73578938Y-51021016D01*
G37*
G36*
X72608938Y-51021016D02*
X72629556Y-51027270D01*
X72648556Y-51037426D01*
X72665208Y-51051092D01*
X72678874Y-51067744D01*
X72689030Y-51086744D01*
X72695284Y-51107362D01*
X72698000Y-51134940D01*
X72698000Y-51643660D01*
X72695284Y-51671238D01*
X72689030Y-51691856D01*
X72678874Y-51710856D01*
X72665208Y-51727508D01*
X72648556Y-51741174D01*
X72629556Y-51751330D01*
X72608938Y-51757584D01*
X72581360Y-51760300D01*
X72122640Y-51760300D01*
X72095062Y-51757584D01*
X72074444Y-51751330D01*
X72055444Y-51741174D01*
X72038792Y-51727508D01*
X72025126Y-51710856D01*
X72014970Y-51691856D01*
X72008716Y-51671238D01*
X72006000Y-51643660D01*
X72006000Y-51134940D01*
X72008716Y-51107362D01*
X72014970Y-51086744D01*
X72025126Y-51067744D01*
X72038792Y-51051092D01*
X72055444Y-51037426D01*
X72074444Y-51027270D01*
X72095062Y-51021016D01*
X72122640Y-51018300D01*
X72581360Y-51018300D01*
X72608938Y-51021016D01*
X72608938Y-51021016D01*
G37*
G36*
X66726338Y-51015916D02*
X66746956Y-51022170D01*
X66765956Y-51032326D01*
X66782608Y-51045992D01*
X66796274Y-51062644D01*
X66806430Y-51081644D01*
X66812684Y-51102262D01*
X66815400Y-51129840D01*
X66815400Y-51638560D01*
X66812684Y-51666138D01*
X66806430Y-51686756D01*
X66796274Y-51705756D01*
X66782608Y-51722408D01*
X66765956Y-51736074D01*
X66746956Y-51746230D01*
X66726338Y-51752484D01*
X66698760Y-51755200D01*
X66240040Y-51755200D01*
X66212462Y-51752484D01*
X66191844Y-51746230D01*
X66172844Y-51736074D01*
X66156192Y-51722408D01*
X66142526Y-51705756D01*
X66132370Y-51686756D01*
X66126116Y-51666138D01*
X66123400Y-51638560D01*
X66123400Y-51129840D01*
X66126116Y-51102262D01*
X66132370Y-51081644D01*
X66142526Y-51062644D01*
X66156192Y-51045992D01*
X66172844Y-51032326D01*
X66191844Y-51022170D01*
X66212462Y-51015916D01*
X66240040Y-51013200D01*
X66698760Y-51013200D01*
X66726338Y-51015916D01*
X66726338Y-51015916D01*
G37*
G36*
X67696338Y-51015916D02*
X67716956Y-51022170D01*
X67735956Y-51032326D01*
X67752608Y-51045992D01*
X67766274Y-51062644D01*
X67776430Y-51081644D01*
X67782684Y-51102262D01*
X67785400Y-51129840D01*
X67785400Y-51638560D01*
X67782684Y-51666138D01*
X67776430Y-51686756D01*
X67766274Y-51705756D01*
X67752608Y-51722408D01*
X67735956Y-51736074D01*
X67716956Y-51746230D01*
X67696338Y-51752484D01*
X67668760Y-51755200D01*
X67210040Y-51755200D01*
X67182462Y-51752484D01*
X67161844Y-51746230D01*
X67142844Y-51736074D01*
X67126192Y-51722408D01*
X67112526Y-51705756D01*
X67102370Y-51686756D01*
X67096116Y-51666138D01*
X67093400Y-51638560D01*
X67093400Y-51129840D01*
X67096116Y-51102262D01*
X67102370Y-51081644D01*
X67112526Y-51062644D01*
X67126192Y-51045992D01*
X67142844Y-51032326D01*
X67161844Y-51022170D01*
X67182462Y-51015916D01*
X67210040Y-51013200D01*
X67668760Y-51013200D01*
X67696338Y-51015916D01*
X67696338Y-51015916D01*
G37*
G36*
X53845600Y-50762000D02*
X52143600Y-50762000D01*
X52143600Y-49060000D01*
X53845600Y-49060000D01*
X53845600Y-50762000D01*
X53845600Y-50762000D01*
G37*
G36*
X50472828Y-49092703D02*
X50627700Y-49156853D01*
X50767081Y-49249985D01*
X50885615Y-49368519D01*
X50978747Y-49507900D01*
X51042897Y-49662772D01*
X51075600Y-49827184D01*
X51075600Y-49994816D01*
X51042897Y-50159228D01*
X50978747Y-50314100D01*
X50885615Y-50453481D01*
X50767081Y-50572015D01*
X50627700Y-50665147D01*
X50472828Y-50729297D01*
X50308416Y-50762000D01*
X50140784Y-50762000D01*
X49976372Y-50729297D01*
X49821500Y-50665147D01*
X49682119Y-50572015D01*
X49563585Y-50453481D01*
X49470453Y-50314100D01*
X49406303Y-50159228D01*
X49373600Y-49994816D01*
X49373600Y-49827184D01*
X49406303Y-49662772D01*
X49470453Y-49507900D01*
X49563585Y-49368519D01*
X49682119Y-49249985D01*
X49821500Y-49156853D01*
X49976372Y-49092703D01*
X50140784Y-49060000D01*
X50308416Y-49060000D01*
X50472828Y-49092703D01*
X50472828Y-49092703D01*
G37*
G36*
X47702828Y-49092703D02*
X47857700Y-49156853D01*
X47997081Y-49249985D01*
X48115615Y-49368519D01*
X48208747Y-49507900D01*
X48272897Y-49662772D01*
X48305600Y-49827184D01*
X48305600Y-49994816D01*
X48272897Y-50159228D01*
X48208747Y-50314100D01*
X48115615Y-50453481D01*
X47997081Y-50572015D01*
X47857700Y-50665147D01*
X47702828Y-50729297D01*
X47538416Y-50762000D01*
X47370784Y-50762000D01*
X47206372Y-50729297D01*
X47051500Y-50665147D01*
X46912119Y-50572015D01*
X46793585Y-50453481D01*
X46700453Y-50314100D01*
X46636303Y-50159228D01*
X46603600Y-49994816D01*
X46603600Y-49827184D01*
X46636303Y-49662772D01*
X46700453Y-49507900D01*
X46793585Y-49368519D01*
X46912119Y-49249985D01*
X47051500Y-49156853D01*
X47206372Y-49092703D01*
X47370784Y-49060000D01*
X47538416Y-49060000D01*
X47702828Y-49092703D01*
X47702828Y-49092703D01*
G37*
G36*
X44932828Y-49092703D02*
X45087700Y-49156853D01*
X45227081Y-49249985D01*
X45345615Y-49368519D01*
X45438747Y-49507900D01*
X45502897Y-49662772D01*
X45535600Y-49827184D01*
X45535600Y-49994816D01*
X45502897Y-50159228D01*
X45438747Y-50314100D01*
X45345615Y-50453481D01*
X45227081Y-50572015D01*
X45087700Y-50665147D01*
X44932828Y-50729297D01*
X44768416Y-50762000D01*
X44600784Y-50762000D01*
X44436372Y-50729297D01*
X44281500Y-50665147D01*
X44142119Y-50572015D01*
X44023585Y-50453481D01*
X43930453Y-50314100D01*
X43866303Y-50159228D01*
X43833600Y-49994816D01*
X43833600Y-49827184D01*
X43866303Y-49662772D01*
X43930453Y-49507900D01*
X44023585Y-49368519D01*
X44142119Y-49249985D01*
X44281500Y-49156853D01*
X44436372Y-49092703D01*
X44600784Y-49060000D01*
X44768416Y-49060000D01*
X44932828Y-49092703D01*
X44932828Y-49092703D01*
G37*
G36*
X42162828Y-49092703D02*
X42317700Y-49156853D01*
X42457081Y-49249985D01*
X42575615Y-49368519D01*
X42668747Y-49507900D01*
X42732897Y-49662772D01*
X42765600Y-49827184D01*
X42765600Y-49994816D01*
X42732897Y-50159228D01*
X42668747Y-50314100D01*
X42575615Y-50453481D01*
X42457081Y-50572015D01*
X42317700Y-50665147D01*
X42162828Y-50729297D01*
X41998416Y-50762000D01*
X41830784Y-50762000D01*
X41666372Y-50729297D01*
X41511500Y-50665147D01*
X41372119Y-50572015D01*
X41253585Y-50453481D01*
X41160453Y-50314100D01*
X41096303Y-50159228D01*
X41063600Y-49994816D01*
X41063600Y-49827184D01*
X41096303Y-49662772D01*
X41160453Y-49507900D01*
X41253585Y-49368519D01*
X41372119Y-49249985D01*
X41511500Y-49156853D01*
X41666372Y-49092703D01*
X41830784Y-49060000D01*
X41998416Y-49060000D01*
X42162828Y-49092703D01*
X42162828Y-49092703D01*
G37*
G36*
X60552852Y-46518818D02*
X60552854Y-46518819D01*
X60552855Y-46518819D01*
X60926113Y-46673427D01*
X60926114Y-46673428D01*
X61262039Y-46897886D01*
X61547714Y-47183561D01*
X61547716Y-47183564D01*
X61772173Y-47519487D01*
X61898781Y-47825147D01*
X61926782Y-47892748D01*
X62005600Y-48288993D01*
X62005600Y-48693007D01*
X61932601Y-49060000D01*
X61926781Y-49089255D01*
X61772173Y-49462513D01*
X61550743Y-49793905D01*
X61547714Y-49798439D01*
X61262039Y-50084114D01*
X61262036Y-50084116D01*
X60926113Y-50308573D01*
X60552855Y-50463181D01*
X60552854Y-50463181D01*
X60552852Y-50463182D01*
X60156607Y-50542000D01*
X59752593Y-50542000D01*
X59356348Y-50463182D01*
X59356346Y-50463181D01*
X59356345Y-50463181D01*
X58983087Y-50308573D01*
X58647164Y-50084116D01*
X58647161Y-50084114D01*
X58361486Y-49798439D01*
X58358457Y-49793905D01*
X58137027Y-49462513D01*
X57982419Y-49089255D01*
X57976600Y-49060000D01*
X57903600Y-48693007D01*
X57903600Y-48288993D01*
X57982418Y-47892748D01*
X58010419Y-47825147D01*
X58137027Y-47519487D01*
X58361484Y-47183564D01*
X58361486Y-47183561D01*
X58647161Y-46897886D01*
X58983086Y-46673428D01*
X58983087Y-46673427D01*
X59356345Y-46518819D01*
X59356346Y-46518819D01*
X59356348Y-46518818D01*
X59752593Y-46440000D01*
X60156607Y-46440000D01*
X60552852Y-46518818D01*
X60552852Y-46518818D01*
G37*
G36*
X35552852Y-46518818D02*
X35552854Y-46518819D01*
X35552855Y-46518819D01*
X35926113Y-46673427D01*
X35926114Y-46673428D01*
X36262039Y-46897886D01*
X36547714Y-47183561D01*
X36547716Y-47183564D01*
X36772173Y-47519487D01*
X36898781Y-47825147D01*
X36926782Y-47892748D01*
X37005600Y-48288993D01*
X37005600Y-48693007D01*
X36932601Y-49060000D01*
X36926781Y-49089255D01*
X36772173Y-49462513D01*
X36550743Y-49793905D01*
X36547714Y-49798439D01*
X36262039Y-50084114D01*
X36262036Y-50084116D01*
X35926113Y-50308573D01*
X35552855Y-50463181D01*
X35552854Y-50463181D01*
X35552852Y-50463182D01*
X35156607Y-50542000D01*
X34752593Y-50542000D01*
X34356348Y-50463182D01*
X34356346Y-50463181D01*
X34356345Y-50463181D01*
X33983087Y-50308573D01*
X33647164Y-50084116D01*
X33647161Y-50084114D01*
X33361486Y-49798439D01*
X33358457Y-49793905D01*
X33137027Y-49462513D01*
X32982419Y-49089255D01*
X32976600Y-49060000D01*
X32903600Y-48693007D01*
X32903600Y-48288993D01*
X32982418Y-47892748D01*
X33010419Y-47825147D01*
X33137027Y-47519487D01*
X33361484Y-47183564D01*
X33361486Y-47183561D01*
X33647161Y-46897886D01*
X33983086Y-46673428D01*
X33983087Y-46673427D01*
X34356345Y-46518819D01*
X34356346Y-46518819D01*
X34356348Y-46518818D01*
X34752593Y-46440000D01*
X35156607Y-46440000D01*
X35552852Y-46518818D01*
X35552852Y-46518818D01*
G37*
G36*
X75279091Y-49329985D02*
X75313069Y-49340293D01*
X75344387Y-49357033D01*
X75371839Y-49379561D01*
X75394367Y-49407013D01*
X75411107Y-49438331D01*
X75421415Y-49472309D01*
X75425500Y-49513790D01*
X75425500Y-50115010D01*
X75421415Y-50156491D01*
X75411107Y-50190469D01*
X75394367Y-50221787D01*
X75371839Y-50249239D01*
X75344387Y-50271767D01*
X75313069Y-50288507D01*
X75279091Y-50298815D01*
X75237610Y-50302900D01*
X74561390Y-50302900D01*
X74519909Y-50298815D01*
X74485931Y-50288507D01*
X74454613Y-50271767D01*
X74427161Y-50249239D01*
X74404633Y-50221787D01*
X74387893Y-50190469D01*
X74377585Y-50156491D01*
X74373500Y-50115010D01*
X74373500Y-49513790D01*
X74377585Y-49472309D01*
X74387893Y-49438331D01*
X74404633Y-49407013D01*
X74427161Y-49379561D01*
X74454613Y-49357033D01*
X74485931Y-49340293D01*
X74519909Y-49329985D01*
X74561390Y-49325900D01*
X75237610Y-49325900D01*
X75279091Y-49329985D01*
X75279091Y-49329985D01*
G37*
G36*
X65281691Y-49319785D02*
X65315669Y-49330093D01*
X65346987Y-49346833D01*
X65374439Y-49369361D01*
X65396967Y-49396813D01*
X65413707Y-49428131D01*
X65424015Y-49462109D01*
X65428100Y-49503590D01*
X65428100Y-50104810D01*
X65424015Y-50146291D01*
X65413707Y-50180269D01*
X65396967Y-50211587D01*
X65374439Y-50239039D01*
X65346987Y-50261567D01*
X65315669Y-50278307D01*
X65281691Y-50288615D01*
X65240210Y-50292700D01*
X64563990Y-50292700D01*
X64522509Y-50288615D01*
X64488531Y-50278307D01*
X64457213Y-50261567D01*
X64429761Y-50239039D01*
X64407233Y-50211587D01*
X64390493Y-50180269D01*
X64380185Y-50146291D01*
X64376100Y-50104810D01*
X64376100Y-49503590D01*
X64380185Y-49462109D01*
X64390493Y-49428131D01*
X64407233Y-49396813D01*
X64429761Y-49369361D01*
X64457213Y-49346833D01*
X64488531Y-49330093D01*
X64522509Y-49319785D01*
X64563990Y-49315700D01*
X65240210Y-49315700D01*
X65281691Y-49319785D01*
X65281691Y-49319785D01*
G37*
G36*
X75077228Y-44903998D02*
X75251778Y-44956948D01*
X75412647Y-45042933D01*
X75553649Y-45158651D01*
X75669367Y-45299653D01*
X75755352Y-45460521D01*
X75808302Y-45635071D01*
X75821700Y-45771110D01*
X75821700Y-47612090D01*
X75808302Y-47748129D01*
X75755352Y-47922679D01*
X75669367Y-48083547D01*
X75553649Y-48224549D01*
X75412647Y-48340267D01*
X75251779Y-48426252D01*
X75077229Y-48479202D01*
X74895700Y-48497080D01*
X74714172Y-48479202D01*
X74539622Y-48426252D01*
X74378754Y-48340267D01*
X74237752Y-48224549D01*
X74122034Y-48083547D01*
X74036049Y-47922679D01*
X73983099Y-47748129D01*
X73969700Y-47612089D01*
X73969700Y-45771111D01*
X73983098Y-45635072D01*
X74036048Y-45460522D01*
X74122033Y-45299653D01*
X74237751Y-45158651D01*
X74378753Y-45042933D01*
X74539621Y-44956948D01*
X74714171Y-44903998D01*
X74895700Y-44886120D01*
X75077228Y-44903998D01*
X75077228Y-44903998D01*
G37*
G36*
X72577228Y-44903998D02*
X72751778Y-44956948D01*
X72912647Y-45042933D01*
X73053649Y-45158651D01*
X73169367Y-45299653D01*
X73255352Y-45460521D01*
X73308302Y-45635071D01*
X73321700Y-45771110D01*
X73321700Y-47612090D01*
X73308302Y-47748129D01*
X73255352Y-47922679D01*
X73169367Y-48083547D01*
X73053649Y-48224549D01*
X72912647Y-48340267D01*
X72751779Y-48426252D01*
X72577229Y-48479202D01*
X72395700Y-48497080D01*
X72214172Y-48479202D01*
X72039622Y-48426252D01*
X71878754Y-48340267D01*
X71737752Y-48224549D01*
X71622034Y-48083547D01*
X71536049Y-47922679D01*
X71483099Y-47748129D01*
X71469700Y-47612089D01*
X71469700Y-45771111D01*
X71483098Y-45635072D01*
X71536048Y-45460522D01*
X71622033Y-45299653D01*
X71737751Y-45158651D01*
X71878753Y-45042933D01*
X72039621Y-44956948D01*
X72214171Y-44903998D01*
X72395700Y-44886120D01*
X72577228Y-44903998D01*
X72577228Y-44903998D01*
G37*
G36*
X67577228Y-44903998D02*
X67751778Y-44956948D01*
X67912647Y-45042933D01*
X68053649Y-45158651D01*
X68169367Y-45299653D01*
X68255352Y-45460521D01*
X68308302Y-45635071D01*
X68321700Y-45771110D01*
X68321700Y-47612090D01*
X68308302Y-47748129D01*
X68255352Y-47922679D01*
X68169367Y-48083547D01*
X68053649Y-48224549D01*
X67912647Y-48340267D01*
X67751779Y-48426252D01*
X67577229Y-48479202D01*
X67395700Y-48497080D01*
X67214172Y-48479202D01*
X67039622Y-48426252D01*
X66878754Y-48340267D01*
X66737752Y-48224549D01*
X66622034Y-48083547D01*
X66536049Y-47922679D01*
X66483099Y-47748129D01*
X66469700Y-47612089D01*
X66469700Y-45771111D01*
X66483098Y-45635072D01*
X66536048Y-45460522D01*
X66622033Y-45299653D01*
X66737751Y-45158651D01*
X66878753Y-45042933D01*
X67039621Y-44956948D01*
X67214171Y-44903998D01*
X67395700Y-44886120D01*
X67577228Y-44903998D01*
X67577228Y-44903998D01*
G37*
G36*
X65077228Y-44903998D02*
X65251778Y-44956948D01*
X65412647Y-45042933D01*
X65553649Y-45158651D01*
X65669367Y-45299653D01*
X65755352Y-45460521D01*
X65808302Y-45635071D01*
X65821700Y-45771110D01*
X65821700Y-47612090D01*
X65808302Y-47748129D01*
X65755352Y-47922679D01*
X65669367Y-48083547D01*
X65553649Y-48224549D01*
X65412647Y-48340267D01*
X65251779Y-48426252D01*
X65077229Y-48479202D01*
X64895700Y-48497080D01*
X64714172Y-48479202D01*
X64539622Y-48426252D01*
X64378754Y-48340267D01*
X64237752Y-48224549D01*
X64122034Y-48083547D01*
X64036049Y-47922679D01*
X63983099Y-47748129D01*
X63969700Y-47612089D01*
X63969700Y-45771111D01*
X63983098Y-45635072D01*
X64036048Y-45460522D01*
X64122033Y-45299653D01*
X64237751Y-45158651D01*
X64378753Y-45042933D01*
X64539621Y-44956948D01*
X64714171Y-44903998D01*
X64895700Y-44886120D01*
X65077228Y-44903998D01*
X65077228Y-44903998D01*
G37*
G36*
X51857828Y-46252703D02*
X52012700Y-46316853D01*
X52152081Y-46409985D01*
X52270615Y-46528519D01*
X52363747Y-46667900D01*
X52427897Y-46822772D01*
X52460600Y-46987184D01*
X52460600Y-47154816D01*
X52427897Y-47319228D01*
X52363747Y-47474100D01*
X52270615Y-47613481D01*
X52152081Y-47732015D01*
X52012700Y-47825147D01*
X51857828Y-47889297D01*
X51693416Y-47922000D01*
X51525784Y-47922000D01*
X51361372Y-47889297D01*
X51206500Y-47825147D01*
X51067119Y-47732015D01*
X50948585Y-47613481D01*
X50855453Y-47474100D01*
X50791303Y-47319228D01*
X50758600Y-47154816D01*
X50758600Y-46987184D01*
X50791303Y-46822772D01*
X50855453Y-46667900D01*
X50948585Y-46528519D01*
X51067119Y-46409985D01*
X51206500Y-46316853D01*
X51361372Y-46252703D01*
X51525784Y-46220000D01*
X51693416Y-46220000D01*
X51857828Y-46252703D01*
X51857828Y-46252703D01*
G37*
G36*
X43547828Y-46252703D02*
X43702700Y-46316853D01*
X43842081Y-46409985D01*
X43960615Y-46528519D01*
X44053747Y-46667900D01*
X44117897Y-46822772D01*
X44150600Y-46987184D01*
X44150600Y-47154816D01*
X44117897Y-47319228D01*
X44053747Y-47474100D01*
X43960615Y-47613481D01*
X43842081Y-47732015D01*
X43702700Y-47825147D01*
X43547828Y-47889297D01*
X43383416Y-47922000D01*
X43215784Y-47922000D01*
X43051372Y-47889297D01*
X42896500Y-47825147D01*
X42757119Y-47732015D01*
X42638585Y-47613481D01*
X42545453Y-47474100D01*
X42481303Y-47319228D01*
X42448600Y-47154816D01*
X42448600Y-46987184D01*
X42481303Y-46822772D01*
X42545453Y-46667900D01*
X42638585Y-46528519D01*
X42757119Y-46409985D01*
X42896500Y-46316853D01*
X43051372Y-46252703D01*
X43215784Y-46220000D01*
X43383416Y-46220000D01*
X43547828Y-46252703D01*
X43547828Y-46252703D01*
G37*
G36*
X46317828Y-46252703D02*
X46472700Y-46316853D01*
X46612081Y-46409985D01*
X46730615Y-46528519D01*
X46823747Y-46667900D01*
X46887897Y-46822772D01*
X46920600Y-46987184D01*
X46920600Y-47154816D01*
X46887897Y-47319228D01*
X46823747Y-47474100D01*
X46730615Y-47613481D01*
X46612081Y-47732015D01*
X46472700Y-47825147D01*
X46317828Y-47889297D01*
X46153416Y-47922000D01*
X45985784Y-47922000D01*
X45821372Y-47889297D01*
X45666500Y-47825147D01*
X45527119Y-47732015D01*
X45408585Y-47613481D01*
X45315453Y-47474100D01*
X45251303Y-47319228D01*
X45218600Y-47154816D01*
X45218600Y-46987184D01*
X45251303Y-46822772D01*
X45315453Y-46667900D01*
X45408585Y-46528519D01*
X45527119Y-46409985D01*
X45666500Y-46316853D01*
X45821372Y-46252703D01*
X45985784Y-46220000D01*
X46153416Y-46220000D01*
X46317828Y-46252703D01*
X46317828Y-46252703D01*
G37*
G36*
X49087828Y-46252703D02*
X49242700Y-46316853D01*
X49382081Y-46409985D01*
X49500615Y-46528519D01*
X49593747Y-46667900D01*
X49657897Y-46822772D01*
X49690600Y-46987184D01*
X49690600Y-47154816D01*
X49657897Y-47319228D01*
X49593747Y-47474100D01*
X49500615Y-47613481D01*
X49382081Y-47732015D01*
X49242700Y-47825147D01*
X49087828Y-47889297D01*
X48923416Y-47922000D01*
X48755784Y-47922000D01*
X48591372Y-47889297D01*
X48436500Y-47825147D01*
X48297119Y-47732015D01*
X48178585Y-47613481D01*
X48085453Y-47474100D01*
X48021303Y-47319228D01*
X47988600Y-47154816D01*
X47988600Y-46987184D01*
X48021303Y-46822772D01*
X48085453Y-46667900D01*
X48178585Y-46528519D01*
X48297119Y-46409985D01*
X48436500Y-46316853D01*
X48591372Y-46252703D01*
X48755784Y-46220000D01*
X48923416Y-46220000D01*
X49087828Y-46252703D01*
X49087828Y-46252703D01*
G37*
G36*
X80851121Y-42548574D02*
X80951395Y-42590109D01*
X81041645Y-42650412D01*
X81118388Y-42727155D01*
X81178691Y-42817405D01*
X81220226Y-42917679D01*
X81241400Y-43024130D01*
X81241400Y-43132670D01*
X81220226Y-43239121D01*
X81178691Y-43339395D01*
X81118388Y-43429645D01*
X81041645Y-43506388D01*
X80951395Y-43566691D01*
X80851121Y-43608226D01*
X80744670Y-43629400D01*
X80636130Y-43629400D01*
X80529679Y-43608226D01*
X80429405Y-43566691D01*
X80339155Y-43506388D01*
X80262412Y-43429645D01*
X80202109Y-43339395D01*
X80160574Y-43239121D01*
X80139400Y-43132670D01*
X80139400Y-43024130D01*
X80160574Y-42917679D01*
X80202109Y-42817405D01*
X80262412Y-42727155D01*
X80339155Y-42650412D01*
X80429405Y-42590109D01*
X80529679Y-42548574D01*
X80636130Y-42527400D01*
X80744670Y-42527400D01*
X80851121Y-42548574D01*
X80851121Y-42548574D01*
G37*
G36*
X85251121Y-42548574D02*
X85351395Y-42590109D01*
X85441645Y-42650412D01*
X85518388Y-42727155D01*
X85578691Y-42817405D01*
X85620226Y-42917679D01*
X85641400Y-43024130D01*
X85641400Y-43132670D01*
X85620226Y-43239121D01*
X85578691Y-43339395D01*
X85518388Y-43429645D01*
X85441645Y-43506388D01*
X85351395Y-43566691D01*
X85251121Y-43608226D01*
X85144670Y-43629400D01*
X85036130Y-43629400D01*
X84929679Y-43608226D01*
X84829405Y-43566691D01*
X84739155Y-43506388D01*
X84662412Y-43429645D01*
X84602109Y-43339395D01*
X84560574Y-43239121D01*
X84539400Y-43132670D01*
X84539400Y-43024130D01*
X84560574Y-42917679D01*
X84602109Y-42817405D01*
X84662412Y-42727155D01*
X84739155Y-42650412D01*
X84829405Y-42590109D01*
X84929679Y-42548574D01*
X85036130Y-42527400D01*
X85144670Y-42527400D01*
X85251121Y-42548574D01*
X85251121Y-42548574D01*
G37*
G36*
X71696700Y-42986600D02*
X68094700Y-42986600D01*
X68094700Y-40384600D01*
X71696700Y-40384600D01*
X71696700Y-42986600D01*
X71696700Y-42986600D01*
G37*
M02*
