G04 #@! TF.GenerationSoftware,KiCad,Pcbnew,5.0.2-bee76a0~70~ubuntu18.10.1*
G04 #@! TF.CreationDate,2019-03-15T00:59:30+01:00*
G04 #@! TF.ProjectId,Spartan6,53706172-7461-46e3-962e-6b696361645f,rev?*
G04 #@! TF.SameCoordinates,Original*
G04 #@! TF.FileFunction,Soldermask,Top*
G04 #@! TF.FilePolarity,Negative*
%FSLAX46Y46*%
G04 Gerber Fmt 4.6, Leading zero omitted, Abs format (unit mm)*
G04 Created by KiCad (PCBNEW 5.0.2-bee76a0~70~ubuntu18.10.1) date vie 15 mar 2019 00:59:30 CET*
%MOMM*%
%LPD*%
G01*
G04 APERTURE LIST*
%ADD10C,0.100000*%
G04 APERTURE END LIST*
D10*
G36*
X59140000Y-100258000D02*
X57838000Y-100258000D01*
X57838000Y-97956000D01*
X59140000Y-97956000D01*
X59140000Y-100258000D01*
X59140000Y-100258000D01*
G37*
G36*
X43640000Y-100258000D02*
X42338000Y-100258000D01*
X42338000Y-97956000D01*
X43640000Y-97956000D01*
X43640000Y-100258000D01*
X43640000Y-100258000D01*
G37*
G36*
X32920938Y-99354116D02*
X32941556Y-99360370D01*
X32960556Y-99370526D01*
X32977208Y-99384192D01*
X32990874Y-99400844D01*
X33001030Y-99419844D01*
X33007284Y-99440462D01*
X33010000Y-99468040D01*
X33010000Y-99926760D01*
X33007284Y-99954338D01*
X33001030Y-99974956D01*
X32990874Y-99993956D01*
X32977208Y-100010608D01*
X32960556Y-100024274D01*
X32941556Y-100034430D01*
X32920938Y-100040684D01*
X32893360Y-100043400D01*
X32384640Y-100043400D01*
X32357062Y-100040684D01*
X32336444Y-100034430D01*
X32317444Y-100024274D01*
X32300792Y-100010608D01*
X32287126Y-99993956D01*
X32276970Y-99974956D01*
X32270716Y-99954338D01*
X32268000Y-99926760D01*
X32268000Y-99468040D01*
X32270716Y-99440462D01*
X32276970Y-99419844D01*
X32287126Y-99400844D01*
X32300792Y-99384192D01*
X32317444Y-99370526D01*
X32336444Y-99360370D01*
X32357062Y-99354116D01*
X32384640Y-99351400D01*
X32893360Y-99351400D01*
X32920938Y-99354116D01*
X32920938Y-99354116D01*
G37*
G36*
X35465938Y-99349016D02*
X35486556Y-99355270D01*
X35505556Y-99365426D01*
X35522208Y-99379092D01*
X35535874Y-99395744D01*
X35546030Y-99414744D01*
X35552284Y-99435362D01*
X35555000Y-99462940D01*
X35555000Y-99921660D01*
X35552284Y-99949238D01*
X35546030Y-99969856D01*
X35535874Y-99988856D01*
X35522208Y-100005508D01*
X35505556Y-100019174D01*
X35486556Y-100029330D01*
X35465938Y-100035584D01*
X35438360Y-100038300D01*
X34929640Y-100038300D01*
X34902062Y-100035584D01*
X34881444Y-100029330D01*
X34862444Y-100019174D01*
X34845792Y-100005508D01*
X34832126Y-99988856D01*
X34821970Y-99969856D01*
X34815716Y-99949238D01*
X34813000Y-99921660D01*
X34813000Y-99462940D01*
X34815716Y-99435362D01*
X34821970Y-99414744D01*
X34832126Y-99395744D01*
X34845792Y-99379092D01*
X34862444Y-99365426D01*
X34881444Y-99355270D01*
X34902062Y-99349016D01*
X34929640Y-99346300D01*
X35438360Y-99346300D01*
X35465938Y-99349016D01*
X35465938Y-99349016D01*
G37*
G36*
X40363138Y-99338816D02*
X40383756Y-99345070D01*
X40402756Y-99355226D01*
X40419408Y-99368892D01*
X40433074Y-99385544D01*
X40443230Y-99404544D01*
X40449484Y-99425162D01*
X40452200Y-99452740D01*
X40452200Y-99911460D01*
X40449484Y-99939038D01*
X40443230Y-99959656D01*
X40433074Y-99978656D01*
X40419408Y-99995308D01*
X40402756Y-100008974D01*
X40383756Y-100019130D01*
X40363138Y-100025384D01*
X40335560Y-100028100D01*
X39826840Y-100028100D01*
X39799262Y-100025384D01*
X39778644Y-100019130D01*
X39759644Y-100008974D01*
X39742992Y-99995308D01*
X39729326Y-99978656D01*
X39719170Y-99959656D01*
X39712916Y-99939038D01*
X39710200Y-99911460D01*
X39710200Y-99452740D01*
X39712916Y-99425162D01*
X39719170Y-99404544D01*
X39729326Y-99385544D01*
X39742992Y-99368892D01*
X39759644Y-99355226D01*
X39778644Y-99345070D01*
X39799262Y-99338816D01*
X39826840Y-99336100D01*
X40335560Y-99336100D01*
X40363138Y-99338816D01*
X40363138Y-99338816D01*
G37*
G36*
X37945038Y-99338816D02*
X37965656Y-99345070D01*
X37984656Y-99355226D01*
X38001308Y-99368892D01*
X38014974Y-99385544D01*
X38025130Y-99404544D01*
X38031384Y-99425162D01*
X38034100Y-99452740D01*
X38034100Y-99911460D01*
X38031384Y-99939038D01*
X38025130Y-99959656D01*
X38014974Y-99978656D01*
X38001308Y-99995308D01*
X37984656Y-100008974D01*
X37965656Y-100019130D01*
X37945038Y-100025384D01*
X37917460Y-100028100D01*
X37408740Y-100028100D01*
X37381162Y-100025384D01*
X37360544Y-100019130D01*
X37341544Y-100008974D01*
X37324892Y-99995308D01*
X37311226Y-99978656D01*
X37301070Y-99959656D01*
X37294816Y-99939038D01*
X37292100Y-99911460D01*
X37292100Y-99452740D01*
X37294816Y-99425162D01*
X37301070Y-99404544D01*
X37311226Y-99385544D01*
X37324892Y-99368892D01*
X37341544Y-99355226D01*
X37360544Y-99345070D01*
X37381162Y-99338816D01*
X37408740Y-99336100D01*
X37917460Y-99336100D01*
X37945038Y-99338816D01*
X37945038Y-99338816D01*
G37*
G36*
X86309160Y-96280068D02*
X86309162Y-96280069D01*
X86309163Y-96280069D01*
X86423514Y-96327435D01*
X86618726Y-96408294D01*
X86897327Y-96594449D01*
X87134251Y-96831373D01*
X87320406Y-97109974D01*
X87448632Y-97419540D01*
X87514000Y-97748165D01*
X87514000Y-98083235D01*
X87449183Y-98409092D01*
X87448631Y-98411863D01*
X87439236Y-98434544D01*
X87320406Y-98721426D01*
X87134251Y-99000027D01*
X86897327Y-99236951D01*
X86618726Y-99423106D01*
X86467975Y-99485549D01*
X86309163Y-99551331D01*
X86309162Y-99551331D01*
X86309160Y-99551332D01*
X85980535Y-99616700D01*
X85645465Y-99616700D01*
X85316840Y-99551332D01*
X85316838Y-99551331D01*
X85316837Y-99551331D01*
X85158025Y-99485549D01*
X85007274Y-99423106D01*
X84728673Y-99236951D01*
X84491749Y-99000027D01*
X84305594Y-98721426D01*
X84186764Y-98434544D01*
X84177369Y-98411863D01*
X84176818Y-98409092D01*
X84112000Y-98083235D01*
X84112000Y-97748165D01*
X84177368Y-97419540D01*
X84305594Y-97109974D01*
X84491749Y-96831373D01*
X84728673Y-96594449D01*
X85007274Y-96408294D01*
X85202486Y-96327435D01*
X85316837Y-96280069D01*
X85316838Y-96280069D01*
X85316840Y-96280068D01*
X85645465Y-96214700D01*
X85980535Y-96214700D01*
X86309160Y-96280068D01*
X86309160Y-96280068D01*
G37*
G36*
X32920938Y-98384116D02*
X32941556Y-98390370D01*
X32960556Y-98400526D01*
X32977208Y-98414192D01*
X32990874Y-98430844D01*
X33001030Y-98449844D01*
X33007284Y-98470462D01*
X33010000Y-98498040D01*
X33010000Y-98956760D01*
X33007284Y-98984338D01*
X33001030Y-99004956D01*
X32990874Y-99023956D01*
X32977208Y-99040608D01*
X32960556Y-99054274D01*
X32941556Y-99064430D01*
X32920938Y-99070684D01*
X32893360Y-99073400D01*
X32384640Y-99073400D01*
X32357062Y-99070684D01*
X32336444Y-99064430D01*
X32317444Y-99054274D01*
X32300792Y-99040608D01*
X32287126Y-99023956D01*
X32276970Y-99004956D01*
X32270716Y-98984338D01*
X32268000Y-98956760D01*
X32268000Y-98498040D01*
X32270716Y-98470462D01*
X32276970Y-98449844D01*
X32287126Y-98430844D01*
X32300792Y-98414192D01*
X32317444Y-98400526D01*
X32336444Y-98390370D01*
X32357062Y-98384116D01*
X32384640Y-98381400D01*
X32893360Y-98381400D01*
X32920938Y-98384116D01*
X32920938Y-98384116D01*
G37*
G36*
X35465938Y-98379016D02*
X35486556Y-98385270D01*
X35505556Y-98395426D01*
X35522208Y-98409092D01*
X35535874Y-98425744D01*
X35546030Y-98444744D01*
X35552284Y-98465362D01*
X35555000Y-98492940D01*
X35555000Y-98951660D01*
X35552284Y-98979238D01*
X35546030Y-98999856D01*
X35535874Y-99018856D01*
X35522208Y-99035508D01*
X35505556Y-99049174D01*
X35486556Y-99059330D01*
X35465938Y-99065584D01*
X35438360Y-99068300D01*
X34929640Y-99068300D01*
X34902062Y-99065584D01*
X34881444Y-99059330D01*
X34862444Y-99049174D01*
X34845792Y-99035508D01*
X34832126Y-99018856D01*
X34821970Y-98999856D01*
X34815716Y-98979238D01*
X34813000Y-98951660D01*
X34813000Y-98492940D01*
X34815716Y-98465362D01*
X34821970Y-98444744D01*
X34832126Y-98425744D01*
X34845792Y-98409092D01*
X34862444Y-98395426D01*
X34881444Y-98385270D01*
X34902062Y-98379016D01*
X34929640Y-98376300D01*
X35438360Y-98376300D01*
X35465938Y-98379016D01*
X35465938Y-98379016D01*
G37*
G36*
X40363138Y-98368816D02*
X40383756Y-98375070D01*
X40402756Y-98385226D01*
X40419408Y-98398892D01*
X40433074Y-98415544D01*
X40443230Y-98434544D01*
X40449484Y-98455162D01*
X40452200Y-98482740D01*
X40452200Y-98941460D01*
X40449484Y-98969038D01*
X40443230Y-98989656D01*
X40433074Y-99008656D01*
X40419408Y-99025308D01*
X40402756Y-99038974D01*
X40383756Y-99049130D01*
X40363138Y-99055384D01*
X40335560Y-99058100D01*
X39826840Y-99058100D01*
X39799262Y-99055384D01*
X39778644Y-99049130D01*
X39759644Y-99038974D01*
X39742992Y-99025308D01*
X39729326Y-99008656D01*
X39719170Y-98989656D01*
X39712916Y-98969038D01*
X39710200Y-98941460D01*
X39710200Y-98482740D01*
X39712916Y-98455162D01*
X39719170Y-98434544D01*
X39729326Y-98415544D01*
X39742992Y-98398892D01*
X39759644Y-98385226D01*
X39778644Y-98375070D01*
X39799262Y-98368816D01*
X39826840Y-98366100D01*
X40335560Y-98366100D01*
X40363138Y-98368816D01*
X40363138Y-98368816D01*
G37*
G36*
X37945038Y-98368816D02*
X37965656Y-98375070D01*
X37984656Y-98385226D01*
X38001308Y-98398892D01*
X38014974Y-98415544D01*
X38025130Y-98434544D01*
X38031384Y-98455162D01*
X38034100Y-98482740D01*
X38034100Y-98941460D01*
X38031384Y-98969038D01*
X38025130Y-98989656D01*
X38014974Y-99008656D01*
X38001308Y-99025308D01*
X37984656Y-99038974D01*
X37965656Y-99049130D01*
X37945038Y-99055384D01*
X37917460Y-99058100D01*
X37408740Y-99058100D01*
X37381162Y-99055384D01*
X37360544Y-99049130D01*
X37341544Y-99038974D01*
X37324892Y-99025308D01*
X37311226Y-99008656D01*
X37301070Y-98989656D01*
X37294816Y-98969038D01*
X37292100Y-98941460D01*
X37292100Y-98482740D01*
X37294816Y-98455162D01*
X37301070Y-98434544D01*
X37311226Y-98415544D01*
X37324892Y-98398892D01*
X37341544Y-98385226D01*
X37360544Y-98375070D01*
X37381162Y-98368816D01*
X37408740Y-98366100D01*
X37917460Y-98366100D01*
X37945038Y-98368816D01*
X37945038Y-98368816D01*
G37*
G36*
X35101000Y-95717000D02*
X34574000Y-95717000D01*
X34574000Y-94715000D01*
X35101000Y-94715000D01*
X35101000Y-95717000D01*
X35101000Y-95717000D01*
G37*
G36*
X37501000Y-95717000D02*
X36974000Y-95717000D01*
X36974000Y-94715000D01*
X37501000Y-94715000D01*
X37501000Y-95717000D01*
X37501000Y-95717000D01*
G37*
G36*
X36701000Y-95717000D02*
X36174000Y-95717000D01*
X36174000Y-94715000D01*
X36701000Y-94715000D01*
X36701000Y-95717000D01*
X36701000Y-95717000D01*
G37*
G36*
X35901000Y-95717000D02*
X35374000Y-95717000D01*
X35374000Y-94715000D01*
X35901000Y-94715000D01*
X35901000Y-95717000D01*
X35901000Y-95717000D01*
G37*
G36*
X83050142Y-93783942D02*
X83198102Y-93845230D01*
X83331258Y-93934202D01*
X83444498Y-94047442D01*
X83533470Y-94180598D01*
X83594758Y-94328558D01*
X83626000Y-94485625D01*
X83626000Y-94645775D01*
X83594758Y-94802842D01*
X83533470Y-94950802D01*
X83444498Y-95083958D01*
X83331258Y-95197198D01*
X83198102Y-95286170D01*
X83050142Y-95347458D01*
X82893075Y-95378700D01*
X82732925Y-95378700D01*
X82575858Y-95347458D01*
X82427898Y-95286170D01*
X82294742Y-95197198D01*
X82181502Y-95083958D01*
X82092530Y-94950802D01*
X82031242Y-94802842D01*
X82000000Y-94645775D01*
X82000000Y-94485625D01*
X82031242Y-94328558D01*
X82092530Y-94180598D01*
X82181502Y-94047442D01*
X82294742Y-93934202D01*
X82427898Y-93845230D01*
X82575858Y-93783942D01*
X82732925Y-93752700D01*
X82893075Y-93752700D01*
X83050142Y-93783942D01*
X83050142Y-93783942D01*
G37*
G36*
X80550142Y-93783942D02*
X80698102Y-93845230D01*
X80831258Y-93934202D01*
X80944498Y-94047442D01*
X81033470Y-94180598D01*
X81094758Y-94328558D01*
X81126000Y-94485625D01*
X81126000Y-94645775D01*
X81094758Y-94802842D01*
X81033470Y-94950802D01*
X80944498Y-95083958D01*
X80831258Y-95197198D01*
X80698102Y-95286170D01*
X80550142Y-95347458D01*
X80393075Y-95378700D01*
X80232925Y-95378700D01*
X80075858Y-95347458D01*
X79927898Y-95286170D01*
X79794742Y-95197198D01*
X79681502Y-95083958D01*
X79592530Y-94950802D01*
X79531242Y-94802842D01*
X79500000Y-94645775D01*
X79500000Y-94485625D01*
X79531242Y-94328558D01*
X79592530Y-94180598D01*
X79681502Y-94047442D01*
X79794742Y-93934202D01*
X79927898Y-93845230D01*
X80075858Y-93783942D01*
X80232925Y-93752700D01*
X80393075Y-93752700D01*
X80550142Y-93783942D01*
X80550142Y-93783942D01*
G37*
G36*
X37501000Y-94017000D02*
X36974000Y-94017000D01*
X36974000Y-93015000D01*
X37501000Y-93015000D01*
X37501000Y-94017000D01*
X37501000Y-94017000D01*
G37*
G36*
X36701000Y-94017000D02*
X36174000Y-94017000D01*
X36174000Y-93015000D01*
X36701000Y-93015000D01*
X36701000Y-94017000D01*
X36701000Y-94017000D01*
G37*
G36*
X35101000Y-94017000D02*
X34574000Y-94017000D01*
X34574000Y-93015000D01*
X35101000Y-93015000D01*
X35101000Y-94017000D01*
X35101000Y-94017000D01*
G37*
G36*
X35901000Y-94017000D02*
X35374000Y-94017000D01*
X35374000Y-93015000D01*
X35901000Y-93015000D01*
X35901000Y-94017000D01*
X35901000Y-94017000D01*
G37*
G36*
X83050142Y-91683942D02*
X83198102Y-91745230D01*
X83331258Y-91834202D01*
X83444498Y-91947442D01*
X83533470Y-92080598D01*
X83594758Y-92228558D01*
X83626000Y-92385625D01*
X83626000Y-92545775D01*
X83594758Y-92702842D01*
X83533470Y-92850802D01*
X83444498Y-92983958D01*
X83331258Y-93097198D01*
X83198102Y-93186170D01*
X83050142Y-93247458D01*
X82893075Y-93278700D01*
X82732925Y-93278700D01*
X82575858Y-93247458D01*
X82427898Y-93186170D01*
X82294742Y-93097198D01*
X82181502Y-92983958D01*
X82092530Y-92850802D01*
X82031242Y-92702842D01*
X82000000Y-92545775D01*
X82000000Y-92385625D01*
X82031242Y-92228558D01*
X82092530Y-92080598D01*
X82181502Y-91947442D01*
X82294742Y-91834202D01*
X82427898Y-91745230D01*
X82575858Y-91683942D01*
X82732925Y-91652700D01*
X82893075Y-91652700D01*
X83050142Y-91683942D01*
X83050142Y-91683942D01*
G37*
G36*
X87109160Y-89530068D02*
X87109162Y-89530069D01*
X87109163Y-89530069D01*
X87223514Y-89577435D01*
X87418726Y-89658294D01*
X87697327Y-89844449D01*
X87934251Y-90081373D01*
X88120406Y-90359974D01*
X88120406Y-90359975D01*
X88248631Y-90669537D01*
X88314000Y-90998166D01*
X88314000Y-91333234D01*
X88248631Y-91661863D01*
X88239485Y-91683943D01*
X88120406Y-91971426D01*
X87934251Y-92250027D01*
X87697327Y-92486951D01*
X87418726Y-92673106D01*
X87346934Y-92702843D01*
X87109163Y-92801331D01*
X87109162Y-92801331D01*
X87109160Y-92801332D01*
X86780535Y-92866700D01*
X86445465Y-92866700D01*
X86116840Y-92801332D01*
X86116838Y-92801331D01*
X86116837Y-92801331D01*
X85879066Y-92702843D01*
X85807274Y-92673106D01*
X85528673Y-92486951D01*
X85291749Y-92250027D01*
X85105594Y-91971426D01*
X84986515Y-91683943D01*
X84977369Y-91661863D01*
X84912000Y-91333234D01*
X84912000Y-90998166D01*
X84977369Y-90669537D01*
X85105594Y-90359975D01*
X85105594Y-90359974D01*
X85291749Y-90081373D01*
X85528673Y-89844449D01*
X85807274Y-89658294D01*
X86002486Y-89577435D01*
X86116837Y-89530069D01*
X86116838Y-89530069D01*
X86116840Y-89530068D01*
X86445465Y-89464700D01*
X86780535Y-89464700D01*
X87109160Y-89530068D01*
X87109160Y-89530068D01*
G37*
G36*
X83050142Y-89083942D02*
X83198102Y-89145230D01*
X83331258Y-89234202D01*
X83444498Y-89347442D01*
X83533470Y-89480598D01*
X83594758Y-89628558D01*
X83626000Y-89785625D01*
X83626000Y-89945775D01*
X83594758Y-90102842D01*
X83533470Y-90250802D01*
X83444498Y-90383958D01*
X83331258Y-90497198D01*
X83198102Y-90586170D01*
X83050142Y-90647458D01*
X82893075Y-90678700D01*
X82732925Y-90678700D01*
X82575858Y-90647458D01*
X82427898Y-90586170D01*
X82294742Y-90497198D01*
X82181502Y-90383958D01*
X82092530Y-90250802D01*
X82031242Y-90102842D01*
X82000000Y-89945775D01*
X82000000Y-89785625D01*
X82031242Y-89628558D01*
X82092530Y-89480598D01*
X82181502Y-89347442D01*
X82294742Y-89234202D01*
X82427898Y-89145230D01*
X82575858Y-89083942D01*
X82732925Y-89052700D01*
X82893075Y-89052700D01*
X83050142Y-89083942D01*
X83050142Y-89083942D01*
G37*
G36*
X34664700Y-90559300D02*
X33562700Y-90559300D01*
X33562700Y-87707300D01*
X34664700Y-87707300D01*
X34664700Y-90559300D01*
X34664700Y-90559300D01*
G37*
G36*
X38664700Y-90559300D02*
X37562700Y-90559300D01*
X37562700Y-87707300D01*
X38664700Y-87707300D01*
X38664700Y-90559300D01*
X38664700Y-90559300D01*
G37*
G36*
X58440000Y-90258000D02*
X56738000Y-90258000D01*
X56738000Y-88756000D01*
X58440000Y-88756000D01*
X58440000Y-90258000D01*
X58440000Y-90258000D01*
G37*
G36*
X44540000Y-89858000D02*
X43765000Y-89858000D01*
X43740614Y-89860402D01*
X43717165Y-89867515D01*
X43695554Y-89879066D01*
X43676612Y-89894612D01*
X43661066Y-89913554D01*
X43649515Y-89935165D01*
X43642402Y-89958614D01*
X43640000Y-89983000D01*
X43640000Y-90258000D01*
X42338000Y-90258000D01*
X42338000Y-88756000D01*
X43613000Y-88756000D01*
X43637386Y-88753598D01*
X43660835Y-88746485D01*
X43682446Y-88734934D01*
X43701388Y-88719388D01*
X43716934Y-88700446D01*
X43728485Y-88678835D01*
X43735598Y-88655386D01*
X43738000Y-88631000D01*
X43738000Y-88156000D01*
X44540000Y-88156000D01*
X44540000Y-89858000D01*
X44540000Y-89858000D01*
G37*
G36*
X51140000Y-89858000D02*
X50338000Y-89858000D01*
X50338000Y-88156000D01*
X51140000Y-88156000D01*
X51140000Y-89858000D01*
X51140000Y-89858000D01*
G37*
G36*
X52240000Y-89858000D02*
X51438000Y-89858000D01*
X51438000Y-88156000D01*
X52240000Y-88156000D01*
X52240000Y-89858000D01*
X52240000Y-89858000D01*
G37*
G36*
X53340000Y-89858000D02*
X52538000Y-89858000D01*
X52538000Y-88156000D01*
X53340000Y-88156000D01*
X53340000Y-89858000D01*
X53340000Y-89858000D01*
G37*
G36*
X50040000Y-89858000D02*
X49238000Y-89858000D01*
X49238000Y-88156000D01*
X50040000Y-88156000D01*
X50040000Y-89858000D01*
X50040000Y-89858000D01*
G37*
G36*
X48940000Y-89858000D02*
X48138000Y-89858000D01*
X48138000Y-88156000D01*
X48940000Y-88156000D01*
X48940000Y-89858000D01*
X48940000Y-89858000D01*
G37*
G36*
X46740000Y-89858000D02*
X45938000Y-89858000D01*
X45938000Y-88156000D01*
X46740000Y-88156000D01*
X46740000Y-89858000D01*
X46740000Y-89858000D01*
G37*
G36*
X45640000Y-89858000D02*
X44838000Y-89858000D01*
X44838000Y-88156000D01*
X45640000Y-88156000D01*
X45640000Y-89858000D01*
X45640000Y-89858000D01*
G37*
G36*
X47840000Y-89858000D02*
X47038000Y-89858000D01*
X47038000Y-88156000D01*
X47840000Y-88156000D01*
X47840000Y-89858000D01*
X47840000Y-89858000D01*
G37*
G36*
X83050142Y-86983942D02*
X83198102Y-87045230D01*
X83265130Y-87090017D01*
X83331257Y-87134201D01*
X83444499Y-87247443D01*
X83480371Y-87301130D01*
X83533470Y-87380598D01*
X83594758Y-87528558D01*
X83626000Y-87685625D01*
X83626000Y-87845775D01*
X83594758Y-88002842D01*
X83533470Y-88150802D01*
X83444498Y-88283958D01*
X83331258Y-88397198D01*
X83198102Y-88486170D01*
X83050142Y-88547458D01*
X82893075Y-88578700D01*
X82732925Y-88578700D01*
X82575858Y-88547458D01*
X82427898Y-88486170D01*
X82294742Y-88397198D01*
X82181502Y-88283958D01*
X82092530Y-88150802D01*
X82031242Y-88002842D01*
X82000000Y-87845775D01*
X82000000Y-87685625D01*
X82031242Y-87528558D01*
X82092530Y-87380598D01*
X82145629Y-87301130D01*
X82181501Y-87247443D01*
X82294743Y-87134201D01*
X82360870Y-87090017D01*
X82427898Y-87045230D01*
X82575858Y-86983942D01*
X82732925Y-86952700D01*
X82893075Y-86952700D01*
X83050142Y-86983942D01*
X83050142Y-86983942D01*
G37*
G36*
X80550142Y-86983942D02*
X80698102Y-87045230D01*
X80765130Y-87090017D01*
X80831257Y-87134201D01*
X80944499Y-87247443D01*
X80980371Y-87301130D01*
X81033470Y-87380598D01*
X81094758Y-87528558D01*
X81126000Y-87685625D01*
X81126000Y-87845775D01*
X81094758Y-88002842D01*
X81033470Y-88150802D01*
X80944498Y-88283958D01*
X80831258Y-88397198D01*
X80698102Y-88486170D01*
X80550142Y-88547458D01*
X80393075Y-88578700D01*
X80232925Y-88578700D01*
X80075858Y-88547458D01*
X79927898Y-88486170D01*
X79794742Y-88397198D01*
X79681502Y-88283958D01*
X79592530Y-88150802D01*
X79531242Y-88002842D01*
X79500000Y-87845775D01*
X79500000Y-87685625D01*
X79531242Y-87528558D01*
X79592530Y-87380598D01*
X79645629Y-87301130D01*
X79681501Y-87247443D01*
X79794743Y-87134201D01*
X79860870Y-87090017D01*
X79927898Y-87045230D01*
X80075858Y-86983942D01*
X80232925Y-86952700D01*
X80393075Y-86952700D01*
X80550142Y-86983942D01*
X80550142Y-86983942D01*
G37*
G36*
X45629138Y-86570816D02*
X45649756Y-86577070D01*
X45668756Y-86587226D01*
X45685408Y-86600892D01*
X45699074Y-86617544D01*
X45709230Y-86636544D01*
X45715484Y-86657162D01*
X45718200Y-86684740D01*
X45718200Y-87193460D01*
X45715484Y-87221038D01*
X45709230Y-87241656D01*
X45699074Y-87260656D01*
X45685408Y-87277308D01*
X45668756Y-87290974D01*
X45649756Y-87301130D01*
X45629138Y-87307384D01*
X45601560Y-87310100D01*
X45142840Y-87310100D01*
X45115262Y-87307384D01*
X45094644Y-87301130D01*
X45075644Y-87290974D01*
X45058992Y-87277308D01*
X45045326Y-87260656D01*
X45035170Y-87241656D01*
X45028916Y-87221038D01*
X45026200Y-87193460D01*
X45026200Y-86684740D01*
X45028916Y-86657162D01*
X45035170Y-86636544D01*
X45045326Y-86617544D01*
X45058992Y-86600892D01*
X45075644Y-86587226D01*
X45094644Y-86577070D01*
X45115262Y-86570816D01*
X45142840Y-86568100D01*
X45601560Y-86568100D01*
X45629138Y-86570816D01*
X45629138Y-86570816D01*
G37*
G36*
X46599138Y-86570816D02*
X46619756Y-86577070D01*
X46638756Y-86587226D01*
X46655408Y-86600892D01*
X46669074Y-86617544D01*
X46679230Y-86636544D01*
X46685484Y-86657162D01*
X46688200Y-86684740D01*
X46688200Y-87193460D01*
X46685484Y-87221038D01*
X46679230Y-87241656D01*
X46669074Y-87260656D01*
X46655408Y-87277308D01*
X46638756Y-87290974D01*
X46619756Y-87301130D01*
X46599138Y-87307384D01*
X46571560Y-87310100D01*
X46112840Y-87310100D01*
X46085262Y-87307384D01*
X46064644Y-87301130D01*
X46045644Y-87290974D01*
X46028992Y-87277308D01*
X46015326Y-87260656D01*
X46005170Y-87241656D01*
X45998916Y-87221038D01*
X45996200Y-87193460D01*
X45996200Y-86684740D01*
X45998916Y-86657162D01*
X46005170Y-86636544D01*
X46015326Y-86617544D01*
X46028992Y-86600892D01*
X46045644Y-86587226D01*
X46064644Y-86577070D01*
X46085262Y-86570816D01*
X46112840Y-86568100D01*
X46571560Y-86568100D01*
X46599138Y-86570816D01*
X46599138Y-86570816D01*
G37*
G36*
X86309160Y-82780068D02*
X86309162Y-82780069D01*
X86309163Y-82780069D01*
X86423514Y-82827435D01*
X86618726Y-82908294D01*
X86897327Y-83094449D01*
X87134251Y-83331373D01*
X87320406Y-83609974D01*
X87448632Y-83919540D01*
X87514000Y-84248165D01*
X87514000Y-84583235D01*
X87448632Y-84911860D01*
X87320406Y-85221426D01*
X87134251Y-85500027D01*
X86897327Y-85736951D01*
X86618726Y-85923106D01*
X86423514Y-86003965D01*
X86309163Y-86051331D01*
X86309162Y-86051331D01*
X86309160Y-86051332D01*
X85980535Y-86116700D01*
X85645465Y-86116700D01*
X85316840Y-86051332D01*
X85316838Y-86051331D01*
X85316837Y-86051331D01*
X85202486Y-86003965D01*
X85007274Y-85923106D01*
X84728673Y-85736951D01*
X84491749Y-85500027D01*
X84305594Y-85221426D01*
X84177368Y-84911860D01*
X84112000Y-84583235D01*
X84112000Y-84248165D01*
X84177368Y-83919540D01*
X84305594Y-83609974D01*
X84491749Y-83331373D01*
X84728673Y-83094449D01*
X85007274Y-82908294D01*
X85202486Y-82827435D01*
X85316837Y-82780069D01*
X85316838Y-82780069D01*
X85316840Y-82780068D01*
X85645465Y-82714700D01*
X85980535Y-82714700D01*
X86309160Y-82780068D01*
X86309160Y-82780068D01*
G37*
G36*
X40477438Y-84411296D02*
X40498056Y-84417550D01*
X40517056Y-84427706D01*
X40533708Y-84441372D01*
X40547374Y-84458024D01*
X40557530Y-84477024D01*
X40563784Y-84497642D01*
X40566500Y-84525220D01*
X40566500Y-84983940D01*
X40563784Y-85011518D01*
X40557530Y-85032136D01*
X40547374Y-85051136D01*
X40533708Y-85067788D01*
X40517056Y-85081454D01*
X40498056Y-85091610D01*
X40477438Y-85097864D01*
X40449860Y-85100580D01*
X39941140Y-85100580D01*
X39913562Y-85097864D01*
X39892944Y-85091610D01*
X39873944Y-85081454D01*
X39857292Y-85067788D01*
X39843626Y-85051136D01*
X39833470Y-85032136D01*
X39827216Y-85011518D01*
X39824500Y-84983940D01*
X39824500Y-84525220D01*
X39827216Y-84497642D01*
X39833470Y-84477024D01*
X39843626Y-84458024D01*
X39857292Y-84441372D01*
X39873944Y-84427706D01*
X39892944Y-84417550D01*
X39913562Y-84411296D01*
X39941140Y-84408580D01*
X40449860Y-84408580D01*
X40477438Y-84411296D01*
X40477438Y-84411296D01*
G37*
G36*
X34664700Y-84799300D02*
X33562700Y-84799300D01*
X33562700Y-81947300D01*
X34664700Y-81947300D01*
X34664700Y-84799300D01*
X34664700Y-84799300D01*
G37*
G36*
X38664700Y-84799300D02*
X37562700Y-84799300D01*
X37562700Y-81947300D01*
X38664700Y-81947300D01*
X38664700Y-84799300D01*
X38664700Y-84799300D01*
G37*
G36*
X48906700Y-84539900D02*
X47504700Y-84539900D01*
X47504700Y-83337900D01*
X48906700Y-83337900D01*
X48906700Y-84539900D01*
X48906700Y-84539900D01*
G37*
G36*
X51006700Y-84539900D02*
X49604700Y-84539900D01*
X49604700Y-83337900D01*
X51006700Y-83337900D01*
X51006700Y-84539900D01*
X51006700Y-84539900D01*
G37*
G36*
X40477438Y-83441296D02*
X40498056Y-83447550D01*
X40517056Y-83457706D01*
X40533708Y-83471372D01*
X40547374Y-83488024D01*
X40557530Y-83507024D01*
X40563784Y-83527642D01*
X40566500Y-83555220D01*
X40566500Y-84013940D01*
X40563784Y-84041518D01*
X40557530Y-84062136D01*
X40547374Y-84081136D01*
X40533708Y-84097788D01*
X40517056Y-84111454D01*
X40498056Y-84121610D01*
X40477438Y-84127864D01*
X40449860Y-84130580D01*
X39941140Y-84130580D01*
X39913562Y-84127864D01*
X39892944Y-84121610D01*
X39873944Y-84111454D01*
X39857292Y-84097788D01*
X39843626Y-84081136D01*
X39833470Y-84062136D01*
X39827216Y-84041518D01*
X39824500Y-84013940D01*
X39824500Y-83555220D01*
X39827216Y-83527642D01*
X39833470Y-83507024D01*
X39843626Y-83488024D01*
X39857292Y-83471372D01*
X39873944Y-83457706D01*
X39892944Y-83447550D01*
X39913562Y-83441296D01*
X39941140Y-83438580D01*
X40449860Y-83438580D01*
X40477438Y-83441296D01*
X40477438Y-83441296D01*
G37*
G36*
X71923400Y-83302500D02*
X70211400Y-83302500D01*
X70211400Y-82620500D01*
X71923400Y-82620500D01*
X71923400Y-83302500D01*
X71923400Y-83302500D01*
G37*
G36*
X64713400Y-83302500D02*
X63001400Y-83302500D01*
X63001400Y-82620500D01*
X64713400Y-82620500D01*
X64713400Y-83302500D01*
X64713400Y-83302500D01*
G37*
G36*
X44096938Y-82483416D02*
X44117556Y-82489670D01*
X44136556Y-82499826D01*
X44153208Y-82513492D01*
X44166874Y-82530144D01*
X44177030Y-82549144D01*
X44183284Y-82569762D01*
X44186000Y-82597340D01*
X44186000Y-83056060D01*
X44183284Y-83083638D01*
X44177030Y-83104256D01*
X44166874Y-83123256D01*
X44153208Y-83139908D01*
X44136556Y-83153574D01*
X44117556Y-83163730D01*
X44096938Y-83169984D01*
X44069360Y-83172700D01*
X43560640Y-83172700D01*
X43533062Y-83169984D01*
X43512444Y-83163730D01*
X43493444Y-83153574D01*
X43476792Y-83139908D01*
X43463126Y-83123256D01*
X43452970Y-83104256D01*
X43446716Y-83083638D01*
X43444000Y-83056060D01*
X43444000Y-82597340D01*
X43446716Y-82569762D01*
X43452970Y-82549144D01*
X43463126Y-82530144D01*
X43476792Y-82513492D01*
X43493444Y-82499826D01*
X43512444Y-82489670D01*
X43533062Y-82483416D01*
X43560640Y-82480700D01*
X44069360Y-82480700D01*
X44096938Y-82483416D01*
X44096938Y-82483416D01*
G37*
G36*
X46616638Y-82478316D02*
X46637256Y-82484570D01*
X46656256Y-82494726D01*
X46672908Y-82508392D01*
X46686574Y-82525044D01*
X46696730Y-82544044D01*
X46702984Y-82564662D01*
X46705700Y-82592240D01*
X46705700Y-83050960D01*
X46702984Y-83078538D01*
X46696730Y-83099156D01*
X46686574Y-83118156D01*
X46672908Y-83134808D01*
X46656256Y-83148474D01*
X46637256Y-83158630D01*
X46616638Y-83164884D01*
X46589060Y-83167600D01*
X46080340Y-83167600D01*
X46052762Y-83164884D01*
X46032144Y-83158630D01*
X46013144Y-83148474D01*
X45996492Y-83134808D01*
X45982826Y-83118156D01*
X45972670Y-83099156D01*
X45966416Y-83078538D01*
X45963700Y-83050960D01*
X45963700Y-82592240D01*
X45966416Y-82564662D01*
X45972670Y-82544044D01*
X45982826Y-82525044D01*
X45996492Y-82508392D01*
X46013144Y-82494726D01*
X46032144Y-82484570D01*
X46052762Y-82478316D01*
X46080340Y-82475600D01*
X46589060Y-82475600D01*
X46616638Y-82478316D01*
X46616638Y-82478316D01*
G37*
G36*
X52514538Y-82478316D02*
X52535156Y-82484570D01*
X52554156Y-82494726D01*
X52570808Y-82508392D01*
X52584474Y-82525044D01*
X52594630Y-82544044D01*
X52600884Y-82564662D01*
X52603600Y-82592240D01*
X52603600Y-83050960D01*
X52600884Y-83078538D01*
X52594630Y-83099156D01*
X52584474Y-83118156D01*
X52570808Y-83134808D01*
X52554156Y-83148474D01*
X52535156Y-83158630D01*
X52514538Y-83164884D01*
X52486960Y-83167600D01*
X51978240Y-83167600D01*
X51950662Y-83164884D01*
X51930044Y-83158630D01*
X51911044Y-83148474D01*
X51894392Y-83134808D01*
X51880726Y-83118156D01*
X51870570Y-83099156D01*
X51864316Y-83078538D01*
X51861600Y-83050960D01*
X51861600Y-82592240D01*
X51864316Y-82564662D01*
X51870570Y-82544044D01*
X51880726Y-82525044D01*
X51894392Y-82508392D01*
X51911044Y-82494726D01*
X51930044Y-82484570D01*
X51950662Y-82478316D01*
X51978240Y-82475600D01*
X52486960Y-82475600D01*
X52514538Y-82478316D01*
X52514538Y-82478316D01*
G37*
G36*
X54597338Y-82473316D02*
X54617956Y-82479570D01*
X54636956Y-82489726D01*
X54653608Y-82503392D01*
X54667274Y-82520044D01*
X54677430Y-82539044D01*
X54683684Y-82559662D01*
X54686400Y-82587240D01*
X54686400Y-83045960D01*
X54683684Y-83073538D01*
X54677430Y-83094156D01*
X54667274Y-83113156D01*
X54653608Y-83129808D01*
X54636956Y-83143474D01*
X54617956Y-83153630D01*
X54597338Y-83159884D01*
X54569760Y-83162600D01*
X54061040Y-83162600D01*
X54033462Y-83159884D01*
X54012844Y-83153630D01*
X53993844Y-83143474D01*
X53977192Y-83129808D01*
X53963526Y-83113156D01*
X53953370Y-83094156D01*
X53947116Y-83073538D01*
X53944400Y-83045960D01*
X53944400Y-82587240D01*
X53947116Y-82559662D01*
X53953370Y-82539044D01*
X53963526Y-82520044D01*
X53977192Y-82503392D01*
X53993844Y-82489726D01*
X54012844Y-82479570D01*
X54033462Y-82473316D01*
X54061040Y-82470600D01*
X54569760Y-82470600D01*
X54597338Y-82473316D01*
X54597338Y-82473316D01*
G37*
G36*
X51006700Y-82889900D02*
X49604700Y-82889900D01*
X49604700Y-81687900D01*
X51006700Y-81687900D01*
X51006700Y-82889900D01*
X51006700Y-82889900D01*
G37*
G36*
X48906700Y-82889900D02*
X47504700Y-82889900D01*
X47504700Y-81687900D01*
X48906700Y-81687900D01*
X48906700Y-82889900D01*
X48906700Y-82889900D01*
G37*
G36*
X44096938Y-81513416D02*
X44117556Y-81519670D01*
X44136556Y-81529826D01*
X44153208Y-81543492D01*
X44166874Y-81560144D01*
X44177030Y-81579144D01*
X44183284Y-81599762D01*
X44186000Y-81627340D01*
X44186000Y-82086060D01*
X44183284Y-82113638D01*
X44177030Y-82134256D01*
X44166874Y-82153256D01*
X44153208Y-82169908D01*
X44136556Y-82183574D01*
X44117556Y-82193730D01*
X44096938Y-82199984D01*
X44069360Y-82202700D01*
X43560640Y-82202700D01*
X43533062Y-82199984D01*
X43512444Y-82193730D01*
X43493444Y-82183574D01*
X43476792Y-82169908D01*
X43463126Y-82153256D01*
X43452970Y-82134256D01*
X43446716Y-82113638D01*
X43444000Y-82086060D01*
X43444000Y-81627340D01*
X43446716Y-81599762D01*
X43452970Y-81579144D01*
X43463126Y-81560144D01*
X43476792Y-81543492D01*
X43493444Y-81529826D01*
X43512444Y-81519670D01*
X43533062Y-81513416D01*
X43560640Y-81510700D01*
X44069360Y-81510700D01*
X44096938Y-81513416D01*
X44096938Y-81513416D01*
G37*
G36*
X52514538Y-81508316D02*
X52535156Y-81514570D01*
X52554156Y-81524726D01*
X52570808Y-81538392D01*
X52584474Y-81555044D01*
X52594630Y-81574044D01*
X52600884Y-81594662D01*
X52603600Y-81622240D01*
X52603600Y-82080960D01*
X52600884Y-82108538D01*
X52594630Y-82129156D01*
X52584474Y-82148156D01*
X52570808Y-82164808D01*
X52554156Y-82178474D01*
X52535156Y-82188630D01*
X52514538Y-82194884D01*
X52486960Y-82197600D01*
X51978240Y-82197600D01*
X51950662Y-82194884D01*
X51930044Y-82188630D01*
X51911044Y-82178474D01*
X51894392Y-82164808D01*
X51880726Y-82148156D01*
X51870570Y-82129156D01*
X51864316Y-82108538D01*
X51861600Y-82080960D01*
X51861600Y-81622240D01*
X51864316Y-81594662D01*
X51870570Y-81574044D01*
X51880726Y-81555044D01*
X51894392Y-81538392D01*
X51911044Y-81524726D01*
X51930044Y-81514570D01*
X51950662Y-81508316D01*
X51978240Y-81505600D01*
X52486960Y-81505600D01*
X52514538Y-81508316D01*
X52514538Y-81508316D01*
G37*
G36*
X46616638Y-81508316D02*
X46637256Y-81514570D01*
X46656256Y-81524726D01*
X46672908Y-81538392D01*
X46686574Y-81555044D01*
X46696730Y-81574044D01*
X46702984Y-81594662D01*
X46705700Y-81622240D01*
X46705700Y-82080960D01*
X46702984Y-82108538D01*
X46696730Y-82129156D01*
X46686574Y-82148156D01*
X46672908Y-82164808D01*
X46656256Y-82178474D01*
X46637256Y-82188630D01*
X46616638Y-82194884D01*
X46589060Y-82197600D01*
X46080340Y-82197600D01*
X46052762Y-82194884D01*
X46032144Y-82188630D01*
X46013144Y-82178474D01*
X45996492Y-82164808D01*
X45982826Y-82148156D01*
X45972670Y-82129156D01*
X45966416Y-82108538D01*
X45963700Y-82080960D01*
X45963700Y-81622240D01*
X45966416Y-81594662D01*
X45972670Y-81574044D01*
X45982826Y-81555044D01*
X45996492Y-81538392D01*
X46013144Y-81524726D01*
X46032144Y-81514570D01*
X46052762Y-81508316D01*
X46080340Y-81505600D01*
X46589060Y-81505600D01*
X46616638Y-81508316D01*
X46616638Y-81508316D01*
G37*
G36*
X54597338Y-81503316D02*
X54617956Y-81509570D01*
X54636956Y-81519726D01*
X54653608Y-81533392D01*
X54667274Y-81550044D01*
X54677430Y-81569044D01*
X54683684Y-81589662D01*
X54686400Y-81617240D01*
X54686400Y-82075960D01*
X54683684Y-82103538D01*
X54677430Y-82124156D01*
X54667274Y-82143156D01*
X54653608Y-82159808D01*
X54636956Y-82173474D01*
X54617956Y-82183630D01*
X54597338Y-82189884D01*
X54569760Y-82192600D01*
X54061040Y-82192600D01*
X54033462Y-82189884D01*
X54012844Y-82183630D01*
X53993844Y-82173474D01*
X53977192Y-82159808D01*
X53963526Y-82143156D01*
X53953370Y-82124156D01*
X53947116Y-82103538D01*
X53944400Y-82075960D01*
X53944400Y-81617240D01*
X53947116Y-81589662D01*
X53953370Y-81569044D01*
X53963526Y-81550044D01*
X53977192Y-81533392D01*
X53993844Y-81519726D01*
X54012844Y-81509570D01*
X54033462Y-81503316D01*
X54061040Y-81500600D01*
X54569760Y-81500600D01*
X54597338Y-81503316D01*
X54597338Y-81503316D01*
G37*
G36*
X64713400Y-82032500D02*
X63001400Y-82032500D01*
X63001400Y-81350500D01*
X64713400Y-81350500D01*
X64713400Y-82032500D01*
X64713400Y-82032500D01*
G37*
G36*
X71923400Y-82032500D02*
X70211400Y-82032500D01*
X70211400Y-81350500D01*
X71923400Y-81350500D01*
X71923400Y-82032500D01*
X71923400Y-82032500D01*
G37*
G36*
X71923400Y-80762500D02*
X70211400Y-80762500D01*
X70211400Y-80080500D01*
X71923400Y-80080500D01*
X71923400Y-80762500D01*
X71923400Y-80762500D01*
G37*
G36*
X64713400Y-80762500D02*
X63001400Y-80762500D01*
X63001400Y-80080500D01*
X64713400Y-80080500D01*
X64713400Y-80762500D01*
X64713400Y-80762500D01*
G37*
G36*
X59009300Y-80759600D02*
X41107300Y-80759600D01*
X41107300Y-79057600D01*
X59009300Y-79057600D01*
X59009300Y-80759600D01*
X59009300Y-80759600D01*
G37*
G36*
X64713400Y-79492500D02*
X63001400Y-79492500D01*
X63001400Y-78810500D01*
X64713400Y-78810500D01*
X64713400Y-79492500D01*
X64713400Y-79492500D01*
G37*
G36*
X71923400Y-79492500D02*
X70211400Y-79492500D01*
X70211400Y-78810500D01*
X71923400Y-78810500D01*
X71923400Y-79492500D01*
X71923400Y-79492500D01*
G37*
G36*
X80722652Y-74537918D02*
X80722654Y-74537919D01*
X80722655Y-74537919D01*
X81095913Y-74692527D01*
X81268341Y-74807740D01*
X81431839Y-74916986D01*
X81717514Y-75202661D01*
X81717516Y-75202664D01*
X81941973Y-75538587D01*
X82072911Y-75854700D01*
X82096582Y-75911848D01*
X82175400Y-76308093D01*
X82175400Y-76712107D01*
X82119239Y-76994449D01*
X82096581Y-77108355D01*
X81941973Y-77481613D01*
X81866961Y-77593876D01*
X81717514Y-77817539D01*
X81431839Y-78103214D01*
X81431836Y-78103216D01*
X81095913Y-78327673D01*
X80722655Y-78482281D01*
X80722654Y-78482281D01*
X80722652Y-78482282D01*
X80326407Y-78561100D01*
X79922393Y-78561100D01*
X79526148Y-78482282D01*
X79526146Y-78482281D01*
X79526145Y-78482281D01*
X79152887Y-78327673D01*
X78816964Y-78103216D01*
X78816961Y-78103214D01*
X78531286Y-77817539D01*
X78381839Y-77593876D01*
X78306827Y-77481613D01*
X78152219Y-77108355D01*
X78129562Y-76994449D01*
X78073400Y-76712107D01*
X78073400Y-76308093D01*
X78152218Y-75911848D01*
X78175889Y-75854700D01*
X78306827Y-75538587D01*
X78531284Y-75202664D01*
X78531286Y-75202661D01*
X78816961Y-74916986D01*
X78980459Y-74807740D01*
X79152887Y-74692527D01*
X79526145Y-74537919D01*
X79526146Y-74537919D01*
X79526148Y-74537918D01*
X79922393Y-74459100D01*
X80326407Y-74459100D01*
X80722652Y-74537918D01*
X80722652Y-74537918D01*
G37*
G36*
X36144738Y-77193116D02*
X36165356Y-77199370D01*
X36184356Y-77209526D01*
X36201008Y-77223192D01*
X36214674Y-77239844D01*
X36224830Y-77258844D01*
X36231084Y-77279462D01*
X36233800Y-77307040D01*
X36233800Y-77815760D01*
X36231084Y-77843338D01*
X36224830Y-77863956D01*
X36214674Y-77882956D01*
X36201008Y-77899608D01*
X36184356Y-77913274D01*
X36165356Y-77923430D01*
X36144738Y-77929684D01*
X36117160Y-77932400D01*
X35658440Y-77932400D01*
X35630862Y-77929684D01*
X35610244Y-77923430D01*
X35591244Y-77913274D01*
X35574592Y-77899608D01*
X35560926Y-77882956D01*
X35550770Y-77863956D01*
X35544516Y-77843338D01*
X35541800Y-77815760D01*
X35541800Y-77307040D01*
X35544516Y-77279462D01*
X35550770Y-77258844D01*
X35560926Y-77239844D01*
X35574592Y-77223192D01*
X35591244Y-77209526D01*
X35610244Y-77199370D01*
X35630862Y-77193116D01*
X35658440Y-77190400D01*
X36117160Y-77190400D01*
X36144738Y-77193116D01*
X36144738Y-77193116D01*
G37*
G36*
X37114738Y-77193116D02*
X37135356Y-77199370D01*
X37154356Y-77209526D01*
X37171008Y-77223192D01*
X37184674Y-77239844D01*
X37194830Y-77258844D01*
X37201084Y-77279462D01*
X37203800Y-77307040D01*
X37203800Y-77815760D01*
X37201084Y-77843338D01*
X37194830Y-77863956D01*
X37184674Y-77882956D01*
X37171008Y-77899608D01*
X37154356Y-77913274D01*
X37135356Y-77923430D01*
X37114738Y-77929684D01*
X37087160Y-77932400D01*
X36628440Y-77932400D01*
X36600862Y-77929684D01*
X36580244Y-77923430D01*
X36561244Y-77913274D01*
X36544592Y-77899608D01*
X36530926Y-77882956D01*
X36520770Y-77863956D01*
X36514516Y-77843338D01*
X36511800Y-77815760D01*
X36511800Y-77307040D01*
X36514516Y-77279462D01*
X36520770Y-77258844D01*
X36530926Y-77239844D01*
X36544592Y-77223192D01*
X36561244Y-77209526D01*
X36580244Y-77199370D01*
X36600862Y-77193116D01*
X36628440Y-77190400D01*
X37087160Y-77190400D01*
X37114738Y-77193116D01*
X37114738Y-77193116D01*
G37*
G36*
X39809300Y-77759600D02*
X38107300Y-77759600D01*
X38107300Y-59857600D01*
X39809300Y-59857600D01*
X39809300Y-77759600D01*
X39809300Y-77759600D01*
G37*
G36*
X62009300Y-77759600D02*
X60307300Y-77759600D01*
X60307300Y-59857600D01*
X62009300Y-59857600D01*
X62009300Y-77759600D01*
X62009300Y-77759600D01*
G37*
G36*
X70353438Y-76857916D02*
X70374056Y-76864170D01*
X70393056Y-76874326D01*
X70409708Y-76887992D01*
X70423374Y-76904644D01*
X70433530Y-76923644D01*
X70439784Y-76944262D01*
X70442500Y-76971840D01*
X70442500Y-77480560D01*
X70439784Y-77508138D01*
X70433530Y-77528756D01*
X70423374Y-77547756D01*
X70409708Y-77564408D01*
X70393056Y-77578074D01*
X70374056Y-77588230D01*
X70353438Y-77594484D01*
X70325860Y-77597200D01*
X69867140Y-77597200D01*
X69839562Y-77594484D01*
X69818944Y-77588230D01*
X69799944Y-77578074D01*
X69783292Y-77564408D01*
X69769626Y-77547756D01*
X69759470Y-77528756D01*
X69753216Y-77508138D01*
X69750500Y-77480560D01*
X69750500Y-76971840D01*
X69753216Y-76944262D01*
X69759470Y-76923644D01*
X69769626Y-76904644D01*
X69783292Y-76887992D01*
X69799944Y-76874326D01*
X69818944Y-76864170D01*
X69839562Y-76857916D01*
X69867140Y-76855200D01*
X70325860Y-76855200D01*
X70353438Y-76857916D01*
X70353438Y-76857916D01*
G37*
G36*
X71323438Y-76857916D02*
X71344056Y-76864170D01*
X71363056Y-76874326D01*
X71379708Y-76887992D01*
X71393374Y-76904644D01*
X71403530Y-76923644D01*
X71409784Y-76944262D01*
X71412500Y-76971840D01*
X71412500Y-77480560D01*
X71409784Y-77508138D01*
X71403530Y-77528756D01*
X71393374Y-77547756D01*
X71379708Y-77564408D01*
X71363056Y-77578074D01*
X71344056Y-77588230D01*
X71323438Y-77594484D01*
X71295860Y-77597200D01*
X70837140Y-77597200D01*
X70809562Y-77594484D01*
X70788944Y-77588230D01*
X70769944Y-77578074D01*
X70753292Y-77564408D01*
X70739626Y-77547756D01*
X70729470Y-77528756D01*
X70723216Y-77508138D01*
X70720500Y-77480560D01*
X70720500Y-76971840D01*
X70723216Y-76944262D01*
X70729470Y-76923644D01*
X70739626Y-76904644D01*
X70753292Y-76887992D01*
X70769944Y-76874326D01*
X70788944Y-76864170D01*
X70809562Y-76857916D01*
X70837140Y-76855200D01*
X71295860Y-76855200D01*
X71323438Y-76857916D01*
X71323438Y-76857916D01*
G37*
G36*
X64115238Y-75684416D02*
X64135856Y-75690670D01*
X64154856Y-75700826D01*
X64171508Y-75714492D01*
X64185174Y-75731144D01*
X64195330Y-75750144D01*
X64201584Y-75770762D01*
X64204300Y-75798340D01*
X64204300Y-76307060D01*
X64201584Y-76334638D01*
X64195330Y-76355256D01*
X64185174Y-76374256D01*
X64171508Y-76390908D01*
X64154856Y-76404574D01*
X64135856Y-76414730D01*
X64115238Y-76420984D01*
X64087660Y-76423700D01*
X63628940Y-76423700D01*
X63601362Y-76420984D01*
X63580744Y-76414730D01*
X63561744Y-76404574D01*
X63545092Y-76390908D01*
X63531426Y-76374256D01*
X63521270Y-76355256D01*
X63515016Y-76334638D01*
X63512300Y-76307060D01*
X63512300Y-75798340D01*
X63515016Y-75770762D01*
X63521270Y-75750144D01*
X63531426Y-75731144D01*
X63545092Y-75714492D01*
X63561744Y-75700826D01*
X63580744Y-75690670D01*
X63601362Y-75684416D01*
X63628940Y-75681700D01*
X64087660Y-75681700D01*
X64115238Y-75684416D01*
X64115238Y-75684416D01*
G37*
G36*
X65085238Y-75684416D02*
X65105856Y-75690670D01*
X65124856Y-75700826D01*
X65141508Y-75714492D01*
X65155174Y-75731144D01*
X65165330Y-75750144D01*
X65171584Y-75770762D01*
X65174300Y-75798340D01*
X65174300Y-76307060D01*
X65171584Y-76334638D01*
X65165330Y-76355256D01*
X65155174Y-76374256D01*
X65141508Y-76390908D01*
X65124856Y-76404574D01*
X65105856Y-76414730D01*
X65085238Y-76420984D01*
X65057660Y-76423700D01*
X64598940Y-76423700D01*
X64571362Y-76420984D01*
X64550744Y-76414730D01*
X64531744Y-76404574D01*
X64515092Y-76390908D01*
X64501426Y-76374256D01*
X64491270Y-76355256D01*
X64485016Y-76334638D01*
X64482300Y-76307060D01*
X64482300Y-75798340D01*
X64485016Y-75770762D01*
X64491270Y-75750144D01*
X64501426Y-75731144D01*
X64515092Y-75714492D01*
X64531744Y-75700826D01*
X64550744Y-75690670D01*
X64571362Y-75684416D01*
X64598940Y-75681700D01*
X65057660Y-75681700D01*
X65085238Y-75684416D01*
X65085238Y-75684416D01*
G37*
G36*
X37109638Y-74693816D02*
X37130256Y-74700070D01*
X37149256Y-74710226D01*
X37165908Y-74723892D01*
X37179574Y-74740544D01*
X37189730Y-74759544D01*
X37195984Y-74780162D01*
X37198700Y-74807740D01*
X37198700Y-75316460D01*
X37195984Y-75344038D01*
X37189730Y-75364656D01*
X37179574Y-75383656D01*
X37165908Y-75400308D01*
X37149256Y-75413974D01*
X37130256Y-75424130D01*
X37109638Y-75430384D01*
X37082060Y-75433100D01*
X36623340Y-75433100D01*
X36595762Y-75430384D01*
X36575144Y-75424130D01*
X36556144Y-75413974D01*
X36539492Y-75400308D01*
X36525826Y-75383656D01*
X36515670Y-75364656D01*
X36509416Y-75344038D01*
X36506700Y-75316460D01*
X36506700Y-74807740D01*
X36509416Y-74780162D01*
X36515670Y-74759544D01*
X36525826Y-74740544D01*
X36539492Y-74723892D01*
X36556144Y-74710226D01*
X36575144Y-74700070D01*
X36595762Y-74693816D01*
X36623340Y-74691100D01*
X37082060Y-74691100D01*
X37109638Y-74693816D01*
X37109638Y-74693816D01*
G37*
G36*
X36139638Y-74693816D02*
X36160256Y-74700070D01*
X36179256Y-74710226D01*
X36195908Y-74723892D01*
X36209574Y-74740544D01*
X36219730Y-74759544D01*
X36225984Y-74780162D01*
X36228700Y-74807740D01*
X36228700Y-75316460D01*
X36225984Y-75344038D01*
X36219730Y-75364656D01*
X36209574Y-75383656D01*
X36195908Y-75400308D01*
X36179256Y-75413974D01*
X36160256Y-75424130D01*
X36139638Y-75430384D01*
X36112060Y-75433100D01*
X35653340Y-75433100D01*
X35625762Y-75430384D01*
X35605144Y-75424130D01*
X35586144Y-75413974D01*
X35569492Y-75400308D01*
X35555826Y-75383656D01*
X35545670Y-75364656D01*
X35539416Y-75344038D01*
X35536700Y-75316460D01*
X35536700Y-74807740D01*
X35539416Y-74780162D01*
X35545670Y-74759544D01*
X35555826Y-74740544D01*
X35569492Y-74723892D01*
X35586144Y-74710226D01*
X35605144Y-74700070D01*
X35625762Y-74693816D01*
X35653340Y-74691100D01*
X36112060Y-74691100D01*
X36139638Y-74693816D01*
X36139638Y-74693816D01*
G37*
G36*
X36154938Y-73185016D02*
X36175556Y-73191270D01*
X36194556Y-73201426D01*
X36211208Y-73215092D01*
X36224874Y-73231744D01*
X36235030Y-73250744D01*
X36241284Y-73271362D01*
X36244000Y-73298940D01*
X36244000Y-73807660D01*
X36241284Y-73835238D01*
X36235030Y-73855856D01*
X36224874Y-73874856D01*
X36211208Y-73891508D01*
X36194556Y-73905174D01*
X36175556Y-73915330D01*
X36154938Y-73921584D01*
X36127360Y-73924300D01*
X35668640Y-73924300D01*
X35641062Y-73921584D01*
X35620444Y-73915330D01*
X35601444Y-73905174D01*
X35584792Y-73891508D01*
X35571126Y-73874856D01*
X35560970Y-73855856D01*
X35554716Y-73835238D01*
X35552000Y-73807660D01*
X35552000Y-73298940D01*
X35554716Y-73271362D01*
X35560970Y-73250744D01*
X35571126Y-73231744D01*
X35584792Y-73215092D01*
X35601444Y-73201426D01*
X35620444Y-73191270D01*
X35641062Y-73185016D01*
X35668640Y-73182300D01*
X36127360Y-73182300D01*
X36154938Y-73185016D01*
X36154938Y-73185016D01*
G37*
G36*
X37124938Y-73185016D02*
X37145556Y-73191270D01*
X37164556Y-73201426D01*
X37181208Y-73215092D01*
X37194874Y-73231744D01*
X37205030Y-73250744D01*
X37211284Y-73271362D01*
X37214000Y-73298940D01*
X37214000Y-73807660D01*
X37211284Y-73835238D01*
X37205030Y-73855856D01*
X37194874Y-73874856D01*
X37181208Y-73891508D01*
X37164556Y-73905174D01*
X37145556Y-73915330D01*
X37124938Y-73921584D01*
X37097360Y-73924300D01*
X36638640Y-73924300D01*
X36611062Y-73921584D01*
X36590444Y-73915330D01*
X36571444Y-73905174D01*
X36554792Y-73891508D01*
X36541126Y-73874856D01*
X36530970Y-73855856D01*
X36524716Y-73835238D01*
X36522000Y-73807660D01*
X36522000Y-73298940D01*
X36524716Y-73271362D01*
X36530970Y-73250744D01*
X36541126Y-73231744D01*
X36554792Y-73215092D01*
X36571444Y-73201426D01*
X36590444Y-73191270D01*
X36611062Y-73185016D01*
X36638640Y-73182300D01*
X37097360Y-73182300D01*
X37124938Y-73185016D01*
X37124938Y-73185016D01*
G37*
G36*
X65090338Y-70685716D02*
X65110956Y-70691970D01*
X65129956Y-70702126D01*
X65146608Y-70715792D01*
X65160274Y-70732444D01*
X65170430Y-70751444D01*
X65176684Y-70772062D01*
X65179400Y-70799640D01*
X65179400Y-71308360D01*
X65176684Y-71335938D01*
X65170430Y-71356556D01*
X65160274Y-71375556D01*
X65146608Y-71392208D01*
X65129956Y-71405874D01*
X65110956Y-71416030D01*
X65090338Y-71422284D01*
X65062760Y-71425000D01*
X64604040Y-71425000D01*
X64576462Y-71422284D01*
X64555844Y-71416030D01*
X64536844Y-71405874D01*
X64520192Y-71392208D01*
X64506526Y-71375556D01*
X64496370Y-71356556D01*
X64490116Y-71335938D01*
X64487400Y-71308360D01*
X64487400Y-70799640D01*
X64490116Y-70772062D01*
X64496370Y-70751444D01*
X64506526Y-70732444D01*
X64520192Y-70715792D01*
X64536844Y-70702126D01*
X64555844Y-70691970D01*
X64576462Y-70685716D01*
X64604040Y-70683000D01*
X65062760Y-70683000D01*
X65090338Y-70685716D01*
X65090338Y-70685716D01*
G37*
G36*
X64120338Y-70685716D02*
X64140956Y-70691970D01*
X64159956Y-70702126D01*
X64176608Y-70715792D01*
X64190274Y-70732444D01*
X64200430Y-70751444D01*
X64206684Y-70772062D01*
X64209400Y-70799640D01*
X64209400Y-71308360D01*
X64206684Y-71335938D01*
X64200430Y-71356556D01*
X64190274Y-71375556D01*
X64176608Y-71392208D01*
X64159956Y-71405874D01*
X64140956Y-71416030D01*
X64120338Y-71422284D01*
X64092760Y-71425000D01*
X63634040Y-71425000D01*
X63606462Y-71422284D01*
X63585844Y-71416030D01*
X63566844Y-71405874D01*
X63550192Y-71392208D01*
X63536526Y-71375556D01*
X63526370Y-71356556D01*
X63520116Y-71335938D01*
X63517400Y-71308360D01*
X63517400Y-70799640D01*
X63520116Y-70772062D01*
X63526370Y-70751444D01*
X63536526Y-70732444D01*
X63550192Y-70715792D01*
X63566844Y-70702126D01*
X63585844Y-70691970D01*
X63606462Y-70685716D01*
X63634040Y-70683000D01*
X64092760Y-70683000D01*
X64120338Y-70685716D01*
X64120338Y-70685716D01*
G37*
G36*
X65085238Y-69192116D02*
X65105856Y-69198370D01*
X65124856Y-69208526D01*
X65141508Y-69222192D01*
X65155174Y-69238844D01*
X65165330Y-69257844D01*
X65171584Y-69278462D01*
X65174300Y-69306040D01*
X65174300Y-69814760D01*
X65171584Y-69842338D01*
X65165330Y-69862956D01*
X65155174Y-69881956D01*
X65141508Y-69898608D01*
X65124856Y-69912274D01*
X65105856Y-69922430D01*
X65085238Y-69928684D01*
X65057660Y-69931400D01*
X64598940Y-69931400D01*
X64571362Y-69928684D01*
X64550744Y-69922430D01*
X64531744Y-69912274D01*
X64515092Y-69898608D01*
X64501426Y-69881956D01*
X64491270Y-69862956D01*
X64485016Y-69842338D01*
X64482300Y-69814760D01*
X64482300Y-69306040D01*
X64485016Y-69278462D01*
X64491270Y-69257844D01*
X64501426Y-69238844D01*
X64515092Y-69222192D01*
X64531744Y-69208526D01*
X64550744Y-69198370D01*
X64571362Y-69192116D01*
X64598940Y-69189400D01*
X65057660Y-69189400D01*
X65085238Y-69192116D01*
X65085238Y-69192116D01*
G37*
G36*
X64115238Y-69192116D02*
X64135856Y-69198370D01*
X64154856Y-69208526D01*
X64171508Y-69222192D01*
X64185174Y-69238844D01*
X64195330Y-69257844D01*
X64201584Y-69278462D01*
X64204300Y-69306040D01*
X64204300Y-69814760D01*
X64201584Y-69842338D01*
X64195330Y-69862956D01*
X64185174Y-69881956D01*
X64171508Y-69898608D01*
X64154856Y-69912274D01*
X64135856Y-69922430D01*
X64115238Y-69928684D01*
X64087660Y-69931400D01*
X63628940Y-69931400D01*
X63601362Y-69928684D01*
X63580744Y-69922430D01*
X63561744Y-69912274D01*
X63545092Y-69898608D01*
X63531426Y-69881956D01*
X63521270Y-69862956D01*
X63515016Y-69842338D01*
X63512300Y-69814760D01*
X63512300Y-69306040D01*
X63515016Y-69278462D01*
X63521270Y-69257844D01*
X63531426Y-69238844D01*
X63545092Y-69222192D01*
X63561744Y-69208526D01*
X63580744Y-69198370D01*
X63601362Y-69192116D01*
X63628940Y-69189400D01*
X64087660Y-69189400D01*
X64115238Y-69192116D01*
X64115238Y-69192116D01*
G37*
G36*
X82912628Y-68036803D02*
X83067500Y-68100953D01*
X83206881Y-68194085D01*
X83325415Y-68312619D01*
X83418547Y-68452000D01*
X83482697Y-68606872D01*
X83515400Y-68771284D01*
X83515400Y-68938916D01*
X83482697Y-69103328D01*
X83418547Y-69258200D01*
X83325415Y-69397581D01*
X83206881Y-69516115D01*
X83067500Y-69609247D01*
X82912628Y-69673397D01*
X82748216Y-69706100D01*
X82580584Y-69706100D01*
X82416172Y-69673397D01*
X82261300Y-69609247D01*
X82121919Y-69516115D01*
X82003385Y-69397581D01*
X81910253Y-69258200D01*
X81846103Y-69103328D01*
X81813400Y-68938916D01*
X81813400Y-68771284D01*
X81846103Y-68606872D01*
X81910253Y-68452000D01*
X82003385Y-68312619D01*
X82121919Y-68194085D01*
X82261300Y-68100953D01*
X82416172Y-68036803D01*
X82580584Y-68004100D01*
X82748216Y-68004100D01*
X82912628Y-68036803D01*
X82912628Y-68036803D01*
G37*
G36*
X78952628Y-68036803D02*
X79107500Y-68100953D01*
X79246881Y-68194085D01*
X79365415Y-68312619D01*
X79458547Y-68452000D01*
X79522697Y-68606872D01*
X79555400Y-68771284D01*
X79555400Y-68938916D01*
X79522697Y-69103328D01*
X79458547Y-69258200D01*
X79365415Y-69397581D01*
X79246881Y-69516115D01*
X79107500Y-69609247D01*
X78952628Y-69673397D01*
X78788216Y-69706100D01*
X78620584Y-69706100D01*
X78456172Y-69673397D01*
X78301300Y-69609247D01*
X78161919Y-69516115D01*
X78043385Y-69397581D01*
X77950253Y-69258200D01*
X77886103Y-69103328D01*
X77853400Y-68938916D01*
X77853400Y-68771284D01*
X77886103Y-68606872D01*
X77950253Y-68452000D01*
X78043385Y-68312619D01*
X78161919Y-68194085D01*
X78301300Y-68100953D01*
X78456172Y-68036803D01*
X78620584Y-68004100D01*
X78788216Y-68004100D01*
X78952628Y-68036803D01*
X78952628Y-68036803D01*
G37*
G36*
X36159938Y-68689216D02*
X36180556Y-68695470D01*
X36199556Y-68705626D01*
X36216208Y-68719292D01*
X36229874Y-68735944D01*
X36240030Y-68754944D01*
X36246284Y-68775562D01*
X36249000Y-68803140D01*
X36249000Y-69311860D01*
X36246284Y-69339438D01*
X36240030Y-69360056D01*
X36229874Y-69379056D01*
X36216208Y-69395708D01*
X36199556Y-69409374D01*
X36180556Y-69419530D01*
X36159938Y-69425784D01*
X36132360Y-69428500D01*
X35673640Y-69428500D01*
X35646062Y-69425784D01*
X35625444Y-69419530D01*
X35606444Y-69409374D01*
X35589792Y-69395708D01*
X35576126Y-69379056D01*
X35565970Y-69360056D01*
X35559716Y-69339438D01*
X35557000Y-69311860D01*
X35557000Y-68803140D01*
X35559716Y-68775562D01*
X35565970Y-68754944D01*
X35576126Y-68735944D01*
X35589792Y-68719292D01*
X35606444Y-68705626D01*
X35625444Y-68695470D01*
X35646062Y-68689216D01*
X35673640Y-68686500D01*
X36132360Y-68686500D01*
X36159938Y-68689216D01*
X36159938Y-68689216D01*
G37*
G36*
X37129938Y-68689216D02*
X37150556Y-68695470D01*
X37169556Y-68705626D01*
X37186208Y-68719292D01*
X37199874Y-68735944D01*
X37210030Y-68754944D01*
X37216284Y-68775562D01*
X37219000Y-68803140D01*
X37219000Y-69311860D01*
X37216284Y-69339438D01*
X37210030Y-69360056D01*
X37199874Y-69379056D01*
X37186208Y-69395708D01*
X37169556Y-69409374D01*
X37150556Y-69419530D01*
X37129938Y-69425784D01*
X37102360Y-69428500D01*
X36643640Y-69428500D01*
X36616062Y-69425784D01*
X36595444Y-69419530D01*
X36576444Y-69409374D01*
X36559792Y-69395708D01*
X36546126Y-69379056D01*
X36535970Y-69360056D01*
X36529716Y-69339438D01*
X36527000Y-69311860D01*
X36527000Y-68803140D01*
X36529716Y-68775562D01*
X36535970Y-68754944D01*
X36546126Y-68735944D01*
X36559792Y-68719292D01*
X36576444Y-68705626D01*
X36595444Y-68695470D01*
X36616062Y-68689216D01*
X36643640Y-68686500D01*
X37102360Y-68686500D01*
X37129938Y-68689216D01*
X37129938Y-68689216D01*
G37*
G36*
X75636038Y-68637516D02*
X75656656Y-68643770D01*
X75675656Y-68653926D01*
X75692308Y-68667592D01*
X75705974Y-68684244D01*
X75716130Y-68703244D01*
X75722384Y-68723862D01*
X75725100Y-68751440D01*
X75725100Y-69260160D01*
X75722384Y-69287738D01*
X75716130Y-69308356D01*
X75705974Y-69327356D01*
X75692308Y-69344008D01*
X75675656Y-69357674D01*
X75656656Y-69367830D01*
X75636038Y-69374084D01*
X75608460Y-69376800D01*
X75149740Y-69376800D01*
X75122162Y-69374084D01*
X75101544Y-69367830D01*
X75082544Y-69357674D01*
X75065892Y-69344008D01*
X75052226Y-69327356D01*
X75042070Y-69308356D01*
X75035816Y-69287738D01*
X75033100Y-69260160D01*
X75033100Y-68751440D01*
X75035816Y-68723862D01*
X75042070Y-68703244D01*
X75052226Y-68684244D01*
X75065892Y-68667592D01*
X75082544Y-68653926D01*
X75101544Y-68643770D01*
X75122162Y-68637516D01*
X75149740Y-68634800D01*
X75608460Y-68634800D01*
X75636038Y-68637516D01*
X75636038Y-68637516D01*
G37*
G36*
X74666038Y-68637516D02*
X74686656Y-68643770D01*
X74705656Y-68653926D01*
X74722308Y-68667592D01*
X74735974Y-68684244D01*
X74746130Y-68703244D01*
X74752384Y-68723862D01*
X74755100Y-68751440D01*
X74755100Y-69260160D01*
X74752384Y-69287738D01*
X74746130Y-69308356D01*
X74735974Y-69327356D01*
X74722308Y-69344008D01*
X74705656Y-69357674D01*
X74686656Y-69367830D01*
X74666038Y-69374084D01*
X74638460Y-69376800D01*
X74179740Y-69376800D01*
X74152162Y-69374084D01*
X74131544Y-69367830D01*
X74112544Y-69357674D01*
X74095892Y-69344008D01*
X74082226Y-69327356D01*
X74072070Y-69308356D01*
X74065816Y-69287738D01*
X74063100Y-69260160D01*
X74063100Y-68751440D01*
X74065816Y-68723862D01*
X74072070Y-68703244D01*
X74082226Y-68684244D01*
X74095892Y-68667592D01*
X74112544Y-68653926D01*
X74131544Y-68643770D01*
X74152162Y-68637516D01*
X74179740Y-68634800D01*
X74638460Y-68634800D01*
X74666038Y-68637516D01*
X74666038Y-68637516D01*
G37*
G36*
X65080138Y-68084716D02*
X65100756Y-68090970D01*
X65119756Y-68101126D01*
X65136408Y-68114792D01*
X65150074Y-68131444D01*
X65160230Y-68150444D01*
X65166484Y-68171062D01*
X65169200Y-68198640D01*
X65169200Y-68707360D01*
X65166484Y-68734938D01*
X65160230Y-68755556D01*
X65150074Y-68774556D01*
X65136408Y-68791208D01*
X65119756Y-68804874D01*
X65100756Y-68815030D01*
X65080138Y-68821284D01*
X65052560Y-68824000D01*
X64593840Y-68824000D01*
X64566262Y-68821284D01*
X64545644Y-68815030D01*
X64526644Y-68804874D01*
X64509992Y-68791208D01*
X64496326Y-68774556D01*
X64486170Y-68755556D01*
X64479916Y-68734938D01*
X64477200Y-68707360D01*
X64477200Y-68198640D01*
X64479916Y-68171062D01*
X64486170Y-68150444D01*
X64496326Y-68131444D01*
X64509992Y-68114792D01*
X64526644Y-68101126D01*
X64545644Y-68090970D01*
X64566262Y-68084716D01*
X64593840Y-68082000D01*
X65052560Y-68082000D01*
X65080138Y-68084716D01*
X65080138Y-68084716D01*
G37*
G36*
X64110138Y-68084716D02*
X64130756Y-68090970D01*
X64149756Y-68101126D01*
X64166408Y-68114792D01*
X64180074Y-68131444D01*
X64190230Y-68150444D01*
X64196484Y-68171062D01*
X64199200Y-68198640D01*
X64199200Y-68707360D01*
X64196484Y-68734938D01*
X64190230Y-68755556D01*
X64180074Y-68774556D01*
X64166408Y-68791208D01*
X64149756Y-68804874D01*
X64130756Y-68815030D01*
X64110138Y-68821284D01*
X64082560Y-68824000D01*
X63623840Y-68824000D01*
X63596262Y-68821284D01*
X63575644Y-68815030D01*
X63556644Y-68804874D01*
X63539992Y-68791208D01*
X63526326Y-68774556D01*
X63516170Y-68755556D01*
X63509916Y-68734938D01*
X63507200Y-68707360D01*
X63507200Y-68198640D01*
X63509916Y-68171062D01*
X63516170Y-68150444D01*
X63526326Y-68131444D01*
X63539992Y-68114792D01*
X63556644Y-68101126D01*
X63575644Y-68090970D01*
X63596262Y-68084716D01*
X63623840Y-68082000D01*
X64082560Y-68082000D01*
X64110138Y-68084716D01*
X64110138Y-68084716D01*
G37*
G36*
X80932628Y-66891803D02*
X81087500Y-66955953D01*
X81226881Y-67049085D01*
X81345415Y-67167619D01*
X81438547Y-67307000D01*
X81502697Y-67461872D01*
X81535400Y-67626284D01*
X81535400Y-67793916D01*
X81502697Y-67958328D01*
X81438547Y-68113200D01*
X81345415Y-68252581D01*
X81226881Y-68371115D01*
X81087500Y-68464247D01*
X80932628Y-68528397D01*
X80768216Y-68561100D01*
X80600584Y-68561100D01*
X80436172Y-68528397D01*
X80281300Y-68464247D01*
X80141919Y-68371115D01*
X80023385Y-68252581D01*
X79930253Y-68113200D01*
X79866103Y-67958328D01*
X79833400Y-67793916D01*
X79833400Y-67626284D01*
X79866103Y-67461872D01*
X79930253Y-67307000D01*
X80023385Y-67167619D01*
X80141919Y-67049085D01*
X80281300Y-66955953D01*
X80436172Y-66891803D01*
X80600584Y-66859100D01*
X80768216Y-66859100D01*
X80932628Y-66891803D01*
X80932628Y-66891803D01*
G37*
G36*
X36159938Y-67678316D02*
X36180556Y-67684570D01*
X36199556Y-67694726D01*
X36216208Y-67708392D01*
X36229874Y-67725044D01*
X36240030Y-67744044D01*
X36246284Y-67764662D01*
X36249000Y-67792240D01*
X36249000Y-68300960D01*
X36246284Y-68328538D01*
X36240030Y-68349156D01*
X36229874Y-68368156D01*
X36216208Y-68384808D01*
X36199556Y-68398474D01*
X36180556Y-68408630D01*
X36159938Y-68414884D01*
X36132360Y-68417600D01*
X35673640Y-68417600D01*
X35646062Y-68414884D01*
X35625444Y-68408630D01*
X35606444Y-68398474D01*
X35589792Y-68384808D01*
X35576126Y-68368156D01*
X35565970Y-68349156D01*
X35559716Y-68328538D01*
X35557000Y-68300960D01*
X35557000Y-67792240D01*
X35559716Y-67764662D01*
X35565970Y-67744044D01*
X35576126Y-67725044D01*
X35589792Y-67708392D01*
X35606444Y-67694726D01*
X35625444Y-67684570D01*
X35646062Y-67678316D01*
X35673640Y-67675600D01*
X36132360Y-67675600D01*
X36159938Y-67678316D01*
X36159938Y-67678316D01*
G37*
G36*
X37129938Y-67678316D02*
X37150556Y-67684570D01*
X37169556Y-67694726D01*
X37186208Y-67708392D01*
X37199874Y-67725044D01*
X37210030Y-67744044D01*
X37216284Y-67764662D01*
X37219000Y-67792240D01*
X37219000Y-68300960D01*
X37216284Y-68328538D01*
X37210030Y-68349156D01*
X37199874Y-68368156D01*
X37186208Y-68384808D01*
X37169556Y-68398474D01*
X37150556Y-68408630D01*
X37129938Y-68414884D01*
X37102360Y-68417600D01*
X36643640Y-68417600D01*
X36616062Y-68414884D01*
X36595444Y-68408630D01*
X36576444Y-68398474D01*
X36559792Y-68384808D01*
X36546126Y-68368156D01*
X36535970Y-68349156D01*
X36529716Y-68328538D01*
X36527000Y-68300960D01*
X36527000Y-67792240D01*
X36529716Y-67764662D01*
X36535970Y-67744044D01*
X36546126Y-67725044D01*
X36559792Y-67708392D01*
X36576444Y-67694726D01*
X36595444Y-67684570D01*
X36616062Y-67678316D01*
X36643640Y-67675600D01*
X37102360Y-67675600D01*
X37129938Y-67678316D01*
X37129938Y-67678316D01*
G37*
G36*
X69738000Y-68321400D02*
X68736000Y-68321400D01*
X68736000Y-67794400D01*
X69738000Y-67794400D01*
X69738000Y-68321400D01*
X69738000Y-68321400D01*
G37*
G36*
X68038000Y-68321400D02*
X67036000Y-68321400D01*
X67036000Y-67794400D01*
X68038000Y-67794400D01*
X68038000Y-68321400D01*
X68038000Y-68321400D01*
G37*
G36*
X74666038Y-67560516D02*
X74686656Y-67566770D01*
X74705656Y-67576926D01*
X74722308Y-67590592D01*
X74735974Y-67607244D01*
X74746130Y-67626244D01*
X74752384Y-67646862D01*
X74755100Y-67674440D01*
X74755100Y-68183160D01*
X74752384Y-68210738D01*
X74746130Y-68231356D01*
X74735974Y-68250356D01*
X74722308Y-68267008D01*
X74705656Y-68280674D01*
X74686656Y-68290830D01*
X74666038Y-68297084D01*
X74638460Y-68299800D01*
X74179740Y-68299800D01*
X74152162Y-68297084D01*
X74131544Y-68290830D01*
X74112544Y-68280674D01*
X74095892Y-68267008D01*
X74082226Y-68250356D01*
X74072070Y-68231356D01*
X74065816Y-68210738D01*
X74063100Y-68183160D01*
X74063100Y-67674440D01*
X74065816Y-67646862D01*
X74072070Y-67626244D01*
X74082226Y-67607244D01*
X74095892Y-67590592D01*
X74112544Y-67576926D01*
X74131544Y-67566770D01*
X74152162Y-67560516D01*
X74179740Y-67557800D01*
X74638460Y-67557800D01*
X74666038Y-67560516D01*
X74666038Y-67560516D01*
G37*
G36*
X75636038Y-67560516D02*
X75656656Y-67566770D01*
X75675656Y-67576926D01*
X75692308Y-67590592D01*
X75705974Y-67607244D01*
X75716130Y-67626244D01*
X75722384Y-67646862D01*
X75725100Y-67674440D01*
X75725100Y-68183160D01*
X75722384Y-68210738D01*
X75716130Y-68231356D01*
X75705974Y-68250356D01*
X75692308Y-68267008D01*
X75675656Y-68280674D01*
X75656656Y-68290830D01*
X75636038Y-68297084D01*
X75608460Y-68299800D01*
X75149740Y-68299800D01*
X75122162Y-68297084D01*
X75101544Y-68290830D01*
X75082544Y-68280674D01*
X75065892Y-68267008D01*
X75052226Y-68250356D01*
X75042070Y-68231356D01*
X75035816Y-68210738D01*
X75033100Y-68183160D01*
X75033100Y-67674440D01*
X75035816Y-67646862D01*
X75042070Y-67626244D01*
X75052226Y-67607244D01*
X75065892Y-67590592D01*
X75082544Y-67576926D01*
X75101544Y-67566770D01*
X75122162Y-67560516D01*
X75149740Y-67557800D01*
X75608460Y-67557800D01*
X75636038Y-67560516D01*
X75636038Y-67560516D01*
G37*
G36*
X68038000Y-67521400D02*
X67036000Y-67521400D01*
X67036000Y-66994400D01*
X68038000Y-66994400D01*
X68038000Y-67521400D01*
X68038000Y-67521400D01*
G37*
G36*
X69738000Y-67521400D02*
X68736000Y-67521400D01*
X68736000Y-66994400D01*
X69738000Y-66994400D01*
X69738000Y-67521400D01*
X69738000Y-67521400D01*
G37*
G36*
X82912628Y-65746803D02*
X83067500Y-65810953D01*
X83206881Y-65904085D01*
X83325415Y-66022619D01*
X83418547Y-66162000D01*
X83482697Y-66316872D01*
X83515400Y-66481284D01*
X83515400Y-66648916D01*
X83482697Y-66813328D01*
X83418547Y-66968200D01*
X83325415Y-67107581D01*
X83206881Y-67226115D01*
X83067500Y-67319247D01*
X82912628Y-67383397D01*
X82748216Y-67416100D01*
X82580584Y-67416100D01*
X82416172Y-67383397D01*
X82261300Y-67319247D01*
X82121919Y-67226115D01*
X82003385Y-67107581D01*
X81910253Y-66968200D01*
X81846103Y-66813328D01*
X81813400Y-66648916D01*
X81813400Y-66481284D01*
X81846103Y-66316872D01*
X81910253Y-66162000D01*
X82003385Y-66022619D01*
X82121919Y-65904085D01*
X82261300Y-65810953D01*
X82416172Y-65746803D01*
X82580584Y-65714100D01*
X82748216Y-65714100D01*
X82912628Y-65746803D01*
X82912628Y-65746803D01*
G37*
G36*
X78952628Y-65746803D02*
X79107500Y-65810953D01*
X79246881Y-65904085D01*
X79365415Y-66022619D01*
X79458547Y-66162000D01*
X79522697Y-66316872D01*
X79555400Y-66481284D01*
X79555400Y-66648916D01*
X79522697Y-66813328D01*
X79458547Y-66968200D01*
X79365415Y-67107581D01*
X79246881Y-67226115D01*
X79107500Y-67319247D01*
X78952628Y-67383397D01*
X78788216Y-67416100D01*
X78620584Y-67416100D01*
X78456172Y-67383397D01*
X78301300Y-67319247D01*
X78161919Y-67226115D01*
X78043385Y-67107581D01*
X77950253Y-66968200D01*
X77886103Y-66813328D01*
X77853400Y-66648916D01*
X77853400Y-66481284D01*
X77886103Y-66316872D01*
X77950253Y-66162000D01*
X78043385Y-66022619D01*
X78161919Y-65904085D01*
X78301300Y-65810953D01*
X78456172Y-65746803D01*
X78620584Y-65714100D01*
X78788216Y-65714100D01*
X78952628Y-65746803D01*
X78952628Y-65746803D01*
G37*
G36*
X74671138Y-66483616D02*
X74691756Y-66489870D01*
X74710756Y-66500026D01*
X74727408Y-66513692D01*
X74741074Y-66530344D01*
X74751230Y-66549344D01*
X74757484Y-66569962D01*
X74760200Y-66597540D01*
X74760200Y-67106260D01*
X74757484Y-67133838D01*
X74751230Y-67154456D01*
X74741074Y-67173456D01*
X74727408Y-67190108D01*
X74710756Y-67203774D01*
X74691756Y-67213930D01*
X74671138Y-67220184D01*
X74643560Y-67222900D01*
X74184840Y-67222900D01*
X74157262Y-67220184D01*
X74136644Y-67213930D01*
X74117644Y-67203774D01*
X74100992Y-67190108D01*
X74087326Y-67173456D01*
X74077170Y-67154456D01*
X74070916Y-67133838D01*
X74068200Y-67106260D01*
X74068200Y-66597540D01*
X74070916Y-66569962D01*
X74077170Y-66549344D01*
X74087326Y-66530344D01*
X74100992Y-66513692D01*
X74117644Y-66500026D01*
X74136644Y-66489870D01*
X74157262Y-66483616D01*
X74184840Y-66480900D01*
X74643560Y-66480900D01*
X74671138Y-66483616D01*
X74671138Y-66483616D01*
G37*
G36*
X75641138Y-66483616D02*
X75661756Y-66489870D01*
X75680756Y-66500026D01*
X75697408Y-66513692D01*
X75711074Y-66530344D01*
X75721230Y-66549344D01*
X75727484Y-66569962D01*
X75730200Y-66597540D01*
X75730200Y-67106260D01*
X75727484Y-67133838D01*
X75721230Y-67154456D01*
X75711074Y-67173456D01*
X75697408Y-67190108D01*
X75680756Y-67203774D01*
X75661756Y-67213930D01*
X75641138Y-67220184D01*
X75613560Y-67222900D01*
X75154840Y-67222900D01*
X75127262Y-67220184D01*
X75106644Y-67213930D01*
X75087644Y-67203774D01*
X75070992Y-67190108D01*
X75057326Y-67173456D01*
X75047170Y-67154456D01*
X75040916Y-67133838D01*
X75038200Y-67106260D01*
X75038200Y-66597540D01*
X75040916Y-66569962D01*
X75047170Y-66549344D01*
X75057326Y-66530344D01*
X75070992Y-66513692D01*
X75087644Y-66500026D01*
X75106644Y-66489870D01*
X75127262Y-66483616D01*
X75154840Y-66480900D01*
X75613560Y-66480900D01*
X75641138Y-66483616D01*
X75641138Y-66483616D01*
G37*
G36*
X69738000Y-66721400D02*
X68736000Y-66721400D01*
X68736000Y-66194400D01*
X69738000Y-66194400D01*
X69738000Y-66721400D01*
X69738000Y-66721400D01*
G37*
G36*
X68038000Y-66721400D02*
X67036000Y-66721400D01*
X67036000Y-66194400D01*
X68038000Y-66194400D01*
X68038000Y-66721400D01*
X68038000Y-66721400D01*
G37*
G36*
X80932628Y-64601803D02*
X81087500Y-64665953D01*
X81226881Y-64759085D01*
X81345415Y-64877619D01*
X81438547Y-65017000D01*
X81502697Y-65171872D01*
X81535400Y-65336284D01*
X81535400Y-65503916D01*
X81502697Y-65668328D01*
X81438547Y-65823200D01*
X81345415Y-65962581D01*
X81226881Y-66081115D01*
X81087500Y-66174247D01*
X80932628Y-66238397D01*
X80768216Y-66271100D01*
X80600584Y-66271100D01*
X80436172Y-66238397D01*
X80281300Y-66174247D01*
X80141919Y-66081115D01*
X80023385Y-65962581D01*
X79930253Y-65823200D01*
X79866103Y-65668328D01*
X79833400Y-65503916D01*
X79833400Y-65336284D01*
X79866103Y-65171872D01*
X79930253Y-65017000D01*
X80023385Y-64877619D01*
X80141919Y-64759085D01*
X80281300Y-64665953D01*
X80436172Y-64601803D01*
X80600584Y-64569100D01*
X80768216Y-64569100D01*
X80932628Y-64601803D01*
X80932628Y-64601803D01*
G37*
G36*
X74671138Y-65406616D02*
X74691756Y-65412870D01*
X74710756Y-65423026D01*
X74727408Y-65436692D01*
X74741074Y-65453344D01*
X74751230Y-65472344D01*
X74757484Y-65492962D01*
X74760200Y-65520540D01*
X74760200Y-66029260D01*
X74757484Y-66056838D01*
X74751230Y-66077456D01*
X74741074Y-66096456D01*
X74727408Y-66113108D01*
X74710756Y-66126774D01*
X74691756Y-66136930D01*
X74671138Y-66143184D01*
X74643560Y-66145900D01*
X74184840Y-66145900D01*
X74157262Y-66143184D01*
X74136644Y-66136930D01*
X74117644Y-66126774D01*
X74100992Y-66113108D01*
X74087326Y-66096456D01*
X74077170Y-66077456D01*
X74070916Y-66056838D01*
X74068200Y-66029260D01*
X74068200Y-65520540D01*
X74070916Y-65492962D01*
X74077170Y-65472344D01*
X74087326Y-65453344D01*
X74100992Y-65436692D01*
X74117644Y-65423026D01*
X74136644Y-65412870D01*
X74157262Y-65406616D01*
X74184840Y-65403900D01*
X74643560Y-65403900D01*
X74671138Y-65406616D01*
X74671138Y-65406616D01*
G37*
G36*
X75641138Y-65406616D02*
X75661756Y-65412870D01*
X75680756Y-65423026D01*
X75697408Y-65436692D01*
X75711074Y-65453344D01*
X75721230Y-65472344D01*
X75727484Y-65492962D01*
X75730200Y-65520540D01*
X75730200Y-66029260D01*
X75727484Y-66056838D01*
X75721230Y-66077456D01*
X75711074Y-66096456D01*
X75697408Y-66113108D01*
X75680756Y-66126774D01*
X75661756Y-66136930D01*
X75641138Y-66143184D01*
X75613560Y-66145900D01*
X75154840Y-66145900D01*
X75127262Y-66143184D01*
X75106644Y-66136930D01*
X75087644Y-66126774D01*
X75070992Y-66113108D01*
X75057326Y-66096456D01*
X75047170Y-66077456D01*
X75040916Y-66056838D01*
X75038200Y-66029260D01*
X75038200Y-65520540D01*
X75040916Y-65492962D01*
X75047170Y-65472344D01*
X75057326Y-65453344D01*
X75070992Y-65436692D01*
X75087644Y-65423026D01*
X75106644Y-65412870D01*
X75127262Y-65406616D01*
X75154840Y-65403900D01*
X75613560Y-65403900D01*
X75641138Y-65406616D01*
X75641138Y-65406616D01*
G37*
G36*
X69738000Y-65921400D02*
X68736000Y-65921400D01*
X68736000Y-65394400D01*
X69738000Y-65394400D01*
X69738000Y-65921400D01*
X69738000Y-65921400D01*
G37*
G36*
X68038000Y-65921400D02*
X67036000Y-65921400D01*
X67036000Y-65394400D01*
X68038000Y-65394400D01*
X68038000Y-65921400D01*
X68038000Y-65921400D01*
G37*
G36*
X78952628Y-63456803D02*
X79107500Y-63520953D01*
X79246881Y-63614085D01*
X79365415Y-63732619D01*
X79458547Y-63872000D01*
X79522697Y-64026872D01*
X79555400Y-64191284D01*
X79555400Y-64358916D01*
X79522697Y-64523328D01*
X79458547Y-64678200D01*
X79365415Y-64817581D01*
X79246881Y-64936115D01*
X79107500Y-65029247D01*
X78952628Y-65093397D01*
X78788216Y-65126100D01*
X78620584Y-65126100D01*
X78456172Y-65093397D01*
X78301300Y-65029247D01*
X78161919Y-64936115D01*
X78043385Y-64817581D01*
X77950253Y-64678200D01*
X77886103Y-64523328D01*
X77853400Y-64358916D01*
X77853400Y-64191284D01*
X77886103Y-64026872D01*
X77950253Y-63872000D01*
X78043385Y-63732619D01*
X78161919Y-63614085D01*
X78301300Y-63520953D01*
X78456172Y-63456803D01*
X78620584Y-63424100D01*
X78788216Y-63424100D01*
X78952628Y-63456803D01*
X78952628Y-63456803D01*
G37*
G36*
X82912628Y-63456803D02*
X83067500Y-63520953D01*
X83206881Y-63614085D01*
X83325415Y-63732619D01*
X83418547Y-63872000D01*
X83482697Y-64026872D01*
X83515400Y-64191284D01*
X83515400Y-64358916D01*
X83482697Y-64523328D01*
X83418547Y-64678200D01*
X83325415Y-64817581D01*
X83206881Y-64936115D01*
X83067500Y-65029247D01*
X82912628Y-65093397D01*
X82748216Y-65126100D01*
X82580584Y-65126100D01*
X82416172Y-65093397D01*
X82261300Y-65029247D01*
X82121919Y-64936115D01*
X82003385Y-64817581D01*
X81910253Y-64678200D01*
X81846103Y-64523328D01*
X81813400Y-64358916D01*
X81813400Y-64191284D01*
X81846103Y-64026872D01*
X81910253Y-63872000D01*
X82003385Y-63732619D01*
X82121919Y-63614085D01*
X82261300Y-63520953D01*
X82416172Y-63456803D01*
X82580584Y-63424100D01*
X82748216Y-63424100D01*
X82912628Y-63456803D01*
X82912628Y-63456803D01*
G37*
G36*
X75641138Y-64324616D02*
X75661756Y-64330870D01*
X75680756Y-64341026D01*
X75697408Y-64354692D01*
X75711074Y-64371344D01*
X75721230Y-64390344D01*
X75727484Y-64410962D01*
X75730200Y-64438540D01*
X75730200Y-64947260D01*
X75727484Y-64974838D01*
X75721230Y-64995456D01*
X75711074Y-65014456D01*
X75697408Y-65031108D01*
X75680756Y-65044774D01*
X75661756Y-65054930D01*
X75641138Y-65061184D01*
X75613560Y-65063900D01*
X75154840Y-65063900D01*
X75127262Y-65061184D01*
X75106644Y-65054930D01*
X75087644Y-65044774D01*
X75070992Y-65031108D01*
X75057326Y-65014456D01*
X75047170Y-64995456D01*
X75040916Y-64974838D01*
X75038200Y-64947260D01*
X75038200Y-64438540D01*
X75040916Y-64410962D01*
X75047170Y-64390344D01*
X75057326Y-64371344D01*
X75070992Y-64354692D01*
X75087644Y-64341026D01*
X75106644Y-64330870D01*
X75127262Y-64324616D01*
X75154840Y-64321900D01*
X75613560Y-64321900D01*
X75641138Y-64324616D01*
X75641138Y-64324616D01*
G37*
G36*
X74671138Y-64324616D02*
X74691756Y-64330870D01*
X74710756Y-64341026D01*
X74727408Y-64354692D01*
X74741074Y-64371344D01*
X74751230Y-64390344D01*
X74757484Y-64410962D01*
X74760200Y-64438540D01*
X74760200Y-64947260D01*
X74757484Y-64974838D01*
X74751230Y-64995456D01*
X74741074Y-65014456D01*
X74727408Y-65031108D01*
X74710756Y-65044774D01*
X74691756Y-65054930D01*
X74671138Y-65061184D01*
X74643560Y-65063900D01*
X74184840Y-65063900D01*
X74157262Y-65061184D01*
X74136644Y-65054930D01*
X74117644Y-65044774D01*
X74100992Y-65031108D01*
X74087326Y-65014456D01*
X74077170Y-64995456D01*
X74070916Y-64974838D01*
X74068200Y-64947260D01*
X74068200Y-64438540D01*
X74070916Y-64410962D01*
X74077170Y-64390344D01*
X74087326Y-64371344D01*
X74100992Y-64354692D01*
X74117644Y-64341026D01*
X74136644Y-64330870D01*
X74157262Y-64324616D01*
X74184840Y-64321900D01*
X74643560Y-64321900D01*
X74671138Y-64324616D01*
X74671138Y-64324616D01*
G37*
G36*
X80932628Y-62311803D02*
X81087500Y-62375953D01*
X81226881Y-62469085D01*
X81345415Y-62587619D01*
X81438547Y-62727000D01*
X81502697Y-62881872D01*
X81535400Y-63046284D01*
X81535400Y-63213916D01*
X81502697Y-63378328D01*
X81438547Y-63533200D01*
X81345415Y-63672581D01*
X81226881Y-63791115D01*
X81087500Y-63884247D01*
X80932628Y-63948397D01*
X80768216Y-63981100D01*
X80600584Y-63981100D01*
X80436172Y-63948397D01*
X80281300Y-63884247D01*
X80141919Y-63791115D01*
X80023385Y-63672581D01*
X79930253Y-63533200D01*
X79866103Y-63378328D01*
X79833400Y-63213916D01*
X79833400Y-63046284D01*
X79866103Y-62881872D01*
X79930253Y-62727000D01*
X80023385Y-62587619D01*
X80141919Y-62469085D01*
X80281300Y-62375953D01*
X80436172Y-62311803D01*
X80600584Y-62279100D01*
X80768216Y-62279100D01*
X80932628Y-62311803D01*
X80932628Y-62311803D01*
G37*
G36*
X75641138Y-63237416D02*
X75661756Y-63243670D01*
X75680756Y-63253826D01*
X75697408Y-63267492D01*
X75711074Y-63284144D01*
X75721230Y-63303144D01*
X75727484Y-63323762D01*
X75730200Y-63351340D01*
X75730200Y-63860060D01*
X75727484Y-63887638D01*
X75721230Y-63908256D01*
X75711074Y-63927256D01*
X75697408Y-63943908D01*
X75680756Y-63957574D01*
X75661756Y-63967730D01*
X75641138Y-63973984D01*
X75613560Y-63976700D01*
X75154840Y-63976700D01*
X75127262Y-63973984D01*
X75106644Y-63967730D01*
X75087644Y-63957574D01*
X75070992Y-63943908D01*
X75057326Y-63927256D01*
X75047170Y-63908256D01*
X75040916Y-63887638D01*
X75038200Y-63860060D01*
X75038200Y-63351340D01*
X75040916Y-63323762D01*
X75047170Y-63303144D01*
X75057326Y-63284144D01*
X75070992Y-63267492D01*
X75087644Y-63253826D01*
X75106644Y-63243670D01*
X75127262Y-63237416D01*
X75154840Y-63234700D01*
X75613560Y-63234700D01*
X75641138Y-63237416D01*
X75641138Y-63237416D01*
G37*
G36*
X74671138Y-63237416D02*
X74691756Y-63243670D01*
X74710756Y-63253826D01*
X74727408Y-63267492D01*
X74741074Y-63284144D01*
X74751230Y-63303144D01*
X74757484Y-63323762D01*
X74760200Y-63351340D01*
X74760200Y-63860060D01*
X74757484Y-63887638D01*
X74751230Y-63908256D01*
X74741074Y-63927256D01*
X74727408Y-63943908D01*
X74710756Y-63957574D01*
X74691756Y-63967730D01*
X74671138Y-63973984D01*
X74643560Y-63976700D01*
X74184840Y-63976700D01*
X74157262Y-63973984D01*
X74136644Y-63967730D01*
X74117644Y-63957574D01*
X74100992Y-63943908D01*
X74087326Y-63927256D01*
X74077170Y-63908256D01*
X74070916Y-63887638D01*
X74068200Y-63860060D01*
X74068200Y-63351340D01*
X74070916Y-63323762D01*
X74077170Y-63303144D01*
X74087326Y-63284144D01*
X74100992Y-63267492D01*
X74117644Y-63253826D01*
X74136644Y-63243670D01*
X74157262Y-63237416D01*
X74184840Y-63234700D01*
X74643560Y-63234700D01*
X74671138Y-63237416D01*
X74671138Y-63237416D01*
G37*
G36*
X64105038Y-62207116D02*
X64125656Y-62213370D01*
X64144656Y-62223526D01*
X64161308Y-62237192D01*
X64174974Y-62253844D01*
X64185130Y-62272844D01*
X64191384Y-62293462D01*
X64194100Y-62321040D01*
X64194100Y-62829760D01*
X64191384Y-62857338D01*
X64185130Y-62877956D01*
X64174974Y-62896956D01*
X64161308Y-62913608D01*
X64144656Y-62927274D01*
X64125656Y-62937430D01*
X64105038Y-62943684D01*
X64077460Y-62946400D01*
X63618740Y-62946400D01*
X63591162Y-62943684D01*
X63570544Y-62937430D01*
X63551544Y-62927274D01*
X63534892Y-62913608D01*
X63521226Y-62896956D01*
X63511070Y-62877956D01*
X63504816Y-62857338D01*
X63502100Y-62829760D01*
X63502100Y-62321040D01*
X63504816Y-62293462D01*
X63511070Y-62272844D01*
X63521226Y-62253844D01*
X63534892Y-62237192D01*
X63551544Y-62223526D01*
X63570544Y-62213370D01*
X63591162Y-62207116D01*
X63618740Y-62204400D01*
X64077460Y-62204400D01*
X64105038Y-62207116D01*
X64105038Y-62207116D01*
G37*
G36*
X65075038Y-62207116D02*
X65095656Y-62213370D01*
X65114656Y-62223526D01*
X65131308Y-62237192D01*
X65144974Y-62253844D01*
X65155130Y-62272844D01*
X65161384Y-62293462D01*
X65164100Y-62321040D01*
X65164100Y-62829760D01*
X65161384Y-62857338D01*
X65155130Y-62877956D01*
X65144974Y-62896956D01*
X65131308Y-62913608D01*
X65114656Y-62927274D01*
X65095656Y-62937430D01*
X65075038Y-62943684D01*
X65047460Y-62946400D01*
X64588740Y-62946400D01*
X64561162Y-62943684D01*
X64540544Y-62937430D01*
X64521544Y-62927274D01*
X64504892Y-62913608D01*
X64491226Y-62896956D01*
X64481070Y-62877956D01*
X64474816Y-62857338D01*
X64472100Y-62829760D01*
X64472100Y-62321040D01*
X64474816Y-62293462D01*
X64481070Y-62272844D01*
X64491226Y-62253844D01*
X64504892Y-62237192D01*
X64521544Y-62223526D01*
X64540544Y-62213370D01*
X64561162Y-62207116D01*
X64588740Y-62204400D01*
X65047460Y-62204400D01*
X65075038Y-62207116D01*
X65075038Y-62207116D01*
G37*
G36*
X75641138Y-62150316D02*
X75661756Y-62156570D01*
X75680756Y-62166726D01*
X75697408Y-62180392D01*
X75711074Y-62197044D01*
X75721230Y-62216044D01*
X75727484Y-62236662D01*
X75730200Y-62264240D01*
X75730200Y-62772960D01*
X75727484Y-62800538D01*
X75721230Y-62821156D01*
X75711074Y-62840156D01*
X75697408Y-62856808D01*
X75680756Y-62870474D01*
X75661756Y-62880630D01*
X75641138Y-62886884D01*
X75613560Y-62889600D01*
X75154840Y-62889600D01*
X75127262Y-62886884D01*
X75106644Y-62880630D01*
X75087644Y-62870474D01*
X75070992Y-62856808D01*
X75057326Y-62840156D01*
X75047170Y-62821156D01*
X75040916Y-62800538D01*
X75038200Y-62772960D01*
X75038200Y-62264240D01*
X75040916Y-62236662D01*
X75047170Y-62216044D01*
X75057326Y-62197044D01*
X75070992Y-62180392D01*
X75087644Y-62166726D01*
X75106644Y-62156570D01*
X75127262Y-62150316D01*
X75154840Y-62147600D01*
X75613560Y-62147600D01*
X75641138Y-62150316D01*
X75641138Y-62150316D01*
G37*
G36*
X74671138Y-62150316D02*
X74691756Y-62156570D01*
X74710756Y-62166726D01*
X74727408Y-62180392D01*
X74741074Y-62197044D01*
X74751230Y-62216044D01*
X74757484Y-62236662D01*
X74760200Y-62264240D01*
X74760200Y-62772960D01*
X74757484Y-62800538D01*
X74751230Y-62821156D01*
X74741074Y-62840156D01*
X74727408Y-62856808D01*
X74710756Y-62870474D01*
X74691756Y-62880630D01*
X74671138Y-62886884D01*
X74643560Y-62889600D01*
X74184840Y-62889600D01*
X74157262Y-62886884D01*
X74136644Y-62880630D01*
X74117644Y-62870474D01*
X74100992Y-62856808D01*
X74087326Y-62840156D01*
X74077170Y-62821156D01*
X74070916Y-62800538D01*
X74068200Y-62772960D01*
X74068200Y-62264240D01*
X74070916Y-62236662D01*
X74077170Y-62216044D01*
X74087326Y-62197044D01*
X74100992Y-62180392D01*
X74117644Y-62166726D01*
X74136644Y-62156570D01*
X74157262Y-62150316D01*
X74184840Y-62147600D01*
X74643560Y-62147600D01*
X74671138Y-62150316D01*
X74671138Y-62150316D01*
G37*
G36*
X82912628Y-61166803D02*
X83067500Y-61230953D01*
X83206881Y-61324085D01*
X83325415Y-61442619D01*
X83418547Y-61582000D01*
X83482697Y-61736872D01*
X83515400Y-61901284D01*
X83515400Y-62068916D01*
X83482697Y-62233328D01*
X83418547Y-62388200D01*
X83325415Y-62527581D01*
X83206881Y-62646115D01*
X83067500Y-62739247D01*
X82912628Y-62803397D01*
X82748216Y-62836100D01*
X82580584Y-62836100D01*
X82416172Y-62803397D01*
X82261300Y-62739247D01*
X82121919Y-62646115D01*
X82003385Y-62527581D01*
X81910253Y-62388200D01*
X81846103Y-62233328D01*
X81813400Y-62068916D01*
X81813400Y-61901284D01*
X81846103Y-61736872D01*
X81910253Y-61582000D01*
X82003385Y-61442619D01*
X82121919Y-61324085D01*
X82261300Y-61230953D01*
X82416172Y-61166803D01*
X82580584Y-61134100D01*
X82748216Y-61134100D01*
X82912628Y-61166803D01*
X82912628Y-61166803D01*
G37*
G36*
X78952628Y-61166803D02*
X79107500Y-61230953D01*
X79246881Y-61324085D01*
X79365415Y-61442619D01*
X79458547Y-61582000D01*
X79522697Y-61736872D01*
X79555400Y-61901284D01*
X79555400Y-62068916D01*
X79522697Y-62233328D01*
X79458547Y-62388200D01*
X79365415Y-62527581D01*
X79246881Y-62646115D01*
X79107500Y-62739247D01*
X78952628Y-62803397D01*
X78788216Y-62836100D01*
X78620584Y-62836100D01*
X78456172Y-62803397D01*
X78301300Y-62739247D01*
X78161919Y-62646115D01*
X78043385Y-62527581D01*
X77950253Y-62388200D01*
X77886103Y-62233328D01*
X77853400Y-62068916D01*
X77853400Y-61901284D01*
X77886103Y-61736872D01*
X77950253Y-61582000D01*
X78043385Y-61442619D01*
X78161919Y-61324085D01*
X78301300Y-61230953D01*
X78456172Y-61166803D01*
X78620584Y-61134100D01*
X78788216Y-61134100D01*
X78952628Y-61166803D01*
X78952628Y-61166803D01*
G37*
G36*
X36134538Y-61191116D02*
X36155156Y-61197370D01*
X36174156Y-61207526D01*
X36190808Y-61221192D01*
X36204474Y-61237844D01*
X36214630Y-61256844D01*
X36220884Y-61277462D01*
X36223600Y-61305040D01*
X36223600Y-61813760D01*
X36220884Y-61841338D01*
X36214630Y-61861956D01*
X36204474Y-61880956D01*
X36190808Y-61897608D01*
X36174156Y-61911274D01*
X36155156Y-61921430D01*
X36134538Y-61927684D01*
X36106960Y-61930400D01*
X35648240Y-61930400D01*
X35620662Y-61927684D01*
X35600044Y-61921430D01*
X35581044Y-61911274D01*
X35564392Y-61897608D01*
X35550726Y-61880956D01*
X35540570Y-61861956D01*
X35534316Y-61841338D01*
X35531600Y-61813760D01*
X35531600Y-61305040D01*
X35534316Y-61277462D01*
X35540570Y-61256844D01*
X35550726Y-61237844D01*
X35564392Y-61221192D01*
X35581044Y-61207526D01*
X35600044Y-61197370D01*
X35620662Y-61191116D01*
X35648240Y-61188400D01*
X36106960Y-61188400D01*
X36134538Y-61191116D01*
X36134538Y-61191116D01*
G37*
G36*
X37104538Y-61191116D02*
X37125156Y-61197370D01*
X37144156Y-61207526D01*
X37160808Y-61221192D01*
X37174474Y-61237844D01*
X37184630Y-61256844D01*
X37190884Y-61277462D01*
X37193600Y-61305040D01*
X37193600Y-61813760D01*
X37190884Y-61841338D01*
X37184630Y-61861956D01*
X37174474Y-61880956D01*
X37160808Y-61897608D01*
X37144156Y-61911274D01*
X37125156Y-61921430D01*
X37104538Y-61927684D01*
X37076960Y-61930400D01*
X36618240Y-61930400D01*
X36590662Y-61927684D01*
X36570044Y-61921430D01*
X36551044Y-61911274D01*
X36534392Y-61897608D01*
X36520726Y-61880956D01*
X36510570Y-61861956D01*
X36504316Y-61841338D01*
X36501600Y-61813760D01*
X36501600Y-61305040D01*
X36504316Y-61277462D01*
X36510570Y-61256844D01*
X36520726Y-61237844D01*
X36534392Y-61221192D01*
X36551044Y-61207526D01*
X36570044Y-61197370D01*
X36590662Y-61191116D01*
X36618240Y-61188400D01*
X37076960Y-61188400D01*
X37104538Y-61191116D01*
X37104538Y-61191116D01*
G37*
G36*
X75641138Y-61063216D02*
X75661756Y-61069470D01*
X75680756Y-61079626D01*
X75697408Y-61093292D01*
X75711074Y-61109944D01*
X75721230Y-61128944D01*
X75727484Y-61149562D01*
X75730200Y-61177140D01*
X75730200Y-61685860D01*
X75727484Y-61713438D01*
X75721230Y-61734056D01*
X75711074Y-61753056D01*
X75697408Y-61769708D01*
X75680756Y-61783374D01*
X75661756Y-61793530D01*
X75641138Y-61799784D01*
X75613560Y-61802500D01*
X75154840Y-61802500D01*
X75127262Y-61799784D01*
X75106644Y-61793530D01*
X75087644Y-61783374D01*
X75070992Y-61769708D01*
X75057326Y-61753056D01*
X75047170Y-61734056D01*
X75040916Y-61713438D01*
X75038200Y-61685860D01*
X75038200Y-61177140D01*
X75040916Y-61149562D01*
X75047170Y-61128944D01*
X75057326Y-61109944D01*
X75070992Y-61093292D01*
X75087644Y-61079626D01*
X75106644Y-61069470D01*
X75127262Y-61063216D01*
X75154840Y-61060500D01*
X75613560Y-61060500D01*
X75641138Y-61063216D01*
X75641138Y-61063216D01*
G37*
G36*
X74671138Y-61063216D02*
X74691756Y-61069470D01*
X74710756Y-61079626D01*
X74727408Y-61093292D01*
X74741074Y-61109944D01*
X74751230Y-61128944D01*
X74757484Y-61149562D01*
X74760200Y-61177140D01*
X74760200Y-61685860D01*
X74757484Y-61713438D01*
X74751230Y-61734056D01*
X74741074Y-61753056D01*
X74727408Y-61769708D01*
X74710756Y-61783374D01*
X74691756Y-61793530D01*
X74671138Y-61799784D01*
X74643560Y-61802500D01*
X74184840Y-61802500D01*
X74157262Y-61799784D01*
X74136644Y-61793530D01*
X74117644Y-61783374D01*
X74100992Y-61769708D01*
X74087326Y-61753056D01*
X74077170Y-61734056D01*
X74070916Y-61713438D01*
X74068200Y-61685860D01*
X74068200Y-61177140D01*
X74070916Y-61149562D01*
X74077170Y-61128944D01*
X74087326Y-61109944D01*
X74100992Y-61093292D01*
X74117644Y-61079626D01*
X74136644Y-61069470D01*
X74157262Y-61063216D01*
X74184840Y-61060500D01*
X74643560Y-61060500D01*
X74671138Y-61063216D01*
X74671138Y-61063216D01*
G37*
G36*
X80932628Y-60021803D02*
X81087500Y-60085953D01*
X81226881Y-60179085D01*
X81345415Y-60297619D01*
X81438547Y-60437000D01*
X81502697Y-60591872D01*
X81535400Y-60756284D01*
X81535400Y-60923916D01*
X81502697Y-61088328D01*
X81438547Y-61243200D01*
X81345415Y-61382581D01*
X81226881Y-61501115D01*
X81087500Y-61594247D01*
X80932628Y-61658397D01*
X80768216Y-61691100D01*
X80600584Y-61691100D01*
X80436172Y-61658397D01*
X80281300Y-61594247D01*
X80141919Y-61501115D01*
X80023385Y-61382581D01*
X79930253Y-61243200D01*
X79866103Y-61088328D01*
X79833400Y-60923916D01*
X79833400Y-60756284D01*
X79866103Y-60591872D01*
X79930253Y-60437000D01*
X80023385Y-60297619D01*
X80141919Y-60179085D01*
X80281300Y-60085953D01*
X80436172Y-60021803D01*
X80600584Y-59989100D01*
X80768216Y-59989100D01*
X80932628Y-60021803D01*
X80932628Y-60021803D01*
G37*
G36*
X74676238Y-59976116D02*
X74696856Y-59982370D01*
X74715856Y-59992526D01*
X74732508Y-60006192D01*
X74746174Y-60022844D01*
X74756330Y-60041844D01*
X74762584Y-60062462D01*
X74765300Y-60090040D01*
X74765300Y-60598760D01*
X74762584Y-60626338D01*
X74756330Y-60646956D01*
X74746174Y-60665956D01*
X74732508Y-60682608D01*
X74715856Y-60696274D01*
X74696856Y-60706430D01*
X74676238Y-60712684D01*
X74648660Y-60715400D01*
X74189940Y-60715400D01*
X74162362Y-60712684D01*
X74141744Y-60706430D01*
X74122744Y-60696274D01*
X74106092Y-60682608D01*
X74092426Y-60665956D01*
X74082270Y-60646956D01*
X74076016Y-60626338D01*
X74073300Y-60598760D01*
X74073300Y-60090040D01*
X74076016Y-60062462D01*
X74082270Y-60041844D01*
X74092426Y-60022844D01*
X74106092Y-60006192D01*
X74122744Y-59992526D01*
X74141744Y-59982370D01*
X74162362Y-59976116D01*
X74189940Y-59973400D01*
X74648660Y-59973400D01*
X74676238Y-59976116D01*
X74676238Y-59976116D01*
G37*
G36*
X75646238Y-59976116D02*
X75666856Y-59982370D01*
X75685856Y-59992526D01*
X75702508Y-60006192D01*
X75716174Y-60022844D01*
X75726330Y-60041844D01*
X75732584Y-60062462D01*
X75735300Y-60090040D01*
X75735300Y-60598760D01*
X75732584Y-60626338D01*
X75726330Y-60646956D01*
X75716174Y-60665956D01*
X75702508Y-60682608D01*
X75685856Y-60696274D01*
X75666856Y-60706430D01*
X75646238Y-60712684D01*
X75618660Y-60715400D01*
X75159940Y-60715400D01*
X75132362Y-60712684D01*
X75111744Y-60706430D01*
X75092744Y-60696274D01*
X75076092Y-60682608D01*
X75062426Y-60665956D01*
X75052270Y-60646956D01*
X75046016Y-60626338D01*
X75043300Y-60598760D01*
X75043300Y-60090040D01*
X75046016Y-60062462D01*
X75052270Y-60041844D01*
X75062426Y-60022844D01*
X75076092Y-60006192D01*
X75092744Y-59992526D01*
X75111744Y-59982370D01*
X75132362Y-59976116D01*
X75159940Y-59973400D01*
X75618660Y-59973400D01*
X75646238Y-59976116D01*
X75646238Y-59976116D01*
G37*
G36*
X79555400Y-60546100D02*
X77853400Y-60546100D01*
X77853400Y-58844100D01*
X79555400Y-58844100D01*
X79555400Y-60546100D01*
X79555400Y-60546100D01*
G37*
G36*
X82912628Y-58876803D02*
X83067500Y-58940953D01*
X83206881Y-59034085D01*
X83325415Y-59152619D01*
X83418547Y-59292000D01*
X83482697Y-59446872D01*
X83515400Y-59611284D01*
X83515400Y-59778916D01*
X83482697Y-59943328D01*
X83418547Y-60098200D01*
X83325415Y-60237581D01*
X83206881Y-60356115D01*
X83067500Y-60449247D01*
X82912628Y-60513397D01*
X82748216Y-60546100D01*
X82580584Y-60546100D01*
X82416172Y-60513397D01*
X82261300Y-60449247D01*
X82121919Y-60356115D01*
X82003385Y-60237581D01*
X81910253Y-60098200D01*
X81846103Y-59943328D01*
X81813400Y-59778916D01*
X81813400Y-59611284D01*
X81846103Y-59446872D01*
X81910253Y-59292000D01*
X82003385Y-59152619D01*
X82121919Y-59034085D01*
X82261300Y-58940953D01*
X82416172Y-58876803D01*
X82580584Y-58844100D01*
X82748216Y-58844100D01*
X82912628Y-58876803D01*
X82912628Y-58876803D01*
G37*
G36*
X80932628Y-57731803D02*
X81087500Y-57795953D01*
X81226881Y-57889085D01*
X81345415Y-58007619D01*
X81438547Y-58147000D01*
X81502697Y-58301872D01*
X81535400Y-58466284D01*
X81535400Y-58633916D01*
X81502697Y-58798328D01*
X81438547Y-58953200D01*
X81345415Y-59092581D01*
X81226881Y-59211115D01*
X81087500Y-59304247D01*
X80932628Y-59368397D01*
X80768216Y-59401100D01*
X80600584Y-59401100D01*
X80436172Y-59368397D01*
X80281300Y-59304247D01*
X80141919Y-59211115D01*
X80023385Y-59092581D01*
X79930253Y-58953200D01*
X79866103Y-58798328D01*
X79833400Y-58633916D01*
X79833400Y-58466284D01*
X79866103Y-58301872D01*
X79930253Y-58147000D01*
X80023385Y-58007619D01*
X80141919Y-57889085D01*
X80281300Y-57795953D01*
X80436172Y-57731803D01*
X80600584Y-57699100D01*
X80768216Y-57699100D01*
X80932628Y-57731803D01*
X80932628Y-57731803D01*
G37*
G36*
X59009300Y-58559600D02*
X41107300Y-58559600D01*
X41107300Y-56857600D01*
X59009300Y-56857600D01*
X59009300Y-58559600D01*
X59009300Y-58559600D01*
G37*
G36*
X49593538Y-54873616D02*
X49614156Y-54879870D01*
X49633156Y-54890026D01*
X49649808Y-54903692D01*
X49663474Y-54920344D01*
X49673630Y-54939344D01*
X49679884Y-54959962D01*
X49682600Y-54987540D01*
X49682600Y-55446260D01*
X49679884Y-55473838D01*
X49673630Y-55494456D01*
X49663474Y-55513456D01*
X49649808Y-55530108D01*
X49633156Y-55543774D01*
X49614156Y-55553930D01*
X49593538Y-55560184D01*
X49565960Y-55562900D01*
X49057240Y-55562900D01*
X49029662Y-55560184D01*
X49009044Y-55553930D01*
X48990044Y-55543774D01*
X48973392Y-55530108D01*
X48959726Y-55513456D01*
X48949570Y-55494456D01*
X48943316Y-55473838D01*
X48940600Y-55446260D01*
X48940600Y-54987540D01*
X48943316Y-54959962D01*
X48949570Y-54939344D01*
X48959726Y-54920344D01*
X48973392Y-54903692D01*
X48990044Y-54890026D01*
X49009044Y-54879870D01*
X49029662Y-54873616D01*
X49057240Y-54870900D01*
X49565960Y-54870900D01*
X49593538Y-54873616D01*
X49593538Y-54873616D01*
G37*
G36*
X52590738Y-54868516D02*
X52611356Y-54874770D01*
X52630356Y-54884926D01*
X52647008Y-54898592D01*
X52660674Y-54915244D01*
X52670830Y-54934244D01*
X52677084Y-54954862D01*
X52679800Y-54982440D01*
X52679800Y-55441160D01*
X52677084Y-55468738D01*
X52670830Y-55489356D01*
X52660674Y-55508356D01*
X52647008Y-55525008D01*
X52630356Y-55538674D01*
X52611356Y-55548830D01*
X52590738Y-55555084D01*
X52563160Y-55557800D01*
X52054440Y-55557800D01*
X52026862Y-55555084D01*
X52006244Y-55548830D01*
X51987244Y-55538674D01*
X51970592Y-55525008D01*
X51956926Y-55508356D01*
X51946770Y-55489356D01*
X51940516Y-55468738D01*
X51937800Y-55441160D01*
X51937800Y-54982440D01*
X51940516Y-54954862D01*
X51946770Y-54934244D01*
X51956926Y-54915244D01*
X51970592Y-54898592D01*
X51987244Y-54884926D01*
X52006244Y-54874770D01*
X52026862Y-54868516D01*
X52054440Y-54865800D01*
X52563160Y-54865800D01*
X52590738Y-54868516D01*
X52590738Y-54868516D01*
G37*
G36*
X46093338Y-54863516D02*
X46113956Y-54869770D01*
X46132956Y-54879926D01*
X46149608Y-54893592D01*
X46163274Y-54910244D01*
X46173430Y-54929244D01*
X46179684Y-54949862D01*
X46182400Y-54977440D01*
X46182400Y-55436160D01*
X46179684Y-55463738D01*
X46173430Y-55484356D01*
X46163274Y-55503356D01*
X46149608Y-55520008D01*
X46132956Y-55533674D01*
X46113956Y-55543830D01*
X46093338Y-55550084D01*
X46065760Y-55552800D01*
X45557040Y-55552800D01*
X45529462Y-55550084D01*
X45508844Y-55543830D01*
X45489844Y-55533674D01*
X45473192Y-55520008D01*
X45459526Y-55503356D01*
X45449370Y-55484356D01*
X45443116Y-55463738D01*
X45440400Y-55436160D01*
X45440400Y-54977440D01*
X45443116Y-54949862D01*
X45449370Y-54929244D01*
X45459526Y-54910244D01*
X45473192Y-54893592D01*
X45489844Y-54879926D01*
X45508844Y-54869770D01*
X45529462Y-54863516D01*
X45557040Y-54860800D01*
X46065760Y-54860800D01*
X46093338Y-54863516D01*
X46093338Y-54863516D01*
G37*
G36*
X67896912Y-53890125D02*
X67962184Y-53909926D01*
X67981924Y-53915914D01*
X68039091Y-53946471D01*
X68060277Y-53957795D01*
X68126862Y-54012440D01*
X68128948Y-54014152D01*
X68185307Y-54082826D01*
X68227186Y-54161175D01*
X68230210Y-54171144D01*
X68252975Y-54246187D01*
X68259500Y-54312442D01*
X68259500Y-54856758D01*
X68252975Y-54923013D01*
X68236464Y-54977440D01*
X68227186Y-55008025D01*
X68185307Y-55086374D01*
X68128948Y-55155048D01*
X68060274Y-55211407D01*
X67981925Y-55253286D01*
X67971956Y-55256310D01*
X67896913Y-55279075D01*
X67808500Y-55287782D01*
X67720088Y-55279075D01*
X67645045Y-55256310D01*
X67635076Y-55253286D01*
X67556727Y-55211407D01*
X67488053Y-55155048D01*
X67456385Y-55116460D01*
X67431693Y-55086373D01*
X67389813Y-55008023D01*
X67364025Y-54923013D01*
X67357500Y-54856758D01*
X67357500Y-54312443D01*
X67364025Y-54246188D01*
X67389813Y-54161180D01*
X67389814Y-54161176D01*
X67431693Y-54082827D01*
X67431695Y-54082823D01*
X67488050Y-54014154D01*
X67488055Y-54014150D01*
X67556726Y-53957793D01*
X67635075Y-53915914D01*
X67654815Y-53909926D01*
X67720087Y-53890125D01*
X67808500Y-53881418D01*
X67896912Y-53890125D01*
X67896912Y-53890125D01*
G37*
G36*
X66646912Y-53890125D02*
X66712184Y-53909926D01*
X66731924Y-53915914D01*
X66789091Y-53946471D01*
X66810277Y-53957795D01*
X66876862Y-54012440D01*
X66878948Y-54014152D01*
X66935307Y-54082826D01*
X66977186Y-54161175D01*
X66980210Y-54171144D01*
X67002975Y-54246187D01*
X67009500Y-54312442D01*
X67009500Y-54856758D01*
X67002975Y-54923013D01*
X66986464Y-54977440D01*
X66977186Y-55008025D01*
X66935307Y-55086374D01*
X66878948Y-55155048D01*
X66810274Y-55211407D01*
X66731925Y-55253286D01*
X66721956Y-55256310D01*
X66646913Y-55279075D01*
X66558500Y-55287782D01*
X66470088Y-55279075D01*
X66395045Y-55256310D01*
X66385076Y-55253286D01*
X66306727Y-55211407D01*
X66238053Y-55155048D01*
X66206385Y-55116460D01*
X66181693Y-55086373D01*
X66139813Y-55008023D01*
X66114025Y-54923013D01*
X66107500Y-54856758D01*
X66107500Y-54312443D01*
X66114025Y-54246188D01*
X66139813Y-54161180D01*
X66139814Y-54161176D01*
X66181693Y-54082827D01*
X66181695Y-54082823D01*
X66238050Y-54014154D01*
X66238055Y-54014150D01*
X66306726Y-53957793D01*
X66385075Y-53915914D01*
X66404815Y-53909926D01*
X66470087Y-53890125D01*
X66558500Y-53881418D01*
X66646912Y-53890125D01*
X66646912Y-53890125D01*
G37*
G36*
X69146912Y-53890125D02*
X69212184Y-53909926D01*
X69231924Y-53915914D01*
X69289091Y-53946471D01*
X69310277Y-53957795D01*
X69376862Y-54012440D01*
X69378948Y-54014152D01*
X69435307Y-54082826D01*
X69477186Y-54161175D01*
X69480210Y-54171144D01*
X69502975Y-54246187D01*
X69509500Y-54312442D01*
X69509500Y-54856758D01*
X69502975Y-54923013D01*
X69486464Y-54977440D01*
X69477186Y-55008025D01*
X69435307Y-55086374D01*
X69378948Y-55155048D01*
X69310274Y-55211407D01*
X69231925Y-55253286D01*
X69221956Y-55256310D01*
X69146913Y-55279075D01*
X69058500Y-55287782D01*
X68970088Y-55279075D01*
X68895045Y-55256310D01*
X68885076Y-55253286D01*
X68806727Y-55211407D01*
X68738053Y-55155048D01*
X68706385Y-55116460D01*
X68681693Y-55086373D01*
X68639813Y-55008023D01*
X68614025Y-54923013D01*
X68607500Y-54856758D01*
X68607500Y-54312443D01*
X68614025Y-54246188D01*
X68639813Y-54161180D01*
X68639814Y-54161176D01*
X68681693Y-54082827D01*
X68681695Y-54082823D01*
X68738050Y-54014154D01*
X68738055Y-54014150D01*
X68806726Y-53957793D01*
X68885075Y-53915914D01*
X68904815Y-53909926D01*
X68970087Y-53890125D01*
X69058500Y-53881418D01*
X69146912Y-53890125D01*
X69146912Y-53890125D01*
G37*
G36*
X70396912Y-53890125D02*
X70462184Y-53909926D01*
X70481924Y-53915914D01*
X70539091Y-53946471D01*
X70560277Y-53957795D01*
X70626862Y-54012440D01*
X70628948Y-54014152D01*
X70685307Y-54082826D01*
X70727186Y-54161175D01*
X70730210Y-54171144D01*
X70752975Y-54246187D01*
X70759500Y-54312442D01*
X70759500Y-54856758D01*
X70752975Y-54923013D01*
X70736464Y-54977440D01*
X70727186Y-55008025D01*
X70685307Y-55086374D01*
X70628948Y-55155048D01*
X70560274Y-55211407D01*
X70481925Y-55253286D01*
X70471956Y-55256310D01*
X70396913Y-55279075D01*
X70308500Y-55287782D01*
X70220088Y-55279075D01*
X70145045Y-55256310D01*
X70135076Y-55253286D01*
X70056727Y-55211407D01*
X69988053Y-55155048D01*
X69956385Y-55116460D01*
X69931693Y-55086373D01*
X69889813Y-55008023D01*
X69864025Y-54923013D01*
X69857500Y-54856758D01*
X69857500Y-54312443D01*
X69864025Y-54246188D01*
X69889813Y-54161180D01*
X69889814Y-54161176D01*
X69931693Y-54082827D01*
X69931695Y-54082823D01*
X69988050Y-54014154D01*
X69988055Y-54014150D01*
X70056726Y-53957793D01*
X70135075Y-53915914D01*
X70154815Y-53909926D01*
X70220087Y-53890125D01*
X70308500Y-53881418D01*
X70396912Y-53890125D01*
X70396912Y-53890125D01*
G37*
G36*
X71646912Y-53890125D02*
X71712184Y-53909926D01*
X71731924Y-53915914D01*
X71789091Y-53946471D01*
X71810277Y-53957795D01*
X71876862Y-54012440D01*
X71878948Y-54014152D01*
X71935307Y-54082826D01*
X71977186Y-54161175D01*
X71980210Y-54171144D01*
X72002975Y-54246187D01*
X72009500Y-54312442D01*
X72009500Y-54856758D01*
X72002975Y-54923013D01*
X71986464Y-54977440D01*
X71977186Y-55008025D01*
X71935307Y-55086374D01*
X71878948Y-55155048D01*
X71810274Y-55211407D01*
X71731925Y-55253286D01*
X71721956Y-55256310D01*
X71646913Y-55279075D01*
X71558500Y-55287782D01*
X71470088Y-55279075D01*
X71395045Y-55256310D01*
X71385076Y-55253286D01*
X71306727Y-55211407D01*
X71238053Y-55155048D01*
X71206385Y-55116460D01*
X71181693Y-55086373D01*
X71139813Y-55008023D01*
X71114025Y-54923013D01*
X71107500Y-54856758D01*
X71107500Y-54312443D01*
X71114025Y-54246188D01*
X71139813Y-54161180D01*
X71139814Y-54161176D01*
X71181693Y-54082827D01*
X71181695Y-54082823D01*
X71238050Y-54014154D01*
X71238055Y-54014150D01*
X71306726Y-53957793D01*
X71385075Y-53915914D01*
X71404815Y-53909926D01*
X71470087Y-53890125D01*
X71558500Y-53881418D01*
X71646912Y-53890125D01*
X71646912Y-53890125D01*
G37*
G36*
X65628183Y-53887325D02*
X65658644Y-53896566D01*
X65686723Y-53911575D01*
X65711331Y-53931769D01*
X65731525Y-53956377D01*
X65746534Y-53984456D01*
X65755775Y-54014917D01*
X65759500Y-54052740D01*
X65759500Y-55116460D01*
X65755775Y-55154283D01*
X65746534Y-55184744D01*
X65731525Y-55212823D01*
X65711331Y-55237431D01*
X65686723Y-55257625D01*
X65658644Y-55272634D01*
X65628183Y-55281875D01*
X65590360Y-55285600D01*
X65026640Y-55285600D01*
X64988817Y-55281875D01*
X64958356Y-55272634D01*
X64930277Y-55257625D01*
X64905669Y-55237431D01*
X64885475Y-55212823D01*
X64870466Y-55184744D01*
X64861225Y-55154283D01*
X64857500Y-55116460D01*
X64857500Y-54052740D01*
X64861225Y-54014917D01*
X64870466Y-53984456D01*
X64885475Y-53956377D01*
X64905669Y-53931769D01*
X64930277Y-53911575D01*
X64958356Y-53896566D01*
X64988817Y-53887325D01*
X65026640Y-53883600D01*
X65590360Y-53883600D01*
X65628183Y-53887325D01*
X65628183Y-53887325D01*
G37*
G36*
X49593538Y-53903616D02*
X49614156Y-53909870D01*
X49633156Y-53920026D01*
X49649808Y-53933692D01*
X49663474Y-53950344D01*
X49673630Y-53969344D01*
X49679884Y-53989962D01*
X49682600Y-54017540D01*
X49682600Y-54476260D01*
X49679884Y-54503838D01*
X49673630Y-54524456D01*
X49663474Y-54543456D01*
X49649808Y-54560108D01*
X49633156Y-54573774D01*
X49614156Y-54583930D01*
X49593538Y-54590184D01*
X49565960Y-54592900D01*
X49057240Y-54592900D01*
X49029662Y-54590184D01*
X49009044Y-54583930D01*
X48990044Y-54573774D01*
X48973392Y-54560108D01*
X48959726Y-54543456D01*
X48949570Y-54524456D01*
X48943316Y-54503838D01*
X48940600Y-54476260D01*
X48940600Y-54017540D01*
X48943316Y-53989962D01*
X48949570Y-53969344D01*
X48959726Y-53950344D01*
X48973392Y-53933692D01*
X48990044Y-53920026D01*
X49009044Y-53909870D01*
X49029662Y-53903616D01*
X49057240Y-53900900D01*
X49565960Y-53900900D01*
X49593538Y-53903616D01*
X49593538Y-53903616D01*
G37*
G36*
X52590738Y-53898516D02*
X52611356Y-53904770D01*
X52630356Y-53914926D01*
X52647008Y-53928592D01*
X52660674Y-53945244D01*
X52670830Y-53964244D01*
X52677084Y-53984862D01*
X52679800Y-54012440D01*
X52679800Y-54471160D01*
X52677084Y-54498738D01*
X52670830Y-54519356D01*
X52660674Y-54538356D01*
X52647008Y-54555008D01*
X52630356Y-54568674D01*
X52611356Y-54578830D01*
X52590738Y-54585084D01*
X52563160Y-54587800D01*
X52054440Y-54587800D01*
X52026862Y-54585084D01*
X52006244Y-54578830D01*
X51987244Y-54568674D01*
X51970592Y-54555008D01*
X51956926Y-54538356D01*
X51946770Y-54519356D01*
X51940516Y-54498738D01*
X51937800Y-54471160D01*
X51937800Y-54012440D01*
X51940516Y-53984862D01*
X51946770Y-53964244D01*
X51956926Y-53945244D01*
X51970592Y-53928592D01*
X51987244Y-53914926D01*
X52006244Y-53904770D01*
X52026862Y-53898516D01*
X52054440Y-53895800D01*
X52563160Y-53895800D01*
X52590738Y-53898516D01*
X52590738Y-53898516D01*
G37*
G36*
X46093338Y-53893516D02*
X46113956Y-53899770D01*
X46132956Y-53909926D01*
X46149608Y-53923592D01*
X46163274Y-53940244D01*
X46173430Y-53959244D01*
X46179684Y-53979862D01*
X46182400Y-54007440D01*
X46182400Y-54466160D01*
X46179684Y-54493738D01*
X46173430Y-54514356D01*
X46163274Y-54533356D01*
X46149608Y-54550008D01*
X46132956Y-54563674D01*
X46113956Y-54573830D01*
X46093338Y-54580084D01*
X46065760Y-54582800D01*
X45557040Y-54582800D01*
X45529462Y-54580084D01*
X45508844Y-54573830D01*
X45489844Y-54563674D01*
X45473192Y-54550008D01*
X45459526Y-54533356D01*
X45449370Y-54514356D01*
X45443116Y-54493738D01*
X45440400Y-54466160D01*
X45440400Y-54007440D01*
X45443116Y-53979862D01*
X45449370Y-53959244D01*
X45459526Y-53940244D01*
X45473192Y-53923592D01*
X45489844Y-53909926D01*
X45508844Y-53899770D01*
X45529462Y-53893516D01*
X45557040Y-53890800D01*
X46065760Y-53890800D01*
X46093338Y-53893516D01*
X46093338Y-53893516D01*
G37*
G36*
X80722652Y-49537918D02*
X80722654Y-49537919D01*
X80722655Y-49537919D01*
X81095913Y-49692527D01*
X81254421Y-49798439D01*
X81431839Y-49916986D01*
X81717514Y-50202661D01*
X81717516Y-50202664D01*
X81941973Y-50538587D01*
X82096581Y-50911845D01*
X82175400Y-51308094D01*
X82175400Y-51712106D01*
X82096581Y-52108355D01*
X81941973Y-52481613D01*
X81941972Y-52481614D01*
X81717514Y-52817539D01*
X81431839Y-53103214D01*
X81431836Y-53103216D01*
X81095913Y-53327673D01*
X80722655Y-53482281D01*
X80722654Y-53482281D01*
X80722652Y-53482282D01*
X80326407Y-53561100D01*
X79922393Y-53561100D01*
X79526148Y-53482282D01*
X79526146Y-53482281D01*
X79526145Y-53482281D01*
X79152887Y-53327673D01*
X78816964Y-53103216D01*
X78816961Y-53103214D01*
X78531286Y-52817539D01*
X78306828Y-52481614D01*
X78306827Y-52481613D01*
X78152219Y-52108355D01*
X78073400Y-51712106D01*
X78073400Y-51308094D01*
X78152219Y-50911845D01*
X78306827Y-50538587D01*
X78531284Y-50202664D01*
X78531286Y-50202661D01*
X78816961Y-49916986D01*
X78994379Y-49798439D01*
X79152887Y-49692527D01*
X79526145Y-49537919D01*
X79526146Y-49537919D01*
X79526148Y-49537918D01*
X79922393Y-49459100D01*
X80326407Y-49459100D01*
X80722652Y-49537918D01*
X80722652Y-49537918D01*
G37*
G36*
X47702828Y-49092703D02*
X47857700Y-49156853D01*
X47997081Y-49249985D01*
X48115615Y-49368519D01*
X48208747Y-49507900D01*
X48272897Y-49662772D01*
X48305600Y-49827184D01*
X48305600Y-49994816D01*
X48272897Y-50159228D01*
X48208747Y-50314100D01*
X48115615Y-50453481D01*
X47997081Y-50572015D01*
X47857700Y-50665147D01*
X47702828Y-50729297D01*
X47538416Y-50762000D01*
X47370784Y-50762000D01*
X47206372Y-50729297D01*
X47051500Y-50665147D01*
X46912119Y-50572015D01*
X46793585Y-50453481D01*
X46700453Y-50314100D01*
X46636303Y-50159228D01*
X46603600Y-49994816D01*
X46603600Y-49827184D01*
X46636303Y-49662772D01*
X46700453Y-49507900D01*
X46793585Y-49368519D01*
X46912119Y-49249985D01*
X47051500Y-49156853D01*
X47206372Y-49092703D01*
X47370784Y-49060000D01*
X47538416Y-49060000D01*
X47702828Y-49092703D01*
X47702828Y-49092703D01*
G37*
G36*
X50472828Y-49092703D02*
X50627700Y-49156853D01*
X50767081Y-49249985D01*
X50885615Y-49368519D01*
X50978747Y-49507900D01*
X51042897Y-49662772D01*
X51075600Y-49827184D01*
X51075600Y-49994816D01*
X51042897Y-50159228D01*
X50978747Y-50314100D01*
X50885615Y-50453481D01*
X50767081Y-50572015D01*
X50627700Y-50665147D01*
X50472828Y-50729297D01*
X50308416Y-50762000D01*
X50140784Y-50762000D01*
X49976372Y-50729297D01*
X49821500Y-50665147D01*
X49682119Y-50572015D01*
X49563585Y-50453481D01*
X49470453Y-50314100D01*
X49406303Y-50159228D01*
X49373600Y-49994816D01*
X49373600Y-49827184D01*
X49406303Y-49662772D01*
X49470453Y-49507900D01*
X49563585Y-49368519D01*
X49682119Y-49249985D01*
X49821500Y-49156853D01*
X49976372Y-49092703D01*
X50140784Y-49060000D01*
X50308416Y-49060000D01*
X50472828Y-49092703D01*
X50472828Y-49092703D01*
G37*
G36*
X53845600Y-50762000D02*
X52143600Y-50762000D01*
X52143600Y-49060000D01*
X53845600Y-49060000D01*
X53845600Y-50762000D01*
X53845600Y-50762000D01*
G37*
G36*
X42162828Y-49092703D02*
X42317700Y-49156853D01*
X42457081Y-49249985D01*
X42575615Y-49368519D01*
X42668747Y-49507900D01*
X42732897Y-49662772D01*
X42765600Y-49827184D01*
X42765600Y-49994816D01*
X42732897Y-50159228D01*
X42668747Y-50314100D01*
X42575615Y-50453481D01*
X42457081Y-50572015D01*
X42317700Y-50665147D01*
X42162828Y-50729297D01*
X41998416Y-50762000D01*
X41830784Y-50762000D01*
X41666372Y-50729297D01*
X41511500Y-50665147D01*
X41372119Y-50572015D01*
X41253585Y-50453481D01*
X41160453Y-50314100D01*
X41096303Y-50159228D01*
X41063600Y-49994816D01*
X41063600Y-49827184D01*
X41096303Y-49662772D01*
X41160453Y-49507900D01*
X41253585Y-49368519D01*
X41372119Y-49249985D01*
X41511500Y-49156853D01*
X41666372Y-49092703D01*
X41830784Y-49060000D01*
X41998416Y-49060000D01*
X42162828Y-49092703D01*
X42162828Y-49092703D01*
G37*
G36*
X44932828Y-49092703D02*
X45087700Y-49156853D01*
X45227081Y-49249985D01*
X45345615Y-49368519D01*
X45438747Y-49507900D01*
X45502897Y-49662772D01*
X45535600Y-49827184D01*
X45535600Y-49994816D01*
X45502897Y-50159228D01*
X45438747Y-50314100D01*
X45345615Y-50453481D01*
X45227081Y-50572015D01*
X45087700Y-50665147D01*
X44932828Y-50729297D01*
X44768416Y-50762000D01*
X44600784Y-50762000D01*
X44436372Y-50729297D01*
X44281500Y-50665147D01*
X44142119Y-50572015D01*
X44023585Y-50453481D01*
X43930453Y-50314100D01*
X43866303Y-50159228D01*
X43833600Y-49994816D01*
X43833600Y-49827184D01*
X43866303Y-49662772D01*
X43930453Y-49507900D01*
X44023585Y-49368519D01*
X44142119Y-49249985D01*
X44281500Y-49156853D01*
X44436372Y-49092703D01*
X44600784Y-49060000D01*
X44768416Y-49060000D01*
X44932828Y-49092703D01*
X44932828Y-49092703D01*
G37*
G36*
X35552852Y-46518818D02*
X35552854Y-46518819D01*
X35552855Y-46518819D01*
X35926113Y-46673427D01*
X36257505Y-46894857D01*
X36262039Y-46897886D01*
X36547714Y-47183561D01*
X36547716Y-47183564D01*
X36772173Y-47519487D01*
X36898781Y-47825147D01*
X36926782Y-47892748D01*
X37005600Y-48288993D01*
X37005600Y-48693007D01*
X36932601Y-49060000D01*
X36926781Y-49089255D01*
X36772173Y-49462513D01*
X36550743Y-49793905D01*
X36547714Y-49798439D01*
X36262039Y-50084114D01*
X36262036Y-50084116D01*
X35926113Y-50308573D01*
X35552855Y-50463181D01*
X35552854Y-50463181D01*
X35552852Y-50463182D01*
X35156607Y-50542000D01*
X34752593Y-50542000D01*
X34356348Y-50463182D01*
X34356346Y-50463181D01*
X34356345Y-50463181D01*
X33983087Y-50308573D01*
X33647164Y-50084116D01*
X33647161Y-50084114D01*
X33361486Y-49798439D01*
X33358457Y-49793905D01*
X33137027Y-49462513D01*
X32982419Y-49089255D01*
X32976600Y-49060000D01*
X32903600Y-48693007D01*
X32903600Y-48288993D01*
X32982418Y-47892748D01*
X33010419Y-47825147D01*
X33137027Y-47519487D01*
X33361484Y-47183564D01*
X33361486Y-47183561D01*
X33647161Y-46897886D01*
X33651695Y-46894857D01*
X33983087Y-46673427D01*
X34356345Y-46518819D01*
X34356346Y-46518819D01*
X34356348Y-46518818D01*
X34752593Y-46440000D01*
X35156607Y-46440000D01*
X35552852Y-46518818D01*
X35552852Y-46518818D01*
G37*
G36*
X60552852Y-46518818D02*
X60552854Y-46518819D01*
X60552855Y-46518819D01*
X60926113Y-46673427D01*
X61257505Y-46894857D01*
X61262039Y-46897886D01*
X61547714Y-47183561D01*
X61547716Y-47183564D01*
X61772173Y-47519487D01*
X61898781Y-47825147D01*
X61926782Y-47892748D01*
X62005600Y-48288993D01*
X62005600Y-48693007D01*
X61932601Y-49060000D01*
X61926781Y-49089255D01*
X61772173Y-49462513D01*
X61550743Y-49793905D01*
X61547714Y-49798439D01*
X61262039Y-50084114D01*
X61262036Y-50084116D01*
X60926113Y-50308573D01*
X60552855Y-50463181D01*
X60552854Y-50463181D01*
X60552852Y-50463182D01*
X60156607Y-50542000D01*
X59752593Y-50542000D01*
X59356348Y-50463182D01*
X59356346Y-50463181D01*
X59356345Y-50463181D01*
X58983087Y-50308573D01*
X58647164Y-50084116D01*
X58647161Y-50084114D01*
X58361486Y-49798439D01*
X58358457Y-49793905D01*
X58137027Y-49462513D01*
X57982419Y-49089255D01*
X57976600Y-49060000D01*
X57903600Y-48693007D01*
X57903600Y-48288993D01*
X57982418Y-47892748D01*
X58010419Y-47825147D01*
X58137027Y-47519487D01*
X58361484Y-47183564D01*
X58361486Y-47183561D01*
X58647161Y-46897886D01*
X58651695Y-46894857D01*
X58983087Y-46673427D01*
X59356345Y-46518819D01*
X59356346Y-46518819D01*
X59356348Y-46518818D01*
X59752593Y-46440000D01*
X60156607Y-46440000D01*
X60552852Y-46518818D01*
X60552852Y-46518818D01*
G37*
G36*
X75077228Y-44903998D02*
X75251778Y-44956948D01*
X75412647Y-45042933D01*
X75553649Y-45158651D01*
X75669367Y-45299653D01*
X75755352Y-45460521D01*
X75808302Y-45635071D01*
X75821700Y-45771110D01*
X75821700Y-47612090D01*
X75808302Y-47748129D01*
X75755352Y-47922679D01*
X75669367Y-48083547D01*
X75553649Y-48224549D01*
X75412647Y-48340267D01*
X75251779Y-48426252D01*
X75077229Y-48479202D01*
X74895700Y-48497080D01*
X74714172Y-48479202D01*
X74539622Y-48426252D01*
X74378754Y-48340267D01*
X74237752Y-48224549D01*
X74122034Y-48083547D01*
X74036049Y-47922679D01*
X73983099Y-47748129D01*
X73969700Y-47612089D01*
X73969700Y-45771111D01*
X73983098Y-45635072D01*
X74036048Y-45460522D01*
X74122033Y-45299653D01*
X74237751Y-45158651D01*
X74378753Y-45042933D01*
X74539621Y-44956948D01*
X74714171Y-44903998D01*
X74895700Y-44886120D01*
X75077228Y-44903998D01*
X75077228Y-44903998D01*
G37*
G36*
X67577228Y-44903998D02*
X67751778Y-44956948D01*
X67912647Y-45042933D01*
X68053649Y-45158651D01*
X68169367Y-45299653D01*
X68255352Y-45460521D01*
X68308302Y-45635071D01*
X68321700Y-45771110D01*
X68321700Y-47612090D01*
X68308302Y-47748129D01*
X68255352Y-47922679D01*
X68169367Y-48083547D01*
X68053649Y-48224549D01*
X67912647Y-48340267D01*
X67751779Y-48426252D01*
X67577229Y-48479202D01*
X67395700Y-48497080D01*
X67214172Y-48479202D01*
X67039622Y-48426252D01*
X66878754Y-48340267D01*
X66737752Y-48224549D01*
X66622034Y-48083547D01*
X66536049Y-47922679D01*
X66483099Y-47748129D01*
X66469700Y-47612089D01*
X66469700Y-45771111D01*
X66483098Y-45635072D01*
X66536048Y-45460522D01*
X66622033Y-45299653D01*
X66737751Y-45158651D01*
X66878753Y-45042933D01*
X67039621Y-44956948D01*
X67214171Y-44903998D01*
X67395700Y-44886120D01*
X67577228Y-44903998D01*
X67577228Y-44903998D01*
G37*
G36*
X72577228Y-44903998D02*
X72751778Y-44956948D01*
X72912647Y-45042933D01*
X73053649Y-45158651D01*
X73169367Y-45299653D01*
X73255352Y-45460521D01*
X73308302Y-45635071D01*
X73321700Y-45771110D01*
X73321700Y-47612090D01*
X73308302Y-47748129D01*
X73255352Y-47922679D01*
X73169367Y-48083547D01*
X73053649Y-48224549D01*
X72912647Y-48340267D01*
X72751779Y-48426252D01*
X72577229Y-48479202D01*
X72395700Y-48497080D01*
X72214172Y-48479202D01*
X72039622Y-48426252D01*
X71878754Y-48340267D01*
X71737752Y-48224549D01*
X71622034Y-48083547D01*
X71536049Y-47922679D01*
X71483099Y-47748129D01*
X71469700Y-47612089D01*
X71469700Y-45771111D01*
X71483098Y-45635072D01*
X71536048Y-45460522D01*
X71622033Y-45299653D01*
X71737751Y-45158651D01*
X71878753Y-45042933D01*
X72039621Y-44956948D01*
X72214171Y-44903998D01*
X72395700Y-44886120D01*
X72577228Y-44903998D01*
X72577228Y-44903998D01*
G37*
G36*
X65077228Y-44903998D02*
X65251778Y-44956948D01*
X65412647Y-45042933D01*
X65553649Y-45158651D01*
X65669367Y-45299653D01*
X65755352Y-45460521D01*
X65808302Y-45635071D01*
X65821700Y-45771110D01*
X65821700Y-47612090D01*
X65808302Y-47748129D01*
X65755352Y-47922679D01*
X65669367Y-48083547D01*
X65553649Y-48224549D01*
X65412647Y-48340267D01*
X65251779Y-48426252D01*
X65077229Y-48479202D01*
X64895700Y-48497080D01*
X64714172Y-48479202D01*
X64539622Y-48426252D01*
X64378754Y-48340267D01*
X64237752Y-48224549D01*
X64122034Y-48083547D01*
X64036049Y-47922679D01*
X63983099Y-47748129D01*
X63969700Y-47612089D01*
X63969700Y-45771111D01*
X63983098Y-45635072D01*
X64036048Y-45460522D01*
X64122033Y-45299653D01*
X64237751Y-45158651D01*
X64378753Y-45042933D01*
X64539621Y-44956948D01*
X64714171Y-44903998D01*
X64895700Y-44886120D01*
X65077228Y-44903998D01*
X65077228Y-44903998D01*
G37*
G36*
X49087828Y-46252703D02*
X49242700Y-46316853D01*
X49382081Y-46409985D01*
X49500615Y-46528519D01*
X49593747Y-46667900D01*
X49657897Y-46822772D01*
X49690600Y-46987184D01*
X49690600Y-47154816D01*
X49657897Y-47319228D01*
X49593747Y-47474100D01*
X49500615Y-47613481D01*
X49382081Y-47732015D01*
X49242700Y-47825147D01*
X49087828Y-47889297D01*
X48923416Y-47922000D01*
X48755784Y-47922000D01*
X48591372Y-47889297D01*
X48436500Y-47825147D01*
X48297119Y-47732015D01*
X48178585Y-47613481D01*
X48085453Y-47474100D01*
X48021303Y-47319228D01*
X47988600Y-47154816D01*
X47988600Y-46987184D01*
X48021303Y-46822772D01*
X48085453Y-46667900D01*
X48178585Y-46528519D01*
X48297119Y-46409985D01*
X48436500Y-46316853D01*
X48591372Y-46252703D01*
X48755784Y-46220000D01*
X48923416Y-46220000D01*
X49087828Y-46252703D01*
X49087828Y-46252703D01*
G37*
G36*
X43547828Y-46252703D02*
X43702700Y-46316853D01*
X43842081Y-46409985D01*
X43960615Y-46528519D01*
X44053747Y-46667900D01*
X44117897Y-46822772D01*
X44150600Y-46987184D01*
X44150600Y-47154816D01*
X44117897Y-47319228D01*
X44053747Y-47474100D01*
X43960615Y-47613481D01*
X43842081Y-47732015D01*
X43702700Y-47825147D01*
X43547828Y-47889297D01*
X43383416Y-47922000D01*
X43215784Y-47922000D01*
X43051372Y-47889297D01*
X42896500Y-47825147D01*
X42757119Y-47732015D01*
X42638585Y-47613481D01*
X42545453Y-47474100D01*
X42481303Y-47319228D01*
X42448600Y-47154816D01*
X42448600Y-46987184D01*
X42481303Y-46822772D01*
X42545453Y-46667900D01*
X42638585Y-46528519D01*
X42757119Y-46409985D01*
X42896500Y-46316853D01*
X43051372Y-46252703D01*
X43215784Y-46220000D01*
X43383416Y-46220000D01*
X43547828Y-46252703D01*
X43547828Y-46252703D01*
G37*
G36*
X51857828Y-46252703D02*
X52012700Y-46316853D01*
X52152081Y-46409985D01*
X52270615Y-46528519D01*
X52363747Y-46667900D01*
X52427897Y-46822772D01*
X52460600Y-46987184D01*
X52460600Y-47154816D01*
X52427897Y-47319228D01*
X52363747Y-47474100D01*
X52270615Y-47613481D01*
X52152081Y-47732015D01*
X52012700Y-47825147D01*
X51857828Y-47889297D01*
X51693416Y-47922000D01*
X51525784Y-47922000D01*
X51361372Y-47889297D01*
X51206500Y-47825147D01*
X51067119Y-47732015D01*
X50948585Y-47613481D01*
X50855453Y-47474100D01*
X50791303Y-47319228D01*
X50758600Y-47154816D01*
X50758600Y-46987184D01*
X50791303Y-46822772D01*
X50855453Y-46667900D01*
X50948585Y-46528519D01*
X51067119Y-46409985D01*
X51206500Y-46316853D01*
X51361372Y-46252703D01*
X51525784Y-46220000D01*
X51693416Y-46220000D01*
X51857828Y-46252703D01*
X51857828Y-46252703D01*
G37*
G36*
X46317828Y-46252703D02*
X46472700Y-46316853D01*
X46612081Y-46409985D01*
X46730615Y-46528519D01*
X46823747Y-46667900D01*
X46887897Y-46822772D01*
X46920600Y-46987184D01*
X46920600Y-47154816D01*
X46887897Y-47319228D01*
X46823747Y-47474100D01*
X46730615Y-47613481D01*
X46612081Y-47732015D01*
X46472700Y-47825147D01*
X46317828Y-47889297D01*
X46153416Y-47922000D01*
X45985784Y-47922000D01*
X45821372Y-47889297D01*
X45666500Y-47825147D01*
X45527119Y-47732015D01*
X45408585Y-47613481D01*
X45315453Y-47474100D01*
X45251303Y-47319228D01*
X45218600Y-47154816D01*
X45218600Y-46987184D01*
X45251303Y-46822772D01*
X45315453Y-46667900D01*
X45408585Y-46528519D01*
X45527119Y-46409985D01*
X45666500Y-46316853D01*
X45821372Y-46252703D01*
X45985784Y-46220000D01*
X46153416Y-46220000D01*
X46317828Y-46252703D01*
X46317828Y-46252703D01*
G37*
G36*
X84791400Y-46829400D02*
X80989400Y-46829400D01*
X80989400Y-44727400D01*
X84791400Y-44727400D01*
X84791400Y-46829400D01*
X84791400Y-46829400D01*
G37*
G36*
X79491400Y-46579400D02*
X77389400Y-46579400D01*
X77389400Y-44777400D01*
X79491400Y-44777400D01*
X79491400Y-46579400D01*
X79491400Y-46579400D01*
G37*
G36*
X88391400Y-46579400D02*
X86289400Y-46579400D01*
X86289400Y-44777400D01*
X88391400Y-44777400D01*
X88391400Y-46579400D01*
X88391400Y-46579400D01*
G37*
G36*
X80851121Y-42548574D02*
X80951395Y-42590109D01*
X81041645Y-42650412D01*
X81118388Y-42727155D01*
X81178691Y-42817405D01*
X81220226Y-42917679D01*
X81241400Y-43024130D01*
X81241400Y-43132670D01*
X81220226Y-43239121D01*
X81178691Y-43339395D01*
X81118388Y-43429645D01*
X81041645Y-43506388D01*
X80951395Y-43566691D01*
X80851121Y-43608226D01*
X80744670Y-43629400D01*
X80636130Y-43629400D01*
X80529679Y-43608226D01*
X80429405Y-43566691D01*
X80339155Y-43506388D01*
X80262412Y-43429645D01*
X80202109Y-43339395D01*
X80160574Y-43239121D01*
X80139400Y-43132670D01*
X80139400Y-43024130D01*
X80160574Y-42917679D01*
X80202109Y-42817405D01*
X80262412Y-42727155D01*
X80339155Y-42650412D01*
X80429405Y-42590109D01*
X80529679Y-42548574D01*
X80636130Y-42527400D01*
X80744670Y-42527400D01*
X80851121Y-42548574D01*
X80851121Y-42548574D01*
G37*
G36*
X85251121Y-42548574D02*
X85351395Y-42590109D01*
X85441645Y-42650412D01*
X85518388Y-42727155D01*
X85578691Y-42817405D01*
X85620226Y-42917679D01*
X85641400Y-43024130D01*
X85641400Y-43132670D01*
X85620226Y-43239121D01*
X85578691Y-43339395D01*
X85518388Y-43429645D01*
X85441645Y-43506388D01*
X85351395Y-43566691D01*
X85251121Y-43608226D01*
X85144670Y-43629400D01*
X85036130Y-43629400D01*
X84929679Y-43608226D01*
X84829405Y-43566691D01*
X84739155Y-43506388D01*
X84662412Y-43429645D01*
X84602109Y-43339395D01*
X84560574Y-43239121D01*
X84539400Y-43132670D01*
X84539400Y-43024130D01*
X84560574Y-42917679D01*
X84602109Y-42817405D01*
X84662412Y-42727155D01*
X84739155Y-42650412D01*
X84829405Y-42590109D01*
X84929679Y-42548574D01*
X85036130Y-42527400D01*
X85144670Y-42527400D01*
X85251121Y-42548574D01*
X85251121Y-42548574D01*
G37*
G36*
X71696700Y-42986600D02*
X68094700Y-42986600D01*
X68094700Y-40384600D01*
X71696700Y-40384600D01*
X71696700Y-42986600D01*
X71696700Y-42986600D01*
G37*
G36*
X88391400Y-41129400D02*
X86289400Y-41129400D01*
X86289400Y-39327400D01*
X88391400Y-39327400D01*
X88391400Y-41129400D01*
X88391400Y-41129400D01*
G37*
G36*
X79491400Y-41129400D02*
X77389400Y-41129400D01*
X77389400Y-39327400D01*
X79491400Y-39327400D01*
X79491400Y-41129400D01*
X79491400Y-41129400D01*
G37*
M02*
